<svg width="241" height="80" viewBox="0 0 241 80" fill="none" xmlns="http://www.w3.org/2000/svg">
<g filter="url(#filter0_d_1306_2108)">
<rect x="10.4664" y="5.31104" width="220.974" height="60" rx="10" fill="#FFC916"/>
</g>
<g filter="url(#filter1_di_1306_2108)">
<path d="M60.55 40.125H54.3L53.35 43H48.2L54.625 25.375H60.275L66.675 43H61.5L60.55 40.125ZM59.325 36.375L57.425 30.675L55.55 36.375H59.325ZM74.9971 25.375C76.8471 25.375 78.4637 25.75 79.8471 26.5C81.2471 27.2333 82.3221 28.2667 83.0721 29.6C83.8221 30.9333 84.1971 32.4583 84.1971 34.175C84.1971 35.875 83.8137 37.3917 83.0471 38.725C82.2971 40.0583 81.2221 41.1083 79.8221 41.875C78.4387 42.625 76.8304 43 74.9971 43H68.0221V25.375H74.9971ZM74.6221 38.675C76.0554 38.675 77.1804 38.2833 77.9971 37.5C78.8137 36.7167 79.2221 35.6083 79.2221 34.175C79.2221 32.725 78.8137 31.6083 77.9971 30.825C77.1804 30.025 76.0554 29.625 74.6221 29.625H72.9221V38.675H74.6221ZM93.1309 25.375C94.9809 25.375 96.5975 25.75 97.9809 26.5C99.3809 27.2333 100.456 28.2667 101.206 29.6C101.956 30.9333 102.331 32.4583 102.331 34.175C102.331 35.875 101.948 37.3917 101.181 38.725C100.431 40.0583 99.3559 41.1083 97.9559 41.875C96.5725 42.625 94.9642 43 93.1309 43H86.1559V25.375H93.1309ZM92.7559 38.675C94.1892 38.675 95.3142 38.2833 96.1309 37.5C96.9475 36.7167 97.3559 35.6083 97.3559 34.175C97.3559 32.725 96.9475 31.6083 96.1309 30.825C95.3142 30.025 94.1892 29.625 92.7559 29.625H91.0559V38.675H92.7559ZM126.635 25.375V29.275H121.935V43H117.035V29.275H112.385V25.375H126.635ZM133.098 29.3V32.175H138.723V35.9H133.098V39.075H139.473V43H128.198V25.375H139.473V29.3H133.098ZM150.569 43L147.069 36.5H146.544V43H141.644V25.375H149.369C150.786 25.375 151.986 25.625 152.969 26.125C153.952 26.6083 154.694 27.2833 155.194 28.15C155.694 29 155.944 29.9583 155.944 31.025C155.944 32.225 155.611 33.2833 154.944 34.2C154.294 35.1 153.336 35.7417 152.069 36.125L156.044 43H150.569ZM146.544 33.15H148.969C149.636 33.15 150.136 32.9917 150.469 32.675C150.802 32.3583 150.969 31.9 150.969 31.3C150.969 30.7333 150.794 30.2917 150.444 29.975C150.111 29.6417 149.619 29.475 148.969 29.475H146.544V33.15ZM178.497 25.375V43H173.597V33.275L170.272 43H166.172L162.822 33.2V43H157.922V25.375H163.847L168.272 36.825L172.597 25.375H178.497ZM187.687 43.175C185.637 43.175 183.953 42.6917 182.637 41.725C181.32 40.7417 180.612 39.3417 180.512 37.525H185.737C185.787 38.1417 185.97 38.5917 186.287 38.875C186.603 39.1583 187.012 39.3 187.512 39.3C187.962 39.3 188.328 39.1917 188.612 38.975C188.912 38.7417 189.062 38.425 189.062 38.025C189.062 37.5083 188.82 37.1083 188.337 36.825C187.853 36.5417 187.07 36.225 185.987 35.875C184.837 35.4917 183.903 35.125 183.187 34.775C182.487 34.4083 181.87 33.8833 181.337 33.2C180.82 32.5 180.562 31.5917 180.562 30.475C180.562 29.3417 180.845 28.375 181.412 27.575C181.978 26.7583 182.762 26.1417 183.762 25.725C184.762 25.3083 185.895 25.1 187.162 25.1C189.212 25.1 190.845 25.5833 192.062 26.55C193.295 27.5 193.953 28.8417 194.037 30.575H188.712C188.695 30.0417 188.528 29.6417 188.212 29.375C187.912 29.1083 187.52 28.975 187.037 28.975C186.67 28.975 186.37 29.0833 186.137 29.3C185.903 29.5167 185.787 29.825 185.787 30.225C185.787 30.5583 185.912 30.85 186.162 31.1C186.428 31.3333 186.753 31.5417 187.137 31.725C187.52 31.8917 188.087 32.1083 188.837 32.375C189.953 32.7583 190.87 33.1417 191.587 33.525C192.32 33.8917 192.945 34.4167 193.462 35.1C193.995 35.7667 194.262 36.6167 194.262 37.65C194.262 38.7 193.995 39.6417 193.462 40.475C192.945 41.3083 192.187 41.9667 191.187 42.45C190.203 42.9333 189.037 43.175 187.687 43.175Z" fill="white"/>
</g>
<defs>
<filter id="filter0_d_1306_2108" x="0.966431" y="0.811035" width="239.974" height="79" filterUnits="userSpaceOnUse" color-interpolation-filters="sRGB">
<feFlood flood-opacity="0" result="BackgroundImageFix"/>
<feColorMatrix in="SourceAlpha" type="matrix" values="0 0 0 0 0 0 0 0 0 0 0 0 0 0 0 0 0 0 127 0" result="hardAlpha"/>
<feOffset dy="5"/>
<feGaussianBlur stdDeviation="4.75"/>
<feComposite in2="hardAlpha" operator="out"/>
<feColorMatrix type="matrix" values="0 0 0 0 0 0 0 0 0 0 0 0 0 0 0 0 0 0 0.25 0"/>
<feBlend mode="normal" in2="BackgroundImageFix" result="effect1_dropShadow_1306_2108"/>
<feBlend mode="normal" in="SourceGraphic" in2="effect1_dropShadow_1306_2108" result="shape"/>
</filter>
<filter id="filter1_di_1306_2108" x="43.0516" y="25.1001" width="156.359" height="28.3715" filterUnits="userSpaceOnUse" color-interpolation-filters="sRGB">
<feFlood flood-opacity="0" result="BackgroundImageFix"/>
<feColorMatrix in="SourceAlpha" type="matrix" values="0 0 0 0 0 0 0 0 0 0 0 0 0 0 0 0 0 0 127 0" result="hardAlpha"/>
<feOffset dy="5.14838"/>
<feGaussianBlur stdDeviation="2.57419"/>
<feComposite in2="hardAlpha" operator="out"/>
<feColorMatrix type="matrix" values="0 0 0 0 0 0 0 0 0 0 0 0 0 0 0 0 0 0 0.25 0"/>
<feBlend mode="normal" in2="BackgroundImageFix" result="effect1_dropShadow_1306_2108"/>
<feBlend mode="normal" in="SourceGraphic" in2="effect1_dropShadow_1306_2108" result="shape"/>
<feColorMatrix in="SourceAlpha" type="matrix" values="0 0 0 0 0 0 0 0 0 0 0 0 0 0 0 0 0 0 127 0" result="hardAlpha"/>
<feOffset dy="2.57419"/>
<feGaussianBlur stdDeviation="2.57419"/>
<feComposite in2="hardAlpha" operator="arithmetic" k2="-1" k3="1"/>
<feColorMatrix type="matrix" values="0 0 0 0 0 0 0 0 0 0 0 0 0 0 0 0 0 0 0.25 0"/>
<feBlend mode="normal" in2="shape" result="effect2_innerShadow_1306_2108"/>
</filter>
</defs>
</svg>
