<svg width="241" height="80" viewBox="0 0 241 80" fill="none" xmlns="http://www.w3.org/2000/svg">
<g filter="url(#filter0_d_1268_2944)">
<rect x="10.4663" y="4.83789" width="220.974" height="60" rx="10" fill="#FFC916"/>
</g>
<g filter="url(#filter1_di_1268_2944)">
<path d="M48.1806 42.5129C46.1306 42.5129 44.4473 42.0296 43.1306 41.0629C41.8139 40.0796 41.1056 38.6796 41.0056 36.8629H46.2306C46.2806 37.4796 46.4639 37.9296 46.7806 38.2129C47.0973 38.4962 47.5056 38.6379 48.0056 38.6379C48.4556 38.6379 48.8223 38.5296 49.1056 38.3129C49.4056 38.0796 49.5556 37.7629 49.5556 37.3629C49.5556 36.8462 49.3139 36.4462 48.8306 36.1629C48.3473 35.8796 47.5639 35.5629 46.4806 35.2129C45.3306 34.8296 44.3973 34.4629 43.6806 34.1129C42.9806 33.7462 42.3639 33.2212 41.8306 32.5379C41.3139 31.8379 41.0556 30.9296 41.0556 29.8129C41.0556 28.6796 41.3389 27.7129 41.9056 26.9129C42.4723 26.0962 43.2556 25.4796 44.2556 25.0629C45.2556 24.6462 46.3889 24.4379 47.6556 24.4379C49.7056 24.4379 51.3389 24.9212 52.5556 25.8879C53.7889 26.8379 54.4473 28.1796 54.5306 29.9129H49.2056C49.1889 29.3796 49.0223 28.9796 48.7056 28.7129C48.4056 28.4462 48.0139 28.3129 47.5306 28.3129C47.1639 28.3129 46.8639 28.4212 46.6306 28.6379C46.3973 28.8546 46.2806 29.1629 46.2806 29.5629C46.2806 29.8962 46.4056 30.1879 46.6556 30.4379C46.9223 30.6712 47.2473 30.8796 47.6306 31.0629C48.0139 31.2296 48.5806 31.4462 49.3306 31.7129C50.4473 32.0962 51.3639 32.4796 52.0806 32.8629C52.8139 33.2296 53.4389 33.7546 53.9556 34.4379C54.4889 35.1046 54.7556 35.9546 54.7556 36.9879C54.7556 38.0379 54.4889 38.9796 53.9556 39.8129C53.4389 40.6462 52.6806 41.3046 51.6806 41.7879C50.6973 42.2712 49.5306 42.5129 48.1806 42.5129ZM67.9335 39.4629H61.6835L60.7335 42.3379H55.5835L62.0085 24.7129H67.6585L74.0585 42.3379H68.8835L67.9335 39.4629ZM66.7085 35.7129L64.8085 30.0129L62.9335 35.7129H66.7085ZM92.5556 24.7129L86.4806 42.3379H80.2056L74.1056 24.7129H79.3556L83.3556 37.4379L87.3306 24.7129H92.5556ZM98.7324 28.6379V31.5129H104.357V35.2379H98.7324V38.4129H105.107V42.3379H93.8324V24.7129H105.107V28.6379H98.7324ZM125.089 24.7129V28.6129H120.389V42.3379H115.489V28.6129H110.839V24.7129H125.089ZM131.552 28.6379V31.5129H137.177V35.2379H131.552V38.4129H137.927V42.3379H126.652V24.7129H137.927V28.6379H131.552ZM149.023 42.3379L145.523 35.8379H144.998V42.3379H140.098V24.7129H147.823C149.24 24.7129 150.44 24.9629 151.423 25.4629C152.406 25.9462 153.148 26.6212 153.648 27.4879C154.148 28.3379 154.398 29.2962 154.398 30.3629C154.398 31.5629 154.065 32.6212 153.398 33.5379C152.748 34.4379 151.79 35.0796 150.523 35.4629L154.498 42.3379H149.023ZM144.998 32.4879H147.423C148.09 32.4879 148.59 32.3296 148.923 32.0129C149.256 31.6962 149.423 31.2379 149.423 30.6379C149.423 30.0712 149.248 29.6296 148.898 29.3129C148.565 28.9796 148.073 28.8129 147.423 28.8129H144.998V32.4879ZM176.951 24.7129V42.3379H172.051V32.6129L168.726 42.3379H164.626L161.276 32.5379V42.3379H156.376V24.7129H162.301L166.726 36.1629L171.051 24.7129H176.951ZM186.141 42.5129C184.091 42.5129 182.407 42.0296 181.091 41.0629C179.774 40.0796 179.066 38.6796 178.966 36.8629H184.191C184.241 37.4796 184.424 37.9296 184.741 38.2129C185.057 38.4962 185.466 38.6379 185.966 38.6379C186.416 38.6379 186.782 38.5296 187.066 38.3129C187.366 38.0796 187.516 37.7629 187.516 37.3629C187.516 36.8462 187.274 36.4462 186.791 36.1629C186.307 35.8796 185.524 35.5629 184.441 35.2129C183.291 34.8296 182.357 34.4629 181.641 34.1129C180.941 33.7462 180.324 33.2212 179.791 32.5379C179.274 31.8379 179.016 30.9296 179.016 29.8129C179.016 28.6796 179.299 27.7129 179.866 26.9129C180.432 26.0962 181.216 25.4796 182.216 25.0629C183.216 24.6462 184.349 24.4379 185.616 24.4379C187.666 24.4379 189.299 24.9212 190.516 25.8879C191.749 26.8379 192.407 28.1796 192.491 29.9129H187.166C187.149 29.3796 186.982 28.9796 186.666 28.7129C186.366 28.4462 185.974 28.3129 185.491 28.3129C185.124 28.3129 184.824 28.4212 184.591 28.6379C184.357 28.8546 184.241 29.1629 184.241 29.5629C184.241 29.8962 184.366 30.1879 184.616 30.4379C184.882 30.6712 185.207 30.8796 185.591 31.0629C185.974 31.2296 186.541 31.4462 187.291 31.7129C188.407 32.0962 189.324 32.4796 190.041 32.8629C190.774 33.2296 191.399 33.7546 191.916 34.4379C192.449 35.1046 192.716 35.9546 192.716 36.9879C192.716 38.0379 192.449 38.9796 191.916 39.8129C191.399 40.6462 190.641 41.3046 189.641 41.7879C188.657 42.2712 187.491 42.5129 186.141 42.5129Z" fill="white"/>
</g>
<defs>
<filter id="filter0_d_1268_2944" x="0.966309" y="0.337891" width="239.974" height="79" filterUnits="userSpaceOnUse" color-interpolation-filters="sRGB">
<feFlood flood-opacity="0" result="BackgroundImageFix"/>
<feColorMatrix in="SourceAlpha" type="matrix" values="0 0 0 0 0 0 0 0 0 0 0 0 0 0 0 0 0 0 127 0" result="hardAlpha"/>
<feOffset dy="5"/>
<feGaussianBlur stdDeviation="4.75"/>
<feComposite in2="hardAlpha" operator="out"/>
<feColorMatrix type="matrix" values="0 0 0 0 0 0 0 0 0 0 0 0 0 0 0 0 0 0 0.25 0"/>
<feBlend mode="normal" in2="BackgroundImageFix" result="effect1_dropShadow_1268_2944"/>
<feBlend mode="normal" in="SourceGraphic" in2="effect1_dropShadow_1268_2944" result="shape"/>
</filter>
<filter id="filter1_di_1268_2944" x="35.8572" y="24.438" width="162.007" height="28.3715" filterUnits="userSpaceOnUse" color-interpolation-filters="sRGB">
<feFlood flood-opacity="0" result="BackgroundImageFix"/>
<feColorMatrix in="SourceAlpha" type="matrix" values="0 0 0 0 0 0 0 0 0 0 0 0 0 0 0 0 0 0 127 0" result="hardAlpha"/>
<feOffset dy="5.14838"/>
<feGaussianBlur stdDeviation="2.57419"/>
<feComposite in2="hardAlpha" operator="out"/>
<feColorMatrix type="matrix" values="0 0 0 0 0 0 0 0 0 0 0 0 0 0 0 0 0 0 0.25 0"/>
<feBlend mode="normal" in2="BackgroundImageFix" result="effect1_dropShadow_1268_2944"/>
<feBlend mode="normal" in="SourceGraphic" in2="effect1_dropShadow_1268_2944" result="shape"/>
<feColorMatrix in="SourceAlpha" type="matrix" values="0 0 0 0 0 0 0 0 0 0 0 0 0 0 0 0 0 0 127 0" result="hardAlpha"/>
<feOffset dy="2.57419"/>
<feGaussianBlur stdDeviation="2.57419"/>
<feComposite in2="hardAlpha" operator="arithmetic" k2="-1" k3="1"/>
<feColorMatrix type="matrix" values="0 0 0 0 0 0 0 0 0 0 0 0 0 0 0 0 0 0 0.25 0"/>
<feBlend mode="normal" in2="shape" result="effect2_innerShadow_1268_2944"/>
</filter>
</defs>
</svg>
