<svg width="40" height="40" viewBox="0 0 40 40" fill="none" xmlns="http://www.w3.org/2000/svg">
<path fill-rule="evenodd" clip-rule="evenodd" d="M23.0155 7.53445C22.3208 4.68253 18.2622 4.68253 17.5675 7.53445C17.4638 7.963 17.2604 8.361 16.9738 8.69608C16.6872 9.03115 16.3255 9.29383 15.9182 9.46273C15.5109 9.63163 15.0695 9.70198 14.6299 9.66807C14.1903 9.63415 13.7649 9.49692 13.3883 9.26754C10.88 7.7392 8.00978 10.6094 9.53814 13.1176C10.5254 14.7374 9.64966 16.8507 7.80685 17.2986C4.95306 17.9915 4.95306 22.0518 7.80685 22.7429C8.23552 22.8467 8.6336 23.0503 8.96868 23.3371C9.30376 23.6239 9.56636 23.9858 9.7351 24.3934C9.90385 24.8009 9.97396 25.2425 9.93973 25.6822C9.9055 26.1219 9.7679 26.5474 9.53814 26.9238C8.00978 29.4321 10.88 32.3023 13.3883 30.7739C13.7648 30.5442 14.1902 30.4066 14.63 30.3723C15.0697 30.3381 15.5113 30.4082 15.9188 30.577C16.3263 30.7457 16.6882 31.0083 16.9751 31.3434C17.2619 31.6785 17.4655 32.0765 17.5693 32.5052C18.2622 35.3589 22.3226 35.3589 23.0137 32.5052C23.1179 32.0768 23.3217 31.679 23.6086 31.3441C23.8954 31.0093 24.2573 30.7468 24.6647 30.5781C25.0721 30.4095 25.5135 30.3393 25.9531 30.3733C26.3927 30.4073 26.8181 30.5446 27.1947 30.7739C29.703 32.3023 32.5732 29.4321 31.0449 26.9238C30.8155 26.5473 30.6782 26.1219 30.6442 25.6823C30.6102 25.2427 30.6804 24.8012 30.8491 24.3938C31.0178 23.9865 31.2802 23.6246 31.6151 23.3377C31.9499 23.0509 32.3477 22.8471 32.7762 22.7429C35.63 22.05 35.63 17.9897 32.7762 17.2986C32.3475 17.1948 31.9494 16.9911 31.6143 16.7043C31.2793 16.4175 31.0166 16.0556 30.8479 15.6481C30.6792 15.2406 30.609 14.799 30.6433 14.3593C30.6775 13.9195 30.8151 13.4941 31.0449 13.1176C32.5732 10.6094 29.703 7.7392 27.1947 9.26754C26.8182 9.4973 26.3928 9.6349 25.953 9.66913C25.5133 9.70335 25.0717 9.63324 24.6642 9.4645C24.2567 9.29576 23.8948 9.03316 23.608 8.69809C23.3211 8.36301 23.1175 7.96494 23.0137 7.53628L23.0155 7.53445Z" stroke="#464255" stroke-width="2"/>
<path d="M23.5415 20.0205C23.5415 21.8154 22.0864 23.2705 20.2915 23.2705C18.4966 23.2705 17.0415 21.8154 17.0415 20.0205C17.0415 18.2256 18.4966 16.7705 20.2915 16.7705C22.0864 16.7705 23.5415 18.2256 23.5415 20.0205Z" stroke="#464255" stroke-width="2"/>
</svg>
