<svg width="191" height="80" viewBox="0 0 191 80" fill="none" xmlns="http://www.w3.org/2000/svg">
<g filter="url(#filter0_d_2214_4145)">
<rect x="10" y="5" width="171.49" height="60" rx="10" fill="#FF3F42"/>
</g>
<g filter="url(#filter1_di_2214_4145)">
<path d="M69.5691 42L66.0691 35.5H65.5441V42H60.6441V24.375H68.3691C69.7858 24.375 70.9858 24.625 71.9691 25.125C72.9525 25.6083 73.6941 26.2833 74.1941 27.15C74.6941 28 74.9441 28.9583 74.9441 30.025C74.9441 31.225 74.6108 32.2833 73.9441 33.2C73.2941 34.1 72.3358 34.7417 71.0691 35.125L75.0441 42H69.5691ZM65.5441 32.15H67.9691C68.6358 32.15 69.1358 31.9917 69.4691 31.675C69.8025 31.3583 69.9691 30.9 69.9691 30.3C69.9691 29.7333 69.7941 29.2917 69.4441 28.975C69.1108 28.6417 68.6191 28.475 67.9691 28.475H65.5441V32.15ZM81.8225 28.3V31.175H87.4475V34.9H81.8225V38.075H88.1975V42H76.9225V24.375H88.1975V28.3H81.8225ZM97.0188 42.175C94.9688 42.175 93.2854 41.6917 91.9688 40.725C90.6521 39.7417 89.9438 38.3417 89.8438 36.525H95.0688C95.1188 37.1417 95.3021 37.5917 95.6188 37.875C95.9354 38.1583 96.3438 38.3 96.8438 38.3C97.2938 38.3 97.6604 38.1917 97.9438 37.975C98.2438 37.7417 98.3938 37.425 98.3938 37.025C98.3938 36.5083 98.1521 36.1083 97.6688 35.825C97.1854 35.5417 96.4021 35.225 95.3188 34.875C94.1688 34.4917 93.2354 34.125 92.5188 33.775C91.8188 33.4083 91.2021 32.8833 90.6688 32.2C90.1521 31.5 89.8938 30.5917 89.8938 29.475C89.8938 28.3417 90.1771 27.375 90.7438 26.575C91.3104 25.7583 92.0938 25.1417 93.0938 24.725C94.0938 24.3083 95.2271 24.1 96.4938 24.1C98.5438 24.1 100.177 24.5833 101.394 25.55C102.627 26.5 103.285 27.8417 103.369 29.575H98.0438C98.0271 29.0417 97.8604 28.6417 97.5438 28.375C97.2438 28.1083 96.8521 27.975 96.3688 27.975C96.0021 27.975 95.7021 28.0833 95.4688 28.3C95.2354 28.5167 95.1188 28.825 95.1188 29.225C95.1188 29.5583 95.2438 29.85 95.4938 30.1C95.7604 30.3333 96.0854 30.5417 96.4688 30.725C96.8521 30.8917 97.4188 31.1083 98.1688 31.375C99.2854 31.7583 100.202 32.1417 100.919 32.525C101.652 32.8917 102.277 33.4167 102.794 34.1C103.327 34.7667 103.594 35.6167 103.594 36.65C103.594 37.7 103.327 38.6417 102.794 39.475C102.277 40.3083 101.519 40.9667 100.519 41.45C99.5354 41.9333 98.3688 42.175 97.0188 42.175ZM110.522 28.3V31.175H116.147V34.9H110.522V38.075H116.897V42H105.622V24.375H116.897V28.3H110.522ZM132.343 24.375V28.275H127.643V42H122.743V28.275H118.093V24.375H132.343Z" fill="white"/>
</g>
<defs>
<filter id="filter0_d_2214_4145" x="0.5" y="0.5" width="190.49" height="79" filterUnits="userSpaceOnUse" color-interpolation-filters="sRGB">
<feFlood flood-opacity="0" result="BackgroundImageFix"/>
<feColorMatrix in="SourceAlpha" type="matrix" values="0 0 0 0 0 0 0 0 0 0 0 0 0 0 0 0 0 0 127 0" result="hardAlpha"/>
<feOffset dy="5"/>
<feGaussianBlur stdDeviation="4.75"/>
<feComposite in2="hardAlpha" operator="out"/>
<feColorMatrix type="matrix" values="0 0 0 0 0 0 0 0 0 0 0 0 0 0 0 0 0 0 0.25 0"/>
<feBlend mode="normal" in2="BackgroundImageFix" result="effect1_dropShadow_2214_4145"/>
<feBlend mode="normal" in="SourceGraphic" in2="effect1_dropShadow_2214_4145" result="shape"/>
</filter>
<filter id="filter1_di_2214_4145" x="55.4962" y="24.1016" width="81.996" height="28.371" filterUnits="userSpaceOnUse" color-interpolation-filters="sRGB">
<feFlood flood-opacity="0" result="BackgroundImageFix"/>
<feColorMatrix in="SourceAlpha" type="matrix" values="0 0 0 0 0 0 0 0 0 0 0 0 0 0 0 0 0 0 127 0" result="hardAlpha"/>
<feOffset dy="5.14838"/>
<feGaussianBlur stdDeviation="2.57419"/>
<feComposite in2="hardAlpha" operator="out"/>
<feColorMatrix type="matrix" values="0 0 0 0 0 0 0 0 0 0 0 0 0 0 0 0 0 0 0.25 0"/>
<feBlend mode="normal" in2="BackgroundImageFix" result="effect1_dropShadow_2214_4145"/>
<feBlend mode="normal" in="SourceGraphic" in2="effect1_dropShadow_2214_4145" result="shape"/>
<feColorMatrix in="SourceAlpha" type="matrix" values="0 0 0 0 0 0 0 0 0 0 0 0 0 0 0 0 0 0 127 0" result="hardAlpha"/>
<feOffset dy="2.57419"/>
<feGaussianBlur stdDeviation="2.57419"/>
<feComposite in2="hardAlpha" operator="arithmetic" k2="-1" k3="1"/>
<feColorMatrix type="matrix" values="0 0 0 0 0 0 0 0 0 0 0 0 0 0 0 0 0 0 0.25 0"/>
<feBlend mode="normal" in2="shape" result="effect2_innerShadow_2214_4145"/>
</filter>
</defs>
</svg>
