<svg width="191" height="80" viewBox="0 0 191 80" fill="none" xmlns="http://www.w3.org/2000/svg">
<g filter="url(#filter0_d_2214_4141)">
<rect x="10" y="5" width="171.49" height="60" rx="10" fill="#FFC916"/>
</g>
<g filter="url(#filter1_di_2214_4141)">
<path d="M56.5671 42.175C54.5171 42.175 52.8338 41.6917 51.5171 40.725C50.2004 39.7417 49.4921 38.3417 49.3921 36.525H54.6171C54.6671 37.1417 54.8504 37.5917 55.1671 37.875C55.4838 38.1583 55.8921 38.3 56.3921 38.3C56.8421 38.3 57.2088 38.1917 57.4921 37.975C57.7921 37.7417 57.9421 37.425 57.9421 37.025C57.9421 36.5083 57.7004 36.1083 57.2171 35.825C56.7338 35.5417 55.9504 35.225 54.8671 34.875C53.7171 34.4917 52.7838 34.125 52.0671 33.775C51.3671 33.4083 50.7504 32.8833 50.2171 32.2C49.7004 31.5 49.4421 30.5917 49.4421 29.475C49.4421 28.3417 49.7254 27.375 50.2921 26.575C50.8588 25.7583 51.6421 25.1417 52.6421 24.725C53.6421 24.3083 54.7754 24.1 56.0421 24.1C58.0921 24.1 59.7254 24.5833 60.9421 25.55C62.1754 26.5 62.8338 27.8417 62.9171 29.575H57.5921C57.5754 29.0417 57.4088 28.6417 57.0921 28.375C56.7921 28.1083 56.4004 27.975 55.9171 27.975C55.5504 27.975 55.2504 28.0833 55.0171 28.3C54.7838 28.5167 54.6671 28.825 54.6671 29.225C54.6671 29.5583 54.7921 29.85 55.0421 30.1C55.3088 30.3333 55.6338 30.5417 56.0171 30.725C56.4004 30.8917 56.9671 31.1083 57.7171 31.375C58.8338 31.7583 59.7504 32.1417 60.4671 32.525C61.2004 32.8917 61.8254 33.4167 62.3421 34.1C62.8754 34.7667 63.1421 35.6167 63.1421 36.65C63.1421 37.7 62.8754 38.6417 62.3421 39.475C61.8254 40.3083 61.0671 40.9667 60.0671 41.45C59.0838 41.9333 57.9171 42.175 56.5671 42.175ZM69.97 24.375V34.6C69.97 35.55 70.1867 36.2833 70.62 36.8C71.07 37.3167 71.745 37.575 72.645 37.575C73.545 37.575 74.22 37.3167 74.67 36.8C75.1367 36.2667 75.37 35.5333 75.37 34.6V24.375H80.27V34.6C80.27 36.2167 79.9284 37.6 79.245 38.75C78.5617 39.8833 77.6284 40.7417 76.445 41.325C75.2784 41.8917 73.9784 42.175 72.545 42.175C71.1117 42.175 69.8284 41.8917 68.695 41.325C67.5784 40.7417 66.695 39.8833 66.045 38.75C65.4117 37.6167 65.095 36.2333 65.095 34.6V24.375H69.97ZM93.9679 32.95C95.0012 33.1833 95.8179 33.7 96.4179 34.5C97.0345 35.2833 97.3429 36.1833 97.3429 37.2C97.3429 38.7 96.8262 39.875 95.7929 40.725C94.7595 41.575 93.3095 42 91.4429 42H82.7179V24.375H91.1679C92.9679 24.375 94.3762 24.775 95.3929 25.575C96.4262 26.375 96.9429 27.5 96.9429 28.95C96.9429 29.9833 96.6679 30.85 96.1179 31.55C95.5845 32.2333 94.8679 32.7 93.9679 32.95ZM87.6179 31.375H90.0929C91.3262 31.375 91.9429 30.8667 91.9429 29.85C91.9429 28.8 91.3262 28.275 90.0929 28.275H87.6179V31.375ZM90.4679 38.05C91.7012 38.05 92.3179 37.5333 92.3179 36.5C92.3179 35.9667 92.1512 35.5583 91.8179 35.275C91.5012 34.9917 91.0429 34.85 90.4429 34.85H87.6179V38.05H90.4679ZM119.815 24.375V42H114.915V32.275L111.59 42H107.49L104.14 32.2V42H99.2403V24.375H105.165L109.59 35.825L113.915 24.375H119.815ZM127.255 24.375V42H122.355V24.375H127.255ZM143.07 24.375V28.275H138.37V42H133.47V28.275H128.82V24.375H143.07Z" fill="white"/>
</g>
<defs>
<filter id="filter0_d_2214_4141" x="0.5" y="0.5" width="190.49" height="79" filterUnits="userSpaceOnUse" color-interpolation-filters="sRGB">
<feFlood flood-opacity="0" result="BackgroundImageFix"/>
<feColorMatrix in="SourceAlpha" type="matrix" values="0 0 0 0 0 0 0 0 0 0 0 0 0 0 0 0 0 0 127 0" result="hardAlpha"/>
<feOffset dy="5"/>
<feGaussianBlur stdDeviation="4.75"/>
<feComposite in2="hardAlpha" operator="out"/>
<feColorMatrix type="matrix" values="0 0 0 0 0 0 0 0 0 0 0 0 0 0 0 0 0 0 0.25 0"/>
<feBlend mode="normal" in2="BackgroundImageFix" result="effect1_dropShadow_2214_4141"/>
<feBlend mode="normal" in="SourceGraphic" in2="effect1_dropShadow_2214_4141" result="shape"/>
</filter>
<filter id="filter1_di_2214_4141" x="44.2442" y="24.1016" width="103.974" height="28.371" filterUnits="userSpaceOnUse" color-interpolation-filters="sRGB">
<feFlood flood-opacity="0" result="BackgroundImageFix"/>
<feColorMatrix in="SourceAlpha" type="matrix" values="0 0 0 0 0 0 0 0 0 0 0 0 0 0 0 0 0 0 127 0" result="hardAlpha"/>
<feOffset dy="5.14838"/>
<feGaussianBlur stdDeviation="2.57419"/>
<feComposite in2="hardAlpha" operator="out"/>
<feColorMatrix type="matrix" values="0 0 0 0 0 0 0 0 0 0 0 0 0 0 0 0 0 0 0.25 0"/>
<feBlend mode="normal" in2="BackgroundImageFix" result="effect1_dropShadow_2214_4141"/>
<feBlend mode="normal" in="SourceGraphic" in2="effect1_dropShadow_2214_4141" result="shape"/>
<feColorMatrix in="SourceAlpha" type="matrix" values="0 0 0 0 0 0 0 0 0 0 0 0 0 0 0 0 0 0 127 0" result="hardAlpha"/>
<feOffset dy="2.57419"/>
<feGaussianBlur stdDeviation="2.57419"/>
<feComposite in2="hardAlpha" operator="arithmetic" k2="-1" k3="1"/>
<feColorMatrix type="matrix" values="0 0 0 0 0 0 0 0 0 0 0 0 0 0 0 0 0 0 0.25 0"/>
<feBlend mode="normal" in2="shape" result="effect2_innerShadow_2214_4141"/>
</filter>
</defs>
</svg>
