<?xml version="1.0" encoding="UTF-8"?>
<svg version="1.1" xmlns="http://www.w3.org/2000/svg" width="1021" height="980">
<path d="M0 0 C336.93 0 673.86 0 1021 0 C1021 323.4 1021 646.8 1021 980 C684.07 980 347.14 980 0 980 C0 656.6 0 333.2 0 0 Z " fill="#FEFEFE" transform="translate(0,0)"/>
<path d="M0 0 C2.85586733 1.00740409 5.69711755 2.04785225 8.53564453 3.10302734 C11.49002785 4.17835965 14.47737826 5.07446195 17.5 5.9375 C22.46432269 7.4471186 27.07830683 9.24141369 31.7578125 11.47265625 C34.30156815 12.67097969 36.85076174 13.81526496 39.4296875 14.93359375 C62.04450892 24.78764447 82.44466897 37.02206498 102 52 C103.37386823 53.022356 104.74874604 54.04335785 106.125 55.0625 C113.4822492 60.6070936 120.41947282 66.23892294 126.8515625 72.8515625 C128.82848086 74.82848086 130.86252124 76.63796255 133 78.4375 C137.78649104 82.56443519 141.85965779 87.23729622 146 92 C146.926617 93.04077995 147.85372057 94.08112686 148.78125 95.12109375 C171.35210604 120.66456835 188.90014176 150.60644738 202 182 C202.28037109 182.6712793 202.56074219 183.34255859 202.84960938 184.03417969 C207.90884198 196.35747095 211.43593585 209.18215494 215 222 C215.20898926 222.73186523 215.41797852 223.46373047 215.63330078 224.21777344 C219.33856884 237.24294147 221.11975556 250.61364238 223 264 C223.16230103 265.05876343 223.16230103 265.05876343 223.32788086 266.13891602 C224.18295189 272.06339124 224.18378837 277.96548535 224.1875 283.9375 C224.19974609 284.97068359 224.21199219 286.00386719 224.22460938 287.06835938 C224.24636471 298.51891706 222.45390489 308.27238039 214.25 316.82421875 C204.62116625 324.78806667 192.04829175 326.15511654 180.02410126 326.12863445 C179.01847857 326.13038749 178.01285589 326.13214053 176.97675979 326.13394669 C173.59187405 326.13861525 170.20703111 326.13613896 166.82214355 326.13371277 C164.37681115 326.13558032 161.93147904 326.1378808 159.4861474 326.14057809 C154.16149046 326.14542784 148.83684603 326.14714938 143.51218796 326.14612198 C135.59386398 326.14459785 127.67555007 326.14875709 119.75722805 326.1539966 C104.79102244 326.16367279 89.82482025 326.16648097 74.85861188 326.16705366 C63.29899526 326.16751311 51.73937998 326.16957094 40.17976379 326.17275429 C36.85293532 326.17365183 33.52610684 326.17454165 30.19927835 326.17542917 C28.95869127 326.17576074 28.95869127 326.17576074 27.69304182 326.17609901 C4.42490592 326.18225437 -18.84322952 326.18619947 -42.11136627 326.18575573 C-42.98883611 326.18574015 -43.86630595 326.18572457 -44.77036579 326.18570852 C-49.21777962 326.18562541 -53.66519346 326.18552637 -58.1126073 326.18542381 C-58.99588266 326.18540387 -59.87915802 326.18538392 -60.7891993 326.18536337 C-62.57539938 326.18532294 -64.36159946 326.18528114 -66.14779954 326.18523798 C-93.92829087 326.18462544 -121.70876998 326.19212735 -149.48925781 326.20581055 C-180.69990911 326.22117692 -211.91055239 326.2297764 -243.12120771 326.22884732 C-246.45055103 326.22877269 -249.77989435 326.22872399 -253.10923767 326.22869301 C-254.33889036 326.22867553 -254.33889036 326.22867553 -255.59338452 326.22865769 C-268.77718791 326.22862694 -281.96098068 326.23500892 -295.14478091 326.24362527 C-308.40083066 326.25210949 -321.65686492 326.25308572 -334.91291589 326.24651595 C-342.78402614 326.24282515 -350.65508926 326.24463858 -358.5261945 326.25445829 C-364.41009732 326.2611773 -370.29396344 326.25739198 -376.17786592 326.24958507 C-378.55342496 326.24804852 -380.92898912 326.24987206 -383.30454212 326.25544515 C-419.2081228 326.33407875 -419.2081228 326.33407875 -430.28515625 317.09375 C-438.02064701 309.34422024 -439.23786572 300.55407806 -439.375 289.9375 C-439.03745124 253.08908848 -430.30345405 214.93311922 -416 181 C-415.69690918 180.27329102 -415.39381836 179.54658203 -415.08154297 178.79785156 C-406.68389681 158.87669982 -396.54857333 139.62415807 -384 122 C-383.30261719 121.01 -382.60523438 120.02 -381.88671875 119 C-374.68322516 108.92909634 -366.85177005 99.58739311 -358.41894531 90.53662109 C-357.02156997 89.0233588 -355.64473521 87.49393269 -354.2734375 85.95703125 C-340.55632829 70.6325449 -324.73932712 57.88753443 -308 46 C-307.4126709 45.58105469 -306.8253418 45.16210938 -306.22021484 44.73046875 C-295.03963373 36.82278859 -283.11304141 30.35673127 -271 24 C-269.87513184 23.40759521 -269.87513184 23.40759521 -268.72753906 22.80322266 C-236.81809527 6.10469088 -197.00676444 -11.56974089 -161.38354492 -0.7878418 C-105.29619542 16.14345981 -52.48557097 -16.80150077 0 0 Z " fill="#4A4A4C" transform="translate(618,496)"/>
<path d="M0 0 C1.67449219 0.93972656 1.67449219 0.93972656 3.3828125 1.8984375 C36.09384623 21.20977067 62.66444721 53.731844 72.72363281 90.65625 C78.11628114 111.67225429 78.11628114 111.67225429 78.23828125 122.6171875 C78.24812042 123.34290451 78.25795959 124.06862152 78.26809692 124.81632996 C78.75955367 170.57996613 66.11122804 210.22345273 33.72192383 243.63183594 C26.94663393 250.47189346 20.18069737 256.85259491 12 262 C11.45730469 262.34933594 10.91460938 262.69867188 10.35546875 263.05859375 C-10.51147488 276.43009421 -32.41836226 284.73801009 -57 288 C-58.30066406 288.18433594 -59.60132813 288.36867188 -60.94140625 288.55859375 C-97.11181999 292.95775787 -136.25480814 280.98580269 -165 259 C-196.48339589 234.16515654 -219.72272734 198.19448006 -225.28475952 157.93904114 C-225.87674588 152.78562688 -226.18372474 147.69741139 -226.23828125 142.51171875 C-226.25310799 141.34658501 -226.25310799 141.34658501 -226.26823425 140.15791321 C-226.59861907 107.49913975 -226.59861907 107.49913975 -222 93 C-221.71560059 92.09910645 -221.43120117 91.19821289 -221.13818359 90.27001953 C-217.45752491 78.93711257 -213.1832072 68.21104806 -207 58 C-206.66436035 57.43958008 -206.3287207 56.87916016 -205.98291016 56.30175781 C-203.70458067 52.50278809 -201.38091435 48.73582644 -199 45 C-198.30261719 43.88496094 -197.60523438 42.76992187 -196.88671875 41.62109375 C-196.26410156 40.75613281 -195.64148438 39.89117187 -195 39 C-194.34 39 -193.68 39 -193 39 C-192.731875 38.4225 -192.46375 37.845 -192.1875 37.25 C-190.97070811 34.94449957 -189.69666121 32.97943808 -188 31 C-187.34 31 -186.68 31 -186 31 C-185.773125 30.443125 -185.54625 29.88625 -185.3125 29.3125 C-183.62449964 26.33840412 -181.53323483 24.27991135 -179 22 C-178.34 22 -177.68 22 -177 22 C-177 21.34 -177 20.68 -177 20 C-174.99758939 18.21974133 -172.99389303 16.56977061 -170.875 14.9375 C-169.92318848 14.20104248 -169.92318848 14.20104248 -168.95214844 13.44970703 C-148.8981318 -1.86093493 -126.98036928 -12.56303502 -102 -17 C-101.06430176 -17.16918945 -100.12860352 -17.33837891 -99.16455078 -17.51269531 C-65.03666383 -23.28588 -30.08318843 -16.89198169 0 0 Z " fill="#4A4A4C" transform="translate(585,177)"/>
<path d="M0 0 C3.53191322 3.43153914 6.7137505 6.97375062 9.8125 10.8125 C10.60269531 11.78832031 11.39289062 12.76414062 12.20703125 13.76953125 C13.09455078 14.87361328 13.09455078 14.87361328 14 16 C13.34 16.99 12.68 17.98 12 19 C11.9175 18.38125 11.835 17.7625 11.75 17.125 C11.19416524 14.83911206 11.19416524 14.83911206 9.0625 13.8125 C8.381875 13.544375 7.70125 13.27625 7 13 C6.34 12.67 5.68 12.34 5 12 C4.01 13.485 4.01 13.485 3 15 C3.33 13.02 3.66 11.04 4 9 C3.38125 8.690625 2.7625 8.38125 2.125 8.0625 C0.75 7.375 -0.625 6.6875 -2 6 C-1.34 4.02 -0.68 2.04 0 0 Z " fill="#535354" transform="translate(765,590)"/>
<path d="M0 0 C4.55737263 0.43820891 7.57653445 0.85041169 11 4 C10.67 4.66 10.34 5.32 10 6 C9.236875 5.814375 8.47375 5.62875 7.6875 5.4375 C4.91032625 4.77180827 4.91032625 4.77180827 2 6 C1.67 5.34 1.34 4.68 1 4 C0.34 3.67 -0.32 3.34 -1 3 C-0.67 2.01 -0.34 1.02 0 0 Z M5 6 C7 7 7 7 7 7 Z " fill="#505052" transform="translate(578,176)"/>
<path d="M0 0 C3.53233755 1.17744585 3.86308075 1.95605641 5.6875 5.0625 C6.12449219 5.79597656 6.56148437 6.52945313 7.01171875 7.28515625 C7.33785156 7.85105469 7.66398438 8.41695312 8 9 C7.01 9.99 6.02 10.98 5 12 C4.34 11.67 3.68 11.34 3 11 C2.36182933 8.6954948 1.97962677 6.38503677 1.5625 4.03125 C1.376875 3.3609375 1.19125 2.690625 1 2 C0.34 1.67 -0.32 1.34 -1 1 C-0.67 0.67 -0.34 0.34 0 0 Z " fill="#545455" transform="translate(786,619)"/>
<path d="M0 0 C-0.495 0.433125 -0.99 0.86625 -1.5 1.3125 C-3.33218192 2.99740483 -3.33218192 2.99740483 -3 6 C-6.3 5.34 -9.6 4.68 -13 4 C-10.56272708 2.37515139 -8.62713877 1.34310925 -5.9375 0.3125 C-5.24527344 0.04050781 -4.55304688 -0.23148437 -3.83984375 -0.51171875 C-2 -1 -2 -1 0 0 Z " fill="#555555" transform="translate(386,505)"/>
<path d="M0 0 C2.37706418 3.66539668 2.05094317 6.49056835 1.625 10.75 C1.51414063 11.92046875 1.40328125 13.0909375 1.2890625 14.296875 C1.19367188 15.18890625 1.09828125 16.0809375 1 17 C-0.515625 15.80859375 -0.515625 15.80859375 -2 14 C-2.109375 11.66015625 -2.109375 11.66015625 -1.75 9.0625 C-1.64171875 8.20785156 -1.5334375 7.35320313 -1.421875 6.47265625 C-1.04706083 4.27582874 -0.57889638 2.15089949 0 0 Z " fill="#5D5D5D" transform="translate(186,728)"/>
<path d="M0 0 C0.99 0.66 1.98 1.32 3 2 C3 2.66 3 3.32 3 4 C2.34 4 1.68 4 1 4 C-0.73662334 7.22515763 -1.8905928 10.51329166 -3 14 C-3.33 13.34 -3.66 12.68 -4 12 C-4.66 11.67 -5.32 11.34 -6 11 C-4.02 7.37 -2.04 3.74 0 0 Z " fill="#535353" transform="translate(224,633)"/>
<path d="M0 0 C4.455 2.97 4.455 2.97 9 6 C8.01 6.495 8.01 6.495 7 7 C6.67 7.66 6.34 8.32 6 9 C5.67 8.67 5.34 8.34 5 8 C4.34 8.66 3.68 9.32 3 10 C2.566875 8.2984375 2.566875 8.2984375 2.125 6.5625 C1.75375 5.386875 1.3825 4.21125 1 3 C0.34 2.67 -0.32 2.34 -1 2 C-0.67 1.34 -0.34 0.68 0 0 Z " fill="#545454" transform="translate(726,553)"/>
<path d="M0 0 C1.9375 0.125 1.9375 0.125 4 1 C5.125 3.375 5.125 3.375 6 6 C6.99 7.485 6.99 7.485 8 9 C5.75 8.9375 5.75 8.9375 3 8 C1.32150176 5.7691525 0.24000737 3.52594094 -1 1 C-0.67 0.67 -0.34 0.34 0 0 Z " fill="#EFEFEF" transform="translate(779,604)"/>
<path d="M0 0 C-0.33 0.99 -0.66 1.98 -1 3 C-1.99 3 -2.98 3 -4 3 C-4 3.99 -4 4.98 -4 6 C-6.4375 5.625 -6.4375 5.625 -9 5 C-9.33 4.34 -9.66 3.68 -10 3 C-6.27034861 0.96564469 -4.33094958 0 0 0 Z " fill="#545456" transform="translate(367,512)"/>
<path d="M0 0 C0.66 0 1.32 0 2 0 C1.01 2.97 0.02 5.94 -1 9 C-2.65 9.33 -4.3 9.66 -6 10 C-5.05065487 8.32819726 -4.09026687 6.66266064 -3.125 5 C-2.59132813 4.071875 -2.05765625 3.14375 -1.5078125 2.1875 C-1.01023437 1.465625 -0.51265625 0.74375 0 0 Z " fill="#525253" transform="translate(388,219)"/>
<path d="M0 0 C2.75 0.25 2.75 0.25 5 1 C2.6875 3.5 2.6875 3.5 0 6 C-0.99 6 -1.98 6 -3 6 C-3.33 5.34 -3.66 4.68 -4 4 C-2.3125 1.9375 -2.3125 1.9375 0 0 Z " fill="#565657" transform="translate(829,809)"/>
<path d="M0 0 C-0.60698743 4.12751449 -2.03810791 7.3321148 -4 11 C-4.33 11 -4.66 11 -5 11 C-4.8864371 9.35333797 -4.75882619 7.70763918 -4.625 6.0625 C-4.55539062 5.14597656 -4.48578125 4.22945312 -4.4140625 3.28515625 C-4.27742187 2.53105469 -4.14078125 1.77695312 -4 1 C-2 0 -2 0 0 0 Z " fill="#555556" transform="translate(840,797)"/>
<path d="M0 0 C6.875 3.75 6.875 3.75 8 6 C7.34 6.66 6.68 7.32 6 8 C6 7.34 6 6.68 6 6 C5.34 6 4.68 6 4 6 C4.33 7.32 4.66 8.64 5 10 C4.34 10 3.68 10 3 10 C3 8.68 3 7.36 3 6 C2.34 5.67 1.68 5.34 1 5 C1.33 4.34 1.66 3.68 2 3 C1.34 3 0.68 3 0 3 C0 2.01 0 1.02 0 0 Z " fill="#535353" transform="translate(598,186)"/>
<path d="M0 0 C-0.33 1.32 -0.66 2.64 -1 4 C-3.25 4.6875 -3.25 4.6875 -6 5 C-8.3125 3.5625 -8.3125 3.5625 -10 2 C-3.375 0 -3.375 0 0 0 Z " fill="#545456" transform="translate(566,495)"/>
<path d="M0 0 C0.99 0.66 1.98 1.32 3 2 C1.02 4.31 -0.96 6.62 -3 9 C-3.66 8.67 -4.32 8.34 -5 8 C-3.8141763 4.62496331 -2.72426311 2.35277269 0 0 Z " fill="#525252" transform="translate(267,578)"/>
<path d="M0 0 C0.66 1.32 1.32 2.64 2 4 C0.03533587 5.06775224 -1.96855359 6.06553465 -4 7 C-6 6 -6 6 -7 4 C-4.69 2.68 -2.38 1.36 0 0 Z " fill="#545454" transform="translate(433,179)"/>
<path d="M0 0 C3.68754757 0.49831724 5.60490662 1.10067643 8 4 C7.67 4.66 7.34 5.32 7 6 C4.625 5.8125 4.625 5.8125 2 5 C0.6875 2.4375 0.6875 2.4375 0 0 Z " fill="#525254" transform="translate(688,528)"/>
<path d="M0 0 C-0.33 0.99 -0.66 1.98 -1 3 C-4.3 2.01 -7.6 1.02 -11 0 C-11 -0.33 -11 -0.66 -11 -1 C-6.70700357 -2.26264601 -4.12168689 -1.62950412 0 0 Z " fill="#E9E9E9" transform="translate(659,508)"/>
<path d="M0 0 C2.4375 0.75 2.4375 0.75 5 2 C5.8125 4.125 5.8125 4.125 6 6 C4.35 6.33 2.7 6.66 1 7 C0.67 4.69 0.34 2.38 0 0 Z " fill="#515153" transform="translate(633,224)"/>
<path d="M0 0 C0 0.66 0 1.32 0 2 C0.66 2 1.32 2 2 2 C2 2.66 2 3.32 2 4 C0.02 4 -1.96 4 -4 4 C-4.33 4.66 -4.66 5.32 -5 6 C-5.33 4.68 -5.66 3.36 -6 2 C-2.25 0 -2.25 0 0 0 Z " fill="#515151" transform="translate(452,170)"/>
<path d="M0 0 C0.33 0 0.66 0 1 0 C1.08159574 4.16138263 0.98248524 7.9472484 0 12 C-0.99 11.01 -1.98 10.02 -3 9 C-2.01 6.03 -1.02 3.06 0 0 Z " fill="#595959" transform="translate(207,665)"/>
<path d="M0 0 C0 0.33 0 0.66 0 1 C-2.31 1.33 -4.62 1.66 -7 2 C-7.33 2.99 -7.66 3.98 -8 5 C-9.98 4.34 -11.96 3.68 -14 3 C-8.75250397 0.37625198 -5.91152367 -0.09534716 0 0 Z " fill="#676767" transform="translate(586,490)"/>
<path d="M0 0 C0.66 0 1.32 0 2 0 C2 0.66 2 1.32 2 2 C3.65 2.33 5.3 2.66 7 3 C7 3.33 7 3.66 7 4 C4.36 4 1.72 4 -1 4 C-0.67 2.68 -0.34 1.36 0 0 Z " fill="#565656" transform="translate(206,817)"/>
<path d="M0 0 C2 3 2 3 2 5 C-0.375 6.6875 -0.375 6.6875 -3 8 C-3.66 7.67 -4.32 7.34 -5 7 C-3.35 4.69 -1.7 2.38 0 0 Z " fill="#59595A" transform="translate(241,608)"/>
<path d="M0 0 C4 1 4 1 4 1 Z M-1 1 C1 3 1 3 1 5 C-0.65 5.33 -2.3 5.66 -4 6 C-3.625 4.0625 -3.625 4.0625 -3 2 C-2.34 1.67 -1.68 1.34 -1 1 Z " fill="#545454" transform="translate(569,449)"/>
<path d="M0 0 C0.99 0.33 1.98 0.66 3 1 C2.67 1.66 2.34 2.32 2 3 C0.68 2.34 -0.64 1.68 -2 1 C-1.34 0.67 -0.68 0.34 0 0 Z M3 0 C6.68754757 0.49831724 8.60490662 1.10067643 11 4 C5.25 2.25 5.25 2.25 3 0 Z " fill="#454545" transform="translate(571,173)"/>
<path d="M0 0 C1.32 0.66 2.64 1.32 4 2 C3.34 3.32 2.68 4.64 2 6 C0.68 6 -0.64 6 -2 6 C-1.34 4.02 -0.68 2.04 0 0 Z " fill="#565658" transform="translate(210,659)"/>
<path d="M0 0 C0.68707555 2.49064888 1 4.37886292 1 7 C0.01 6.67 -0.98 6.34 -2 6 C-2 5.34 -2 4.68 -2 4 C-2.66 3.34 -3.32 2.68 -4 2 C-2.68 1.34 -1.36 0.68 0 0 Z " fill="#555557" transform="translate(438,176)"/>
<path d="M0 0 C3 3.75 3 3.75 3 6 C1.35 5.67 -0.3 5.34 -2 5 C-2.33 3.68 -2.66 2.36 -3 1 C-2.01 0.67 -1.02 0.34 0 0 Z " fill="#565656" transform="translate(806,650)"/>
<path d="M0 0 C-0.33 1.32 -0.66 2.64 -1 4 C-1.66 4 -2.32 4 -3 4 C-3 4.66 -3 5.32 -3 6 C-3.66 6 -4.32 6 -5 6 C-5.33 5.01 -5.66 4.02 -6 3 C-2.25 0 -2.25 0 0 0 Z " fill="#555556" transform="translate(306,546)"/>
<path d="M0 0 C1.98 1.65 3.96 3.3 6 5 C5.01 6.485 5.01 6.485 4 8 C2.35 5.69 0.7 3.38 -1 1 C-0.67 0.67 -0.34 0.34 0 0 Z " fill="#F0F0F0" transform="translate(400,418)"/>
<path d="M0 0 C0.99 0.33 1.98 0.66 3 1 C3.33 2.98 3.66 4.96 4 7 C2.35 5.68 0.7 4.36 -1 3 C-0.67 2.01 -0.34 1.02 0 0 Z " fill="#F2F2F2" transform="translate(611,192)"/>
<path d="M0 0 C2.91517292 1.07401108 4.77810176 1.77810176 7 4 C6.34 4.66 5.68 5.32 5 6 C3.2925002 4.71937515 1.62626404 3.38232443 0 2 C0 1.34 0 0.68 0 0 Z " fill="#EBEBEB" transform="translate(590,178)"/>
<path d="M0 0 C0.33 0.99 0.66 1.98 1 3 C-0.98 3.99 -0.98 3.99 -3 5 C-3.66 4.01 -4.32 3.02 -5 2 C-2 0 -2 0 0 0 Z " fill="#545454" transform="translate(319,537)"/>
<path d="M0 0 C1.32 0.66 2.64 1.32 4 2 C4 3.65 4 5.3 4 7 C3.01 6.67 2.02 6.34 1 6 C1 4.68 1 3.36 1 2 C0.34 1.67 -0.32 1.34 -1 1 C-0.67 0.67 -0.34 0.34 0 0 Z " fill="#515153" transform="translate(698,533)"/>
</svg>
