<svg width="230" height="475" viewBox="0 0 230 475" fill="none" xmlns="http://www.w3.org/2000/svg">
<g clip-path="url(#clip0_1046_594)">
<path d="M178.985 332.783C179.615 326.861 187 297.176 187 297.176C187 297.176 178.369 258.692 163.389 240.765C153.661 229.123 135.526 215.815 135.526 215.815L135.203 215.55C125.259 217 116.743 217 114.8 217C112.908 217 106.247 216.912 97.7957 215.661L96.5149 216.899C96.5149 216.899 77.4561 226.718 67.0067 242.393C56.5573 258.067 43 297.176 43 297.176C43 297.176 54.5606 329.869 55.5613 334.142C56.3198 337.381 60.2014 342.051 64.2083 346.181C64.2083 346.181 60.3023 367.056 59.2069 380.619C56.7299 411.289 64.2083 459.268 64.2083 459.268C64.2083 459.268 70.4947 474.227 78.5099 474C86.4131 473.776 91.9975 458.901 91.9975 458.901L101 409L115.02 382.333L128.998 409.971L137.5 461.5C137.5 461.5 143.485 473.698 150.53 474C158.515 474.342 164.736 459.268 164.736 459.268C164.736 459.268 171.854 411.449 171.238 380.619C170.969 367.14 169.008 346.181 169.008 346.181C173.868 341.639 178.604 336.366 178.985 332.783Z" fill="#FFCEB4"/>
<path d="M55.1636 184.709C55.1636 194.455 58.1258 199.7 64.0363 203.764C74.3042 210.823 87.4035 214.122 97.7957 215.661C106.247 216.912 112.908 217 114.8 217C116.743 217 125.259 217 135.203 215.55C146.847 213.852 160.449 210.166 167.745 202.164C171.803 197.713 174.219 194.219 174.436 188.2C174.336 187.064 174.364 185.851 174.497 184.564C175.41 175.792 181.262 163.601 185.202 149.218C190.159 131.122 192.088 109.556 177.345 86.9637C166.145 69.8001 144.764 57 114.8 57C92.5455 57 64.3273 70.3819 53.7091 88.1273C35.9665 117.779 41.6452 133.678 47.9592 151.255L47.981 151.315C51.4789 161.052 55.1636 171.31 55.1636 184.709Z" fill="#FFCEB4"/>
<path d="M47.9592 151.255C47.9592 151.255 43.2364 144.564 35.6727 144.564C26.0727 144.564 22 152.568 22 160.564C22 169 26.7203 176.581 35.6727 181.655C42.3756 185.454 55.1636 184.709 55.1636 184.709C55.1636 171.31 51.4789 161.052 47.981 151.315L47.9592 151.255Z" fill="#FFCEB4"/>
<path d="M198.436 145C193.113 144.03 185.202 149.218 185.202 149.218C181.262 163.601 175.41 175.792 174.497 184.564C174.497 184.564 187.066 185.421 193.782 182.382C203.471 177.997 206.727 170.309 207.891 161.146C208.862 153.5 206.019 146.382 198.436 145Z" fill="#FFCEB4"/>
<path d="M55.1636 184.709C55.1636 194.455 58.1258 199.7 64.0363 203.764C74.3042 210.823 87.4035 214.122 97.7957 215.661M55.1636 184.709C55.1636 184.709 42.3756 185.454 35.6727 181.655C26.7203 176.581 22 169 22 160.564C22 152.568 26.0727 144.564 35.6727 144.564C43.2364 144.564 47.9592 151.255 47.9592 151.255M55.1636 184.709C55.1636 171.31 51.4789 161.052 47.981 151.315M185.202 149.218C190.159 131.122 192.088 109.556 177.345 86.9637C166.145 69.8001 144.764 57 114.8 57C92.5455 57 64.3273 70.3819 53.7091 88.1273C35.9665 117.779 41.6452 133.678 47.9592 151.255M185.202 149.218C185.202 149.218 193.113 144.03 198.436 145C206.019 146.382 208.862 153.5 207.891 161.146C206.727 170.309 203.471 177.997 193.782 182.382C187.066 185.421 174.497 184.564 174.497 184.564M185.202 149.218C181.262 163.601 175.41 175.792 174.497 184.564M174.497 184.564C174.364 185.851 174.336 187.064 174.436 188.2C174.219 194.219 171.803 197.713 167.745 202.164C160.449 210.166 146.847 213.852 135.203 215.55M47.9592 151.255L47.981 151.315M47.9592 151.255C47.9665 151.275 47.9737 151.295 47.981 151.315M97.7957 215.661L96.5149 216.899C96.5149 216.899 77.4561 226.718 67.0067 242.393C56.5573 258.067 43 297.176 43 297.176C43 297.176 54.5606 329.869 55.5613 334.142C56.3198 337.381 60.2014 342.051 64.2083 346.181C64.2083 346.181 60.3023 367.056 59.2069 380.619C56.73 411.289 64.2083 459.268 64.2083 459.268C64.2083 459.268 70.4947 474.227 78.5099 474C86.4131 473.776 91.9975 458.901 91.9975 458.901L101 409L115.02 382.333L128.998 409.971L137.5 461.5C137.5 461.5 143.485 473.698 150.53 474C158.515 474.342 164.736 459.268 164.736 459.268C164.736 459.268 171.854 411.449 171.238 380.619C170.969 367.14 169.008 346.181 169.008 346.181C173.868 341.639 178.604 336.366 178.985 332.783C179.615 326.861 187 297.176 187 297.176C187 297.176 178.369 258.692 163.389 240.765C153.661 229.123 135.526 215.815 135.526 215.815L135.203 215.55M97.7957 215.661C106.247 216.912 112.908 217 114.8 217C116.743 217 125.259 217 135.203 215.55" stroke="black" stroke-width="2" stroke-linejoin="round"/>
<path d="M78 155C78 151.686 80.6863 149 84 149C87.3137 149 90 151.686 90 155V168C90 171.314 87.3137 174 84 174C80.6863 174 78 171.314 78 168V155Z" fill="black"/>
<path d="M138 155C138 151.686 140.686 149 144 149C147.314 149 150 151.686 150 155V168C150 171.314 147.314 174 144 174C140.686 174 138 171.314 138 168V155Z" fill="black"/>
<path d="M74 193.5C74 196.538 67.0604 199 58.5 199C49.9396 199 43 196.538 43 193.5C43 190.462 49.9396 188 58.5 188C67.0604 188 74 190.462 74 193.5Z" fill="#F9A9E7"/>
<path d="M187 193.5C187 196.538 180.06 199 171.5 199C162.94 199 156 196.538 156 193.5C156 190.462 162.94 188 171.5 188C180.06 188 187 190.462 187 193.5Z" fill="#F9A9E7"/>
<path d="M105.147 197.763C105.312 196.942 106.307 196.525 107.064 196.881C108.569 197.588 111.114 198.469 114.5 198.5C118.11 198.533 121.06 197.581 122.798 196.842C123.562 196.518 124.5 197.072 124.5 197.903C124.5 198.274 124.308 198.616 123.977 198.784C122.692 199.439 119.142 201 114.5 201C110.08 201 106.933 199.584 105.646 198.884C105.245 198.666 105.058 198.21 105.147 197.763Z" fill="black"/>
<path d="M39.8694 144.353C41.8266 145.14 43.6936 146.47 45.2175 148.15C45.2175 148.15 39.7007 133.5 38.5323 124.539C37.0065 112.835 40.7607 95.808 40.7607 95.808C40.7607 95.808 34.819 112.352 35.4126 123.548C35.8628 132.038 39.8694 144.353 39.8694 144.353Z" fill="#292929"/>
<path d="M47.8915 152.279C52.3483 162.681 54.131 178.533 54.131 178.533C54.131 178.533 65.3309 166.419 67.0556 156.241C67.9001 151.258 66.1424 147.297 64.412 143.397C62.5693 139.244 60.7575 135.16 62.1532 129.988C62.1532 129.988 59.894 134.64 59.4791 137.913C59.2956 139.361 60.1042 141.312 61.0432 143.578C62.2271 146.434 63.6183 149.79 63.4902 153.269C63.0708 164.663 56.805 170.111 56.805 170.111L47.8915 152.279Z" fill="#292929"/>
<path d="M74.6321 111.659C74.6321 111.659 74.7389 130.276 81.3172 138.904C89.37 149.467 112.069 150.297 112.069 150.297C112.069 150.297 106.747 148.967 104.492 146.334C102.506 144.015 101.373 142.106 101.373 138.904C101.373 132.409 108.389 126.243 115.155 120.296L115.157 120.295C115.615 119.892 116.072 119.49 116.526 119.09C124.692 111.876 140.592 106.211 140.592 106.211C140.592 106.211 154.408 93.4266 156.191 83.4241C158.536 70.2662 138.809 59.1517 138.809 59.1517C138.809 59.1517 152.625 68.2387 152.625 80.452C152.625 95.1197 138.463 103.202 124.622 111.101C114.156 117.074 103.873 122.942 100.036 131.474C95.301 141.998 98.2529 144.848 98.2529 144.848C98.2529 144.848 86.5139 140.344 82.2086 132.96C78.8796 127.25 76.7206 123.196 77.3061 115.622C77.4646 113.572 79.7243 110.961 82.287 108C86.5345 103.093 91.6143 97.2233 89.3394 91.3498C87.83 87.453 82.6542 83.4241 82.6542 83.4241C82.6542 83.4241 85.5877 87.9613 86.2196 91.3498C87.9346 100.546 74.6321 111.659 74.6321 111.659Z" fill="#292929"/>
<path d="M108.058 110.173C108.058 110.173 140.592 92.3406 141.483 82.9288C141.924 78.2796 137.918 75.0031 137.918 75.0031C137.918 75.0031 143.982 79.1762 143.712 84.9102C143.345 92.6809 130.342 100.266 123.656 103.238L108.058 110.173Z" fill="#292929"/>
<path d="M174.909 182C174.909 182 181.594 160.204 185.16 148.811C185.935 146.334 195.856 143.858 195.856 143.858C195.856 143.858 194.392 142.406 192.736 141.876C191.388 141.444 189.171 140.885 189.171 140.885C189.171 140.885 193.108 122.879 190.953 111.659C188.97 101.332 180.257 87.8824 180.257 87.8824C180.257 87.8824 187.313 104.935 187.834 116.613C188.351 128.209 182.931 145.839 182.931 145.839C182.931 145.839 183.313 134.303 181.594 128.997C179.812 123.494 174.909 117.604 174.909 117.604C174.909 117.604 179.59 126.179 179.812 137.913C180.07 151.563 174.909 182 174.909 182Z" fill="#292929"/>
<path d="M158.865 63.6099C158.865 63.6099 158.499 60.0846 157.528 58.161C156.444 56.0136 153.517 53.7028 153.517 53.7028C153.517 53.7028 158.356 54.9624 159.756 57.6656C160.642 59.3753 160.648 62.6192 160.648 62.6192C160.648 62.6192 164.285 61.7687 165.996 63.1146C167.584 64.3641 168.224 68.0681 168.224 68.0681C168.224 68.0681 165.736 65.4889 163.767 64.6006C161.964 63.787 158.865 63.6099 158.865 63.6099Z" fill="#292929"/>
<path fill-rule="evenodd" clip-rule="evenodd" d="M195.856 143.858C195.856 143.858 208.178 115.454 205.661 96.7988C201.65 67.0774 178.92 62.1238 178.92 62.1238C178.92 62.1238 182.782 59.2918 185.605 58.6564C187.994 58.1189 191.845 58.6564 191.845 58.6564C191.845 58.6564 184.993 49.6521 178.92 47.2632C173.823 45.2582 165.104 46.2725 165.104 46.2725C165.104 46.2725 163.52 38.79 160.648 35.3746C157.027 31.0693 148.169 29.4303 148.169 29.4303C148.169 29.4303 150.761 32.7519 151.288 35.3746C151.668 37.2625 151.288 40.3282 151.288 40.3282C151.288 40.3282 133.661 26.4253 120.537 23.4861C104.199 19.8272 93.9395 23.3486 78.1975 29.4303C63.5355 35.0948 55.4658 40.2389 43.8805 51.7214C42.9062 52.6869 41.9696 53.6003 41.0679 54.4795C34.5496 60.8358 29.8619 65.407 26.0534 75.0031C22.4848 83.995 21.8056 89.9466 22.0423 99.7709C22.2143 106.906 23.5558 111.556 25.2103 117.291C25.7641 119.21 26.353 121.251 26.9448 123.548C27.5376 125.848 28.1544 127.682 28.7489 129.45C29.5678 131.884 30.344 134.192 30.9559 137.418C31.3926 139.721 31.8472 143.858 31.8472 143.858C31.8472 143.858 36.9189 143.166 39.8694 144.353C39.8694 144.353 35.8628 132.038 35.4126 123.548C34.819 112.352 40.7607 95.808 40.7607 95.808C40.7607 95.808 37.0065 112.835 38.5323 124.539C39.7007 133.5 45.2175 148.15 45.2175 148.15C46.3205 149.366 47.2438 150.767 47.8915 152.279L56.805 170.111C56.805 170.111 63.0708 164.663 63.4902 153.269C63.6183 149.79 62.2271 146.434 61.0432 143.578C60.1042 141.312 59.2956 139.361 59.4791 137.913C59.894 134.64 62.1532 129.988 62.1532 129.988C64.4577 121.446 74.6321 111.659 74.6321 111.659C74.6321 111.659 87.9346 100.546 86.2196 91.3498C85.5877 87.9613 82.6542 83.4241 82.6542 83.4241C82.6542 83.4241 87.83 87.453 89.3394 91.3498C91.6143 97.2233 86.5345 103.093 82.287 108C79.7243 110.961 77.4646 113.572 77.3061 115.622C76.7206 123.196 78.8796 127.25 82.2086 132.96C86.5139 140.344 98.2529 144.848 98.2529 144.848C98.2529 144.848 95.301 141.998 100.036 131.474C103.873 122.942 114.156 117.074 124.622 111.101C138.463 103.202 152.625 95.1197 152.625 80.452C152.625 68.2387 138.809 59.1517 138.809 59.1517C138.809 59.1517 158.536 70.2662 156.191 83.4241C154.408 93.4266 140.592 106.211 140.592 106.211C140.592 106.211 137.485 115.926 144.158 126.52C146.864 130.818 151.659 135.298 156.569 139.885C162.803 145.71 169.222 151.708 171.789 157.728C175.479 166.38 174.909 182 174.909 182C174.909 182 180.07 151.563 179.812 137.913C179.59 126.179 174.909 117.604 174.909 117.604C174.909 117.604 179.812 123.494 181.594 128.997C183.313 134.303 182.931 145.839 182.931 145.839C182.931 145.839 188.351 128.209 187.834 116.613C187.313 104.935 180.257 87.8824 180.257 87.8824C180.257 87.8824 188.97 101.332 190.953 111.659C193.108 122.879 189.171 140.885 189.171 140.885C189.171 140.885 191.388 141.444 192.736 141.876C194.392 142.406 195.856 143.858 195.856 143.858ZM141.483 82.9288C140.592 92.3406 108.058 110.173 108.058 110.173L123.656 103.238C130.342 100.266 143.345 92.6809 143.712 84.9102C143.982 79.1762 137.918 75.0031 137.918 75.0031C137.918 75.0031 141.924 78.2796 141.483 82.9288ZM80.8715 48.2539C73.1727 51.4227 63.0445 60.6378 63.0445 60.6378C63.0445 60.6378 70.6892 47.9261 80.4259 44.7864C91.67 41.1606 114.297 47.2632 114.297 47.2632C114.297 47.2632 93.1171 43.2137 80.8715 48.2539ZM157.528 58.161C158.499 60.0846 158.865 63.6099 158.865 63.6099C158.865 63.6099 161.964 63.787 163.767 64.6006C165.736 65.4889 168.224 68.0681 168.224 68.0681C168.224 68.0681 167.584 64.3641 165.996 63.1146C164.285 61.7687 160.648 62.6192 160.648 62.6192C160.648 62.6192 160.642 59.3753 159.756 57.6656C158.356 54.9624 153.517 53.7028 153.517 53.7028C153.517 53.7028 156.444 56.0136 157.528 58.161Z" fill="black"/>
<path d="M63.0445 60.6378C63.0445 60.6378 73.1727 51.4227 80.8715 48.2539C93.1171 43.2137 114.297 47.2632 114.297 47.2632C114.297 47.2632 91.67 41.1606 80.4259 44.7864C70.6892 47.9261 63.0445 60.6378 63.0445 60.6378Z" fill="#292929"/>
</g>
<defs>
<clipPath id="clip0_1046_594">
<rect width="230" height="475" fill="white"/>
</clipPath>
</defs>
</svg>
