<svg width="230" height="475" viewBox="0 0 230 475" fill="none" xmlns="http://www.w3.org/2000/svg">
<g clip-path="url(#clip0_1046_641)">
<path d="M178.985 332.783C179.615 326.861 187 297.176 187 297.176C187 297.176 178.369 258.692 163.389 240.765C153.661 229.123 135.526 215.815 135.526 215.815L135.203 215.55C125.259 217 116.743 217 114.8 217C112.908 217 106.247 216.912 97.7957 215.661L96.5149 216.899C96.5149 216.899 77.4561 226.718 67.0067 242.393C56.5573 258.067 43 297.176 43 297.176C43 297.176 54.5606 329.869 55.5613 334.142C56.3198 337.381 60.2014 342.051 64.2083 346.181C64.2083 346.181 60.3023 367.056 59.2069 380.619C56.7299 411.289 64.2083 459.268 64.2083 459.268C64.2083 459.268 70.4947 474.227 78.5099 474C86.4131 473.776 91.9975 458.901 91.9975 458.901L101 409L115.02 382.333L128.998 409.971L137.5 461.5C137.5 461.5 143.485 473.698 150.53 474C158.515 474.342 164.736 459.268 164.736 459.268C164.736 459.268 171.854 411.449 171.238 380.619C170.969 367.14 169.008 346.181 169.008 346.181C173.868 341.639 178.604 336.366 178.985 332.783Z" fill="#FFCEB4"/>
<path d="M55.1636 184.709C55.1636 194.455 58.1258 199.7 64.0363 203.764C74.3042 210.823 87.4035 214.122 97.7957 215.661C106.247 216.912 112.908 217 114.8 217C116.743 217 125.259 217 135.203 215.55C146.847 213.852 160.449 210.166 167.745 202.164C171.803 197.713 174.219 194.219 174.436 188.2C174.336 187.064 174.364 185.851 174.497 184.564C175.41 175.792 181.262 163.601 185.202 149.218C190.159 131.122 192.088 109.556 177.345 86.9637C166.145 69.8001 144.764 57 114.8 57C92.5455 57 64.3273 70.3819 53.7091 88.1273C35.9665 117.779 41.6452 133.678 47.9592 151.255L47.981 151.315C51.4789 161.052 55.1636 171.31 55.1636 184.709Z" fill="#FFCEB4"/>
<path d="M47.9592 151.255C47.9592 151.255 43.2364 144.564 35.6727 144.564C26.0727 144.564 22 152.568 22 160.564C22 169 26.7203 176.581 35.6727 181.655C42.3756 185.454 55.1636 184.709 55.1636 184.709C55.1636 171.31 51.4789 161.052 47.981 151.315L47.9592 151.255Z" fill="#FFCEB4"/>
<path d="M198.436 145C193.113 144.03 185.202 149.218 185.202 149.218C181.262 163.601 175.41 175.792 174.497 184.564C174.497 184.564 187.066 185.421 193.782 182.382C203.471 177.997 206.727 170.309 207.891 161.146C208.862 153.5 206.019 146.382 198.436 145Z" fill="#FFCEB4"/>
<path d="M55.1636 184.709C55.1636 194.455 58.1258 199.7 64.0363 203.764C74.3042 210.823 87.4035 214.122 97.7957 215.661M55.1636 184.709C55.1636 184.709 42.3756 185.454 35.6727 181.655C26.7203 176.581 22 169 22 160.564C22 152.568 26.0727 144.564 35.6727 144.564C43.2364 144.564 47.9592 151.255 47.9592 151.255M55.1636 184.709C55.1636 171.31 51.4789 161.052 47.981 151.315M185.202 149.218C190.159 131.122 192.088 109.556 177.345 86.9637C166.145 69.8001 144.764 57 114.8 57C92.5455 57 64.3273 70.3819 53.7091 88.1273C35.9665 117.779 41.6452 133.678 47.9592 151.255M185.202 149.218C185.202 149.218 193.113 144.03 198.436 145C206.019 146.382 208.862 153.5 207.891 161.146C206.727 170.309 203.471 177.997 193.782 182.382C187.066 185.421 174.497 184.564 174.497 184.564M185.202 149.218C181.262 163.601 175.41 175.792 174.497 184.564M174.497 184.564C174.364 185.851 174.336 187.064 174.436 188.2C174.219 194.219 171.803 197.713 167.745 202.164C160.449 210.166 146.847 213.852 135.203 215.55M47.9592 151.255L47.981 151.315M47.9592 151.255C47.9665 151.275 47.9737 151.295 47.981 151.315M97.7957 215.661L96.5149 216.899C96.5149 216.899 77.4561 226.718 67.0067 242.393C56.5573 258.067 43 297.176 43 297.176C43 297.176 54.5606 329.869 55.5613 334.142C56.3198 337.381 60.2014 342.051 64.2083 346.181C64.2083 346.181 60.3023 367.056 59.2069 380.619C56.73 411.289 64.2083 459.268 64.2083 459.268C64.2083 459.268 70.4947 474.227 78.5099 474C86.4131 473.776 91.9975 458.901 91.9975 458.901L101 409L115.02 382.333L128.998 409.971L137.5 461.5C137.5 461.5 143.485 473.698 150.53 474C158.515 474.342 164.736 459.268 164.736 459.268C164.736 459.268 171.854 411.449 171.238 380.619C170.969 367.14 169.008 346.181 169.008 346.181C173.868 341.639 178.604 336.366 178.985 332.783C179.615 326.861 187 297.176 187 297.176C187 297.176 178.369 258.692 163.389 240.765C153.661 229.123 135.526 215.815 135.526 215.815L135.203 215.55M97.7957 215.661C106.247 216.912 112.908 217 114.8 217C116.743 217 125.259 217 135.203 215.55" stroke="black" stroke-width="2" stroke-linejoin="round"/>
<path d="M78 155C78 151.686 80.6863 149 84 149C87.3137 149 90 151.686 90 155V168C90 171.314 87.3137 174 84 174C80.6863 174 78 171.314 78 168V155Z" fill="black"/>
<path d="M138 155C138 151.686 140.686 149 144 149C147.314 149 150 151.686 150 155V168C150 171.314 147.314 174 144 174C140.686 174 138 171.314 138 168V155Z" fill="black"/>
<path d="M74 193.5C74 196.538 67.0604 199 58.5 199C49.9396 199 43 196.538 43 193.5C43 190.462 49.9396 188 58.5 188C67.0604 188 74 190.462 74 193.5Z" fill="#F9A9E7"/>
<path d="M187 193.5C187 196.538 180.06 199 171.5 199C162.94 199 156 196.538 156 193.5C156 190.462 162.94 188 171.5 188C180.06 188 187 190.462 187 193.5Z" fill="#F9A9E7"/>
<path d="M105.147 197.763C105.312 196.942 106.307 196.525 107.064 196.881C108.569 197.588 111.114 198.469 114.5 198.5C118.11 198.533 121.06 197.581 122.798 196.842C123.562 196.518 124.5 197.072 124.5 197.903C124.5 198.274 124.308 198.616 123.977 198.784C122.692 199.439 119.142 201 114.5 201C110.08 201 106.933 199.584 105.646 198.884C105.245 198.666 105.058 198.21 105.147 197.763Z" fill="black"/>
<path d="M54.9791 175C54.9791 175 50.0314 149.023 54.0795 148.079C57.8402 147.201 59.0272 148.079 59.0272 148.079C59.0272 148.079 57.7631 108.841 61.2762 111.239C64.7892 113.637 64.5099 113.092 68.023 115.49C68.023 115.49 63.9323 112.024 62.1757 109.35C60.4192 106.675 59.0272 101.793 59.0272 101.793C59.0272 101.793 54.4428 115.096 54.0795 123.991C53.7919 131.032 55.8787 141.939 55.8787 141.939C55.8787 141.939 53.8612 142.861 52.2803 141.939C50.6994 141.017 47.7824 137.216 47.7824 137.216L54.9791 175Z" fill="#292929"/>
<path d="M90.9623 107.461C90.9623 107.461 102.059 116.632 109.404 120.213C116.748 123.793 135.492 122.102 135.492 122.102C135.492 122.102 119.635 120.403 108.504 114.545C100.141 110.144 85.1151 98.4869 85.1151 98.4869L90.9623 107.461Z" fill="#292929"/>
<path fill-rule="evenodd" clip-rule="evenodd" d="M138.64 90.4577L156.182 115.49L159.78 110.767L156.632 104.155C156.632 104.155 170.352 111.924 174.174 119.741C177.995 127.557 174.174 141.939 174.174 141.939C174.174 141.939 178.802 138.61 180.471 137.688C182.139 136.766 184.519 133.91 184.519 133.91C184.519 133.91 188.25 147.509 185.868 155.636C184.643 159.815 180.921 165.554 180.921 165.554C180.921 165.554 190.599 154.935 196.213 147.606C196.911 146.696 197.591 145.816 198.253 144.96L198.256 144.956C202.005 140.108 205.165 136.02 207.458 131.548C210.607 125.408 211.056 114.545 211.056 114.545C211.056 114.545 215.756 114.871 219.153 114.545C221.532 114.317 225 113.601 225 113.601C225 113.601 221.194 111.234 217.803 109.35C209.842 104.925 207.982 93.8802 206.555 85.4022C206.002 82.1145 205.514 79.2129 204.759 77.2332C201.992 69.9676 193.515 63.5364 193.515 63.5364C193.515 63.5364 197.616 61.9826 199.812 60.2303C202.007 58.4781 204.759 54.5627 204.759 54.5627C204.759 54.5627 196.817 53.714 192.165 52.6735C188.521 51.8582 184.057 47.3651 179.182 42.4594C173.228 36.4662 166.661 29.8573 160.23 28.586C152.1 26.9789 140.439 29.5306 140.439 29.5306C140.439 29.5306 136.27 21.7221 130.994 18.1953C124.83 14.0759 112.103 13 112.103 13C112.103 13 116.151 15.8612 117.95 18.1953C119.453 20.1456 117.95 25.2799 117.95 25.2799C117.95 25.2799 114.164 23.6398 112.103 22.9184C106.705 21.0292 93.3591 18.8574 80.1674 20.5569C62.624 22.8168 40.5858 44.172 40.5858 44.172C40.5858 44.172 42.1535 44.3936 44.1841 45.1166C46.513 45.9459 50.4812 45.1166 50.4812 45.1166C50.4812 45.1166 34.2887 70.1487 24.3933 80.5394C19.9496 85.2055 10 88.0962 10 88.0962C10 88.0962 13.7386 90.7717 16.7469 91.4023C19.5029 91.9801 23.0439 92.3469 23.0439 92.3469C23.0439 92.3469 20.5431 108.315 21.6946 119.741C23.7889 140.522 54.9791 175 54.9791 175L47.7824 137.216C47.7824 137.216 50.6994 141.017 52.2803 141.939C53.8612 142.861 55.8787 141.939 55.8787 141.939C55.8787 141.939 53.7919 131.032 54.0795 123.991C54.4428 115.096 59.0272 101.793 59.0272 101.793C59.0272 101.793 60.4192 106.675 62.1757 109.35C63.9323 112.024 68.023 115.49 68.023 115.49L71.1715 92.8192C71.1715 92.8192 75.7861 100.653 79.7176 104.627C84.0815 109.037 92.3117 113.128 92.3117 113.128L90.9623 107.461L85.1151 98.4869C85.1151 98.4869 100.141 110.144 108.504 114.545C119.635 120.403 135.492 122.102 135.492 122.102C135.492 122.102 134.016 108.486 136.391 100.376C137.846 95.4085 138.64 90.4577 138.64 90.4577Z" fill="black"/>
<path d="M159.78 110.767C159.78 110.767 168.137 116.717 169.676 122.102C172.374 131.548 171.025 147.606 171.025 147.606C171.025 147.606 175.39 147.008 177.322 145.717C179.254 144.426 180.921 140.994 180.921 140.994C180.921 140.994 183.226 150.472 182.72 156.58C182.424 160.148 180.921 165.554 180.921 165.554C180.921 165.554 184.643 159.815 185.868 155.636C188.25 147.509 184.519 133.91 184.519 133.91C184.519 133.91 182.139 136.766 180.471 137.688C178.802 138.61 174.174 141.939 174.174 141.939C174.174 141.939 177.995 127.557 174.174 119.741C170.352 111.924 156.632 104.155 156.632 104.155L159.78 110.767Z" fill="#292929"/>
</g>
<defs>
<clipPath id="clip0_1046_641">
<rect width="230" height="475" fill="white"/>
</clipPath>
</defs>
</svg>
