<svg width="230" height="475" viewBox="0 0 230 475" fill="none" xmlns="http://www.w3.org/2000/svg">
<g clip-path="url(#clip0_1046_601)">
<path d="M178.985 332.783C179.615 326.861 187 297.176 187 297.176C187 297.176 178.369 258.692 163.389 240.765C153.661 229.123 135.526 215.815 135.526 215.815L135.203 215.55C125.259 217 116.743 217 114.8 217C112.908 217 106.247 216.912 97.7957 215.661L96.5149 216.899C96.5149 216.899 77.4561 226.718 67.0067 242.393C56.5573 258.067 43 297.176 43 297.176C43 297.176 54.5606 329.869 55.5613 334.142C56.3198 337.381 60.2014 342.051 64.2083 346.181C64.2083 346.181 60.3023 367.056 59.2069 380.619C56.7299 411.289 64.2083 459.268 64.2083 459.268C64.2083 459.268 70.4947 474.227 78.5099 474C86.4131 473.776 91.9975 458.901 91.9975 458.901L101 409L115.02 382.333L128.998 409.971L137.5 461.5C137.5 461.5 143.485 473.698 150.53 474C158.515 474.342 164.736 459.268 164.736 459.268C164.736 459.268 171.854 411.449 171.238 380.619C170.969 367.14 169.008 346.181 169.008 346.181C173.868 341.639 178.604 336.366 178.985 332.783Z" fill="#FFCEB4"/>
<path d="M55.1636 184.709C55.1636 194.455 58.1258 199.7 64.0363 203.764C74.3042 210.823 87.4035 214.122 97.7957 215.661C106.247 216.912 112.908 217 114.8 217C116.743 217 125.259 217 135.203 215.55C146.847 213.852 160.449 210.166 167.745 202.164C171.803 197.713 174.219 194.219 174.436 188.2C174.336 187.064 174.364 185.851 174.497 184.564C175.41 175.792 181.262 163.601 185.202 149.218C190.159 131.122 192.088 109.556 177.345 86.9637C166.145 69.8001 144.764 57 114.8 57C92.5455 57 64.3273 70.3819 53.7091 88.1273C35.9665 117.779 41.6452 133.678 47.9592 151.255L47.981 151.315C51.4789 161.052 55.1636 171.31 55.1636 184.709Z" fill="#FFCEB4"/>
<path d="M47.9592 151.255C47.9592 151.255 43.2364 144.564 35.6727 144.564C26.0727 144.564 22 152.568 22 160.564C22 169 26.7203 176.581 35.6727 181.655C42.3756 185.454 55.1636 184.709 55.1636 184.709C55.1636 171.31 51.4789 161.052 47.981 151.315L47.9592 151.255Z" fill="#FFCEB4"/>
<path d="M198.436 145C193.113 144.03 185.202 149.218 185.202 149.218C181.262 163.601 175.41 175.792 174.497 184.564C174.497 184.564 187.066 185.421 193.782 182.382C203.471 177.997 206.727 170.309 207.891 161.146C208.862 153.5 206.019 146.382 198.436 145Z" fill="#FFCEB4"/>
<path d="M55.1636 184.709C55.1636 194.455 58.1258 199.7 64.0363 203.764C74.3042 210.823 87.4035 214.122 97.7957 215.661M55.1636 184.709C55.1636 184.709 42.3756 185.454 35.6727 181.655C26.7203 176.581 22 169 22 160.564C22 152.568 26.0727 144.564 35.6727 144.564C43.2364 144.564 47.9592 151.255 47.9592 151.255M55.1636 184.709C55.1636 171.31 51.4789 161.052 47.981 151.315M185.202 149.218C190.159 131.122 192.088 109.556 177.345 86.9637C166.145 69.8001 144.764 57 114.8 57C92.5455 57 64.3273 70.3819 53.7091 88.1273C35.9665 117.779 41.6452 133.678 47.9592 151.255M185.202 149.218C185.202 149.218 193.113 144.03 198.436 145C206.019 146.382 208.862 153.5 207.891 161.146C206.727 170.309 203.471 177.997 193.782 182.382C187.066 185.421 174.497 184.564 174.497 184.564M185.202 149.218C181.262 163.601 175.41 175.792 174.497 184.564M174.497 184.564C174.364 185.851 174.336 187.064 174.436 188.2C174.219 194.219 171.803 197.713 167.745 202.164C160.449 210.166 146.847 213.852 135.203 215.55M47.9592 151.255L47.981 151.315M47.9592 151.255C47.9665 151.275 47.9737 151.295 47.981 151.315M97.7957 215.661L96.5149 216.899C96.5149 216.899 77.4561 226.718 67.0067 242.393C56.5573 258.067 43 297.176 43 297.176C43 297.176 54.5606 329.869 55.5613 334.142C56.3198 337.381 60.2014 342.051 64.2083 346.181C64.2083 346.181 60.3023 367.056 59.2069 380.619C56.73 411.289 64.2083 459.268 64.2083 459.268C64.2083 459.268 70.4947 474.227 78.5099 474C86.4131 473.776 91.9975 458.901 91.9975 458.901L101 409L115.02 382.333L128.998 409.971L137.5 461.5C137.5 461.5 143.485 473.698 150.53 474C158.515 474.342 164.736 459.268 164.736 459.268C164.736 459.268 171.854 411.449 171.238 380.619C170.969 367.14 169.008 346.181 169.008 346.181C173.868 341.639 178.604 336.366 178.985 332.783C179.615 326.861 187 297.176 187 297.176C187 297.176 178.369 258.692 163.389 240.765C153.661 229.123 135.526 215.815 135.526 215.815L135.203 215.55M97.7957 215.661C106.247 216.912 112.908 217 114.8 217C116.743 217 125.259 217 135.203 215.55" stroke="black" stroke-width="2" stroke-linejoin="round"/>
<path d="M78 155C78 151.686 80.6863 149 84 149C87.3137 149 90 151.686 90 155V168C90 171.314 87.3137 174 84 174C80.6863 174 78 171.314 78 168V155Z" fill="black"/>
<path d="M138 155C138 151.686 140.686 149 144 149C147.314 149 150 151.686 150 155V168C150 171.314 147.314 174 144 174C140.686 174 138 171.314 138 168V155Z" fill="black"/>
<path d="M74 193.5C74 196.538 67.0604 199 58.5 199C49.9396 199 43 196.538 43 193.5C43 190.462 49.9396 188 58.5 188C67.0604 188 74 190.462 74 193.5Z" fill="#F9A9E7"/>
<path d="M187 193.5C187 196.538 180.06 199 171.5 199C162.94 199 156 196.538 156 193.5C156 190.462 162.94 188 171.5 188C180.06 188 187 190.462 187 193.5Z" fill="#F9A9E7"/>
<path d="M105.147 197.763C105.312 196.942 106.307 196.525 107.064 196.881C108.569 197.588 111.114 198.469 114.5 198.5C118.11 198.533 121.06 197.581 122.798 196.842C123.562 196.518 124.5 197.072 124.5 197.903C124.5 198.274 124.308 198.616 123.977 198.784C122.692 199.439 119.142 201 114.5 201C110.08 201 106.933 199.584 105.646 198.884C105.245 198.666 105.058 198.21 105.147 197.763Z" fill="black"/>
<path d="M121.83 96.1765C121.83 96.1765 123.793 101.989 126.329 104.708C129.248 107.838 131.629 109.512 135.776 109.921C150.173 111.343 161.87 109.921 161.87 109.921C161.87 109.921 185.048 99.3976 183.915 87.6454C183.16 79.8154 172.668 77.2183 172.668 77.2183C172.668 77.2183 180.138 82.1427 179.866 88.5934C179.42 99.1592 168.363 104.25 158.271 106.604C147.159 109.195 135.776 108.026 128.578 101.864C124.462 98.341 123.104 92.4179 121.735 86.4484C120.344 80.3861 118.943 74.2759 114.631 70.5828C100.116 58.1491 74.1408 70.5828 69.192 81.9579C65.5222 90.3931 72.6275 100.916 72.6275 100.916C72.6275 100.916 68.2511 92.0205 71.4415 84.8017C77.7186 70.5982 100.235 64.8953 110.132 70.5828C119.311 75.857 121.83 96.1765 121.83 96.1765Z" fill="#292929"/>
<path d="M76.0462 99.4945C82.2771 97.0079 87.7682 95.5089 95.7358 95.2288C99.5036 95.0964 102.305 95.5124 105.109 95.9288C107.72 96.3165 110.334 96.7046 113.732 96.6505C113.732 96.6505 109.793 92.9322 105.184 92.385C102.559 92.0735 96.1857 91.9109 96.1857 91.9109C96.1857 91.9109 97.7217 90.0494 98.8851 89.0673C101.586 86.7875 106.983 85.2756 106.983 85.2756C106.983 85.2756 102.238 85.3622 99.3349 86.6975C96.0312 88.2173 92.5865 92.859 92.5865 92.859C92.5865 92.859 89.8292 93.0887 88.0876 93.333C84.0368 93.9012 78.6398 97.5984 78.6398 97.5984C78.6398 97.5984 79.9267 89.6211 83.5886 85.7494C87.9713 81.1156 99.3349 78.1662 99.3349 78.1662C99.3349 78.1662 87.9815 79.7092 83.1387 83.3798C77.222 87.8644 76.0462 99.4945 76.0462 99.4945Z" fill="#292929"/>
<path d="M57.9446 107.078C57.9446 107.078 64.161 104.636 68.2922 102.812C69.0291 102.487 69.7456 102.171 70.4452 101.864C70.4452 101.864 67.7808 96.6464 66.0427 94.5179C64.3046 92.3893 61.5438 90.9632 61.5438 90.9632C61.5438 90.9632 63.7161 92.9446 64.2432 94.5179L65.5928 98.5465L65.2557 98.2927C62.3108 96.0743 60.5136 94.7205 57.0448 93.8069C57.0448 93.8069 60.4018 96.2102 61.5438 97.5984C62.6858 98.9866 63.7933 100.442 63.7933 100.442C63.7933 100.442 60.4363 103.412 59.2943 104.708C58.1523 106.003 57.9446 107.078 57.9446 107.078Z" fill="#292929"/>
<path d="M58.1196 117.031L58.0613 113.713C58.0613 113.713 52.8561 115.354 49.8465 116.557C46.8369 117.76 42.1983 120.823 42.1983 120.823C42.1983 120.823 47.7253 118.534 50.7463 117.979C53.7673 117.424 58.1196 117.031 58.1196 117.031Z" fill="#292929"/>
<path fill-rule="evenodd" clip-rule="evenodd" d="M168.619 93.3328C163.631 96.4088 156.921 92.7669 151.973 89.0673C149.535 87.2453 142.9 77.7058 138.476 69.161C135.776 63.9474 125.879 53.0463 125.879 53.0463C125.879 53.0463 133.711 57.6981 136.676 62.5255C146.574 78.6402 160.521 96.6505 168.619 90.0152C172.435 86.8888 169.519 78.6402 169.519 78.6402C169.519 78.6402 173.945 90.0477 168.619 93.3328ZM48.9467 125.562C46.5459 126.286 44.8977 130.302 44.8977 130.302C44.8977 130.302 47.632 127.602 49.8465 126.984C51.7149 126.463 54.7954 126.984 54.7954 126.984C54.7954 126.984 51.2444 124.87 48.9467 125.562Z" fill="black"/>
<path d="M44.8977 130.302C44.8977 130.302 46.5459 126.286 48.9467 125.562C51.2444 124.87 54.7954 126.984 54.7954 126.984C54.7954 126.984 51.7149 126.463 49.8465 126.984C47.632 127.602 44.8977 130.302 44.8977 130.302Z" fill="#292929"/>
<path d="M56.1451 47.3587C56.1451 47.3587 46.9355 57.8543 44.8977 66.317C43.256 73.1346 43.9979 84.8017 43.9979 84.8017L40.8486 85.7494C40.8486 85.7494 45.0503 88.9887 44.8977 91.9109C44.8893 92.0719 44.8678 92.2299 44.8343 92.385C44.8343 92.385 45.9158 93.34 46.6973 93.8069C48.4397 94.8481 51.6461 95.2288 51.6461 95.2288C51.6461 95.2288 48.2376 93.145 46.6973 91.4371C45.0691 89.6319 43.548 86.2236 43.548 86.2236L46.6973 86.6975C46.6973 86.6975 45.0828 75.6181 46.6973 68.213C48.5103 59.8972 56.1451 47.3587 56.1451 47.3587Z" fill="#292929"/>
<path d="M114.631 17.0252C98.9511 17.6922 84.4884 27.7595 75.4905 34.5618C60.644 45.7855 58.3945 56.2127 58.3945 56.2127L56.1451 47.3587C56.1451 47.3587 55.0589 54.7768 54.7954 59.6817C54.5318 64.5867 54.7954 72.4787 54.7954 72.4787C54.7954 72.4787 60.8992 56.6033 65.5928 49.2546C78.8413 28.5118 114.631 17.0252 114.631 17.0252Z" fill="#292929"/>
<path d="M180.766 114.187C174.42 114.713 164.691 111.343 164.691 111.343C165.209 111.587 165.718 111.82 166.209 112.045C168.291 112.997 170.054 113.803 170.868 114.661C170.868 114.661 176.993 116.959 181.666 116.557C188.664 115.955 198.312 107.552 198.312 107.552C198.312 107.552 187.859 113.599 180.766 114.187Z" fill="#292929"/>
<path d="M169.519 120.823L172.218 122.244C172.218 122.244 169.968 138.833 172.218 142.151C174.467 145.469 183.015 154 183.015 154C183.015 154 174.017 143.573 173.118 138.359C172.741 136.174 172.668 131.25 172.668 131.25C172.668 131.25 180.772 135.95 185.715 136.937C189.512 137.696 194.263 136.937 194.263 136.937C194.263 136.937 186.472 135.709 183.015 134.568C178.501 133.077 174.017 129.828 174.017 129.828C174.017 129.828 173.602 128.694 173.568 127.932C173.525 126.989 174.017 125.562 174.017 125.562C174.017 125.562 177.348 125.966 178.966 126.036C181.692 126.155 185.265 124.14 185.265 124.14C185.265 124.14 180.587 124.972 178.067 124.14C174.643 123.01 170.632 118.453 170.632 118.453C170.136 119.739 169.519 120.823 169.519 120.823Z" fill="#292929"/>
<path fill-rule="evenodd" clip-rule="evenodd" d="M76.0462 99.4945C74.9361 99.9374 73.8026 100.412 72.6275 100.916C72.6275 100.916 68.2511 92.0205 71.4415 84.8017C77.7186 70.5982 100.235 64.8953 110.132 70.5828C119.311 75.857 121.83 96.1765 121.83 96.1765C121.83 96.1765 116.899 96.6001 113.732 96.6505C113.732 96.6505 109.793 92.9322 105.184 92.385C102.559 92.0735 96.1857 91.9109 96.1857 91.9109C96.1857 91.9109 97.7217 90.0494 98.8851 89.0673C101.586 86.7875 106.983 85.2756 106.983 85.2756C106.983 85.2756 102.238 85.3622 99.3349 86.6975C96.0312 88.2173 92.5865 92.859 92.5865 92.859C92.5865 92.859 89.8292 93.0887 88.0876 93.333C84.0368 93.9012 78.6398 97.5984 78.6398 97.5984C78.6398 97.5984 79.9267 89.6211 83.5886 85.7494C87.9713 81.1156 99.3349 78.1662 99.3349 78.1662C99.3349 78.1662 87.9815 79.7092 83.1387 83.3798C77.222 87.8644 76.0462 99.4945 76.0462 99.4945Z" fill="black"/>
<path d="M151.973 89.0673C156.921 92.7669 163.631 96.4088 168.619 93.3328C173.945 90.0477 169.519 78.6402 169.519 78.6402C169.519 78.6402 172.435 86.8888 168.619 90.0152C160.521 96.6505 146.574 78.6402 136.676 62.5255C133.711 57.6981 125.879 53.0463 125.879 53.0463C125.879 53.0463 135.776 63.9474 138.476 69.161C142.9 77.7058 149.535 87.2453 151.973 89.0673Z" fill="#292929"/>
<path fill-rule="evenodd" clip-rule="evenodd" d="M183.015 154C183.015 154 186.283 149.326 189.314 147.365C191.898 145.692 197.862 144.521 197.862 144.521C197.862 144.521 199.212 131.724 201.461 124.14C202.572 120.396 205.145 117.604 207.233 115.339C208.455 114.013 209.511 112.867 210.009 111.817C210.873 109.996 211.359 107.078 211.359 107.078C211.359 107.078 214.146 98.9877 215.408 93.3328C216.74 87.3623 215.408 74.8485 215.408 74.8485C215.408 74.8485 212.852 85.0284 204.233 85.8417C195.981 86.6203 192.69 72.6815 190.469 63.2762C190.249 62.3432 190.039 61.4547 189.836 60.6297C186.687 47.8327 172.218 44.4227 172.218 44.4227C172.218 44.4227 177.691 41.9292 178.966 37.4056C179.817 34.3892 180.766 26.9784 180.766 26.9784C179.964 27.2898 179.207 27.5901 178.48 27.8787C172.616 30.2068 168.678 31.7703 158.271 32.192C153.032 32.4043 147.285 29.2326 140.944 25.7335C133.129 21.4202 124.411 16.6092 114.631 17.0252C114.631 17.0252 78.8413 28.5118 65.5928 49.2546C60.8992 56.6033 54.7954 72.4787 54.7954 72.4787C54.7954 72.4787 54.5318 64.5867 54.7954 59.6817C55.0589 54.7768 56.1451 47.3587 56.1451 47.3587C56.1451 47.3587 48.5103 59.8972 46.6973 68.213C45.0828 75.6181 46.6973 86.6975 46.6973 86.6975L43.548 86.2236C43.548 86.2236 45.0691 89.6319 46.6973 91.4371C48.2376 93.145 51.6461 95.2288 51.6461 95.2288C51.6461 95.2288 48.4397 94.8481 46.6973 93.8069C45.9158 93.34 44.8343 92.385 44.8343 92.385C44.1305 95.6505 38.1493 97.5984 38.1493 97.5984L40.8486 100.916L36.3497 101.864C36.3497 101.864 37.2275 104.799 36.7996 106.604C36.4563 108.051 35 109.921 35 109.921L37.6994 144.995C37.6994 144.995 41.9781 146.212 43.9979 148.312C45.6753 150.057 48.9467 154 48.9467 154C48.9467 154 50.9762 144.303 53.8956 139.781C55.7175 136.959 58.3945 132.672 58.3945 132.672L58.1196 117.031C58.1196 117.031 53.7673 117.424 50.7463 117.979C47.7253 118.534 42.1983 120.823 42.1983 120.823C42.1983 120.823 46.8369 117.76 49.8465 116.557C52.8561 115.354 58.0613 113.713 58.0613 113.713L57.9446 107.078C57.9446 107.078 58.1523 106.003 59.2943 104.708C60.4363 103.412 63.7933 100.442 63.7933 100.442C63.7933 100.442 62.6858 98.9866 61.5438 97.5984C60.4018 96.2102 57.0448 93.8069 57.0448 93.8069C60.5136 94.7205 62.3108 96.0743 65.2557 98.2927L65.5928 98.5465L64.2432 94.5179C63.7161 92.9446 61.5438 90.9632 61.5438 90.9632C61.5438 90.9632 64.3046 92.3893 66.0427 94.5179C67.7808 96.6464 70.4452 101.864 70.4452 101.864C71.1905 101.537 71.9166 101.221 72.6275 100.916C72.6275 100.916 65.5222 90.3931 69.192 81.9579C74.1408 70.5828 100.116 58.1491 114.631 70.5828C118.943 74.2759 120.344 80.3861 121.735 86.4484C123.104 92.4179 124.462 98.341 128.578 101.864C135.776 108.026 147.159 109.195 158.271 106.604C168.363 104.25 179.42 99.1592 179.866 88.5934C180.138 82.1427 172.668 77.2183 172.668 77.2183C172.668 77.2183 183.16 79.8154 183.915 87.6454C185.048 99.3976 161.87 109.921 161.87 109.921C162.809 110.439 163.765 110.908 164.691 111.343C164.691 111.343 174.42 114.713 180.766 114.187C187.859 113.599 198.312 107.552 198.312 107.552C198.312 107.552 188.664 115.955 181.666 116.557C176.993 116.959 170.868 114.661 170.868 114.661C171.573 115.403 171.174 117.049 170.632 118.453C170.632 118.453 174.643 123.01 178.067 124.14C180.587 124.972 185.265 124.14 185.265 124.14C185.265 124.14 181.692 126.155 178.966 126.036C177.348 125.966 174.017 125.562 174.017 125.562C174.017 125.562 173.525 126.989 173.568 127.932C173.602 128.694 174.017 129.828 174.017 129.828C174.017 129.828 178.501 133.077 183.015 134.568C186.472 135.709 194.263 136.937 194.263 136.937C194.263 136.937 189.512 137.696 185.715 136.937C180.772 135.95 172.668 131.25 172.668 131.25C172.668 131.25 172.741 136.174 173.118 138.359C174.017 143.573 183.015 154 183.015 154ZM168.619 93.3328C163.631 96.4088 156.921 92.7669 151.973 89.0673C149.535 87.2453 142.9 77.7058 138.476 69.161C135.776 63.9474 125.879 53.0463 125.879 53.0463C125.879 53.0463 133.711 57.6981 136.676 62.5255C146.574 78.6402 160.521 96.6505 168.619 90.0152C172.435 86.8888 169.519 78.6402 169.519 78.6402C169.519 78.6402 173.945 90.0477 168.619 93.3328ZM48.9467 125.562C46.5459 126.286 44.8977 130.302 44.8977 130.302C44.8977 130.302 47.632 127.602 49.8465 126.984C51.7149 126.463 54.7954 126.984 54.7954 126.984C54.7954 126.984 51.2444 124.87 48.9467 125.562Z" fill="black"/>
</g>
<defs>
<clipPath id="clip0_1046_601">
<rect width="230" height="475" fill="white"/>
</clipPath>
</defs>
</svg>
