<svg width="230" height="475" viewBox="0 0 230 475" fill="none" xmlns="http://www.w3.org/2000/svg">
<g clip-path="url(#clip0_1046_606)">
<path d="M178.985 332.783C179.615 326.861 187 297.176 187 297.176C187 297.176 178.369 258.692 163.389 240.765C153.661 229.123 135.526 215.815 135.526 215.815L135.203 215.55C125.259 217 116.743 217 114.8 217C112.908 217 106.247 216.912 97.7957 215.661L96.5149 216.899C96.5149 216.899 77.4561 226.718 67.0067 242.393C56.5573 258.067 43 297.176 43 297.176C43 297.176 54.5606 329.869 55.5613 334.142C56.3198 337.381 60.2014 342.051 64.2083 346.181C64.2083 346.181 60.3023 367.056 59.2069 380.619C56.7299 411.289 64.2083 459.268 64.2083 459.268C64.2083 459.268 70.4947 474.227 78.5099 474C86.4131 473.776 91.9975 458.901 91.9975 458.901L101 409L115.02 382.333L128.998 409.971L137.5 461.5C137.5 461.5 143.485 473.698 150.53 474C158.515 474.342 164.736 459.268 164.736 459.268C164.736 459.268 171.854 411.449 171.238 380.619C170.969 367.14 169.008 346.181 169.008 346.181C173.868 341.639 178.604 336.366 178.985 332.783Z" fill="#FFCEB4"/>
<path d="M55.1636 184.709C55.1636 194.455 58.1258 199.7 64.0363 203.764C74.3042 210.823 87.4035 214.122 97.7957 215.661C106.247 216.912 112.908 217 114.8 217C116.743 217 125.259 217 135.203 215.55C146.847 213.852 160.449 210.166 167.745 202.164C171.803 197.713 174.219 194.219 174.436 188.2C174.336 187.064 174.364 185.851 174.497 184.564C175.41 175.792 181.262 163.601 185.202 149.218C190.159 131.122 192.088 109.556 177.345 86.9637C166.145 69.8001 144.764 57 114.8 57C92.5455 57 64.3273 70.3819 53.7091 88.1273C35.9665 117.779 41.6452 133.678 47.9592 151.255L47.981 151.315C51.4789 161.052 55.1636 171.31 55.1636 184.709Z" fill="#FFCEB4"/>
<path d="M47.9592 151.255C47.9592 151.255 43.2364 144.564 35.6727 144.564C26.0727 144.564 22 152.568 22 160.564C22 169 26.7203 176.581 35.6727 181.655C42.3756 185.454 55.1636 184.709 55.1636 184.709C55.1636 171.31 51.4789 161.052 47.981 151.315L47.9592 151.255Z" fill="#FFCEB4"/>
<path d="M198.436 145C193.113 144.03 185.202 149.218 185.202 149.218C181.262 163.601 175.41 175.792 174.497 184.564C174.497 184.564 187.066 185.421 193.782 182.382C203.471 177.997 206.727 170.309 207.891 161.146C208.862 153.5 206.019 146.382 198.436 145Z" fill="#FFCEB4"/>
<path d="M55.1636 184.709C55.1636 194.455 58.1258 199.7 64.0363 203.764C74.3042 210.823 87.4035 214.122 97.7957 215.661M55.1636 184.709C55.1636 184.709 42.3756 185.454 35.6727 181.655C26.7203 176.581 22 169 22 160.564C22 152.568 26.0727 144.564 35.6727 144.564C43.2364 144.564 47.9592 151.255 47.9592 151.255M55.1636 184.709C55.1636 171.31 51.4789 161.052 47.981 151.315M185.202 149.218C190.159 131.122 192.088 109.556 177.345 86.9637C166.145 69.8001 144.764 57 114.8 57C92.5455 57 64.3273 70.3819 53.7091 88.1273C35.9665 117.779 41.6452 133.678 47.9592 151.255M185.202 149.218C185.202 149.218 193.113 144.03 198.436 145C206.019 146.382 208.862 153.5 207.891 161.146C206.727 170.309 203.471 177.997 193.782 182.382C187.066 185.421 174.497 184.564 174.497 184.564M185.202 149.218C181.262 163.601 175.41 175.792 174.497 184.564M174.497 184.564C174.364 185.851 174.336 187.064 174.436 188.2C174.219 194.219 171.803 197.713 167.745 202.164C160.449 210.166 146.847 213.852 135.203 215.55M47.9592 151.255L47.981 151.315M47.9592 151.255C47.9665 151.275 47.9737 151.295 47.981 151.315M97.7957 215.661L96.5149 216.899C96.5149 216.899 77.4561 226.718 67.0067 242.393C56.5573 258.067 43 297.176 43 297.176C43 297.176 54.5606 329.869 55.5613 334.142C56.3198 337.381 60.2014 342.051 64.2083 346.181C64.2083 346.181 60.3023 367.056 59.2069 380.619C56.73 411.289 64.2083 459.268 64.2083 459.268C64.2083 459.268 70.4947 474.227 78.5099 474C86.4131 473.776 91.9975 458.901 91.9975 458.901L101 409L115.02 382.333L128.998 409.971L137.5 461.5C137.5 461.5 143.485 473.698 150.53 474C158.515 474.342 164.736 459.268 164.736 459.268C164.736 459.268 171.854 411.449 171.238 380.619C170.969 367.14 169.008 346.181 169.008 346.181C173.868 341.639 178.604 336.366 178.985 332.783C179.615 326.861 187 297.176 187 297.176C187 297.176 178.369 258.692 163.389 240.765C153.661 229.123 135.526 215.815 135.526 215.815L135.203 215.55M97.7957 215.661C106.247 216.912 112.908 217 114.8 217C116.743 217 125.259 217 135.203 215.55" stroke="black" stroke-width="2" stroke-linejoin="round"/>
<path fill-rule="evenodd" clip-rule="evenodd" d="M30.8349 136.933L32.1729 144.455C32.1729 144.455 36.9248 144.333 39.7551 145.959C45.3042 149.147 48.6753 160 48.6753 160C48.6753 160 61.0606 157.386 61.6096 150.974C61.9533 146.96 58.0308 147.291 57.1495 143.452C56.4531 140.418 57.1495 135.428 57.1495 135.428L53.1354 131.416L54.9195 135.428C54.9195 135.428 48.2304 132.756 47.3373 127.405C46.2575 120.934 53.1354 108.85 53.1354 108.85C53.1354 108.85 44.0263 119.851 44.2152 127.405C44.3079 131.11 46.5015 133.033 48.6939 134.956C50.7742 136.78 52.8535 138.603 53.1354 141.947C53.5621 147.009 50.0134 152.478 50.0134 152.478C50.0134 152.478 42.6996 143.267 41.0931 135.93C40.0099 130.982 40.6471 122.891 40.6471 122.891C40.6471 122.891 38.2908 128.773 38.4171 132.921C38.5322 136.701 40.6471 141.947 40.6471 141.947C40.6471 141.947 37.122 142.098 34.849 140.944C33.2855 140.151 30.8349 136.933 30.8349 136.933ZM54.9195 151.475C55.7091 149.903 55.3655 146.46 55.3655 146.46C55.3655 146.46 58.1598 149.965 57.5955 151.976C56.9144 154.404 52.2434 154.484 52.2434 154.484C52.2434 154.484 54.1927 152.922 54.9195 151.475Z" fill="#292929"/>
<path d="M75.4359 98.821C75.4359 98.821 79.004 105.842 84.3561 110.856C86.257 112.637 85.339 114.821 84.3274 117.227C83.3836 119.471 82.3584 121.91 83.4641 124.396C84.8021 127.405 89.2622 130.915 97.2904 132.921C99.1304 133.38 103.096 133.082 104.427 132.963C104.427 132.963 98.1824 131.416 94.1684 129.912C93.5321 129.673 92.8988 129.462 92.2797 129.256C88.9731 128.154 86.0676 127.186 85.2481 122.891C84.8225 120.661 85.6558 118.942 86.5022 117.197C87.221 115.714 87.9493 114.212 87.9242 112.361C87.8903 109.853 81.2341 103.334 81.2341 103.334C81.2341 103.334 79.4134 101.602 79.45 98.3194C79.5231 91.7748 89.7083 83.777 89.7083 83.777C89.7083 83.777 73.6509 91.6615 69.1918 101.328C68.1378 103.613 67.1698 106.247 66.5088 108.166C69.0098 103.028 75.4359 98.821 75.4359 98.821Z" fill="#292929"/>
<path d="M65.6237 93.3048C65.6237 93.3048 66.8363 87.67 68.7458 84.7798C70.5145 82.1027 74.5439 79.2637 74.5439 79.2637C74.5439 79.2637 68.5491 80.4494 66.5157 83.777C64.5407 87.0092 65.6237 93.3048 65.6237 93.3048Z" fill="#292929"/>
<path d="M122.713 63.7182C122.713 63.7182 119.648 57.0481 116.023 55.6947C113.208 54.6439 108.441 56.1962 108.441 56.1962C108.441 56.1962 112.905 52.7699 116.023 53.1874C119.832 53.6975 123.605 60.2079 123.605 60.2079C123.605 60.2079 127.863 56.2271 131.187 56.6977C134.374 57.1488 137.431 61.7123 137.431 61.7123C137.431 61.7123 132.674 58.9355 129.849 59.205C126.658 59.5094 122.713 63.7182 122.713 63.7182Z" fill="#292929"/>
<path d="M161.282 115.871C161.282 115.871 170.057 122.103 171.54 128.408C172.128 130.905 170.905 132.586 169.625 134.346C168.104 136.436 166.503 138.637 167.76 142.449C168.462 144.578 170.686 144.447 173.096 144.305C175.227 144.179 177.503 144.045 178.999 145.457C181.563 147.875 183.816 151.475 183.816 151.475C183.816 151.475 183.059 145.138 180.694 142.449C179.428 141.008 177.858 140.964 176.29 140.921C174.571 140.874 172.854 140.827 171.54 138.938C170.511 137.458 171.421 136.335 172.652 134.817C174.341 132.734 176.632 129.907 175.342 124.396C174.419 120.452 171.595 118.921 168.712 117.358C166.006 115.892 163.249 114.398 161.962 110.856C160.368 106.472 160.379 103.55 160.624 98.821C160.726 96.8526 161.129 94.7907 161.535 92.7135C162.127 89.6869 162.726 86.6277 162.408 83.777C161.865 78.9075 157.948 75.7534 157.948 75.7534C157.948 75.7534 160.284 81.0838 160.624 84.7798C160.914 87.9359 160.165 90.1982 159.366 92.61C158.802 94.3154 158.212 96.0956 157.948 98.3194C157.629 101.005 157.875 103.292 158.112 105.485C158.44 108.525 158.749 111.383 157.502 114.868C156.84 116.717 156.165 117.851 155.344 119.231C155.044 119.734 154.725 120.27 154.38 120.885C150.608 127.613 143.229 136.933 143.229 136.933C149.749 133.791 152.914 128.706 156.341 123.2C157.837 120.795 159.384 118.31 161.282 115.871Z" fill="#292929"/>
<path d="M183.816 151.475C183.816 151.475 189.031 146.319 193.629 145.457C194.643 145.267 195.302 145.241 195.84 145.219C196.722 145.184 197.277 145.161 198.535 144.454C201.211 142.95 205.671 137.566 205.671 128.909C205.671 128.909 202.586 137.063 199.427 139.941C197.775 141.446 194.075 140.944 194.075 140.944C194.075 140.944 192.757 137.065 191.399 134.927C190.785 133.961 190.008 133.39 189.264 132.843C188.272 132.114 187.34 131.429 186.938 129.912C186.521 128.334 187.013 127.336 187.587 126.17C188.074 125.182 188.62 124.073 188.722 122.39C188.957 118.543 187.184 116.322 185.255 113.906C183.892 112.198 182.451 110.393 181.586 107.847C179.464 101.603 180.248 90.7974 180.248 90.7974C180.248 90.7974 176.442 102.724 178.464 109.853C179.169 112.338 180.619 113.847 182.04 115.327C183.608 116.959 185.141 118.555 185.6 121.387C185.95 123.544 185.273 125.282 184.608 126.988C183.886 128.839 183.179 130.652 183.816 132.921C184.967 137.016 191.399 141.947 191.399 141.947C191.399 141.947 188.335 142.441 186.938 144.455C185.379 146.703 183.816 151.475 183.816 151.475Z" fill="#292929"/>
<path fill-rule="evenodd" clip-rule="evenodd" d="M183.816 151.475C183.816 151.475 183.059 145.138 180.694 142.449C179.428 141.008 177.858 140.964 176.29 140.921C174.571 140.874 172.854 140.827 171.54 138.938C170.511 137.458 171.421 136.335 172.652 134.817C174.341 132.734 176.632 129.907 175.342 124.396C174.419 120.452 171.595 118.921 168.712 117.358C166.006 115.892 163.249 114.398 161.962 110.856C160.368 106.472 160.379 103.55 160.624 98.821C160.726 96.8526 161.129 94.7907 161.535 92.7135C162.127 89.6869 162.726 86.6277 162.408 83.777C161.865 78.9075 157.948 75.7534 157.948 75.7534C157.948 75.7534 160.284 81.0838 160.624 84.7798C160.914 87.9359 160.165 90.1982 159.366 92.61C158.802 94.3154 158.212 96.0956 157.948 98.3194C157.629 101.005 157.875 103.292 158.112 105.485C158.44 108.525 158.749 111.383 157.502 114.868C156.84 116.717 156.165 117.851 155.344 119.231C155.044 119.734 154.725 120.27 154.38 120.885C150.608 127.613 143.229 136.933 143.229 136.933C143.229 136.933 152.735 122.534 148.136 114.868C146.78 112.609 144.723 111.84 142.67 111.072C140.489 110.255 138.311 109.441 136.985 106.844C134.966 102.89 137.718 99.0965 140.4 95.3999C143.143 91.6188 145.814 87.9387 143.229 84.2897C139.622 79.1962 134.332 79.3464 128.957 81.7711C124.334 83.857 121.375 91.299 121.375 91.299C121.375 91.299 118.012 82.7155 112.455 80.7681C105.238 78.2394 98.6735 84.136 95.9524 91.8004C94.4624 95.9972 96.8146 98.3658 99.2113 100.779C101.245 102.827 103.312 104.908 103.089 108.166C102.874 111.297 100.82 113.2 98.8344 115.041C96.6594 117.056 94.5661 118.996 95.0604 122.39C95.9165 128.268 104.873 132.921 104.873 132.921C104.873 132.921 104.709 132.938 104.427 132.963C104.427 132.963 98.1824 131.416 94.1684 129.912C93.5321 129.673 92.8988 129.462 92.2797 129.256C88.9731 128.154 86.0676 127.186 85.2481 122.891C84.8225 120.661 85.6558 118.942 86.5022 117.197C87.221 115.714 87.9493 114.212 87.9242 112.361C87.8903 109.853 81.2341 103.334 81.2341 103.334C81.2341 103.334 79.4134 101.602 79.45 98.3194C79.5231 91.7748 89.7083 83.777 89.7083 83.777C89.7083 83.777 73.6509 91.6615 69.1918 101.328C68.1378 103.613 67.1698 106.247 66.5088 108.166C65.9607 109.757 65.6237 110.856 65.6237 110.856C64.9952 114.756 67.4265 117.971 69.5357 120.761C71.1098 122.843 72.5044 124.687 72.3138 126.402C71.7639 131.348 66.9617 134.809 64.2857 135.93C61.1845 137.229 57.1495 135.428 57.1495 135.428L53.1354 131.416L54.9195 135.428C54.9195 135.428 48.2304 132.756 47.3373 127.405C46.2575 120.934 53.1354 108.85 53.1354 108.85C53.1354 108.85 44.0263 119.851 44.2152 127.405C44.3079 131.11 46.5015 133.033 48.6939 134.956C50.7742 136.78 52.8535 138.603 53.1354 141.947C53.5621 147.009 50.0134 152.478 50.0134 152.478C50.0134 152.478 42.6996 143.267 41.0931 135.93C40.0099 130.982 40.6471 122.891 40.6471 122.891C40.6471 122.891 38.2908 128.773 38.4171 132.921C38.5322 136.701 40.6471 141.947 40.6471 141.947C40.6471 141.947 37.122 142.098 34.849 140.944C33.2855 140.151 30.8349 136.933 30.8349 136.933C30.8349 136.933 25.7784 137.978 23.6988 136.431C19.8861 133.594 17.796 130.762 17.4546 125.399C17.0473 119 22.3607 112.361 22.3607 112.361C22.3607 112.361 16.7507 104.452 17.0086 98.821C17.4148 89.953 29.4969 81.7711 29.4969 81.7711C29.4969 81.7711 23.3704 71.0547 25.4828 64.7213C27.0662 59.9739 31.7724 58.2111 35.9984 56.6281C38.9147 55.5357 41.6024 54.5289 42.8772 52.6861C44.3731 50.5236 44.6249 48.7434 44.862 47.0672C45.0491 45.745 45.2269 44.4875 45.9993 43.1582C48.4279 38.9782 50.78 37.4213 54.4735 35.1347C59.3986 32.0856 65.6033 29.4432 70.9758 31.123C74.7018 32.288 77.666 35.1347 77.666 35.1347C77.666 35.1347 87.4218 23.4965 95.5064 24.1025C98.7671 24.3469 100.537 26.452 102.17 28.3939C103.887 30.4363 105.453 32.298 108.441 31.6245C111.253 30.9905 112.748 28.5613 114.286 26.0619C115.595 23.9351 116.935 21.7575 119.145 20.5921C124.191 17.9308 131.401 19.0848 136.093 20.5921C142.337 22.5979 146.295 24.8538 149.028 29.117C150.183 30.9193 150.354 32.1837 150.49 33.1833C150.624 34.1718 150.724 34.9014 151.704 35.6361C152.681 36.3687 155.247 36.1501 158.466 35.8759C164.059 35.3993 171.621 34.755 176.234 38.6449C179.802 41.6537 180.248 57.7006 180.248 57.7006C180.248 57.7006 198.265 63.005 199.873 70.2373C202.103 80.2666 196.751 89.293 196.751 89.293C196.751 89.293 209.23 100.881 207.901 108.85C207.208 113.004 205.725 114.786 204.482 116.279C203.324 117.67 202.374 118.811 202.465 121.387C202.524 123.066 203.226 123.833 203.959 124.633C204.795 125.547 205.671 126.503 205.671 128.909C205.671 128.909 202.586 137.063 199.427 139.941C197.775 141.446 194.075 140.944 194.075 140.944C194.075 140.944 192.757 137.065 191.399 134.927C190.785 133.961 190.008 133.39 189.264 132.843C188.272 132.114 187.34 131.429 186.938 129.912C186.521 128.334 187.013 127.336 187.587 126.17C188.074 125.182 188.62 124.073 188.722 122.39C188.957 118.543 187.184 116.322 185.255 113.906C183.892 112.198 182.451 110.393 181.586 107.847C179.464 101.603 180.248 90.7974 180.248 90.7974C180.248 90.7974 176.442 102.724 178.464 109.853C179.169 112.338 180.619 113.847 182.04 115.327C183.608 116.959 185.141 118.555 185.6 121.387C185.95 123.544 185.273 125.282 184.608 126.988C183.886 128.839 183.179 130.652 183.816 132.921C184.967 137.016 191.399 141.947 191.399 141.947C191.399 141.947 188.335 142.441 186.938 144.455C185.379 146.703 183.816 151.475 183.816 151.475ZM138.769 83.777C138.769 83.777 135.566 84.1322 133.863 85.2813C131.741 86.7137 129.849 90.7974 129.849 90.7974C129.849 90.7974 132.755 87.6777 135.201 86.7857C137.203 86.0557 140.962 86.2842 140.962 86.2842C140.693 85.2929 140.014 84.4429 138.769 83.777ZM140.648 89.7945C140.648 89.7945 137.564 90.0297 136.093 91.299C134.905 92.3249 133.863 94.8092 133.863 94.8092C133.863 94.8092 135.553 93.2561 136.985 92.8033C137.719 92.5715 139.33 92.8033 139.33 92.8033C139.867 91.7562 140.33 90.7468 140.648 89.7945ZM103.046 86.2908C104.006 85.4545 105.073 84.7841 106.211 84.2897C106.211 84.2897 109.213 84.5621 110.671 85.7828C112.798 87.5647 113.347 92.8033 113.347 92.8033C113.347 92.8033 111.344 89.1408 109.333 87.7886C107.465 86.533 104.186 86.3249 103.046 86.2908ZM99.727 90.8004C100.055 90.0754 100.435 89.3985 100.859 88.7717C100.859 88.7717 103.218 88.9886 104.427 89.7945C105.969 90.823 106.657 93.8062 106.657 93.8062C106.657 93.8062 104.646 91.8875 103.089 91.299C102.002 90.8884 100.311 90.8139 99.727 90.8004ZM54.9195 151.475C55.7091 149.903 55.3655 146.46 55.3655 146.46C55.3655 146.46 58.1598 149.965 57.5955 151.976C56.9144 154.404 52.2434 154.484 52.2434 154.484C52.2434 154.484 54.1927 152.922 54.9195 151.475ZM65.6237 93.3048C65.6237 93.3048 66.8363 87.67 68.7458 84.7798C70.5145 82.1027 74.5439 79.2637 74.5439 79.2637C74.5439 79.2637 68.5491 80.4494 66.5157 83.777C64.5407 87.0092 65.6237 93.3048 65.6237 93.3048ZM116.023 55.6947C119.648 57.0481 122.713 63.7182 122.713 63.7182C122.713 63.7182 126.658 59.5094 129.849 59.205C132.674 58.9355 137.431 61.7123 137.431 61.7123C137.431 61.7123 134.374 57.1488 131.187 56.6977C127.863 56.2271 123.605 60.2079 123.605 60.2079C123.605 60.2079 119.832 53.6975 116.023 53.1874C112.905 52.7699 108.441 56.1962 108.441 56.1962C108.441 56.1962 113.208 54.6439 116.023 55.6947Z" fill="black"/>
<path d="M121.375 91.299C121.375 91.299 130.741 79.482 138.769 83.777C140.014 84.4429 140.693 85.2929 140.962 86.2842C141.243 87.3171 141.079 88.5033 140.648 89.7945C140.33 90.7468 139.867 91.7562 139.33 92.8033C138.855 93.7289 138.322 94.684 137.78 95.6551C135.044 100.555 132.081 105.863 135.201 109.853C136.769 111.859 138.694 112.225 140.555 112.579C142.603 112.969 144.573 113.344 145.906 115.871C147.526 118.945 147.455 122.335 147.244 125.9C146.998 130.041 143.229 136.933 143.229 136.933C143.229 136.933 152.735 122.534 148.136 114.868C146.78 112.609 144.723 111.84 142.67 111.072C140.489 110.255 138.311 109.441 136.985 106.844C134.966 102.89 137.718 99.0965 140.4 95.3999C143.143 91.6188 145.814 87.9387 143.229 84.2897C139.622 79.1962 134.332 79.3464 128.957 81.7711C124.334 83.857 121.375 91.299 121.375 91.299Z" fill="#292929"/>
<path d="M104.873 132.921C104.873 132.921 99.4156 128.889 98.6285 123.393C98.1433 120.006 99.9956 117.902 101.887 115.753C103.865 113.506 105.886 111.21 105.319 107.346C104.972 104.986 103.41 103.382 101.868 101.799C99.9 99.7789 97.9645 97.7918 98.6285 94.3078C98.8704 93.0383 99.2436 91.8672 99.727 90.8004C100.055 90.0754 100.435 89.3985 100.859 88.7717C101.495 87.8296 102.232 87.0005 103.046 86.2908C104.006 85.4545 105.073 84.7841 106.211 84.2897C107.747 83.6221 109.413 83.2756 111.117 83.2756C116.204 83.2756 121.375 91.299 121.375 91.299C121.375 91.299 118.012 82.7155 112.455 80.7681C105.238 78.2394 98.6735 84.136 95.9524 91.8004C94.4624 95.9972 96.8146 98.3658 99.2113 100.779C101.245 102.827 103.312 104.908 103.089 108.166C102.874 111.297 100.82 113.2 98.8344 115.041C96.6594 117.056 94.5661 118.996 95.0604 122.39C95.9165 128.268 104.873 132.921 104.873 132.921Z" fill="#292929"/>
<path d="M78 155C78 151.686 80.6863 149 84 149C87.3137 149 90 151.686 90 155V168C90 171.314 87.3137 174 84 174C80.6863 174 78 171.314 78 168V155Z" fill="black"/>
<path d="M138 155C138 151.686 140.686 149 144 149C147.314 149 150 151.686 150 155V168C150 171.314 147.314 174 144 174C140.686 174 138 171.314 138 168V155Z" fill="black"/>
<path d="M74 193.5C74 196.538 67.0604 199 58.5 199C49.9396 199 43 196.538 43 193.5C43 190.462 49.9396 188 58.5 188C67.0604 188 74 190.462 74 193.5Z" fill="#F9A9E7"/>
<path d="M187 193.5C187 196.538 180.06 199 171.5 199C162.94 199 156 196.538 156 193.5C156 190.462 162.94 188 171.5 188C180.06 188 187 190.462 187 193.5Z" fill="#F9A9E7"/>
<path d="M105.147 197.763C105.312 196.942 106.307 196.525 107.064 196.881C108.569 197.588 111.114 198.469 114.5 198.5C118.11 198.533 121.06 197.581 122.798 196.842C123.562 196.518 124.5 197.072 124.5 197.903C124.5 198.274 124.308 198.616 123.977 198.784C122.692 199.439 119.142 201 114.5 201C110.08 201 106.933 199.584 105.646 198.884C105.245 198.666 105.058 198.21 105.147 197.763Z" fill="black"/>
</g>
<defs>
<clipPath id="clip0_1046_606">
<rect width="230" height="475" fill="white"/>
</clipPath>
</defs>
</svg>
