<svg width="230" height="475" viewBox="0 0 230 475" fill="none" xmlns="http://www.w3.org/2000/svg">
<g clip-path="url(#clip0_1046_616)">
<path d="M178.985 332.783C179.615 326.861 187 297.176 187 297.176C187 297.176 178.369 258.692 163.389 240.765C153.661 229.123 135.526 215.815 135.526 215.815L135.203 215.55C125.259 217 116.743 217 114.8 217C112.908 217 106.247 216.912 97.7957 215.661L96.5149 216.899C96.5149 216.899 77.4561 226.718 67.0067 242.393C56.5573 258.067 43 297.176 43 297.176C43 297.176 54.5606 329.869 55.5613 334.142C56.3198 337.381 60.2014 342.051 64.2083 346.181C64.2083 346.181 60.3023 367.056 59.2069 380.619C56.7299 411.289 64.2083 459.268 64.2083 459.268C64.2083 459.268 70.4947 474.227 78.5099 474C86.4131 473.776 91.9975 458.901 91.9975 458.901L101 409L115.02 382.333L128.998 409.971L137.5 461.5C137.5 461.5 143.485 473.698 150.53 474C158.515 474.342 164.736 459.268 164.736 459.268C164.736 459.268 171.854 411.449 171.238 380.619C170.969 367.14 169.008 346.181 169.008 346.181C173.868 341.639 178.604 336.366 178.985 332.783Z" fill="#FFCEB4"/>
<path d="M55.1636 184.709C55.1636 194.455 58.1258 199.7 64.0363 203.764C74.3042 210.823 87.4035 214.122 97.7957 215.661C106.247 216.912 112.908 217 114.8 217C116.743 217 125.259 217 135.203 215.55C146.847 213.852 160.449 210.166 167.745 202.164C171.803 197.713 174.219 194.219 174.436 188.2C174.336 187.064 174.364 185.851 174.497 184.564C175.41 175.792 181.262 163.601 185.202 149.218C190.159 131.122 192.088 109.556 177.345 86.9637C166.145 69.8001 144.764 57 114.8 57C92.5455 57 64.3273 70.3819 53.7091 88.1273C35.9665 117.779 41.6452 133.678 47.9592 151.255L47.981 151.315C51.4789 161.052 55.1636 171.31 55.1636 184.709Z" fill="#FFCEB4"/>
<path d="M47.9592 151.255C47.9592 151.255 43.2364 144.564 35.6727 144.564C26.0727 144.564 22 152.568 22 160.564C22 169 26.7203 176.581 35.6727 181.655C42.3756 185.454 55.1636 184.709 55.1636 184.709C55.1636 171.31 51.4789 161.052 47.981 151.315L47.9592 151.255Z" fill="#FFCEB4"/>
<path d="M198.436 145C193.113 144.03 185.202 149.218 185.202 149.218C181.262 163.601 175.41 175.792 174.497 184.564C174.497 184.564 187.066 185.421 193.782 182.382C203.471 177.997 206.727 170.309 207.891 161.146C208.862 153.5 206.019 146.382 198.436 145Z" fill="#FFCEB4"/>
<path d="M55.1636 184.709C55.1636 194.455 58.1258 199.7 64.0363 203.764C74.3042 210.823 87.4035 214.122 97.7957 215.661M55.1636 184.709C55.1636 184.709 42.3756 185.454 35.6727 181.655C26.7203 176.581 22 169 22 160.564C22 152.568 26.0727 144.564 35.6727 144.564C43.2364 144.564 47.9592 151.255 47.9592 151.255M55.1636 184.709C55.1636 171.31 51.4789 161.052 47.981 151.315M185.202 149.218C190.159 131.122 192.088 109.556 177.345 86.9637C166.145 69.8001 144.764 57 114.8 57C92.5455 57 64.3273 70.3819 53.7091 88.1273C35.9665 117.779 41.6452 133.678 47.9592 151.255M185.202 149.218C185.202 149.218 193.113 144.03 198.436 145C206.019 146.382 208.862 153.5 207.891 161.146C206.727 170.309 203.471 177.997 193.782 182.382C187.066 185.421 174.497 184.564 174.497 184.564M185.202 149.218C181.262 163.601 175.41 175.792 174.497 184.564M174.497 184.564C174.364 185.851 174.336 187.064 174.436 188.2C174.219 194.219 171.803 197.713 167.745 202.164C160.449 210.166 146.847 213.852 135.203 215.55M47.9592 151.255L47.981 151.315M47.9592 151.255C47.9665 151.275 47.9737 151.295 47.981 151.315M97.7957 215.661L96.5149 216.899C96.5149 216.899 77.4561 226.718 67.0067 242.393C56.5573 258.067 43 297.176 43 297.176C43 297.176 54.5606 329.869 55.5613 334.142C56.3198 337.381 60.2014 342.051 64.2083 346.181C64.2083 346.181 60.3023 367.056 59.2069 380.619C56.73 411.289 64.2083 459.268 64.2083 459.268C64.2083 459.268 70.4947 474.227 78.5099 474C86.4131 473.776 91.9975 458.901 91.9975 458.901L101 409L115.02 382.333L128.998 409.971L137.5 461.5C137.5 461.5 143.485 473.698 150.53 474C158.515 474.342 164.736 459.268 164.736 459.268C164.736 459.268 171.854 411.449 171.238 380.619C170.969 367.14 169.008 346.181 169.008 346.181C173.868 341.639 178.604 336.366 178.985 332.783C179.615 326.861 187 297.176 187 297.176C187 297.176 178.369 258.692 163.389 240.765C153.661 229.123 135.526 215.815 135.526 215.815L135.203 215.55M97.7957 215.661C106.247 216.912 112.908 217 114.8 217C116.743 217 125.259 217 135.203 215.55" stroke="black" stroke-width="2" stroke-linejoin="round"/>
<path fill-rule="evenodd" clip-rule="evenodd" d="M80.5305 75.1802C70.0869 80.3565 73.1 103.485 73.1 103.485C73.1 103.485 59.5535 91.8383 51.9042 96.3561C51.9042 96.3561 58.7358 96.1151 62.0413 98.1172C64.9216 99.8617 67.1099 104.461 67.1099 104.461C67.1099 104.461 64.001 100.607 61.5806 99.0932C58.1692 96.96 51.9042 96.3561 51.9042 96.3561C51.7481 96.4483 51.5945 96.5472 51.4435 96.6531C50.3098 97.448 49.5209 98.6337 49.0019 100.069C49.0019 100.069 54.6183 99.337 57.8943 100.557C61.1552 101.772 64.806 105.926 64.806 105.926C64.806 105.926 61.1198 102.997 57.4336 101.533C54.2776 100.28 49.0019 100.069 49.0019 100.069C47.5197 104.169 48.2384 110.306 49.4132 115.198C49.4132 115.198 50.6494 115.293 53.7472 114.222C56.7033 113.2 58.7346 112.014 60.9325 110.732C64.2623 108.789 67.9746 106.622 75.8646 104.461C85.8132 101.737 105.257 100.557 105.257 100.557C104.757 99.3822 104.26 98.1938 103.763 97.0048C98.0063 83.2348 92.2173 69.3878 80.5305 75.1802ZM81.394 83.9646C79.0901 87.3807 79.0901 97.6292 79.0901 97.6292C79.0901 97.6292 80.4281 89.2585 83.2371 84.9406C85.4763 81.4987 90.6096 77.6203 90.6096 77.6203C90.6096 77.6203 83.9549 80.1674 81.394 83.9646ZM89.688 85.9166C85.9677 87.3624 84.6195 95.189 84.6195 95.189C84.6195 95.189 86.6294 89.1693 89.688 87.3807C91.9435 86.0618 97.0605 86.8927 97.0605 86.8927C97.0605 86.8927 92.222 84.9319 89.688 85.9166Z" fill="#292929"/>
<path d="M64.806 77.6203C64.806 77.6203 59.2072 72.0507 54.6688 70.788C50.3143 69.5764 43.1493 71.276 43.1493 71.276C43.1493 71.276 51.4514 67.1838 56.5119 68.8359C59.8508 69.9259 63.8843 74.2042 63.8843 74.2042C63.8843 74.2042 63.8567 67.788 65.7275 64.4437C68.3233 59.8031 76.7861 57.1234 76.7861 57.1234C76.7861 57.1234 69.5311 61.6467 67.1099 66.3958C65.0975 70.343 64.806 77.6203 64.806 77.6203Z" fill="#292929"/>
<path d="M22.8751 151.799C22.8751 151.799 27.047 146.166 31.6299 145.943C36.7046 145.697 39.6452 145.687 43.6101 149.847C47.9357 154.386 50.5219 164 50.5219 164C50.5219 164 51.736 158.247 50.061 152.776C47.1505 143.268 33.9338 129.351 33.9338 129.351C33.9338 129.351 39.1068 136.936 40.8454 142.527C41.2629 143.87 41.767 146.013 41.767 146.013C41.767 146.013 35.7375 142.312 32.0906 142.527C26.7307 142.844 22.8751 151.799 22.8751 151.799Z" fill="#292929"/>
<path fill-rule="evenodd" clip-rule="evenodd" d="M180.001 159.608C180.001 159.608 195.667 145.455 201.196 146.013C205.39 146.435 206.726 146.919 206.726 146.919C206.726 146.919 203.697 144.071 201.196 143.503C198.415 142.871 194.745 144.967 194.745 144.967C194.745 144.967 195.88 137.781 198.432 134.231C200.288 131.648 204.422 128.863 204.422 128.863L198.432 129.351C198.432 129.351 198.511 126.929 198.892 125.446C199.422 123.391 201.196 120.566 201.196 120.566C201.196 120.566 197.681 122.704 196.589 125.446C196.012 126.894 195.667 130.327 195.667 130.327C195.667 130.327 191.728 130.335 189.216 125.446C186.862 120.865 186.407 114.575 185.967 108.497C185.525 102.379 185.098 96.477 182.765 92.7489C178.772 86.3673 170.785 85.9166 170.785 85.9166C170.785 85.9166 176.314 86.8927 181.844 99.0932C183.928 103.693 183.833 108.117 183.74 112.402C183.632 117.409 183.528 122.226 186.912 126.91C189.001 129.802 191.52 133.255 191.52 133.255C191.52 133.255 189.756 136.278 183.687 137.647C180.475 138.371 168.02 139.599 168.02 139.599C172.877 142.271 181.844 140.575 181.844 140.575C181.844 140.575 184.6 144.967 182.765 152.776C182.078 155.7 180.001 159.608 180.001 159.608ZM187.373 146.013C187.341 143.814 185.991 140.575 185.991 140.575C185.991 140.575 188.302 140.19 189.677 139.599C192.178 138.524 195.206 135.207 195.206 135.207C195.206 135.207 193.78 141.239 191.981 144.479C190.181 147.719 185.991 151.799 185.991 151.799C185.991 151.799 187.406 148.343 187.373 146.013Z" fill="#292929"/>
<path d="M133.923 125.446C133.923 125.446 142.242 130.596 148.668 130.327C151.983 130.188 157.422 128.374 157.422 128.374C157.422 128.374 157.956 129.159 158.831 130.327C158.831 130.327 162.005 128.809 163.412 127.398C165.699 125.108 167.099 120.078 167.099 120.078C167.099 120.078 160.846 122.482 155.118 120.566C151.564 119.377 151.029 110.683 150.36 99.8039C149.382 83.8893 148.116 63.2983 136.687 54.6833C125.014 45.8838 103.972 45.8989 103.972 45.8989C103.972 45.8989 127.156 46.6962 138.07 61.0276C145.956 71.3835 147.337 91.2074 148.324 105.39C148.914 113.852 149.363 120.306 150.971 121.542C155.275 124.849 160.648 124.47 160.648 124.47C160.648 124.47 151.488 128.302 145.903 127.398C140.329 126.496 137.201 123.526 133.499 120.009C133.184 119.711 132.865 119.408 132.54 119.102C127.96 114.79 123.786 107.878 123.786 107.878C123.786 107.878 126.264 115.091 128.854 119.102C130.584 121.781 133.923 125.446 133.923 125.446Z" fill="#292929"/>
<path fill-rule="evenodd" clip-rule="evenodd" d="M168.02 139.599C164.709 137.777 160.855 133.027 158.831 130.327C158.831 130.327 162.005 128.809 163.412 127.398C165.699 125.108 167.099 120.078 167.099 120.078C167.099 120.078 160.846 122.482 155.118 120.566C151.564 119.377 151.029 110.683 150.36 99.8039C149.382 83.8893 148.116 63.2983 136.687 54.6833C125.014 45.8838 103.972 45.8989 103.972 45.8989C103.972 45.8989 127.156 46.6962 138.07 61.0276C145.956 71.3835 147.337 91.2074 148.324 105.39C148.914 113.852 149.363 120.306 150.971 121.542C155.275 124.849 160.648 124.47 160.648 124.47C160.648 124.47 151.488 128.302 145.903 127.398C140.329 126.496 137.201 123.526 133.499 120.009C133.184 119.711 132.865 119.408 132.54 119.102C127.96 114.79 123.786 107.878 123.786 107.878C123.786 107.878 126.264 115.091 128.854 119.102C130.584 121.781 133.923 125.446 133.923 125.446C133.923 125.446 125.846 124.88 121.482 123.006C117.117 121.132 113.707 117.638 109.099 108.854C107.758 106.298 106.497 103.468 105.257 100.557C104.757 99.3822 104.26 98.1938 103.763 97.0048C98.0063 83.2348 92.2173 69.3878 80.5305 75.1802C70.0869 80.3565 73.1 103.485 73.1 103.485C73.1 103.485 59.5535 91.8383 51.9042 96.3561C51.7481 96.4483 51.5945 96.5472 51.4435 96.6531C50.3098 97.448 49.5209 98.6337 49.0019 100.069C47.5197 104.169 48.2384 110.306 49.4132 115.198C49.7582 116.634 50.1424 117.963 50.5219 119.102C52.3431 124.567 54.1656 128.649 55.7083 132.103C58.8493 139.138 60.83 143.573 59.2767 151.799C57.8944 159.12 50.5219 164 50.5219 164C50.5219 164 51.736 158.247 50.061 152.776C47.1505 143.268 33.9338 129.351 33.9338 129.351C33.9338 129.351 39.1068 136.936 40.8454 142.527C41.2629 143.87 41.767 146.013 41.767 146.013C41.767 146.013 35.7375 142.312 32.0906 142.527C26.7307 142.844 22.8751 151.799 22.8751 151.799C22.8751 151.799 17.7207 142.348 18.7282 135.695C19.2135 132.49 20.354 130.379 21.4806 128.294C22.7206 125.999 23.9437 123.735 24.2575 120.078C24.6414 115.606 23.1498 110.522 21.5269 104.991C19.2541 97.2454 16.7239 88.6223 18.7282 79.5723C27.483 40.0426 57.8944 48.827 57.8944 48.827C57.8944 48.827 61.363 34.6177 69.4138 26.866C84.6195 12.2254 103.972 16.6177 103.972 16.6177C103.972 16.6177 100.733 18.5459 99.3644 21.0099C97.9836 23.4956 99.3644 25.8901 99.3644 25.8901C99.3644 25.8901 130.116 12.7724 151.432 21.0099C174.619 29.9699 181.825 43.6688 188.699 56.7359C191.934 62.8852 195.096 68.8945 199.814 74.2042L200.25 74.6948C205.017 80.0647 206.838 82.116 213.177 83.4765C217.248 84.3505 227 83.4765 227 83.4765C227 83.4765 220.318 92.9146 214.559 96.6531C209.885 99.6871 204.883 101.045 204.883 101.045C204.883 101.045 210.849 111.816 211.334 119.102C211.991 128.982 206.726 146.919 206.726 146.919C206.726 146.919 203.697 144.071 201.196 143.503C198.415 142.871 194.745 144.967 194.745 144.967C194.745 144.967 195.88 137.781 198.432 134.231C200.288 131.648 204.422 128.863 204.422 128.863L198.432 129.351C198.432 129.351 198.511 126.929 198.892 125.446C199.422 123.391 201.196 120.566 201.196 120.566C201.196 120.566 197.681 122.704 196.589 125.446C196.012 126.894 195.667 130.327 195.667 130.327C195.667 130.327 191.728 130.335 189.216 125.446C186.862 120.865 186.407 114.575 185.967 108.497C185.525 102.379 185.098 96.477 182.765 92.7489C178.772 86.3673 170.785 85.9166 170.785 85.9166C170.785 85.9166 176.314 86.8927 181.844 99.0932C183.928 103.693 183.833 108.117 183.74 112.402C183.632 117.409 183.528 122.226 186.912 126.91C189.001 129.802 191.52 133.255 191.52 133.255C191.52 133.255 189.756 136.278 183.687 137.647C180.475 138.371 168.02 139.599 168.02 139.599ZM49.0019 100.069C49.0019 100.069 54.6183 99.337 57.8943 100.557C61.1552 101.772 64.806 105.926 64.806 105.926C64.806 105.926 61.1198 102.997 57.4336 101.533C54.2776 100.28 49.0019 100.069 49.0019 100.069ZM51.9042 96.3561C51.9042 96.3561 58.7358 96.1151 62.0413 98.1172C64.9216 99.8617 67.1099 104.461 67.1099 104.461C67.1099 104.461 64.001 100.607 61.5806 99.0932C58.1692 96.96 51.9042 96.3561 51.9042 96.3561ZM79.0901 97.6292C79.0901 97.6292 79.0901 87.3807 81.394 83.9646C83.9549 80.1674 90.6096 77.6203 90.6096 77.6203C90.6096 77.6203 85.4763 81.4987 83.2371 84.9406C80.4281 89.2585 79.0901 97.6292 79.0901 97.6292ZM84.6195 95.189C84.6195 95.189 85.9677 87.3624 89.688 85.9166C92.222 84.9319 97.0605 86.8927 97.0605 86.8927C97.0605 86.8927 91.9435 86.0618 89.688 87.3807C86.6294 89.1693 84.6195 95.189 84.6195 95.189ZM64.806 77.6203C64.806 77.6203 59.2072 72.0507 54.6688 70.788C50.3143 69.5764 43.1493 71.276 43.1493 71.276C43.1493 71.276 51.4514 67.1838 56.5119 68.8359C59.8508 69.9259 63.8843 74.2042 63.8843 74.2042C63.8843 74.2042 63.8567 67.788 65.7275 64.4437C68.3233 59.8031 76.7861 57.1234 76.7861 57.1234C76.7861 57.1234 69.5311 61.6467 67.1099 66.3958C65.0975 70.343 64.806 77.6203 64.806 77.6203ZM187.373 146.013C187.341 143.814 185.991 140.575 185.991 140.575C185.991 140.575 188.302 140.19 189.677 139.599C192.178 138.524 195.206 135.207 195.206 135.207C195.206 135.207 193.78 141.239 191.981 144.479C190.181 147.719 185.991 151.799 185.991 151.799C185.991 151.799 187.406 148.343 187.373 146.013ZM91.9918 49.8031C94.6244 47.4002 100.286 47.363 100.286 47.363C100.286 47.363 95.6861 48.2324 93.3742 49.8031C91.1897 51.2871 88.7664 56.1474 88.7664 56.1474C88.7664 56.1474 90.4376 51.2217 91.9918 49.8031Z" fill="black"/>
<path d="M100.286 47.363C100.286 47.363 94.6244 47.4002 91.9918 49.8031C90.4376 51.2217 88.7664 56.1474 88.7664 56.1474C88.7664 56.1474 91.1897 51.2871 93.3742 49.8031C95.6861 48.2324 100.286 47.363 100.286 47.363Z" fill="#292929"/>
<path d="M78 155C78 151.686 80.6863 149 84 149C87.3137 149 90 151.686 90 155V168C90 171.314 87.3137 174 84 174C80.6863 174 78 171.314 78 168V155Z" fill="black"/>
<path d="M138 155C138 151.686 140.686 149 144 149C147.314 149 150 151.686 150 155V168C150 171.314 147.314 174 144 174C140.686 174 138 171.314 138 168V155Z" fill="black"/>
<path d="M74 193.5C74 196.538 67.0604 199 58.5 199C49.9396 199 43 196.538 43 193.5C43 190.462 49.9396 188 58.5 188C67.0604 188 74 190.462 74 193.5Z" fill="#F9A9E7"/>
<path d="M187 193.5C187 196.538 180.06 199 171.5 199C162.94 199 156 196.538 156 193.5C156 190.462 162.94 188 171.5 188C180.06 188 187 190.462 187 193.5Z" fill="#F9A9E7"/>
<path d="M105.147 197.763C105.312 196.942 106.307 196.525 107.064 196.881C108.569 197.588 111.114 198.469 114.5 198.5C118.11 198.533 121.06 197.581 122.798 196.842C123.562 196.518 124.5 197.072 124.5 197.903C124.5 198.274 124.308 198.616 123.977 198.784C122.692 199.439 119.142 201 114.5 201C110.08 201 106.933 199.584 105.646 198.884C105.245 198.666 105.058 198.21 105.147 197.763Z" fill="black"/>
</g>
<defs>
<clipPath id="clip0_1046_616">
<rect width="230" height="475" fill="white"/>
</clipPath>
</defs>
</svg>
