<svg width="230" height="475" viewBox="0 0 230 475" fill="none" xmlns="http://www.w3.org/2000/svg">
<g clip-path="url(#clip0_1046_611)">
<path d="M178.985 332.783C179.615 326.861 187 297.176 187 297.176C187 297.176 178.369 258.692 163.389 240.765C153.661 229.123 135.526 215.815 135.526 215.815L135.203 215.55C125.259 217 116.743 217 114.8 217C112.908 217 106.247 216.912 97.7957 215.661L96.5149 216.899C96.5149 216.899 77.4561 226.718 67.0067 242.393C56.5573 258.067 43 297.176 43 297.176C43 297.176 54.5606 329.869 55.5613 334.142C56.3198 337.381 60.2014 342.051 64.2083 346.181C64.2083 346.181 60.3023 367.056 59.2069 380.619C56.7299 411.289 64.2083 459.268 64.2083 459.268C64.2083 459.268 70.4947 474.227 78.5099 474C86.4131 473.776 91.9975 458.901 91.9975 458.901L101 409L115.02 382.333L128.998 409.971L137.5 461.5C137.5 461.5 143.485 473.698 150.53 474C158.515 474.342 164.736 459.268 164.736 459.268C164.736 459.268 171.854 411.449 171.238 380.619C170.969 367.14 169.008 346.181 169.008 346.181C173.868 341.639 178.604 336.366 178.985 332.783Z" fill="#FFCEB4"/>
<path d="M55.1636 184.709C55.1636 194.455 58.1258 199.7 64.0363 203.764C74.3042 210.823 87.4035 214.122 97.7957 215.661C106.247 216.912 112.908 217 114.8 217C116.743 217 125.259 217 135.203 215.55C146.847 213.852 160.449 210.166 167.745 202.164C171.803 197.713 174.219 194.219 174.436 188.2C174.336 187.064 174.364 185.851 174.497 184.564C175.41 175.792 181.262 163.601 185.202 149.218C190.159 131.122 192.088 109.556 177.345 86.9637C166.145 69.8001 144.764 57 114.8 57C92.5455 57 64.3273 70.3819 53.7091 88.1273C35.9665 117.779 41.6452 133.678 47.9592 151.255L47.981 151.315C51.4789 161.052 55.1636 171.31 55.1636 184.709Z" fill="#FFCEB4"/>
<path d="M47.9592 151.255C47.9592 151.255 43.2364 144.564 35.6727 144.564C26.0727 144.564 22 152.568 22 160.564C22 169 26.7203 176.581 35.6727 181.655C42.3756 185.454 55.1636 184.709 55.1636 184.709C55.1636 171.31 51.4789 161.052 47.981 151.315L47.9592 151.255Z" fill="#FFCEB4"/>
<path d="M198.436 145C193.113 144.03 185.202 149.218 185.202 149.218C181.262 163.601 175.41 175.792 174.497 184.564C174.497 184.564 187.066 185.421 193.782 182.382C203.471 177.997 206.727 170.309 207.891 161.146C208.862 153.5 206.019 146.382 198.436 145Z" fill="#FFCEB4"/>
<path d="M55.1636 184.709C55.1636 194.455 58.1258 199.7 64.0363 203.764C74.3042 210.823 87.4035 214.122 97.7957 215.661M55.1636 184.709C55.1636 184.709 42.3756 185.454 35.6727 181.655C26.7203 176.581 22 169 22 160.564C22 152.568 26.0727 144.564 35.6727 144.564C43.2364 144.564 47.9592 151.255 47.9592 151.255M55.1636 184.709C55.1636 171.31 51.4789 161.052 47.981 151.315M185.202 149.218C190.159 131.122 192.088 109.556 177.345 86.9637C166.145 69.8001 144.764 57 114.8 57C92.5455 57 64.3273 70.3819 53.7091 88.1273C35.9665 117.779 41.6452 133.678 47.9592 151.255M185.202 149.218C185.202 149.218 193.113 144.03 198.436 145C206.019 146.382 208.862 153.5 207.891 161.146C206.727 170.309 203.471 177.997 193.782 182.382C187.066 185.421 174.497 184.564 174.497 184.564M185.202 149.218C181.262 163.601 175.41 175.792 174.497 184.564M174.497 184.564C174.364 185.851 174.336 187.064 174.436 188.2C174.219 194.219 171.803 197.713 167.745 202.164C160.449 210.166 146.847 213.852 135.203 215.55M47.9592 151.255L47.981 151.315M47.9592 151.255C47.9665 151.275 47.9737 151.295 47.981 151.315M97.7957 215.661L96.5149 216.899C96.5149 216.899 77.4561 226.718 67.0067 242.393C56.5573 258.067 43 297.176 43 297.176C43 297.176 54.5606 329.869 55.5613 334.142C56.3198 337.381 60.2014 342.051 64.2083 346.181C64.2083 346.181 60.3023 367.056 59.2069 380.619C56.73 411.289 64.2083 459.268 64.2083 459.268C64.2083 459.268 70.4947 474.227 78.5099 474C86.4131 473.776 91.9975 458.901 91.9975 458.901L101 409L115.02 382.333L128.998 409.971L137.5 461.5C137.5 461.5 143.485 473.698 150.53 474C158.515 474.342 164.736 459.268 164.736 459.268C164.736 459.268 171.854 411.449 171.238 380.619C170.969 367.14 169.008 346.181 169.008 346.181C173.868 341.639 178.604 336.366 178.985 332.783C179.615 326.861 187 297.176 187 297.176C187 297.176 178.369 258.692 163.389 240.765C153.661 229.123 135.526 215.815 135.526 215.815L135.203 215.55M97.7957 215.661C106.247 216.912 112.908 217 114.8 217C116.743 217 125.259 217 135.203 215.55" stroke="black" stroke-width="2" stroke-linejoin="round"/>
<path d="M32.2346 144.185C33.4556 143.805 34.743 143.69 35.844 143.685C35.844 143.685 41.2914 134.513 43.9651 128.178C46.287 122.677 46.4682 116.3 46.6491 109.934C46.8422 103.139 47.035 96.356 49.8304 90.6616C54.545 81.0576 67.8774 78.6563 67.8774 78.6563C67.8774 78.6563 55.228 76.8071 49.8304 84.6589C45.9197 90.3477 45.0905 100.202 44.3062 109.522C43.8178 115.326 43.3469 120.922 42.1604 125.177C39.2816 135.501 32.2346 144.185 32.2346 144.185Z" fill="#292929"/>
<path d="M56.5984 133.18C56.5984 133.18 56.9696 138.692 56.5984 142.184C56.2383 145.572 54.7937 150.688 54.7937 150.688C54.7937 150.688 58.5083 143.921 58.8539 140.183C59.1896 136.553 56.5984 133.18 56.5984 133.18Z" fill="#292929"/>
<path d="M76.4501 129.679C76.4501 129.679 78.36 132.776 78.7055 135.681C79.1284 139.237 75.0961 145.686 75.0961 145.686C75.0961 145.686 80.103 142.08 80.5103 136.682C80.9105 131.378 77.1563 127.821 73.262 124.131C69.3424 120.418 65.281 116.57 65.1704 110.67C64.9853 100.8 75.0961 89.6611 75.0961 89.6611C75.0961 89.6611 62.0849 101.385 62.4633 111.671C62.832 121.692 75.9551 132.18 75.9551 132.18C76.3002 130.673 76.4501 129.679 76.4501 129.679Z" fill="#292929"/>
<path d="M81.8637 146.186C81.8637 146.186 85.9243 142.684 88.1802 134.681C89.1445 131.26 86.7287 126.833 83.9988 121.831C80.3422 115.131 76.1221 107.398 78.7055 99.6655C79.7265 96.6094 81.8332 94.6546 84.5709 93.5345C85.9366 92.9758 87.4594 92.6248 89.0826 92.4484C91.3446 92.2026 93.8018 92.2959 96.3015 92.6388C98.4072 92.9276 100.543 93.3935 102.618 93.983C103.535 94.2435 104.44 94.5281 105.325 94.8323C108.292 95.8518 111.036 97.0905 113.261 98.3745C107.13 94.4239 93.9383 87.1252 85.4733 91.1618C77.9909 94.7298 77.2926 97.0707 75.9551 104.668C75.0919 109.571 77.6673 114.242 80.368 119.14C83.1774 124.235 86.1224 129.576 85.4733 135.681C84.9318 140.774 81.8637 146.186 81.8637 146.186Z" fill="#292929"/>
<path d="M152.698 138.683C153.197 134.258 154.954 128.178 154.954 128.178C154.954 128.178 155.447 142.112 159.015 146.186C160.978 148.427 163.922 149.672 167.136 150.332C167.136 150.332 159.1 144.78 158.112 138.182C157.125 131.585 156.308 123.676 156.308 123.676C156.308 123.676 152.027 130.567 150.894 134.681C149.59 139.411 151.796 144.685 151.796 144.685C151.796 144.685 143.677 147.011 140.968 140.183C139.059 135.373 140.488 127.106 141.968 118.547C144.335 104.855 146.832 90.4135 136.005 88.1605C126.399 86.1615 116.604 100.666 116.604 100.666C116.604 100.666 118.089 98.8361 120.401 96.6642C123.773 93.4962 128.903 89.6003 133.749 89.5934C134.823 89.5919 135.883 89.7815 136.907 90.2124C137.211 90.3404 137.512 90.4897 137.809 90.6616C138.758 91.2105 139.5 91.9685 140.065 92.8998C140.629 93.8277 141.018 94.9276 141.264 96.164C141.42 96.9461 141.518 97.7828 141.567 98.6651C141.892 104.503 140.057 112.336 138.365 119.555C136.687 126.717 135.151 133.275 136.005 136.682C137.11 141.092 139.447 144.337 143.224 146.186C147.266 148.165 152.247 148.187 156.308 146.186C156.656 146.014 156.196 145.493 155.499 144.704C154.305 143.351 152.413 141.209 152.698 138.683Z" fill="#292929"/>
<path d="M185.183 150.688C185.635 151.688 194.011 146.092 197.365 140.683C202.328 132.68 205 126.939 206.389 116.673C206.389 116.673 203.352 126.669 201.425 130.679C198.598 136.564 193.755 141.684 193.755 141.684C193.755 141.684 191.695 140.281 191.048 136.682C190.288 132.45 191.048 122.175 191.048 122.175C191.048 122.175 188.816 128.692 188.341 132.68C187.713 137.957 191.048 143.858 191.048 143.858C191.048 143.858 189.663 146.146 188.341 147.186C187.02 148.227 184.281 149.187 184.281 149.187C184.281 149.187 181.168 144.59 180.22 138.182C179.054 130.301 181.224 122.02 183.29 114.133C185.556 105.487 187.697 97.3151 185.183 90.6616C182.006 82.2527 172.099 82.1578 172.099 82.1578C172.099 82.1578 180.741 84.9973 182.927 93.1627C184.634 99.5399 182.682 107.058 180.637 114.931C178.779 122.085 176.845 129.533 177.513 136.682C178.245 144.517 181.122 150.719 181.122 150.719L181.624 150.682C183.7 150.528 185.066 150.427 185.183 150.688Z" fill="#292929"/>
<path fill-rule="evenodd" clip-rule="evenodd" d="M177.513 136.682C178.245 144.517 181.122 150.719 181.122 150.719C177.488 150.986 172.003 151.33 167.136 150.332C167.136 150.332 159.1 144.78 158.112 138.182C157.125 131.585 156.308 123.676 156.308 123.676C156.308 123.676 152.027 130.567 150.894 134.681C149.59 139.411 151.796 144.685 151.796 144.685C151.796 144.685 143.677 147.011 140.968 140.183C139.059 135.373 140.488 127.106 141.968 118.547C144.335 104.855 146.832 90.4135 136.005 88.1605C126.399 86.1615 116.604 100.666 116.604 100.666C116.604 100.666 115.337 99.7121 113.261 98.3745C107.13 94.4239 93.9383 87.1252 85.4733 91.1618C77.9909 94.7298 77.2926 97.0707 75.9551 104.668C75.0919 109.571 77.6673 114.242 80.368 119.14C83.1774 124.235 86.1224 129.576 85.4733 135.681C84.9318 140.774 81.8637 146.186 81.8637 146.186C81.8637 146.186 82.1249 144.122 82.3154 141.684C82.4229 140.308 81.8637 138.182 81.8637 138.182C81.8637 138.182 81.018 141.817 79.6083 143.185C78.1987 144.552 75.0961 145.686 75.0961 145.686C75.0961 145.686 80.103 142.08 80.5103 136.682C80.9105 131.378 77.1563 127.821 73.262 124.131C69.3424 120.418 65.281 116.57 65.1704 110.67C64.9853 100.8 75.0961 89.6611 75.0961 89.6611C75.0961 89.6611 62.0849 101.385 62.4633 111.671C62.832 121.692 75.9551 132.18 75.9551 132.18C75.1778 135.575 73.4097 141.576 70.1332 144.685C65.5173 149.065 54.7937 150.688 54.7937 150.688C54.7937 150.688 58.5083 143.921 58.8539 140.183C59.1896 136.553 56.5984 133.18 56.5984 133.18C56.5984 133.18 56.2853 139.502 54.3421 143.185C52.6422 146.406 48.0256 150.688 48.0256 150.688C48.0256 150.688 41.3088 143.661 35.844 143.685C35.844 143.685 41.2914 134.513 43.9651 128.178C46.287 122.677 46.4682 116.3 46.6491 109.934C46.8422 103.139 47.035 96.356 49.8304 90.6616C54.545 81.0576 67.8774 78.6563 67.8774 78.6563C67.8774 78.6563 55.228 76.8071 49.8304 84.6589C45.9197 90.3477 45.0905 100.202 44.3062 109.522C43.8178 115.326 43.3469 120.922 42.1604 125.177C39.2816 135.501 32.2346 144.185 32.2346 144.185C29.8524 144.926 28.174 146.186 28.174 146.186C28.174 146.186 22.6568 128.311 20.9551 119.174C17.7229 101.819 23.4342 80.7062 27.0876 67.2012C27.4777 65.7593 27.8443 64.4041 28.1741 63.1495C31.5924 50.1438 43.6665 30.2522 63.366 20.1307C100.362 1.12222 130.591 26.1332 130.591 26.1332C130.591 26.1332 158.25 16.3384 183.83 34.1365C193.672 40.9845 198.479 47.6284 203.681 59.1475C210.233 73.6539 207.742 106.668 206.389 116.673C206.389 116.673 203.352 126.669 201.425 130.679C198.598 136.564 193.755 141.684 193.755 141.684C193.755 141.684 191.695 140.281 191.048 136.682C190.288 132.45 191.048 122.175 191.048 122.175C191.048 122.175 188.816 128.692 188.341 132.68C187.713 137.957 191.048 143.858 191.048 143.858C191.048 143.858 189.663 146.146 188.341 147.186C187.02 148.227 184.281 149.187 184.281 149.187C184.281 149.187 181.168 144.59 180.22 138.182C179.054 130.301 181.224 122.02 183.29 114.133C185.556 105.487 187.697 97.3151 185.183 90.6616C182.006 82.2527 172.099 82.1578 172.099 82.1578C172.099 82.1578 180.741 84.9973 182.927 93.1627C184.634 99.5399 182.682 107.058 180.637 114.931C178.779 122.085 176.845 129.533 177.513 136.682ZM141.567 98.6651C141.518 97.7828 141.42 96.9461 141.264 96.164C141.264 96.164 136.241 97.0842 133.749 99.1653C131.749 100.836 129.688 104.668 129.688 104.668C129.688 104.668 132.206 101.337 134.2 100.166C136.817 98.6279 141.567 98.6651 141.567 98.6651ZM140.065 92.8998C139.5 91.9685 138.758 91.2105 137.809 90.6616C137.512 90.4897 137.211 90.3404 136.907 90.2124C136.907 90.2124 131 92.8606 127.884 95.6637C124.975 98.2803 121.567 103.667 121.567 103.667C121.567 103.667 125.948 98.7077 129.237 96.6642C133.152 94.2322 140.065 92.8998 140.065 92.8998ZM133.749 89.5934C128.903 89.6003 123.773 93.4962 120.401 96.6642C120.401 96.6642 118.579 98.5801 117.958 100.166C117.736 100.732 117.507 101.666 117.507 101.666C117.507 101.666 118.665 99.1176 122.018 96.6642C125.056 94.4417 133.749 89.5934 133.749 89.5934ZM84.5709 96.6642C82.0481 96.6656 78.7055 99.6655 78.7055 99.6655C79.7265 96.6094 81.8332 94.6546 84.5709 93.5345C84.5709 93.5345 87.6765 95.5066 89.5338 97.1644C91.4845 98.9055 94.0456 102.167 94.0456 102.167C94.0456 102.167 91.4445 99.7598 89.5338 98.6651C89.1832 98.4641 88.8605 98.2668 88.5534 98.079C87.2563 97.2857 86.2385 96.6633 84.5709 96.6642ZM97.655 96.6642C94.7483 94.1941 89.0826 92.4484 89.0826 92.4484C91.3446 92.2026 93.8018 92.2959 96.3015 92.6388C96.3015 92.6388 98.3947 94.3969 99.9109 96.6642C101.641 99.2523 103.52 104.668 103.52 104.668C103.52 104.668 100.538 99.1141 97.655 96.6642ZM107.581 98.6651C106.074 96.391 102.618 93.983 102.618 93.983C103.535 94.2435 104.44 94.5281 105.325 94.8323C105.325 94.8323 106.522 95.5104 107.13 96.164C108.492 97.6289 108.934 101.166 108.934 101.166C108.934 101.166 108.189 99.5831 107.581 98.6651ZM105.776 64.1499C111.466 68.0676 117.507 80.6572 117.507 80.6572C117.507 80.6572 120.441 73.1977 124.725 70.6528C129.58 67.7692 141.419 69.6523 141.419 69.6523C141.419 69.6523 131.236 65.5707 126.079 67.6514C121.966 69.311 117.507 75.1547 117.507 75.1547C117.507 75.1547 117.102 71.7539 117.507 69.6523C118.049 66.8315 119.109 65.1706 120.665 63.1495C123.419 59.5707 129.237 56.1464 129.237 56.1464C129.237 56.1464 124.279 57.7465 121.567 60.1481C119.417 62.0527 116.604 66.1508 116.604 66.1508C116.604 66.1508 115.726 60.4613 114.348 57.1468C112.149 51.8539 105.776 45.6418 105.776 45.6418C105.776 45.6418 110.623 52.865 112.544 58.1473C114.11 62.4539 115.251 69.6523 115.251 69.6523C115.251 69.6523 109.621 61.8521 104.874 60.1481C100.153 58.4538 93.1432 61.6488 93.1432 61.6488C93.1432 61.6488 100.873 60.7739 105.776 64.1499Z" fill="black"/>
<path d="M117.507 80.6572C117.507 80.6572 111.466 68.0676 105.776 64.1499C100.873 60.7739 93.1432 61.6488 93.1432 61.6488C93.1432 61.6488 100.153 58.4538 104.874 60.1481C109.621 61.8521 115.251 69.6523 115.251 69.6523C115.251 69.6523 114.11 62.4539 112.544 58.1473C110.623 52.865 105.776 45.6418 105.776 45.6418C105.776 45.6418 112.149 51.8539 114.348 57.1468C115.726 60.4613 116.604 66.1508 116.604 66.1508C116.604 66.1508 119.417 62.0527 121.567 60.1481C124.279 57.7465 129.237 56.1464 129.237 56.1464C129.237 56.1464 123.419 59.5707 120.665 63.1495C119.109 65.1706 118.049 66.8315 117.507 69.6523C117.102 71.7539 117.507 75.1547 117.507 75.1547C117.507 75.1547 121.966 69.311 126.079 67.6514C131.236 65.5707 141.419 69.6523 141.419 69.6523C141.419 69.6523 129.58 67.7692 124.725 70.6528C120.441 73.1977 117.507 80.6572 117.507 80.6572Z" fill="#292929"/>
<path d="M78 155C78 151.686 80.6863 149 84 149C87.3137 149 90 151.686 90 155V168C90 171.314 87.3137 174 84 174C80.6863 174 78 171.314 78 168V155Z" fill="black"/>
<path d="M138 155C138 151.686 140.686 149 144 149C147.314 149 150 151.686 150 155V168C150 171.314 147.314 174 144 174C140.686 174 138 171.314 138 168V155Z" fill="black"/>
<path d="M74 193.5C74 196.538 67.0604 199 58.5 199C49.9396 199 43 196.538 43 193.5C43 190.462 49.9396 188 58.5 188C67.0604 188 74 190.462 74 193.5Z" fill="#F9A9E7"/>
<path d="M187 193.5C187 196.538 180.06 199 171.5 199C162.94 199 156 196.538 156 193.5C156 190.462 162.94 188 171.5 188C180.06 188 187 190.462 187 193.5Z" fill="#F9A9E7"/>
<path d="M105.147 197.763C105.312 196.942 106.307 196.525 107.064 196.881C108.569 197.588 111.114 198.469 114.5 198.5C118.11 198.533 121.06 197.581 122.798 196.842C123.562 196.518 124.5 197.072 124.5 197.903C124.5 198.274 124.308 198.616 123.977 198.784C122.692 199.439 119.142 201 114.5 201C110.08 201 106.933 199.584 105.646 198.884C105.245 198.666 105.058 198.21 105.147 197.763Z" fill="black"/>
</g>
<defs>
<clipPath id="clip0_1046_611">
<rect width="230" height="475" fill="white"/>
</clipPath>
</defs>
</svg>
