<svg width="230" height="475" viewBox="0 0 230 475" fill="none" xmlns="http://www.w3.org/2000/svg">
<g clip-path="url(#clip0_1046_621)">
<path d="M178.985 332.783C179.615 326.861 187 297.176 187 297.176C187 297.176 178.369 258.692 163.389 240.765C153.661 229.123 135.526 215.815 135.526 215.815L135.203 215.55C125.259 217 116.743 217 114.8 217C112.908 217 106.247 216.912 97.7957 215.661L96.5149 216.899C96.5149 216.899 77.4561 226.718 67.0067 242.393C56.5573 258.067 43 297.176 43 297.176C43 297.176 54.5606 329.869 55.5613 334.142C56.3198 337.381 60.2014 342.051 64.2083 346.181C64.2083 346.181 60.3023 367.056 59.2069 380.619C56.7299 411.289 64.2083 459.268 64.2083 459.268C64.2083 459.268 70.4947 474.227 78.5099 474C86.4131 473.776 91.9975 458.901 91.9975 458.901L101 409L115.02 382.333L128.998 409.971L137.5 461.5C137.5 461.5 143.485 473.698 150.53 474C158.515 474.342 164.736 459.268 164.736 459.268C164.736 459.268 171.854 411.449 171.238 380.619C170.969 367.14 169.008 346.181 169.008 346.181C173.868 341.639 178.604 336.366 178.985 332.783Z" fill="#FFCEB4"/>
<path d="M55.1636 184.709C55.1636 194.455 58.1258 199.7 64.0363 203.764C74.3042 210.823 87.4035 214.122 97.7957 215.661C106.247 216.912 112.908 217 114.8 217C116.743 217 125.259 217 135.203 215.55C146.847 213.852 160.449 210.166 167.745 202.164C171.803 197.713 174.219 194.219 174.436 188.2C174.336 187.064 174.364 185.851 174.497 184.564C175.41 175.792 181.262 163.601 185.202 149.218C190.159 131.122 192.088 109.556 177.345 86.9637C166.145 69.8001 144.764 57 114.8 57C92.5455 57 64.3273 70.3819 53.7091 88.1273C35.9665 117.779 41.6452 133.678 47.9592 151.255L47.981 151.315C51.4789 161.052 55.1636 171.31 55.1636 184.709Z" fill="#FFCEB4"/>
<path d="M47.9592 151.255C47.9592 151.255 43.2364 144.564 35.6727 144.564C26.0727 144.564 22 152.568 22 160.564C22 169 26.7203 176.581 35.6727 181.655C42.3756 185.454 55.1636 184.709 55.1636 184.709C55.1636 171.31 51.4789 161.052 47.981 151.315L47.9592 151.255Z" fill="#FFCEB4"/>
<path d="M198.436 145C193.113 144.03 185.202 149.218 185.202 149.218C181.262 163.601 175.41 175.792 174.497 184.564C174.497 184.564 187.066 185.421 193.782 182.382C203.471 177.997 206.727 170.309 207.891 161.146C208.862 153.5 206.019 146.382 198.436 145Z" fill="#FFCEB4"/>
<path d="M55.1636 184.709C55.1636 194.455 58.1258 199.7 64.0363 203.764C74.3042 210.823 87.4035 214.122 97.7957 215.661M55.1636 184.709C55.1636 184.709 42.3756 185.454 35.6727 181.655C26.7203 176.581 22 169 22 160.564C22 152.568 26.0727 144.564 35.6727 144.564C43.2364 144.564 47.9592 151.255 47.9592 151.255M55.1636 184.709C55.1636 171.31 51.4789 161.052 47.981 151.315M185.202 149.218C190.159 131.122 192.088 109.556 177.345 86.9637C166.145 69.8001 144.764 57 114.8 57C92.5455 57 64.3273 70.3819 53.7091 88.1273C35.9665 117.779 41.6452 133.678 47.9592 151.255M185.202 149.218C185.202 149.218 193.113 144.03 198.436 145C206.019 146.382 208.862 153.5 207.891 161.146C206.727 170.309 203.471 177.997 193.782 182.382C187.066 185.421 174.497 184.564 174.497 184.564M185.202 149.218C181.262 163.601 175.41 175.792 174.497 184.564M174.497 184.564C174.364 185.851 174.336 187.064 174.436 188.2C174.219 194.219 171.803 197.713 167.745 202.164C160.449 210.166 146.847 213.852 135.203 215.55M47.9592 151.255L47.981 151.315M47.9592 151.255C47.9665 151.275 47.9737 151.295 47.981 151.315M97.7957 215.661L96.5149 216.899C96.5149 216.899 77.4561 226.718 67.0067 242.393C56.5573 258.067 43 297.176 43 297.176C43 297.176 54.5606 329.869 55.5613 334.142C56.3198 337.381 60.2014 342.051 64.2083 346.181C64.2083 346.181 60.3023 367.056 59.2069 380.619C56.73 411.289 64.2083 459.268 64.2083 459.268C64.2083 459.268 70.4947 474.227 78.5099 474C86.4131 473.776 91.9975 458.901 91.9975 458.901L101 409L115.02 382.333L128.998 409.971L137.5 461.5C137.5 461.5 143.485 473.698 150.53 474C158.515 474.342 164.736 459.268 164.736 459.268C164.736 459.268 171.854 411.449 171.238 380.619C170.969 367.14 169.008 346.181 169.008 346.181C173.868 341.639 178.604 336.366 178.985 332.783C179.615 326.861 187 297.176 187 297.176C187 297.176 178.369 258.692 163.389 240.765C153.661 229.123 135.526 215.815 135.526 215.815L135.203 215.55M97.7957 215.661C106.247 216.912 112.908 217 114.8 217C116.743 217 125.259 217 135.203 215.55" stroke="black" stroke-width="2" stroke-linejoin="round"/>
<path d="M185.957 201.284C189.883 196.109 189.52 184.199 189.52 184.199L174.5 184.5C174.5 184.5 174.407 189.355 173.486 192.742C171.936 198.441 170.227 201.327 165.915 205.08C161.396 209.013 152 212.5 152 212.5C152 212.5 155.879 215.458 158.343 216.945C162.278 219.319 169.923 216.945 169.923 216.945C169.923 216.945 168.282 215.88 168.141 213.623C167.953 210.604 172.595 207.453 172.595 207.453L177.495 203.657L174.822 208.402C174.822 208.402 183.77 204.166 185.957 201.284Z" fill="black"/>
<path d="M41.6493 200.335C40.3188 194.829 46.5487 184.674 46.5487 184.674L55.5 185.995C55.5 185.995 55.02 192.834 57.2381 197.487C59.4689 202.167 67.4822 207.453 67.4822 207.453C67.4822 207.453 62.763 209.707 59.9105 208.877C57.2049 208.09 54.1204 205.555 54.1204 205.555C54.1204 205.555 53.1321 205.103 52.7842 206.03C52.4363 206.956 53.2296 208.877 53.2296 208.877C53.2296 208.877 42.8761 205.411 41.6493 200.335Z" fill="black"/>
<path d="M110.24 137.216C110.24 137.216 105.885 134.947 104.45 133.42C102.828 131.694 101.996 128.394 101.614 126.301C101.614 126.301 99.9996 128.774 99.9961 130.572C99.9916 132.894 102.668 135.793 102.668 135.793C102.668 135.793 94.6967 137.179 89.752 135.318C79.5231 131.468 73.282 123.375 71.0454 112.064C69.5643 104.573 73.2724 92.6064 73.2724 92.6064C73.2724 92.6064 68.5758 98.4254 68.373 102.098C67.9277 110.166 68.373 117.759 68.373 117.759C68.373 117.759 59.2791 127.739 59.0198 134.369C58.8932 137.603 59.9105 138.64 59.9105 138.64C60.5078 130.389 69.7092 119.657 69.7092 119.657C69.7092 119.657 78.2066 134.201 87.0796 138.166C94.6513 141.549 110.24 137.216 110.24 137.216Z" fill="#202020"/>
<path d="M175.268 160.47C174.244 166.359 171.259 175.657 171.259 175.657C171.259 175.657 173.038 172.481 174.822 169.962C179.96 162.707 179.722 156.249 176.159 147.182C175.194 144.727 172.893 142.066 170.356 139.13C165.867 133.935 160.637 127.883 160.757 120.606C160.863 114.14 163.749 108.764 166.49 103.659C170.085 96.9619 173.431 90.7307 169.923 83.1149C165.83 74.2281 151.216 67.4539 151.216 67.4539C151.216 67.4539 166.674 76.7343 167.696 86.9115C168.495 94.8586 160.757 105.995 160.757 105.995C160.757 105.995 159.879 102.362 159.234 100.674C158.588 98.9864 157.452 97.3521 157.452 97.3521C157.452 97.3521 160.124 106.369 156.116 117.284C155.659 118.529 155.243 119.771 154.835 120.988C152.813 127.028 151.002 132.436 145.426 134.369C142.775 135.288 138.3 134.843 138.3 134.843C138.3 134.843 140.082 134.369 141.863 124.877C142.393 122.055 143.557 120.124 144.665 118.284C146.064 115.964 147.373 113.791 147.208 110.166C146.984 105.247 143.199 98.3012 143.199 98.3012C143.199 98.3012 145.745 110.91 142.309 118.233C135.182 133.42 116.03 135.793 116.03 135.793C116.03 135.793 117.748 132.366 116.921 129.149C116.506 127.534 114.526 126.801 112.019 125.873C107.894 124.346 102.342 122.292 99.9961 114.911C97.817 108.056 104.45 97.3521 104.45 97.3521C104.45 97.3521 96.012 107.116 96.8783 114.437C97.3844 118.714 101.332 124.403 101.332 124.403C101.332 124.403 114.017 128.674 114.017 131.996C114.017 134.318 111.576 136.267 111.576 136.267C111.576 136.267 116.295 138.989 119.593 139.115C123.374 139.259 125.628 137.883 128.697 136.01L128.699 136.009C129.065 135.785 129.444 135.554 129.838 135.318C132.682 133.613 138.745 127.25 138.745 127.25C138.745 127.25 139.094 129.612 138.745 131.047C138.097 133.714 133.401 136.267 133.401 136.267C133.401 136.267 142.129 138.857 146.762 137.216C154.27 134.557 157.897 122.03 157.897 122.03C157.897 122.03 156.244 129.42 159.679 132.471C159.932 132.695 160.3 132.997 160.757 133.371C165.121 136.946 177.582 147.152 175.268 160.47Z" fill="#202020"/>
<path d="M64.8099 150.504C64.8099 150.504 62.0771 148.591 60.8013 146.708C59.3636 144.586 59.5131 143.001 59.76 140.384C59.784 140.129 59.8089 139.865 59.8334 139.589C59.8334 139.589 58.2533 141.402 57.6836 143.386C57.1144 145.367 57.2382 148.606 57.2382 148.606C57.2382 148.606 49.2424 143.561 48.7757 136.267C48.4457 131.11 51.448 119.657 51.448 119.657C51.448 119.657 45.2859 128.757 45.6579 135.318C46.043 142.11 53.675 150.504 53.675 150.504C53.675 150.504 54.0221 157.437 56.7928 160.945C58.6568 163.305 66.5915 166.165 66.5915 166.165C66.5915 166.165 61.1621 167.887 58.129 168.064C51.8934 168.426 39.5993 149.081 39.5993 149.081C44.3017 158.968 52.6401 173.683 59.9105 171.86C67.4822 169.962 69.7092 164.267 69.7092 164.267C69.7092 164.267 63.4071 163.095 60.8013 160.47C58.2576 157.908 56.7928 151.928 56.7928 151.928C56.7928 151.928 59.2793 152.793 60.8013 152.403C62.5424 151.956 64.8099 150.504 64.8099 150.504Z" fill="#202020"/>
<path d="M67.0369 76.4709C67.0369 76.4709 59.2308 84.646 58.129 92.6064C57.3638 98.1343 59.0198 108.742 59.0198 108.742C59.0198 108.742 54.4326 100.213 55.0112 94.0301C55.7983 85.6193 67.0369 76.4709 67.0369 76.4709Z" fill="#202020"/>
<path d="M88.8612 55.5897C88.8612 55.5897 98.501 48.6483 104.45 50.3693C108.647 51.5833 113.358 57.4879 113.358 57.4879C113.358 57.4879 117.524 53.2794 121.375 52.2676C126.342 50.9625 133.846 55.1152 133.846 55.1152C133.846 55.1152 128.656 49.908 124.047 49.4202C119.32 48.9198 112.913 53.2167 112.913 53.2167C112.913 53.2167 109.736 50.0696 106.677 48.9456C99.9594 46.4769 88.8612 55.5897 88.8612 55.5897Z" fill="#202020"/>
<path d="M136.073 57.4879C136.073 57.4879 137.579 57.8002 138.3 58.437C139.081 59.1266 139.636 60.8099 139.636 60.8099C139.636 60.8099 140.124 58.3422 139.191 57.4879C138.268 56.6422 136.073 57.4879 136.073 57.4879Z" fill="black"/>
<path d="M136.073 57.4879C136.073 57.4879 137.579 57.8002 138.3 58.437C139.081 59.1266 139.636 60.8099 139.636 60.8099C139.636 60.8099 140.124 58.3422 139.191 57.4879C138.268 56.6422 136.073 57.4879 136.073 57.4879Z" fill="#202020"/>
<path d="M183.73 170.437C189.824 164.282 190.857 146.708 190.857 146.708L200.655 143.386C200.655 143.386 206 132.44 206 124.877C206 119.194 203.83 116.751 201.881 114.558C201.033 113.603 200.227 112.696 199.659 111.589C199.659 111.589 202.502 120.209 201.992 125.827C200.655 140.538 196.647 139.589 196.647 139.589C196.647 139.589 197.945 129.925 195.756 124.877C194.308 121.538 190.857 118.233 190.857 118.233C190.857 118.233 194.697 126.133 194.42 131.521C194.221 135.385 191.747 141.013 191.747 141.013C191.747 141.013 189.593 137.334 187.293 135.793C184.722 134.069 180.167 132.471 180.167 132.471C180.167 132.471 184.338 135.702 185.957 138.64C187.355 141.175 187.634 143.04 188.036 145.727L188.036 145.73C188.083 146.044 188.132 146.369 188.184 146.708C189.625 156.033 183.73 170.437 183.73 170.437Z" fill="black"/>
<path d="M183.73 170.437C189.824 164.282 190.857 146.708 190.857 146.708L200.655 143.386C200.655 143.386 206 132.44 206 124.877C206 119.194 203.83 116.751 201.881 114.558C201.033 113.603 200.227 112.696 199.659 111.589C199.659 111.589 202.502 120.209 201.992 125.827C200.655 140.538 196.647 139.589 196.647 139.589C196.647 139.589 197.945 129.925 195.756 124.877C194.308 121.538 190.857 118.233 190.857 118.233C190.857 118.233 194.697 126.133 194.42 131.521C194.221 135.385 191.747 141.013 191.747 141.013C191.747 141.013 189.593 137.334 187.293 135.793C184.722 134.069 180.167 132.471 180.167 132.471C180.167 132.471 184.338 135.702 185.957 138.64C187.355 141.175 187.634 143.04 188.036 145.727L188.036 145.73C188.083 146.044 188.132 146.369 188.184 146.708C189.625 156.033 183.73 170.437 183.73 170.437Z" fill="#202020"/>
<path fill-rule="evenodd" clip-rule="evenodd" d="M183.73 170.437C179.416 174.794 171.259 175.657 171.259 175.657C171.259 175.657 173.038 172.481 174.822 169.962C179.96 162.707 179.722 156.249 176.159 147.182C175.194 144.727 172.893 142.066 170.356 139.13C165.867 133.935 160.637 127.883 160.757 120.606C160.863 114.14 163.749 108.764 166.49 103.659C170.085 96.9619 173.431 90.7307 169.923 83.1149C165.83 74.2281 151.216 67.4539 151.216 67.4539C151.216 67.4539 166.674 76.7343 167.696 86.9115C168.495 94.8586 160.757 105.995 160.757 105.995C160.757 105.995 159.879 102.362 159.234 100.674C158.588 98.9864 157.452 97.3521 157.452 97.3521C157.452 97.3521 160.124 106.369 156.116 117.284C155.659 118.529 155.243 119.771 154.835 120.988C152.813 127.028 151.002 132.436 145.426 134.369C142.775 135.288 138.3 134.843 138.3 134.843C138.3 134.843 140.082 134.369 141.863 124.877C142.393 122.055 143.557 120.124 144.665 118.284C146.064 115.964 147.373 113.791 147.208 110.166C146.984 105.247 143.199 98.3012 143.199 98.3012C143.199 98.3012 145.745 110.91 142.309 118.233C135.182 133.42 116.03 135.793 116.03 135.793C116.03 135.793 117.748 132.366 116.921 129.149C116.506 127.534 114.526 126.801 112.019 125.873C107.894 124.346 102.342 122.292 99.9961 114.911C97.817 108.056 104.45 97.3521 104.45 97.3521C104.45 97.3521 96.012 107.116 96.8783 114.437C97.3844 118.714 101.332 124.403 101.332 124.403C101.332 124.403 101.408 125.179 101.614 126.301C101.614 126.301 99.9996 128.774 99.9961 130.572C99.9916 132.894 102.668 135.793 102.668 135.793C102.668 135.793 94.6967 137.179 89.752 135.318C79.5231 131.468 73.282 123.375 71.0454 112.064C69.5643 104.573 73.2724 92.6064 73.2724 92.6064C73.2724 92.6064 68.5758 98.4254 68.373 102.098C67.9277 110.166 68.373 117.759 68.373 117.759C68.373 117.759 59.2791 127.739 59.0198 134.369C58.8932 137.603 59.9105 138.64 59.9105 138.64C59.8866 138.971 59.8602 139.287 59.8334 139.589C59.8334 139.589 58.2533 141.402 57.6836 143.386C57.1144 145.367 57.2382 148.606 57.2382 148.606C57.2382 148.606 49.2424 143.561 48.7757 136.267C48.4457 131.11 51.448 119.657 51.448 119.657C51.448 119.657 45.2859 128.757 45.6579 135.318C46.043 142.11 53.675 150.504 53.675 150.504C53.675 150.504 54.0221 157.437 56.7928 160.945C58.6568 163.305 66.5915 166.165 66.5915 166.165C66.5915 166.165 61.1621 167.887 58.129 168.064C51.8934 168.426 39.5993 149.081 39.5993 149.081C38.9436 147.702 38.3585 146.417 37.8569 145.284C37.8569 145.284 38.9473 139.195 38.0862 136.267C36.574 131.126 37.6408 122.979 37.6408 122.979C37.6408 122.979 36.0779 127.163 35.8592 130.572C35.669 133.536 36.3046 139.115 36.3046 139.115C36.3046 139.115 32.4398 133.928 31.4053 131.047C30.0321 127.223 31.4053 122.03 31.4053 122.03C31.4053 122.03 29.4282 126.166 29.1783 129.149C28.8956 132.522 30.8136 137.261 31.2967 138.391C27.8045 136.48 23.2445 133.338 21.1612 129.149C18.1301 123.054 18.8955 114.911 19.825 112.064C20.8537 108.912 22.6991 107.417 24.4534 105.995C26.4223 104.4 28.2766 102.897 28.7329 99.2505C29.1059 96.2692 28.151 93.9538 27.1112 91.4329C25.6682 87.9343 24.0619 84.0398 25.6151 77.4201C28.2875 66.0303 42.5401 62.2338 42.5401 62.2338C42.5401 62.2338 45.1537 57.575 47.8849 56.0643C51.5899 54.0149 56.3474 55.1152 56.3474 55.1152C56.3474 55.1152 60.9616 42.64 67.9276 38.9797C72.9415 36.345 81.2895 36.1322 81.2895 36.1322C81.2895 36.1322 85.298 31.1569 92.4244 30.9119C96.55 30.77 98.9384 31.8141 100.997 32.7141C102.938 33.5629 104.587 34.2834 107.122 33.7593C109.981 33.1686 111.226 31.2306 112.442 29.3368C113.625 27.4957 114.781 25.6962 117.366 25.217C123.725 24.0387 127.986 27.8656 132.245 31.6901C134.847 34.0271 137.449 36.3632 140.527 37.5559C144.129 38.9514 148.709 38.7893 153.431 38.6222C161.558 38.3346 170.107 38.0321 174.822 45.6237C178.291 51.209 178.386 62.2338 178.386 62.2338C178.386 62.2338 184.228 64.282 185.512 68.4032C186.279 70.8657 187.293 75.0472 187.293 75.0472C187.293 75.0472 203.466 80.1914 204.664 88.8099C205.666 96.0155 203.515 98.778 201.55 101.302C200.021 103.266 198.604 105.085 198.874 108.742C198.956 109.862 199.244 110.779 199.659 111.589C199.659 111.589 202.502 120.209 201.992 125.827C200.655 140.538 196.647 139.589 196.647 139.589C196.647 139.589 197.945 129.925 195.756 124.877C194.308 121.538 190.857 118.233 190.857 118.233C190.857 118.233 194.697 126.133 194.42 131.521C194.221 135.385 191.747 141.013 191.747 141.013C191.747 141.013 189.593 137.334 187.293 135.793C184.722 134.069 180.167 132.471 180.167 132.471C180.167 132.471 184.338 135.702 185.957 138.64C187.355 141.175 187.634 143.04 188.036 145.727L188.036 145.73C188.083 146.044 188.132 146.369 188.184 146.708C189.625 156.033 183.73 170.437 183.73 170.437ZM35.8592 140.538C35.8592 140.538 36.5931 142.429 37.8569 145.284L35.8592 140.538ZM67.0369 76.4709C67.0369 76.4709 59.2308 84.646 58.129 92.6064C57.3638 98.1343 59.0198 108.742 59.0198 108.742C59.0198 108.742 54.4326 100.213 55.0112 94.0301C55.7983 85.6193 67.0369 76.4709 67.0369 76.4709ZM88.8612 55.5897C88.8612 55.5897 98.501 48.6483 104.45 50.3693C108.647 51.5833 113.358 57.4879 113.358 57.4879C113.358 57.4879 117.524 53.2794 121.375 52.2676C126.342 50.9625 133.846 55.1152 133.846 55.1152C133.846 55.1152 128.656 49.908 124.047 49.4202C119.32 48.9198 112.913 53.2167 112.913 53.2167C112.913 53.2167 109.736 50.0696 106.677 48.9456C99.9594 46.4769 88.8612 55.5897 88.8612 55.5897ZM136.073 57.4879C136.073 57.4879 137.579 57.8002 138.3 58.437C139.081 59.1266 139.636 60.8099 139.636 60.8099C139.636 60.8099 140.124 58.3422 139.191 57.4879C138.268 56.6422 136.073 57.4879 136.073 57.4879Z" fill="black"/>
<path d="M31.4053 122.03C31.4053 122.03 29.4282 126.166 29.1783 129.149C28.8956 132.522 30.8136 137.261 31.2967 138.391C33.8672 139.798 35.8592 140.538 35.8592 140.538L37.8569 145.284C37.8569 145.284 38.9473 139.195 38.0862 136.267C36.574 131.126 37.6408 122.979 37.6408 122.979C37.6408 122.979 36.0779 127.163 35.8592 130.572C35.669 133.536 36.3046 139.115 36.3046 139.115C36.3046 139.115 32.4398 133.928 31.4053 131.047C30.0321 127.223 31.4053 122.03 31.4053 122.03Z" fill="#202020"/>
<path d="M78 155C78 151.686 80.6863 149 84 149C87.3137 149 90 151.686 90 155V168C90 171.314 87.3137 174 84 174C80.6863 174 78 171.314 78 168V155Z" fill="black"/>
<path d="M138 155C138 151.686 140.686 149 144 149C147.314 149 150 151.686 150 155V168C150 171.314 147.314 174 144 174C140.686 174 138 171.314 138 168V155Z" fill="black"/>
<path d="M74 193.5C74 196.538 67.0604 199 58.5 199C49.9396 199 43 196.538 43 193.5C43 190.462 49.9396 188 58.5 188C67.0604 188 74 190.462 74 193.5Z" fill="#F9A9E7"/>
<path d="M187 193.5C187 196.538 180.06 199 171.5 199C162.94 199 156 196.538 156 193.5C156 190.462 162.94 188 171.5 188C180.06 188 187 190.462 187 193.5Z" fill="#F9A9E7"/>
<path d="M105.147 197.763C105.312 196.942 106.307 196.525 107.064 196.881C108.569 197.588 111.114 198.469 114.5 198.5C118.11 198.533 121.06 197.581 122.798 196.842C123.562 196.518 124.5 197.072 124.5 197.903C124.5 198.274 124.308 198.616 123.977 198.784C122.692 199.439 119.142 201 114.5 201C110.08 201 106.933 199.584 105.646 198.884C105.245 198.666 105.058 198.21 105.147 197.763Z" fill="black"/>
</g>
<defs>
<clipPath id="clip0_1046_621">
<rect width="230" height="475" fill="white"/>
</clipPath>
</defs>
</svg>
