<svg width="230" height="475" viewBox="0 0 230 475" fill="none" xmlns="http://www.w3.org/2000/svg">
<g clip-path="url(#clip0_1046_626)">
<path d="M178.985 332.783C179.615 326.861 187 297.176 187 297.176C187 297.176 178.369 258.692 163.389 240.765C153.661 229.123 135.526 215.815 135.526 215.815L135.203 215.55C125.259 217 116.743 217 114.8 217C112.908 217 106.247 216.912 97.7957 215.661L96.5149 216.899C96.5149 216.899 77.4561 226.718 67.0067 242.393C56.5573 258.067 43 297.176 43 297.176C43 297.176 54.5606 329.869 55.5613 334.142C56.3198 337.381 60.2014 342.051 64.2083 346.181C64.2083 346.181 60.3023 367.056 59.2069 380.619C56.7299 411.289 64.2083 459.268 64.2083 459.268C64.2083 459.268 70.4947 474.227 78.5099 474C86.4131 473.776 91.9975 458.901 91.9975 458.901L101 409L115.02 382.333L128.998 409.971L137.5 461.5C137.5 461.5 143.485 473.698 150.53 474C158.515 474.342 164.736 459.268 164.736 459.268C164.736 459.268 171.854 411.449 171.238 380.619C170.969 367.14 169.008 346.181 169.008 346.181C173.868 341.639 178.604 336.366 178.985 332.783Z" fill="#FFCEB4"/>
<path d="M55.1636 184.709C55.1636 194.455 58.1258 199.7 64.0363 203.764C74.3042 210.823 87.4035 214.122 97.7957 215.661C106.247 216.912 112.908 217 114.8 217C116.743 217 125.259 217 135.203 215.55C146.847 213.852 160.449 210.166 167.745 202.164C171.803 197.713 174.219 194.219 174.436 188.2C174.336 187.064 174.364 185.851 174.497 184.564C175.41 175.792 181.262 163.601 185.202 149.218C190.159 131.122 192.088 109.556 177.345 86.9637C166.145 69.8001 144.764 57 114.8 57C92.5455 57 64.3273 70.3819 53.7091 88.1273C35.9665 117.779 41.6452 133.678 47.9592 151.255L47.981 151.315C51.4789 161.052 55.1636 171.31 55.1636 184.709Z" fill="#FFCEB4"/>
<path d="M47.9592 151.255C47.9592 151.255 43.2364 144.564 35.6727 144.564C26.0727 144.564 22 152.568 22 160.564C22 169 26.7203 176.581 35.6727 181.655C42.3756 185.454 55.1636 184.709 55.1636 184.709C55.1636 171.31 51.4789 161.052 47.981 151.315L47.9592 151.255Z" fill="#FFCEB4"/>
<path d="M198.436 145C193.113 144.03 185.202 149.218 185.202 149.218C181.262 163.601 175.41 175.792 174.497 184.564C174.497 184.564 187.066 185.421 193.782 182.382C203.471 177.997 206.727 170.309 207.891 161.146C208.862 153.5 206.019 146.382 198.436 145Z" fill="#FFCEB4"/>
<path d="M55.1636 184.709C55.1636 194.455 58.1258 199.7 64.0363 203.764C74.3042 210.823 87.4035 214.122 97.7957 215.661M55.1636 184.709C55.1636 184.709 42.3756 185.454 35.6727 181.655C26.7203 176.581 22 169 22 160.564C22 152.568 26.0727 144.564 35.6727 144.564C43.2364 144.564 47.9592 151.255 47.9592 151.255M55.1636 184.709C55.1636 171.31 51.4789 161.052 47.981 151.315M185.202 149.218C190.159 131.122 192.088 109.556 177.345 86.9637C166.145 69.8001 144.764 57 114.8 57C92.5455 57 64.3273 70.3819 53.7091 88.1273C35.9665 117.779 41.6452 133.678 47.9592 151.255M185.202 149.218C185.202 149.218 193.113 144.03 198.436 145C206.019 146.382 208.862 153.5 207.891 161.146C206.727 170.309 203.471 177.997 193.782 182.382C187.066 185.421 174.497 184.564 174.497 184.564M185.202 149.218C181.262 163.601 175.41 175.792 174.497 184.564M174.497 184.564C174.364 185.851 174.336 187.064 174.436 188.2C174.219 194.219 171.803 197.713 167.745 202.164C160.449 210.166 146.847 213.852 135.203 215.55M47.9592 151.255L47.981 151.315M47.9592 151.255C47.9665 151.275 47.9737 151.295 47.981 151.315M97.7957 215.661L96.5149 216.899C96.5149 216.899 77.4561 226.718 67.0067 242.393C56.5573 258.067 43 297.176 43 297.176C43 297.176 54.5606 329.869 55.5613 334.142C56.3198 337.381 60.2014 342.051 64.2083 346.181C64.2083 346.181 60.3023 367.056 59.2069 380.619C56.73 411.289 64.2083 459.268 64.2083 459.268C64.2083 459.268 70.4947 474.227 78.5099 474C86.4131 473.776 91.9975 458.901 91.9975 458.901L101 409L115.02 382.333L128.998 409.971L137.5 461.5C137.5 461.5 143.485 473.698 150.53 474C158.515 474.342 164.736 459.268 164.736 459.268C164.736 459.268 171.854 411.449 171.238 380.619C170.969 367.14 169.008 346.181 169.008 346.181C173.868 341.639 178.604 336.366 178.985 332.783C179.615 326.861 187 297.176 187 297.176C187 297.176 178.369 258.692 163.389 240.765C153.661 229.123 135.526 215.815 135.526 215.815L135.203 215.55M97.7957 215.661C106.247 216.912 112.908 217 114.8 217C116.743 217 125.259 217 135.203 215.55" stroke="black" stroke-width="2" stroke-linejoin="round"/>
<path d="M78 155C78 151.686 80.6863 149 84 149C87.3137 149 90 151.686 90 155V168C90 171.314 87.3137 174 84 174C80.6863 174 78 171.314 78 168V155Z" fill="black"/>
<path d="M138 155C138 151.686 140.686 149 144 149C147.314 149 150 151.686 150 155V168C150 171.314 147.314 174 144 174C140.686 174 138 171.314 138 168V155Z" fill="black"/>
<path d="M74 193.5C74 196.538 67.0604 199 58.5 199C49.9396 199 43 196.538 43 193.5C43 190.462 49.9396 188 58.5 188C67.0604 188 74 190.462 74 193.5Z" fill="#F9A9E7"/>
<path d="M187 193.5C187 196.538 180.06 199 171.5 199C162.94 199 156 196.538 156 193.5C156 190.462 162.94 188 171.5 188C180.06 188 187 190.462 187 193.5Z" fill="#F9A9E7"/>
<path d="M105.147 197.763C105.312 196.942 106.307 196.525 107.064 196.881C108.569 197.588 111.114 198.469 114.5 198.5C118.11 198.533 121.06 197.581 122.798 196.842C123.562 196.518 124.5 197.072 124.5 197.903C124.5 198.274 124.308 198.616 123.977 198.784C122.692 199.439 119.142 201 114.5 201C110.08 201 106.933 199.584 105.646 198.884C105.245 198.666 105.058 198.21 105.147 197.763Z" fill="black"/>
<path d="M33.606 106.5C33.606 106.5 35.121 119.86 39.5145 126.5C42.9251 131.654 50.8768 137 50.8768 137C50.8768 137 43.3338 129.853 39.9689 124C36.4433 117.867 33.606 106.5 33.606 106.5Z" fill="#202020"/>
<path d="M81.3281 17.5C81.3281 17.5 85.416 23.4127 84.5095 28C83.0332 35.4713 77.1445 38.7218 70.2088 42.5503C66.4689 44.6147 62.4245 46.8471 58.6033 50C54.625 53.2825 51.3314 59.5 51.3314 59.5C51.3314 59.5 48.2441 67.789 47.6953 73.5C47.2087 78.5636 50.4223 86.5 50.4223 86.5C50.4223 86.5 49.009 77.8317 50.4223 72.5C50.6782 71.5344 50.9127 70.6125 51.138 69.7266C52.5959 63.9939 53.6699 59.771 57.6942 55C60.1875 52.044 62.2378 49.7523 64.9661 48.5C67.1633 47.4915 69.5911 46.7279 71.7836 45C79.1323 39.2084 87.2364 33 87.6909 28.5C88.2241 23.2208 81.3281 17.5 81.3281 17.5Z" fill="#202020"/>
<path d="M108.598 21C108.598 21 99.5612 17.1109 93.5994 16.5C93.5994 16.5 112.3 24.9957 118.597 34C123.423 40.9022 123.596 51.5 123.596 51.5C123.596 51.5 126 38.8294 121.778 32C118.401 26.5364 108.598 21 108.598 21Z" fill="#202020"/>
<path d="M131.323 12L129.05 15.5C129.05 15.5 127.159 11.2675 126.323 9.00004C125.029 5.4864 124.505 0 124.505 0C124.505 0 123.555 14.1012 127.232 21.5C130.743 28.5639 140.867 34.5 140.867 34.5C140.867 34.5 132.146 28 130.868 21.5C130.154 17.8689 131.323 12 131.323 12Z" fill="#202020"/>
<path d="M83.1461 137.5C83.1461 137.5 73.5689 127.652 74.9651 119.5C75.997 113.475 77.2509 108.33 82.6915 107C84.7199 106.504 86.8567 106.938 89.1623 107.406C91.5061 107.882 94.0245 108.394 96.7808 108C101.569 107.316 108.598 104 108.598 104C108.598 104 108.777 104.19 109.095 104.5C109.095 104.5 122.491 91.4083 124.959 80.5C126.676 72.9113 124.505 62 124.505 62C124.505 62 124.777 74.0592 122.233 81C118.615 90.8673 114.225 96.6088 105.416 101C101.573 102.916 99.1815 103.949 94.9628 104C84.0549 104.131 75.4196 90.5 73.147 83C69.8084 71.9816 80.419 55 80.419 55C80.419 55 69.1236 70.0677 70.4201 81C71.592 90.8822 83.6004 102 83.6004 102C83.6004 102 79.8058 102.903 77.2375 106C73.2253 110.838 71.5654 119.5 72.238 122.5C73.8056 129.491 83.1461 137.5 83.1461 137.5Z" fill="#202020"/>
<path d="M55.8763 169C55.8763 169 51.3271 161.664 51.7859 156.5C52.2508 151.267 57.2187 150.231 57.6943 145C58.1488 140 54.1532 129.594 53.6039 119.5C53.3175 114.237 53.1493 110 54.5128 108.5C56.3308 106.5 62.6937 106 66.7842 107C68.3793 107.39 66.9874 112.649 66.698 118C66.698 118 67.5894 107.87 71.3291 103.5C73.2527 101.252 77.2375 99 77.2375 99C77.2375 99 73.202 99.1728 70.8746 101.5C70.8114 101.563 70.7483 101.627 70.6849 101.692C70.6359 101.742 70.5861 101.793 70.5367 101.843C69.8008 102.597 69.0061 103.412 67.6931 104C65.5499 104.961 62.6494 104.688 60.4212 104C56.3879 102.755 53.8769 100.156 51.7858 97C50.1932 94.5967 50.4223 91 50.4223 91C50.4223 91 49.5143 95.4553 50.4223 98C50.8212 99.1179 51.7111 99.7096 52.5594 100.274C53.5667 100.943 54.5151 101.574 54.5128 103C54.51 104.746 52.6948 107 52.6948 107C52.6948 107 47.0014 104.627 44.9683 100.5C42.9779 96.4592 42.6959 87 42.6959 87C42.6959 87 41.2552 96.7288 43.6049 102C44.5201 104.053 45.8816 105.159 47.2448 106.266C48.599 107.366 49.955 108.467 50.8768 110.5C52.2631 113.557 51.7504 116.335 51.2305 119.152C50.7398 121.812 50.2427 124.505 51.3314 127.5C51.5159 128.008 51.8318 128.691 52.2105 129.511C53.6969 132.729 56.1503 138.041 55.4217 143C55.068 145.407 53.8858 146.938 52.7023 148.471C51.5109 150.013 50.3182 151.558 49.9678 154C49.0147 160.642 55.8763 169 55.8763 169Z" fill="#202020"/>
<path d="M144.957 106C144.957 106 162.798 95.9151 166.319 83.5C168.864 74.5215 165.864 60 165.864 60C165.864 60 167.371 74.5708 164.501 83C159.033 99.0573 132.231 108.838 132.231 108.838C139.012 107.673 144.957 106 144.957 106Z" fill="#202020"/>
<path d="M197.224 104C192.156 70.5 179.045 65.5 179.045 65.5C179.045 65.5 174.852 78.952 171.318 85.5C167.837 91.9503 161.319 98.5 161.319 98.5C161.319 98.5 169.36 92.9297 173.136 88C177.596 82.1766 179.499 70.5 179.499 70.5C179.499 70.5 182.175 71.7247 183.135 72.5C185.442 74.3636 186.771 79.5 186.771 79.5C186.771 79.5 185.066 89.3025 181.771 95.5C180.031 98.7726 175.408 104.5 175.408 104.5C175.408 104.5 179.452 101.426 181.771 99C186.373 94.1862 189.498 83.5 189.498 83.5C189.498 83.5 191.789 87.6046 192.679 90.5C193.773 94.0581 194.043 100 194.043 100C194.043 100 189.559 108.354 185.862 113C182.221 117.576 175.408 123.5 175.408 123.5C175.408 123.5 182.945 118.824 187.225 115C191.512 111.17 197.224 104 197.224 104Z" fill="#202020"/>
<path fill-rule="evenodd" clip-rule="evenodd" d="M172.682 112C173.592 120.863 171.881 134.432 171.161 139.5C171.161 139.5 176.997 138.628 180.408 137C184.837 134.886 190.407 129 190.407 129C190.407 129 185.692 137.347 180.862 140C178.854 141.103 175.408 142 175.408 142C175.408 142 180.289 147.849 181.771 152.5C183.254 157.151 180.863 163.5 180.863 163.5C180.863 163.5 181.728 162.45 183.07 160.5C188.406 152.747 201.274 130.768 197.224 104C197.224 104 191.512 111.17 187.225 115C182.945 118.824 175.408 123.5 175.408 123.5C175.408 123.5 182.221 117.576 185.862 113C189.559 108.354 194.043 100 194.043 100C194.043 100 193.773 94.0581 192.679 90.5C191.789 87.6046 189.498 83.5 189.498 83.5C189.498 83.5 186.373 94.1862 181.771 99C179.452 101.426 175.408 104.5 175.408 104.5C175.408 104.5 180.031 98.7726 181.771 95.5C185.066 89.3025 186.771 79.5 186.771 79.5C186.771 79.5 185.442 74.3636 183.135 72.5C182.175 71.7247 179.499 70.5 179.499 70.5C179.499 70.5 177.596 82.1766 173.136 88C169.36 92.9297 161.319 98.5 161.319 98.5C161.319 98.5 167.837 91.9503 171.318 85.5C174.852 78.952 179.045 65.5 179.045 65.5C179.045 65.5 177.227 49 161.319 33.5C161.319 33.5 151.724 27.1982 145.866 23C140.009 18.8019 131.323 12 131.323 12C131.323 12 130.154 17.8689 130.868 21.5C132.146 28 140.867 34.5 140.867 34.5C140.867 34.5 130.743 28.5639 127.232 21.5C123.555 14.1012 124.505 0 124.505 0C124.505 0 119.253 5.3019 116.324 9.50004C113.396 13.6982 108.598 21 108.598 21C108.598 21 118.401 26.5364 121.778 32C126 38.8294 123.596 51.5 123.596 51.5C123.596 51.5 123.423 40.9022 118.597 34C112.3 24.9957 93.5994 16.5 93.5994 16.5C88.8278 16.011 81.3281 17.5 81.3281 17.5C81.3281 17.5 88.2241 23.2208 87.6909 28.5C87.2364 33 79.1323 39.2084 71.7836 45C69.5911 46.7279 67.1633 47.4915 64.9661 48.5C62.2378 49.7523 60.1875 52.044 57.6942 55C53.6699 59.771 52.5959 63.9939 51.138 69.7266C50.9127 70.6125 50.6782 71.5344 50.4223 72.5C49.009 77.8317 50.4223 86.5 50.4223 86.5C50.4223 86.5 47.2087 78.5636 47.6953 73.5C48.2441 67.789 51.3314 59.5 51.3314 59.5C51.3314 59.5 42.1658 68.4336 39.5145 75C38.8749 76.5841 38.7519 77.8665 38.6471 78.9593C38.511 80.3772 38.4057 81.4759 37.242 82.5C30.4245 88.4999 27.2431 99 28.1521 116.5C29.2153 136.967 44.0594 150 44.0594 150C44.0594 150 44.603 156.328 46.7864 160C49.4009 164.397 55.8763 169 55.8763 169C55.8763 169 49.0147 160.642 49.9678 154C50.3182 151.558 51.5109 150.013 52.7023 148.471C53.8858 146.938 55.068 145.407 55.4217 143C56.1503 138.041 53.6969 132.729 52.2105 129.511C51.8318 128.691 51.5159 128.008 51.3314 127.5C50.2427 124.505 50.7398 121.812 51.2305 119.152C51.7504 116.335 52.2631 113.557 50.8768 110.5C49.955 108.467 48.599 107.366 47.2448 106.266C45.8816 105.159 44.5201 104.053 43.6049 102C41.2552 96.7288 42.6959 87 42.6959 87C42.6959 87 42.9779 96.4592 44.9683 100.5C47.0014 104.627 52.6948 107 52.6948 107C52.6948 107 54.51 104.746 54.5128 103C54.5151 101.574 53.5667 100.943 52.5594 100.274C51.7111 99.7096 50.8212 99.1179 50.4223 98C49.5143 95.4553 50.4223 91 50.4223 91C50.4223 91 50.1932 94.5967 51.7858 97C53.8769 100.156 56.3879 102.755 60.4212 104C62.6494 104.688 65.5499 104.961 67.6931 104C69.0061 103.412 69.8008 102.597 70.5367 101.843C70.5861 101.793 70.6359 101.742 70.6849 101.692C70.7483 101.627 70.8114 101.563 70.8746 101.5C73.202 99.1728 77.2375 99 77.2375 99C77.2375 99 73.2527 101.252 71.3291 103.5C67.5894 107.87 66.698 118 66.698 118C66.5751 120.272 66.6509 122.561 67.2386 124.5C69.5111 132 83.1461 137.5 83.1461 137.5C83.1461 137.5 73.8056 129.491 72.238 122.5C71.5654 119.5 73.2253 110.838 77.2375 106C79.8058 102.903 83.6004 102 83.6004 102C83.6004 102 71.592 90.8822 70.4201 81C69.1236 70.0677 80.419 55 80.419 55C80.419 55 69.8084 71.9816 73.147 83C75.4196 90.5 84.0549 104.131 94.9628 104C99.1815 103.949 101.573 102.916 105.416 101C114.225 96.6088 118.615 90.8673 122.233 81C124.777 74.0592 124.505 62 124.505 62C124.505 62 126.676 72.9113 124.959 80.5C122.491 91.4083 109.095 104.5 109.095 104.5C110.343 105.719 113.73 108.794 116.779 109.5C120.651 110.397 126.718 109.785 132.231 108.838C132.231 108.838 159.033 99.0573 164.501 83C167.371 74.5708 165.864 60 165.864 60C165.864 60 168.864 74.5215 166.319 83.5C162.798 95.9151 144.957 106 144.957 106C144.957 106 146.781 107.502 148.139 108C150.866 109 170.864 104 170.864 104C170.864 104 172.318 108.459 172.682 112ZM33.606 106.5C33.606 106.5 35.121 119.86 39.5145 126.5C42.9251 131.654 50.8768 137 50.8768 137C50.8768 137 43.3338 129.853 39.9689 124C36.4433 117.867 33.606 106.5 33.606 106.5Z" fill="black"/>
<path d="M170.864 141.5C170.864 141.5 177.035 146.734 179.045 151.5C180.862 155.81 180.863 163.5 180.863 163.5C180.863 163.5 183.254 157.151 181.771 152.5C180.289 147.849 175.408 142 175.408 142C175.408 142 178.854 141.103 180.862 140C185.692 137.347 190.407 129 190.407 129C190.407 129 184.837 134.886 180.408 137C176.997 138.628 171.161 139.5 171.161 139.5C170.982 140.765 170.864 141.5 170.864 141.5Z" fill="#202020"/>
</g>
<defs>
<clipPath id="clip0_1046_626">
<rect width="230" height="475" fill="white"/>
</clipPath>
</defs>
</svg>
