<svg width="230" height="475" viewBox="0 0 230 475" fill="none" xmlns="http://www.w3.org/2000/svg">
<g clip-path="url(#clip0_1046_631)">
<path d="M178.985 332.783C179.615 326.861 187 297.176 187 297.176C187 297.176 178.369 258.692 163.389 240.765C153.661 229.123 135.526 215.815 135.526 215.815L135.203 215.55C125.259 217 116.743 217 114.8 217C112.908 217 106.247 216.912 97.7957 215.661L96.5149 216.899C96.5149 216.899 77.4561 226.718 67.0067 242.393C56.5573 258.067 43 297.176 43 297.176C43 297.176 54.5606 329.869 55.5613 334.142C56.3198 337.381 60.2014 342.051 64.2083 346.181C64.2083 346.181 60.3023 367.056 59.2069 380.619C56.7299 411.289 64.2083 459.268 64.2083 459.268C64.2083 459.268 70.4947 474.227 78.5099 474C86.4131 473.776 91.9975 458.901 91.9975 458.901L101 409L115.02 382.333L128.998 409.971L137.5 461.5C137.5 461.5 143.485 473.698 150.53 474C158.515 474.342 164.736 459.268 164.736 459.268C164.736 459.268 171.854 411.449 171.238 380.619C170.969 367.14 169.008 346.181 169.008 346.181C173.868 341.639 178.604 336.366 178.985 332.783Z" fill="#FFCEB4"/>
<path d="M55.1636 184.709C55.1636 194.455 58.1258 199.7 64.0363 203.764C74.3042 210.823 87.4035 214.122 97.7957 215.661C106.247 216.912 112.908 217 114.8 217C116.743 217 125.259 217 135.203 215.55C146.847 213.852 160.449 210.166 167.745 202.164C171.803 197.713 174.219 194.219 174.436 188.2C174.336 187.064 174.364 185.851 174.497 184.564C175.41 175.792 181.262 163.601 185.202 149.218C190.159 131.122 192.088 109.556 177.345 86.9637C166.145 69.8001 144.764 57 114.8 57C92.5455 57 64.3273 70.3819 53.7091 88.1273C35.9665 117.779 41.6452 133.678 47.9592 151.255L47.981 151.315C51.4789 161.052 55.1636 171.31 55.1636 184.709Z" fill="#FFCEB4"/>
<path d="M47.9592 151.255C47.9592 151.255 43.2364 144.564 35.6727 144.564C26.0727 144.564 22 152.568 22 160.564C22 169 26.7203 176.581 35.6727 181.655C42.3756 185.454 55.1636 184.709 55.1636 184.709C55.1636 171.31 51.4789 161.052 47.981 151.315L47.9592 151.255Z" fill="#FFCEB4"/>
<path d="M198.436 145C193.113 144.03 185.202 149.218 185.202 149.218C181.262 163.601 175.41 175.792 174.497 184.564C174.497 184.564 187.066 185.421 193.782 182.382C203.471 177.997 206.727 170.309 207.891 161.146C208.862 153.5 206.019 146.382 198.436 145Z" fill="#FFCEB4"/>
<path d="M55.1636 184.709C55.1636 194.455 58.1258 199.7 64.0363 203.764C74.3042 210.823 87.4035 214.122 97.7957 215.661M55.1636 184.709C55.1636 184.709 42.3756 185.454 35.6727 181.655C26.7203 176.581 22 169 22 160.564C22 152.568 26.0727 144.564 35.6727 144.564C43.2364 144.564 47.9592 151.255 47.9592 151.255M55.1636 184.709C55.1636 171.31 51.4789 161.052 47.981 151.315M185.202 149.218C190.159 131.122 192.088 109.556 177.345 86.9637C166.145 69.8001 144.764 57 114.8 57C92.5455 57 64.3273 70.3819 53.7091 88.1273C35.9665 117.779 41.6452 133.678 47.9592 151.255M185.202 149.218C185.202 149.218 193.113 144.03 198.436 145C206.019 146.382 208.862 153.5 207.891 161.146C206.727 170.309 203.471 177.997 193.782 182.382C187.066 185.421 174.497 184.564 174.497 184.564M185.202 149.218C181.262 163.601 175.41 175.792 174.497 184.564M174.497 184.564C174.364 185.851 174.336 187.064 174.436 188.2C174.219 194.219 171.803 197.713 167.745 202.164C160.449 210.166 146.847 213.852 135.203 215.55M47.9592 151.255L47.981 151.315M47.9592 151.255C47.9665 151.275 47.9737 151.295 47.981 151.315M97.7957 215.661L96.5149 216.899C96.5149 216.899 77.4561 226.718 67.0067 242.393C56.5573 258.067 43 297.176 43 297.176C43 297.176 54.5606 329.869 55.5613 334.142C56.3198 337.381 60.2014 342.051 64.2083 346.181C64.2083 346.181 60.3023 367.056 59.2069 380.619C56.73 411.289 64.2083 459.268 64.2083 459.268C64.2083 459.268 70.4947 474.227 78.5099 474C86.4131 473.776 91.9975 458.901 91.9975 458.901L101 409L115.02 382.333L128.998 409.971L137.5 461.5C137.5 461.5 143.485 473.698 150.53 474C158.515 474.342 164.736 459.268 164.736 459.268C164.736 459.268 171.854 411.449 171.238 380.619C170.969 367.14 169.008 346.181 169.008 346.181C173.868 341.639 178.604 336.366 178.985 332.783C179.615 326.861 187 297.176 187 297.176C187 297.176 178.369 258.692 163.389 240.765C153.661 229.123 135.526 215.815 135.526 215.815L135.203 215.55M97.7957 215.661C106.247 216.912 112.908 217 114.8 217C116.743 217 125.259 217 135.203 215.55" stroke="black" stroke-width="2" stroke-linejoin="round"/>
<path d="M78 155C78 151.686 80.6863 149 84 149C87.3137 149 90 151.686 90 155V168C90 171.314 87.3137 174 84 174C80.6863 174 78 171.314 78 168V155Z" fill="black"/>
<path d="M138 155C138 151.686 140.686 149 144 149C147.314 149 150 151.686 150 155V168C150 171.314 147.314 174 144 174C140.686 174 138 171.314 138 168V155Z" fill="black"/>
<path d="M74 193.5C74 196.538 67.0604 199 58.5 199C49.9396 199 43 196.538 43 193.5C43 190.462 49.9396 188 58.5 188C67.0604 188 74 190.462 74 193.5Z" fill="#F9A9E7"/>
<path d="M187 193.5C187 196.538 180.06 199 171.5 199C162.94 199 156 196.538 156 193.5C156 190.462 162.94 188 171.5 188C180.06 188 187 190.462 187 193.5Z" fill="#F9A9E7"/>
<path d="M105.147 197.763C105.312 196.942 106.307 196.525 107.064 196.881C108.569 197.588 111.114 198.469 114.5 198.5C118.11 198.533 121.06 197.581 122.798 196.842C123.562 196.518 124.5 197.072 124.5 197.903C124.5 198.274 124.308 198.616 123.977 198.784C122.692 199.439 119.142 201 114.5 201C110.08 201 106.933 199.584 105.646 198.884C105.245 198.666 105.058 198.21 105.147 197.763Z" fill="black"/>
<path d="M118.617 147.772C124.405 151.137 139.544 149.695 145.778 144.888C149.386 142.106 151.122 137.677 151.122 137.677L153.348 125.66C153.348 125.66 149.84 130.437 146.669 131.909C139.544 135.216 131.111 132.352 127.967 124.698C127.039 122.437 127.319 119.793 127.6 117.156C127.894 114.385 128.188 111.621 127.077 109.316C125.247 105.518 120.398 104.989 120.398 104.989C120.398 104.989 124.433 106.518 125.296 113.161C125.398 113.946 125.367 115.089 125.33 116.444C125.236 119.917 125.104 124.781 127.077 128.544C131.113 136.243 145.778 135.274 145.778 135.274C145.778 135.274 145.202 142.138 136.873 144.888C134.13 145.793 118.617 147.772 118.617 147.772Z" fill="#202020"/>
<path d="M201.883 71.8211C201.883 71.8211 195.049 72.1503 191.197 70.8597C183.694 68.346 176.723 61.2509 170.318 54.7315C168.158 52.534 166.064 50.4019 164.034 48.5327C161.723 46.4031 159.496 44.6147 157.356 43.4597C144.888 36.7298 124.405 38.6526 124.405 38.6526C124.405 38.6526 124.329 35.9193 124.851 34.3263C125.767 31.5278 130.194 30 130.194 30C130.194 30 120.13 30.4659 114.609 33.8456C110.331 36.4649 105.259 42.4982 105.259 42.4982C105.259 42.4982 99.8723 37.148 95.4627 36.2491C92.007 35.5447 87.0025 36.7298 87.0025 36.7298C87.0025 36.7298 92.9523 36.5364 95.908 38.6526C97.8576 40.0486 99.9154 43.4597 99.9154 43.4597C99.9154 43.4597 81.862 44.3469 69.9052 48.1723C72.7376 47.8038 83.3783 46.4754 90.5643 46.3439C96.3019 46.2388 105.258 47.3053 105.258 47.3053C105.258 47.3053 110.312 39.5403 115.054 36.7298C117.802 35.1013 122.624 33.8456 122.624 33.8456L116.39 47.786C116.39 47.786 124.851 42.4982 139.099 42.0175C149.977 41.6506 156.416 47.4312 164.026 54.2632C166.384 56.38 168.854 58.5978 171.604 60.7649C173.836 62.524 175.544 64.4856 177.173 66.3576C179.981 69.5837 182.558 72.544 187.189 73.7439C193.167 75.293 201.883 71.8211 201.883 71.8211Z" fill="#202020"/>
<path d="M74.9798 59.8035C74.9798 59.8035 83.066 56.1496 88.338 56.9193C94.5152 57.8212 102.141 65.5719 102.141 65.5719C102.141 65.5719 105.275 60.2675 108.375 58.3614C111.903 56.1927 118.617 56.4386 118.617 56.4386C118.617 56.4386 112.393 53.5989 108.375 55.4772C105.442 56.8486 101.696 61.2456 101.696 61.2456C101.696 61.2456 95.0132 55.1429 89.6738 54.5158C83.6036 53.8028 74.9798 59.8035 74.9798 59.8035Z" fill="#202020"/>
<path d="M58.505 152.098L59.3955 154.021C59.3955 154.021 63.647 151.748 66.0743 150.175C68.3007 148.733 70.862 146.483 71.8629 144.777C75.3363 138.855 77.6514 127.952 77.6514 127.952C77.6514 127.952 79.9095 130.138 81.6592 130.947C87.8927 133.832 105.258 130.467 105.258 130.467C105.258 130.467 89.776 131.743 82.9947 127.102C77.4119 123.281 75.5112 119.864 74.9798 113.642C74.2842 105.498 85.2211 95.8561 85.2211 95.8561C85.2211 95.8561 71.9722 106.029 71.8629 115.565C71.8048 120.63 75.425 127.952 75.425 127.952C75.425 127.952 71.9772 138.817 67.8554 143.446C65.1797 146.451 60.2857 149.695 60.2857 149.695C60.2857 149.695 61.887 139.114 61.1763 132.389C60.7664 128.511 59.3733 125.656 58.0077 122.856C56.4658 119.696 54.9591 116.607 54.9425 112.2C54.9184 105.826 58.505 96.3368 58.505 96.3368C58.505 96.3368 53.8979 106.61 53.1614 113.642C52.6226 118.786 54.2918 122.476 55.9752 126.199C57.5205 129.616 59.0779 133.059 58.9499 137.677C58.537 152.579 50.49 156.905 50.49 156.905C50.49 156.905 53.3774 156.402 54.9425 155.463C56.5075 154.525 58.505 152.098 58.505 152.098Z" fill="#202020"/>
<path d="M26.4449 132.87C26.6769 138.124 31.7885 145.849 31.7885 145.849C31.7885 145.849 35.6232 144.867 38.9126 145.368C40.4424 145.602 42.2694 146.061 43.3653 146.811C41.5291 144.79 40.054 141.357 39.3579 138.158C38.483 134.137 39.3579 125.66 39.3579 125.66C39.3579 125.66 35.9659 131.428 36.6862 134.312C37.2535 136.583 38.9126 143.446 38.9126 143.446C38.9126 143.446 30.7502 139.472 29.5619 134.312C28.7748 130.895 30.7312 128.629 32.8054 126.227C34.4908 124.275 36.2539 122.234 36.6862 119.411C37.2054 116.021 35.3336 113.296 33.2 110.191C32.1093 108.603 30.9502 106.916 30.0071 104.989C28.0988 101.091 26.3521 94.414 26.3521 94.414C26.123 95.5926 26 96.7199 26 97.7789C25.9999 111.452 29.1077 114.257 30.9267 115.899C32.0494 116.912 32.6812 117.482 31.7885 119.891C31.1056 121.734 30.139 123.577 29.2151 125.339C27.7291 128.172 26.3534 130.795 26.4449 132.87Z" fill="#202020"/>
<path fill-rule="evenodd" clip-rule="evenodd" d="M173.8 144.918C171.388 145.57 168.032 146.237 165.37 145.849C159.277 144.962 151.122 137.677 151.122 137.677L153.348 125.66C153.348 125.66 149.84 130.437 146.669 131.909C139.544 135.216 131.111 132.352 127.967 124.698C127.039 122.437 127.319 119.793 127.6 117.156C127.894 114.385 128.188 111.621 127.077 109.316C125.247 105.518 120.398 104.989 120.398 104.989C120.398 104.989 124.433 106.518 125.296 113.161C125.398 113.946 125.367 115.089 125.33 116.444C125.236 119.917 125.104 124.781 127.077 128.544C131.113 136.243 145.778 135.274 145.778 135.274C145.778 135.274 145.202 142.138 136.873 144.888C134.13 145.793 118.617 147.772 118.617 147.772C112.304 144.102 105.258 130.467 105.258 130.467C105.258 130.467 89.776 131.743 82.9947 127.102C77.4119 123.281 75.5112 119.864 74.9798 113.642C74.2842 105.498 85.2211 95.8561 85.2211 95.8561C85.2211 95.8561 71.9722 106.029 71.8629 115.565C71.8048 120.63 75.425 127.952 75.425 127.952C75.425 127.952 71.9772 138.817 67.8554 143.446C65.1797 146.451 60.2857 149.695 60.2857 149.695C60.2857 149.695 61.887 139.114 61.1763 132.389C60.7664 128.511 59.3733 125.656 58.0077 122.856C56.4658 119.696 54.9591 116.607 54.9425 112.2C54.9184 105.826 58.505 96.3368 58.505 96.3368C58.505 96.3368 53.8979 106.61 53.1614 113.642C52.6226 118.786 54.2918 122.476 55.9752 126.199C57.5205 129.616 59.0779 133.059 58.9499 137.677C58.537 152.579 50.49 156.905 50.49 156.905C50.49 156.905 49.8372 153.677 48.2634 151.137C47.7702 150.341 47.4413 149.877 46.9275 149.214C46.9275 149.214 44.9567 147.772 43.3653 146.811C41.5291 144.79 40.054 141.357 39.3579 138.158C38.483 134.137 39.3579 125.66 39.3579 125.66C39.3579 125.66 35.9659 131.428 36.6862 134.312C37.2535 136.583 38.9126 143.446 38.9126 143.446C38.9126 143.446 30.7502 139.472 29.5619 134.312C28.7748 130.895 30.7312 128.629 32.8054 126.227C34.4908 124.275 36.2539 122.234 36.6862 119.411C37.2054 116.021 35.3336 113.296 33.2 110.191C32.1093 108.603 30.9502 106.916 30.0071 104.989C28.0988 101.091 26.3521 94.414 26.3521 94.414C27.891 86.4987 34.2191 76.2751 40.2488 68.9368C48.6344 58.7313 54.4551 54.2978 66.9652 49.2281C67.8896 48.8534 68.8747 48.502 69.9052 48.1723C72.7376 47.8038 83.3783 46.4754 90.5643 46.3439C96.3019 46.2388 105.258 47.3053 105.258 47.3053C105.258 47.3053 110.312 39.5403 115.054 36.7298C117.802 35.1013 122.624 33.8456 122.624 33.8456L116.39 47.786C116.39 47.786 124.851 42.4982 139.099 42.0175C149.977 41.6506 156.416 47.4312 164.026 54.2632C166.384 56.38 168.854 58.5978 171.604 60.7649C173.836 62.524 175.544 64.4856 177.173 66.3576C179.981 69.5837 182.558 72.544 187.189 73.7439C193.167 75.293 201.883 71.8211 201.883 71.8211C201.883 71.8211 199.43 76.6622 197.43 78.0702C195.431 79.4781 192.087 80.4737 192.087 80.4737C192.087 80.4737 201.438 85.7614 202.774 97.2983C203.546 103.973 201.254 110.525 199.514 115.498C198.778 117.602 198.14 119.424 197.876 120.853C197.303 123.946 199.896 126.069 202.113 127.885C203.647 129.14 205 130.249 205 131.428C205 134.35 201.111 137.83 197.432 141.122C197.283 141.256 197.134 141.39 196.985 141.523C195.302 143.031 193.778 143.99 192.273 144.936C190.617 145.978 188.984 147.005 187.189 148.733C182.367 153.377 179.174 167 179.174 167C179.174 167 180.624 157.748 180.064 152.098C179.66 148.022 178.283 142.484 178.283 142.484C178.283 142.484 179.378 142.608 180.064 142.484C182.49 142.048 184.517 137.677 184.517 137.677C184.517 137.677 182.722 139.203 181.4 139.119C180.236 139.045 178.729 137.677 178.729 137.677C178.729 137.677 180.33 119.998 176.057 110.277C170.986 98.7422 153.348 88.6456 153.348 88.6456C153.348 88.6456 168.623 100.749 172.94 112.2C177.399 124.029 173.831 144.888 173.831 144.888L173.8 144.918ZM74.9798 59.8035C74.9798 59.8035 83.066 56.1496 88.338 56.9193C94.5152 57.8212 102.141 65.5719 102.141 65.5719C102.141 65.5719 105.275 60.2675 108.375 58.3614C111.903 56.1927 118.617 56.4386 118.617 56.4386C118.617 56.4386 112.393 53.5989 108.375 55.4772C105.442 56.8486 101.696 61.2456 101.696 61.2456C101.696 61.2456 95.0132 55.1429 89.6738 54.5158C83.6036 53.8028 74.9798 59.8035 74.9798 59.8035Z" fill="black"/>
<path d="M176.948 143.926L179.174 167C179.174 167 180.624 157.748 180.064 152.098C179.66 148.022 178.283 142.484 178.283 142.484C178.283 142.484 179.378 142.608 180.064 142.484C182.49 142.048 184.517 137.677 184.517 137.677C184.517 137.677 182.722 139.203 181.4 139.119C180.236 139.045 178.729 137.677 178.729 137.677C178.729 137.677 180.33 119.998 176.057 110.277C170.986 98.7422 153.348 88.6456 153.348 88.6456C153.348 88.6456 168.623 100.749 172.94 112.2C177.399 124.029 173.831 144.888 173.831 144.888L173.8 144.918C175.652 144.418 176.948 143.926 176.948 143.926Z" fill="#292929"/>
</g>
<defs>
<clipPath id="clip0_1046_631">
<rect width="230" height="475" fill="white"/>
</clipPath>
</defs>
</svg>
