<svg width="230" height="475" viewBox="0 0 230 475" fill="none" xmlns="http://www.w3.org/2000/svg">
<g clip-path="url(#clip0_1046_636)">
<path d="M178.985 332.783C179.615 326.861 187 297.176 187 297.176C187 297.176 178.369 258.692 163.389 240.765C153.661 229.123 135.526 215.815 135.526 215.815L135.203 215.55C125.259 217 116.743 217 114.8 217C112.908 217 106.247 216.912 97.7957 215.661L96.5149 216.899C96.5149 216.899 77.4561 226.718 67.0067 242.393C56.5573 258.067 43 297.176 43 297.176C43 297.176 54.5606 329.869 55.5613 334.142C56.3198 337.381 60.2014 342.051 64.2083 346.181C64.2083 346.181 60.3023 367.056 59.2069 380.619C56.7299 411.289 64.2083 459.268 64.2083 459.268C64.2083 459.268 70.4947 474.227 78.5099 474C86.4131 473.776 91.9975 458.901 91.9975 458.901L101 409L115.02 382.333L128.998 409.971L137.5 461.5C137.5 461.5 143.485 473.698 150.53 474C158.515 474.342 164.736 459.268 164.736 459.268C164.736 459.268 171.854 411.449 171.238 380.619C170.969 367.14 169.008 346.181 169.008 346.181C173.868 341.639 178.604 336.366 178.985 332.783Z" fill="#FFCEB4"/>
<path d="M55.1636 184.709C55.1636 194.455 58.1258 199.7 64.0363 203.764C74.3042 210.823 87.4035 214.122 97.7957 215.661C106.247 216.912 112.908 217 114.8 217C116.743 217 125.259 217 135.203 215.55C146.847 213.852 160.449 210.166 167.745 202.164C171.803 197.713 174.219 194.219 174.436 188.2C174.336 187.064 174.364 185.851 174.497 184.564C175.41 175.792 181.262 163.601 185.202 149.218C190.159 131.122 192.088 109.556 177.345 86.9637C166.145 69.8001 144.764 57 114.8 57C92.5455 57 64.3273 70.3819 53.7091 88.1273C35.9665 117.779 41.6452 133.678 47.9592 151.255L47.981 151.315C51.4789 161.052 55.1636 171.31 55.1636 184.709Z" fill="#FFCEB4"/>
<path d="M47.9592 151.255C47.9592 151.255 43.2364 144.564 35.6727 144.564C26.0727 144.564 22 152.568 22 160.564C22 169 26.7203 176.581 35.6727 181.655C42.3756 185.454 55.1636 184.709 55.1636 184.709C55.1636 171.31 51.4789 161.052 47.981 151.315L47.9592 151.255Z" fill="#FFCEB4"/>
<path d="M198.436 145C193.113 144.03 185.202 149.218 185.202 149.218C181.262 163.601 175.41 175.792 174.497 184.564C174.497 184.564 187.066 185.421 193.782 182.382C203.471 177.997 206.727 170.309 207.891 161.146C208.862 153.5 206.019 146.382 198.436 145Z" fill="#FFCEB4"/>
<path d="M55.1636 184.709C55.1636 194.455 58.1258 199.7 64.0363 203.764C74.3042 210.823 87.4035 214.122 97.7957 215.661M55.1636 184.709C55.1636 184.709 42.3756 185.454 35.6727 181.655C26.7203 176.581 22 169 22 160.564C22 152.568 26.0727 144.564 35.6727 144.564C43.2364 144.564 47.9592 151.255 47.9592 151.255M55.1636 184.709C55.1636 171.31 51.4789 161.052 47.981 151.315M185.202 149.218C190.159 131.122 192.088 109.556 177.345 86.9637C166.145 69.8001 144.764 57 114.8 57C92.5455 57 64.3273 70.3819 53.7091 88.1273C35.9665 117.779 41.6452 133.678 47.9592 151.255M185.202 149.218C185.202 149.218 193.113 144.03 198.436 145C206.019 146.382 208.862 153.5 207.891 161.146C206.727 170.309 203.471 177.997 193.782 182.382C187.066 185.421 174.497 184.564 174.497 184.564M185.202 149.218C181.262 163.601 175.41 175.792 174.497 184.564M174.497 184.564C174.364 185.851 174.336 187.064 174.436 188.2C174.219 194.219 171.803 197.713 167.745 202.164C160.449 210.166 146.847 213.852 135.203 215.55M47.9592 151.255L47.981 151.315M47.9592 151.255C47.9665 151.275 47.9737 151.295 47.981 151.315M97.7957 215.661L96.5149 216.899C96.5149 216.899 77.4561 226.718 67.0067 242.393C56.5573 258.067 43 297.176 43 297.176C43 297.176 54.5606 329.869 55.5613 334.142C56.3198 337.381 60.2014 342.051 64.2083 346.181C64.2083 346.181 60.3023 367.056 59.2069 380.619C56.73 411.289 64.2083 459.268 64.2083 459.268C64.2083 459.268 70.4947 474.227 78.5099 474C86.4131 473.776 91.9975 458.901 91.9975 458.901L101 409L115.02 382.333L128.998 409.971L137.5 461.5C137.5 461.5 143.485 473.698 150.53 474C158.515 474.342 164.736 459.268 164.736 459.268C164.736 459.268 171.854 411.449 171.238 380.619C170.969 367.14 169.008 346.181 169.008 346.181C173.868 341.639 178.604 336.366 178.985 332.783C179.615 326.861 187 297.176 187 297.176C187 297.176 178.369 258.692 163.389 240.765C153.661 229.123 135.526 215.815 135.526 215.815L135.203 215.55M97.7957 215.661C106.247 216.912 112.908 217 114.8 217C116.743 217 125.259 217 135.203 215.55" stroke="black" stroke-width="2" stroke-linejoin="round"/>
<path d="M78 155C78 151.686 80.6863 149 84 149C87.3137 149 90 151.686 90 155V168C90 171.314 87.3137 174 84 174C80.6863 174 78 171.314 78 168V155Z" fill="black"/>
<path d="M138 155C138 151.686 140.686 149 144 149C147.314 149 150 151.686 150 155V168C150 171.314 147.314 174 144 174C140.686 174 138 171.314 138 168V155Z" fill="black"/>
<path d="M74 193.5C74 196.538 67.0604 199 58.5 199C49.9396 199 43 196.538 43 193.5C43 190.462 49.9396 188 58.5 188C67.0604 188 74 190.462 74 193.5Z" fill="#F9A9E7"/>
<path d="M187 193.5C187 196.538 180.06 199 171.5 199C162.94 199 156 196.538 156 193.5C156 190.462 162.94 188 171.5 188C180.06 188 187 190.462 187 193.5Z" fill="#F9A9E7"/>
<path d="M105.147 197.763C105.312 196.942 106.307 196.525 107.064 196.881C108.569 197.588 111.114 198.469 114.5 198.5C118.11 198.533 121.06 197.581 122.798 196.842C123.562 196.518 124.5 197.072 124.5 197.903C124.5 198.274 124.308 198.616 123.977 198.784C122.692 199.439 119.142 201 114.5 201C110.08 201 106.933 199.584 105.646 198.884C105.245 198.666 105.058 198.21 105.147 197.763Z" fill="black"/>
<path d="M158.619 101.375C158.619 101.375 156.816 115.17 161.304 121.359C165.54 127.201 176.517 128.021 176.517 128.021C176.517 128.021 166.872 124.684 163.094 119.31C159.105 113.636 158.619 101.375 158.619 101.375Z" fill="#292929"/>
<path d="M48.99 87.0265C48.99 87.0265 47.1621 87.2521 46.3052 88.0514C43.9081 90.2871 49.1543 93.2092 52.1222 94.2005C57.0131 95.8341 62.0732 92.1742 63.3089 86.5141C63.3853 86.1637 63.2429 85.2467 63.0385 83.9308C62.0471 77.5483 59.5981 61.7816 73.6006 55.7684C87.9194 49.6193 102.238 61.4051 102.238 61.4051C102.238 61.4051 84.3397 52.6938 74.4955 58.3305C64.75 63.9107 64.6964 73.5538 64.6514 81.6693C64.6117 88.816 64.5786 94.778 57.9393 95.7378C57.6248 95.7833 57.3089 95.8313 56.9923 95.8801L56.5601 95.947C51.879 96.6734 47.1405 97.4087 44.9628 92.6632C43.7407 90.0001 44.3845 88.0514 44.9628 87.539C46.508 86.1698 48.99 87.0265 48.99 87.0265Z" fill="#292929"/>
<path fill-rule="evenodd" clip-rule="evenodd" d="M52.3696 133.145C54.3701 134.899 57.4924 135.707 57.4924 135.707C57.4924 135.707 59.0967 141.951 57.0444 144.418C55.9664 145.715 53.4646 146.468 53.4646 146.468C53.4646 146.468 36.5108 143.542 35.1186 134.17C33.9071 126.014 37.7501 115.771 44.9628 116.235C48.5554 116.466 51.8191 117.474 53.0172 121.359C53.6565 123.433 51.8893 125.216 50.2691 126.851C48.592 128.543 47.0724 130.076 48.5425 131.608C49.7141 132.828 52.3696 133.145 52.3696 133.145ZM22.1427 93.6883C22.1427 93.6883 21.2551 95.252 19.9067 97.3716C21.2689 95.1078 22.1427 93.6883 22.1427 93.6883Z" fill="black"/>
<path d="M162.199 149.543C177.413 153.642 186.81 144.419 186.81 144.419C186.81 144.419 195.871 132.982 193.521 125.459C191.855 120.122 188.812 113.905 184.124 115.723C180.911 116.969 177.662 120.459 179.202 123.921C179.622 124.865 180.431 125.138 181.229 125.407C182.061 125.688 182.881 125.965 183.229 126.996C184.05 129.422 180.992 133.145 180.992 133.145C180.992 133.145 186.303 129.623 185.467 126.484C185.209 125.516 184.356 125.137 183.546 124.778C182.653 124.382 181.814 124.009 181.887 122.897C182.019 120.901 183.772 119.337 185.467 119.822C187.257 120.334 189.447 123.946 190.389 127.508C192.729 136.363 184.514 141.547 177.412 145.956C172.08 149.267 162.199 149.543 162.199 149.543Z" fill="#292929"/>
<path d="M10.9555 159.792C9.77088 161.793 6.03335 161.841 6.03335 161.841C6.03335 161.841 9.2667 162.592 11.8504 161.329C15.5514 159.519 17.0229 157.185 17.2118 151.825L17.22 151.593C17.4418 145.324 13.6271 144.006 10.0605 139.807C7.75587 137.093 6.03335 132.12 4.24349 128.021C1.11763 120.861 14.8766 105.731 19.9067 97.3716C17.803 100.678 14.5776 105.338 11.8507 107.524C11.3748 107.905 10.8938 108.282 10.4121 108.66C6.36471 111.832 2.26498 115.045 0.664001 121.359C-1.89294 131.445 3.44883 138.225 7.94332 143.93C10.528 147.211 12.8325 150.136 13.1934 153.13C13.4841 155.542 12.3738 157.408 11.1795 159.414C11.105 159.54 11.0302 159.665 10.9555 159.792Z" fill="#292929"/>
<path fill-rule="evenodd" clip-rule="evenodd" d="M186.81 144.419L183.229 151.592C183.229 151.592 193.6 142.728 200.233 145.443C203.394 146.738 206.051 148.518 206.051 148.518C206.051 148.518 215 140.146 215 133.145C215 123.409 206.946 119.822 206.946 119.822C206.946 119.822 217.685 98.8123 210.973 80.8773C203.302 60.3802 180.993 53.2062 180.993 53.2062C180.993 53.2062 181.774 44.6103 179.65 40.908C173.53 30.239 149.223 35.7837 149.223 35.7837C149.223 35.7837 146.538 18.8735 131.324 18.8735C126.962 18.8735 125.737 22.0292 124.614 24.9228C123.662 27.3726 122.784 29.6345 120.137 29.6348C119.662 29.6348 118.631 28.8893 117.071 27.7604C110.868 23.274 96.2928 12.7323 74.9436 18.8736C55.3357 24.514 52.2756 33.7468 48.8232 44.1636C48.7302 44.4441 48.637 44.7255 48.5431 45.0077C47.7766 47.312 44.6313 47.9612 40.621 48.7889C33.9294 50.1701 24.8294 52.0484 20.3528 62.9424C13.1934 80.3652 22.1427 93.6883 22.1427 93.6883C22.1427 93.6883 21.2551 95.252 19.9067 97.3716C14.8766 105.731 1.11763 120.861 4.24349 128.021C6.03335 132.12 7.75587 137.093 10.0605 139.807C13.6271 144.006 17.4418 145.324 17.22 151.593L17.2118 151.825C17.0229 157.185 15.5514 159.519 11.8504 161.329C9.2667 162.592 6.03335 161.841 6.03335 161.841C6.03335 161.841 10.6155 167.726 14.5358 167.99C17.6806 168.202 21.6946 164.916 21.6946 164.916C21.6946 164.916 21.4475 157.574 23.4845 153.13C25.5647 148.592 27.6767 145.802 31.9863 144.418C34.1453 143.726 35.9848 143.874 37.8034 144.418C37.8034 144.418 32.0948 135.602 32.4338 129.558C32.917 120.943 38.3819 112.563 45.8577 113.673C50.7837 114.404 56.0466 117.222 55.702 122.897C55.5936 124.681 54.3104 125.681 53.0749 126.644C51.7389 127.686 50.4586 128.684 50.7798 130.583C50.9508 131.594 51.5708 132.445 52.3696 133.145C54.3701 134.899 57.4924 135.707 57.4924 135.707L57.9393 133.145L61.0715 134.17V136.732C61.0715 136.732 64.9929 137.05 67.336 136.22C70.9088 134.954 74.9429 129.558 74.9429 129.558C74.9429 129.558 74.889 121.684 77.1803 117.772C79.3417 114.082 81.3722 110.689 85.2346 111.111C88.8039 111.501 92.6667 114.262 91.9466 118.285C91.524 120.645 88.4917 120.491 88.3669 122.897C88.1993 126.127 91.6474 126.534 94.6053 126.883C94.9195 126.92 95.2281 126.957 95.5263 126.996C101.815 127.821 104.66 121.359 107.527 114.844L107.527 114.843C107.85 114.108 108.174 113.373 108.503 112.648C111.219 106.656 111.635 95.7378 111.635 95.7378C111.635 95.7378 112.073 109.082 108.95 116.235C105.827 123.388 102.023 131.424 95.0789 130.583L94.9877 130.572C90.6501 130.047 85.3959 129.41 85.2346 124.434C85.1887 123.015 86.0658 122.08 86.9147 121.175C87.8326 120.197 88.7175 119.254 88.3669 117.772C87.9455 115.991 87.0605 115.14 85.6821 114.185C81.3361 111.174 78.0549 119.728 77.1803 125.459C76.1166 132.428 79.423 137.834 84.7872 141.344C87.9194 143.394 99.3098 147.389 107.16 143.394C115.215 139.294 131.965 120.603 136.693 101.375C138.456 94.2058 138.483 82.4147 138.483 82.4147C138.483 82.4147 139.036 95.7319 139.825 103.937C140.557 111.541 142.377 122.897 142.377 122.897C145.951 133.763 152.23 146.857 162.199 149.543C162.199 149.543 172.08 149.267 177.412 145.956C184.514 141.547 192.729 136.363 190.389 127.508C189.447 123.946 187.257 120.334 185.467 119.822C183.772 119.337 182.019 120.901 181.887 122.897C181.814 124.009 182.653 124.382 183.546 124.778C184.356 125.137 185.209 125.516 185.467 126.484C186.303 129.623 180.992 133.145 180.992 133.145C180.992 133.145 184.05 129.422 183.229 126.996C182.881 125.965 182.061 125.688 181.229 125.407C180.431 125.138 179.622 124.865 179.202 123.921C177.662 120.459 180.911 116.969 184.124 115.723C188.812 113.905 191.855 120.122 193.521 125.459C195.871 132.982 186.81 144.419 186.81 144.419ZM161.304 121.359C156.816 115.17 158.619 101.375 158.619 101.375C158.619 101.375 159.105 113.636 163.094 119.31C166.872 124.684 176.517 128.021 176.517 128.021C176.517 128.021 165.54 127.201 161.304 121.359ZM172.938 90.1011C170.773 85.9105 171.148 77.8028 171.148 77.8028C171.148 77.8028 172.477 85.9586 175.623 89.5887C178.538 92.9541 183.161 92.4202 187.557 91.9125C192.617 91.328 197.378 90.7782 198.891 96.2502C200.631 102.543 195.311 112.648 195.311 112.648C195.311 112.648 199.311 101.029 196.206 95.2254C194.856 92.7033 190.947 93.1367 186.64 93.6141C181.322 94.2037 175.396 94.8606 172.938 90.1011ZM163.988 73.191C164.968 76.1157 166.673 78.3152 166.673 78.3152C166.673 78.3152 164.39 77.958 162.646 75.7531C160.434 72.9564 161.127 68.5464 161.802 64.2457C162.713 58.4463 163.593 52.8459 157.276 51.669C147.432 49.8348 137.588 62.43 137.588 62.43C137.588 62.43 132.807 54.1948 127.296 53.7187C120.082 53.0954 112.53 66.5294 112.53 66.5294C112.53 66.5294 118.616 50.1446 126.401 50.1317C131.562 50.1231 138.036 57.3057 138.036 57.3057C138.036 57.3057 155.467 43.5383 162.199 50.6441C165.116 53.723 164.516 58.4742 163.914 63.2476C163.469 66.7711 163.023 70.3068 163.988 73.191ZM46.3052 88.0514C47.1621 87.2521 48.99 87.0265 48.99 87.0265C48.99 87.0265 46.508 86.1698 44.9628 87.539C44.3845 88.0514 43.7407 90.0001 44.9628 92.6632C47.1405 97.4087 51.879 96.6734 56.5601 95.947L56.9923 95.8801C57.3089 95.8313 57.6248 95.7833 57.9393 95.7378C64.5786 94.778 64.6117 88.816 64.6514 81.6693C64.6964 73.5538 64.75 63.9107 74.4955 58.3305C84.3397 52.6938 102.238 61.4051 102.238 61.4051C102.238 61.4051 87.9194 49.6193 73.6006 55.7684C59.5981 61.7816 62.0471 77.5483 63.0385 83.9308C63.2429 85.2467 63.3853 86.1637 63.3089 86.5141C62.0732 92.1742 57.0131 95.8341 52.1222 94.2005C49.1543 93.2092 43.9081 90.2871 46.3052 88.0514Z" fill="black"/>
<path d="M166.673 78.3152C166.673 78.3152 164.968 76.1157 163.988 73.191C163.023 70.3068 163.469 66.7711 163.914 63.2476C164.516 58.4742 165.116 53.723 162.199 50.6441C155.467 43.5383 138.036 57.3057 138.036 57.3057C138.036 57.3057 131.562 50.1231 126.401 50.1317C118.616 50.1446 112.53 66.5294 112.53 66.5294C112.53 66.5294 120.082 53.0954 127.296 53.7187C132.807 54.1948 137.588 62.43 137.588 62.43C137.588 62.43 147.432 49.8348 157.276 51.669C163.593 52.8459 162.713 58.4463 161.802 64.2457C161.127 68.5464 160.434 72.9564 162.646 75.7531C164.39 77.958 166.673 78.3152 166.673 78.3152Z" fill="#292929"/>
<path d="M171.148 77.8028C171.148 77.8028 170.773 85.9105 172.938 90.1011C175.396 94.8606 181.322 94.2037 186.64 93.6141C190.947 93.1367 194.856 92.7033 196.206 95.2254C199.311 101.029 195.311 112.648 195.311 112.648C195.311 112.648 200.631 102.543 198.891 96.2502C197.378 90.7782 192.617 91.328 187.557 91.9125C183.161 92.4202 178.538 92.9541 175.623 89.5887C172.477 85.9586 171.148 77.8028 171.148 77.8028Z" fill="#292929"/>
<path d="M41.8305 145.956C44.7747 147.758 48.0956 152.105 48.0956 152.105L49.438 151.08C49.438 151.08 56.4555 152.172 57.4924 151.08C58.5294 149.988 57.9393 148.006 57.9393 148.006C57.9393 148.006 63.118 150.565 66.4411 151.593C70.1678 152.746 72.5824 153.332 76.2853 153.13L66.8886 149.345C64.9158 149.058 63.2105 148.226 61.9665 145.956C61.1437 144.455 60.9116 142.215 60.8893 140.319C60.866 138.338 61.0715 136.732 61.0715 136.732V134.17L57.9393 133.145L57.4924 135.707C57.4924 135.707 59.0967 141.951 57.0444 144.418C55.9664 145.715 53.4646 146.468 53.4646 146.468C53.4646 146.468 36.5108 143.542 35.1186 134.17C33.9071 126.014 37.7501 115.771 44.9628 116.235C48.5554 116.466 51.8191 117.474 53.0172 121.359C53.6565 123.433 51.8893 125.216 50.2691 126.851C48.592 128.543 47.0724 130.076 48.5425 131.608C49.7141 132.828 52.3696 133.145 52.3696 133.145C51.5708 132.445 50.9508 131.594 50.7798 130.583C50.4586 128.684 51.7389 127.686 53.0749 126.644C54.3104 125.681 55.5936 124.681 55.702 122.897C56.0466 117.222 50.7837 114.404 45.8577 113.673C38.3819 112.563 32.917 120.943 32.4338 129.558C32.0948 135.602 37.8034 144.418 37.8034 144.418C39.2569 144.853 40.25 144.988 41.8305 145.956Z" fill="#292929"/>
<path d="M118.795 136.732C128.374 127.758 138.483 107.524 138.483 107.524C138.483 107.524 139.633 114.554 142.377 122.897C142.377 122.897 140.557 111.541 139.825 103.937C139.036 95.7319 138.483 82.4147 138.483 82.4147C138.483 82.4147 138.456 94.2058 136.693 101.375C131.965 120.603 115.215 139.294 107.16 143.394C99.3098 147.389 87.9194 143.394 84.7872 141.344C79.423 137.834 76.1166 132.428 77.1803 125.459C78.0549 119.728 81.3361 111.174 85.6821 114.185C87.0605 115.14 87.9455 115.991 88.3669 117.772C88.7175 119.254 87.8326 120.197 86.9147 121.175C86.0658 122.08 85.1887 123.015 85.2346 124.434C85.3959 129.41 90.6501 130.047 94.9877 130.572L95.0789 130.583C102.023 131.424 105.827 123.388 108.95 116.235C112.073 109.082 111.635 95.7378 111.635 95.7378C111.635 95.7378 111.219 106.656 108.503 112.648C108.174 113.373 107.85 114.108 107.527 114.843L107.527 114.844C104.66 121.359 101.815 127.821 95.5263 126.996C95.2281 126.957 94.9195 126.92 94.6053 126.883C91.6474 126.534 88.1993 126.127 88.3669 122.897C88.4917 120.491 91.524 120.645 91.9466 118.285C92.6667 114.262 88.8039 111.501 85.2346 111.111C81.3722 110.689 79.3417 114.082 77.1803 117.772C74.889 121.684 74.9429 129.558 74.9429 129.558C74.9429 129.558 70.9088 134.954 67.336 136.22C64.9929 137.05 61.0715 136.732 61.0715 136.732C61.0715 136.732 60.866 138.338 60.8893 140.319C60.8893 140.319 65.8234 140.561 68.6784 139.294C71.4818 138.05 74.9429 134.17 74.9429 134.17C74.9429 134.17 77.6548 140.495 80.76 142.881C82.6463 144.331 86.1296 145.443 86.1296 145.443L91.4992 146.981C91.4992 146.981 100.159 147.661 105.371 145.956C111.635 143.906 113.872 141.344 118.795 136.732Z" fill="#292929"/>
<path d="M76.2853 153.13C85.6821 152.618 91.4992 146.981 91.4992 146.981L86.1296 145.443C86.1296 145.443 82.6463 144.331 80.76 142.881C77.6548 140.495 74.9429 134.17 74.9429 134.17C74.9429 134.17 71.4818 138.05 68.6784 139.294C65.8234 140.561 60.8893 140.319 60.8893 140.319C60.9116 142.215 61.1437 144.455 61.9665 145.956C63.2105 148.226 64.9158 149.058 66.8886 149.345L76.2853 153.13Z" fill="black"/>
</g>
<defs>
<clipPath id="clip0_1046_636">
<rect width="230" height="475" fill="white"/>
</clipPath>
</defs>
</svg>
