<svg width="230" height="475" viewBox="0 0 230 475" fill="none" xmlns="http://www.w3.org/2000/svg">
<path d="M54.9141 66.9704C60.0291 64.4129 68.1277 71.2328 68.1277 71.2328C68.1277 71.2328 96.6953 64.9213 115.441 64.8392C134.679 64.7549 162.754 72.5115 162.754 72.5115C162.754 72.5115 171.326 63.9867 178.099 68.6754C189.181 76.3477 212.198 101.07 215.182 105.332C216.871 107.745 212.624 110.021 210.919 112.152C207.984 115.822 206.231 122.24 207.509 121.53C208.788 120.819 208.106 122.382 208.788 122.382C209.47 122.382 203.247 133.464 197.28 137.301C194.925 138.814 193.433 136.944 192.49 134.124C193.706 143.403 194.937 155.859 193.443 159.892C189.181 171.4 176.394 183.335 170.852 189.729C165.311 196.122 149.966 204.647 146.13 202.942C145.311 202.578 146.932 201.212 146.13 200.811C144.425 199.958 133.769 214.024 115.867 214.451C103.139 214.754 90.2924 206.352 85.6037 201.237C85.2855 200.89 83.8987 199.532 83.4725 202.09C83.0462 204.647 48.9467 194.417 35.3069 160.318C30.9831 149.508 42.9793 110.447 42.9793 110.447C42.9793 110.447 34.0282 133.891 31.897 133.891C28.0608 133.891 20.8146 121.103 20.8146 121.103C20.8146 121.103 22.0966 121.326 23.7983 121.53C25.5 121.733 22.6973 116.485 20.8146 113.005C18.9913 109.634 14.0003 108.095 16.126 104.906C18.6834 101.07 46.3893 71.2328 54.9141 66.9704Z" fill="#FAD314"/>
<path d="M172.131 73.364C169.219 74.3347 166.59 75.9216 166.59 75.9216L172.983 78.4791L186.623 100.218L201.542 119.825L211.345 115.562L208.788 111.3L210.067 109.168C210.067 109.168 209.068 104.81 207.509 103.201C201.901 97.4135 197.326 95.779 191.312 90.4139C183.405 83.3599 175.967 72.0852 172.131 73.364Z" fill="#E8C23A"/>
<path d="M57.4714 74.2167C60.2618 74.2167 63.4389 75.0692 63.4389 75.0692L60.4551 76.3479L39.9954 101.496L27.2081 118.546L24.2244 114.284L21.2407 107.464C21.2407 107.464 21.9971 103.483 23.7982 101.923C30.1918 96.3813 34.4543 96.8076 40.4217 88.2827C45.4239 81.1367 53.209 74.2167 57.4714 74.2167Z" fill="#E8C23A"/>
<path d="M157.212 90.4137C155.277 91.0093 151.674 91.968 152.098 89.9877C152.44 88.3845 154.303 88.1175 155.934 88.2827C157.269 88.4179 159.157 88.8225 158.491 89.9877C158.122 90.634 157.924 90.1948 157.212 90.4137Z" fill="#E8C23A"/>
<path d="M73.2425 89.9877C72.2327 89.9134 70.685 90.4139 70.685 90.4139C70.685 90.4139 72.2584 88.5308 73.6687 88.2827C75.224 88.0091 77.6541 88.0907 77.0787 89.5612C76.7754 90.3363 76.6118 90.6569 75.7999 90.8402C74.773 91.0721 74.2924 90.065 73.2425 89.9877Z" fill="#E8C23A"/>
<path d="M38.2905 141.989C39.0415 135.961 42.9792 124.939 42.9792 124.939L39.5692 127.071L34.4543 148.809V157.76C34.4543 157.76 36.6568 158.2 37.438 157.76C38.7167 157.04 37.5471 147.956 38.2905 141.989Z" fill="#E8C23A"/>
<path d="M187.476 132.186C187.313 129.361 187.05 124.939 187.05 124.939L190.886 133.464L193.869 150.088L192.164 159.039C192.164 159.039 190.34 158.681 190.033 157.76C189.607 156.482 190.026 151.415 189.607 147.104C189.051 141.384 187.806 137.923 187.476 132.186Z" fill="#E8C23A"/>
<path d="M75.3735 117.693C78.9591 120.251 83.4722 127.497 83.4722 127.497L66.4224 152.219L57.4713 163.301C57.4713 163.301 46.3994 158.373 42.5528 152.219C40.4216 148.809 43.4052 134.743 44.684 134.743C45.5327 134.743 46.2549 136.007 46.389 135.169C48.0939 124.513 54.0613 118.12 60.455 115.136C64.7987 113.109 70.5081 114.223 75.3735 117.693Z" fill="#D2AD28"/>
<path d="M184.492 152.219C181.353 159.276 169.573 164.58 169.573 164.58L158.917 145.399L144.425 127.923C144.425 127.923 146.457 122.118 149.54 119.398C156.786 113.004 163.18 112.27 169.573 114.283C178.098 116.967 181.661 124.842 184.492 134.317C186.543 141.182 186.198 148.383 184.492 152.219Z" fill="#D2AD28"/>
<path d="M173.41 73.7901C170.571 73.9668 166.59 75.9213 166.59 75.9213C166.59 75.9213 170.996 78.9656 173.41 81.4625C175.823 83.9593 179.377 89.1349 179.377 89.1349L180.656 100.217C180.656 100.217 181.508 107.89 179.803 108.742C178.098 109.594 176.272 103.479 173.41 100.643C170.027 97.293 161.049 92.1186 161.049 92.1186C161.049 92.1186 162.319 94.2341 162.754 95.1023C163.18 95.9549 166.595 99.1523 169.147 101.922C176.91 110.346 182.686 123.159 186.197 125.792C187.902 127.071 189.607 133.89 189.607 133.89V134.317L199.41 136.874L210.493 123.234C210.493 123.234 211.453 117.644 210.493 114.283C209.64 111.3 211.345 107.037 211.345 107.037C211.345 107.037 209.544 108.264 208.362 109.168C206.049 110.938 204.525 115.562 204.525 115.562C204.525 115.562 197.505 108.859 194.296 104.053C190.156 97.8548 190.841 92.7225 186.623 86.5773C182.493 80.5606 174.688 73.7104 173.41 73.7901Z" fill="#D2AD28"/>
<path d="M58.3238 104.48L38.7166 132.185L31.0442 134.743L22.0931 124.513L19.9619 112.578C19.9619 112.578 20.0646 111.014 19.9619 110.021C19.8206 108.656 19.1094 106.611 19.1094 106.611C19.1094 106.611 21.037 107.488 22.0931 108.316C24.5645 110.254 26.3555 115.136 26.3555 115.136C26.3555 115.136 33.5318 107.412 37.0116 101.496C41.274 94.25 41.7003 89.5612 48.5202 81.4626C51.6506 77.7452 55.3401 73.7901 57.0451 73.7901C59.677 73.7901 65.6285 74.4613 63.4387 75.9213C62.16 76.7739 59.5019 79.7071 57.0451 83.1675C53.2086 88.5711 49.7989 96.8073 48.9464 99.3647C47.7968 102.814 47.6287 109.892 51.0777 108.742C52.3564 108.316 52.1527 103.158 54.4876 100.643C56.5667 98.404 61.3075 96.8073 61.3075 96.8073L65.1437 93.3973L63.4387 98.9385L58.3238 104.48Z" fill="#D2AD28"/>
<path d="M56.6189 172.678C56.6189 167.989 59.8674 169.025 61.3076 166.284C75.417 139.431 78.7836 122.381 114.588 120.676C144.501 119.252 160.197 144.545 165.311 162.874C166.59 167.457 172.984 167.136 172.557 171.399C172.089 176.087 169.417 176.499 167.442 180.777C164.885 186.318 161.049 190.26 150.393 189.728C141.868 189.301 134.189 168.117 114.588 167.137C94.9869 166.157 91.571 190.394 75.3737 189.728C68.9562 189.464 67.2751 186.317 62.5864 179.684C60.6057 176.882 56.6189 176.109 56.6189 172.678Z" fill="#F8E386" stroke="#F8E386"/>
<path fill-rule="evenodd" clip-rule="evenodd" d="M76.2264 192.286C70.014 191.538 64.34 187.457 62.1603 184.187C61.3078 182.908 60.5973 192.712 61.7341 193.565C63.8867 195.179 70.9654 198.152 76.429 200.447C79.6202 201.788 82.2605 202.897 83.0463 203.368C83.599 203.7 83.6321 203.35 83.6667 202.984C83.7019 202.612 83.7387 202.223 84.325 202.516C84.647 202.677 85.2281 203.155 85.9815 203.774C87.2226 204.794 88.9312 206.199 90.7186 207.205C97.5385 211.041 110.752 214.877 115.015 214.877C121.408 214.877 131.14 211.041 137.179 207.205C138.489 206.372 139.802 205.232 140.969 204.217C142.833 202.597 144.327 201.298 144.852 202.09C145.161 202.556 144.856 203.094 144.655 203.45C144.477 203.764 144.379 203.936 144.852 203.795C153.376 201.237 165.738 195.909 168.721 191.434C170.134 189.315 168.827 182.681 167.869 185.04C167.674 185.519 167.603 185.511 167.504 185.501C167.41 185.492 167.291 185.48 167.016 185.892C165.311 188.449 156.078 193.173 148.688 191.434C143.274 190.16 137.385 184.603 132.797 180.275C131.244 178.81 129.84 177.485 128.654 176.515C127.958 175.945 127.459 176.644 126.781 177.595C125.936 178.778 124.814 180.351 122.687 180.351C120.945 180.351 119.878 179.723 118.801 179.089C117.757 178.473 116.703 177.852 115.015 177.794C113.234 177.732 111.956 178.452 110.707 179.154C109.334 179.927 107.995 180.68 106.063 180.351C104.648 180.11 103.681 179.222 102.744 178.36C101.723 177.421 100.737 176.515 99.2435 176.515C98.2541 176.515 96.5943 178.395 94.4181 180.859C90.0321 185.825 83.5483 193.167 76.2264 192.286Z" fill="#F8E386"/>
<path d="M174.262 150.94C171.762 153.494 165.737 155.203 165.737 155.203L163.606 151.793L173.836 146.251L176.394 129.202C176.394 129.202 179.045 136.169 178.525 140.71C178.033 145.01 177.29 147.848 174.262 150.94Z" fill="white"/>
<path d="M161.475 139.857C161.475 138.323 162.504 137.007 164.033 136.874C165.795 136.72 166.843 138.532 166.59 140.284C166.371 141.803 165.563 142.959 164.033 142.841C162.502 142.723 161.475 141.392 161.475 139.857Z" fill="white"/>
<path d="M156.36 123.234C156.36 120.251 159.77 116.665 162.328 117.267C164.459 117.768 165.875 121.278 164.885 124.086C164.219 125.977 163.453 126.748 161.475 127.07C158.78 127.509 156.36 125.964 156.36 123.234Z" fill="white"/>
<path d="M61.7341 154.777L63.8653 152.219L52.3567 142.415L50.6517 133.038C50.6517 133.038 49.2437 139.432 49.7992 142.415C50.4675 146.004 51.1772 147.815 53.6354 150.514C56.1938 153.323 61.7341 154.777 61.7341 154.777Z" fill="white"/>
<path d="M64.2915 141.137C64.308 140.195 64.6287 139.445 65.5703 139.432C66.636 139.417 67.0933 140.099 66.849 141.137C66.6265 142.081 66.0814 142.667 65.144 142.415C64.3402 142.199 64.2769 141.969 64.2915 141.137Z" fill="white"/>
<path d="M63.8653 118.546C61.1358 118.607 59.4934 119.915 58.3241 122.382C57.1548 124.849 64.7587 135.222 68.554 132.186C70.6852 130.481 70.557 127.889 69.8327 124.939C68.9888 121.502 66.2255 118.493 63.8653 118.546Z" fill="white"/>
<path d="M65.1438 155.203C65.1438 155.203 67.1473 160.272 66.4226 163.728C65.8863 166.285 60.4552 172.679 60.4552 172.679C60.4552 172.679 66.3959 184.135 73.2425 184.614C80.7517 185.138 84.2913 179.023 89.4397 173.531C95.8334 166.711 108.194 157.334 108.194 157.334C108.194 157.334 105.211 149.449 103.08 147.53C101.659 146.252 93.7022 144.903 93.2759 144.547C91.7444 143.268 89.4397 136.448 89.4397 136.448C89.4397 136.448 104.722 129.816 115.014 130.054C125.072 130.288 139.736 136.874 139.736 136.874L143.146 140.284L139.497 137.301C138.581 138.924 135.292 144.668 134.195 145.399C132.917 146.252 126.864 145.825 124.818 147.53C122.687 149.306 119.703 154.35 120.129 156.908C120.728 160.5 130.785 163.728 137.605 170.548C141.441 174.384 146.983 184.187 152.524 184.187C158.491 184.187 159.636 183.264 162.754 180.351C165.258 178.011 167.442 173.105 167.442 173.105L161.049 162.023L157.639 157.76L161.901 161.596C161.901 161.596 162.747 160.929 163.18 160.744C164.004 160.391 165.311 161.596 165.311 161.596L175.115 171.4L165.737 185.466L158.491 190.155L147.835 190.581L132.917 178.22L117.146 167.99L105.211 170.548L93.7022 179.072L83.4723 189.302L74.095 191.007L65.1438 186.745L59.1764 179.072L53.6353 174.384L54.914 169.695L65.1438 155.203Z" fill="#C6B460"/>
<path d="M114.588 208.909C97.5383 208.057 84.751 196.548 84.751 196.548L75.3737 195.27L73.2424 202.516L116.293 217.008L159.77 198.253L144.425 196.975C144.425 196.975 127.647 209.562 114.588 208.909Z" fill="url(#paint0_linear_1046_647)"/>
<path fill-rule="evenodd" clip-rule="evenodd" d="M79.2098 196.122C77.5048 196.122 73.2423 200.385 73.2423 200.385L63.0125 196.975L59.6025 189.302L62.16 183.335L67.7012 188.45L79.2098 191.86L89.0134 184.187L99.6694 175.236L128.654 174.384L135.9 182.056L142.72 188.45L153.376 191.86L164.032 186.745L169.573 183.335L168.721 194.843L157.212 199.532C157.212 199.532 154.226 198.216 152.097 197.827C150.296 197.498 147.409 197.401 147.409 197.401C147.409 197.401 142.501 195.964 141.015 194.843C139.781 193.913 138.844 192.733 137.958 191.616C137.28 190.76 136.631 189.942 135.9 189.302C133.151 186.895 130.359 185.04 127.802 185.04C126.574 185.04 125.536 185.439 124.443 185.86C123.52 186.216 122.558 186.586 121.408 186.745C119.598 186.994 118.472 186.553 117.373 186.122C116.528 185.791 115.7 185.466 114.588 185.466C113.3 185.466 112.414 185.855 111.465 186.271C110.658 186.625 109.805 186.998 108.621 187.171C106.116 187.536 103.626 186.482 101.584 185.618C100.309 185.079 99.2098 184.614 98.3907 184.614C96.6857 184.614 83.8984 197.827 83.8984 197.827C83.8984 197.827 80.5145 196.122 79.2098 196.122ZM98.3907 182.909C96.6857 182.909 92.8495 186.319 92.8495 186.319C92.8495 186.319 96.8174 181.63 97.9645 181.63C99.2432 181.63 102.653 183.335 102.653 183.335C102.653 183.335 100.323 182.909 98.3907 182.909ZM128.654 182.482C127.12 182.424 124.818 183.335 124.818 183.335C124.818 183.335 126.94 181.204 128.654 181.204C130.785 181.204 135.048 186.319 135.048 186.319C135.048 186.319 130.188 182.541 128.654 182.482Z" fill="#D9C66D"/>
<path d="M113.309 167.99L100.948 173.958L106.916 179.925L114.588 176.515L121.408 180.351L127.802 173.958L113.309 167.99Z" fill="#C02231"/>
<path d="M114.162 177.486C110.922 177.546 108.194 180.646 106.489 180.646C104.19 180.646 102.653 176.179 102.653 176.179C101.567 176.942 100.504 177.781 99.4659 178.668C99.4659 178.668 103.141 182.526 106.489 182.777C109.83 183.028 110.812 179.793 114.162 179.793C117.572 179.793 119.459 183.832 123.113 182.777C125.75 182.016 128.228 178.81 128.228 178.81C127.349 178.11 126.463 177.439 125.573 176.81C125.573 176.81 124.296 179.681 123.113 180.22C120.982 181.19 117.364 177.426 114.162 177.486Z" fill="black"/>
<path fill-rule="evenodd" clip-rule="evenodd" d="M18.6832 126.086C22.0932 131.627 26.7818 138.021 31.0443 141.004C32.338 141.91 34.8805 142.283 34.8805 142.283C34.8805 142.283 29.3393 156.434 31.8968 161.038C33.0149 163.051 34.0785 165.052 35.1343 167.039C40.1156 176.412 44.9249 185.462 54.4877 193.859C64.8511 202.958 82.5609 210.478 96.2365 215.05C105.622 218.189 113.108 219.939 115.014 219.859C118.166 219.728 125.417 217.835 134.198 214.674C146.793 210.14 162.534 202.999 173.836 194.711C182.374 188.45 197.279 169.989 197.279 156.775C197.279 150.876 193.869 141.432 193.869 141.432C193.869 141.432 198.377 142.375 199.411 141.858C200.444 141.341 209.214 130.776 213.05 123.53C213.491 122.697 213.427 121.28 213.372 120.061C213.331 119.152 213.295 118.353 213.477 117.988C214.014 116.914 214.852 115.802 215.717 114.654C217.456 112.345 219.303 109.895 219.018 107.332C218.682 104.312 201.966 87.817 191.993 77.9769C189.299 75.3186 187.097 73.146 185.844 71.8559C179.272 65.0935 175.914 65.1102 171.6 65.1317C171.354 65.1329 171.105 65.1341 170.852 65.1341C166.164 65.1341 162.327 69.8228 162.327 69.8228C162.327 69.8228 129.507 62.8753 114.162 63.0017C99.2433 63.1246 68.1275 69.8216 68.1275 69.8216C68.1275 69.8216 64.1294 64.3339 55.3402 65.133C49.3973 65.6732 19.962 95.8225 11.4371 106.052C9.59707 108.26 14.0229 113.576 16.2447 116.244C16.5323 116.59 16.7829 116.89 16.9782 117.135C18.1131 118.553 18.0341 120.111 17.9535 121.698C17.879 123.164 17.8033 124.656 18.6832 126.086ZM39.9954 133.332H37.438C37.438 133.332 42.0058 121.817 44.2579 114.578C45.1579 111.686 45.5133 109.369 45.8529 107.155C46.4413 103.32 46.9823 99.7936 50.2252 94.1175C50.8643 92.9991 51.3857 91.5815 51.9298 90.1024C53.2004 86.6484 54.5945 82.8587 57.8977 81.7576C59.1764 81.3314 57.0452 79.5199 54.914 80.0527C52.3565 80.692 47.129 86.7616 45.1104 92.4137C43.7353 96.2639 42.7151 101.001 41.5919 106.397C41.517 106.756 41.4417 107.119 41.3657 107.485C40.8153 110.134 40.2337 112.933 39.5692 115.857C37.3411 125.661 31.8968 135.891 31.8968 135.891C31.8968 135.891 17.7649 122.404 23.3719 123.528C25.5032 123.956 24.6507 123.103 24.6507 123.103C24.6507 123.103 22.9685 118.222 20.8145 115.005C20.2778 114.203 19.5097 113.395 18.744 112.589C16.8874 110.634 15.0452 108.695 16.552 106.906C23.3719 98.8074 50.5744 71.0536 54.0615 69.8228C59.6523 67.8496 64.4455 71.7124 66.7633 73.5803C67.4496 74.1333 67.9188 74.5115 68.1275 74.5115C69.8325 74.5115 70.685 72.8065 70.685 72.8065C70.685 72.8065 97.9647 66.8266 115.867 67.2653C134.225 67.7153 163.18 74.5115 163.18 74.5115C163.18 74.5115 172.4 65.5347 178.525 71.1015C187.902 79.6253 208.272 98.9088 214.329 106.48C216.034 108.611 213.477 112.021 210.493 115.005C207.695 117.802 205.378 124.381 205.378 124.381C205.378 124.381 207.098 124.376 208.362 123.956C209.641 123.531 200.689 135.891 199.411 135.891C198.558 135.891 193.885 125.54 191.738 117.987C190.773 114.591 190.263 111.688 189.77 108.885C189.083 104.974 188.43 101.259 186.623 96.6762C183.744 89.3714 179.182 80.4801 177.477 80.0527C175.281 79.5022 170.852 80.4789 171.936 81.3314C174.203 83.1143 178.408 90.1809 181.082 96.675C182.777 100.793 183.222 104.131 183.688 107.628C184.043 110.285 184.409 113.033 185.345 116.283C186.364 119.826 188.158 124.265 189.602 127.837C191.065 131.457 192.167 134.186 191.738 134.186C190.889 134.184 188.755 133.758 188.755 133.758C188.755 133.758 193.815 151.146 191.312 161.89C188.305 174.8 172.557 189.596 172.557 189.596V180.645C172.557 180.645 176.018 177.109 175.967 173.826C175.916 170.544 173.734 168.197 170.852 165.727C169.522 164.587 168.107 161.646 166.244 157.774C165.647 156.533 165.003 155.196 164.302 153.793C160.909 146.999 156.156 138.634 148.688 131.939C140.915 124.971 130.2 119.813 115.014 120.12C98.4188 120.455 87.4539 125.266 79.6361 131.968C72.0118 138.505 67.3806 146.841 63.4389 154.579C63.0029 155.435 62.5754 156.284 62.1532 157.122C60.8567 159.695 59.6104 162.169 58.3239 164.449C57.6381 165.665 56.592 166.799 55.5434 167.935C53.7406 169.89 51.9303 171.853 51.9303 174.253C51.9303 177.576 52.9023 178.104 53.9252 178.659C54.6074 179.03 55.3123 179.412 55.7664 180.645C57.2726 184.733 57.4714 190.876 57.4714 190.876C57.4714 190.876 41.0053 174.298 36.1593 159.76C34.028 153.367 39.9954 133.332 39.9954 133.332ZM62.1196 194.678C59.8824 192.914 61.6853 184.336 62.5863 187.039C63.4388 189.596 75.7999 197.089 82.6198 193.859C85.5425 192.474 88.7429 189.202 92.2609 185.605C94.527 183.288 96.9255 180.836 99.4659 178.668C100.504 177.781 101.567 176.942 102.653 176.179C106.217 173.675 110.045 171.987 114.162 172.12C117.949 172.242 121.806 174.15 125.573 176.81C126.463 177.439 127.349 178.11 128.228 178.81C130.847 180.895 133.402 183.233 135.837 185.461C141.182 190.351 145.948 194.711 149.54 194.711C157.639 194.711 166.163 191.301 167.016 188.744C167.223 188.124 168.762 185.911 168.295 192.154C167.827 198.397 145.369 206.086 145.278 205.092C145.239 204.669 145.402 204.208 145.53 203.843C145.704 203.35 145.816 203.034 145.278 203.236C143.605 203.863 142.343 204.9 140.888 206.096C139.376 207.338 137.654 208.752 135.048 210.056C127.418 213.871 118.424 216.876 115.014 216.876C112.883 216.876 99.6889 214.193 91.5709 209.203C89.8396 208.139 88.4613 206.855 87.264 205.74C86.0094 204.571 84.9535 203.588 83.8985 203.236C82.8258 202.878 83.0279 203.346 83.2467 203.852C83.5495 204.552 83.8843 205.326 80.9148 204.088C80.5697 203.945 80.0297 203.769 79.3278 203.54C76.0279 202.464 69.1491 200.222 62.1196 194.678ZM112.883 152.087L112.457 168.711C112.457 168.711 107.768 169.139 99.2433 174.679C95.9839 176.797 93.4098 179.788 90.9256 182.674C86.9125 187.337 83.1339 191.727 77.0787 191.727C69.1729 191.727 67.1324 188.913 64.6911 185.545C63.8418 184.374 62.944 183.135 61.7339 181.925C60.8777 181.069 60.0187 180.392 59.2298 179.771C57.2692 178.227 55.7415 177.023 55.7665 174.253C55.7906 171.577 57.3482 170.788 58.8995 170.001C60.0661 169.41 60.6642 167.91 61.3076 166.58C67.7013 153.367 70.1916 147.139 77.0787 138.874C83.4723 131.202 104.358 122.278 115.014 122.677C131.638 123.299 142.294 128.783 150.819 138.874C159.461 149.104 162.427 154.195 164.885 164.023C165.492 166.452 167.466 168.025 169.32 169.503C170.393 170.358 171.426 171.182 172.131 172.121C174.052 174.683 169.459 180.111 167.442 182.351C166.533 183.362 165.889 184.399 165.265 185.404C163.258 188.638 161.456 191.54 151.671 192.154C147.429 192.419 144.462 189.384 139.877 184.693C137.092 181.843 133.709 178.382 129.08 174.679C124.818 171.269 115.441 168.711 115.441 168.711L114.588 152.087C114.588 152.087 119.834 150.678 122.26 148.252C125.967 144.546 130.129 142.323 132.064 142.71C133.829 143.064 134.622 145.694 134.622 145.694C135.9 145.694 136.753 143.988 137.179 142.71C137.605 141.433 127.802 134.612 114.588 135.038C101.375 135.464 96.6859 138.022 92.4234 142.284C91.615 143.093 93.5085 145.003 93.5085 145.003C93.8436 145.003 94.1272 144.702 94.449 144.361C94.7225 144.071 95.0235 143.752 95.4071 143.563C96.2733 143.137 101.286 143.475 102.227 144.415C105.637 147.825 112.883 152.087 112.883 152.087Z" fill="black"/>
<path d="M164.302 153.793C164.302 153.793 168.282 154.439 170.426 153.367C176.393 150.383 178.951 139.301 176.82 131.628C174.635 123.763 169.574 116.816 160.622 117.562C155.507 117.988 149.525 125.883 149.114 127.792C148.703 129.701 148.688 131.939 148.688 131.939C156.156 138.634 160.909 146.999 164.302 153.793Z" fill="black"/>
<path d="M79.6361 131.968C79.6361 131.968 79.8084 129.074 78.7836 127.366C76.2262 123.103 71.1187 117.823 66.4226 117.562C59.8032 117.194 51.9303 126.939 50.6515 133.759C49.4527 140.153 52.3565 152.514 58.3239 153.793C60.3 154.216 63.4389 154.579 63.4389 154.579C67.3806 146.841 72.0118 138.505 79.6361 131.968Z" fill="black"/>
<path fill-rule="evenodd" clip-rule="evenodd" d="M96.2365 215.05C105.622 218.189 113.108 219.939 115.014 219.859C118.166 219.728 125.417 217.835 134.198 214.674L134.047 214.55C124.103 216 115.587 216 113.644 216C111.752 216 105.091 215.912 96.6395 214.661L96.2365 215.05Z" fill="black"/>
<path d="M177.829 331.783C178.459 325.861 185.844 296.176 185.844 296.176C185.844 296.176 177.213 257.692 162.233 239.765C152.505 228.123 134.37 214.815 134.37 214.815L134.198 214.674C125.417 217.835 118.166 219.728 115.014 219.859C113.108 219.939 105.622 218.189 96.2365 215.05L95.3587 215.899C95.3587 215.899 76.2999 225.718 65.8505 241.393C55.401 257.067 41.8438 296.176 41.8438 296.176C41.8438 296.176 53.4043 328.869 54.4051 333.142C55.1636 336.381 59.0452 341.051 63.0521 345.181C63.0521 345.181 59.146 366.056 58.0507 379.619C55.5737 410.289 63.0521 458.268 63.0521 458.268C63.0521 458.268 69.3385 473.227 77.3537 473C85.2569 472.776 90.8412 457.901 90.8412 457.901L99.8438 408L113.864 381.333L127.841 408.971L136.344 460.5C136.344 460.5 142.329 472.698 149.374 473C157.359 473.342 163.58 458.268 163.58 458.268C163.58 458.268 170.697 410.449 170.082 379.619C169.813 366.14 167.852 345.181 167.852 345.181C172.712 340.639 177.448 335.366 177.829 331.783Z" fill="#FAD314"/>
<path d="M102.653 176.179C106.217 173.675 110.045 171.987 114.162 172.12C117.949 172.242 121.806 174.15 125.573 176.81M102.653 176.179C102.653 176.179 104.19 180.646 106.489 180.646C108.194 180.646 110.922 177.546 114.162 177.486C117.364 177.426 120.982 181.19 123.113 180.22C124.296 179.681 125.573 176.81 125.573 176.81M102.653 176.179C101.567 176.942 100.504 177.781 99.4659 178.668M99.4659 178.668C99.4659 178.668 103.141 182.526 106.489 182.777C109.83 183.028 110.812 179.793 114.162 179.793C117.572 179.793 119.459 183.832 123.113 182.777C125.75 182.016 128.228 178.81 128.228 178.81M99.4659 178.668C96.9255 180.836 94.527 183.288 92.2609 185.605C88.7429 189.202 85.5425 192.474 82.6198 193.859C75.7999 197.089 63.4388 189.596 62.5863 187.039C61.6853 184.336 59.8824 192.914 62.1196 194.678C69.1491 200.222 76.0279 202.464 79.3278 203.54C80.0297 203.769 80.5697 203.945 80.9148 204.088C83.8843 205.326 83.5495 204.552 83.2467 203.852C83.0279 203.346 82.8258 202.878 83.8985 203.236C84.9535 203.588 86.0094 204.571 87.264 205.74C88.4613 206.855 89.8396 208.139 91.5709 209.203C99.6889 214.193 112.883 216.876 115.014 216.876C118.424 216.876 127.418 213.871 135.048 210.056C137.654 208.752 139.376 207.338 140.888 206.096C142.343 204.9 143.605 203.863 145.278 203.236C145.816 203.034 145.704 203.35 145.53 203.843C145.402 204.208 145.239 204.669 145.278 205.092C145.369 206.086 167.827 198.397 168.295 192.154C168.762 185.911 167.223 188.124 167.016 188.744C166.163 191.301 157.639 194.711 149.54 194.711C145.948 194.711 141.182 190.351 135.837 185.461C133.402 183.233 130.847 180.895 128.228 178.81M125.573 176.81C126.463 177.439 127.349 178.11 128.228 178.81M164.302 153.793C165.003 155.196 165.647 156.533 166.244 157.774C168.107 161.646 169.522 164.587 170.852 165.727C173.734 168.197 175.916 170.544 175.967 173.826C176.018 177.109 172.557 180.645 172.557 180.645V189.596C172.557 189.596 188.305 174.8 191.312 161.89C193.815 151.146 188.755 133.758 188.755 133.758C188.755 133.758 190.889 134.184 191.738 134.186C192.167 134.186 191.065 131.457 189.602 127.837C188.158 124.265 186.364 119.826 185.345 116.283C184.409 113.033 184.043 110.285 183.688 107.628C183.222 104.131 182.777 100.793 181.082 96.675C178.408 90.1809 174.203 83.1143 171.936 81.3314C170.852 80.4789 175.281 79.5022 177.477 80.0527C179.182 80.4801 183.744 89.3714 186.623 96.6762C188.43 101.259 189.083 104.974 189.77 108.885C190.263 111.688 190.773 114.591 191.738 117.987C193.885 125.54 198.558 135.891 199.411 135.891C200.689 135.891 209.641 123.531 208.362 123.956C207.098 124.376 205.378 124.381 205.378 124.381C205.378 124.381 207.695 117.802 210.493 115.005C213.477 112.021 216.034 108.611 214.329 106.48C208.272 98.9088 187.902 79.6253 178.525 71.1015C172.4 65.5347 163.18 74.5115 163.18 74.5115C163.18 74.5115 134.225 67.7153 115.867 67.2653C97.9647 66.8266 70.685 72.8065 70.685 72.8065C70.685 72.8065 69.8325 74.5115 68.1275 74.5115C67.9188 74.5115 67.4496 74.1333 66.7633 73.5803C64.4455 71.7124 59.6523 67.8496 54.0615 69.8228C50.5744 71.0536 23.3719 98.8074 16.552 106.906C15.0452 108.695 16.8874 110.634 18.744 112.589C19.5097 113.395 20.2778 114.203 20.8145 115.005C22.9685 118.222 24.6507 123.103 24.6507 123.103C24.6507 123.103 25.5032 123.956 23.3719 123.528C17.7649 122.404 31.8968 135.891 31.8968 135.891C31.8968 135.891 37.3411 125.661 39.5692 115.857C40.2337 112.933 40.8153 110.134 41.3657 107.485C41.4417 107.119 41.517 106.756 41.5919 106.397C42.7151 101.001 43.7353 96.2639 45.1104 92.4137C47.129 86.7616 52.3565 80.692 54.914 80.0527C57.0452 79.5199 59.1764 81.3314 57.8977 81.7576C54.5945 82.8587 53.2004 86.6484 51.9298 90.1024C51.3857 91.5815 50.8643 92.9991 50.2252 94.1175C46.9823 99.7936 46.4413 103.32 45.8529 107.155C45.5133 109.369 45.1579 111.686 44.2579 114.578C42.0058 121.817 37.438 133.332 37.438 133.332H39.9954C39.9954 133.332 34.028 153.367 36.1593 159.76C41.0053 174.298 57.4714 190.876 57.4714 190.876C57.4714 190.876 57.2726 184.733 55.7664 180.645C55.3123 179.412 54.6074 179.03 53.9252 178.659C52.9023 178.104 51.9303 177.576 51.9303 174.253C51.9303 171.853 53.7406 169.89 55.5434 167.935C56.592 166.799 57.6381 165.665 58.3239 164.449C59.6104 162.169 60.8567 159.695 62.1532 157.122C62.5754 156.284 63.0029 155.435 63.4389 154.579M164.302 153.793C164.302 153.793 168.282 154.439 170.426 153.367C176.393 150.383 178.951 139.301 176.82 131.628C174.635 123.763 169.574 116.816 160.622 117.562C155.507 117.988 149.525 125.883 149.114 127.792C148.703 129.701 148.688 131.939 148.688 131.939M164.302 153.793C160.909 146.999 156.156 138.634 148.688 131.939M148.688 131.939C140.915 124.971 130.2 119.813 115.014 120.12C98.4188 120.455 87.4539 125.266 79.6361 131.968M79.6361 131.968C79.6361 131.968 79.8084 129.074 78.7836 127.366C76.2262 123.103 71.1187 117.823 66.4226 117.562C59.8032 117.194 51.9303 126.939 50.6515 133.759C49.4527 140.153 52.3565 152.514 58.3239 153.793C60.3 154.216 63.4389 154.579 63.4389 154.579M79.6361 131.968C72.0118 138.505 67.3806 146.841 63.4389 154.579M96.2365 215.05C105.622 218.189 113.108 219.939 115.014 219.859C118.166 219.728 125.417 217.835 134.198 214.674M96.2365 215.05L96.6395 214.661C105.091 215.912 111.752 216 113.644 216C115.587 216 124.103 216 134.047 214.55L134.198 214.674M96.2365 215.05L95.3587 215.899C95.3587 215.899 76.2999 225.718 65.8505 241.393C55.401 257.067 41.8438 296.176 41.8438 296.176C41.8438 296.176 53.4043 328.869 54.4051 333.142C55.1636 336.381 59.0452 341.051 63.0521 345.181C63.0521 345.181 59.146 366.056 58.0507 379.619C55.5737 410.289 63.0521 458.268 63.0521 458.268C63.0521 458.268 69.3385 473.227 77.3537 473C85.2569 472.776 90.8412 457.901 90.8412 457.901L99.8438 408L113.864 381.333L127.841 408.971L136.344 460.5C136.344 460.5 142.329 472.698 149.374 473C157.359 473.342 163.58 458.268 163.58 458.268C163.58 458.268 170.697 410.449 170.082 379.619C169.813 366.14 167.852 345.181 167.852 345.181C172.712 340.639 177.448 335.366 177.829 331.783C178.459 325.861 185.844 296.176 185.844 296.176C185.844 296.176 177.213 257.692 162.233 239.765C152.505 228.123 134.37 214.815 134.37 214.815L134.198 214.674M96.2365 215.05C82.5609 210.478 64.8511 202.958 54.4877 193.859C44.9249 185.462 40.1156 176.412 35.1343 167.039C34.0785 165.052 33.0149 163.051 31.8968 161.038C29.3393 156.434 34.8805 142.283 34.8805 142.283C34.8805 142.283 32.338 141.91 31.0443 141.004C26.7818 138.021 22.0932 131.627 18.6832 126.086C17.8033 124.656 17.879 123.164 17.9535 121.698C18.0341 120.111 18.1131 118.553 16.9782 117.135C16.7829 116.89 16.5323 116.59 16.2447 116.244C14.0229 113.576 9.59707 108.26 11.4371 106.052C19.962 95.8225 49.3973 65.6732 55.3402 65.133C64.1294 64.3339 68.1275 69.8216 68.1275 69.8216C68.1275 69.8216 99.2433 63.1246 114.162 63.0017C129.507 62.8753 162.327 69.8228 162.327 69.8228C162.327 69.8228 166.164 65.1341 170.852 65.1341C171.105 65.1341 171.354 65.1329 171.6 65.1317C175.914 65.1102 179.272 65.0935 185.844 71.8559C187.097 73.146 189.299 75.3186 191.993 77.9769C201.966 87.817 218.682 104.312 219.018 107.332C219.303 109.895 217.456 112.345 215.717 114.654C214.852 115.802 214.014 116.914 213.477 117.988C213.295 118.353 213.331 119.152 213.372 120.061C213.427 121.28 213.491 122.697 213.05 123.53C209.214 130.776 200.444 141.341 199.411 141.858C198.377 142.375 193.869 141.432 193.869 141.432C193.869 141.432 197.279 150.876 197.279 156.775C197.279 169.989 182.374 188.45 173.836 194.711C162.534 202.999 146.793 210.14 134.198 214.674M61.3076 166.58C67.7013 153.367 70.1916 147.139 77.0787 138.874C83.4723 131.202 104.358 122.278 115.014 122.677C131.638 123.299 142.294 128.783 150.819 138.874C159.461 149.104 162.427 154.195 164.885 164.023C165.492 166.452 167.466 168.025 169.32 169.503C170.393 170.358 171.426 171.182 172.131 172.121C174.052 174.683 169.459 180.111 167.442 182.351C166.533 183.362 165.889 184.399 165.265 185.404C163.258 188.638 161.456 191.54 151.671 192.154C147.429 192.419 144.462 189.384 139.877 184.693C137.092 181.843 133.709 178.382 129.08 174.679C124.818 171.269 115.441 168.711 115.441 168.711L114.588 152.087C114.588 152.087 119.834 150.678 122.26 148.252C125.967 144.546 130.129 142.323 132.064 142.71C133.829 143.064 134.622 145.694 134.622 145.694C135.9 145.694 136.753 143.988 137.179 142.71C137.605 141.433 127.802 134.612 114.588 135.038C101.375 135.464 96.6859 138.022 92.4234 142.284C91.615 143.093 93.5085 145.003 93.5085 145.003C93.8436 145.003 94.1272 144.702 94.449 144.361C94.7225 144.071 95.0235 143.752 95.4071 143.563C96.2733 143.137 101.286 143.475 102.227 144.415C105.637 147.825 112.883 152.087 112.883 152.087L112.457 168.711C112.457 168.711 107.768 169.139 99.2433 174.679C95.9839 176.797 93.4098 179.788 90.9256 182.674C86.9125 187.337 83.1339 191.727 77.0787 191.727C69.1729 191.727 67.1324 188.913 64.6911 185.545C63.8418 184.374 62.944 183.135 61.7339 181.925C60.8777 181.069 60.0187 180.392 59.2298 179.771C57.2692 178.227 55.7415 177.023 55.7665 174.253C55.7906 171.577 57.3482 170.788 58.8995 170.001C60.0661 169.41 60.6642 167.91 61.3076 166.58Z" stroke="black" stroke-width="2"/>
<path d="M109.899 135.169C112.9 136.37 115.014 141.163 114.588 141.989C113.929 143.268 109.361 143.752 106.489 142.416C103.919 141.22 101.801 138.153 101.801 136.874C101.801 136.022 108.194 134.488 109.899 135.169Z" fill="#242222"/>
<path d="M120.982 136.022C118.743 136.749 115.975 138.051 116.719 140.284C117.308 142.05 119.121 142.435 120.982 142.416C124.051 142.384 126.097 137.301 126.097 136.448C126.097 135.596 122.888 135.403 120.982 136.022Z" fill="#242222"/>
<path d="M153.376 168.843C153.48 167.907 153.714 167.577 154.655 167.564C155.721 167.549 156.051 168.209 155.934 169.269C155.83 170.205 155.597 170.535 154.655 170.548C153.589 170.562 153.259 169.902 153.376 168.843Z" fill="#9F8A25"/>
<path d="M154.655 176.941C154.863 176.378 155.334 176.069 155.934 176.089C156.64 176.111 156.344 176.661 156.36 177.367C156.379 178.199 156.303 178.465 155.508 178.22C154.796 178.001 154.397 177.639 154.655 176.941Z" fill="#9F8A25"/>
<path d="M141.015 170.121C140.982 169.522 141.302 169.042 141.868 168.843C142.653 168.566 142.766 168.864 142.72 169.695C142.665 170.692 141.071 171.118 141.015 170.121Z" fill="#9F8A25"/>
<path d="M84.3248 170.974C84.2575 170.772 84.7065 170.121 85.1773 170.121C85.6481 170.121 86.1787 170.527 86.0298 170.974C85.9121 171.327 85.5495 171.4 85.1773 171.4C84.8051 171.4 84.4425 171.327 84.3248 170.974Z" fill="#9F8A25"/>
<path d="M72.39 168.843C72.5232 167.91 72.0471 167.242 71.1113 167.138C69.9414 167.008 68.9426 168.187 69.4063 169.269C69.7594 170.093 70.4975 170.215 71.1113 170.121C71.9339 169.995 72.2723 169.666 72.39 168.843Z" fill="#9F8A25"/>
<path d="M72.8162 177.367C72.8162 176.535 72.7929 176.017 71.9638 176.089C71.3658 176.14 70.685 176.341 70.685 176.941C70.685 177.367 71.4316 178.144 71.9638 178.22C72.4959 178.296 72.8162 178.2 72.8162 177.367Z" fill="#9F8A25"/>
<path d="M161.17 139.925C161.17 138.39 162.198 137.074 163.727 136.941C165.49 136.787 166.537 138.6 166.284 140.351C166.065 141.87 165.257 143.026 163.727 142.908C162.197 142.791 161.17 141.459 161.17 139.925Z" fill="white"/>
<path d="M156.055 123.301C156.055 120.318 159.465 116.732 162.022 117.334C164.153 117.835 165.569 121.345 164.579 124.154C163.913 126.044 163.148 126.815 161.17 127.137C158.475 127.577 156.055 126.031 156.055 123.301Z" fill="white"/>
<path d="M63.986 141.204C64.0025 140.262 64.3232 139.512 65.2648 139.499C66.3305 139.484 66.7878 140.166 66.5435 141.204C66.321 142.149 65.7759 142.734 64.8385 142.483C64.0347 142.267 63.9714 142.036 63.986 141.204Z" fill="white"/>
<path d="M63.5598 118.613C60.8303 118.674 59.1879 119.982 58.0186 122.449C56.8493 124.916 64.4532 135.289 68.2485 132.253C70.3797 130.548 70.2515 127.956 69.5272 125.006C68.6833 121.569 65.92 118.56 63.5598 118.613Z" fill="white"/>
<defs>
<linearGradient id="paint0_linear_1046_647" x1="78.3574" y1="204.647" x2="153.802" y2="205.926" gradientUnits="userSpaceOnUse">
<stop stop-color="#F4E59E"/>
<stop offset="0.480769" stop-color="#D9C462"/>
<stop offset="1" stop-color="#F4E59E"/>
</linearGradient>
</defs>
</svg>
