<svg width="230" height="475" viewBox="0 0 230 475" fill="none" xmlns="http://www.w3.org/2000/svg">
<g clip-path="url(#clip0_1043_511)">
<path d="M178.985 330.783C179.615 324.861 187 295.176 187 295.176C187 295.176 178.369 256.692 163.389 238.765C153.661 227.123 135.526 213.815 135.526 213.815L135.203 213.55C125.259 215 116.743 215 114.8 215C112.908 215 106.247 214.912 97.7957 213.661L96.5149 214.899C96.5149 214.899 77.4561 224.718 67.0067 240.393C56.5573 256.067 43 295.176 43 295.176C43 295.176 54.5606 327.869 55.5613 332.142C56.3198 335.381 60.2014 340.051 64.2083 344.181C64.2083 344.181 60.3023 365.056 59.2069 378.619C56.73 409.289 64.2083 457.268 64.2083 457.268C64.2083 457.268 70.4947 472.227 78.5099 472C86.4131 471.776 91.9975 456.901 91.9975 456.901L101 407L115.02 380.333L128.998 407.971L137.5 459.5C137.5 459.5 143.485 471.698 150.53 472C158.515 472.342 164.736 457.268 164.736 457.268C164.736 457.268 171.854 409.449 171.238 378.619C170.969 365.14 169.008 344.181 169.008 344.181C173.868 339.639 178.604 334.366 178.985 330.783Z" fill="#FFCEB4"/>
<path d="M55.1636 182.709C55.1636 192.455 58.1258 197.7 64.0363 201.764C74.3042 208.823 87.4035 212.122 97.7957 213.661C106.247 214.912 112.908 215 114.8 215C116.743 215 125.259 215 135.203 213.55C146.847 211.852 160.449 208.166 167.745 200.164C171.803 195.713 174.219 192.219 174.436 186.2C174.336 185.064 174.364 183.851 174.497 182.564C175.41 173.792 181.262 161.601 185.202 147.218C190.159 129.122 192.088 107.556 177.345 84.9637C166.145 67.8001 144.764 55 114.8 55C92.5455 55 64.3273 68.3819 53.7091 86.1273C35.9665 115.779 41.6452 131.678 47.9592 149.255L47.981 149.315C51.4789 159.052 55.1636 169.31 55.1636 182.709Z" fill="#FFCEB4"/>
<path d="M198.436 143C193.113 142.03 185.202 147.218 185.202 147.218C181.262 161.601 175.41 173.792 174.497 182.564C174.497 182.564 187.066 183.421 193.782 180.382C203.471 175.997 206.727 168.309 207.891 159.146C208.862 151.5 206.019 144.382 198.436 143Z" fill="#FFCEB4"/>
<path d="M47.9592 149.255C47.9592 149.255 43.2364 142.564 35.6727 142.564C26.0727 142.564 22 150.568 22 158.564C22 167 26.7203 174.581 35.6727 179.655C42.3756 183.454 55.1636 182.709 55.1636 182.709C55.1636 169.31 51.4789 159.052 47.981 149.315L47.9592 149.255Z" fill="#FFCEB4"/>
<path d="M55.1636 182.709C55.1636 192.455 58.1258 197.7 64.0363 201.764C74.3042 208.823 87.4035 212.122 97.7957 213.661M55.1636 182.709C55.1636 182.709 42.3756 183.454 35.6727 179.655C26.7203 174.581 22 167 22 158.564C22 150.568 26.0727 142.564 35.6727 142.564C43.2364 142.564 47.9592 149.255 47.9592 149.255M55.1636 182.709C55.1636 169.31 51.4789 159.052 47.981 149.315M185.202 147.218C190.159 129.122 192.088 107.556 177.345 84.9637C166.145 67.8001 144.764 55 114.8 55C92.5455 55 64.3273 68.3819 53.7091 86.1273C35.9665 115.779 41.6452 131.678 47.9592 149.255M185.202 147.218C185.202 147.218 193.113 142.03 198.436 143C206.019 144.382 208.862 151.5 207.891 159.146C206.727 168.309 203.471 175.997 193.782 180.382C187.066 183.421 174.497 182.564 174.497 182.564M185.202 147.218C181.262 161.601 175.41 173.792 174.497 182.564M174.497 182.564C174.364 183.851 174.336 185.064 174.436 186.2C174.219 192.219 171.803 195.713 167.745 200.164C160.449 208.166 146.847 211.852 135.203 213.55M47.9592 149.255L47.981 149.315M47.9592 149.255C47.9665 149.275 47.9737 149.295 47.981 149.315M97.7957 213.661L96.5149 214.899C96.5149 214.899 77.4561 224.718 67.0067 240.393C56.5573 256.067 43 295.176 43 295.176C43 295.176 54.5606 327.869 55.5613 332.142C56.3198 335.381 60.2014 340.051 64.2083 344.181C64.2083 344.181 60.3023 365.056 59.2069 378.619C56.73 409.289 64.2083 457.268 64.2083 457.268C64.2083 457.268 70.4947 472.227 78.5099 472C86.4131 471.776 91.9975 456.901 91.9975 456.901L101 407L115.02 380.333L128.998 407.971L137.5 459.5C137.5 459.5 143.485 471.698 150.53 472C158.515 472.342 164.736 457.268 164.736 457.268C164.736 457.268 171.854 409.449 171.238 378.619C170.969 365.14 169.008 344.181 169.008 344.181C173.868 339.639 178.604 334.366 178.985 330.783C179.615 324.861 187 295.176 187 295.176C187 295.176 178.369 256.692 163.389 238.765C153.661 227.123 135.526 213.815 135.526 213.815L135.203 213.55M97.7957 213.661C106.247 214.912 112.908 215 114.8 215C116.743 215 125.259 215 135.203 213.55" stroke="black" stroke-width="2" stroke-linejoin="round"/>
<path d="M47.1654 105.21C49.2359 109.273 55.1941 113.688 55.1941 113.688C57.3323 111.911 58.0107 112.003 59.3995 112.191C59.9332 112.263 60.5719 112.349 61.4387 112.349C61.4387 112.349 54.5461 108.438 51.1797 104.764C48.1105 101.415 44.9352 94.9485 44.9352 94.9485C44.9352 94.9485 45.3034 101.557 47.1654 105.21Z" fill="#292929"/>
<path d="M85.4724 111.011H104.705H118.978C118.978 111.011 124.945 107.561 128.791 104.764C137.554 98.3911 147.971 83.7942 147.971 83.7942C147.971 83.7942 136.005 95.5909 127.453 101.195C121.783 104.91 111.841 108.78 111.841 108.78C111.841 108.78 108.515 108.508 106.489 107.888C101.179 106.261 98.7106 103.257 95.392 99.2192L95.3908 99.2178L95.3898 99.2165C95.0833 98.8436 94.7696 98.462 94.4457 98.0717C90.6135 93.4543 86.863 84.2404 86.863 84.2404C86.863 84.2404 86.0566 92.2439 88.0188 96.7332C90.6594 102.775 101.582 108.78 101.582 108.78C101.582 108.78 95.453 108.15 92.2155 107.441C86.1158 106.106 82.8259 103.994 78.3882 99.4104C72.9015 93.7433 68.5753 80.671 68.5753 80.671C68.5753 80.671 69.9304 92.9344 73.9278 99.4104C77.2852 104.849 85.4724 111.011 85.4724 111.011Z" fill="#292929"/>
<path d="M167.15 112.701L170.719 113.242C170.719 113.242 174.771 110.15 176.963 107.441C180.292 103.33 181.87 94.9485 181.87 94.9485C181.87 94.9485 178.188 102.255 174.733 106.103C172.11 109.024 167.15 112.701 167.15 112.701Z" fill="#292929"/>
<path d="M154.661 110.835C155.501 110.942 155.999 111.011 155.999 111.011L159.122 111.484C159.122 111.484 163.504 109.751 165.812 107.888C169.421 104.974 172.503 98.0717 172.503 98.0717C172.503 98.0717 167.55 102.697 164.028 105.21C160.555 107.689 154.661 110.835 154.661 110.835Z" fill="#292929"/>
<path d="M32 217.2C32 217.2 45.7173 207.42 48.9495 204.261C54.3934 198.941 54.1855 192.959 53.9311 185.637C53.9044 184.87 53.8772 184.088 53.856 183.291C53.7919 180.886 53.2645 179.062 52.7386 177.245C52.1813 175.318 51.6258 173.398 51.6258 170.798C51.6258 167.951 52.1439 166.018 52.7032 163.931C53.1367 162.314 53.5949 160.604 53.856 158.305C55.1536 146.879 53.856 127.965 53.856 127.965L52.9639 154.736C52.9639 154.736 49.1427 168.673 48.9495 170.798C48.7201 173.322 49.4487 175.136 50.2143 177.041C50.8017 178.503 51.4109 180.019 51.6258 181.952C51.7505 183.074 51.8949 184.152 52.0344 185.194C52.8036 190.939 53.4288 195.608 49.8416 200.691C44.4891 208.276 32 217.2 32 217.2Z" fill="#292929"/>
<path d="M118.978 32.4845C123.78 33.9128 130.129 38.8294 130.129 38.8294C131.136 39.0045 132.187 39.1929 133.303 39.3931L133.31 39.3942C133.727 39.469 134.153 39.5454 134.589 39.6234C135.021 39.7004 135.468 39.7846 135.927 39.8745C135.927 39.8745 126.185 31.6864 118.978 29.8074C107.571 26.8335 91.7694 38.731 91.7694 38.731C91.7694 38.731 108.528 29.3764 118.978 32.4845Z" fill="#292929"/>
<path d="M88.0188 45.8698C88.0188 45.8698 95.1336 43.8965 99.7982 43.1927C105.321 42.3595 108.487 42.259 114.071 42.3004C122.131 42.3601 126.652 43.133 134.589 44.5312C140.09 45.5003 148.547 47.6544 148.547 47.6544C148.971 46.3866 149.445 44.8727 149.907 43.1927C149.907 43.1927 148.184 42.7303 145.74 42.1176C144.166 41.723 142.293 41.2661 140.388 40.8302C138.877 40.4846 137.346 40.1521 135.927 39.8745C135.468 39.7846 135.021 39.7004 134.589 39.6234C134.153 39.5454 133.727 39.469 133.31 39.3942L133.303 39.3931C132.187 39.1929 131.136 39.0045 130.129 38.8294C124.677 37.8815 120.498 37.3228 114.071 37.3925C108.473 37.4532 105.324 37.8334 99.7982 38.731C95.1477 39.4864 88.0188 41.3385 88.0188 41.3385C88.4125 42.8068 88.4104 44.4013 88.0188 45.8698Z" fill="#E8C23A"/>
<path d="M133.697 30.6998C137.089 34.0123 140.388 40.8302 140.388 40.8302C142.293 41.2661 144.166 41.723 145.74 42.1176C145.74 42.1176 139.786 32.078 134.143 28.0227C127.864 23.5105 116.302 22.6687 116.302 22.6687C116.302 22.6687 128.344 25.4712 133.697 30.6998Z" fill="#292929"/>
<path d="M146.632 101.641C140.34 105.837 129.683 111.011 129.683 111.011L129.061 111.407C131.411 111.41 133.535 111.312 134.589 111.011C135.032 110.884 135.326 110.706 135.639 110.516C135.856 110.385 136.082 110.248 136.374 110.119C136.846 109.909 137.623 109.783 138.604 109.72C138.604 109.72 144.846 106.649 148.417 104.318C155.114 99.947 164.474 87.8098 164.474 87.8098C164.474 87.8098 152.925 97.4448 146.632 101.641Z" fill="#292929"/>
<path d="M73.9278 44.5312C74.2644 48.4595 77.1374 51.3333 81.0645 51.67C82.1077 51.2853 83.1175 50.9241 84.1 50.5852C85.8656 49.8885 86.364 49.3783 87.309 47.6544C87.6156 47.0952 87.8524 46.4939 88.0188 45.8698C88.4104 44.4013 88.4125 42.8068 88.0188 41.3385C87.2451 38.4528 84.9429 36.054 81.0645 36.054C76.7535 36.4237 73.5583 40.219 73.9278 44.5312Z" fill="#FAD314"/>
<path fill-rule="evenodd" clip-rule="evenodd" d="M35.1223 100.303C31.6095 113.972 35.1223 136.443 35.1223 136.443C35.1223 136.443 35.6879 139.381 36.0144 140.904C36.8775 144.934 37.3695 146.178 37.8494 147.392C38.1135 148.06 38.374 148.719 38.6906 149.828C39.8222 153.79 39.3951 156.336 38.7209 160.355L38.6906 160.536C38.3582 162.519 37.6713 163.893 36.9781 165.28C36.2082 166.82 35.4306 168.376 35.1222 170.798C34.5775 175.076 37.1397 177.01 39.8311 179.041C41.9169 180.615 44.0803 182.248 44.9352 185.075C46.8006 191.246 47.5148 195.676 44.9352 201.584C43.3453 205.225 32 217.2 32 217.2C32 217.2 44.4891 208.276 49.8416 200.691C53.4288 195.608 52.8036 190.939 52.0344 185.194C51.8949 184.152 51.7505 183.074 51.6258 181.952C51.4109 180.019 50.8017 178.503 50.2143 177.041C49.4487 175.136 48.7201 173.322 48.9495 170.798C49.1427 168.673 52.9639 154.736 52.9639 154.736L53.856 127.965C53.856 127.965 53.856 114.8 55.1941 113.688C55.1941 113.688 49.2359 109.273 47.1654 105.21C45.3034 101.557 44.9352 94.9485 44.9352 94.9485C44.9352 94.9485 48.1105 101.415 51.1797 104.764C54.5461 108.438 61.4387 112.349 61.4387 112.349C61.9521 112.349 62.8648 112.377 64.0451 112.413C70.0431 112.596 82.9508 112.99 85.4724 111.011C85.4724 111.011 77.2852 104.849 73.9278 99.4104C69.9304 92.9344 68.5753 80.671 68.5753 80.671C68.5753 80.671 72.9015 93.7433 78.3882 99.4104C82.8259 103.994 86.1158 106.106 92.2155 107.441C95.453 108.15 101.582 108.78 101.582 108.78C101.582 108.78 90.6594 102.775 88.0188 96.7332C86.0566 92.2439 86.863 84.2404 86.863 84.2404C86.863 84.2404 90.6135 93.4543 94.4457 98.0717C94.7696 98.462 95.0833 98.8436 95.3898 99.2165L95.3908 99.2178L95.392 99.2192C98.7106 103.257 101.179 106.261 106.489 107.888C108.515 108.508 111.841 108.78 111.841 108.78C111.841 108.78 121.783 104.91 127.453 101.195C136.005 95.5909 147.971 83.7942 147.971 83.7942C147.971 83.7942 137.554 98.3911 128.791 104.764C124.945 107.561 118.978 111.011 118.978 111.011C118.978 111.011 124.455 111.402 129.061 111.407L129.683 111.011C129.683 111.011 140.34 105.837 146.632 101.641C152.925 97.4448 164.474 87.8098 164.474 87.8098C164.474 87.8098 155.114 99.947 148.417 104.318C144.846 106.649 138.604 109.72 138.604 109.72C142.982 109.44 151.399 110.422 154.661 110.835C154.661 110.835 160.555 107.689 164.028 105.21C167.55 102.697 172.503 98.0717 172.503 98.0717C172.503 98.0717 169.421 104.974 165.812 107.888C163.504 109.751 159.122 111.484 159.122 111.484L167.15 112.701C167.15 112.701 172.11 109.024 174.733 106.103C178.188 102.255 181.87 94.9485 181.87 94.9485C181.87 94.9485 180.292 103.33 176.963 107.441C174.771 110.15 170.719 113.242 170.719 113.242C170.719 113.242 181.87 114.134 180.978 121.719C180.655 124.462 180.154 127.76 179.542 131.791C179.542 131.791 179.271 149.193 178.747 160.355C178.581 163.898 178.223 166.735 177.888 169.391C177.326 173.854 176.827 177.807 177.409 183.737C177.754 187.256 178.879 190.262 179.963 193.159C181.556 197.415 183.059 201.434 181.87 206.491C180.018 214.361 169.381 223 169.381 223C169.381 223 186.33 210.061 188.56 205.153C190.79 200.245 184.546 182.845 184.546 182.845C184.546 182.845 186.776 178.829 185.884 154.736C185.839 153.517 188.114 146.705 188.114 146.705C188.114 146.705 190.281 143.135 190.79 141.351C191.792 137.844 191.929 134.658 191.929 134.658C191.929 134.658 196.589 118.596 191.929 99.4104C191.82 98.9606 191.712 98.5169 191.606 98.0788L191.591 98.017L191.586 97.9962C188.451 85.0526 186.523 77.0934 176.963 67.2861C168.768 58.8791 161.343 56.4147 150.994 52.9798C149.734 52.5618 148.431 52.1293 147.078 51.67C147.078 51.67 147.719 50.1323 148.547 47.6544C148.547 47.6544 140.09 45.5003 134.589 44.5312C126.652 43.133 122.131 42.3601 114.071 42.3004C108.487 42.259 105.321 42.3595 99.7982 43.1927C95.1336 43.8965 88.0188 45.8698 88.0188 45.8698C87.8524 46.4939 87.6156 47.0952 87.309 47.6544C86.364 49.3783 85.8656 49.8885 84.1 50.5852C83.1175 50.9241 82.1077 51.2853 81.0645 51.67C69.5703 55.9087 62.7204 58.8282 53.856 67.2861C43.1311 77.5191 38.8124 85.9438 35.1223 100.303ZM99.7982 38.731C95.1477 39.4864 88.0188 41.3385 88.0188 41.3385C87.2451 38.4528 84.9429 36.054 81.0645 36.054C77.3931 29.7025 78.3329 24.1237 81.0645 17.3147C83.796 10.5057 97.1219 -0.357479 114.071 -0.978232C131.021 -1.59898 146.649 11.2068 150.201 18.2072C153.753 25.2075 151.939 35.8054 149.907 43.1927C149.907 43.1927 148.184 42.7303 145.74 42.1176C145.74 42.1176 139.786 32.078 134.143 28.0227C127.864 23.5105 116.302 22.6687 116.302 22.6687C116.302 22.6687 128.344 25.4712 133.697 30.6998C137.089 34.0123 140.388 40.8302 140.388 40.8302C138.877 40.4846 137.346 40.1521 135.927 39.8745C135.927 39.8745 126.185 31.6864 118.978 29.8074C107.571 26.8335 91.7694 38.731 91.7694 38.731C91.7694 38.731 108.528 29.3764 118.978 32.4845C123.78 33.9128 130.129 38.8294 130.129 38.8294C124.677 37.8815 120.498 37.3228 114.071 37.3925C108.473 37.4532 105.324 37.8334 99.7982 38.731Z" fill="black"/>
<path d="M178.747 207.83C177.207 214.112 169.381 223 169.381 223C169.381 223 180.018 214.361 181.87 206.491C183.059 201.434 181.556 197.415 179.963 193.159C178.879 190.262 177.754 187.256 177.409 183.737C176.827 177.807 177.326 173.854 177.888 169.391C178.223 166.735 178.581 163.898 178.747 160.355C179.271 149.193 179.542 131.791 179.542 131.791C178.461 138.907 177.033 148.31 175.625 160.982C175.111 165.61 175.189 168.756 175.263 171.702C175.317 173.868 175.368 175.925 175.179 178.383C174.953 181.328 175.057 183.305 175.13 184.678C175.157 185.184 175.179 185.608 175.179 185.968C175.179 186.279 175.485 187.17 175.928 188.461C177.39 192.716 180.344 201.317 178.747 207.83Z" fill="#292929"/>
<path d="M78 153C78 149.686 80.6863 147 84 147C87.3137 147 90 149.686 90 153V155V156V166C90 169.314 87.3137 172 84 172C80.6863 172 78 169.314 78 166V156V155V153Z" fill="black"/>
<path d="M138 153C138 149.686 140.686 147 144 147C147.314 147 150 149.686 150 153V166C150 169.314 147.314 172 144 172C140.686 172 138 169.314 138 166V153Z" fill="black"/>
<path d="M74 191.5C74 194.538 67.0604 197 58.5 197C49.9396 197 43 194.538 43 191.5C43 188.462 49.9396 186 58.5 186C67.0604 186 74 188.462 74 191.5Z" fill="#F9A9E7"/>
<path d="M187 191.5C187 194.538 180.06 197 171.5 197C162.94 197 156 194.538 156 191.5C156 188.462 162.94 186 171.5 186C180.06 186 187 188.462 187 191.5Z" fill="#F9A9E7"/>
<path d="M105.147 195.763C105.312 194.942 106.307 194.525 107.064 194.881C108.569 195.588 111.114 196.469 114.5 196.5C118.11 196.533 121.06 195.581 122.798 194.842C123.562 194.518 124.5 195.072 124.5 195.903C124.5 196.274 124.308 196.616 123.977 196.784C122.692 197.439 119.142 199 114.5 199C110.08 199 106.933 197.584 105.646 196.884C105.245 196.666 105.058 196.21 105.147 195.763Z" fill="black"/>
<path d="M78 155C78 155 76.8027 155.562 76 155.5C75.7414 155.48 75.4353 155.389 75.1673 155.289C74.8554 155.174 74.5 155.395 74.5 155.728C74.5 155.895 74.5932 156.048 74.7457 156.116C75.0523 156.254 75.5867 156.468 76 156.5C76.8027 156.562 78 156 78 156V155Z" fill="black"/>
<path d="M152 155.5C151.197 155.562 150 155 150 155V156C150 156 151.197 156.562 152 156.5C152.413 156.468 152.948 156.254 153.254 156.116C153.407 156.048 153.5 155.895 153.5 155.728C153.5 155.395 153.145 155.174 152.833 155.289C152.565 155.389 152.259 155.48 152 155.5Z" fill="black"/>
</g>
<defs>
<clipPath id="clip0_1043_511">
<rect width="230" height="475" fill="white"/>
</clipPath>
</defs>
</svg>
