<svg width="230" height="475" viewBox="0 0 230 475" fill="none" xmlns="http://www.w3.org/2000/svg">
<g clip-path="url(#clip0_1043_546)">
<path d="M178.985 332.783C179.615 326.861 187 297.176 187 297.176C187 297.176 178.369 258.692 163.389 240.765C153.661 229.123 135.526 215.815 135.526 215.815L135.203 215.55C125.259 217 116.743 217 114.8 217C112.908 217 106.247 216.912 97.7957 215.661L96.5149 216.899C96.5149 216.899 77.4561 226.718 67.0067 242.393C56.5573 258.067 43 297.176 43 297.176C43 297.176 54.5606 329.869 55.5613 334.142C56.3198 337.381 60.2014 342.051 64.2083 346.181C64.2083 346.181 60.3023 367.056 59.2069 380.619C56.7299 411.289 64.2083 459.268 64.2083 459.268C64.2083 459.268 70.4947 474.227 78.5099 474C86.4131 473.776 91.9975 458.901 91.9975 458.901L101 409L115.02 382.333L128.998 409.971L137.5 461.5C137.5 461.5 143.485 473.698 150.53 474C158.515 474.342 164.736 459.268 164.736 459.268C164.736 459.268 171.854 411.449 171.238 380.619C170.969 367.14 169.008 346.181 169.008 346.181C173.868 341.639 178.604 336.366 178.985 332.783Z" fill="#FFCEB4"/>
<path d="M55.1636 184.709C55.1636 194.455 58.1258 199.7 64.0363 203.764C74.3042 210.823 87.4035 214.122 97.7957 215.661C106.247 216.912 112.908 217 114.8 217C116.743 217 125.259 217 135.203 215.55C146.847 213.852 160.449 210.166 167.745 202.164C171.803 197.713 174.219 194.219 174.436 188.2C174.336 187.064 174.364 185.851 174.497 184.564C175.41 175.792 181.262 163.601 185.202 149.218C190.159 131.122 192.088 109.556 177.345 86.9637C166.145 69.8001 144.764 57 114.8 57C92.5455 57 64.3273 70.3819 53.7091 88.1273C35.9665 117.779 41.6452 133.678 47.9592 151.255L47.981 151.315C51.4789 161.052 55.1636 171.31 55.1636 184.709Z" fill="#FFCEB4"/>
<path d="M47.9592 151.255C47.9592 151.255 43.2364 144.564 35.6727 144.564C26.0727 144.564 22 152.568 22 160.564C22 169 26.7203 176.581 35.6727 181.655C42.3756 185.454 55.1636 184.709 55.1636 184.709C55.1636 171.31 51.4789 161.052 47.981 151.315L47.9592 151.255Z" fill="#FFCEB4"/>
<path d="M198.436 145C193.113 144.03 185.202 149.218 185.202 149.218C181.262 163.601 175.41 175.792 174.497 184.564C174.497 184.564 187.066 185.421 193.782 182.382C203.471 177.997 206.727 170.309 207.891 161.146C208.862 153.5 206.019 146.382 198.436 145Z" fill="#FFCEB4"/>
<path d="M55.1636 184.709C55.1636 194.455 58.1258 199.7 64.0363 203.764C74.3042 210.823 87.4035 214.122 97.7957 215.661M55.1636 184.709C55.1636 184.709 42.3756 185.454 35.6727 181.655C26.7203 176.581 22 169 22 160.564C22 152.568 26.0727 144.564 35.6727 144.564C43.2364 144.564 47.9592 151.255 47.9592 151.255M55.1636 184.709C55.1636 171.31 51.4789 161.052 47.981 151.315M185.202 149.218C190.159 131.122 192.088 109.556 177.345 86.9637C166.145 69.8001 144.764 57 114.8 57C92.5455 57 64.3273 70.3819 53.7091 88.1273C35.9665 117.779 41.6452 133.678 47.9592 151.255M185.202 149.218C185.202 149.218 193.113 144.03 198.436 145C206.019 146.382 208.862 153.5 207.891 161.146C206.727 170.309 203.471 177.997 193.782 182.382C187.066 185.421 174.497 184.564 174.497 184.564M185.202 149.218C181.262 163.601 175.41 175.792 174.497 184.564M174.497 184.564C174.364 185.851 174.336 187.064 174.436 188.2C174.219 194.219 171.803 197.713 167.745 202.164C160.449 210.166 146.847 213.852 135.203 215.55M47.9592 151.255L47.981 151.315M47.9592 151.255C47.9665 151.275 47.9737 151.295 47.981 151.315M97.7957 215.661L96.5149 216.899C96.5149 216.899 77.4561 226.718 67.0067 242.393C56.5573 258.067 43 297.176 43 297.176C43 297.176 54.5606 329.869 55.5613 334.142C56.3198 337.381 60.2014 342.051 64.2083 346.181C64.2083 346.181 60.3023 367.056 59.2069 380.619C56.73 411.289 64.2083 459.268 64.2083 459.268C64.2083 459.268 70.4947 474.227 78.5099 474C86.4131 473.776 91.9975 458.901 91.9975 458.901L101 409L115.02 382.333L128.998 409.971L137.5 461.5C137.5 461.5 143.485 473.698 150.53 474C158.515 474.342 164.736 459.268 164.736 459.268C164.736 459.268 171.854 411.449 171.238 380.619C170.969 367.14 169.008 346.181 169.008 346.181C173.868 341.639 178.604 336.366 178.985 332.783C179.615 326.861 187 297.176 187 297.176C187 297.176 178.369 258.692 163.389 240.765C153.661 229.123 135.526 215.815 135.526 215.815L135.203 215.55M97.7957 215.661C106.247 216.912 112.908 217 114.8 217C116.743 217 125.259 217 135.203 215.55" stroke="black" stroke-width="2" stroke-linejoin="round"/>
<path d="M102.591 128.902C102.591 128.902 100.797 125.75 100.845 121.24C100.902 115.843 106.219 112.324 109.975 109.838C111.812 108.622 113.276 107.653 113.568 106.833C113.568 106.833 110.065 106.487 107.86 106.833C105.553 107.196 102.152 108.711 102.152 108.711C102.152 108.711 93.5904 105.242 91.615 100.129C88.8547 92.9851 98.6398 81.8165 98.6398 81.8165C98.6398 81.8165 87.2245 91.6772 87.2245 100.129C87.2245 104.547 99.957 112.807 99.957 112.807C99.957 112.807 96.1228 113.37 95.1274 116.564C94.3658 119.007 100.54 126.494 102.192 128.437C102.444 128.721 102.591 128.902 102.591 128.902Z" fill="#292929"/>
<path d="M117.519 86.0425L115.324 94.9641C115.324 94.9641 107.93 88.3056 105.665 91.2076C104.202 93.0819 104.642 95.0815 105.226 97.4421C106.289 101.748 113.568 104.547 113.568 104.547C113.018 103.093 111.478 101.912 109.994 100.773C107.902 99.1675 105.919 97.6468 106.982 95.5637C108.564 92.461 110.99 95.7931 113.881 99.7653C115.803 102.406 117.93 105.329 120.153 106.833C123.283 108.951 125.771 109.622 128.591 110.383C130.157 110.806 131.826 111.257 133.764 111.998C137.008 113.24 143.25 117.396 144.875 120.496C144.089 118.659 141.79 113.816 138.154 110.459C135.444 107.957 131.447 107.097 127.791 106.309C123.024 105.283 118.836 104.381 118.836 100.129C118.836 99.0035 118.614 98.0848 118.391 97.162C118.129 96.0793 117.866 94.9909 117.958 93.5554C118.13 90.8965 117.519 86.0425 117.519 86.0425Z" fill="#292929"/>
<path d="M166.948 133.598C170.998 137.388 176.168 140.172 179.681 140.172C179.681 140.172 164.898 130.195 161.863 121.859C159.057 114.152 164.937 103.886 164.937 103.886C164.937 103.886 158.057 108.713 155.717 112.807C154.07 115.688 154.592 119.527 155.114 123.372C155.529 126.422 155.945 129.476 155.277 132.059C154.225 136.132 150.448 137.803 150.448 137.803C153.383 137.661 156.062 137.194 157.034 136.415C160.546 133.598 158.351 121.389 158.351 121.389L166.948 133.598Z" fill="#292929"/>
<path d="M51.2479 255.812C50.1228 258.109 48.588 259.309 48.588 259.309C48.588 259.309 58.6309 257.033 60.0033 251.586C60.6507 249.017 59.4952 247.217 58.2692 245.307C57.2875 243.778 56.2606 242.179 56.0774 240.057C55.5231 233.638 60.0033 224.092 60.0033 224.092C60.0033 224.092 52.5579 230.777 51.2479 236.77C50.4938 240.221 51.2479 245.843 51.2479 245.843C53.4879 247.29 52.7561 252.733 51.2479 255.812Z" fill="#292929"/>
<path d="M13.4639 238.908C13.3147 242.304 23.3308 245.468 26.1964 245.692C24.7683 245.416 20.7972 239.315 21.3924 237.24C21.3924 237.24 21.601 233.812 22.684 232.075C23.4718 230.811 25.1042 230.042 26.9202 229.187C29.1521 228.136 31.6614 226.954 33.2212 224.562C37.3451 218.238 34.0993 204.841 34.0993 204.841C34.0993 204.841 34.9591 218.379 29.7088 222.684C27.6163 224.399 23.123 225.141 23.123 225.141C24.1191 225.697 24.8984 226.223 25.3438 226.699C26.1007 227.509 24.0434 228.873 21.4378 230.601C17.9972 232.883 13.6005 235.798 13.4639 238.908Z" fill="#292929"/>
<path d="M204.916 243.604C208.777 243.123 214.723 237.292 214.988 233.144C215.005 232.892 215.004 232.655 214.988 232.429C214.988 232.429 211.133 229.183 206.207 225.971C205.305 225.382 204.087 224.972 202.878 224.566C200.661 223.82 198.477 223.085 198.33 221.275C198.051 217.83 200.718 216.032 203.381 214.237C206.052 212.436 208.717 210.639 208.403 207.188C208.046 203.276 204.498 202.386 200.888 201.481C197.351 200.595 193.753 199.693 193.036 195.919C191.746 189.133 200.5 180.084 200.5 180.084C200.5 180.084 187.441 188.103 188.645 195.919C189.217 199.627 192.517 200.604 195.838 201.586C199.129 202.56 202.439 203.539 203.134 207.188C203.829 210.837 201.297 212.987 198.702 215.19C196.082 217.415 193.399 219.693 193.914 223.623C194.47 227.867 198.265 228.262 201.944 228.645C205.666 229.032 209.27 229.408 209.281 233.743C209.292 238.003 204.916 243.604 204.916 243.604Z" fill="#292929"/>
<path d="M53.004 152.979C55.4044 148.945 55.1993 134.666 55.1993 134.666C57.6898 135.271 58.997 135.077 60.3559 134.876C61.0552 134.772 61.7681 134.666 62.6631 134.666C63.9981 134.666 63.921 135.762 63.8324 137.021C63.7462 138.247 63.6492 139.627 64.8329 140.301C68.6254 142.461 72.2971 139.253 74.053 134.666C74.1513 134.409 73.5245 133.499 72.6787 132.271C70.8584 129.627 68.0243 125.512 69.2234 123.268C70.9796 119.981 89.9731 123.268 89.8588 127.494C89.7775 130.502 87.6636 134.666 87.6636 134.666C87.6636 134.666 93.7322 126.764 92.0541 123.607C90.1705 120.064 87.9793 119.95 84.5195 119.771C83.2624 119.705 81.8378 119.631 80.1997 119.381L80.1627 119.375C76.3014 118.786 72.5427 118.211 71.4187 114.216C70.314 110.289 75.8092 104.825 75.8092 104.825C75.8092 104.825 69.2354 107.554 68.7843 111.998C68.5605 114.204 68.7843 118.442 68.7843 118.442C68.7843 118.442 66.4267 119.243 64.8329 121.24C63.6999 122.659 63.7884 124.202 63.8747 125.705C63.9666 127.307 64.0559 128.864 62.6631 130.181C60.8167 131.927 58.8764 132.253 56.4909 131.59C53.3032 130.704 52.158 127.924 51.2223 124.546C49.6297 118.798 56.93 110.459 56.93 110.459C56.93 110.459 49.2118 116.245 48.588 121.859C48.0503 126.697 52.5394 133.598 52.5394 133.598C52.5394 133.598 50.8095 139.13 50.6437 142.859C50.4458 147.311 53.004 152.979 53.004 152.979Z" fill="#292929"/>
<path d="M49.027 166.233C48.3645 165.296 47.6435 164.329 46.8574 163.309L50.6437 156.946C50.6437 156.946 46.3775 156.739 43.7584 157.415C39.5368 158.505 34.0993 163.309 34.0993 163.309C34.0993 163.309 39.2298 161.361 42.4413 162.111C45.3527 162.79 49.027 166.233 49.027 166.233Z" fill="#292929"/>
<path fill-rule="evenodd" clip-rule="evenodd" d="M102.192 128.437C102.444 128.735 102.591 128.902 102.591 128.902C102.591 128.902 102.444 128.721 102.192 128.437ZM144.875 120.496C145.077 120.967 145.179 121.24 145.179 121.24C145.112 121.001 145.01 120.752 144.875 120.496Z" fill="black"/>
<path d="M174.157 158.015C176.791 160.832 178.108 158.484 178.108 158.484C178.108 158.484 176.121 175.335 174.621 182.901C174.621 182.901 177.191 170.611 181.182 163.989C184.337 158.753 191.28 152.25 191.28 152.25C191.28 152.25 187.348 154.851 183.816 156.007C180.623 157.052 174.157 158.015 174.157 158.015Z" fill="#292929"/>
<path d="M19.6106 159.424C19.6106 159.424 4.24358 171.761 6.43884 182.091C6.43884 182.091 9.69398 175.387 12.3595 171.502C17.9254 163.39 30.1478 154.128 30.1478 154.128C30.1478 154.128 24.3855 157.288 20.4887 156.946C16.842 156.625 11.8848 152.979 11.8848 152.979C14.9039 156.901 19.6106 159.424 19.6106 159.424Z" fill="#292929"/>
<path d="M27.8878 81.1642C26.3364 83.5064 24.7203 85.9464 24.8792 88.5205C24.923 89.2299 25.0605 89.7946 25.2655 90.2685C25.2655 90.2685 30.1072 80.6076 34.9774 76.1818C40.2164 71.4208 50.4847 68.1776 52.2713 67.6379L38.5728 71.7068L38.5673 71.7087C38.2108 71.8316 37.82 71.9393 37.4037 72.0541C35.1291 72.681 32.0903 73.5186 29.7088 78.1902C29.2116 79.1654 28.5557 80.1557 27.8878 81.1642Z" fill="#292929"/>
<path d="M206.561 86.2556C205.047 86.0743 203.454 85.8836 201.817 85.2334C201.817 85.2334 197.731 83.0704 194.718 80.1108C195.251 81.0903 195.614 82.4427 195.231 84.1643C194.36 88.0801 189.507 90.4545 188.131 91.0558C190.384 90.1372 202.551 85.4878 209.281 89.3294C212.524 91.181 216.306 96.0332 216.306 96.0332C214.07 87.1546 210.597 86.7388 206.561 86.2556Z" fill="#292929"/>
<path d="M214.11 159.893C214.11 155.53 215.887 151.736 217.604 148.068C219.318 144.408 220.973 140.872 220.747 137.021C220.747 137.021 211.651 145.506 210.159 152.979C209.811 154.721 210.129 156.252 210.434 157.722C210.82 159.581 211.186 161.342 210.159 163.309C208.086 167.28 200.5 168.685 200.5 168.685C200.5 168.685 208.587 168.591 212.294 165.398C213.145 164.665 214.298 163.309 214.298 163.309C214.176 162.285 214.11 161.152 214.11 159.893Z" fill="#292929"/>
<path d="M154.399 26.539C150.887 23.7216 142.447 25.4218 139.911 26.5388C136.115 28.2102 134.817 29.915 133.708 31.3723C132.636 32.7808 131.74 33.958 128.934 34.6504C126.33 35.2931 124.914 34.0517 123.31 32.6455C121.399 30.9697 119.22 29.0598 114.446 29.8258C110.391 30.4762 108.022 31.6272 105.954 32.6316C103.543 33.8025 101.543 34.7741 97.7617 34.5214C95.0744 34.3417 93.3777 32.5473 91.6331 30.7022C88.8173 27.7241 85.8765 24.6139 78.4435 27.9475C70.1963 31.6464 70.1894 34.9172 70.1833 37.8068C70.1793 39.686 70.1757 41.4039 67.9062 42.9734C63.3585 46.1185 60.8073 46.1337 54.9505 46.1687C53.3903 46.178 51.5956 46.1887 49.4661 46.2603C40.2557 46.5701 40.5281 60.6964 40.6523 67.1323C40.6646 67.7705 40.6754 68.3331 40.6754 68.7991C40.6754 70.6348 39.8427 71.268 38.5728 71.7068L52.2713 67.6379C52.4459 67.5852 52.5394 67.5583 52.5394 67.5583L52.2713 67.6379C50.4847 68.1776 40.2164 71.4208 34.9774 76.1818C30.1072 80.6076 25.2655 90.2685 25.2655 90.2685C25.6647 91.1914 26.3197 91.77 27.0368 92.4034C28.1766 93.4103 29.4731 94.5556 30.1478 97.4421C30.6887 99.7561 28.6856 100.011 25.9956 100.354C22.1353 100.845 16.8604 101.517 15.6591 108.711C14.513 115.576 16.541 117.859 18.0837 119.596C19.4957 121.185 20.501 122.317 18.2934 126.085C17.4402 127.541 16.6467 128.844 15.9117 130.051C12.6676 135.377 10.5652 138.829 9.5122 145.337C9.05089 148.188 10.2074 150.8 11.8848 152.979C11.8848 152.979 16.842 156.625 20.4887 156.946C24.3855 157.288 30.1478 154.128 30.1478 154.128C30.1478 154.128 17.9254 163.39 12.3595 171.502C9.69398 175.387 6.43884 182.091 6.43884 182.091C7.66232 187.849 12.1668 191.17 15.9151 193.933C18.8923 196.128 21.3924 197.971 21.3924 200.404C21.3924 203.206 16.5477 205.673 12.3595 207.806C9.52767 209.248 6.99592 210.537 6.46463 211.674C5.75431 213.193 5.99374 214.411 6.29477 215.941C6.35118 216.228 6.40975 216.526 6.46463 216.839C6.63971 217.837 10.7183 219.576 15.0804 221.436C17.9944 222.679 21.035 223.975 23.123 225.141C23.123 225.141 27.6163 224.399 29.7088 222.684C34.9591 218.379 34.0993 204.841 34.0993 204.841C34.0993 204.841 37.3451 218.238 33.2212 224.562C31.6614 226.954 29.1521 228.136 26.9202 229.187C25.1042 230.042 23.4718 230.811 22.684 232.075C21.601 233.812 21.3924 237.24 21.3924 237.24C22.2728 234.171 23.4932 233.714 25.9407 232.799C26.8671 232.452 27.9692 232.04 29.2952 231.395C31.1845 230.477 32.5356 232.103 33.6858 233.743C35.229 235.943 33.6858 240.786 33.6858 240.786C33.6858 240.786 38.5153 240.786 40.7106 238.908C41.6899 238.07 41.2918 239.182 40.697 240.843C39.9583 242.906 38.9164 245.816 39.8325 246.89C41.2874 248.597 43.2084 247.75 45.3655 246.798C46.8048 246.163 48.3493 245.482 49.9307 245.482C50.4523 245.482 50.8884 245.611 51.2479 245.843C51.2479 245.843 50.4938 240.221 51.2479 236.77C52.5579 230.777 60.0033 224.092 60.0033 224.092C60.0033 224.092 55.5231 233.638 56.0774 240.057C56.2606 242.179 57.2875 243.778 58.2692 245.307C59.4952 247.217 60.6507 249.017 60.0033 251.586C58.6309 257.033 48.588 259.309 48.588 259.309C48.588 259.309 52.731 259.851 56.0774 258.16C57.4107 257.486 58.5126 256.848 59.5 256.14L63.9804 246.5L73.5 234L89.5 221L98.5 215.817C59.2781 210.942 55.1993 190.284 55.1993 190.284C54.9977 189.206 54.9192 188.078 54.8343 186.857C54.7342 185.419 54.6253 183.853 54.2957 182.091C54.1931 181.543 54.0952 181.012 54 180.495C52.9229 174.647 52.1998 170.72 49.027 166.233C49.027 166.233 45.3527 162.79 42.4413 162.111C39.2298 161.361 34.0993 163.309 34.0993 163.309C34.0993 163.309 39.5368 158.505 43.7584 157.415C46.3775 156.739 50.6437 156.946 50.6437 156.946L53.004 152.979C53.004 152.979 50.4458 147.311 50.6437 142.859C50.8095 139.13 52.5394 133.598 52.5394 133.598C52.5394 133.598 48.0503 126.697 48.588 121.859C49.2118 116.245 56.93 110.459 56.93 110.459C56.93 110.459 49.6297 118.798 51.2223 124.546C52.158 127.924 53.3032 130.704 56.4909 131.59C58.8764 132.253 60.8167 131.927 62.6631 130.181C64.0559 128.864 63.9666 127.307 63.8747 125.705C63.7884 124.202 63.6999 122.659 64.8329 121.24C66.4267 119.243 68.7843 118.442 68.7843 118.442C68.7843 118.442 68.5605 114.204 68.7843 111.998C69.2354 107.554 75.8092 104.825 75.8092 104.825C75.8092 104.825 70.314 110.289 71.4187 114.216C72.5427 118.211 76.3014 118.786 80.1627 119.375L80.1997 119.381C81.8378 119.631 83.2624 119.705 84.5195 119.771C87.9793 119.95 90.1705 120.064 92.0541 123.607C93.7322 126.764 87.6636 134.666 87.6636 134.666C87.6636 134.666 94.2493 132.189 95.5665 127.024C96.6722 122.688 100.872 126.955 102.192 128.437C100.54 126.494 94.3658 119.007 95.1274 116.564C96.1228 113.37 99.957 112.807 99.957 112.807C99.957 112.807 87.2245 104.547 87.2245 100.129C87.2245 91.6772 98.6398 81.8165 98.6398 81.8165C98.6398 81.8165 88.8547 92.9851 91.615 100.129C93.5904 105.242 102.152 108.711 102.152 108.711C102.152 108.711 105.553 107.196 107.86 106.833C110.065 106.487 113.568 106.833 113.568 106.833C113.866 105.993 113.829 105.239 113.568 104.547C113.568 104.547 106.289 101.748 105.226 97.4421C104.642 95.0815 104.202 93.0819 105.665 91.2076C107.93 88.3056 115.324 94.9641 115.324 94.9641L117.519 86.0425C117.519 86.0425 118.13 90.8965 117.958 93.5554C117.866 94.9909 118.129 96.0793 118.391 97.162C118.614 98.0848 118.836 99.0035 118.836 100.129C118.836 104.381 123.024 105.283 127.791 106.309C131.447 107.097 135.444 107.957 138.154 110.459C141.79 113.816 144.089 118.659 144.875 120.496C145.01 120.752 145.112 121.001 145.179 121.24C145.651 122.926 144.502 124.578 143.176 126.483C141.417 129.011 139.348 131.984 140.35 136.075C140.689 137.462 145.879 138.024 150.448 137.803C150.448 137.803 154.225 136.132 155.277 132.059C155.945 129.476 155.529 126.422 155.114 123.372C154.592 119.527 154.07 115.688 155.717 112.807C158.057 108.713 164.937 103.886 164.937 103.886C164.937 103.886 159.057 114.152 161.863 121.859C164.898 130.195 179.681 140.172 179.681 140.172C181.368 140.172 179.552 143.639 177.501 147.555C175.282 151.79 172.788 156.551 174.157 158.015C174.157 158.015 180.623 157.052 183.816 156.007C187.348 154.851 191.28 152.25 191.28 152.25C191.28 152.25 184.337 158.753 181.182 163.989C177.191 170.611 174.621 182.901 174.621 182.901C171.312 199.592 167.071 202.855 164.914 204.516L164.912 204.517C164.764 204.631 164.625 204.738 164.498 204.841C164.498 204.841 158.469 212.686 135.5 215.689L151 228L164.498 241.5L168.366 248.04C173.344 244.739 177.744 241.406 176.352 235.362C175.531 231.798 171.471 230.854 167.601 229.954C163.313 228.958 159.259 228.015 160.107 223.623C161.053 218.723 165.376 215.64 165.376 215.64C165.376 215.64 162.286 220.434 163.18 223.623C163.72 225.547 166.552 225.983 169.824 226.488C174.539 227.215 180.17 228.083 181.182 233.743C182.61 241.732 174.182 253.464 174.182 253.464C181.114 259.74 193.914 259.309 196.109 253.464L196.987 240.786C198.38 240.473 199.708 241.315 201.043 242.162C202.307 242.964 203.578 243.77 204.916 243.604C204.916 243.604 209.292 238.003 209.281 233.743C209.27 229.408 205.666 229.032 201.944 228.645C198.265 228.262 194.47 227.867 193.914 223.623C193.399 219.693 196.082 217.415 198.702 215.19C201.297 212.987 203.829 210.837 203.134 207.188C202.439 203.539 199.129 202.56 195.838 201.586C192.517 200.604 189.217 199.627 188.645 195.919C187.441 188.103 200.5 180.084 200.5 180.084C200.5 180.084 191.746 189.133 193.036 195.919C193.753 199.693 197.351 200.595 200.888 201.481C204.498 202.386 208.046 203.276 208.403 207.188C208.717 210.639 206.052 212.436 203.381 214.237C200.718 216.032 198.051 217.83 198.33 221.275C198.477 223.085 200.661 223.82 202.878 224.566C204.087 224.972 205.305 225.382 206.207 225.971C211.133 229.183 214.988 232.429 214.988 232.429C214.859 230.557 213.684 229.529 212.294 228.313C211.887 227.956 211.461 227.584 211.037 227.169C211.037 227.169 224.209 216.71 224.209 213.892C224.209 213.254 224.227 212.634 224.244 212.037C224.398 206.725 224.502 203.14 211.502 203.562C207.881 203.679 205.827 198.583 206.646 194.64C206.992 192.976 210.537 191.677 214.574 190.196C220.79 187.916 228.174 185.208 226.843 180.084C225.964 176.701 223.749 175.349 221.408 173.92C218.361 172.061 215.102 170.073 214.298 163.309C214.298 163.309 213.145 164.665 212.294 165.398C208.587 168.591 200.5 168.685 200.5 168.685C200.5 168.685 208.086 167.28 210.159 163.309C211.186 161.342 210.82 159.581 210.434 157.722C210.129 156.252 209.811 154.721 210.159 152.979C211.651 145.506 220.747 137.021 220.747 137.021C220.735 136.82 220.718 136.618 220.696 136.415C220.194 131.853 217.744 131.424 215.948 131.11C214.602 130.874 213.623 130.703 214.11 128.902C214.7 126.724 215.99 125.858 217.212 125.039C218.347 124.277 219.422 123.556 219.818 121.859C220.664 118.238 218.094 117.31 215.222 116.273C212.88 115.427 210.336 114.509 209.281 111.998C207.957 108.85 209.789 107.754 211.973 106.448C214.717 104.806 218.017 102.832 216.306 96.0332C216.306 96.0332 212.524 91.181 209.281 89.3294C202.551 85.4878 190.384 90.1372 188.131 91.0558C187.9 91.1567 187.767 91.2076 187.767 91.2076C187.767 91.2076 187.894 91.1523 188.131 91.0558C189.507 90.4545 194.36 88.0801 195.231 84.1643C195.614 82.4427 195.251 81.0903 194.718 80.1108C194.096 79.5004 193.521 78.8562 193.036 78.1901C190.532 74.7496 190.833 71.0966 191.124 67.5583C191.434 63.7986 191.734 60.1683 188.645 57.06C185.117 53.5082 180.803 53 176.632 52.5086C171.98 51.9607 167.507 51.4337 164.498 46.73C162.1 42.983 161.484 40.0642 160.926 37.4172C160.154 33.7617 159.492 30.6242 154.399 26.539Z" fill="black"/>
<path d="M174.182 253.464C174.182 253.464 182.61 241.732 181.182 233.743C180.17 228.083 174.539 227.215 169.824 226.488C166.552 225.983 163.72 225.547 163.18 223.623C162.286 220.434 165.376 215.64 165.376 215.64C165.376 215.64 161.053 218.723 160.107 223.623C159.259 228.015 163.313 228.958 167.601 229.954C171.471 230.854 175.531 231.798 176.352 235.362C177.744 241.406 173.344 244.739 168.366 248.04L169.5 250.317C170.226 249.668 170.67 249.238 170.67 249.238C172.566 252.28 172.736 252.393 173.27 252.75C173.477 252.889 173.74 253.064 174.182 253.464Z" fill="#292929"/>
<path fill-rule="evenodd" clip-rule="evenodd" d="M42.4413 162.111C45.3527 162.79 49.027 166.233 49.027 166.233C48.3645 165.296 47.6435 164.329 46.8574 163.309L50.6437 156.946C50.6437 156.946 46.3775 156.739 43.7584 157.415C39.5368 158.505 34.0993 163.309 34.0993 163.309C34.0993 163.309 39.2298 161.361 42.4413 162.111ZM53.004 152.979C55.4044 148.945 55.1993 134.666 55.1993 134.666C57.6898 135.271 58.997 135.077 60.3559 134.876C61.0552 134.772 61.7681 134.666 62.6631 134.666C63.9981 134.666 63.921 135.762 63.8324 137.021C63.7462 138.247 63.6492 139.627 64.8329 140.301C68.6254 142.461 72.2971 139.253 74.053 134.666C74.1513 134.409 73.5245 133.499 72.6787 132.271C70.8584 129.627 68.0243 125.512 69.2234 123.268C70.9796 119.981 89.9731 123.268 89.8588 127.494C89.7775 130.502 87.6636 134.666 87.6636 134.666C87.6636 134.666 93.7322 126.764 92.0541 123.607C90.1705 120.064 87.9793 119.95 84.5195 119.771C83.2624 119.705 81.8378 119.631 80.1997 119.381L80.1627 119.375C76.3014 118.786 72.5427 118.211 71.4187 114.216C70.314 110.289 75.8092 104.825 75.8092 104.825C75.8092 104.825 69.2354 107.554 68.7843 111.998C68.5605 114.204 68.7843 118.442 68.7843 118.442C68.7843 118.442 66.4267 119.243 64.8329 121.24C63.6999 122.659 63.7884 124.202 63.8747 125.705C63.9666 127.307 64.0559 128.864 62.6631 130.181C60.8167 131.927 58.8764 132.253 56.4909 131.59C53.3032 130.704 52.158 127.924 51.2223 124.546C49.6297 118.798 56.93 110.459 56.93 110.459C56.93 110.459 49.2118 116.245 48.588 121.859C48.0503 126.697 52.5394 133.598 52.5394 133.598C52.5394 133.598 50.8095 139.13 50.6437 142.859C50.4458 147.311 53.004 152.979 53.004 152.979ZM102.192 128.437C102.444 128.735 102.591 128.902 102.591 128.902C102.591 128.902 100.797 125.75 100.845 121.24C100.902 115.843 106.219 112.324 109.975 109.838C111.812 108.622 113.276 107.653 113.568 106.833C113.568 106.833 110.065 106.487 107.86 106.833C105.553 107.196 102.152 108.711 102.152 108.711C102.152 108.711 93.5904 105.242 91.615 100.129C88.8547 92.9851 98.6398 81.8165 98.6398 81.8165C98.6398 81.8165 87.2245 91.6772 87.2245 100.129C87.2245 104.547 99.957 112.807 99.957 112.807C99.957 112.807 96.1228 113.37 95.1274 116.564C94.3658 119.007 100.54 126.494 102.192 128.437ZM113.568 104.547C113.018 103.093 111.478 101.912 109.994 100.773C107.902 99.1675 105.919 97.6468 106.982 95.5637C108.564 92.461 110.99 95.7931 113.881 99.7653C115.803 102.406 117.93 105.329 120.153 106.833C123.283 108.951 125.771 109.622 128.591 110.383C130.157 110.806 131.826 111.257 133.764 111.998C137.008 113.24 143.25 117.396 144.875 120.496C145.077 120.967 145.179 121.24 145.179 121.24C145.112 121.001 145.01 120.752 144.875 120.496C144.089 118.659 141.79 113.816 138.154 110.459C135.444 107.957 131.447 107.097 127.791 106.309C123.024 105.283 118.836 104.381 118.836 100.129C118.836 99.0035 118.614 98.0848 118.391 97.162C118.129 96.0793 117.866 94.9909 117.958 93.5554C118.13 90.8965 117.519 86.0425 117.519 86.0425L115.324 94.9641C115.324 94.9641 107.93 88.3056 105.665 91.2076C104.202 93.0819 104.642 95.0815 105.226 97.4421C106.289 101.748 113.568 104.547 113.568 104.547ZM150.448 137.803C153.383 137.661 156.062 137.194 157.034 136.415C160.546 133.598 158.351 121.389 158.351 121.389L166.948 133.598C170.998 137.388 176.168 140.172 179.681 140.172C179.681 140.172 164.898 130.195 161.863 121.859C159.057 114.152 164.937 103.886 164.937 103.886C164.937 103.886 158.057 108.713 155.717 112.807C154.07 115.688 154.592 119.527 155.114 123.372C155.529 126.422 155.945 129.476 155.277 132.059C154.225 136.132 150.448 137.803 150.448 137.803ZM174.157 158.015C176.791 160.832 178.108 158.484 178.108 158.484C178.108 158.484 176.121 175.335 174.621 182.901C174.621 182.901 177.191 170.611 181.182 163.989C184.337 158.753 191.28 152.25 191.28 152.25C191.28 152.25 187.348 154.851 183.816 156.007C180.623 157.052 174.157 158.015 174.157 158.015Z" fill="#292929"/>
<path d="M78 155C78 151.686 80.6863 149 84 149C87.3137 149 90 151.686 90 155V157V158V168C90 171.314 87.3137 174 84 174C80.6863 174 78 171.314 78 168V158V157V155Z" fill="black"/>
<path d="M138 155C138 151.686 140.686 149 144 149C147.314 149 150 151.686 150 155V168C150 171.314 147.314 174 144 174C140.686 174 138 171.314 138 168V155Z" fill="black"/>
<path d="M74 193.5C74 196.538 67.0604 199 58.5 199C49.9396 199 43 196.538 43 193.5C43 190.462 49.9396 188 58.5 188C67.0604 188 74 190.462 74 193.5Z" fill="#F9A9E7"/>
<path d="M187 193.5C187 196.538 180.06 199 171.5 199C162.94 199 156 196.538 156 193.5C156 190.462 162.94 188 171.5 188C180.06 188 187 190.462 187 193.5Z" fill="#F9A9E7"/>
<path d="M105.147 197.763C105.312 196.942 106.307 196.525 107.064 196.881C108.569 197.588 111.114 198.469 114.5 198.5C118.11 198.533 121.06 197.581 122.798 196.842C123.562 196.518 124.5 197.072 124.5 197.903C124.5 198.274 124.308 198.616 123.977 198.784C122.692 199.439 119.142 201 114.5 201C110.08 201 106.933 199.584 105.646 198.884C105.245 198.666 105.058 198.21 105.147 197.763Z" fill="black"/>
<path d="M78 157C78 157 76.8027 157.562 76 157.5C75.7414 157.48 75.4353 157.389 75.1673 157.289C74.8554 157.174 74.5 157.395 74.5 157.728C74.5 157.895 74.5932 158.048 74.7457 158.116C75.0523 158.254 75.5867 158.468 76 158.5C76.8027 158.562 78 158 78 158V157Z" fill="black"/>
<path d="M152 157.5C151.197 157.562 150 157 150 157V158C150 158 151.197 158.562 152 158.5C152.413 158.468 152.948 158.254 153.254 158.116C153.407 158.048 153.5 157.895 153.5 157.728C153.5 157.395 153.145 157.174 152.833 157.289C152.565 157.389 152.259 157.48 152 157.5Z" fill="black"/>
</g>
<defs>
<clipPath id="clip0_1043_546">
<rect width="230" height="475" fill="white"/>
</clipPath>
</defs>
</svg>
