<svg width="230" height="475" viewBox="0 0 230 475" fill="none" xmlns="http://www.w3.org/2000/svg">
<path d="M174.985 331.783C175.615 325.861 183 296.176 183 296.176C183 296.176 174.369 257.692 159.389 239.765C149.661 228.123 131.526 214.815 131.526 214.815L131.203 214.55C121.259 216 112.743 216 110.8 216C108.908 216 102.247 215.912 93.7957 214.661L92.5149 215.899C92.5149 215.899 73.4561 225.718 63.0067 241.393C52.5573 257.067 39 296.176 39 296.176C39 296.176 50.5606 328.869 51.5613 333.142C52.3198 336.381 56.2014 341.051 60.2083 345.181C60.2083 345.181 56.3023 366.056 55.2069 379.619C52.73 410.289 60.2083 458.268 60.2083 458.268C60.2083 458.268 66.4947 473.227 74.5099 473C82.4131 472.776 87.9975 457.901 87.9975 457.901L97 408L111.02 381.333L124.998 408.971L133.5 460.5C133.5 460.5 139.485 472.698 146.53 473C154.515 473.342 160.736 458.268 160.736 458.268C160.736 458.268 167.854 410.449 167.238 379.619C166.969 366.14 165.008 345.181 165.008 345.181C169.868 340.639 174.604 335.366 174.985 331.783Z" fill="#FFCEB4"/>
<path d="M51.1636 183.709C51.1636 193.455 54.1258 198.7 60.0363 202.764C70.3042 209.823 83.4035 213.122 93.7957 214.661C102.247 215.912 108.908 216 110.8 216C112.743 216 121.259 216 131.203 214.55C142.847 212.852 156.449 209.166 163.745 201.164C167.803 196.713 170.219 193.219 170.436 187.2C170.336 186.064 170.364 184.851 170.497 183.564C171.41 174.792 177.262 162.601 181.202 148.218C186.159 130.122 188.088 108.556 173.345 85.9637C162.145 68.8001 140.764 56 110.8 56C88.5455 56 60.3273 69.3819 49.7091 87.1273C31.9665 116.779 37.6452 132.678 43.9592 150.255L43.981 150.315C47.4789 160.052 51.1636 170.31 51.1636 183.709Z" fill="#FFCEB4"/>
<path d="M43.9592 150.255C43.9592 150.255 39.2364 143.564 31.6727 143.564C22.0727 143.564 18 151.568 18 159.564C18 168 22.7203 175.581 31.6727 180.655C38.3756 184.454 51.1636 183.709 51.1636 183.709C51.1636 170.31 47.4789 160.052 43.981 150.315L43.9592 150.255Z" fill="#FFCEB4"/>
<path d="M194.436 144C189.113 143.03 181.202 148.218 181.202 148.218C177.262 162.601 171.41 174.792 170.497 183.564C170.497 183.564 183.066 184.421 189.782 181.382C199.471 176.997 202.727 169.309 203.891 160.146C204.862 152.5 202.019 145.382 194.436 144Z" fill="#FFCEB4"/>
<path d="M51.1636 183.709C51.1636 193.455 54.1258 198.7 60.0363 202.764C70.3042 209.823 83.4035 213.122 93.7957 214.661M51.1636 183.709C51.1636 183.709 38.3756 184.454 31.6727 180.655C22.7203 175.581 18 168 18 159.564C18 151.568 22.0727 143.564 31.6727 143.564C39.2364 143.564 43.9592 150.255 43.9592 150.255M51.1636 183.709C51.1636 170.31 47.4789 160.052 43.981 150.315M181.202 148.218C186.159 130.122 188.088 108.556 173.345 85.9637C162.145 68.8001 140.764 56 110.8 56C88.5455 56 60.3273 69.3819 49.7091 87.1273C31.9665 116.779 37.6452 132.678 43.9592 150.255M181.202 148.218C181.202 148.218 189.113 143.03 194.436 144C202.019 145.382 204.862 152.5 203.891 160.146C202.727 169.309 199.471 176.997 189.782 181.382C183.066 184.421 170.497 183.564 170.497 183.564M181.202 148.218C177.262 162.601 171.41 174.792 170.497 183.564M170.497 183.564C170.364 184.851 170.336 186.064 170.436 187.2C170.219 193.219 167.803 196.713 163.745 201.164C156.449 209.166 142.847 212.852 131.203 214.55M43.9592 150.255L43.981 150.315M43.9592 150.255C43.9665 150.275 43.9737 150.295 43.981 150.315M93.7957 214.661L92.5149 215.899C92.5149 215.899 73.4561 225.718 63.0067 241.393C52.5573 257.067 39 296.176 39 296.176C39 296.176 50.5606 328.869 51.5613 333.142C52.3198 336.381 56.2014 341.051 60.2083 345.181C60.2083 345.181 56.3023 366.056 55.2069 379.619C52.73 410.289 60.2083 458.268 60.2083 458.268C60.2083 458.268 66.4947 473.227 74.5099 473C82.4131 472.776 87.9975 457.901 87.9975 457.901L97 408L111.02 381.333L124.998 408.971L133.5 460.5C133.5 460.5 139.485 472.698 146.53 473C154.515 473.342 160.736 458.268 160.736 458.268C160.736 458.268 167.854 410.449 167.238 379.619C166.969 366.14 165.008 345.181 165.008 345.181C169.868 340.639 174.604 335.366 174.985 331.783C175.615 325.861 183 296.176 183 296.176C183 296.176 174.369 257.692 159.389 239.765C149.661 228.123 131.526 214.815 131.526 214.815L131.203 214.55M93.7957 214.661C102.247 215.912 108.908 216 110.8 216C112.743 216 121.259 216 131.203 214.55" stroke="black" stroke-width="2" stroke-linejoin="round"/>
<path d="M29.4183 224.21C31.1549 224.471 32.9032 224.691 34.6294 224.927C35.3342 225.023 36.0604 225.104 36.8005 225.172C36.8005 225.172 32.5996 222.008 30.2868 219.043C26.9381 214.75 23.7731 205.918 23.7731 205.918C23.7731 205.918 24.6587 213.391 25.9443 217.233C27.1255 220.762 29.4183 224.21 29.4183 224.21Z" fill="#292929"/>
<path d="M23.7731 125.811C23.7731 125.811 17.3092 149.294 18.1279 164.281C19.2536 184.887 31.5895 206.371 35.932 207.729C41.3801 209.432 52.0799 210.897 52.0799 210.897C52.0799 210.897 45.2412 182.905 45.4854 167.449C45.7105 153.197 52.0799 133.052 52.0799 133.052C51.6373 130.853 51.1877 128.344 50.8461 125.811C50.8461 125.811 43.6738 149.485 42.4457 165.186C41.2173 180.889 47.2224 205.918 47.2224 205.918C47.2224 205.918 41.9269 204.77 40.2744 204.108C34.6294 201.844 24.7935 185.603 21.6019 169.259C18.587 153.82 23.7731 125.811 23.7731 125.811Z" fill="#292929"/>
<path d="M57.21 89.6043C57.21 89.6043 50.162 106.833 50.2621 118.57C50.2813 120.83 50.512 123.332 50.8461 125.811C51.1877 128.344 51.6373 130.853 52.0799 133.052C52.9207 137.231 53.736 140.294 53.736 140.294H57.21C57.21 140.294 53.3317 127.501 52.8675 119.022C52.2323 107.418 57.21 89.6043 57.21 89.6043Z" fill="#292929"/>
<path d="M37.2347 85.5311C37.2347 85.5311 32.3637 92.067 30.2868 96.8456C27.6902 102.82 26.3786 113.139 26.3786 113.139C26.3786 113.139 24.656 100.908 28.1156 94.5827C30.551 90.1298 37.2347 85.5311 37.2347 85.5311Z" fill="#292929"/>
<path d="M110.188 40.7253C110.188 40.7253 115.78 44.5513 119.741 46.1563C128.93 49.8798 144.928 46.6089 144.928 46.6089C144.928 46.6089 129.865 46.9355 120.61 44.7986C116.353 43.8158 110.188 40.7253 110.188 40.7253Z" fill="#292929"/>
<path d="M180.101 86.4362C180.101 86.4362 186.621 94.6425 188.786 100.919C191.378 108.433 190.523 121.285 190.523 121.285C190.523 121.285 194.532 108.715 192.26 100.919C189.959 93.0228 180.101 86.4362 180.101 86.4362Z" fill="#292929"/>
<path d="M173.153 117.212C173.468 123.978 171.851 136.22 171.851 136.22L171.416 146.177C171.416 146.177 173.995 137.47 175.123 128.297C175.655 123.964 175.864 119.526 175.325 115.854C173.821 105.618 165.771 93.6776 165.771 93.6776C165.771 93.6776 172.668 106.772 173.153 117.212Z" fill="#292929"/>
<path d="M171.416 146.177L169.245 195.961C169.245 195.961 167.144 209.481 167.943 210.897C168.93 212.647 183.141 216.328 183.141 216.328C183.141 216.328 200.498 194.038 203.551 176.5C205.828 163.416 202.682 143.009 202.682 143.009C202.682 143.009 204.334 168.843 198.774 183.742C194.085 196.306 183.764 213.351 180.101 212.254C176.439 211.158 174.42 209.756 171.851 206.823C169.115 203.701 171.045 196.468 173.157 188.554C174.431 183.779 175.771 178.755 176.193 174.237C177.944 155.477 175.123 128.297 175.123 128.297C173.995 137.47 171.416 146.177 171.416 146.177Z" fill="#292929"/>
<path fill-rule="evenodd" clip-rule="evenodd" d="M196.603 221.915C196.603 221.915 196.957 219.898 197.037 218.591C197.266 214.849 195.734 209.086 195.734 209.086C195.734 209.086 193.003 217.62 191.392 220.853C189.029 225.596 184.878 229 184.878 229C191.43 229 192.833 223.455 193.619 220.349C194.084 218.514 194.333 217.531 195.3 219.043C195.593 219.5 196.082 220.625 196.603 221.915ZM149.27 136.22C149.27 136.22 141.019 136.509 135.374 133.957C132.841 132.813 131.393 131.555 130.163 128.979C128.57 125.641 129.729 119.022 129.729 119.022C129.729 119.022 126.896 123.475 127.123 126.716C127.317 129.475 129.729 133.052 129.729 133.052C129.729 133.052 127.699 134.283 126.255 134.41C125.06 134.515 121.682 133.611 120.61 133.052C117.136 131.242 111.653 121.75 108.451 111.328C105.337 101.194 107.148 82.8156 107.148 82.8156C107.148 82.8156 104.323 91.8085 103.674 97.7508C103.058 103.395 103.674 111.781 103.674 111.781C103.674 111.781 113.662 135.151 118.004 136.509C120.989 137.442 148.401 138.031 149.27 136.22ZM100.833 141.291C100.833 141.291 93.5806 141.743 89.7784 141.291C89.5204 141.26 89.272 141.231 89.0321 141.203C85.6371 140.806 83.9465 140.608 81.0935 138.936C72.5242 133.913 73.2771 110.423 73.7113 105.897C75.2242 90.1291 77.6195 76.4794 77.6195 76.4794C77.6195 76.4794 71.7422 97.3123 71.5401 111.328C71.3746 122.805 74.1456 140.294 74.1456 140.294H76.751L75.4483 136.22L80.225 142.557C80.225 142.557 95.7797 143.549 100.833 141.291Z" fill="#292929"/>
<path fill-rule="evenodd" clip-rule="evenodd" d="M4.23213 152.061C6.50132 133.735 9.20998 122.259 15.5226 104.992C17.229 100.324 18.585 96.18 19.8333 92.3649C24.1523 79.1643 27.1809 69.9078 38.9718 56.5656C54.1704 39.3674 69.8032 29.8634 90.2127 26.6951C106.796 24.1209 120.823 29.3064 128.974 32.3196C130.855 33.0149 132.423 33.5946 133.637 33.9365C137.626 35.0596 141.128 35.4225 144.594 35.7816C148.452 36.1813 152.264 36.5764 156.652 38.0098C185.747 47.514 197.471 69.6906 204.853 87.7939C209.338 98.7912 210.603 107.193 212.082 117.019C213.037 123.368 214.083 130.312 216.144 138.936C217.545 144.8 218.901 149.963 220.151 154.726C224.1 169.77 227 180.819 227 197.319C227 219.043 210.933 227.642 210.933 227.642C206.591 229.453 198.774 227.642 198.774 227.642C198.774 227.642 197.628 224.457 196.603 221.915C196.603 221.915 196.957 219.898 197.037 218.591C197.266 214.849 195.734 209.086 195.734 209.086C195.734 209.086 193.003 217.62 191.392 220.853C189.029 225.596 184.878 229 184.878 229H144.928L132.334 227.642L131.466 214.97C159.738 209.703 169.245 195.961 169.245 195.961C169.245 195.961 167.144 209.481 167.943 210.897C168.93 212.647 183.141 216.328 183.141 216.328C183.141 216.328 200.498 194.038 203.551 176.5C205.828 163.416 202.682 143.009 202.682 143.009C202.682 143.009 204.334 168.843 198.774 183.742C194.085 196.306 183.764 213.351 180.101 212.254C176.439 211.158 174.42 209.756 171.851 206.823C169.115 203.701 171.045 196.468 173.157 188.554C174.431 183.779 175.771 178.755 176.193 174.237C177.944 155.477 175.123 128.297 175.123 128.297C175.655 123.964 175.864 119.526 175.325 115.854C173.821 105.618 165.771 93.6776 165.771 93.6776C165.771 93.6776 172.668 106.772 173.153 117.212C173.468 123.978 171.851 136.22 171.851 136.22C171.851 136.22 162.817 136.62 157.955 133.957C151.976 130.683 149.818 126.37 147.099 119.927C143.07 110.381 146.665 93.225 146.665 93.225C146.665 93.225 140.433 110.664 143.625 121.285C145.285 126.81 149.27 133.957 149.27 133.957L149.596 134.583C149.624 135.108 149.538 135.662 149.27 136.22C149.27 136.22 141.019 136.509 135.374 133.957C132.841 132.813 131.393 131.555 130.163 128.979C128.57 125.641 129.729 119.022 129.729 119.022C129.729 119.022 126.896 123.475 127.123 126.716C127.317 129.475 129.729 133.052 129.729 133.052C129.729 133.052 127.699 134.283 126.255 134.41C125.06 134.515 121.682 133.611 120.61 133.052C117.136 131.242 111.653 121.75 108.451 111.328C105.337 101.194 107.148 82.8156 107.148 82.8156C107.148 82.8156 104.323 91.8085 103.674 97.7508C103.058 103.395 103.674 111.781 103.674 111.781C103.674 111.781 102.56 138.957 102.372 139.841C102.246 140.432 101.691 140.908 100.833 141.291C100.833 141.291 93.5806 141.743 89.7784 141.291C89.5204 141.26 89.272 141.231 89.0321 141.203C85.6371 140.806 83.9465 140.608 81.0935 138.936C72.5242 133.913 73.2771 110.423 73.7113 105.897C75.2242 90.1291 77.6195 76.4794 77.6195 76.4794C77.6195 76.4794 71.7422 97.3123 71.5401 111.328C71.3746 122.805 74.1456 140.294 74.1456 140.294H57.21C57.21 140.294 53.3317 127.501 52.8675 119.022C52.2323 107.418 57.21 89.6043 57.21 89.6043C57.21 89.6043 50.162 106.833 50.2621 118.57C50.2813 120.83 50.512 123.332 50.8461 125.811C50.8461 125.811 43.6738 149.485 42.4457 165.186C41.2173 180.889 47.2224 205.918 47.2224 205.918C47.2224 205.918 41.9269 204.77 40.2744 204.108C34.6294 201.844 24.7935 185.603 21.6019 169.259C18.587 153.82 23.7731 125.811 23.7731 125.811C23.7731 125.811 17.3092 149.294 18.1279 164.281C19.2536 184.887 31.5895 206.371 35.932 207.729C41.3801 209.432 52.0799 210.897 52.0799 210.897C52.0799 210.897 45.2412 182.905 45.4854 167.449C45.7105 153.197 52.0799 133.052 52.0799 133.052C52.9207 137.231 53.736 140.294 53.736 140.294V190.078C63.5702 204.61 75.1475 212.182 93.2523 214.97L93.6866 227.642C93.6866 227.642 85.4359 229 80.225 228.547C79.008 228.442 77.3523 227.469 75.8779 226.602C73.9954 225.495 72.4086 224.563 72.4086 225.832C72.4086 226.351 72.4315 226.799 72.451 227.181C72.5164 228.463 72.5439 229 71.5401 229H57.2099C55.0649 229 56.3416 224.927 56.3416 224.927C56.3416 224.927 45.5945 225.979 36.8005 225.172C36.8005 225.172 32.5996 222.008 30.2868 219.043C26.9381 214.75 23.7731 205.918 23.7731 205.918C23.7731 205.918 24.6587 213.391 25.9443 217.233C27.1255 220.762 29.4183 224.21 29.4183 224.21C24.6019 223.486 19.875 222.453 15.9569 219.948C7.74274 214.697 4.02382 210.466 2.92953 200.487C1.19238 184.647 2.03992 169.765 4.23213 152.061ZM110.188 40.7253C110.188 40.7253 115.78 44.5513 119.741 46.1563C128.93 49.8798 144.928 46.6089 144.928 46.6089C144.928 46.6089 129.865 46.9355 120.61 44.7986C116.353 43.8158 110.188 40.7253 110.188 40.7253ZM37.2347 85.5311C37.2347 85.5311 32.3637 92.067 30.2868 96.8456C27.6902 102.82 26.3786 113.139 26.3786 113.139C26.3786 113.139 24.656 100.908 28.1156 94.5827C30.551 90.1298 37.2347 85.5311 37.2347 85.5311ZM180.101 86.4362C180.101 86.4362 186.621 94.6425 188.786 100.919C191.378 108.433 190.523 121.285 190.523 121.285C190.523 121.285 194.532 108.715 192.26 100.919C189.959 93.0228 180.101 86.4362 180.101 86.4362Z" fill="black"/>
<path d="M156.218 137.126C157.955 137.816 171.851 136.22 171.851 136.22C171.851 136.22 162.817 136.62 157.955 133.957C151.976 130.683 149.818 126.37 147.099 119.927C143.07 110.381 146.665 93.225 146.665 93.225C146.665 93.225 140.433 110.664 143.625 121.285C145.285 126.81 149.27 133.957 149.27 133.957L149.596 134.583C149.501 132.83 148.129 131.405 147.98 131.255C148.243 131.515 152.408 135.611 156.218 137.126Z" fill="#292929"/>
<path d="M74 154C74 150.686 76.6863 148 80 148C83.3137 148 86 150.686 86 154V156V157V167C86 170.314 83.3137 173 80 173C76.6863 173 74 170.314 74 167V157V156V154Z" fill="black"/>
<path d="M134 154C134 150.686 136.686 148 140 148C143.314 148 146 150.686 146 154V167C146 170.314 143.314 173 140 173C136.686 173 134 170.314 134 167V154Z" fill="black"/>
<path d="M70 192.5C70 195.538 63.0604 198 54.5 198C45.9396 198 39 195.538 39 192.5C39 189.462 45.9396 187 54.5 187C63.0604 187 70 189.462 70 192.5Z" fill="#F9A9E7"/>
<path d="M183 192.5C183 195.538 176.06 198 167.5 198C158.94 198 152 195.538 152 192.5C152 189.462 158.94 187 167.5 187C176.06 187 183 189.462 183 192.5Z" fill="#F9A9E7"/>
<path d="M101.147 196.763C101.312 195.942 102.307 195.525 103.064 195.881C104.569 196.588 107.114 197.469 110.5 197.5C114.11 197.533 117.06 196.581 118.798 195.842C119.562 195.518 120.5 196.072 120.5 196.903C120.5 197.274 120.308 197.616 119.977 197.784C118.692 198.439 115.142 200 110.5 200C106.08 200 102.933 198.584 101.646 197.884C101.245 197.666 101.058 197.21 101.147 196.763Z" fill="black"/>
<path d="M74 156C74 156 72.8027 156.562 72 156.5C71.7414 156.48 71.4353 156.389 71.1673 156.289C70.8554 156.174 70.5 156.395 70.5 156.728C70.5 156.895 70.5932 157.048 70.7457 157.116C71.0523 157.254 71.5867 157.468 72 157.5C72.8027 157.562 74 157 74 157V156Z" fill="black"/>
<path d="M148 156.5C147.197 156.562 146 156 146 156V157C146 157 147.197 157.562 148 157.5C148.413 157.468 148.948 157.254 149.254 157.116C149.407 157.048 149.5 156.895 149.5 156.728C149.5 156.395 149.145 156.174 148.833 156.289C148.565 156.389 148.259 156.48 148 156.5Z" fill="black"/>
</svg>
