<svg width="230" height="475" viewBox="0 0 230 475" fill="none" xmlns="http://www.w3.org/2000/svg">
<g clip-path="url(#clip0_1043_510)">
<path d="M198.436 144C193.113 143.03 185.202 148.218 185.202 148.218C181.262 162.601 175.41 174.792 174.497 183.564C174.497 183.564 187.066 184.421 193.782 181.382C203.471 176.997 206.727 169.309 207.891 160.146C208.862 152.5 206.019 145.382 198.436 144Z" fill="#FFCEB4"/>
<path d="M47.9592 150.255C47.9592 150.255 43.2364 143.564 35.6727 143.564C26.0727 143.564 22 151.568 22 159.564C22 168 26.7203 175.581 35.6727 180.655C42.3756 184.454 55.1636 183.709 55.1636 183.709C55.1636 170.31 51.4789 160.052 47.981 150.315L47.9592 150.255Z" fill="#FFCEB4"/>
<path d="M178.985 331.783C179.615 325.861 187 296.176 187 296.176C187 296.176 178.369 257.692 163.389 239.765C153.661 228.123 135.526 214.815 135.526 214.815L135.203 214.55C125.259 216 116.743 216 114.8 216C112.908 216 106.247 215.912 97.7957 214.661L96.5149 215.899C96.5149 215.899 77.4561 225.718 67.0067 241.393C56.5573 257.067 43 296.176 43 296.176C43 296.176 54.5606 328.869 55.5613 333.142C56.3198 336.381 60.2014 341.051 64.2083 345.181C64.2083 345.181 60.3023 366.056 59.2069 379.619C56.73 410.289 64.2083 458.268 64.2083 458.268C64.2083 458.268 70.4947 473.227 78.5099 473C86.4131 472.776 91.9975 457.901 91.9975 457.901L101 408L115.02 381.333L128.998 408.971L137.5 460.5C137.5 460.5 143.485 472.698 150.53 473C158.515 473.342 164.736 458.268 164.736 458.268C164.736 458.268 171.854 410.449 171.238 379.619C170.969 366.14 169.008 345.181 169.008 345.181C173.868 340.639 178.604 335.366 178.985 331.783Z" fill="#FFCEB4"/>
<path d="M55.1636 183.709C55.1636 193.455 58.1258 198.7 64.0363 202.764C74.3042 209.823 87.4035 213.122 97.7957 214.661C106.247 215.912 112.908 216 114.8 216C116.743 216 125.259 216 135.203 214.55C146.847 212.852 160.449 209.166 167.745 201.164C171.803 196.713 174.219 193.219 174.436 187.2C174.336 186.064 174.364 184.851 174.497 183.564C175.41 174.792 181.262 162.601 185.202 148.218C190.159 130.122 192.088 108.556 177.345 85.9637C166.145 68.8001 144.764 56 114.8 56C92.5455 56 64.3273 69.3819 53.7091 87.1273C35.9665 116.779 41.6452 132.678 47.9592 150.255L47.981 150.315C51.4789 160.052 55.1636 170.31 55.1636 183.709Z" fill="#FFCEB4"/>
<path d="M55.1636 183.709C55.1636 193.455 58.1258 198.7 64.0363 202.764C74.3042 209.823 87.4035 213.122 97.7957 214.661M55.1636 183.709C55.1636 183.709 42.3756 184.454 35.6727 180.655C26.7203 175.581 22 168 22 159.564C22 151.568 26.0727 143.564 35.6727 143.564C43.2364 143.564 47.9592 150.255 47.9592 150.255M55.1636 183.709C55.1636 170.31 51.4789 160.052 47.981 150.315M185.202 148.218C190.159 130.122 192.088 108.556 177.345 85.9637C166.145 68.8001 144.764 56 114.8 56C92.5455 56 64.3273 69.3819 53.7091 87.1273C35.9665 116.779 41.6452 132.678 47.9592 150.255M185.202 148.218C185.202 148.218 193.113 143.03 198.436 144C206.019 145.382 208.862 152.5 207.891 160.146C206.727 169.309 203.471 176.997 193.782 181.382C187.066 184.421 174.497 183.564 174.497 183.564M185.202 148.218C181.262 162.601 175.41 174.792 174.497 183.564M174.497 183.564C174.364 184.851 174.336 186.064 174.436 187.2C174.219 193.219 171.803 196.713 167.745 201.164C160.449 209.166 146.847 212.852 135.203 214.55M47.9592 150.255L47.981 150.315M47.9592 150.255C47.9665 150.275 47.9737 150.295 47.981 150.315M97.7957 214.661L96.5149 215.899C96.5149 215.899 77.4561 225.718 67.0067 241.393C56.5573 257.067 43 296.176 43 296.176C43 296.176 54.5606 328.869 55.5613 333.142C56.3198 336.381 60.2014 341.051 64.2083 345.181C64.2083 345.181 60.3023 366.056 59.2069 379.619C56.73 410.289 64.2083 458.268 64.2083 458.268C64.2083 458.268 70.4947 473.227 78.5099 473C86.4131 472.776 91.9975 457.901 91.9975 457.901L101 408L115.02 381.333L128.998 408.971L137.5 460.5C137.5 460.5 143.485 472.698 150.53 473C158.515 473.342 164.736 458.268 164.736 458.268C164.736 458.268 171.854 410.449 171.238 379.619C170.969 366.14 169.008 345.181 169.008 345.181C173.868 340.639 178.604 335.366 178.985 331.783C179.615 325.861 187 296.176 187 296.176C187 296.176 178.369 257.692 163.389 239.765C153.661 228.123 135.526 214.815 135.526 214.815L135.203 214.55M97.7957 214.661C106.247 215.912 112.908 216 114.8 216C116.743 216 125.259 216 135.203 214.55" stroke="black" stroke-width="2" stroke-linejoin="round"/>
<path d="M49.3106 193.585C47.4731 178.881 49.6618 166.753 49.6618 166.753C49.6618 166.753 48.9951 155.758 52.202 146.535C52.202 146.535 52.4773 144.242 52.9516 141.021C52.9516 141.021 47.3636 149.873 47.3636 156.185C47.3636 164.685 47.0603 167.601 46.7341 170.736C46.4256 173.701 46.0967 176.863 45.9851 185.133C45.7556 202.146 56.6622 233.103 56.6622 233.103C56.6622 233.103 51.1482 208.289 49.3106 193.585Z" fill="#292929"/>
<path d="M52.202 146.535C52.7611 144.927 53.4381 143.372 54.2568 141.94C54.8719 140.863 55.6536 140.24 56.5538 139.896C56.5538 139.896 57.249 133.279 57.9323 129.074C59.412 119.966 63.4463 106.098 63.4463 106.098C63.4463 106.098 57.8229 118.305 55.6347 126.776C54.5164 131.105 53.5667 136.844 52.9516 141.021C52.4773 144.242 52.202 146.535 52.202 146.535Z" fill="#292929"/>
<path d="M27.1454 139.642C28.103 143.472 36.3356 142.859 36.3356 142.859C36.3356 142.859 36.3356 139.193 36.6921 153.428C36.6921 153.428 36.6217 138.656 38.1735 129.074C39.3842 121.598 42.7686 109.774 42.7686 109.774C42.7686 109.774 36.9625 119.66 36.3355 126.776C35.872 132.037 34.957 140.102 34.957 140.102C34.957 140.102 33.8947 140.859 32.2 141.021C29.8166 141.248 27.1454 139.642 27.1454 139.642Z" fill="#292929"/>
<path d="M75.3941 129.993C73.1225 133.988 68.042 139.183 68.042 139.183C69.3248 138.649 70.3428 137.829 71.2982 137.06C72.6079 136.006 73.7997 135.047 75.3941 135.047C75.9696 135.047 76.4149 135.17 76.772 135.388C76.772 135.388 78.0495 132.278 78.9398 129.993C80.894 124.976 79.9885 116.208 79.9885 116.208C79.9885 116.208 78.1987 125.06 75.3941 129.993Z" fill="#292929"/>
<path d="M80.4486 141.94C83.2061 144.697 92.2672 137.712 98.3693 132.75C108.088 124.847 110.998 113.8 113.658 103.705L113.814 103.112C114.594 100.154 115.364 97.2857 116.29 94.6107L115.83 84.0422C115.83 84.0422 113.169 108.873 104.342 121.262C98.0731 130.061 88.7191 139.183 83.6646 139.642C81.827 139.81 78.9398 139.642 78.9398 139.642C79.2852 140.437 79.7423 141.234 80.4486 141.94Z" fill="#292929"/>
<path d="M108.018 139.642C105.721 141.94 119.045 136.64 122.264 131.83C124.078 129.119 124.339 126.837 124.661 124.028C124.759 123.165 124.864 122.252 125.021 121.262C125.964 115.306 125.957 112.338 125.943 106.329V106.326V106.322V106.319V106.316C125.941 105.533 125.939 104.699 125.939 103.801C125.939 101.468 126.943 97.7242 128.237 99.6654C128.833 100.56 129.575 102.508 130.525 105.002C132.503 110.195 135.383 117.756 139.725 123.1L140.222 123.713C146.404 131.327 150.755 136.687 160.403 139.183C160.403 139.183 148.914 135.047 135.129 111.153C127.132 97.2906 125.021 67.0403 125.021 67.0403C125.021 67.0403 124.527 78.2829 125.021 85.8802C126.157 103.361 123.502 126.776 119.966 131.83C116.035 137.449 108.018 139.642 108.018 139.642Z" fill="#292929"/>
<path d="M170.511 128.155C171.787 132.72 171.89 140.215 171.89 140.215C174.484 140.369 176.458 140.671 176.869 141.628C176.526 138.844 175.585 131.977 174.187 127.695C171.153 118.4 159.023 109.774 159.023 109.774C159.023 109.774 168.233 120.003 170.511 128.155Z" fill="#292929"/>
<path d="M187.053 134.128C187.053 134.128 191.38 168.253 188.891 185.133C186.574 200.852 172.809 219.137 172.809 219.137C172.809 219.137 177.812 205.823 178.782 198C180.639 183.031 177.404 159.401 177.404 159.401C177.259 164.658 176.878 169.648 176.449 175.264C176.157 179.089 175.843 183.203 175.566 187.89C175.566 187.89 176.247 199.973 174.647 207.19C171.917 219.499 160.403 236.139 160.403 236.139C160.403 236.139 188.008 212.799 191.189 186.971C191.363 185.558 191.48 184.016 191.548 182.376C192.009 171.232 190.208 155.578 188.75 145.156C187.834 138.61 187.053 134.128 187.053 134.128Z" fill="#292929"/>
<path d="M198.081 142.204C198.886 142.167 199.665 142.221 200.379 142.399C201.242 142.615 202.004 142.887 202.677 143.193C202.677 143.193 203.892 113.851 198.081 97.8274C191.078 78.5152 165.457 59.6884 165.457 59.6884C165.457 59.6884 187.642 80.2535 193.946 97.8274C199.823 114.21 198.081 142.204 198.081 142.204Z" fill="#292929"/>
<path d="M192.108 248.545C198.951 237.096 200.942 229.452 203.596 216.38C205.588 206.565 205.35 199.35 205.083 191.281C204.953 187.358 204.816 183.234 204.926 178.511C203.788 193.532 199.637 233.794 187.053 250.843C177.253 264.121 152.131 283.927 152.131 283.927C150.753 285.404 182.798 264.124 192.108 248.545Z" fill="#292929"/>
<path d="M147.536 270.142C161.071 263.773 162.7 252.681 162.7 252.681C162.7 252.681 162.305 255.961 161.389 260.492C161.389 260.492 163.175 255.537 163.619 252.221C164.07 248.842 163.619 243.491 163.619 243.491C163.619 243.491 160.706 255.802 155.807 261.871C152.041 266.536 143.865 271.52 143.865 271.52C143.762 271.893 144.73 271.462 147.536 270.142Z" fill="#292929"/>
<path d="M88.7197 41.7675C71.1611 46.4323 61.7894 53.5131 49.6618 67.0403C49.6618 67.0403 71.257 50.9546 84.5836 46.3627C101.072 40.6814 126.858 44.9842 126.858 44.9842C126.858 44.9842 113.282 41.8826 102.504 41.019C99.9839 40.8171 97.6165 40.7375 95.6117 40.8487C91.8109 41.0594 88.7197 41.7675 88.7197 41.7675Z" fill="#292929"/>
<path d="M88.7197 41.7675C88.7197 41.7675 91.8109 41.0594 95.6117 40.8487C97.6165 40.7375 99.9839 40.8171 102.504 41.019C102.504 41.019 112.829 37.8948 119.506 38.5511C128.537 39.4389 140.643 48.2007 140.643 48.2007C140.643 48.2007 138.751 46.3157 135.887 44.0652C134.559 43.0211 133.021 41.8983 131.367 40.8487C129.368 39.5807 127.199 38.4193 125.021 37.6321C112.178 32.9903 88.4077 39.4701 88.4077 39.4701C88.5706 40.8762 88.7197 41.7675 88.7197 41.7675Z" fill="#292929"/>
<path fill-rule="evenodd" clip-rule="evenodd" d="M125.021 37.6321C112.178 32.9903 88.4077 39.4701 88.4077 39.4701C88.032 36.2272 87.5827 30.2457 88.7197 26.1445C91.6921 15.423 99.2674 11.3737 108.875 6.23797L108.877 6.23696C109.352 5.9832 109.832 5.72678 110.316 5.46677C118.07 1.30447 123.118 -0.669009 131.913 -0.966307C138.635 -1.19354 142.512 -0.271053 148.914 1.79073C160.302 5.45783 165.752 10.5235 174.47 18.6272L174.647 18.7924C188.468 31.6391 193.794 42.0055 200.38 59.6884C205.887 74.478 206.472 84.6122 207.291 98.8077L207.291 98.8095C207.424 101.119 207.563 103.536 207.731 106.098C208.587 119.17 208.587 128.868 207.731 141.94V147.454C207.731 147.454 206.298 144.839 202.677 143.193C202.677 143.193 203.892 113.851 198.081 97.8274C191.078 78.5152 165.457 59.6884 165.457 59.6884C165.457 59.6884 187.642 80.2535 193.946 97.8274C199.823 114.21 198.081 142.204 198.081 142.204C193.787 142.398 188.75 145.156 188.75 145.156C187.834 138.61 187.053 134.128 187.053 134.128C187.053 134.128 191.38 168.253 188.891 185.133C186.574 200.852 172.809 219.137 172.809 219.137C172.809 219.137 177.812 205.823 178.782 198C180.639 183.031 177.404 159.401 177.404 159.401C177.542 154.388 177.467 149.133 177.013 142.859C177.013 142.859 176.964 142.401 176.869 141.628C176.526 138.844 175.585 131.977 174.187 127.695C171.153 118.4 159.023 109.774 159.023 109.774C159.023 109.774 168.233 120.003 170.511 128.155C171.787 132.72 171.89 140.215 171.89 140.215C171.066 140.167 170.18 140.133 169.262 140.098C166.308 139.985 163.02 139.86 160.403 139.183C160.403 139.183 148.914 135.047 135.129 111.153C127.132 97.2906 125.021 67.0403 125.021 67.0403C125.021 67.0403 124.527 78.2829 125.021 85.8802C126.157 103.361 123.502 126.776 119.966 131.83C116.035 137.449 108.018 139.642 108.018 139.642C109.25 138.411 110.289 137.08 111.314 135.767C111.745 135.215 112.174 134.665 112.614 134.128C116.47 129.415 116.967 122.594 117.541 114.718C117.582 114.148 117.624 113.572 117.668 112.991C118.237 105.422 118.773 87.4382 116.29 94.6107L115.83 84.0422C115.83 84.0422 113.169 108.873 104.342 121.262C98.0731 130.061 88.7191 139.183 83.6646 139.642C81.827 139.81 78.9398 139.642 78.9398 139.642C78.7133 139.121 78.5348 138.601 78.3657 138.108C77.9597 136.924 77.6074 135.897 76.772 135.388C76.772 135.388 78.0495 132.278 78.9398 129.993C80.894 124.976 79.9885 116.208 79.9885 116.208C79.9885 116.208 78.1987 125.06 75.3941 129.993C73.1225 133.988 68.042 139.183 68.042 139.183C65.9284 140.063 63.654 139.859 61.523 139.669C59.6977 139.506 57.9776 139.352 56.5538 139.896C56.5538 139.896 57.249 133.279 57.9323 129.074C59.412 119.966 63.4463 106.098 63.4463 106.098C63.4463 106.098 57.8229 118.305 55.6347 126.776C54.5164 131.105 53.5667 136.844 52.9516 141.021C52.9516 141.021 47.3636 149.873 47.3636 156.185C47.3636 164.685 47.0603 167.601 46.7341 170.736C46.4256 173.701 46.0967 176.863 45.9851 185.133C45.7556 202.146 56.6622 233.103 56.6622 233.103C56.6622 233.103 38.1736 219.596 37.2546 177.781C37.0058 166.462 36.8244 158.711 36.6921 153.428C36.6921 153.428 36.6217 138.656 38.1735 129.074C39.3842 121.598 42.7686 109.774 42.7686 109.774C42.7686 109.774 36.9625 119.66 36.3355 126.776C35.872 132.037 34.957 140.102 34.957 140.102C34.957 140.102 33.8947 140.859 32.2 141.021C29.8166 141.248 27.1454 139.642 27.1454 139.642C24.8475 130.452 26.1282 117.152 29.903 103.801C34.3372 88.1174 38.7821 79.1756 49.6618 67.0403C49.6618 67.0403 71.257 50.9546 84.5836 46.3627C101.072 40.6814 126.858 44.9842 126.858 44.9842C126.858 44.9842 113.282 41.8826 102.504 41.019C102.504 41.019 112.829 37.8948 119.506 38.5511C128.537 39.4389 140.643 48.2007 140.643 48.2007C140.643 48.2007 138.751 46.3157 135.887 44.0652C135.887 44.0652 141.948 43.6374 145.698 42.6867C153.088 40.8133 163.159 33.9561 163.159 33.9561C163.159 33.9561 152.089 39.05 145.238 40.3892C139.545 41.5022 131.367 40.8487 131.367 40.8487C129.368 39.5807 127.199 38.4193 125.021 37.6321ZM175.566 187.89C175.459 189.7 174.758 191.475 174.089 193.167C173.413 194.878 172.771 196.505 172.809 198L172.237 198.467L171.526 199.048L171.212 199.305C162.014 206.827 159.745 208.683 148.861 212.601C147.211 220.061 148.868 227.786 150.504 235.411C152.509 244.757 154.481 253.954 150.293 262.33C148.469 265.978 146.198 268.643 144.9 270.167C144.311 270.857 143.923 271.313 143.865 271.52C143.865 271.52 152.041 266.536 155.807 261.871C160.706 255.802 163.619 243.491 163.619 243.491C163.619 243.491 164.07 248.842 163.619 252.221C163.175 255.537 161.389 260.492 161.389 260.492C159.887 267.927 156.984 278.727 152.131 283.927C152.131 283.927 177.253 264.121 187.053 250.843C199.637 233.794 203.788 193.532 204.926 178.511C205.201 174.882 205.301 172.727 205.301 172.727C205.301 172.727 201.817 177.524 198.081 179.619C196.015 180.779 191.548 182.376 191.548 182.376C191.48 184.016 191.363 185.558 191.189 186.971C188.008 212.799 160.403 236.139 160.403 236.139C160.403 236.139 171.917 219.499 174.647 207.19C176.247 199.973 175.566 187.89 175.566 187.89Z" fill="black"/>
<path d="M145.238 40.3892C139.545 41.5022 131.367 40.8487 131.367 40.8487C133.021 41.8983 134.559 43.0211 135.887 44.0652C135.887 44.0652 141.948 43.6374 145.698 42.6867C153.088 40.8133 163.159 33.9561 163.159 33.9561C163.159 33.9561 152.089 39.05 145.238 40.3892Z" fill="#292929"/>
<path d="M78 154C78 150.686 80.6863 148 84 148C87.3137 148 90 150.686 90 154V156V157V167C90 170.314 87.3137 173 84 173C80.6863 173 78 170.314 78 167V157V156V154Z" fill="black"/>
<path d="M138 154C138 150.686 140.686 148 144 148C147.314 148 150 150.686 150 154V167C150 170.314 147.314 173 144 173C140.686 173 138 170.314 138 167V154Z" fill="black"/>
<path d="M74 192.5C74 195.538 67.0604 198 58.5 198C49.9396 198 43 195.538 43 192.5C43 189.462 49.9396 187 58.5 187C67.0604 187 74 189.462 74 192.5Z" fill="#F9A9E7"/>
<path d="M187 192.5C187 195.538 180.06 198 171.5 198C162.94 198 156 195.538 156 192.5C156 189.462 162.94 187 171.5 187C180.06 187 187 189.462 187 192.5Z" fill="#F9A9E7"/>
<path d="M105.147 196.763C105.312 195.942 106.307 195.525 107.064 195.881C108.569 196.588 111.114 197.469 114.5 197.5C118.11 197.533 121.06 196.581 122.798 195.842C123.562 195.518 124.5 196.072 124.5 196.903C124.5 197.274 124.308 197.616 123.977 197.784C122.692 198.439 119.142 200 114.5 200C110.08 200 106.933 198.584 105.646 197.884C105.245 197.666 105.058 197.21 105.147 196.763Z" fill="black"/>
<path d="M78 156C78 156 76.8027 156.562 76 156.5C75.7414 156.48 75.4353 156.389 75.1673 156.289C74.8554 156.174 74.5 156.395 74.5 156.728C74.5 156.895 74.5932 157.048 74.7457 157.116C75.0523 157.254 75.5867 157.468 76 157.5C76.8027 157.562 78 157 78 157V156Z" fill="black"/>
<path d="M152 156.5C151.197 156.562 150 156 150 156V157C150 157 151.197 157.562 152 157.5C152.413 157.468 152.948 157.254 153.254 157.116C153.407 157.048 153.5 156.895 153.5 156.728C153.5 156.395 153.145 156.174 152.833 156.289C152.565 156.389 152.259 156.48 152 156.5Z" fill="black"/>
</g>
<defs>
<clipPath id="clip0_1043_510">
<rect width="230" height="475" fill="white"/>
</clipPath>
</defs>
</svg>
