<svg width="230" height="475" viewBox="0 0 230 475" fill="none" xmlns="http://www.w3.org/2000/svg">
<g clip-path="url(#clip0_1043_526)">
<path d="M178.985 332.783C179.615 326.861 187 297.176 187 297.176C187 297.176 178.369 258.692 163.389 240.765C153.661 229.123 135.526 215.815 135.526 215.815L135.203 215.55C125.259 217 116.743 217 114.8 217C112.908 217 106.247 216.912 97.7957 215.661L96.5149 216.899C96.5149 216.899 77.4561 226.718 67.0067 242.393C56.5573 258.067 43 297.176 43 297.176C43 297.176 54.5606 329.869 55.5613 334.142C56.3198 337.381 60.2014 342.051 64.2083 346.181C64.2083 346.181 60.3023 367.056 59.2069 380.619C56.7299 411.289 64.2083 459.268 64.2083 459.268C64.2083 459.268 70.4947 474.227 78.5099 474C86.4131 473.776 91.9975 458.901 91.9975 458.901L101 409L115.02 382.333L128.998 409.971L137.5 461.5C137.5 461.5 143.485 473.698 150.53 474C158.515 474.342 164.736 459.268 164.736 459.268C164.736 459.268 171.854 411.449 171.238 380.619C170.969 367.14 169.008 346.181 169.008 346.181C173.868 341.639 178.604 336.366 178.985 332.783Z" fill="#FFCEB4"/>
<path d="M55.1636 184.709C55.1636 194.455 58.1258 199.7 64.0363 203.764C74.3042 210.823 87.4035 214.122 97.7957 215.661C106.247 216.912 112.908 217 114.8 217C116.743 217 125.259 217 135.203 215.55C146.847 213.852 160.449 210.166 167.745 202.164C171.803 197.713 174.219 194.219 174.436 188.2C174.336 187.064 174.364 185.851 174.497 184.564C175.41 175.792 181.262 163.601 185.202 149.218C190.159 131.122 192.088 109.556 177.345 86.9637C166.145 69.8001 144.764 57 114.8 57C92.5455 57 64.3273 70.3819 53.7091 88.1273C35.9665 117.779 41.6452 133.678 47.9592 151.255L47.981 151.315C51.4789 161.052 55.1636 171.31 55.1636 184.709Z" fill="#FFCEB4"/>
<path d="M47.9592 151.255C47.9592 151.255 43.2364 144.564 35.6727 144.564C26.0727 144.564 22 152.568 22 160.564C22 169 26.7203 176.581 35.6727 181.655C42.3756 185.454 55.1636 184.709 55.1636 184.709C55.1636 171.31 51.4789 161.052 47.981 151.315L47.9592 151.255Z" fill="#FFCEB4"/>
<path d="M198.436 145C193.113 144.03 185.202 149.218 185.202 149.218C181.262 163.601 175.41 175.792 174.497 184.564C174.497 184.564 187.066 185.421 193.782 182.382C203.471 177.997 206.727 170.309 207.891 161.146C208.862 153.5 206.019 146.382 198.436 145Z" fill="#FFCEB4"/>
<path d="M55.1636 184.709C55.1636 194.455 58.1258 199.7 64.0363 203.764C74.3042 210.823 87.4035 214.122 97.7957 215.661M55.1636 184.709C55.1636 184.709 42.3756 185.454 35.6727 181.655C26.7203 176.581 22 169 22 160.564C22 152.568 26.0727 144.564 35.6727 144.564C43.2364 144.564 47.9592 151.255 47.9592 151.255M55.1636 184.709C55.1636 171.31 51.4789 161.052 47.981 151.315M185.202 149.218C190.159 131.122 192.088 109.556 177.345 86.9637C166.145 69.8001 144.764 57 114.8 57C92.5455 57 64.3273 70.3819 53.7091 88.1273C35.9665 117.779 41.6452 133.678 47.9592 151.255M185.202 149.218C185.202 149.218 193.113 144.03 198.436 145C206.019 146.382 208.862 153.5 207.891 161.146C206.727 170.309 203.471 177.997 193.782 182.382C187.066 185.421 174.497 184.564 174.497 184.564M185.202 149.218C181.262 163.601 175.41 175.792 174.497 184.564M174.497 184.564C174.364 185.851 174.336 187.064 174.436 188.2C174.219 194.219 171.803 197.713 167.745 202.164C160.449 210.166 146.847 213.852 135.203 215.55M47.9592 151.255L47.981 151.315M47.9592 151.255C47.9665 151.275 47.9737 151.295 47.981 151.315M97.7957 215.661L96.5149 216.899C96.5149 216.899 77.4561 226.718 67.0067 242.393C56.5573 258.067 43 297.176 43 297.176C43 297.176 54.5606 329.869 55.5613 334.142C56.3198 337.381 60.2014 342.051 64.2083 346.181C64.2083 346.181 60.3023 367.056 59.2069 380.619C56.73 411.289 64.2083 459.268 64.2083 459.268C64.2083 459.268 70.4947 474.227 78.5099 474C86.4131 473.776 91.9975 458.901 91.9975 458.901L101 409L115.02 382.333L128.998 409.971L137.5 461.5C137.5 461.5 143.485 473.698 150.53 474C158.515 474.342 164.736 459.268 164.736 459.268C164.736 459.268 171.854 411.449 171.238 380.619C170.969 367.14 169.008 346.181 169.008 346.181C173.868 341.639 178.604 336.366 178.985 332.783C179.615 326.861 187 297.176 187 297.176C187 297.176 178.369 258.692 163.389 240.765C153.661 229.123 135.526 215.815 135.526 215.815L135.203 215.55M97.7957 215.661C106.247 216.912 112.908 217 114.8 217C116.743 217 125.259 217 135.203 215.55" stroke="black" stroke-width="2" stroke-linejoin="round"/>
<path d="M24.6602 265.542C24.6602 265.542 25.5904 261.57 27.272 260.052C27.5849 259.77 28.3975 259.596 29.4524 259.496C29.4524 259.496 28.5818 255.678 28.5818 253.189C28.5818 248.805 32.5402 245.539 36.9697 241.885C41.785 237.912 47.157 233.48 48.6058 226.652C50.6207 217.156 46.8646 202.403 46.8646 202.403C46.8646 202.403 48.128 217.696 45.1234 226.652C43.1279 232.601 38.8556 236.409 34.7269 240.09C29.7444 244.532 24.971 248.788 24.6602 256.392C24.4599 261.293 24.6602 265.542 24.6602 265.542Z" fill="#292929"/>
<path d="M19.8718 178.154C19.8718 178.154 12.907 192.57 12.907 202.403C12.907 209.353 18.1211 213.416 22.9209 217.156C22.9209 217.156 16.4051 209.748 15.5226 203.776C14.7936 198.843 16.1011 195.578 17.7399 191.485C18.1498 190.461 18.5804 189.386 19.0051 188.22C20.7614 183.397 23.1408 180.287 25.5849 177.094C27.6677 174.372 29.7975 171.589 31.6289 167.631C34.0313 162.439 39.8997 156.193 39.8997 156.193C39.8997 156.193 33.5283 160.365 30.323 163.513C27.9114 165.882 26.3737 167.135 23.3581 168.546C21.9293 169.215 19.5724 169.919 19.5724 169.919C20.2231 173.695 19.8718 178.154 19.8718 178.154Z" fill="#292929"/>
<path d="M19.8718 141.552C19.8718 141.552 6.59728 151.021 8.12196 153.905C8.12196 153.905 26.745 143.865 32.9348 136.519C38.0801 130.413 42.5115 119.133 42.5115 119.133C42.5115 119.133 36.2456 128.718 32.0642 132.859C28.598 136.292 23.3581 138.807 23.3581 138.807V131.944C23.3581 131.944 29.6241 125.137 32.9348 120.963C39.4097 112.8 44.6881 98.0864 44.6881 98.0864C44.6881 98.0864 39.0253 109.222 33.8054 115.015C30.1441 119.078 23.3581 124.223 23.3581 124.223C23.3581 124.223 20.2466 119.391 19.0051 115.93C16.7354 109.604 17.4276 98.6959 17.4276 98.6959C15.9892 109.144 14.9035 117.031 19.0051 127.368C21.0989 132.645 19.8718 141.552 19.8718 141.552Z" fill="#292929"/>
<path d="M221.857 151.16C218.914 147.301 211.845 143.382 211.845 143.382V142.009C211.845 142.009 206.082 140.316 201.833 136.519C196.246 131.526 187.033 119.133 187.033 119.133C187.033 119.133 193.063 130.453 198.351 136.519C204.736 143.845 217.504 152.075 217.504 152.075L220.862 154.82C221.804 153.026 222.25 151.675 221.857 151.16Z" fill="#292929"/>
<path d="M211.845 129.199C211.845 129.199 205.348 126.318 200.963 121.421C195.081 114.853 187.033 99.0015 187.033 99.0015C187.033 99.0015 191.101 114.781 197.045 122.793C201.75 129.136 211.845 136.29 211.845 136.29V129.199Z" fill="#292929"/>
<path d="M114.337 57.8238C114.337 57.8238 110.82 50.7944 106.937 48.2157C102.681 45.3892 94.3128 45.4705 94.3128 45.4705C94.3128 45.4705 103.481 42.706 108.243 45.4705C111.296 47.2431 114.337 52.3335 114.337 52.3335C114.337 52.3335 119.002 46.8542 123.043 45.4705C126.922 44.1421 133.49 45.4705 133.49 45.4705C133.49 45.4705 126.725 46.0796 123.043 48.2157C118.727 50.7198 114.337 57.8238 114.337 57.8238Z" fill="#292929"/>
<path d="M209.413 177.239C208.763 175.877 208.116 174.503 207.492 173.121C207.775 172.924 208.688 171.893 209.927 170.376C209.927 170.376 205.966 170.281 203.574 168.546C199.377 165.502 195.304 156.193 195.304 156.193C195.304 156.193 197.298 165.768 200.963 170.376C203.637 173.74 209.413 177.239 209.413 177.239Z" fill="#292929"/>
<path d="M203.135 266C203.135 266 206.295 259.582 206.497 254.104C206.765 246.821 201.626 243.267 196.253 239.552C191.746 236.437 187.075 233.207 185.292 227.568C182.608 219.083 183.55 205.149 183.55 205.149C183.55 205.149 180.284 219.518 182.244 228.483C183.55 234.455 187.95 237.352 192.316 240.227C196.789 243.172 201.227 246.093 202.269 252.274C202.714 254.918 202.675 259.137 202.675 259.137C204.449 260.739 203.135 266 203.135 266Z" fill="#292929"/>
<path fill-rule="evenodd" clip-rule="evenodd" d="M145.244 28.9994C131.634 25.8347 114.337 29.4571 114.337 29.4571C114.337 29.4571 101.278 21.679 80.8184 29.4566C72.51 32.615 19.8718 80.7001 17.6991 96.7137C17.6081 97.3846 17.5173 98.0443 17.4278 98.6942L17.4276 98.6959C17.4276 98.6959 16.7354 109.604 19.0051 115.93C20.2466 119.391 23.3581 124.223 23.3581 124.223C23.3581 124.223 30.1441 119.078 33.8054 115.015C39.0253 109.222 44.6881 98.0864 44.6881 98.0864C44.6881 98.0864 39.4097 112.8 32.9348 120.963C29.6241 125.137 23.3581 131.944 23.3581 131.944V138.807C23.3581 138.807 28.598 136.292 32.0642 132.859C36.2456 128.718 42.5115 119.133 42.5115 119.133C42.5115 119.133 38.0801 130.413 32.9348 136.519C26.745 143.865 8.12196 153.905 8.12196 153.905C8.97438 155.517 10.4128 156.795 12.0099 158.213C14.4917 160.417 17.3567 162.961 19.0012 167.631C19.2468 168.328 19.4327 169.108 19.5724 169.919C19.5724 169.919 21.9293 169.215 23.3581 168.546C26.3737 167.135 27.9114 165.882 30.323 163.513C33.5283 160.365 39.8997 156.193 39.8997 156.193C39.8997 156.193 34.0313 162.439 31.6289 167.631C29.7975 171.589 27.6677 174.372 25.5849 177.094C23.1408 180.287 20.7614 183.397 19.0051 188.22C18.5804 189.386 18.1498 190.461 17.7399 191.485C16.1011 195.578 14.7936 198.843 15.5226 203.776C16.4051 209.748 22.9209 217.156 22.9209 217.156C27.2848 220.556 31.3061 223.689 30.7545 228.482C30.1121 234.064 25.749 237.582 21.5338 240.98C16.8432 244.761 12.3357 248.395 13.3423 254.562C14.5458 261.935 24.6602 265.542 24.6602 265.542C24.6602 265.542 24.4599 261.293 24.6602 256.392C24.971 248.788 29.7444 244.532 34.7269 240.09C38.8556 236.409 43.1279 232.601 45.1234 226.652C48.128 217.696 46.8646 202.403 46.8646 202.403C46.8646 202.403 50.6207 217.156 48.6058 226.652C47.157 233.48 41.785 237.912 36.9697 241.885C32.5402 245.539 28.5818 248.805 28.5818 253.189C28.5818 255.678 29.4524 259.496 29.4524 259.496C32.8006 259.178 38.59 259.595 38.59 259.595C38.59 259.595 37.7721 261.67 39.0253 263.712C39.0253 263.712 50.391 263.978 55.1354 261.882C56.2623 261.384 57.1379 260.605 57.7984 259.808L59.3486 256.548C58.8134 255.372 56.9024 250.979 56.4413 247.241C55.5417 239.951 62.5356 229.855 62.5356 229.855C62.5356 229.855 57.1405 240.16 58.6178 246.784C59.1752 249.283 59.9415 251.264 61.0354 253L67.5 242.5L74.5 234L83.5 226L92.5 219.5L97 217.044L98.5 215.826C80.9301 213.477 65.6402 207.804 58.1825 197.828C55.1241 193.737 55.1354 184.102 55.1354 184.102C55.1354 184.102 46.1699 184.36 41.2056 182.73C36.6235 181.225 30.7545 176.324 30.7545 176.324C30.7545 176.324 45.994 169.004 51.6529 162.141C57.3119 155.278 62.5356 145.212 65.1474 137.434C65.5695 136.177 66.0628 133.853 66.6957 130.871L66.696 130.869C67.064 129.135 67.4792 127.179 67.955 125.081C67.955 125.081 68.5415 104.284 76.4653 94.6083C82.3806 87.3852 88.6401 81.2898 97.36 83.903C101.488 85.1402 103.104 87.9999 104.795 90.9929C105.663 92.5287 106.55 94.0997 107.807 95.5045C109.529 97.4283 111.664 99.0071 111.664 99.0071C112.157 99.0153 112.674 99.0114 113.233 99.0071H113.234L113.236 99.007C113.585 99.0043 113.951 99.0015 114.337 99.0015C115.705 99.0015 116.974 98.9581 118.255 98.8507C118.255 98.8507 120.697 97.6183 122.608 95.7988C124.233 94.2507 125.108 92.6674 125.908 91.2199C127.112 89.041 128.146 87.17 131.314 86.1907C138.714 83.903 147.71 89.6988 152.644 98.0864C158.738 108.446 159.601 124.223 159.601 124.223C161.383 131.578 163.174 138.973 165.699 145.212C168.966 153.284 171.442 157.885 177.452 163.971C184.09 170.691 198.786 175.867 198.786 175.867C198.786 175.867 191.963 181.211 187.033 182.73C182.103 184.248 172.668 184.102 172.668 184.102C172.668 184.102 171.797 190.965 167.879 198.743C164.583 205.288 154.244 211.206 140.451 214.46C138.688 214.876 136.869 215.249 135 215.573L150.5 228L166 243L170.203 250.902C173.551 244.005 167.879 231.228 167.879 231.228C167.879 231.228 175.371 241.751 173.974 249.987C173.675 251.747 173.126 254.429 172.724 256.343L175.715 262.797C180.137 264.215 192.253 265.085 192.253 265.085C192.253 265.085 190.511 260.967 192.253 259.595C193.709 258.447 197.904 258.579 200.258 258.653C200.719 258.667 201.109 258.679 201.394 258.679C201.938 258.679 202.356 258.849 202.675 259.137C202.675 259.137 202.714 254.918 202.269 252.274C201.227 246.093 196.789 243.172 192.316 240.227C187.95 237.352 183.55 234.455 182.244 228.483C180.284 219.518 183.55 205.149 183.55 205.149C183.55 205.149 182.608 219.083 185.292 227.568C187.075 233.207 191.746 236.437 196.253 239.552C201.626 243.267 206.765 246.821 206.497 254.104C206.295 259.582 203.135 266 203.135 266C203.135 266 215.362 261.107 214.889 254.104C214.409 247.024 209.807 242.459 205.639 238.325C202.265 234.978 199.175 231.914 198.786 228.025C198.363 223.797 202.205 220.202 206.497 216.188C210.98 211.994 215.953 207.342 217.065 201.031C218.081 195.265 214.427 187.669 210.493 179.49C210.134 178.745 209.773 177.994 209.413 177.239C209.413 177.239 203.637 173.74 200.963 170.376C197.298 165.768 195.304 156.193 195.304 156.193C195.304 156.193 199.377 165.502 203.574 168.546C205.966 170.281 209.927 170.376 209.927 170.376C213.132 166.452 218.524 159.271 220.862 154.82L217.504 152.075C217.504 152.075 204.736 143.845 198.351 136.519C193.063 130.453 187.033 119.133 187.033 119.133C187.033 119.133 196.246 131.526 201.833 136.519C206.082 140.316 211.845 142.009 211.845 142.009V136.29C211.845 136.29 201.75 129.136 197.045 122.793C191.101 114.781 187.033 99.0015 187.033 99.0015C187.033 99.0015 195.081 114.853 200.963 121.421C205.348 126.318 211.845 129.199 211.845 129.199C211.845 129.199 216.32 113.185 211.845 96.7139C205.755 74.295 157.867 31.9351 145.244 28.9994ZM106.937 48.2157C110.82 50.7944 114.337 57.8238 114.337 57.8238C114.337 57.8238 118.727 50.7198 123.043 48.2157C126.725 46.0796 133.49 45.4705 133.49 45.4705C133.49 45.4705 126.922 44.1421 123.043 45.4705C119.002 46.8542 114.337 52.3335 114.337 52.3335C114.337 52.3335 111.296 47.2431 108.243 45.4705C103.481 42.706 94.3128 45.4705 94.3128 45.4705C94.3128 45.4705 102.681 45.3892 106.937 48.2157Z" fill="black"/>
<path d="M167.879 231.228C167.879 231.228 173.551 244.005 170.203 250.902L172.724 256.343C173.126 254.429 173.675 251.747 173.974 249.987C175.371 241.751 167.879 231.228 167.879 231.228Z" fill="#292929"/>
<path d="M55.1354 261.882C50.391 263.978 39.0253 263.712 39.0253 263.712C39.9997 265.301 51.7849 265.369 56 264.5L57.7984 259.808C57.1379 260.605 56.2623 261.384 55.1354 261.882Z" fill="#292929"/>
<path d="M62.5356 229.855C62.5356 229.855 55.5417 239.951 56.4413 247.241C56.9024 250.979 58.8134 255.372 59.3486 256.548L61.0354 253C59.9415 251.264 59.1752 249.283 58.6178 246.784C57.1405 240.16 62.5356 229.855 62.5356 229.855Z" fill="#292929"/>
<path d="M136.102 88.4783C136.102 88.4783 134.672 89.776 133.49 91.6811C131.934 94.19 130.878 98.544 130.878 98.544C130.878 98.544 134.883 94.3176 136.973 92.5961C140.228 89.9152 144.373 90.8012 144.373 90.8012C142.039 89.3121 138.279 88.4783 136.102 88.4783Z" fill="#292929"/>
<path d="M96.4894 91.6811C94.8577 89.6709 90.3951 88.0208 90.3951 88.0208C88.1746 88.2062 87.0202 88.7155 85.1714 89.8509C85.1714 89.8509 89.6763 90.801 92.5716 92.5961C95.2952 94.2848 99.5365 98.544 99.5365 98.544C99.5365 98.544 98.3157 93.9311 96.4894 91.6811Z" fill="#292929"/>
<path fill-rule="evenodd" clip-rule="evenodd" d="M106.937 48.2157C110.82 50.7944 114.337 57.8238 114.337 57.8238C114.337 57.8238 118.727 50.7198 123.043 48.2157C126.725 46.0796 133.49 45.4705 133.49 45.4705C133.49 45.4705 126.922 44.1421 123.043 45.4705C119.002 46.8542 114.337 52.3335 114.337 52.3335C114.337 52.3335 111.296 47.2431 108.243 45.4705C103.481 42.706 94.3128 45.4705 94.3128 45.4705C94.3128 45.4705 102.681 45.3892 106.937 48.2157Z" fill="#292929"/>
<path d="M133.49 91.6811C134.672 89.776 136.102 88.4783 136.102 88.4783C128.525 88.4783 126.751 91.7747 125.225 94.6083C124.209 96.4959 123.303 98.1782 120.866 98.544C119.969 98.6788 119.109 98.779 118.255 98.8507C116.974 98.9581 115.705 99.0015 114.337 99.0015C113.951 99.0015 113.585 99.0043 113.236 99.007L113.234 99.0071H113.233C112.674 99.0114 112.157 99.0153 111.664 99.0071C110.028 98.9796 108.657 98.8176 106.937 98.0864C106.036 97.7038 105.608 96.7254 105.073 95.5045C104.085 93.2464 102.733 90.1589 97.36 88.4783C95.1796 87.7964 92.2815 87.8634 90.3951 88.0208C90.3951 88.0208 94.8577 89.6709 96.4894 91.6811C98.3157 93.9311 99.5365 98.544 99.5365 98.544C99.5365 98.544 95.2952 94.2848 92.5716 92.5961C89.6763 90.801 85.1714 89.8509 85.1714 89.8509C82.0675 91.7572 79.4605 94.836 77.2597 98.544C77.2597 98.544 110.617 99.9306 114.337 99.9166C119.561 99.8969 151.209 98.544 151.209 98.544C149.353 95.2424 147.134 92.5631 144.373 90.8012C144.373 90.8012 140.228 89.9152 136.973 92.5961C134.883 94.3176 130.878 98.544 130.878 98.544C130.878 98.544 131.934 94.19 133.49 91.6811Z" fill="black"/>
<path d="M136.102 88.4783C138.279 88.4783 142.039 89.3121 144.373 90.8012C147.134 92.5631 149.353 95.2424 151.209 98.544C155.024 105.329 157.304 114.742 159.601 124.223C159.601 124.223 158.738 108.446 152.644 98.0864C147.71 89.6988 138.714 83.903 131.314 86.1907C128.146 87.17 127.112 89.041 125.908 91.2199C125.108 92.6674 124.233 94.2507 122.608 95.7988C120.697 97.6183 118.255 98.8507 118.255 98.8507C119.109 98.779 119.969 98.6788 120.866 98.544C123.303 98.1782 124.209 96.4959 125.225 94.6083C126.751 91.7747 128.525 88.4783 136.102 88.4783Z" fill="#292929"/>
<path d="M90.3951 88.0208C92.2815 87.8634 95.1796 87.7964 97.36 88.4783C102.733 90.1589 104.085 93.2464 105.073 95.5045C105.608 96.7254 106.036 97.7038 106.937 98.0864C108.657 98.8176 110.028 98.9796 111.664 99.0071C111.664 99.0071 109.529 97.4283 107.807 95.5045C106.55 94.0997 105.663 92.5287 104.795 90.9929C103.104 87.9999 101.488 85.1402 97.36 83.903C88.6401 81.2898 82.3806 87.3852 76.4653 94.6083C68.5415 104.284 67.955 125.081 67.955 125.081C69.8344 116.794 72.6597 106.294 77.2597 98.544C79.4605 94.836 82.0675 91.7572 85.1714 89.8509C87.0202 88.7155 88.1746 88.2062 90.3951 88.0208Z" fill="#292929"/>
<path d="M78 155C78 151.686 80.6863 149 84 149C87.3137 149 90 151.686 90 155V157V158V168C90 171.314 87.3137 174 84 174C80.6863 174 78 171.314 78 168V158V157V155Z" fill="black"/>
<path d="M138 155C138 151.686 140.686 149 144 149C147.314 149 150 151.686 150 155V168C150 171.314 147.314 174 144 174C140.686 174 138 171.314 138 168V155Z" fill="black"/>
<path d="M74 193.5C74 196.538 67.0604 199 58.5 199C49.9396 199 43 196.538 43 193.5C43 190.462 49.9396 188 58.5 188C67.0604 188 74 190.462 74 193.5Z" fill="#F9A9E7"/>
<path d="M187 193.5C187 196.538 180.06 199 171.5 199C162.94 199 156 196.538 156 193.5C156 190.462 162.94 188 171.5 188C180.06 188 187 190.462 187 193.5Z" fill="#F9A9E7"/>
<path d="M105.147 197.763C105.312 196.942 106.307 196.525 107.064 196.881C108.569 197.588 111.114 198.469 114.5 198.5C118.11 198.533 121.06 197.581 122.798 196.842C123.562 196.518 124.5 197.072 124.5 197.903C124.5 198.274 124.308 198.616 123.977 198.784C122.692 199.439 119.142 201 114.5 201C110.08 201 106.933 199.584 105.646 198.884C105.245 198.666 105.058 198.21 105.147 197.763Z" fill="black"/>
<path d="M78 157C78 157 76.8027 157.562 76 157.5C75.7414 157.48 75.4353 157.389 75.1673 157.289C74.8554 157.174 74.5 157.395 74.5 157.728C74.5 157.895 74.5932 158.048 74.7457 158.116C75.0523 158.254 75.5867 158.468 76 158.5C76.8027 158.562 78 158 78 158V157Z" fill="black"/>
<path d="M152 157.5C151.197 157.562 150 157 150 157V158C150 158 151.197 158.562 152 158.5C152.413 158.468 152.948 158.254 153.254 158.116C153.407 158.048 153.5 157.895 153.5 157.728C153.5 157.395 153.145 157.174 152.833 157.289C152.565 157.389 152.259 157.48 152 157.5Z" fill="black"/>
</g>
<defs>
<clipPath id="clip0_1043_526">
<rect width="230" height="475" fill="white"/>
</clipPath>
</defs>
</svg>
