<svg width="230" height="475" viewBox="0 0 230 475" fill="none" xmlns="http://www.w3.org/2000/svg">
<g clip-path="url(#clip0_1043_531)">
<path d="M178.985 332.783C179.615 326.861 187 297.176 187 297.176C187 297.176 178.369 258.692 163.389 240.765C153.661 229.123 135.526 215.815 135.526 215.815L135.203 215.55C125.259 217 116.743 217 114.8 217C112.908 217 106.247 216.912 97.7957 215.661L96.5149 216.899C96.5149 216.899 77.4561 226.718 67.0067 242.393C56.5573 258.067 43 297.176 43 297.176C43 297.176 54.5606 329.869 55.5613 334.142C56.3198 337.381 60.2014 342.051 64.2083 346.181C64.2083 346.181 60.3023 367.056 59.2069 380.619C56.7299 411.289 64.2083 459.268 64.2083 459.268C64.2083 459.268 70.4947 474.227 78.5099 474C86.4131 473.776 91.9975 458.901 91.9975 458.901L101 409L115.02 382.333L128.998 409.971L137.5 461.5C137.5 461.5 143.485 473.698 150.53 474C158.515 474.342 164.736 459.268 164.736 459.268C164.736 459.268 171.854 411.449 171.238 380.619C170.969 367.14 169.008 346.181 169.008 346.181C173.868 341.639 178.604 336.366 178.985 332.783Z" fill="#FFCEB4"/>
<path d="M55.1636 184.709C55.1636 194.455 58.1258 199.7 64.0363 203.764C74.3042 210.823 87.4035 214.122 97.7957 215.661C106.247 216.912 112.908 217 114.8 217C116.743 217 125.259 217 135.203 215.55C146.847 213.852 160.449 210.166 167.745 202.164C171.803 197.713 174.219 194.219 174.436 188.2C174.336 187.064 174.364 185.851 174.497 184.564C175.41 175.792 181.262 163.601 185.202 149.218C190.159 131.122 192.088 109.556 177.345 86.9637C166.145 69.8001 144.764 57 114.8 57C92.5455 57 64.3273 70.3819 53.7091 88.1273C35.9665 117.779 41.6452 133.678 47.9592 151.255L47.981 151.315C51.4789 161.052 55.1636 171.31 55.1636 184.709Z" fill="#FFCEB4"/>
<path d="M47.9592 151.255C47.9592 151.255 43.2364 144.564 35.6727 144.564C26.0727 144.564 22 152.568 22 160.564C22 169 26.7203 176.581 35.6727 181.655C42.3756 185.454 55.1636 184.709 55.1636 184.709C55.1636 171.31 51.4789 161.052 47.981 151.315L47.9592 151.255Z" fill="#FFCEB4"/>
<path d="M198.436 145C193.113 144.03 185.202 149.218 185.202 149.218C181.262 163.601 175.41 175.792 174.497 184.564C174.497 184.564 187.066 185.421 193.782 182.382C203.471 177.997 206.727 170.309 207.891 161.146C208.862 153.5 206.019 146.382 198.436 145Z" fill="#FFCEB4"/>
<path d="M55.1636 184.709C55.1636 194.455 58.1258 199.7 64.0363 203.764C74.3042 210.823 87.4035 214.122 97.7957 215.661M55.1636 184.709C55.1636 184.709 42.3756 185.454 35.6727 181.655C26.7203 176.581 22 169 22 160.564C22 152.568 26.0727 144.564 35.6727 144.564C43.2364 144.564 47.9592 151.255 47.9592 151.255M55.1636 184.709C55.1636 171.31 51.4789 161.052 47.981 151.315M185.202 149.218C190.159 131.122 192.088 109.556 177.345 86.9637C166.145 69.8001 144.764 57 114.8 57C92.5455 57 64.3273 70.3819 53.7091 88.1273C35.9665 117.779 41.6452 133.678 47.9592 151.255M185.202 149.218C185.202 149.218 193.113 144.03 198.436 145C206.019 146.382 208.862 153.5 207.891 161.146C206.727 170.309 203.471 177.997 193.782 182.382C187.066 185.421 174.497 184.564 174.497 184.564M185.202 149.218C181.262 163.601 175.41 175.792 174.497 184.564M174.497 184.564C174.364 185.851 174.336 187.064 174.436 188.2C174.219 194.219 171.803 197.713 167.745 202.164C160.449 210.166 146.847 213.852 135.203 215.55M47.9592 151.255L47.981 151.315M47.9592 151.255C47.9665 151.275 47.9737 151.295 47.981 151.315M97.7957 215.661L96.5149 216.899C96.5149 216.899 77.4561 226.718 67.0067 242.393C56.5573 258.067 43 297.176 43 297.176C43 297.176 54.5606 329.869 55.5613 334.142C56.3198 337.381 60.2014 342.051 64.2083 346.181C64.2083 346.181 60.3023 367.056 59.2069 380.619C56.73 411.289 64.2083 459.268 64.2083 459.268C64.2083 459.268 70.4947 474.227 78.5099 474C86.4131 473.776 91.9975 458.901 91.9975 458.901L101 409L115.02 382.333L128.998 409.971L137.5 461.5C137.5 461.5 143.485 473.698 150.53 474C158.515 474.342 164.736 459.268 164.736 459.268C164.736 459.268 171.854 411.449 171.238 380.619C170.969 367.14 169.008 346.181 169.008 346.181C173.868 341.639 178.604 336.366 178.985 332.783C179.615 326.861 187 297.176 187 297.176C187 297.176 178.369 258.692 163.389 240.765C153.661 229.123 135.526 215.815 135.526 215.815L135.203 215.55M97.7957 215.661C106.247 216.912 112.908 217 114.8 217C116.743 217 125.259 217 135.203 215.55" stroke="black" stroke-width="2" stroke-linejoin="round"/>
<path d="M78 155C78 151.686 80.6863 149 84 149C87.3137 149 90 151.686 90 155V157V158V168C90 171.314 87.3137 174 84 174C80.6863 174 78 171.314 78 168V158V157V155Z" fill="black"/>
<path d="M138 155C138 151.686 140.686 149 144 149C147.314 149 150 151.686 150 155V168C150 171.314 147.314 174 144 174C140.686 174 138 171.314 138 168V155Z" fill="black"/>
<path d="M74 193.5C74 196.538 67.0604 199 58.5 199C49.9396 199 43 196.538 43 193.5C43 190.462 49.9396 188 58.5 188C67.0604 188 74 190.462 74 193.5Z" fill="#F9A9E7"/>
<path d="M187 193.5C187 196.538 180.06 199 171.5 199C162.94 199 156 196.538 156 193.5C156 190.462 162.94 188 171.5 188C180.06 188 187 190.462 187 193.5Z" fill="#F9A9E7"/>
<path d="M105.147 197.763C105.312 196.942 106.307 196.525 107.064 196.881C108.569 197.588 111.114 198.469 114.5 198.5C118.11 198.533 121.06 197.581 122.798 196.842C123.562 196.518 124.5 197.072 124.5 197.903C124.5 198.274 124.308 198.616 123.977 198.784C122.692 199.439 119.142 201 114.5 201C110.08 201 106.933 199.584 105.646 198.884C105.245 198.666 105.058 198.21 105.147 197.763Z" fill="black"/>
<path d="M78 157C78 157 76.8027 157.562 76 157.5C75.7414 157.48 75.4353 157.389 75.1673 157.289C74.8554 157.174 74.5 157.395 74.5 157.728C74.5 157.895 74.5932 158.048 74.7457 158.116C75.0523 158.254 75.5867 158.468 76 158.5C76.8027 158.562 78 158 78 158V157Z" fill="black"/>
<path d="M152 157.5C151.197 157.562 150 157 150 157V158C150 158 151.197 158.562 152 158.5C152.413 158.468 152.948 158.254 153.254 158.116C153.407 158.048 153.5 157.895 153.5 157.728C153.5 157.395 153.145 157.174 152.833 157.289C152.565 157.389 152.259 157.48 152 157.5Z" fill="black"/>
<path d="M198.883 293.705C199.759 293.705 201.511 300 201.511 300H203.263C203.263 300 201.07 296.589 201.073 294.146C201.075 291.968 202.825 288.855 202.825 288.855C202.825 288.855 195.581 289.369 194.064 292.823C193.146 294.914 194.064 298.677 194.064 298.677H194.94C194.94 298.677 194.337 293.705 198.883 293.705Z" fill="#292929"/>
<path d="M167.782 256.787C172.272 263.401 175.229 265.606 181.799 270.016C181.799 270.016 185.197 269.7 187.275 269.073C190.51 268.097 194.94 265.044 194.94 265.044C194.94 265.044 182.317 268.143 176.543 263.28C172.578 259.94 166.746 250.492 166.746 250.492C166.208 252.613 166.372 254.71 167.782 256.787Z" fill="#292929"/>
<path d="M208.957 247.406C208.957 247.406 214.548 240.351 215.09 234.618C215.267 232.743 214.456 231.018 213.167 229.327C213.167 229.327 211.508 236.061 209.833 240.155C205.924 249.709 194.94 261.957 194.94 261.957C194.94 261.957 201.198 258.657 204.139 255.343C206.543 252.634 208.957 247.406 208.957 247.406Z" fill="#292929"/>
<path d="M168.683 230.65C168.703 231.48 168.831 232.4 169.096 233.417C169.646 235.519 171.643 236.361 173.639 237.202C173.783 237.263 173.927 237.324 174.071 237.386C173.491 238.504 172.812 239.614 172.103 240.717C172.103 240.717 176.733 246.203 180.485 248.728C185.08 251.821 193.626 254.02 193.626 254.02C193.626 254.02 190.369 252.053 186.201 248.728C184.942 247.723 183.599 246.594 182.237 245.358C181.865 245.02 181.491 244.673 181.117 244.319C177.684 241.069 168.683 230.65 168.683 230.65Z" fill="#292929"/>
<path d="M189.684 240.155C187.071 242.559 182.237 245.358 182.237 245.358C183.599 246.594 184.942 247.723 186.201 248.728C186.201 248.728 189.033 245.918 190.56 243.878C193.874 239.449 196.692 231.091 196.692 231.091C196.692 231.091 192.973 237.128 189.684 240.155Z" fill="#292929"/>
<path d="M181.117 228.567C187.087 230.547 197.13 230.209 197.13 230.209L184.52 224.917C184.52 224.917 183.375 224.54 182.71 224.158C181.722 223.591 180.047 222.272 180.047 222.272L170.649 213.894C169.273 215.417 167.889 216.825 166.602 218.03C169.656 219.7 174.071 223.275 174.071 223.275C174.071 223.275 173.169 223.497 172.103 224.158C172.103 224.158 177.399 227.335 181.117 228.567Z" fill="#292929"/>
<path d="M180.047 222.272C180.047 222.272 181.722 223.591 182.71 224.158C183.375 224.54 184.52 224.917 184.52 224.917C184.52 224.917 186.24 222.676 187.056 221.07C188.532 218.166 189.246 213.012 189.246 213.012C189.246 213.012 187.376 217.219 185.304 219.185C183.682 220.724 180.047 222.272 180.047 222.272Z" fill="#292929"/>
<path d="M183.552 208.602C181.153 206.749 178.823 202.429 178.823 202.429C178.113 203.909 177.178 205.469 176.105 207.038C176.105 207.038 178.504 209.732 180.485 210.807C184.262 212.856 191.436 211.689 191.436 211.689C191.436 211.689 186.172 210.628 183.552 208.602Z" fill="#292929"/>
<path d="M201.073 198.141C205.891 184.913 205.453 183.149 203.263 174.33C203.263 174.33 200.456 190.79 195.816 200.224C193.877 204.168 190.122 209.925 190.122 209.925C190.122 209.925 195.324 205.729 198.007 202.429C199.305 200.832 201.073 198.141 201.073 198.141Z" fill="#292929"/>
<path d="M170.411 191.086C170.411 207.842 144.129 225.48 144.129 225.48C144.129 225.48 160.27 218.382 166.468 209.166C171.62 201.507 173.3 196.213 174.071 186.996C174.985 176.083 170.258 159.216 170.258 159.216C170.411 168.923 170.411 180.507 170.411 191.086Z" fill="#292929"/>
<path d="M185.304 149.637C198.883 139.936 205.453 150.96 205.453 150.96C205.453 150.96 204.654 146.684 202.387 144.347C199.996 141.881 194.502 140.819 194.502 140.819C194.502 140.819 195.057 128.466 194.502 121.295C193.886 113.334 190.998 101.893 190.998 101.893C190.998 101.893 191.436 119.212 191.436 120.976C191.436 122.376 191.545 124.036 191.662 125.813C192.1 132.477 192.645 140.767 187.932 143.023C186.498 143.709 185.304 144.347 185.304 144.347C185.304 144.347 187.297 135.568 186.18 130.114C185.144 125.06 180.485 118.208 180.485 118.208C180.485 118.208 183.15 128.594 183.552 135.405C183.782 139.323 183.364 142.324 182.939 145.38C182.56 148.102 182.175 150.869 182.237 154.366C182.365 161.51 184.094 172.567 184.094 172.567C185.717 161.146 185.304 149.637 185.304 149.637Z" fill="#292929"/>
<path d="M125.293 143.023H161.212L160.336 121.858C160.336 121.858 167.121 131.209 168.958 137.654C168.329 135.304 165.697 125.505 163.84 119.213C159.676 105.104 146.757 86.901 146.757 86.901C146.757 86.901 154.533 102.228 155.956 112.917C157.229 122.488 154.641 137.61 154.641 137.61C154.641 137.61 152.394 139.635 145.881 140.819C140.927 141.72 125.293 143.023 125.293 143.023Z" fill="#292929"/>
<path d="M117.847 88.3463C117.847 88.3463 122.813 105.546 125.293 116.567C126.153 120.387 126.417 124.737 126.394 128.791C126.394 128.791 126.971 112.626 125.293 103.657C123.436 93.7243 116.533 81.6096 116.533 81.6096L118.271 93.5152C118.208 91.8825 118.073 90.1655 117.847 88.3463Z" fill="#292929"/>
<path d="M80.1761 100.129C82.5323 90.8421 89.3747 79.8458 89.3747 79.8458C89.7016 83.0821 90.0168 86.6219 90.3333 90.1777L90.3334 90.1788C90.8651 96.1509 91.4007 102.168 92.0029 106.866C93.2695 116.748 96.6727 125.17 100.227 133.965C101.589 137.337 102.973 140.763 104.268 144.347L107.772 143.604L120.913 140.819C120.913 140.819 115.791 140.507 112.59 139.815C111.329 139.542 110.24 139.599 109.196 139.653C107.723 139.73 106.343 139.802 104.706 138.933C101.91 137.448 96.6151 116.757 95.0691 105.421C93.394 93.1375 93.755 70.145 93.755 70.145C93.755 70.145 86.4262 77.6841 83.6803 83.8143C80.9754 89.8532 80.1761 100.129 80.1761 100.129Z" fill="#292929"/>
<path d="M63.5309 144.347C63.5309 144.347 63.0469 104.744 65.721 119.213C69.2253 138.173 81.9282 144.347 81.9282 144.347C81.9282 144.347 70.1188 128.474 68.7872 115.563C67.7271 105.283 71.8535 88.6648 71.8535 88.6648C71.8535 88.6648 60.9371 104.272 59.5886 116.567C58.3728 127.651 63.5309 144.347 63.5309 144.347Z" fill="#292929"/>
<path d="M35.9349 145.228C44.2575 144.61 49.0758 151.842 49.0758 151.842C49.0758 151.842 45.6044 145.409 42.0673 142.583C40.4853 141.319 37.687 141.7 37.687 141.7C37.687 141.7 35.9405 122.474 37.687 111.594C39.5943 99.7126 47.7617 82.4915 47.7617 82.4915C47.7617 82.4915 36.8764 99.18 34.1827 111.594C31.6901 123.082 33.7447 141.7 33.7447 141.7C33.7447 141.7 28.552 142.409 25.4221 145.228C25.1023 145.517 24.811 145.826 24.5461 146.154C19.2385 152.731 24.5461 166.834 24.5461 166.834C22.3559 157.132 26.472 145.932 35.9349 145.228Z" fill="#292929"/>
<path d="M205.453 221.07C208.658 218.319 209.952 212.841 209.833 208.602C209.788 206.988 209.61 205.573 209.267 204.346L208.957 205.075C208.957 205.075 205.826 215.264 202.387 221.07C200.564 224.148 197.13 228.567 197.13 228.567C197.13 228.567 201.073 226.645 203.263 224.917C204.54 223.91 206.329 222.096 206.329 222.096C206.028 221.759 205.735 221.417 205.453 221.07Z" fill="black"/>
<path d="M25.4221 145.228C28.552 142.409 33.7447 141.7 33.7447 141.7C33.7447 141.7 26.5363 142.626 23.67 139.815C21.2288 137.42 21.0418 131.437 21.0418 131.437C21.0418 131.437 20.167 136.664 21.0418 139.815C21.7994 142.543 24.5461 146.154 24.5461 146.154C24.811 145.826 25.1023 145.517 25.4221 145.228Z" fill="#292929"/>
<path d="M39.0011 235.059C36.811 237.119 32.4306 239.052 32.4306 239.052C33.5416 240.41 34.7455 241.771 35.9349 243.056C35.9349 243.056 39.2301 240.363 40.7532 238.146C43.4933 234.157 44.2575 226.24 44.2575 226.24C44.2575 226.24 41.9165 232.317 39.0011 235.059Z" fill="#292929"/>
<path d="M25.4221 204.315C27.6123 206.961 28.2693 207.623 30.2405 209.166C29.4936 209.416 28.7608 209.864 28.0503 210.461C28.0503 210.461 32.2959 216.768 37.687 219.185C40.721 220.546 43.3814 224.158 43.3814 224.158C43.3814 224.158 40.5174 218.589 36.8109 215.217C31.6676 210.537 24.8746 201.988 24.8746 201.988C24.7931 202.928 24.9553 203.751 25.4221 204.315Z" fill="#292929"/>
<path d="M51.266 249.169C51.266 249.169 61.3407 238.587 61.3407 235.059C61.3407 235.059 55.843 242.457 51.8734 246.083C48.3092 249.338 42.0673 252.697 42.0673 252.697C42.0673 252.697 45.5576 252.599 47.7617 252.256C49.3842 252.003 51.8734 251.374 51.8734 251.374C51.7071 250.511 51.5104 249.749 51.266 249.169Z" fill="#292929"/>
<path d="M33.7447 262.299C32.4539 263.419 31.265 264.274 30.1407 265.084C30.1407 265.084 35.8236 265.199 39.0011 263.721C42.954 261.882 46.8857 255.784 46.8857 255.784C46.8857 255.784 39.5944 259.591 34.6208 259.311C28.9753 258.993 21.5049 253.138 21.5049 253.138C25.0455 256.978 29.7696 260.769 33.7447 262.299Z" fill="#292929"/>
<path d="M56.5223 192.635C56.5223 192.635 52.3138 199.991 48.6378 203.752C44.6424 207.84 36.8109 212.571 36.8109 212.571C36.8109 212.571 45.7736 208.687 50.8279 205.075C53.8772 202.896 58.1823 198.901 58.1823 198.901C57.2353 197.123 56.752 194.839 56.5223 192.635Z" fill="#292929"/>
<path d="M26.0238 185.295C25.5509 186.211 25.2329 187.299 25.4221 188.441C25.6626 189.894 28.2808 191.879 30.5928 193.373C31.0387 193.639 31.4945 193.904 31.9518 194.171C32.7034 194.608 33.4592 195.048 34.1827 195.496C38.6211 198.245 46.4476 200.788 46.4476 200.788C46.4476 200.788 38.125 196.256 32.4306 192.287C29.4984 190.244 26.0238 185.295 26.0238 185.295Z" fill="#292929"/>
<path fill-rule="evenodd" clip-rule="evenodd" d="M169.096 138.173C169.096 138.173 169.048 137.99 168.958 137.654C169.008 137.829 169.054 138.003 169.096 138.173ZM23.2319 232.974C23.5068 232.691 22.7939 232.536 22.7939 232.536C22.7939 232.536 19.2897 231.802 19.2897 228.567C19.2897 227.44 19.9623 224.81 21.1046 221.831C21.1046 221.831 27.2183 232.237 31.1165 237.386C31.5339 237.937 31.9744 238.494 32.4306 239.052C33.5416 240.41 34.7455 241.771 35.9349 243.056C39.7326 247.161 42.9434 249.61 42.9434 249.61C42.9434 249.61 34.0839 246.686 29.3644 242.04C26.3332 239.056 23.2319 232.974 23.2319 232.974Z" fill="#292929"/>
<path d="M16.2234 291.623L35.0588 297.355L43.8195 288.976L44.6955 296.913C44.6955 296.913 46.5573 292.621 46.4476 289.737C46.3296 286.634 43.8195 282.24 43.8195 282.24C43.8195 282.24 41.4503 287.271 39.0011 289.737C36.5518 292.202 31.5545 294.587 31.5545 294.587L16.2234 291.623Z" fill="#292929"/>
<path d="M63.0928 207.279C63.0928 207.279 57.3753 217.959 50.8279 220.508C48.6993 221.336 45.1335 223.154 45.1335 223.154C45.1335 223.154 51.2577 223.191 54.7702 221.831C59.2583 220.093 62.9553 212.571 62.9553 212.571C63.4604 210.406 63.7138 208.256 63.6215 206.398L63.0928 207.279Z" fill="#292929"/>
<path fill-rule="evenodd" clip-rule="evenodd" d="M203.263 224.917C204.54 223.91 206.329 222.096 206.329 222.096C207.28 223.161 208.312 224.182 209.322 225.182C210.738 226.583 212.112 227.943 213.167 229.327C213.167 229.327 211.508 236.061 209.833 240.155C205.924 249.709 194.94 261.957 194.94 261.957C194.94 261.957 201.198 258.657 204.139 255.343C206.543 252.634 208.957 247.406 208.957 247.406C208.957 247.406 208.988 256.742 210.271 261.957C211.186 265.673 213.005 268.556 214.806 271.409C216.808 274.582 218.787 277.718 219.47 281.921C220.662 289.26 219.47 300 219.47 300H203.263C203.263 300 201.07 296.589 201.073 294.146C201.075 291.968 202.825 288.855 202.825 288.855C202.825 288.855 195.581 289.369 194.064 292.823C193.146 294.914 194.064 298.677 194.064 298.677H172.601C172.601 298.677 174.765 286.332 178.733 279.595C181.422 275.03 187.275 269.073 187.275 269.073C190.51 268.097 194.94 265.044 194.94 265.044C194.94 265.044 182.317 268.143 176.543 263.28C172.578 259.94 166.746 250.492 166.746 250.492C167.42 247.835 169.197 245.14 171.003 242.401L171.003 242.4C171.372 241.841 171.741 241.28 172.103 240.717C172.103 240.717 176.733 246.203 180.485 248.728C185.08 251.821 193.626 254.02 193.626 254.02C193.626 254.02 190.369 252.053 186.201 248.728C186.201 248.728 189.033 245.918 190.56 243.878C193.874 239.449 196.692 231.091 196.692 231.091C196.692 231.091 192.973 237.128 189.684 240.155C187.071 242.559 182.237 245.358 182.237 245.358C181.865 245.02 181.491 244.673 181.117 244.319C177.684 241.069 168.683 230.65 168.683 230.65C168.598 227.065 170.529 225.133 172.103 224.158C172.103 224.158 177.399 227.335 181.117 228.567C187.087 230.547 197.13 230.209 197.13 230.209L184.52 224.917C184.52 224.917 186.24 222.676 187.056 221.07C188.532 218.166 189.246 213.012 189.246 213.012C189.246 213.012 187.376 217.219 185.304 219.185C183.682 220.724 180.047 222.272 180.047 222.272L170.649 213.894C172.582 211.754 174.498 209.387 176.105 207.038C176.105 207.038 178.504 209.732 180.485 210.807C184.262 212.856 191.436 211.689 191.436 211.689C191.436 211.689 186.172 210.628 183.552 208.602C181.153 206.749 178.823 202.429 178.823 202.429C178.946 202.173 179.062 201.92 179.171 201.669C180.99 197.484 181.916 191.311 182.645 185.032C182.667 184.845 182.689 184.659 182.71 184.473C195.056 185.355 203.263 174.33 203.263 174.33C203.263 174.33 200.456 190.79 195.816 200.224C193.877 204.168 190.122 209.925 190.122 209.925C190.122 209.925 195.324 205.729 198.007 202.429C199.305 200.832 201.073 198.141 201.073 198.141C205.79 198.73 208.251 200.71 209.267 204.346L208.957 205.075C208.957 205.075 205.826 215.264 202.387 221.07C200.564 224.148 197.13 228.567 197.13 228.567C197.13 228.567 201.073 226.645 203.263 224.917Z" fill="black"/>
<path d="M172.601 285.008C171.309 289.486 172.601 298.677 172.601 298.677C172.601 298.677 174.765 286.332 178.733 279.595C181.422 275.03 187.275 269.073 187.275 269.073C185.197 269.7 181.799 270.016 181.799 270.016C180.64 271.767 179.501 273.239 178.425 274.631C176.009 277.755 173.91 280.47 172.601 285.008Z" fill="#292929"/>
<path fill-rule="evenodd" clip-rule="evenodd" d="M11.8431 122.299C10.815 129.109 10.4777 135.938 12.2812 142.583C14.0846 149.227 17.0995 147.874 17.0995 147.874C17.0995 147.874 16.8638 158.281 17.5375 163.749C18.2113 169.218 20.1657 176.096 28.0503 182.709C28.0503 182.709 26.8183 183.758 26.0238 185.295C26.0238 185.295 29.4984 190.244 32.4306 192.287C38.125 196.256 46.4476 200.788 46.4476 200.788C46.4476 200.788 38.6211 198.245 34.1827 195.496C33.4592 195.048 32.7034 194.608 31.9518 194.171C31.4945 193.904 31.0387 193.639 30.5928 193.373C30.9222 193.586 31.2454 193.789 31.5545 193.979C28.1235 194.428 25.1463 198.856 24.8746 201.988C24.8746 201.988 31.6676 210.537 36.8109 215.217C40.5174 218.589 43.3814 224.158 43.3814 224.158C43.3814 224.158 40.721 220.546 37.687 219.185C32.2959 216.768 28.0503 210.461 28.0503 210.461C25.1908 212.863 22.6934 217.686 21.1046 221.831C21.1046 221.831 27.2183 232.237 31.1165 237.386C31.5339 237.937 31.9744 238.494 32.4306 239.052C32.4306 239.052 36.811 237.119 39.0011 235.059C41.9165 232.317 44.2575 226.24 44.2575 226.24C44.2575 226.24 43.4933 234.157 40.7532 238.146C39.2301 240.363 35.9349 243.056 35.9349 243.056C39.7326 247.161 42.9434 249.61 42.9434 249.61C42.9434 249.61 34.0839 246.686 29.3644 242.04C26.3332 239.056 23.2319 232.974 23.2319 232.974C23.1184 233.091 22.9805 233.23 22.8228 233.389C20.9394 235.286 16.2234 240.036 16.2234 244.441C16.2234 246.395 18.4129 249.785 21.5049 253.138C21.5049 253.138 28.9753 258.993 34.6208 259.311C39.5944 259.591 46.8857 255.784 46.8857 255.784C46.8857 255.784 42.954 261.882 39.0011 263.721C35.8236 265.199 30.1407 265.084 30.1407 265.084C28.0656 266.577 26.2102 267.913 24.3386 270.457C19.8762 276.521 16.2234 291.623 16.2234 291.623L31.5545 294.587C31.5545 294.587 36.5518 292.202 39.0011 289.737C41.4503 287.271 43.8195 282.24 43.8195 282.24C43.8195 282.24 46.3296 286.634 46.4476 289.737C46.5573 292.621 44.6955 296.913 44.6955 296.913H60.4646C60.4646 296.913 59.0905 285.628 56.9604 278.713C56.0997 275.919 54.7841 273.807 53.5231 271.784C51.7767 268.981 50.1351 266.346 49.9519 262.299C49.7559 257.971 51.8734 251.374 51.8734 251.374C51.8734 251.374 49.3842 252.003 47.7617 252.256C45.5576 252.599 42.0673 252.697 42.0673 252.697C42.0673 252.697 48.3092 249.338 51.8734 246.083C55.843 242.457 61.3407 235.059 61.3407 235.059C61.3407 231.532 59.7514 228.136 56.9604 224.158C59.508 222.185 61.8424 217.341 62.9553 212.571C62.9553 212.571 59.2583 220.093 54.7702 221.831C51.2577 223.191 45.1335 223.154 45.1335 223.154C45.1335 223.154 48.6993 221.336 50.8279 220.508C57.3753 217.959 63.0928 207.279 63.0928 207.279L63.6215 206.398C63.4624 203.198 62.2784 200.859 59.5886 200.788C59.033 200.27 58.569 199.628 58.1823 198.901C58.1823 198.901 53.8772 202.896 50.8279 205.075C45.7736 208.687 36.8109 212.571 36.8109 212.571C36.8109 212.571 44.6424 207.84 48.6378 203.752C52.3138 199.991 56.5223 192.635 56.5223 192.635C56.1066 188.644 56.5223 184.914 56.5223 184.914H46.4476C38.563 184.914 26.7362 176.536 24.5461 166.834C24.5461 166.834 19.2385 152.731 24.5461 146.154C24.5461 146.154 21.7994 142.543 21.0418 139.815C20.167 136.664 21.0418 131.437 21.0418 131.437C21.0418 131.437 21.2288 137.42 23.67 139.815C26.5363 142.626 33.7447 141.7 33.7447 141.7C33.7447 141.7 31.6901 123.082 34.1827 111.594C36.8764 99.18 47.7617 82.4915 47.7617 82.4915C47.7617 82.4915 39.5943 99.7126 37.687 111.594C35.9405 122.474 37.687 141.7 37.687 141.7C37.687 141.7 40.4853 141.319 42.0673 142.583C45.6044 145.409 49.0758 151.842 49.0758 151.842C49.0758 151.842 46.5228 145.144 46.0096 141.7C51.4836 142.733 63.5309 144.347 63.5309 144.347C63.5309 144.347 58.3728 127.651 59.5886 116.567C60.9371 104.272 71.8535 88.6648 71.8535 88.6648C71.8535 88.6648 67.7271 105.283 68.7872 115.563C70.1188 128.474 81.9282 144.347 81.9282 144.347C81.9282 144.347 76.0691 116.315 80.1761 100.129C80.1761 100.129 80.9754 89.8532 83.6803 83.8143C86.4262 77.6841 93.755 70.145 93.755 70.145C93.755 70.145 93.394 93.1375 95.0691 105.421C96.6151 116.757 101.91 137.448 104.706 138.933C106.343 139.802 107.723 139.73 109.196 139.653C110.24 139.599 111.329 139.542 112.59 139.815C115.791 140.507 120.913 140.819 120.913 140.819C114.28 126.664 115.562 118.492 116.995 109.35C117.733 104.645 118.511 99.6825 118.271 93.5152L116.533 81.6096C116.533 81.6096 123.436 93.7243 125.293 103.657C126.971 112.626 126.394 128.791 126.394 128.791C126.352 136.433 125.293 143.023 125.293 143.023C125.293 143.023 140.927 141.72 145.881 140.819C152.394 139.635 154.641 137.61 154.641 137.61C154.641 137.61 157.229 122.488 155.956 112.917C154.533 102.228 146.757 86.901 146.757 86.901C146.757 86.901 159.676 105.104 163.84 119.213C165.697 125.505 168.329 135.304 168.958 137.654C169.008 137.829 169.054 138.003 169.096 138.173C169.77 140.885 170.098 149.014 170.258 159.216C170.258 159.216 174.985 176.083 174.071 186.996C173.3 196.213 171.62 201.507 166.468 209.166C160.27 218.382 144.129 225.48 144.129 225.48C144.129 225.48 158.565 224.157 162.964 221.07C163.985 220.354 165.239 219.306 166.602 218.03C167.889 216.825 169.273 215.417 170.649 213.894C172.582 211.754 174.498 209.387 176.105 207.038C177.178 205.469 178.113 203.909 178.823 202.429C178.946 202.173 179.062 201.92 179.171 201.669C180.99 197.484 181.916 191.311 182.645 185.032C182.667 184.845 182.689 184.659 182.71 184.473C182.854 183.209 182.992 181.943 183.128 180.69L183.128 180.687C183.435 177.854 183.735 175.088 184.094 172.567C184.094 172.567 182.365 161.51 182.237 154.366C182.175 150.869 182.56 148.102 182.939 145.38C183.364 142.324 183.782 139.323 183.552 135.405C183.15 128.594 180.485 118.208 180.485 118.208C180.485 118.208 185.144 125.06 186.18 130.114C187.297 135.568 185.304 144.347 185.304 144.347C185.304 144.347 186.498 143.709 187.932 143.023C192.645 140.767 192.1 132.477 191.662 125.813C191.545 124.036 191.436 122.376 191.436 120.976C191.436 119.212 190.998 101.893 190.998 101.893C190.998 101.893 193.886 113.334 194.502 121.295C195.057 128.466 194.502 140.819 194.502 140.819C194.502 140.819 199.996 141.881 202.387 144.347C204.654 146.684 205.453 150.96 205.453 150.96C205.453 150.96 209.896 146.172 211.148 143.023C218.156 125.386 201.073 72.0313 191.436 59.2437C183.55 48.7794 169.832 37.8877 156.832 33.6688C149.105 31.1615 144.995 31.2083 140.079 31.2644C136.724 31.3026 132.994 31.3451 127.484 30.5823C92.441 25.732 68.4743 31.464 46.0096 55.7161C23.545 79.9682 12.8712 115.489 11.8431 122.299Z" fill="black"/>
<path d="M60.4646 296.913C60.4646 296.913 60.3127 283.172 59.1506 274.425C58.4812 269.387 57.0091 267.033 55.424 264.499C54.7711 263.455 54.0991 262.38 53.4561 261.075C53.0063 260.162 52.7582 258.05 52.4921 255.785C52.3153 254.28 52.1306 252.708 51.8734 251.374C51.8734 251.374 49.7559 257.971 49.9519 262.299C50.1351 266.346 51.7767 268.981 53.5231 271.784C54.7841 273.807 56.0997 275.919 56.9604 278.713C59.0905 285.628 60.4646 296.913 60.4646 296.913Z" fill="#292929"/>
</g>
<defs>
<clipPath id="clip0_1043_531">
<rect width="230" height="475" fill="white"/>
</clipPath>
</defs>
</svg>
