<svg width="230" height="475" viewBox="0 0 230 475" fill="none" xmlns="http://www.w3.org/2000/svg">
<g clip-path="url(#clip0_1043_536)">
<path d="M178.985 332.783C179.615 326.861 187 297.176 187 297.176C187 297.176 178.369 258.692 163.389 240.765C153.661 229.123 135.526 215.815 135.526 215.815L135.203 215.55C125.259 217 116.743 217 114.8 217C112.908 217 106.247 216.912 97.7957 215.661L96.5149 216.899C96.5149 216.899 77.4561 226.718 67.0067 242.393C56.5573 258.067 43 297.176 43 297.176C43 297.176 54.5606 329.869 55.5613 334.142C56.3198 337.381 60.2014 342.051 64.2083 346.181C64.2083 346.181 60.3023 367.056 59.2069 380.619C56.7299 411.289 64.2083 459.268 64.2083 459.268C64.2083 459.268 70.4947 474.227 78.5099 474C86.4131 473.776 91.9975 458.901 91.9975 458.901L101 409L115.02 382.333L128.998 409.971L137.5 461.5C137.5 461.5 143.485 473.698 150.53 474C158.515 474.342 164.736 459.268 164.736 459.268C164.736 459.268 171.854 411.449 171.238 380.619C170.969 367.14 169.008 346.181 169.008 346.181C173.868 341.639 178.604 336.366 178.985 332.783Z" fill="#FFCEB4"/>
<path d="M55.1636 184.709C55.1636 194.455 58.1258 199.7 64.0363 203.764C74.3042 210.823 87.4035 214.122 97.7957 215.661C106.247 216.912 112.908 217 114.8 217C116.743 217 125.259 217 135.203 215.55C146.847 213.852 160.449 210.166 167.745 202.164C171.803 197.713 174.219 194.219 174.436 188.2C174.336 187.064 174.364 185.851 174.497 184.564C175.41 175.792 181.262 163.601 185.202 149.218C190.159 131.122 192.088 109.556 177.345 86.9637C166.145 69.8001 144.764 57 114.8 57C92.5455 57 64.3273 70.3819 53.7091 88.1273C35.9665 117.779 41.6452 133.678 47.9592 151.255L47.981 151.315C51.4789 161.052 55.1636 171.31 55.1636 184.709Z" fill="#FFCEB4"/>
<path d="M47.9592 151.255C47.9592 151.255 43.2364 144.564 35.6727 144.564C26.0727 144.564 22 152.568 22 160.564C22 169 26.7203 176.581 35.6727 181.655C42.3756 185.454 55.1636 184.709 55.1636 184.709C55.1636 171.31 51.4789 161.052 47.981 151.315L47.9592 151.255Z" fill="#FFCEB4"/>
<path d="M198.436 145C193.113 144.03 185.202 149.218 185.202 149.218C181.262 163.601 175.41 175.792 174.497 184.564C174.497 184.564 187.066 185.421 193.782 182.382C203.471 177.997 206.727 170.309 207.891 161.146C208.862 153.5 206.019 146.382 198.436 145Z" fill="#FFCEB4"/>
<path d="M55.1636 184.709C55.1636 194.455 58.1258 199.7 64.0363 203.764C74.3042 210.823 87.4035 214.122 97.7957 215.661M55.1636 184.709C55.1636 184.709 42.3756 185.454 35.6727 181.655C26.7203 176.581 22 169 22 160.564C22 152.568 26.0727 144.564 35.6727 144.564C43.2364 144.564 47.9592 151.255 47.9592 151.255M55.1636 184.709C55.1636 171.31 51.4789 161.052 47.981 151.315M185.202 149.218C190.159 131.122 192.088 109.556 177.345 86.9637C166.145 69.8001 144.764 57 114.8 57C92.5455 57 64.3273 70.3819 53.7091 88.1273C35.9665 117.779 41.6452 133.678 47.9592 151.255M185.202 149.218C185.202 149.218 193.113 144.03 198.436 145C206.019 146.382 208.862 153.5 207.891 161.146C206.727 170.309 203.471 177.997 193.782 182.382C187.066 185.421 174.497 184.564 174.497 184.564M185.202 149.218C181.262 163.601 175.41 175.792 174.497 184.564M174.497 184.564C174.364 185.851 174.336 187.064 174.436 188.2C174.219 194.219 171.803 197.713 167.745 202.164C160.449 210.166 146.847 213.852 135.203 215.55M47.9592 151.255L47.981 151.315M47.9592 151.255C47.9665 151.275 47.9737 151.295 47.981 151.315M97.7957 215.661L96.5149 216.899C96.5149 216.899 77.4561 226.718 67.0067 242.393C56.5573 258.067 43 297.176 43 297.176C43 297.176 54.5606 329.869 55.5613 334.142C56.3198 337.381 60.2014 342.051 64.2083 346.181C64.2083 346.181 60.3023 367.056 59.2069 380.619C56.73 411.289 64.2083 459.268 64.2083 459.268C64.2083 459.268 70.4947 474.227 78.5099 474C86.4131 473.776 91.9975 458.901 91.9975 458.901L101 409L115.02 382.333L128.998 409.971L137.5 461.5C137.5 461.5 143.485 473.698 150.53 474C158.515 474.342 164.736 459.268 164.736 459.268C164.736 459.268 171.854 411.449 171.238 380.619C170.969 367.14 169.008 346.181 169.008 346.181C173.868 341.639 178.604 336.366 178.985 332.783C179.615 326.861 187 297.176 187 297.176C187 297.176 178.369 258.692 163.389 240.765C153.661 229.123 135.526 215.815 135.526 215.815L135.203 215.55M97.7957 215.661C106.247 216.912 112.908 217 114.8 217C116.743 217 125.259 217 135.203 215.55" stroke="black" stroke-width="2" stroke-linejoin="round"/>
<path d="M21.5631 214.136C21.5631 220.143 17.6611 225.526 17.6611 225.526L24.598 220.269C24.598 220.269 30.2343 227.278 55.8143 226.84C79.1812 226.44 83.483 222.401 85.1262 220.858C85.3669 220.632 85.5506 220.459 85.7288 220.36C83.0497 220.911 68.5738 223.794 58.8494 223.774C57.0484 223.77 55.4226 223.797 53.9172 223.822L53.9157 223.822C46.5747 223.944 42.0975 224.018 34.1365 220.269C28.9338 217.819 12.8922 199.242 9.85727 193.985C4.66387 184.99 4.00007 168.658 4.00007 168.658C4.00795 177.662 4.67716 186.353 6.81137 191C9.32798 196.479 10.7233 201.171 14.7867 205.168C18.5056 208.826 21.5631 211.834 21.5631 214.136Z" fill="#292929"/>
<path d="M150.764 227.278C153.07 225.97 156.833 223.336 156.833 223.336C156.833 223.336 156.4 226.84 159.868 227.716C159.868 227.716 158.419 225.537 158.134 223.774C157.78 221.579 158.568 217.641 158.568 217.641C158.568 217.641 157.318 220.792 155.966 222.46C154.269 224.554 150.764 227.278 150.764 227.278Z" fill="#292929"/>
<path d="M30.6681 147.55C37.3 142.308 49.7447 151.055 49.7447 151.055C49.7447 151.055 49.4423 147.338 50.1782 145.798C52.0972 141.78 51.4789 136.16 51.4789 136.16C51.4789 136.16 49.8533 140.432 47.5769 141.855C44.8376 143.568 39.3393 142.293 39.3393 142.293C39.3393 142.293 54.0285 132.407 58.4158 124.77C62.8563 117.041 59.7165 106.371 59.7165 106.371C59.7165 106.371 58.2104 118.298 54.5138 124.77C51.4816 130.079 46.588 132.02 41.7409 133.941C36.7113 135.936 31.7318 137.91 28.9338 143.607C26.8184 147.915 25.5457 155.435 25.5457 155.435C26.3276 152.475 27.885 149.75 30.6681 147.55Z" fill="#292929"/>
<path d="M91.7998 129.151C114.345 106.81 113.044 86.6584 113.044 86.6584C113.044 86.6584 119.548 81.4016 125.184 84.03C125.184 84.03 124.025 82.2966 122.582 81.4016C119.747 79.6432 113.478 81.4016 113.478 81.4016L112.177 74.3925C112.177 74.3925 107.072 103.009 93.534 119.514C80.3717 135.561 46.7097 155.435 46.7097 155.435C46.7097 155.435 77.3709 143.45 91.7998 129.151Z" fill="#292929"/>
<path d="M116.946 134.846C117.769 145.169 128.219 148.864 128.219 148.864C128.219 148.864 121.673 140.979 119.981 134.846C117.655 126.415 121.825 117.879 125.26 110.849C127.303 106.666 129.086 103.016 129.086 100.239C129.086 94.9532 127.069 88.4107 127.069 88.4107C127.827 93.895 126.918 102.429 126.918 102.429C126.918 102.429 115.993 122.873 116.946 134.846Z" fill="#292929"/>
<path d="M215.797 200.118C219.364 190.507 217.098 173.396 217.098 173.396C217.098 173.396 213.629 165.949 214.063 164.196C214.487 162.483 221 163.32 221 163.32C221 163.32 210.198 150.566 207.993 140.541C207.777 139.557 207.862 136.79 207.982 132.867C208.139 127.736 208.356 120.626 208.04 112.943C208.04 112.943 204.014 128.132 204.958 137.912C205.533 143.86 208.427 152.807 208.427 152.807L200.164 149.74C200.164 149.74 205.782 154.603 208.427 158.502C212.833 164.996 213.479 170.377 214.316 177.349L214.316 177.35C214.498 178.868 214.689 180.461 214.93 182.157C215.918 189.109 215.797 200.118 215.797 200.118Z" fill="#292929"/>
<path d="M189.35 183.472L173.742 184.786C173.742 184.786 183.278 184.807 188.483 185.662C193.106 186.421 198.889 188.728 198.889 188.728C198.889 188.728 192.469 183.75 188.917 179.967C185.094 175.896 180.245 168.577 180.245 168.577C181.293 174.714 189.35 183.472 189.35 183.472Z" fill="#292929"/>
<path d="M190.583 218.354C191.114 217.713 191.491 217.257 192.385 217.203C193.352 217.144 194.136 218.01 195.02 218.987C196.118 220.199 197.371 221.583 199.322 221.583C199.322 221.583 197.21 219.623 195.854 217.641C193.72 214.523 191.952 208.003 191.952 208.003C191.952 208.003 192.76 211.5 192.385 213.698C192.004 215.929 190.034 218.987 190.034 218.987C190.244 218.763 190.421 218.549 190.583 218.354Z" fill="#292929"/>
<path d="M49.7447 151.055L46.7097 155.435C46.7097 155.435 80.3717 135.561 93.534 119.514C107.072 103.009 112.177 74.3925 112.177 74.3925L113.478 81.4016C113.478 81.4016 119.747 79.6432 122.582 81.4016C124.025 82.2966 125.184 84.03 125.184 84.03C126.192 84.5001 126.765 86.2098 127.069 88.4107C127.069 88.4107 129.086 94.9532 129.086 100.239C129.086 103.016 127.303 106.666 125.26 110.849C121.825 117.879 117.655 126.415 119.981 134.846C121.673 140.979 128.219 148.864 128.219 148.864C128.219 148.864 124.246 140.535 125.184 132.656C125.819 127.317 129.743 118.549 132.96 112.066C132.96 112.066 133.784 106.808 135.156 103.743C136.22 101.363 138.624 98.0482 138.624 98.0482C138.624 98.0482 143.582 141.53 165.071 147.988C171.419 149.896 182.413 150.616 182.413 150.616C182.413 150.616 180.32 147.262 179.379 144.922C177.566 140.413 177.211 132.656 177.211 132.656C177.211 132.656 179.255 140.097 182.413 143.607C184.032 145.406 187.183 147.55 187.183 147.55L193.686 145.798C193.686 145.798 190.857 147.161 189.35 148.426C187.976 149.58 186.913 150.941 186.066 152.026C185.846 152.308 185.641 152.571 185.448 152.807C182.884 155.95 179.844 161.568 179.844 161.568C179.809 163.931 179.89 166.495 180.245 168.577C180.245 168.577 185.094 175.896 188.917 179.967C192.469 183.75 198.889 188.728 198.889 188.728C198.889 188.728 193.106 186.421 188.483 185.662C183.278 184.807 173.742 184.786 173.742 184.786C173.742 184.786 176.538 209.353 135.5 215.147L150 227.547C150.324 227.47 150.583 227.381 150.764 227.278C150.764 227.278 154.269 224.554 155.966 222.46C157.318 220.792 158.568 217.641 158.568 217.641C158.568 217.641 157.78 221.579 158.134 223.774C158.419 225.537 159.868 227.716 159.868 227.716C163.144 228.544 178.024 223.9 184.414 221.906L185.007 221.721L185.448 221.583C188.05 220.775 189.266 219.807 190.034 218.987C190.034 218.987 192.004 215.929 192.385 213.698C192.76 211.5 191.952 208.003 191.952 208.003C191.952 208.003 193.72 214.523 195.854 217.641C197.21 219.623 199.322 221.583 199.322 221.583C201.49 221.583 211.594 211.445 215.797 200.118C215.797 200.118 215.918 189.109 214.93 182.157C214.689 180.461 214.498 178.868 214.316 177.35L214.316 177.349C213.479 170.377 212.833 164.996 208.427 158.502C205.782 154.603 200.164 149.74 200.164 149.74L208.427 152.807C208.427 152.807 205.533 143.86 204.958 137.912C204.014 128.132 208.04 112.943 208.04 112.943C207.628 102.953 206.314 91.9941 202.791 83.1537C201.609 80.1895 200.837 77.811 200.164 75.7405C197.722 68.2188 196.599 64.7606 181.98 52.0508C163.337 35.8423 134.288 38.9087 134.288 38.9087C134.288 38.9087 105.793 29.9573 86.1636 34.0899C75.7582 36.2805 60.2525 42.6727 50.1782 53.365C40.104 64.0573 35.0779 74.9645 31.535 89.2866C31.2753 90.3366 28.6533 94.0604 25.0693 99.1504C16.6909 111.05 6.51283 130.497 5.51069 140.622C5.0275 145.504 3.99016 157.329 4.00007 168.658C4.00007 168.658 4.66387 184.99 9.85727 193.985C12.8922 199.242 28.9338 217.819 34.1365 220.269C42.0975 224.018 46.5747 223.944 53.9157 223.822L53.9172 223.822C55.4226 223.797 57.0484 223.77 58.8494 223.774C68.5738 223.794 83.0497 220.911 85.7288 220.36C85.8687 220.282 86.0052 220.248 86.1634 220.269C87.2628 220.415 88.4622 220.621 89.6805 220.858L97.5 215.207C55.3762 209.516 56.6816 184.786 56.6816 184.786C56.6816 184.786 48.444 185.224 42.3742 183.471C37.7134 182.126 26.766 176.024 25.4654 167.701C24.8319 163.647 24.5152 159.337 25.5457 155.435C25.5457 155.435 26.8184 147.915 28.9338 143.607C31.7318 137.91 36.7113 135.936 41.7409 133.941C46.588 132.02 51.4816 130.079 54.5138 124.77C58.2104 118.298 59.7165 106.371 59.7165 106.371C59.7165 106.371 62.8563 117.041 58.4158 124.77C54.0285 132.407 39.3393 142.293 39.3393 142.293C39.3393 142.293 44.8376 143.568 47.5769 141.855C49.8533 140.432 51.4789 136.16 51.4789 136.16C51.4789 136.16 52.0972 141.78 50.1782 145.798C49.4423 147.338 49.7447 151.055 49.7447 151.055Z" fill="black"/>
<path fill-rule="evenodd" clip-rule="evenodd" d="M91.7998 129.151C77.3709 143.45 46.7097 155.435 46.7097 155.435C46.7097 155.435 80.3717 135.561 93.534 119.514C107.072 103.009 112.177 74.3925 112.177 74.3925L113.478 81.4016C113.478 81.4016 119.747 79.6432 122.582 81.4016C124.025 82.2966 125.184 84.03 125.184 84.03C119.548 81.4016 113.044 86.6584 113.044 86.6584C113.044 86.6584 114.345 106.81 91.7998 129.151ZM126.918 102.429C126.918 102.429 127.827 93.895 127.069 88.4107C127.069 88.4107 129.086 94.9532 129.086 100.239C129.086 103.016 127.303 106.666 125.26 110.849C121.825 117.879 117.655 126.415 119.981 134.846C121.673 140.979 128.219 148.864 128.219 148.864C128.219 148.864 117.769 145.169 116.946 134.846C115.993 122.873 126.918 102.429 126.918 102.429ZM189.35 183.472C189.35 183.472 181.293 174.714 180.245 168.577C180.245 168.577 185.094 175.896 188.917 179.967C192.469 183.75 198.889 188.728 198.889 188.728C198.889 188.728 193.106 186.421 188.483 185.662C183.278 184.807 173.742 184.786 173.742 184.786L189.35 183.472ZM30.6681 147.55C27.885 149.75 26.3276 152.475 25.5457 155.435C25.5457 155.435 26.8184 147.915 28.9338 143.607C31.7318 137.91 36.7113 135.936 41.7409 133.941C46.588 132.02 51.4816 130.079 54.5138 124.77C58.2104 118.298 59.7165 106.371 59.7165 106.371C59.7165 106.371 62.8563 117.041 58.4158 124.77C54.0285 132.407 39.3393 142.293 39.3393 142.293C39.3393 142.293 44.8376 143.568 47.5769 141.855C49.8533 140.432 51.4789 136.16 51.4789 136.16C51.4789 136.16 52.0972 141.78 50.1782 145.798C49.4423 147.338 49.7447 151.055 49.7447 151.055C49.7447 151.055 37.3 142.308 30.6681 147.55Z" fill="#292929"/>
<path d="M165.505 152.369C170.981 154.287 180.245 154.559 180.245 154.559C180.245 154.559 179.898 157.81 179.844 161.568C179.844 161.568 182.884 155.95 185.448 152.807C185.641 152.571 185.846 152.308 186.066 152.026C186.913 150.941 187.976 149.58 189.35 148.426C190.857 147.161 193.686 145.798 193.686 145.798L187.183 147.55C187.183 147.55 184.032 145.406 182.413 143.607C179.255 140.097 177.211 132.656 177.211 132.656C177.211 132.656 177.566 140.413 179.379 144.922C180.32 147.262 182.413 150.616 182.413 150.616C182.413 150.616 171.419 149.896 165.071 147.988C143.582 141.53 138.624 98.0482 138.624 98.0482C138.624 98.0482 136.22 101.363 135.156 103.743C133.784 106.808 132.96 112.066 132.96 112.066C135.334 107.283 137.323 103.743 137.323 103.743C137.323 103.743 138.761 121.341 144.694 131.341L144.872 131.642C150.515 141.155 154.98 148.682 165.505 152.369Z" fill="#292929"/>
<path d="M78 155C78 151.686 80.6863 149 84 149C87.3137 149 90 151.686 90 155V157V158V168C90 171.314 87.3137 174 84 174C80.6863 174 78 171.314 78 168V158V157V155Z" fill="black"/>
<path d="M138 155C138 151.686 140.686 149 144 149C147.314 149 150 151.686 150 155V168C150 171.314 147.314 174 144 174C140.686 174 138 171.314 138 168V155Z" fill="black"/>
<path d="M74 193.5C74 196.538 67.0604 199 58.5 199C49.9396 199 43 196.538 43 193.5C43 190.462 49.9396 188 58.5 188C67.0604 188 74 190.462 74 193.5Z" fill="#F9A9E7"/>
<path d="M187 193.5C187 196.538 180.06 199 171.5 199C162.94 199 156 196.538 156 193.5C156 190.462 162.94 188 171.5 188C180.06 188 187 190.462 187 193.5Z" fill="#F9A9E7"/>
<path d="M105.147 197.763C105.312 196.942 106.307 196.525 107.064 196.881C108.569 197.588 111.114 198.469 114.5 198.5C118.11 198.533 121.06 197.581 122.798 196.842C123.562 196.518 124.5 197.072 124.5 197.903C124.5 198.274 124.308 198.616 123.977 198.784C122.692 199.439 119.142 201 114.5 201C110.08 201 106.933 199.584 105.646 198.884C105.245 198.666 105.058 198.21 105.147 197.763Z" fill="black"/>
<path d="M78 157C78 157 76.8027 157.562 76 157.5C75.7414 157.48 75.4353 157.389 75.1673 157.289C74.8554 157.174 74.5 157.395 74.5 157.728C74.5 157.895 74.5932 158.048 74.7457 158.116C75.0523 158.254 75.5867 158.468 76 158.5C76.8027 158.562 78 158 78 158V157Z" fill="black"/>
<path d="M152 157.5C151.197 157.562 150 157 150 157V158C150 158 151.197 158.562 152 158.5C152.413 158.468 152.948 158.254 153.254 158.116C153.407 158.048 153.5 157.895 153.5 157.728C153.5 157.395 153.145 157.174 152.833 157.289C152.565 157.389 152.259 157.48 152 157.5Z" fill="black"/>
</g>
<defs>
<clipPath id="clip0_1043_536">
<rect width="230" height="475" fill="white"/>
</clipPath>
</defs>
</svg>
