<svg width="230" height="475" viewBox="0 0 230 475" fill="none" xmlns="http://www.w3.org/2000/svg">
<g clip-path="url(#clip0_1043_541)">
<path d="M178.985 332.783C179.615 326.861 187 297.176 187 297.176C187 297.176 178.369 258.692 163.389 240.765C153.661 229.123 135.526 215.815 135.526 215.815L135.203 215.55C125.259 217 116.743 217 114.8 217C112.908 217 106.247 216.912 97.7957 215.661L96.5149 216.899C96.5149 216.899 77.4561 226.718 67.0067 242.393C56.5573 258.067 43 297.176 43 297.176C43 297.176 54.5606 329.869 55.5613 334.142C56.3198 337.381 60.2014 342.051 64.2083 346.181C64.2083 346.181 60.3023 367.056 59.2069 380.619C56.7299 411.289 64.2083 459.268 64.2083 459.268C64.2083 459.268 70.4947 474.227 78.5099 474C86.4131 473.776 91.9975 458.901 91.9975 458.901L101 409L115.02 382.333L128.998 409.971L137.5 461.5C137.5 461.5 143.485 473.698 150.53 474C158.515 474.342 164.736 459.268 164.736 459.268C164.736 459.268 171.854 411.449 171.238 380.619C170.969 367.14 169.008 346.181 169.008 346.181C173.868 341.639 178.604 336.366 178.985 332.783Z" fill="#FFCEB4"/>
<path d="M55.1636 184.709C55.1636 194.455 58.1258 199.7 64.0363 203.764C74.3042 210.823 87.4035 214.122 97.7957 215.661C106.247 216.912 112.908 217 114.8 217C116.743 217 125.259 217 135.203 215.55C146.847 213.852 160.449 210.166 167.745 202.164C171.803 197.713 174.219 194.219 174.436 188.2C174.336 187.064 174.364 185.851 174.497 184.564C175.41 175.792 181.262 163.601 185.202 149.218C190.159 131.122 192.088 109.556 177.345 86.9637C166.145 69.8001 144.764 57 114.8 57C92.5455 57 64.3273 70.3819 53.7091 88.1273C35.9665 117.779 41.6452 133.678 47.9592 151.255L47.981 151.315C51.4789 161.052 55.1636 171.31 55.1636 184.709Z" fill="#FFCEB4"/>
<path d="M47.9592 151.255C47.9592 151.255 43.2364 144.564 35.6727 144.564C26.0727 144.564 22 152.568 22 160.564C22 169 26.7203 176.581 35.6727 181.655C42.3756 185.454 55.1636 184.709 55.1636 184.709C55.1636 171.31 51.4789 161.052 47.981 151.315L47.9592 151.255Z" fill="#FFCEB4"/>
<path d="M198.436 145C193.113 144.03 185.202 149.218 185.202 149.218C181.262 163.601 175.41 175.792 174.497 184.564C174.497 184.564 187.066 185.421 193.782 182.382C203.471 177.997 206.727 170.309 207.891 161.146C208.862 153.5 206.019 146.382 198.436 145Z" fill="#FFCEB4"/>
<path d="M55.1636 184.709C55.1636 194.455 58.1258 199.7 64.0363 203.764C74.3042 210.823 87.4035 214.122 97.7957 215.661M55.1636 184.709C55.1636 184.709 42.3756 185.454 35.6727 181.655C26.7203 176.581 22 169 22 160.564C22 152.568 26.0727 144.564 35.6727 144.564C43.2364 144.564 47.9592 151.255 47.9592 151.255M55.1636 184.709C55.1636 171.31 51.4789 161.052 47.981 151.315M185.202 149.218C190.159 131.122 192.088 109.556 177.345 86.9637C166.145 69.8001 144.764 57 114.8 57C92.5455 57 64.3273 70.3819 53.7091 88.1273C35.9665 117.779 41.6452 133.678 47.9592 151.255M185.202 149.218C185.202 149.218 193.113 144.03 198.436 145C206.019 146.382 208.862 153.5 207.891 161.146C206.727 170.309 203.471 177.997 193.782 182.382C187.066 185.421 174.497 184.564 174.497 184.564M185.202 149.218C181.262 163.601 175.41 175.792 174.497 184.564M174.497 184.564C174.364 185.851 174.336 187.064 174.436 188.2C174.219 194.219 171.803 197.713 167.745 202.164C160.449 210.166 146.847 213.852 135.203 215.55M47.9592 151.255L47.981 151.315M47.9592 151.255C47.9665 151.275 47.9737 151.295 47.981 151.315M97.7957 215.661L96.5149 216.899C96.5149 216.899 77.4561 226.718 67.0067 242.393C56.5573 258.067 43 297.176 43 297.176C43 297.176 54.5606 329.869 55.5613 334.142C56.3198 337.381 60.2014 342.051 64.2083 346.181C64.2083 346.181 60.3023 367.056 59.2069 380.619C56.73 411.289 64.2083 459.268 64.2083 459.268C64.2083 459.268 70.4947 474.227 78.5099 474C86.4131 473.776 91.9975 458.901 91.9975 458.901L101 409L115.02 382.333L128.998 409.971L137.5 461.5C137.5 461.5 143.485 473.698 150.53 474C158.515 474.342 164.736 459.268 164.736 459.268C164.736 459.268 171.854 411.449 171.238 380.619C170.969 367.14 169.008 346.181 169.008 346.181C173.868 341.639 178.604 336.366 178.985 332.783C179.615 326.861 187 297.176 187 297.176C187 297.176 178.369 258.692 163.389 240.765C153.661 229.123 135.526 215.815 135.526 215.815L135.203 215.55M97.7957 215.661C106.247 216.912 112.908 217 114.8 217C116.743 217 125.259 217 135.203 215.55" stroke="black" stroke-width="2" stroke-linejoin="round"/>
<path d="M28.012 270.678C31.8378 272.298 35.1829 269.759 39.7983 269.759C40.6039 269.759 42.8958 252.932 43.2456 250.329C42.9046 252.899 40.7739 269.335 41.9809 269.759C41.9809 269.759 46.8437 258.1 45.9098 250.452C45.0443 243.363 38.4888 233.903 38.4888 233.903C38.4888 233.903 41.2914 246.924 39.7983 255.049C39.5757 256.26 39.4285 257.432 39.2872 258.558C38.7908 262.512 38.3665 265.892 34.9965 268.38C32.6567 270.108 28.012 270.678 28.012 270.678Z" fill="#292929"/>
<path d="M188.219 270.679C189.529 269.759 188.219 261.485 188.219 261.485L189.529 264.243C189.529 264.243 188.127 257.87 187.783 252.291C187.363 245.481 187.783 232.524 187.783 232.524C187.783 232.524 184.518 245.288 184.727 253.21C184.924 260.655 188.219 270.679 188.219 270.679Z" fill="#292929"/>
<path d="M188.219 158.973C192.055 152.869 195.918 144.104 195.918 144.104C195.918 144.104 195.739 133.709 195.204 128.173C194.346 119.291 189.529 106.107 189.529 106.107C189.529 106.107 192.309 121.216 191.712 130.931C191.206 139.152 190.469 143.879 187.783 151.617C184.741 160.38 176.433 172.304 176.433 172.304C176.433 172.304 184.383 165.076 188.219 158.973Z" fill="#292929"/>
<path d="M160.281 90.0181C160.281 90.0181 176.346 126.009 177.306 150.698C177.634 159.136 176.433 172.304 176.433 172.304C176.433 172.304 178.898 156.454 178.179 144.722C177.109 127.253 170.322 103.349 164.647 93.2359C162.114 88.7219 158.099 84.9613 158.099 84.9613L161.346 96.9134C160.765 92.972 160.281 90.0181 160.281 90.0181Z" fill="#292929"/>
<path d="M144.566 117.6C146.823 116.544 144.566 89.0986 144.566 89.0986C144.566 89.0986 145.753 99.4594 147.494 107.486L147.622 93.2359C146.698 88.0464 142.383 84.0419 142.383 84.0419C142.383 84.0419 142.954 90.3963 143.257 96.9134C143.641 105.209 141.947 118.137 141.947 118.137C143.244 117.974 144.151 117.794 144.566 117.6Z" fill="#292929"/>
<path d="M130.174 113.003C129.781 115.659 130.174 118.903 130.174 118.903C131.579 118.853 132.922 118.796 134.186 118.733C134.186 118.733 132.853 117.039 132.343 114.842C131.696 112.051 131.034 106.107 131.034 106.107C131.034 106.107 130.55 110.463 130.174 113.003Z" fill="#292929"/>
<path d="M96.5476 113.003C96.3866 115.619 95.238 118.733 95.238 118.733C96.34 118.797 97.5085 118.854 98.7302 118.903C98.7302 118.903 98.9642 115.121 98.7302 113.003C98.3862 109.889 96.111 106.107 96.111 106.107C96.111 106.107 96.6909 110.674 96.5476 113.003Z" fill="#292929"/>
<path d="M80.8323 115.761C83.0889 114.705 87.3803 88.1794 87.3803 88.1794C87.3803 88.1794 86.9667 92.7522 86.5504 98.2925L89.1265 82.6629C89.1265 82.6629 85.6516 89.5258 83.8881 94.1552C80.8179 102.215 80.8323 115.761 80.8323 115.761Z" fill="#292929"/>
<path d="M54.2038 136.447C56.7955 122.035 67.2998 101.511 67.2998 101.511C67.2998 101.511 67.0006 104.594 66.8313 107.946C66.8313 107.946 67.69 101.029 69.046 96.4537C70.1874 92.6027 72.9748 86.3404 72.9748 86.3404C72.9748 86.3404 66.0683 95.7042 62.9346 101.511C56.0489 114.269 54.2038 136.447 54.2038 136.447Z" fill="#292929"/>
<path fill-rule="evenodd" clip-rule="evenodd" d="M25.3927 100.591C38.6909 57.0638 69.046 32.2816 116.191 33.0159C161.61 33.7233 196.566 63.9395 206.117 110.704C209.343 126.5 207.446 154.306 207.446 154.306C207.446 154.306 203.776 144.104 195.918 144.104C195.918 144.104 195.739 133.709 195.204 128.173C194.346 119.291 189.529 106.107 189.529 106.107C189.529 106.107 192.309 121.216 191.712 130.931C191.206 139.152 190.469 143.879 187.783 151.617C184.741 160.38 176.433 172.304 176.433 172.304C176.433 172.304 178.898 156.454 178.179 144.722C177.109 127.253 170.322 103.349 164.647 93.2359C162.114 88.7219 158.099 84.9613 158.099 84.9613L161.346 96.9134C162.51 104.813 164.065 116.68 162.9 116.68C161.098 116.68 159.692 116.847 158.403 116.999C156.122 117.269 154.207 117.495 151.114 116.68C149.799 116.334 148.545 112.336 147.494 107.486L147.622 93.2359C146.698 88.0464 142.383 84.0419 142.383 84.0419C142.383 84.0419 142.954 90.3963 143.257 96.9134C143.641 105.209 141.947 118.137 141.947 118.137C140.074 118.372 137.385 118.572 134.186 118.733C134.186 118.733 132.853 117.039 132.343 114.842C131.696 112.051 131.034 106.107 131.034 106.107C131.034 106.107 130.55 110.463 130.174 113.003C129.781 115.659 130.174 118.903 130.174 118.903C120.562 119.249 108.087 119.284 98.7302 118.903C98.7302 118.903 98.9642 115.121 98.7302 113.003C98.3862 109.889 96.111 106.107 96.111 106.107C96.111 106.107 96.6909 110.674 96.5476 113.003C96.3866 115.619 95.238 118.733 95.238 118.733C90.8446 118.477 87.5077 118.104 86.0707 117.6C85.2815 117.323 85.9191 106.695 86.5504 98.2925L89.1265 82.6629C89.1265 82.6629 85.6516 89.5258 83.8881 94.1552C80.8179 102.215 80.8323 115.761 80.8323 115.761C76.9035 117.6 68.6094 117.433 67.2998 116.221C66.6161 115.588 66.6463 111.607 66.8313 107.946C66.8313 107.946 67.69 101.029 69.046 96.4537C70.1874 92.6027 72.9748 86.3404 72.9748 86.3404C72.9748 86.3404 66.0683 95.7042 62.9346 101.511C56.0489 114.269 54.2038 136.447 54.2038 136.447C51.6346 150.735 54.2038 173.683 54.2038 173.683C54.2038 173.683 35.5807 147.476 35.8696 128.173C35.9955 119.759 39.7984 107.027 39.7984 107.027C39.7984 107.027 34.4165 117.709 33.2504 125.415C32.2384 132.101 33.2504 144.5 33.2504 144.5C32.0365 144.77 30.4416 145.247 29.3215 146.033C27.2758 147.469 23.6466 152.537 23.6466 152.537C23.6466 152.537 20.6864 136.477 21.0273 126.334C21.3683 116.191 22.4227 110.313 25.3927 100.591Z" fill="black"/>
<path d="M41.5444 159.892C45.4654 166.355 54.2038 173.683 54.2038 173.683C54.2038 173.683 35.5807 147.476 35.8696 128.173C35.9955 119.759 39.7984 107.027 39.7984 107.027C39.7984 107.027 34.4165 117.709 33.2504 125.415C32.2384 132.101 33.2504 144.5 33.2504 144.5C34.2535 144.277 34.9964 144.194 34.9964 144.194C34.9964 144.194 37.6235 153.429 41.5444 159.892Z" fill="#292929"/>
<path d="M23.2101 256.428C23.2101 256.428 22.4871 268.34 28.012 270.678C28.012 270.678 32.6567 270.108 34.9965 268.38C38.3665 265.892 38.7908 262.512 39.2872 258.558C39.4285 257.432 39.5757 256.26 39.7983 255.049C41.2914 246.924 38.4888 233.903 38.4888 233.903C38.4888 233.903 45.0443 243.363 45.9098 250.452C46.8437 258.1 41.9809 269.759 41.9809 269.759C44.8334 270.761 48.2067 271.568 51.2924 272L59.4233 253.206C59.2968 248.697 59.0058 244.935 59.0058 244.935C59.0058 244.935 60.4575 246.94 61.5971 249.52L69.6162 236.69L84.6522 223.178L96.5353 215.671C80.7034 212.664 67.1771 206.323 62.498 201.724C56.9454 196.267 55.9501 183.336 55.9501 183.336C55.9501 183.336 45.2559 183.656 39.7984 183.336C31.9408 182.877 23.2101 169.546 23.2101 169.546L23.2101 256.428Z" fill="black"/>
<path d="M203.061 268.84C205.244 267.001 206.117 255.049 206.117 255.049L207.446 162.121C207.446 162.121 203.498 176.186 191.275 181.497C184.334 184.514 172.941 183.336 172.941 183.336C172.941 183.336 170.601 194.278 167.266 200.345C163.789 206.668 150.47 212.417 134.772 215.35L152.314 229.684L165.846 243.697L168.331 249.202C168.475 248.267 168.575 247.694 168.575 247.694C168.575 247.694 168.543 248.616 168.517 249.952L173.364 259.211L177.374 269.221L178.248 271.353C182.551 271.431 187.468 271.206 188.219 270.679C188.219 270.679 184.924 260.655 184.727 253.21C184.518 245.288 187.783 232.524 187.783 232.524C187.783 232.524 187.363 245.481 187.783 252.291C188.127 257.87 189.529 264.243 189.529 264.243L192.585 270.679C192.585 270.679 200.133 271.307 203.061 268.84Z" fill="black"/>
<path d="M59.0058 244.935C59.0058 244.935 59.2968 248.697 59.4233 253.206L61.5971 249.52C60.4575 246.94 59.0058 244.935 59.0058 244.935Z" fill="#292929"/>
<path d="M168.575 247.694C168.575 247.694 168.475 248.267 168.331 249.202L168.517 249.952C168.543 248.616 168.575 247.694 168.575 247.694Z" fill="#292929"/>
<path d="M78 155C78 151.686 80.6863 149 84 149C87.3137 149 90 151.686 90 155V157V158V168C90 171.314 87.3137 174 84 174C80.6863 174 78 171.314 78 168V158V157V155Z" fill="black"/>
<path d="M138 155C138 151.686 140.686 149 144 149C147.314 149 150 151.686 150 155V168C150 171.314 147.314 174 144 174C140.686 174 138 171.314 138 168V155Z" fill="black"/>
<path d="M74 193.5C74 196.538 67.0604 199 58.5 199C49.9396 199 43 196.538 43 193.5C43 190.462 49.9396 188 58.5 188C67.0604 188 74 190.462 74 193.5Z" fill="#F9A9E7"/>
<path d="M187 193.5C187 196.538 180.06 199 171.5 199C162.94 199 156 196.538 156 193.5C156 190.462 162.94 188 171.5 188C180.06 188 187 190.462 187 193.5Z" fill="#F9A9E7"/>
<path d="M105.147 197.763C105.312 196.942 106.307 196.525 107.064 196.881C108.569 197.588 111.114 198.469 114.5 198.5C118.11 198.533 121.06 197.581 122.798 196.842C123.562 196.518 124.5 197.072 124.5 197.903C124.5 198.274 124.308 198.616 123.977 198.784C122.692 199.439 119.142 201 114.5 201C110.08 201 106.933 199.584 105.646 198.884C105.245 198.666 105.058 198.21 105.147 197.763Z" fill="black"/>
<path d="M78 157C78 157 76.8027 157.562 76 157.5C75.7414 157.48 75.4353 157.389 75.1673 157.289C74.8554 157.174 74.5 157.395 74.5 157.728C74.5 157.895 74.5932 158.048 74.7457 158.116C75.0523 158.254 75.5867 158.468 76 158.5C76.8027 158.562 78 158 78 158V157Z" fill="black"/>
<path d="M152 157.5C151.197 157.562 150 157 150 157V158C150 158 151.197 158.562 152 158.5C152.413 158.468 152.948 158.254 153.254 158.116C153.407 158.048 153.5 157.895 153.5 157.728C153.5 157.395 153.145 157.174 152.833 157.289C152.565 157.389 152.259 157.48 152 157.5Z" fill="black"/>
</g>
<defs>
<clipPath id="clip0_1043_541">
<rect width="230" height="475" fill="white"/>
</clipPath>
</defs>
</svg>
