<svg width="214" height="207" viewBox="0 0 214 207" fill="none" xmlns="http://www.w3.org/2000/svg">
<path d="M106.4 23.0266C140.408 23.0267 164.796 37.5668 177.601 57.1897L178.375 58.3958C193.716 82.7272 192.238 105.981 187.19 125.673C188.068 125.19 189.168 124.622 190.395 124.076C193.384 122.746 197.353 121.439 200.67 122.043L201.096 122.126C205.446 123.04 208.493 125.576 210.302 128.998C212.036 132.279 212.612 136.327 212.212 140.484L212.119 141.317C211.455 146.544 210.185 151.436 207.645 155.667C205.173 159.784 201.529 163.226 196.189 165.751L195.667 165.992C191.701 167.787 186.108 168.403 181.615 168.59C179.348 168.684 177.321 168.67 175.861 168.633C175.314 168.619 174.846 168.6 174.474 168.584C174.404 169.628 174.405 170.612 174.487 171.538L174.492 171.601L174.49 171.662C174.249 178.34 171.679 182.407 167.549 187.069L166.702 188.009C158.847 196.624 144.837 200.836 132.421 202.926C119.941 205.027 108.788 205.027 106.4 205.027C103.996 205.027 94.892 204.902 83.749 202.966C72.9688 201.093 60.1941 197.51 49.7295 190.635L48.7246 189.959C45.292 187.599 42.6635 184.858 40.9072 181.252C39.2664 177.883 38.4194 173.826 38.3193 168.738C37.9476 168.748 37.4863 168.76 36.9512 168.764C35.4653 168.776 33.4038 168.746 31.1016 168.581C26.6847 168.265 21.2202 167.441 17.2666 165.34L16.8887 165.133C6.56351 159.281 0.999996 150.45 1 140.535L1.01367 139.663C1.15322 135.3 2.34761 130.936 4.83691 127.569C7.52013 123.939 11.6633 121.535 17.3818 121.535C21.9394 121.535 25.6082 123.552 28.1025 125.514C28.3087 125.676 28.5064 125.839 28.6973 126C25.7708 117.639 23.2805 109.274 23.2891 99.6477C23.2993 88.3097 26.7675 75.3223 36.8145 58.5315L37.4014 57.5793C43.6138 47.7791 54.4156 39.2676 66.6816 33.1545C79.3521 26.84 93.6998 23.0266 106.4 23.0266Z" fill="#FFCEB4" stroke="black" stroke-width="2"/>
<path d="M23 124.027C25.1958 124.821 27.2903 126.163 29 127.859C29 127.859 22.8107 113.072 21.5 104.027C19.7882 92.2134 24 75.0266 24 75.0266C24 75.0266 17.334 91.7261 18 103.027C18.505 111.597 23 124.027 23 124.027Z" fill="#292929"/>
<path d="M32 132.027C37 142.527 39 158.527 39 158.527C39 158.527 51.5651 146.299 53.5 136.027C54.4474 130.997 52.4755 126.998 50.5342 123.062C48.4668 118.869 46.4343 114.748 48 109.527C48 109.527 45.4655 114.223 45 117.527C44.7941 118.988 45.7013 120.957 46.7548 123.244C48.0829 126.127 49.6437 129.515 49.5 133.027C49.0295 144.527 42 150.027 42 150.027L32 132.027Z" fill="#292929"/>
<path d="M62 91.0266C62 91.0266 62.1198 109.817 69.5 118.527C78.5344 129.188 104 130.027 104 130.027C104 130.027 98.0298 128.683 95.5 126.027C93.2712 123.686 92 121.759 92 118.527C92 111.971 99.8714 105.747 107.462 99.7444L107.465 99.7428C107.979 99.3364 108.491 98.931 109 98.5266C118.162 91.2454 136 85.5266 136 85.5266C136 85.5266 151.5 72.6228 153.5 62.5266C156.131 49.2453 134 38.0266 134 38.0266C134 38.0266 149.5 47.1988 149.5 59.5266C149.5 74.3318 133.612 82.4899 118.083 90.4631C106.342 96.492 94.8057 102.415 90.5 111.027C85.1883 121.65 88.5 124.527 88.5 124.527C88.5 124.527 75.3301 119.98 70.5 112.527C66.7652 106.763 64.3431 102.671 65 95.0266C65.1778 92.9569 67.713 90.3216 70.588 87.3329C75.3532 82.3794 81.0523 76.4551 78.5 70.5266C76.8066 66.5932 71 62.5266 71 62.5266C71 62.5266 74.2911 67.1064 75 70.5266C76.924 79.8091 62 91.0266 62 91.0266Z" fill="#292929"/>
<path d="M99.5 89.5266C99.5 89.5266 136 71.5266 137 62.0266C137.494 57.3338 133 54.0266 133 54.0266C133 54.0266 139.804 58.2389 139.5 64.0266C139.089 71.8701 124.5 79.5266 117 82.5266L99.5 89.5266Z" fill="#292929"/>
<path d="M174.5 162.027C174.5 162.027 182 140.027 186 128.527C186.87 126.027 198 123.527 198 123.527C198 123.527 196.357 122.062 194.5 121.527C192.987 121.091 190.5 120.527 190.5 120.527C190.5 120.527 194.917 102.351 192.5 91.0266C190.275 80.6022 180.5 67.0266 180.5 67.0266C180.5 67.0266 188.415 84.2394 189 96.0266C189.581 107.731 183.5 125.527 183.5 125.527C183.5 125.527 183.928 113.883 182 108.527C180 102.972 174.5 97.0266 174.5 97.0266C174.5 97.0266 179.751 105.682 180 117.527C180.29 131.304 174.5 162.027 174.5 162.027Z" fill="#292929"/>
<path d="M156.5 42.5266C156.5 42.5266 156.089 38.9683 155 37.0266C153.784 34.8591 150.5 32.5266 150.5 32.5266C150.5 32.5266 155.929 33.798 157.5 36.5266C158.494 38.2523 158.5 41.5266 158.5 41.5266C158.5 41.5266 162.581 40.6681 164.5 42.0266C166.282 43.2879 167 47.0266 167 47.0266C167 47.0266 164.208 44.4233 162 43.5266C159.977 42.7053 156.5 42.5266 156.5 42.5266Z" fill="#292929"/>
<path fill-rule="evenodd" clip-rule="evenodd" d="M198 123.527C198 123.527 211.825 94.8568 209 76.0266C204.5 46.0266 179 41.0266 179 41.0266C179 41.0266 183.332 38.168 186.5 37.5266C189.179 36.9841 193.5 37.5266 193.5 37.5266C193.5 37.5266 185.813 28.4379 179 26.0266C173.282 24.0029 163.5 25.0266 163.5 25.0266C163.5 25.0266 161.722 17.474 158.5 14.0266C154.438 9.68096 144.5 8.02662 144.5 8.02662C144.5 8.02662 147.408 11.3793 148 14.0266C148.426 15.9322 148 19.0266 148 19.0266C148 19.0266 128.224 4.99345 113.5 2.02662C95.1711 -1.66658 83.6609 1.88788 66 8.02662C49.5509 13.7442 40.4975 18.9365 27.5 30.5266C26.4071 31.5012 25.3562 32.4232 24.3447 33.3106C17.0318 39.7265 11.7727 44.3405 7.50001 54.0266C3.49636 63.1028 2.7344 69.1102 3.00001 79.0266C3.19291 86.2282 4.69791 90.9218 6.55412 96.7106C7.17541 98.6482 7.83606 100.708 8.50001 103.027C9.16507 105.349 9.85714 107.2 10.524 108.984C11.4427 111.441 12.3136 113.771 13 117.027C13.49 119.351 14 123.527 14 123.527C14 123.527 19.6899 122.829 23 124.027C23 124.027 18.505 111.597 18 103.027C17.334 91.7261 24 75.0266 24 75.0266C24 75.0266 19.7882 92.2134 21.5 104.027C22.8107 113.072 29 127.859 29 127.859C30.2375 129.087 31.2733 130.501 32 132.027L42 150.027C42 150.027 49.0295 144.527 49.5 133.027C49.6437 129.515 48.0829 126.127 46.7548 123.244C45.7013 120.957 44.7941 118.988 45 117.527C45.4655 114.223 48 109.527 48 109.527C50.5855 100.905 62 91.0266 62 91.0266C62 91.0266 76.924 79.8091 75 70.5266C74.2911 67.1064 71 62.5266 71 62.5266C71 62.5266 76.8066 66.5932 78.5 70.5266C81.0523 76.4551 75.3532 82.3794 70.588 87.3329C67.713 90.3216 65.1778 92.9569 65 95.0266C64.3431 102.671 66.7652 106.763 70.5 112.527C75.3301 119.98 88.5 124.527 88.5 124.527C88.5 124.527 85.1883 121.65 90.5 111.027C94.8057 102.415 106.342 96.492 118.083 90.4631C133.612 82.4899 149.5 74.3318 149.5 59.5266C149.5 47.1988 134 38.0266 134 38.0266C134 38.0266 156.131 49.2453 153.5 62.5266C151.5 72.6228 136 85.5266 136 85.5266C136 85.5266 132.514 95.3328 140 106.027C143.037 110.365 148.416 114.887 153.924 119.517C160.918 125.396 168.12 131.451 171 137.527C175.14 146.26 174.5 162.027 174.5 162.027C174.5 162.027 180.29 131.304 180 117.527C179.751 105.682 174.5 97.0266 174.5 97.0266C174.5 97.0266 180 102.972 182 108.527C183.928 113.883 183.5 125.527 183.5 125.527C183.5 125.527 189.581 107.731 189 96.0266C188.415 84.2394 180.5 67.0266 180.5 67.0266C180.5 67.0266 190.275 80.6022 192.5 91.0266C194.917 102.351 190.5 120.527 190.5 120.527C190.5 120.527 192.987 121.091 194.5 121.527C196.357 122.062 198 123.527 198 123.527ZM137 62.0266C136 71.5266 99.5 89.5266 99.5 89.5266L117 82.5266C124.5 79.5266 139.089 71.8701 139.5 64.0266C139.804 58.2389 133 54.0266 133 54.0266C133 54.0266 137.494 57.3338 137 62.0266ZM69 27.0266C60.3627 30.2251 49 39.5266 49 39.5266C49 39.5266 57.5765 26.6957 68.5 23.5266C81.1148 19.8668 106.5 26.0266 106.5 26.0266C106.5 26.0266 82.7382 21.9392 69 27.0266ZM155 37.0266C156.089 38.9683 156.5 42.5266 156.5 42.5266C156.5 42.5266 159.977 42.7053 162 43.5266C164.208 44.4233 167 47.0266 167 47.0266C167 47.0266 166.282 43.2879 164.5 42.0266C162.581 40.6681 158.5 41.5266 158.5 41.5266C158.5 41.5266 158.494 38.2523 157.5 36.5266C155.929 33.798 150.5 32.5266 150.5 32.5266C150.5 32.5266 153.784 34.8591 155 37.0266Z" fill="black"/>
<path d="M49 39.5266C49 39.5266 60.3627 30.2251 69 27.0266C82.7382 21.9392 106.5 26.0266 106.5 26.0266C106.5 26.0266 81.1148 19.8668 68.5 23.5266C57.5765 26.6957 49 39.5266 49 39.5266Z" fill="#292929"/>
<path d="M70 142.027C70 138.713 72.6863 136.027 76 136.027C79.3137 136.027 82 138.713 82 142.027V155.027C82 158.34 79.3137 161.027 76 161.027C72.6863 161.027 70 158.34 70 155.027V142.027Z" fill="black"/>
<path d="M130 142.027C130 138.713 132.686 136.027 136 136.027C139.314 136.027 142 138.713 142 142.027V155.027C142 158.34 139.314 161.027 136 161.027C132.686 161.027 130 158.34 130 155.027V142.027Z" fill="black"/>
<path d="M66 180.527C66 183.564 59.0604 186.027 50.5 186.027C41.9396 186.027 35 183.564 35 180.527C35 177.489 41.9396 175.027 50.5 175.027C59.0604 175.027 66 177.489 66 180.527Z" fill="#F9A9E7"/>
<path d="M179 180.527C179 183.564 172.06 186.027 163.5 186.027C154.94 186.027 148 183.564 148 180.527C148 177.489 154.94 175.027 163.5 175.027C172.06 175.027 179 177.489 179 180.527Z" fill="#F9A9E7"/>
<path d="M97.1475 184.789C97.3115 183.969 98.3069 183.552 99.064 183.907C100.569 184.615 103.114 185.496 106.5 185.527C110.11 185.56 113.06 184.608 114.798 183.869C115.562 183.544 116.5 184.099 116.5 184.929C116.5 185.3 116.308 185.642 115.977 185.81C114.692 186.465 111.142 188.027 106.5 188.027C102.08 188.027 98.9327 186.611 97.6455 185.91C97.2448 185.692 97.058 185.237 97.1475 184.789Z" fill="black"/>
</svg>
