<svg width="240" height="219" viewBox="0 0 240 219" fill="none" xmlns="http://www.w3.org/2000/svg">
<path d="M117.827 36C151.835 36.0001 176.222 50.5402 189.027 70.1631L189.801 71.3691C205.142 95.7005 203.665 118.954 198.617 138.646C199.494 138.163 200.594 137.595 201.821 137.05C204.81 135.72 208.779 134.412 212.096 135.017L212.522 135.1C216.872 136.013 219.919 138.55 221.728 141.972C223.462 145.253 224.038 149.301 223.638 153.457L223.545 154.29C222.882 159.517 221.611 164.409 219.071 168.641C216.599 172.758 212.956 176.199 207.616 178.725L207.093 178.966C203.127 180.761 197.535 181.377 193.042 181.563C190.774 181.658 188.748 181.644 187.288 181.606C186.74 181.592 186.272 181.574 185.9 181.558C185.83 182.601 185.832 183.586 185.914 184.512L185.918 184.574L185.917 184.636C185.675 191.313 183.106 195.381 178.975 200.042L178.128 200.982C170.274 209.597 156.264 213.809 143.847 215.899C131.368 218 120.214 218 117.827 218C115.422 218 106.318 217.876 95.1753 215.939C84.3951 214.066 71.6203 210.483 61.1558 203.608L60.1509 202.933C56.7183 200.573 54.0898 197.832 52.3335 194.226C50.6927 190.856 49.8457 186.799 49.7456 181.711C49.3739 181.722 48.9126 181.733 48.3774 181.737C46.8915 181.749 44.83 181.719 42.5278 181.555C38.111 181.239 32.6465 180.414 28.6929 178.313L28.3149 178.106C17.9898 172.254 12.4263 163.423 12.4263 153.509L12.4399 152.637C12.5795 148.274 13.7739 143.909 16.2632 140.542C18.9464 136.912 23.0896 134.509 28.8081 134.509C33.3657 134.509 37.0345 136.525 39.5288 138.487C39.7349 138.649 39.9327 138.813 40.1235 138.974C37.1971 130.613 34.7067 122.247 34.7153 112.621C34.7255 101.283 38.1937 88.2957 48.2407 71.5049L48.8276 70.5527C55.0401 60.7524 65.8419 52.241 78.1079 46.1279C90.7784 39.8134 105.126 36 117.827 36Z" fill="#FFCEB4" stroke="black" stroke-width="2"/>
<path d="M50.9263 172C50.9263 172 45.4263 144.5 49.9263 143.5C54.1067 142.571 55.4263 143.5 55.4263 143.5C55.4263 143.5 54.021 101.962 57.9263 104.5C61.8315 107.038 61.521 106.462 65.4263 109C65.4263 109 60.8789 105.331 58.9263 102.5C56.9736 99.6687 55.4263 94.5 55.4263 94.5C55.4263 94.5 50.3301 108.583 49.9263 118C49.6066 125.454 51.9263 137 51.9263 137C51.9263 137 49.6836 137.976 47.9263 137C46.1689 136.024 42.9263 132 42.9263 132L50.9263 172Z" fill="#292929"/>
<path d="M90.9263 100.5C90.9263 100.5 103.262 110.21 111.426 114C119.59 117.79 140.426 116 140.426 116C140.426 116 122.799 114.201 110.426 108C101.13 103.341 84.4263 91 84.4263 91L90.9263 100.5Z" fill="#292929"/>
<path fill-rule="evenodd" clip-rule="evenodd" d="M143.926 82.5L163.426 109L167.426 104L163.926 97C163.926 97 179.178 105.226 183.426 113.5C187.674 121.774 183.426 137 183.426 137C183.426 137 188.571 133.476 190.426 132.5C192.281 131.524 194.926 128.5 194.926 128.5C194.926 128.5 199.074 142.897 196.426 151.5C195.065 155.924 190.926 162 190.926 162C190.926 162 201.686 150.758 207.926 143C208.701 142.037 209.458 141.105 210.194 140.198L210.197 140.195C214.364 135.062 217.877 130.734 220.426 126C223.926 119.5 224.426 108 224.426 108C224.426 108 229.651 108.345 233.426 108C236.071 107.759 239.926 107 239.926 107C239.926 107 235.696 104.495 231.926 102.5C223.076 97.8162 221.009 86.1231 219.423 77.148C218.808 73.6675 218.265 70.5958 217.426 68.5C214.35 60.8082 204.926 54 204.926 54C204.926 54 209.485 52.355 211.926 50.5C214.367 48.645 217.426 44.5 217.426 44.5C217.426 44.5 208.597 43.6016 203.426 42.5C199.375 41.6369 194.413 36.8803 188.994 31.687C182.375 25.3423 175.075 18.3458 167.926 17C158.889 15.2986 145.926 18 145.926 18C145.926 18 141.292 9.73353 135.426 6C128.575 1.63903 114.426 0.5 114.426 0.5C114.426 0.5 118.927 3.52897 120.926 6C122.597 8.06462 120.926 13.5 120.926 13.5C120.926 13.5 116.718 11.7638 114.426 11C108.426 9 93.5906 6.70094 78.9263 8.5C59.4246 10.8925 34.9263 33.5 34.9263 33.5C34.9263 33.5 36.669 33.7346 38.9263 34.5C41.5151 35.3779 45.9263 34.5 45.9263 34.5C45.9263 34.5 27.9263 61 16.9263 72C11.9865 76.9398 0.92627 80 0.92627 80C0.92627 80 5.08216 82.8324 8.42627 83.5C11.49 84.1117 15.4263 84.5 15.4263 84.5C15.4263 84.5 12.6463 101.405 13.9263 113.5C16.2544 135.5 50.9263 172 50.9263 172L42.9263 132C42.9263 132 46.1689 136.024 47.9263 137C49.6836 137.976 51.9263 137 51.9263 137C51.9263 137 49.6066 125.454 49.9263 118C50.3301 108.583 55.4263 94.5 55.4263 94.5C55.4263 94.5 56.9736 99.6687 58.9263 102.5C60.8789 105.331 65.4263 109 65.4263 109L68.9263 85C68.9263 85 74.056 93.2936 78.4263 97.5C83.2773 102.169 92.4263 106.5 92.4263 106.5L90.9263 100.5L84.4263 91C84.4263 91 101.13 103.341 110.426 108C122.799 114.201 140.426 116 140.426 116C140.426 116 138.785 101.585 141.426 93C143.044 87.7411 143.926 82.5 143.926 82.5Z" fill="black"/>
<path d="M167.426 104C167.426 104 176.716 110.3 178.426 116C181.426 126 179.926 143 179.926 143C179.926 143 184.778 142.367 186.926 141C189.074 139.633 190.926 136 190.926 136C190.926 136 193.489 146.034 192.926 152.5C192.597 156.277 190.926 162 190.926 162C190.926 162 195.065 155.924 196.426 151.5C199.074 142.897 194.926 128.5 194.926 128.5C194.926 128.5 192.281 131.524 190.426 132.5C188.571 133.476 183.426 137 183.426 137C183.426 137 187.674 121.774 183.426 113.5C179.178 105.226 163.926 97 163.926 97L167.426 104Z" fill="#292929"/>
<path d="M81.4263 155C81.4263 151.686 84.1126 149 87.4263 149C90.74 149 93.4263 151.686 93.4263 155V168C93.4263 171.314 90.74 174 87.4263 174C84.1126 174 81.4263 171.314 81.4263 168V155Z" fill="black"/>
<path d="M141.426 155C141.426 151.686 144.112 149 147.426 149C150.74 149 153.426 151.686 153.426 155V168C153.426 171.314 150.74 174 147.426 174C144.112 174 141.426 171.314 141.426 168V155Z" fill="black"/>
<path d="M77.4263 193.5C77.4263 196.538 70.4867 199 61.9263 199C53.3659 199 46.4263 196.538 46.4263 193.5C46.4263 190.462 53.3659 188 61.9263 188C70.4867 188 77.4263 190.462 77.4263 193.5Z" fill="#F9A9E7"/>
<path d="M190.426 193.5C190.426 196.538 183.487 199 174.926 199C166.366 199 159.426 196.538 159.426 193.5C159.426 190.462 166.366 188 174.926 188C183.487 188 190.426 190.462 190.426 193.5Z" fill="#F9A9E7"/>
<path d="M108.574 197.763C108.738 196.942 109.733 196.525 110.49 196.881C111.995 197.588 114.54 198.469 117.926 198.5C121.536 198.533 124.486 197.581 126.224 196.842C126.988 196.518 127.926 197.072 127.926 197.903C127.926 198.274 127.734 198.616 127.404 198.784C126.118 199.439 122.568 201 117.926 201C113.506 201 110.359 199.584 109.072 198.884C108.671 198.666 108.484 198.21 108.574 197.763Z" fill="black"/>
</svg>
