<svg width="220" height="218" viewBox="0 0 220 218" fill="none" xmlns="http://www.w3.org/2000/svg">
<path d="M106.4 34.5266C140.408 34.5267 164.796 49.0668 177.601 68.6897L178.375 69.8958C193.716 94.2272 192.238 117.481 187.19 137.173C188.068 136.69 189.168 136.122 190.395 135.576C193.384 134.246 197.353 132.939 200.67 133.543L201.096 133.626C205.446 134.54 208.493 137.076 210.302 140.498C212.036 143.779 212.612 147.827 212.212 151.984L212.119 152.817C211.455 158.044 210.185 162.936 207.645 167.167C205.173 171.284 201.529 174.726 196.189 177.251L195.667 177.492C191.701 179.287 186.108 179.903 181.615 180.09C179.348 180.184 177.321 180.17 175.861 180.133C175.314 180.119 174.846 180.1 174.474 180.084C174.404 181.128 174.405 182.112 174.487 183.038L174.492 183.101L174.49 183.162C174.249 189.84 171.679 193.907 167.549 198.569L166.702 199.509C158.847 208.124 144.837 212.336 132.421 214.426C119.941 216.527 108.788 216.527 106.4 216.527C103.996 216.527 94.892 216.402 83.749 214.466C72.9688 212.593 60.1941 209.01 49.7295 202.135L48.7246 201.459C45.292 199.099 42.6635 196.358 40.9072 192.752C39.2664 189.383 38.4194 185.326 38.3193 180.238C37.9476 180.248 37.4863 180.26 36.9512 180.264C35.4653 180.276 33.4038 180.246 31.1016 180.081C26.6847 179.765 21.2202 178.941 17.2666 176.84L16.8887 176.633C6.56351 170.781 0.999996 161.95 1 152.035L1.01367 151.163C1.15322 146.8 2.34761 142.436 4.83691 139.069C7.52013 135.439 11.6633 133.035 17.3818 133.035C21.9394 133.035 25.6082 135.052 28.1025 137.014C28.3087 137.176 28.5064 137.339 28.6973 137.5C25.7708 129.139 23.2805 120.774 23.2891 111.148C23.2993 99.8097 26.7675 86.8223 36.8145 70.0315L37.4014 69.0793C43.6138 59.2791 54.4156 50.7676 66.6816 44.6545C79.3521 38.34 93.6998 34.5266 106.4 34.5266Z" fill="#FFCEB4" stroke="black" stroke-width="2"/>
<path d="M114.5 83.5264C114.5 83.5264 116.682 89.6586 119.5 92.5264C122.744 95.828 125.391 97.5942 130 98.0264C146 99.5266 159 98.0264 159 98.0264C159 98.0264 184.759 86.9245 183.5 74.5266C182.661 66.2664 171 63.5266 171 63.5266C171 63.5266 179.302 68.7216 179 75.5266C178.505 86.6729 166.216 92.0438 155 94.5264C142.65 97.2599 130 96.0266 122 89.5264C117.426 85.8098 115.916 79.5613 114.394 73.2638C112.849 66.8684 111.291 60.4225 106.5 56.5266C90.3681 43.4098 61.5 56.5266 56 68.5266C51.9214 77.4253 59.8181 88.5264 59.8181 88.5264C59.8181 88.5264 54.9543 79.1421 58.5 71.5266C65.4762 56.5428 90.5 50.5266 101.5 56.5266C111.7 62.0905 114.5 83.5264 114.5 83.5264Z" fill="#292929"/>
<path d="M63.6175 87.0266C70.5423 84.4034 76.645 82.8221 85.5 82.5266C89.6874 82.3869 92.801 82.8257 95.9175 83.265C98.8195 83.6741 101.724 84.0835 105.5 84.0264C105.5 84.0264 101.123 80.1038 96 79.5266C93.083 79.1979 86 79.0264 86 79.0264C86 79.0264 87.7071 77.0626 89 76.0266C92.0015 73.6215 98 72.0266 98 72.0266C98 72.0266 92.726 72.1179 89.5 73.5266C85.8283 75.1299 82 80.0266 82 80.0266C82 80.0266 78.9355 80.2689 77 80.5266C72.4981 81.126 66.5 85.0264 66.5 85.0264C66.5 85.0264 67.9302 76.6109 72 72.5264C76.8708 67.638 89.5 64.5266 89.5 64.5266C89.5 64.5266 76.8821 66.1544 71.5 70.0266C64.9243 74.7576 63.6175 87.0266 63.6175 87.0266Z" fill="#292929"/>
<path d="M43.5 95.0264C43.5 95.0264 50.4086 92.4507 55 90.5266C55.8189 90.1834 56.6153 89.8499 57.3927 89.5264C57.3927 89.5264 54.4317 84.0221 52.5 81.7766C50.5683 79.5311 47.5 78.0266 47.5 78.0266C47.5 78.0266 49.9142 80.1169 50.5 81.7766L52 86.0266L51.6253 85.7588C48.3525 83.4186 46.3551 81.9904 42.5 81.0266C42.5 81.0266 46.2308 83.5619 47.5 85.0264C48.7692 86.4908 50 88.0266 50 88.0266C50 88.0266 46.2692 91.1596 45 92.5264C43.7308 93.8932 43.5 95.0264 43.5 95.0264Z" fill="#292929"/>
<path d="M43.6944 105.527L43.6296 102.027C43.6296 102.027 37.8448 103.757 34.5 105.027C31.1552 106.296 26 109.527 26 109.527C26 109.527 32.1426 107.112 35.5 106.527C38.8574 105.941 43.6944 105.527 43.6944 105.527Z" fill="#292929"/>
<path fill-rule="evenodd" clip-rule="evenodd" d="M166.5 80.5264C160.957 83.7714 153.5 79.9295 148 76.0266C145.291 74.1044 137.917 64.0409 133 55.0266C130 49.5266 119 38.0266 119 38.0266C119 38.0266 127.705 42.934 131 48.0266C142 65.0266 157.5 84.0264 166.5 77.0266C170.741 73.7284 167.5 65.0266 167.5 65.0266C167.5 65.0266 172.419 77.0609 166.5 80.5264ZM33.5 114.527C30.8317 115.29 29 119.527 29 119.527C29 119.527 32.0388 116.678 34.5 116.027C36.5764 115.477 40 116.027 40 116.027C40 116.027 36.0535 113.796 33.5 114.527Z" fill="black"/>
<path d="M29 119.527C29 119.527 30.8317 115.29 33.5 114.527C36.0535 113.796 40 116.027 40 116.027C40 116.027 36.5764 115.477 34.5 116.027C32.0388 116.678 29 119.527 29 119.527Z" fill="#292929"/>
<path d="M41.5 32.0266C41.5 32.0266 31.2647 43.0987 29 52.0264C27.1755 59.2185 28 71.5266 28 71.5266L24.5 72.5264C24.5 72.5264 29.1696 75.9437 29 79.0264C28.9907 79.1962 28.9667 79.363 28.9296 79.5266C28.9296 79.5266 30.1315 80.534 31 81.0266C32.9365 82.125 36.5 82.5266 36.5 82.5266C36.5 82.5266 32.7119 80.3283 31 78.5266C29.1905 76.6222 27.5 73.0266 27.5 73.0266L31 73.5266C31 73.5266 29.2058 61.8385 31 54.0266C33.0149 45.2539 41.5 32.0266 41.5 32.0266Z" fill="#292929"/>
<path d="M106.5 0.0265879C89.0735 0.730213 73 11.3507 63 18.5266C46.5 30.3669 44 41.3669 44 41.3669L41.5 32.0266C41.5 32.0266 40.2929 39.8522 40 45.0266C39.7071 50.2011 40 58.5266 40 58.5266C40 58.5266 46.7836 41.7791 52 34.0266C66.724 12.1443 106.5 0.0265879 106.5 0.0265879Z" fill="#292929"/>
<path d="M180 102.527C172.947 103.082 162.135 99.5266 162.135 99.5266C162.71 99.7834 163.276 100.029 163.821 100.266L163.822 100.266C166.135 101.271 168.095 102.122 169 103.027C169 103.027 175.807 105.451 181 105.027C188.777 104.391 199.5 95.5266 199.5 95.5266C199.5 95.5266 187.883 101.906 180 102.527Z" fill="#292929"/>
<path d="M167.5 109.526L170.5 111.026C170.5 111.026 168 128.527 170.5 132.027C173 135.526 182.5 144.527 182.5 144.527C182.5 144.527 172.5 133.526 171.5 128.027C171.081 125.721 171 120.527 171 120.527C171 120.527 180.006 125.485 185.5 126.527C189.721 127.327 195 126.527 195 126.527C195 126.527 186.341 125.231 182.5 124.027C177.483 122.454 172.5 119.027 172.5 119.027C172.5 119.027 172.038 117.831 172 117.027C171.953 116.032 172.5 114.527 172.5 114.527C172.5 114.527 176.201 114.952 178 115.027C181.029 115.151 185 113.026 185 113.026C185 113.026 179.801 113.904 177 113.026C173.195 111.834 168.738 107.027 168.738 107.027C168.186 108.383 167.5 109.526 167.5 109.526Z" fill="#292929"/>
<path fill-rule="evenodd" clip-rule="evenodd" d="M63.6175 87.0266C62.3839 87.4939 61.1241 87.9943 59.8181 88.5264C59.8181 88.5264 54.9543 79.1421 58.5 71.5266C65.4762 56.5428 90.5 50.5266 101.5 56.5266C111.7 62.0905 114.5 83.5264 114.5 83.5264C114.5 83.5264 109.02 83.9732 105.5 84.0264C105.5 84.0264 101.123 80.1038 96 79.5266C93.083 79.1979 86 79.0264 86 79.0264C86 79.0264 87.7071 77.0626 89 76.0266C92.0015 73.6215 98 72.0266 98 72.0266C98 72.0266 92.726 72.1179 89.5 73.5266C85.8283 75.1299 82 80.0266 82 80.0266C82 80.0266 78.9355 80.2689 77 80.5266C72.4981 81.126 66.5 85.0264 66.5 85.0264C66.5 85.0264 67.9302 76.6109 72 72.5264C76.8708 67.638 89.5 64.5266 89.5 64.5266C89.5 64.5266 76.8821 66.1544 71.5 70.0266C64.9243 74.7576 63.6175 87.0266 63.6175 87.0266Z" fill="black"/>
<path d="M148 76.0266C153.5 79.9295 160.957 83.7714 166.5 80.5264C172.419 77.0609 167.5 65.0266 167.5 65.0266C167.5 65.0266 170.741 73.7284 166.5 77.0266C157.5 84.0264 142 65.0266 131 48.0266C127.705 42.934 119 38.0266 119 38.0266C119 38.0266 130 49.5266 133 55.0266C137.917 64.0409 145.291 74.1044 148 76.0266Z" fill="#292929"/>
<path fill-rule="evenodd" clip-rule="evenodd" d="M182.5 144.527C182.5 144.527 186.131 139.596 189.5 137.527C192.372 135.762 199 134.527 199 134.527C199 134.527 200.5 121.026 203 113.026C204.234 109.076 207.095 106.131 209.415 103.741C210.773 102.343 211.946 101.134 212.5 100.027C213.461 98.1055 214 95.0266 214 95.0266C214 95.0266 217.097 86.492 218.5 80.5264C219.981 74.2279 218.5 61.0266 218.5 61.0266C218.5 61.0266 215.66 71.7658 206.08 72.6238C196.91 73.4451 193.252 58.7406 190.784 48.8186C190.539 47.8342 190.306 46.897 190.08 46.0266C186.58 32.5266 170.5 28.9292 170.5 28.9292C170.5 28.9292 176.583 26.2988 178 21.5266C178.945 18.3446 180 10.5266 180 10.5266C179.109 10.8551 178.268 11.1719 177.46 11.4763C170.943 13.9324 166.566 15.5817 155 16.0266C149.177 16.2506 142.79 12.9047 135.744 9.21329C127.057 4.66302 117.369 -0.412257 106.5 0.0265879C106.5 0.0265879 66.724 12.1443 52 34.0266C46.7836 41.7791 40 58.5266 40 58.5266C40 58.5266 39.7071 50.2011 40 45.0266C40.2929 39.8522 41.5 32.0266 41.5 32.0266C41.5 32.0266 33.0149 45.2539 31 54.0266C29.2058 61.8385 31 73.5266 31 73.5266L27.5 73.0266C27.5 73.0266 29.1905 76.6222 31 78.5266C32.7119 80.3283 36.5 82.5266 36.5 82.5266C36.5 82.5266 32.9365 82.125 31 81.0266C30.1315 80.534 28.9296 79.5266 28.9296 79.5266C28.1474 82.9714 21.5 85.0264 21.5 85.0264L24.5 88.5264L19.5 89.5264C19.5 89.5264 20.4756 92.6225 20 94.5264C19.6185 96.0537 18 98.0264 18 98.0264L21 135.027C21 135.027 25.7552 136.31 28 138.527C29.8642 140.367 33.5 144.527 33.5 144.527C33.5 144.527 35.7554 134.297 39 129.527C41.0248 126.549 44 122.026 44 122.026L43.6944 105.527C43.6944 105.527 38.8574 105.941 35.5 106.527C32.1426 107.112 26 109.527 26 109.527C26 109.527 31.1552 106.296 34.5 105.027C37.8448 103.757 43.6296 102.027 43.6296 102.027L43.5 95.0264C43.5 95.0264 43.7308 93.8932 45 92.5264C46.2692 91.1596 50 88.0266 50 88.0266C50 88.0266 48.7692 86.4908 47.5 85.0264C46.2308 83.5619 42.5 81.0266 42.5 81.0266C46.3551 81.9904 48.3525 83.4186 51.6253 85.7588L52 86.0266L50.5 81.7766C49.9142 80.1169 47.5 78.0266 47.5 78.0266C47.5 78.0266 50.5683 79.5311 52.5 81.7766C54.4317 84.0221 57.3927 89.5264 57.3927 89.5264C58.2211 89.1817 59.0281 88.8482 59.8181 88.5264C59.8181 88.5264 51.9214 77.4253 56 68.5266C61.5 56.5266 90.3681 43.4098 106.5 56.5266C111.291 60.4225 112.849 66.8684 114.394 73.2638C115.916 79.5613 117.426 85.8098 122 89.5264C130 96.0266 142.65 97.2599 155 94.5264C166.216 92.0438 178.505 86.6729 179 75.5266C179.302 68.7216 171 63.5266 171 63.5266C171 63.5266 182.661 66.2664 183.5 74.5266C184.759 86.9245 159 98.0264 159 98.0264C160.043 98.5728 161.106 99.0677 162.135 99.5266C162.135 99.5266 172.947 103.082 180 102.527C187.883 101.906 199.5 95.5266 199.5 95.5266C199.5 95.5266 188.777 104.391 181 105.027C175.807 105.451 169 103.027 169 103.027C169.783 103.81 169.34 105.546 168.738 107.027C168.738 107.027 173.195 111.834 177 113.026C179.801 113.904 185 113.026 185 113.026C185 113.026 181.029 115.151 178 115.027C176.201 114.952 172.5 114.527 172.5 114.527C172.5 114.527 171.953 116.032 172 117.027C172.038 117.831 172.5 119.027 172.5 119.027C172.5 119.027 177.483 122.454 182.5 124.027C186.341 125.231 195 126.527 195 126.527C195 126.527 189.721 127.327 185.5 126.527C180.006 125.485 171 120.527 171 120.527C171 120.527 171.081 125.721 171.5 128.027C172.5 133.526 182.5 144.527 182.5 144.527ZM166.5 80.5264C160.957 83.7714 153.5 79.9295 148 76.0266C145.291 74.1044 137.917 64.0409 133 55.0266C130 49.5266 119 38.0266 119 38.0266C119 38.0266 127.705 42.934 131 48.0266C142 65.0266 157.5 84.0264 166.5 77.0266C170.741 73.7284 167.5 65.0266 167.5 65.0266C167.5 65.0266 172.419 77.0609 166.5 80.5264ZM33.5 114.527C30.8317 115.29 29 119.527 29 119.527C29 119.527 32.0388 116.678 34.5 116.027C36.5764 115.477 40 116.027 40 116.027C40 116.027 36.0535 113.796 33.5 114.527Z" fill="black"/>
<path d="M70 154.027C70 150.713 72.6863 148.027 76 148.027C79.3137 148.027 82 150.713 82 154.027V167.027C82 170.34 79.3137 173.027 76 173.027C72.6863 173.027 70 170.34 70 167.027V154.027Z" fill="black"/>
<path d="M130 154.027C130 150.713 132.686 148.027 136 148.027C139.314 148.027 142 150.713 142 154.027V167.027C142 170.34 139.314 173.027 136 173.027C132.686 173.027 130 170.34 130 167.027V154.027Z" fill="black"/>
<path d="M66 192.527C66 195.564 59.0604 198.027 50.5 198.027C41.9396 198.027 35 195.564 35 192.527C35 189.489 41.9396 187.027 50.5 187.027C59.0604 187.027 66 189.489 66 192.527Z" fill="#F9A9E7"/>
<path d="M179 192.527C179 195.564 172.06 198.027 163.5 198.027C154.94 198.027 148 195.564 148 192.527C148 189.489 154.94 187.027 163.5 187.027C172.06 187.027 179 189.489 179 192.527Z" fill="#F9A9E7"/>
<path d="M97.1475 196.789C97.3115 195.969 98.3069 195.552 99.064 195.907C100.569 196.615 103.114 197.496 106.5 197.527C110.11 197.56 113.06 196.608 114.798 195.869C115.562 195.544 116.5 196.099 116.5 196.929C116.5 197.3 116.308 197.642 115.977 197.81C114.692 198.465 111.142 200.027 106.5 200.027C102.08 200.027 98.9327 198.611 97.6455 197.91C97.2448 197.692 97.058 197.237 97.1475 196.789Z" fill="black"/>
</svg>
