<svg width="216" height="210" viewBox="0 0 216 210" fill="none" xmlns="http://www.w3.org/2000/svg">
<path d="M108.4 26.5266C142.408 26.5267 166.796 41.0668 179.601 60.6897L180.375 61.8958C195.716 86.2272 194.238 109.481 189.19 129.173C190.068 128.69 191.168 128.122 192.395 127.576C195.384 126.246 199.353 124.939 202.67 125.543L203.096 125.626C207.446 126.54 210.493 129.076 212.302 132.498C214.036 135.779 214.612 139.827 214.212 143.984L214.119 144.817C213.455 150.044 212.185 154.936 209.645 159.167C207.173 163.284 203.529 166.726 198.189 169.251L197.667 169.492C193.701 171.287 188.108 171.903 183.615 172.09C181.348 172.184 179.321 172.17 177.861 172.133C177.314 172.119 176.846 172.1 176.474 172.084C176.404 173.128 176.405 174.112 176.487 175.038L176.492 175.101L176.49 175.162C176.249 181.84 173.679 185.907 169.549 190.569L168.702 191.509C160.847 200.124 146.837 204.336 134.421 206.426C121.941 208.527 110.788 208.527 108.4 208.527C105.996 208.527 96.892 208.402 85.749 206.466C74.9688 204.593 62.1941 201.01 51.7295 194.135L50.7246 193.459C47.292 191.099 44.6635 188.358 42.9072 184.752C41.2664 181.383 40.4194 177.326 40.3193 172.238C39.9476 172.248 39.4863 172.26 38.9512 172.264C37.4653 172.276 35.4038 172.246 33.1016 172.081C28.6847 171.765 23.2202 170.941 19.2666 168.84L18.8887 168.633C8.56351 162.781 3 153.95 3 144.035L3.01367 143.163C3.15322 138.8 4.34761 134.436 6.83691 131.069C9.52013 127.439 13.6633 125.035 19.3818 125.035C23.9394 125.035 27.6082 127.052 30.1025 129.014C30.3087 129.176 30.5064 129.339 30.6973 129.5C27.7708 121.139 25.2805 112.774 25.2891 103.148C25.2993 91.8097 28.7675 78.8223 38.8145 62.0315L39.4014 61.0793C45.6138 51.2791 56.4156 42.7676 68.6816 36.6545C81.3521 30.34 95.6998 26.5266 108.4 26.5266Z" fill="#FFCEB4" stroke="black" stroke-width="2"/>
<path fill-rule="evenodd" clip-rule="evenodd" d="M15.5 118.527L17 126.027C17 126.027 22.3271 125.905 25.5 127.527C31.7208 130.705 35.5 141.527 35.5 141.527C35.5 141.527 49.3845 138.92 50 132.527C50.3853 128.525 45.9879 128.855 45 125.027C44.2193 122.002 45 117.027 45 117.027L40.5 113.027L42.5 117.027C42.5 117.027 35.0012 114.362 34 109.027C32.7895 102.575 40.5 90.5266 40.5 90.5266C40.5 90.5266 30.2882 101.495 30.5 109.027C30.6039 112.721 33.063 114.639 35.5208 116.556C37.853 118.375 40.184 120.192 40.5 123.527C40.9783 128.573 37 134.027 37 134.027C37 134.027 28.801 124.843 27 117.527C25.7856 112.593 26.5 104.527 26.5 104.527C26.5 104.527 23.8584 110.392 24 114.527C24.129 118.296 26.5 123.527 26.5 123.527C26.5 123.527 22.5482 123.677 20 122.527C18.2472 121.735 15.5 118.527 15.5 118.527ZM42.5 133.027C43.3853 131.459 43 128.027 43 128.027C43 128.027 46.1326 131.521 45.5 133.527C44.7364 135.947 39.5 136.027 39.5 136.027C39.5 136.027 41.6852 134.469 42.5 133.027Z" fill="#292929"/>
<path d="M65.5 80.5267C65.5 80.5267 69.5 87.5267 75.5 92.5267C77.631 94.3026 76.6019 96.4796 75.4678 98.8786C74.4098 101.117 73.2605 103.548 74.5 106.027C76 109.027 81 112.527 90 114.527C92.0627 114.985 96.5079 114.687 98 114.569C98 114.569 91 113.027 86.5 111.527C85.7867 111.289 85.0768 111.078 84.3827 110.873C80.6758 109.774 77.4187 108.808 76.5 104.527C76.0228 102.303 76.957 100.589 77.9059 98.8485C78.7117 97.3705 79.5281 95.8729 79.5 94.0267C79.4619 91.5267 72 85.0266 72 85.0266C72 85.0266 69.9589 83.2995 70 80.0266C70.0819 73.5012 81.5 65.5267 81.5 65.5267C81.5 65.5267 63.4989 73.3881 58.5 83.0266C57.3184 85.3048 56.2333 87.9314 55.4923 89.8445C58.296 84.7211 65.5 80.5267 65.5 80.5267Z" fill="#292929"/>
<path d="M54.5 75.0266C54.5 75.0266 55.8593 69.4084 58 66.5266C59.9828 63.8573 64.5 61.0266 64.5 61.0266C64.5 61.0266 57.7795 62.2089 55.5 65.5267C53.2858 68.7495 54.5 75.0266 54.5 75.0266Z" fill="#292929"/>
<path d="M118.5 45.5266C118.5 45.5266 115.064 38.876 111 37.5266C107.844 36.4789 102.5 38.0266 102.5 38.0266C102.5 38.0266 107.505 34.6103 111 35.0266C115.27 35.5352 119.5 42.0266 119.5 42.0266C119.5 42.0266 124.273 38.0574 128 38.5266C131.572 38.9764 135 43.5266 135 43.5266C135 43.5266 129.667 40.7579 126.5 41.0266C122.923 41.3301 118.5 45.5266 118.5 45.5266Z" fill="#292929"/>
<path d="M161.738 97.5267C161.738 97.5267 171.575 103.74 173.238 110.027C173.897 112.517 172.526 114.193 171.091 115.948C169.386 118.032 167.591 120.226 169 124.027C169.787 126.15 172.281 126.019 174.982 125.878C177.371 125.752 179.922 125.619 181.6 127.027C184.474 129.437 187 133.027 187 133.027C187 133.027 186.151 126.709 183.5 124.027C182.08 122.59 180.32 122.547 178.562 122.504C176.635 122.457 174.711 122.409 173.238 120.527C172.084 119.051 173.104 117.931 174.484 116.417C176.377 114.34 178.946 111.522 177.5 106.027C176.465 102.095 173.299 100.568 170.067 99.0099C167.034 97.548 163.943 96.058 162.5 92.5267C160.713 88.1551 160.725 85.2415 161 80.5267C161.114 78.564 161.566 76.5082 162.022 74.437C162.685 71.4193 163.356 68.369 163 65.5267C162.392 60.6715 158 57.5266 158 57.5266C158 57.5266 160.619 62.8414 161 66.5266C161.326 69.6735 160.486 71.9291 159.59 74.3339C158.957 76.0343 158.296 77.8093 158 80.0266C157.642 82.7041 157.919 84.9847 158.184 87.171C158.552 90.2021 158.898 93.0519 157.5 96.5266C156.758 98.3704 156.001 99.5014 155.081 100.877C154.745 101.379 154.387 101.913 154 102.527C149.771 109.234 141.5 118.527 141.5 118.527C148.808 115.395 152.356 110.324 156.198 104.834C157.876 102.436 159.61 99.9584 161.738 97.5267Z" fill="#292929"/>
<path d="M187 133.027C187 133.027 192.846 127.886 198 127.027C199.137 126.837 199.876 126.811 200.48 126.789C201.467 126.754 202.09 126.731 203.5 126.027C206.5 124.527 211.5 119.158 211.5 110.527C211.5 110.527 208.042 118.657 204.5 121.527C202.648 123.027 198.5 122.527 198.5 122.527C198.5 122.527 197.023 118.658 195.5 116.527C194.812 115.564 193.941 114.994 193.107 114.449C191.995 113.722 190.95 113.039 190.5 111.527C190.032 109.954 190.583 108.959 191.227 107.796C191.773 106.811 192.385 105.705 192.5 104.027C192.763 100.191 190.776 97.9766 188.613 95.5672C187.085 93.8644 185.47 92.0644 184.5 89.5266C182.121 83.3009 183 72.5266 183 72.5266C183 72.5266 178.733 84.4184 181 91.5267C181.79 94.0046 183.415 95.5092 185.008 96.9842C186.766 98.6117 188.485 100.203 189 103.027C189.392 105.177 188.633 106.91 187.887 108.611C187.078 110.457 186.285 112.265 187 114.527C188.29 118.61 195.5 123.527 195.5 123.527C195.5 123.527 192.065 124.019 190.5 126.027C188.752 128.269 187 133.027 187 133.027Z" fill="#292929"/>
<path fill-rule="evenodd" clip-rule="evenodd" d="M187 133.027C187 133.027 186.151 126.709 183.5 124.027C182.08 122.59 180.32 122.547 178.562 122.504C176.635 122.457 174.711 122.409 173.238 120.527C172.084 119.051 173.104 117.931 174.484 116.417C176.377 114.34 178.946 111.522 177.5 106.027C176.465 102.095 173.299 100.568 170.067 99.0099C167.034 97.548 163.943 96.058 162.5 92.5267C160.713 88.1551 160.725 85.2415 161 80.5267C161.114 78.564 161.566 76.5082 162.022 74.437C162.685 71.4193 163.356 68.369 163 65.5267C162.392 60.6715 158 57.5266 158 57.5266C158 57.5266 160.619 62.8414 161 66.5266C161.326 69.6735 160.486 71.9291 159.59 74.3339C158.957 76.0343 158.296 77.8093 158 80.0266C157.642 82.7041 157.919 84.9847 158.184 87.171C158.552 90.2021 158.898 93.0519 157.5 96.5266C156.758 98.3704 156.001 99.5014 155.081 100.877C154.745 101.379 154.387 101.913 154 102.527C149.771 109.234 141.5 118.527 141.5 118.527C141.5 118.527 152.156 104.17 147 96.5266C145.481 94.2746 143.175 93.5073 140.873 92.7414C138.427 91.9277 135.987 91.1157 134.5 88.5266C132.236 84.5834 135.321 80.8014 138.328 77.1156C141.404 73.3456 144.397 69.6763 141.5 66.0379C137.456 60.9593 131.525 61.1091 125.5 63.5267C120.317 65.6065 117 73.0267 117 73.0267C117 73.0267 113.23 64.4683 107 62.5266C98.9099 60.0053 91.5505 65.8847 88.5 73.5266C86.8296 77.7112 89.4665 80.0728 92.1535 82.4792C94.4338 84.5215 96.7502 86.596 96.5 89.8445C96.2596 92.966 93.957 94.8638 91.7308 96.6988C89.2926 98.7085 86.9459 100.643 87.5 104.027C88.4597 109.887 98.5 114.527 98.5 114.527C98.5 114.527 98.3164 114.544 98 114.569C98 114.569 91 113.027 86.5 111.527C85.7867 111.289 85.0768 111.078 84.3827 110.873C80.6758 109.774 77.4187 108.808 76.5 104.527C76.0228 102.303 76.957 100.589 77.9059 98.8485C78.7117 97.3705 79.5281 95.8729 79.5 94.0267C79.4619 91.5267 72 85.0266 72 85.0266C72 85.0266 69.9589 83.2995 70 80.0266C70.0819 73.5012 81.5 65.5267 81.5 65.5267C81.5 65.5267 63.4989 73.3881 58.5 83.0266C57.3184 85.3048 56.2333 87.9314 55.4923 89.8445C54.8778 91.4309 54.5 92.5267 54.5 92.5267C53.7954 96.4151 56.5211 99.6212 58.8855 102.402C60.6502 104.478 62.2137 106.317 62 108.027C61.3835 112.959 56 116.409 53 117.527C49.5234 118.822 45 117.027 45 117.027L40.5 113.027L42.5 117.027C42.5 117.027 35.0012 114.362 34 109.027C32.7895 102.575 40.5 90.5266 40.5 90.5266C40.5 90.5266 30.2882 101.495 30.5 109.027C30.6039 112.721 33.063 114.639 35.5208 116.556C37.853 118.375 40.184 120.192 40.5 123.527C40.9783 128.573 37 134.027 37 134.027C37 134.027 28.801 124.843 27 117.527C25.7856 112.593 26.5 104.527 26.5 104.527C26.5 104.527 23.8584 110.392 24 114.527C24.129 118.296 26.5 123.527 26.5 123.527C26.5 123.527 22.5482 123.677 20 122.527C18.2472 121.735 15.5 118.527 15.5 118.527C15.5 118.527 9.83143 119.57 7.50001 118.027C3.22583 115.198 0.882713 112.375 0.499985 107.027C0.0434173 100.647 5.99998 94.0267 5.99998 94.0267C5.99998 94.0267 -0.289096 86.1414 2.82712e-05 80.5267C0.455351 71.6847 14 63.5267 14 63.5267C14 63.5267 7.1319 52.8416 9.5 46.5267C11.275 41.7933 16.5509 40.0356 21.2885 38.4572C24.5579 37.368 27.5709 36.3642 29 34.5267C30.677 32.3706 30.9593 30.5956 31.2251 28.9243C31.4348 27.6059 31.6342 26.3521 32.5 25.0267C35.2226 20.859 37.8594 19.3067 42 17.0267C47.5214 13.9865 54.4771 11.3518 60.5 13.0267C64.677 14.1883 68 17.0267 68 17.0267C68 17.0267 78.9368 5.42252 88 6.02674C91.6554 6.27043 93.6398 8.36944 95.4702 10.3057C97.3954 12.342 99.1503 14.1983 102.5 13.5267C105.653 12.8947 107.329 10.4725 109.053 7.98048C110.52 5.8599 112.023 3.68868 114.5 2.5267C120.157 -0.126893 128.24 1.02381 133.5 2.52669C140.5 4.5266 144.937 6.77585 148 11.0266C149.295 12.8236 149.487 14.0843 149.64 15.081C149.79 16.0667 149.901 16.7941 151 17.5266C152.096 18.2571 154.973 18.0391 158.581 17.7657C164.851 17.2906 173.329 16.6481 178.5 20.5266C182.5 23.5266 183 39.5266 183 39.5266C183 39.5266 203.197 44.8155 205 52.0266C207.5 62.0266 201.5 71.0266 201.5 71.0266C201.5 71.0266 215.49 82.5811 214 90.5266C213.223 94.6686 211.561 96.4448 210.167 97.9338C208.869 99.3207 207.804 100.458 207.906 103.027C207.972 104.701 208.759 105.466 209.581 106.263C210.518 107.174 211.5 108.127 211.5 110.527C211.5 110.527 208.042 118.657 204.5 121.527C202.648 123.027 198.5 122.527 198.5 122.527C198.5 122.527 197.023 118.658 195.5 116.527C194.812 115.564 193.941 114.994 193.107 114.449C191.995 113.722 190.95 113.039 190.5 111.527C190.032 109.954 190.583 108.959 191.227 107.796C191.773 106.811 192.385 105.705 192.5 104.027C192.763 100.191 190.776 97.9766 188.613 95.5672C187.085 93.8644 185.47 92.0644 184.5 89.5266C182.121 83.3009 183 72.5266 183 72.5266C183 72.5266 178.733 84.4184 181 91.5267C181.79 94.0046 183.415 95.5092 185.008 96.9842C186.766 98.6117 188.485 100.203 189 103.027C189.392 105.177 188.633 106.91 187.887 108.611C187.078 110.457 186.285 112.265 187 114.527C188.29 118.61 195.5 123.527 195.5 123.527C195.5 123.527 192.065 124.019 190.5 126.027C188.752 128.269 187 133.027 187 133.027ZM136.5 65.5267C136.5 65.5267 132.909 65.8809 131 67.0266C128.621 68.4548 126.5 72.5266 126.5 72.5266C126.5 72.5266 129.758 69.416 132.5 68.5266C134.744 67.7988 138.958 68.0266 138.958 68.0266C138.656 67.0382 137.895 66.1907 136.5 65.5267ZM138.606 71.5266C138.606 71.5266 135.149 71.7611 133.5 73.0267C132.168 74.0496 131 76.5266 131 76.5266C131 76.5266 132.894 74.9781 134.5 74.5266C135.322 74.2955 137.128 74.5266 137.128 74.5266C137.731 73.4826 138.25 72.4761 138.606 71.5266ZM96.4527 68.0331C97.5282 67.1994 98.7244 66.5309 100 66.0379C100 66.0379 103.366 66.3095 105 67.5266C107.385 69.3034 108 74.5266 108 74.5266C108 74.5266 105.755 70.8749 103.5 69.5266C101.406 68.2746 97.7302 68.0671 96.4527 68.0331ZM92.7315 72.5296C93.0998 71.8067 93.5251 71.1318 94 70.5068C94 70.5068 96.6451 70.7231 98 71.5266C99.7291 72.5521 100.5 75.5266 100.5 75.5266C100.5 75.5266 98.2461 73.6135 96.5 73.0267C95.2815 72.6173 93.386 72.543 92.7315 72.5296ZM42.5 133.027C43.3853 131.459 43 128.027 43 128.027C43 128.027 46.1326 131.521 45.5 133.527C44.7364 135.947 39.5 136.027 39.5 136.027C39.5 136.027 41.6852 134.469 42.5 133.027ZM54.5 75.0266C54.5 75.0266 55.8593 69.4084 58 66.5266C59.9828 63.8573 64.5 61.0266 64.5 61.0266C64.5 61.0266 57.7795 62.2089 55.5 65.5267C53.2858 68.7495 54.5 75.0266 54.5 75.0266ZM111 37.5266C115.064 38.876 118.5 45.5266 118.5 45.5266C118.5 45.5266 122.923 41.3301 126.5 41.0266C129.667 40.7579 135 43.5266 135 43.5266C135 43.5266 131.572 38.9764 128 38.5266C124.273 38.0574 119.5 42.0266 119.5 42.0266C119.5 42.0266 115.27 35.5352 111 35.0266C107.505 34.6103 102.5 38.0266 102.5 38.0266C102.5 38.0266 107.844 36.4789 111 37.5266Z" fill="black"/>
<path d="M117 73.0267C117 73.0267 127.5 61.2443 136.5 65.5267C137.895 66.1907 138.656 67.0382 138.958 68.0266C139.273 69.0564 139.089 70.2392 138.606 71.5266C138.25 72.4761 137.731 73.4826 137.128 74.5266C136.596 75.4495 135.998 76.4018 135.39 77.37C132.324 82.256 129.003 87.5483 132.5 91.5267C134.258 93.5262 136.416 93.8915 138.502 94.2446C140.798 94.6331 143.006 95.007 144.5 97.5267C146.317 100.592 146.237 103.971 146 107.527C145.724 111.655 141.5 118.527 141.5 118.527C141.5 118.527 152.156 104.17 147 96.5266C145.481 94.2746 143.175 93.5073 140.873 92.7414C138.427 91.9277 135.987 91.1157 134.5 88.5266C132.236 84.5834 135.321 80.8014 138.328 77.1156C141.404 73.3456 144.397 69.6763 141.5 66.0379C137.456 60.9593 131.525 61.1091 125.5 63.5267C120.317 65.6065 117 73.0267 117 73.0267Z" fill="#292929"/>
<path d="M98.5 114.527C98.5 114.527 92.3824 110.507 91.5 105.027C90.9561 101.649 93.0327 99.5515 95.1528 97.4095C97.3708 95.1686 99.6366 92.8795 99 89.0267C98.6112 86.6737 96.8602 85.0748 95.1316 83.4964C92.9255 81.4818 90.7556 79.5005 91.5 76.0267C91.7712 74.761 92.1896 73.5933 92.7315 72.5296C93.0998 71.8067 93.5251 71.1318 94 70.5068C94.7139 69.5674 95.5398 68.7408 96.4527 68.0331C97.5282 67.1994 98.7244 66.5309 100 66.0379C101.722 65.3723 103.59 65.0267 105.5 65.0267C111.203 65.0267 117 73.0267 117 73.0267C117 73.0267 113.23 64.4683 107 62.5266C98.9099 60.0053 91.5505 65.8847 88.5 73.5266C86.8296 77.7112 89.4665 80.0728 92.1535 82.4792C94.4338 84.5215 96.7502 86.596 96.5 89.8445C96.2596 92.966 93.957 94.8638 91.7308 96.6988C89.2926 98.7085 86.9459 100.643 87.5 104.027C88.4597 109.887 98.5 114.527 98.5 114.527Z" fill="#292929"/>
<path d="M72 145.027C72 141.713 74.6863 139.027 78 139.027C81.3137 139.027 84 141.713 84 145.027V158.027C84 161.34 81.3137 164.027 78 164.027C74.6863 164.027 72 161.34 72 158.027V145.027Z" fill="black"/>
<path d="M132 145.027C132 141.713 134.686 139.027 138 139.027C141.314 139.027 144 141.713 144 145.027V158.027C144 161.34 141.314 164.027 138 164.027C134.686 164.027 132 161.34 132 158.027V145.027Z" fill="black"/>
<path d="M68 183.527C68 186.564 61.0604 189.027 52.5 189.027C43.9396 189.027 37 186.564 37 183.527C37 180.489 43.9396 178.027 52.5 178.027C61.0604 178.027 68 180.489 68 183.527Z" fill="#F9A9E7"/>
<path d="M181 183.527C181 186.564 174.06 189.027 165.5 189.027C156.94 189.027 150 186.564 150 183.527C150 180.489 156.94 178.027 165.5 178.027C174.06 178.027 181 180.489 181 183.527Z" fill="#F9A9E7"/>
<path d="M99.1475 187.789C99.3115 186.969 100.307 186.552 101.064 186.907C102.569 187.615 105.114 188.496 108.5 188.527C112.11 188.56 115.06 187.608 116.798 186.869C117.562 186.544 118.5 187.099 118.5 187.929C118.5 188.3 118.308 188.642 117.977 188.81C116.692 189.465 113.142 191.027 108.5 191.027C104.08 191.027 100.933 189.611 99.6455 188.91C99.2448 188.692 99.058 188.237 99.1475 187.789Z" fill="black"/>
</svg>
