<svg width="228" height="218" viewBox="0 0 228 218" fill="none" xmlns="http://www.w3.org/2000/svg">
<path d="M107.401 34.0266C141.408 34.0267 165.796 48.5668 178.601 68.1897L179.375 69.3958C194.716 93.7272 193.238 116.981 188.191 136.673C189.068 136.19 190.168 135.622 191.395 135.076C194.384 133.746 198.353 132.439 201.67 133.043L202.096 133.126C206.446 134.04 209.493 136.576 211.302 139.998C213.036 143.279 213.612 147.327 213.212 151.484L213.119 152.317C212.455 157.544 211.185 162.436 208.645 166.667C206.173 170.784 202.53 174.226 197.19 176.751L196.667 176.992C192.701 178.787 187.109 179.403 182.615 179.59C180.348 179.684 178.321 179.67 176.861 179.633C176.314 179.619 175.846 179.6 175.474 179.584C175.404 180.628 175.406 181.612 175.487 182.538L175.492 182.601L175.49 182.662C175.249 189.34 172.68 193.407 168.549 198.069L167.702 199.009C159.847 207.624 145.838 211.836 133.421 213.926C120.942 216.027 109.788 216.027 107.401 216.027C104.996 216.027 95.8922 215.902 84.7491 213.966C73.9689 212.093 61.1942 208.51 50.7296 201.635L49.7247 200.959C46.2922 198.599 43.6636 195.858 41.9073 192.252C40.2665 188.883 39.4195 184.826 39.3195 179.738C38.9478 179.748 38.4865 179.76 37.9513 179.764C36.4654 179.776 34.4039 179.746 32.1017 179.581C27.6849 179.265 22.2203 178.441 18.2667 176.34L17.8888 176.133C7.56363 170.281 2.00012 161.45 2.00012 151.535L2.01379 150.663C2.15334 146.3 3.34773 141.936 5.83704 138.569C8.52025 134.939 12.6634 132.535 18.382 132.535C22.9395 132.535 26.6084 134.552 29.1027 136.514C29.3088 136.676 29.5065 136.839 29.6974 137C26.771 128.639 24.2806 120.274 24.2892 110.648C24.2994 99.3097 27.7676 86.3223 37.8146 69.5315L38.4015 68.5793C44.6139 58.7791 55.4158 50.2676 67.6818 44.1545C80.3522 37.84 94.6999 34.0266 107.401 34.0266Z" fill="#FFCEB4" stroke="black" stroke-width="2"/>
<path fill-rule="evenodd" clip-rule="evenodd" d="M68.5631 61.5267C57.2305 66.83 60.5001 90.5266 60.5001 90.5266C60.5001 90.5266 45.8005 78.5936 37.5001 83.2223C37.5001 83.2223 44.9132 82.9754 48.5001 85.0266C51.6256 86.814 54.0001 91.5266 54.0001 91.5266C54.0001 91.5266 50.6266 87.5773 48.0001 86.0266C44.2984 83.841 37.5001 83.2223 37.5001 83.2223C37.3307 83.3168 37.164 83.4181 37.0001 83.5266C35.77 84.341 34.9139 85.5558 34.3508 87.0266C34.3508 87.0266 40.4453 86.2764 44.0001 87.5266C47.5385 88.7711 51.5001 93.0266 51.5001 93.0266C51.5001 93.0266 47.5001 90.0266 43.5001 88.5266C40.0756 87.2424 34.3508 87.0266 34.3508 87.0266C32.7424 91.2268 33.5223 97.5145 34.7971 102.527C34.7971 102.527 36.1385 102.624 39.5 101.527C42.7077 100.479 44.9119 99.2648 47.2969 97.9508C50.9101 95.9601 54.9384 93.7407 63.5 91.5266C74.2954 88.7348 95.3948 87.5266 95.3948 87.5266C94.8519 86.3226 94.3128 85.1051 93.7734 83.8869C87.5265 69.7789 81.2447 55.592 68.5631 61.5267ZM69.5001 70.5266C67.0001 74.0266 67.0001 84.5266 67.0001 84.5266C67.0001 84.5266 68.4519 75.9505 71.5001 71.5266C73.9299 68.0002 79.5001 64.0266 79.5001 64.0266C79.5001 64.0266 72.2789 66.6363 69.5001 70.5266ZM78.5001 72.5266C74.4631 74.0078 73.0001 82.0266 73.0001 82.0266C73.0001 82.0266 75.1811 75.8591 78.5001 74.0266C80.9476 72.6753 86.5001 73.5266 86.5001 73.5266C86.5001 73.5266 81.2498 71.5177 78.5001 72.5266Z" fill="#292929"/>
<path d="M51.5001 64.0266C51.5001 64.0266 45.4248 58.3204 40.5 57.0266C35.7749 55.7853 28 57.5266 28 57.5266C28 57.5266 37.0088 53.334 42.5 55.0266C46.1231 56.1434 50.5 60.5266 50.5 60.5266C50.5 60.5266 50.47 53.953 52.5 50.5266C55.3168 45.7721 64.5 43.0266 64.5 43.0266C64.5 43.0266 56.6274 47.6609 54.0001 52.5266C51.8165 56.5706 51.5001 64.0266 51.5001 64.0266Z" fill="#292929"/>
<path d="M6 140.027C6 140.027 10.527 134.255 15.5 134.027C21.0067 133.774 24.1976 133.764 28.5 138.027C33.1938 142.677 36.0001 152.527 36.0001 152.527C36.0001 152.527 37.3175 146.633 35.5 141.027C32.3417 131.285 18 117.027 18 117.027C18 117.027 23.6134 124.798 25.5 130.527C25.953 131.902 26.5 134.098 26.5 134.098C26.5 134.098 19.9573 130.306 16 130.527C10.1839 130.851 6 140.027 6 140.027Z" fill="#292929"/>
<path fill-rule="evenodd" clip-rule="evenodd" d="M176.5 148.027C176.5 148.027 193.5 133.527 199.5 134.098C204.051 134.531 205.5 135.027 205.5 135.027C205.5 135.027 202.214 132.109 199.5 131.527C196.481 130.879 192.5 133.027 192.5 133.027C192.5 133.027 193.732 125.664 196.5 122.027C198.514 119.381 203 116.527 203 116.527L196.5 117.027C196.5 117.027 196.586 114.545 197 113.027C197.574 110.92 199.5 108.027 199.5 108.027C199.5 108.027 195.686 110.216 194.5 113.027C193.874 114.51 193.5 118.027 193.5 118.027C193.5 118.027 189.226 118.036 186.5 113.027C183.945 108.333 183.452 101.888 182.975 95.6613C182.495 89.3935 182.031 83.3462 179.5 79.5266C175.167 72.9883 166.5 72.5266 166.5 72.5266C166.5 72.5266 172.5 73.5266 178.5 86.0266C180.762 90.7388 180.658 95.2717 180.558 99.6618C180.441 104.792 180.328 109.728 184 114.527C186.267 117.489 189 121.027 189 121.027C189 121.027 187.085 124.124 180.5 125.527C177.015 126.269 163.5 127.527 163.5 127.527C168.77 130.264 178.5 128.527 178.5 128.527C178.5 128.527 181.491 133.027 179.5 141.027C178.754 144.023 176.5 148.027 176.5 148.027ZM184.5 134.098C184.466 131.845 183 128.527 183 128.527C183 128.527 185.508 128.132 187 127.527C189.714 126.425 193 123.027 193 123.027C193 123.027 191.453 129.207 189.5 132.527C187.547 135.846 183 140.027 183 140.027C183 140.027 184.536 136.486 184.5 134.098Z" fill="#292929"/>
<path d="M126.5 113.027C126.5 113.027 135.528 118.303 142.5 118.027C146.098 117.884 152 116.027 152 116.027C152 116.027 152.579 116.831 153.528 118.027C153.528 118.027 156.972 116.472 158.5 115.027C160.982 112.679 162.5 107.527 162.5 107.527C162.5 107.527 155.715 109.989 149.5 108.027C145.643 106.809 145.063 97.9011 144.337 86.7548C143.275 70.4495 141.901 49.353 129.5 40.5266C116.833 31.5111 94.0001 31.5266 94.0001 31.5266C94.0001 31.5266 119.157 32.3435 131 47.0266C139.558 57.6368 141.056 77.9472 142.128 92.4779C142.767 101.148 143.255 107.76 145 109.027C149.67 112.415 155.5 112.027 155.5 112.027C155.5 112.027 145.561 115.953 139.5 115.027C133.451 114.102 130.058 111.059 126.04 107.456C125.698 107.15 125.352 106.84 125 106.527C120.029 102.108 115.5 95.0266 115.5 95.0266C115.5 95.0266 118.19 102.417 121 106.527C122.877 109.271 126.5 113.027 126.5 113.027Z" fill="#292929"/>
<path fill-rule="evenodd" clip-rule="evenodd" d="M163.5 127.527C159.907 125.66 155.725 120.794 153.528 118.027C153.528 118.027 156.972 116.472 158.5 115.027C160.982 112.679 162.5 107.527 162.5 107.527C162.5 107.527 155.715 109.989 149.5 108.027C145.643 106.809 145.063 97.9011 144.337 86.7548C143.275 70.4495 141.901 49.353 129.5 40.5266C116.833 31.5111 94.0001 31.5266 94.0001 31.5266C94.0001 31.5266 119.157 32.3435 131 47.0266C139.558 57.6368 141.056 77.9472 142.128 92.4779C142.767 101.148 143.255 107.76 145 109.027C149.67 112.415 155.5 112.027 155.5 112.027C155.5 112.027 145.561 115.953 139.5 115.027C133.451 114.102 130.058 111.059 126.04 107.456C125.698 107.15 125.352 106.84 125 106.527C120.029 102.108 115.5 95.0266 115.5 95.0266C115.5 95.0266 118.19 102.417 121 106.527C122.877 109.271 126.5 113.027 126.5 113.027C126.5 113.027 117.736 112.447 113 110.527C108.264 108.607 104.563 105.027 99.5631 96.0266C98.1086 93.4085 96.7399 90.5093 95.3948 87.5266C94.8519 86.3226 94.3128 85.1051 93.7734 83.8869C87.5265 69.7789 81.2447 55.592 68.5631 61.5267C57.2305 66.83 60.5001 90.5266 60.5001 90.5266C60.5001 90.5266 45.8005 78.5936 37.5001 83.2223C37.3307 83.3168 37.164 83.4181 37.0001 83.5266C35.77 84.341 34.9139 85.5558 34.3508 87.0266C32.7424 91.2268 33.5223 97.5145 34.7971 102.527C35.1714 103.998 35.5884 105.36 36.0001 106.527C37.9763 112.126 39.954 116.308 41.628 119.847C45.0364 127.054 47.1857 131.599 45.5001 140.027C44.0001 147.527 36.0001 152.527 36.0001 152.527C36.0001 152.527 37.3175 146.633 35.5 141.027C32.3417 131.285 18 117.027 18 117.027C18 117.027 23.6134 124.798 25.5 130.527C25.953 131.902 26.5 134.098 26.5 134.098C26.5 134.098 19.9573 130.306 16 130.527C10.1839 130.851 6 140.027 6 140.027C6 140.027 0.406929 130.343 1.50013 123.527C2.02675 120.243 3.26437 118.08 4.48685 115.944C5.83237 113.592 7.15955 111.273 7.50013 107.527C7.91671 102.944 6.2981 97.7359 4.53711 92.0695C2.07079 84.1334 -0.674804 75.2987 1.50014 66.0266C11.0001 25.5266 44.0001 34.5266 44.0001 34.5266C44.0001 34.5266 47.764 19.9685 56.5001 12.0266C73.0001 -2.9734 94.0001 1.52662 94.0001 1.52662C94.0001 1.52662 90.4853 3.50217 89.0001 6.02662C87.5018 8.57343 89.0001 11.0266 89.0001 11.0266C89.0001 11.0266 122.369 -2.41301 145.5 6.02662C170.66 15.2066 178.48 29.2418 185.939 42.6296C189.45 48.9298 192.88 55.0866 198 60.5266L198.473 61.0293C203.646 66.5311 205.622 68.6327 212.5 70.0266C216.918 70.9221 227.5 70.0266 227.5 70.0266C227.5 70.0266 220.249 79.6964 214 83.5266C208.929 86.6351 203.5 88.0266 203.5 88.0266C203.5 88.0266 209.974 99.0612 210.5 106.527C211.213 116.65 205.5 135.027 205.5 135.027C205.5 135.027 202.214 132.109 199.5 131.527C196.481 130.879 192.5 133.027 192.5 133.027C192.5 133.027 193.732 125.664 196.5 122.027C198.514 119.381 203 116.527 203 116.527L196.5 117.027C196.5 117.027 196.586 114.545 197 113.027C197.574 110.92 199.5 108.027 199.5 108.027C199.5 108.027 195.686 110.216 194.5 113.027C193.874 114.51 193.5 118.027 193.5 118.027C193.5 118.027 189.226 118.036 186.5 113.027C183.945 108.333 183.452 101.888 182.975 95.6613C182.495 89.3935 182.031 83.3462 179.5 79.5266C175.167 72.9883 166.5 72.5266 166.5 72.5266C166.5 72.5266 172.5 73.5266 178.5 86.0266C180.762 90.7388 180.658 95.2717 180.558 99.6618C180.441 104.792 180.328 109.728 184 114.527C186.267 117.489 189 121.027 189 121.027C189 121.027 187.085 124.124 180.5 125.527C177.015 126.269 163.5 127.527 163.5 127.527ZM34.3508 87.0266C34.3508 87.0266 40.4453 86.2764 44.0001 87.5266C47.5385 88.7711 51.5001 93.0266 51.5001 93.0266C51.5001 93.0266 47.5001 90.0266 43.5001 88.5266C40.0756 87.2424 34.3508 87.0266 34.3508 87.0266ZM37.5001 83.2223C37.5001 83.2223 44.9132 82.9754 48.5001 85.0266C51.6256 86.814 54.0001 91.5266 54.0001 91.5266C54.0001 91.5266 50.6266 87.5773 48.0001 86.0266C44.2984 83.841 37.5001 83.2223 37.5001 83.2223ZM67.0001 84.5266C67.0001 84.5266 67.0001 74.0266 69.5001 70.5266C72.2789 66.6363 79.5001 64.0266 79.5001 64.0266C79.5001 64.0266 73.9299 68.0002 71.5001 71.5266C68.4519 75.9505 67.0001 84.5266 67.0001 84.5266ZM73.0001 82.0266C73.0001 82.0266 74.4631 74.0078 78.5001 72.5266C81.2498 71.5177 86.5001 73.5266 86.5001 73.5266C86.5001 73.5266 80.9476 72.6753 78.5001 74.0266C75.1811 75.8591 73.0001 82.0266 73.0001 82.0266ZM51.5001 64.0266C51.5001 64.0266 45.4248 58.3204 40.5 57.0266C35.7749 55.7853 28 57.5266 28 57.5266C28 57.5266 37.0088 53.334 42.5 55.0266C46.1231 56.1434 50.5 60.5266 50.5 60.5266C50.5 60.5266 50.47 53.953 52.5 50.5266C55.3168 45.7721 64.5 43.0266 64.5 43.0266C64.5 43.0266 56.6274 47.6609 54.0001 52.5266C51.8165 56.5706 51.5001 64.0266 51.5001 64.0266ZM184.5 134.098C184.466 131.845 183 128.527 183 128.527C183 128.527 185.508 128.132 187 127.527C189.714 126.425 193 123.027 193 123.027C193 123.027 191.453 129.207 189.5 132.527C187.547 135.846 183 140.027 183 140.027C183 140.027 184.536 136.486 184.5 134.098ZM81 35.5266C83.8566 33.0647 90 33.0266 90 33.0266C90 33.0266 85.0088 33.9173 82.5 35.5266C80.1296 37.0471 77.5 42.0266 77.5 42.0266C77.5 42.0266 79.3135 36.9801 81 35.5266Z" fill="black"/>
<path d="M90 33.0266C90 33.0266 83.8566 33.0647 81 35.5266C79.3135 36.9801 77.5 42.0266 77.5 42.0266C77.5 42.0266 80.1296 37.0471 82.5 35.5266C85.0088 33.9173 90 33.0266 90 33.0266Z" fill="#292929"/>
<path d="M71 153.027C71 149.713 73.6863 147.027 77 147.027C80.3137 147.027 83 149.713 83 153.027V166.027C83 169.34 80.3137 172.027 77 172.027C73.6863 172.027 71 169.34 71 166.027V153.027Z" fill="black"/>
<path d="M131 153.027C131 149.713 133.686 147.027 137 147.027C140.314 147.027 143 149.713 143 153.027V166.027C143 169.34 140.314 172.027 137 172.027C133.686 172.027 131 169.34 131 166.027V153.027Z" fill="black"/>
<path d="M67 191.527C67 194.564 60.0604 197.027 51.5 197.027C42.9396 197.027 36 194.564 36 191.527C36 188.489 42.9396 186.027 51.5 186.027C60.0604 186.027 67 188.489 67 191.527Z" fill="#F9A9E7"/>
<path d="M180 191.527C180 194.564 173.06 197.027 164.5 197.027C155.94 197.027 149 194.564 149 191.527C149 188.489 155.94 186.027 164.5 186.027C173.06 186.027 180 188.489 180 191.527Z" fill="#F9A9E7"/>
<path d="M98.1475 195.789C98.3115 194.969 99.3069 194.552 100.064 194.907C101.569 195.615 104.114 196.496 107.5 196.527C111.11 196.56 114.06 195.608 115.798 194.869C116.562 194.544 117.5 195.099 117.5 195.929C117.5 196.3 117.308 196.642 116.977 196.81C115.692 197.465 112.142 199.027 107.5 199.027C103.08 199.027 99.9327 197.611 98.6455 196.91C98.2448 196.692 98.058 196.237 98.1475 195.789Z" fill="black"/>
</svg>
