<svg width="215" height="215" viewBox="0 0 215 215" fill="none" xmlns="http://www.w3.org/2000/svg">
<path d="M107.4 31.5266C141.408 31.5267 165.796 46.0668 178.601 65.6897L179.375 66.8958C194.716 91.2272 193.238 114.481 188.19 134.173C189.068 133.69 190.168 133.122 191.395 132.576C194.384 131.246 198.353 129.939 201.67 130.543L202.096 130.626C206.446 131.54 209.493 134.076 211.302 137.498C213.036 140.779 213.612 144.827 213.212 148.984L213.119 149.817C212.455 155.044 211.185 159.936 208.645 164.167C206.173 168.284 202.529 171.726 197.189 174.251L196.667 174.492C192.701 176.287 187.108 176.903 182.615 177.09C180.348 177.184 178.321 177.17 176.861 177.133C176.314 177.119 175.846 177.1 175.474 177.084C175.404 178.128 175.405 179.112 175.487 180.038L175.492 180.101L175.49 180.162C175.249 186.84 172.679 190.907 168.549 195.569L167.702 196.509C159.847 205.124 145.837 209.336 133.421 211.426C120.941 213.527 109.788 213.527 107.4 213.527C104.996 213.527 95.892 213.402 84.749 211.466C73.9688 209.593 61.1941 206.01 50.7295 199.135L49.7246 198.459C46.292 196.099 43.6635 193.358 41.9072 189.752C40.2664 186.383 39.4194 182.326 39.3193 177.238C38.9476 177.248 38.4863 177.26 37.9512 177.264C36.4653 177.276 34.4038 177.246 32.1016 177.081C27.6847 176.765 22.2202 175.941 18.2666 173.84L17.8887 173.633C7.56351 167.781 2 158.95 2 149.035L2.01367 148.163C2.15322 143.8 3.34761 139.436 5.83691 136.069C8.52013 132.439 12.6633 130.035 18.3818 130.035C22.9394 130.035 26.6082 132.052 29.1025 134.014C29.3087 134.176 29.5064 134.339 29.6973 134.5C26.7708 126.139 24.2805 117.774 24.2891 108.148C24.2993 96.8097 27.7675 83.8223 37.8145 67.0315L38.4014 66.0793C44.6138 56.2791 55.4156 47.7676 67.6816 41.6545C80.3521 35.34 94.6998 31.5266 107.4 31.5266Z" fill="#FFCEB4" stroke="black" stroke-width="2"/>
<path d="M14.5001 131.527C15.8532 131.147 17.28 131.031 18.5001 131.027C18.5001 131.027 24.537 121.859 27.5001 115.527C30.0732 110.028 30.2741 103.654 30.4746 97.2909C30.6886 90.4988 30.9022 83.7186 34.0001 78.0266C39.2249 68.4269 54.0001 66.0266 54.0001 66.0266C54.0001 66.0266 39.9818 64.1783 34.0001 72.0266C29.6662 77.7129 28.7472 87.5629 27.8781 96.8791C27.3369 102.68 26.815 108.274 25.5001 112.527C22.3097 122.846 14.5001 131.527 14.5001 131.527Z" fill="#292929"/>
<path d="M41.5005 120.526C41.5005 120.526 41.9118 126.036 41.5005 129.526C41.1014 132.913 39.5005 138.026 39.5005 138.026C39.5005 138.026 43.6171 131.263 44.0001 127.527C44.3722 123.898 41.5005 120.526 41.5005 120.526Z" fill="#292929"/>
<path d="M63.5005 117.026C63.5005 117.026 65.6171 120.123 66 123.027C66.4686 126.58 62 133.027 62 133.027C62 133.027 67.5487 129.423 68.0001 124.027C68.4436 118.725 64.2831 115.169 59.9674 111.481C55.6237 107.77 51.1227 103.923 51.0001 98.0266C50.7951 88.1608 62 77.0266 62 77.0266C62 77.0266 47.5808 88.7454 48.0001 99.0266C48.4087 109.044 62.952 119.527 62.952 119.527C63.3344 118.02 63.5005 117.026 63.5005 117.026Z" fill="#292929"/>
<path d="M69.5 133.527C69.5 133.527 74 130.026 76.5 122.027C77.5686 118.607 74.8914 114.182 71.8661 109.182C67.8138 102.485 63.137 94.756 66 87.0266C67.1315 83.9718 69.4662 82.0179 72.5001 80.8983C74.0136 80.3398 75.7012 79.989 77.5001 79.8127C80.0068 79.567 82.7299 79.6603 85.5001 80.003C87.8338 80.2917 90.2008 80.7574 92.5001 81.3466C93.5163 81.607 94.5192 81.8915 95.5001 82.1955C98.7883 83.2146 101.83 84.4528 104.295 85.7362C97.5 81.7873 82.8812 74.4918 73.5001 78.5266C65.208 82.0931 64.4342 84.433 62.952 92.0266C61.9953 96.928 64.8494 101.597 67.8424 106.493C70.9558 111.586 74.2195 116.924 73.5001 123.027C72.9 128.117 69.5 133.527 69.5 133.527Z" fill="#292929"/>
<path d="M148 126.027C148.553 121.604 150.5 115.527 150.5 115.527C150.5 115.527 151.046 129.455 155 133.527C157.175 135.767 160.438 137.012 164 137.671C164 137.671 155.094 132.121 154 125.526C152.906 118.932 152 111.027 152 111.027C152 111.027 147.257 117.914 146 122.027C144.556 126.755 147 132.027 147 132.027C147 132.027 138.003 134.351 135 127.527C132.884 122.718 134.468 114.455 136.108 105.899C138.731 92.2143 141.499 77.7786 129.5 75.5266C118.855 73.5286 108 88.0266 108 88.0266C108 88.0266 109.646 86.1976 112.207 84.0266C115.944 80.86 121.63 76.9658 127 76.959C128.19 76.9575 129.365 77.1469 130.5 77.5776C130.837 77.7056 131.171 77.8548 131.5 78.0266C132.552 78.5753 133.373 79.333 134 80.2638C134.625 81.1914 135.056 82.2908 135.329 83.5266C135.501 84.3084 135.61 85.1447 135.664 86.0266C136.024 91.8617 133.99 99.6913 132.116 106.907C130.256 114.066 128.554 120.621 129.5 124.027C130.725 128.435 133.315 131.679 137.5 133.527C141.98 135.504 147.5 135.527 152 133.527C152.386 133.355 151.877 132.834 151.104 132.045C149.78 130.693 147.684 128.552 148 126.027Z" fill="#292929"/>
<path d="M184.001 138.026C184.501 139.026 193.784 133.433 197.501 128.026C203.001 120.026 205.961 114.288 207.501 104.026C207.501 104.026 204.135 114.018 202 118.027C198.867 123.909 193.5 129.026 193.5 129.026C193.5 129.026 191.216 127.625 190.5 124.027C189.658 119.796 190.5 109.527 190.5 109.527C190.5 109.527 188.027 116.041 187.5 120.027C186.804 125.301 190.5 131.2 190.5 131.2C190.5 131.2 188.965 133.486 187.5 134.527C186.036 135.567 183 136.527 183 136.527C183 136.527 179.551 131.932 178.5 125.526C177.208 117.648 179.613 109.371 181.903 101.488C184.413 92.8459 186.786 84.6772 184.001 78.0266C180.48 69.6215 169.5 69.5266 169.5 69.5266C169.5 69.5266 179.078 72.3649 181.5 80.5266C183.392 86.901 181.228 94.416 178.962 102.285C176.903 109.437 174.76 116.881 175.5 124.027C176.311 131.858 179.5 138.058 179.5 138.058L180.056 138.021C182.357 137.867 183.87 137.766 184.001 138.026Z" fill="#292929"/>
<path fill-rule="evenodd" clip-rule="evenodd" d="M175.5 124.027C176.311 131.858 179.5 138.058 179.5 138.058C175.473 138.324 169.394 138.669 164 137.671C164 137.671 155.094 132.121 154 125.526C152.906 118.932 152 111.027 152 111.027C152 111.027 147.257 117.914 146 122.027C144.556 126.755 147 132.027 147 132.027C147 132.027 138.003 134.351 135 127.527C132.884 122.718 134.468 114.455 136.108 105.899C138.731 92.2143 141.499 77.7786 129.5 75.5266C118.855 73.5286 108 88.0266 108 88.0266C108 88.0266 106.596 87.0732 104.295 85.7362C97.5 81.7873 82.8812 74.4918 73.5001 78.5266C65.208 82.0931 64.4342 84.433 62.952 92.0266C61.9953 96.928 64.8494 101.597 67.8424 106.493C70.9558 111.586 74.2195 116.924 73.5001 123.027C72.9 128.117 69.5 133.527 69.5 133.527C69.5 133.527 69.7894 131.464 70.0005 129.026C70.1197 127.651 69.5 125.526 69.5 125.526C69.5 125.526 68.5627 129.16 67.0005 130.527C65.4383 131.893 62 133.027 62 133.027C62 133.027 67.5487 129.423 68.0001 124.027C68.4436 118.725 64.2831 115.169 59.9674 111.481C55.6237 107.77 51.1227 103.923 51.0001 98.0266C50.7951 88.1608 62 77.0266 62 77.0266C62 77.0266 47.5808 88.7454 48.0001 99.0266C48.4087 109.044 62.952 119.527 62.952 119.527C62.0905 122.921 60.1311 128.919 56.5 132.027C51.3846 136.404 39.5005 138.026 39.5005 138.026C39.5005 138.026 43.6171 131.263 44.0001 127.527C44.3722 123.898 41.5005 120.526 41.5005 120.526C41.5005 120.526 41.1535 126.846 39 130.527C37.1162 133.747 32 138.026 32 138.026C32 138.026 24.5563 131.003 18.5001 131.027C18.5001 131.027 24.537 121.859 27.5001 115.527C30.0732 110.028 30.2741 103.654 30.4746 97.2909C30.6886 90.4988 30.9022 83.7186 34.0001 78.0266C39.2249 68.4269 54.0001 66.0266 54.0001 66.0266C54.0001 66.0266 39.9818 64.1783 34.0001 72.0266C29.6662 77.7129 28.7472 87.5629 27.8781 96.8791C27.3369 102.68 26.815 108.274 25.5001 112.527C22.3097 122.846 14.5001 131.527 14.5001 131.527C11.8601 132.267 10.0001 133.527 10.0001 133.527C10.0001 133.527 3.88581 115.66 2.00002 106.527C-1.582 89.1787 4.7474 68.0756 8.79616 54.5765C9.22844 53.1353 9.63471 51.7807 10.0002 50.5266C13.7884 37.5266 27.1691 17.6438 49.0005 7.52675C90.0005 -11.4734 123.501 13.5266 123.501 13.5266C123.501 13.5266 154.153 3.73609 182.501 21.5264C193.408 28.3713 198.735 35.0124 204.501 46.5264C211.761 61.0264 209.001 94.0265 207.501 104.026C207.501 104.026 204.135 114.018 202 118.027C198.867 123.909 193.5 129.026 193.5 129.026C193.5 129.026 191.216 127.625 190.5 124.027C189.658 119.796 190.5 109.527 190.5 109.527C190.5 109.527 188.027 116.041 187.5 120.027C186.804 125.301 190.5 131.2 190.5 131.2C190.5 131.2 188.965 133.486 187.5 134.527C186.036 135.567 183 136.527 183 136.527C183 136.527 179.551 131.932 178.5 125.526C177.208 117.648 179.613 109.371 181.903 101.488C184.413 92.8459 186.786 84.6772 184.001 78.0266C180.48 69.6215 169.5 69.5266 169.5 69.5266C169.5 69.5266 179.078 72.3649 181.5 80.5266C183.392 86.901 181.228 94.416 178.962 102.285C176.903 109.437 174.76 116.881 175.5 124.027ZM135.664 86.0266C135.61 85.1447 135.501 84.3084 135.329 83.5266C135.329 83.5266 129.761 84.4465 127 86.5266C124.784 88.1965 122.5 92.0266 122.5 92.0266C122.5 92.0266 125.291 88.6976 127.5 87.5266C130.401 85.9895 135.664 86.0266 135.664 86.0266ZM134 80.2638C133.373 79.333 132.552 78.5753 131.5 78.0266C131.171 77.8548 130.837 77.7056 130.5 77.5776C130.5 77.5776 123.954 80.2247 120.5 83.0266C117.276 85.642 113.5 91.0266 113.5 91.0266C113.5 91.0266 118.355 86.0692 122 84.0266C126.339 81.5957 134 80.2638 134 80.2638ZM127 76.959C121.63 76.9658 115.944 80.86 112.207 84.0266C112.207 84.0266 110.189 85.9417 109.5 87.5266C109.254 88.093 109 89.0266 109 89.0266C109 89.0266 110.284 86.4789 114 84.0266C117.367 81.8051 127 76.959 127 76.959ZM72.5001 84.0266C69.7044 84.028 66 87.0266 66 87.0266C67.1315 83.9718 69.4662 82.0179 72.5001 80.8983C72.5001 80.8983 75.9418 82.8695 78.0001 84.5266C80.1618 86.2669 83.0001 89.5266 83.0001 89.5266C83.0001 89.5266 80.1176 87.1209 78.0001 86.0266C77.6115 85.8258 77.2539 85.6285 76.9136 85.4408C75.4761 84.6479 74.3482 84.0257 72.5001 84.0266ZM87.0001 84.0266C83.7789 81.5576 77.5001 79.8127 77.5001 79.8127C80.0068 79.567 82.7299 79.6603 85.5001 80.003C85.5001 80.003 87.8199 81.7603 89.5001 84.0266C91.418 86.6136 93.5001 92.0266 93.5001 92.0266C93.5001 92.0266 90.195 86.4755 87.0001 84.0266ZM98.0001 86.0266C96.3307 83.7536 92.5001 81.3466 92.5001 81.3466C93.5163 81.607 94.5192 81.8915 95.5001 82.1955C95.5001 82.1955 96.8267 82.8733 97.5001 83.5266C99.0096 84.9909 99.5001 88.5266 99.5001 88.5266C99.5001 88.5266 98.6741 86.9443 98.0001 86.0266ZM96.0001 51.5266C102.306 55.4426 109 68.0266 109 68.0266C109 68.0266 112.252 60.5704 117 58.0266C122.38 55.1443 135.5 57.0266 135.5 57.0266C135.5 57.0266 124.215 52.9467 118.5 55.0266C113.942 56.6854 109 62.5266 109 62.5266C109 62.5266 108.552 59.1272 109 57.0266C109.602 54.207 110.776 52.5469 112.5 50.5266C115.553 46.9494 122 43.5266 122 43.5266C122 43.5266 116.505 45.126 113.5 47.5266C111.117 49.4303 108 53.5266 108 53.5266C108 53.5266 107.027 47.8396 105.5 44.5266C103.062 39.236 96.0001 33.0266 96.0001 33.0266C96.0001 33.0266 101.372 40.2467 103.5 45.5266C105.235 49.8313 106.5 57.0266 106.5 57.0266C106.5 57.0266 100.261 49.2298 95.0001 47.5266C89.7688 45.833 82.0001 49.0266 82.0001 49.0266C82.0001 49.0266 90.5666 48.1521 96.0001 51.5266Z" fill="black"/>
<path d="M109 68.0266C109 68.0266 102.306 55.4426 96.0001 51.5266C90.5666 48.1521 82.0001 49.0266 82.0001 49.0266C82.0001 49.0266 89.7688 45.833 95.0001 47.5266C100.261 49.2298 106.5 57.0266 106.5 57.0266C106.5 57.0266 105.235 49.8313 103.5 45.5266C101.372 40.2467 96.0001 33.0266 96.0001 33.0266C96.0001 33.0266 103.062 39.236 105.5 44.5266C107.027 47.8396 108 53.5266 108 53.5266C108 53.5266 111.117 49.4303 113.5 47.5266C116.505 45.126 122 43.5266 122 43.5266C122 43.5266 115.553 46.9494 112.5 50.5266C110.776 52.5469 109.602 54.207 109 57.0266C108.552 59.1272 109 62.5266 109 62.5266C109 62.5266 113.942 56.6854 118.5 55.0266C124.215 52.9467 135.5 57.0266 135.5 57.0266C135.5 57.0266 122.38 55.1443 117 58.0266C112.252 60.5704 109 68.0266 109 68.0266Z" fill="#292929"/>
<path d="M71 150.027C71 146.713 73.6863 144.027 77 144.027C80.3137 144.027 83 146.713 83 150.027V163.027C83 166.34 80.3137 169.027 77 169.027C73.6863 169.027 71 166.34 71 163.027V150.027Z" fill="black"/>
<path d="M131 150.027C131 146.713 133.686 144.027 137 144.027C140.314 144.027 143 146.713 143 150.027V163.027C143 166.34 140.314 169.027 137 169.027C133.686 169.027 131 166.34 131 163.027V150.027Z" fill="black"/>
<path d="M67 188.527C67 191.564 60.0604 194.027 51.5 194.027C42.9396 194.027 36 191.564 36 188.527C36 185.489 42.9396 183.027 51.5 183.027C60.0604 183.027 67 185.489 67 188.527Z" fill="#F9A9E7"/>
<path d="M180 188.527C180 191.564 173.06 194.027 164.5 194.027C155.94 194.027 149 191.564 149 188.527C149 185.489 155.94 183.027 164.5 183.027C173.06 183.027 180 185.489 180 188.527Z" fill="#F9A9E7"/>
<path d="M98.1475 192.789C98.3115 191.969 99.3069 191.552 100.064 191.907C101.569 192.615 104.114 193.496 107.5 193.527C111.11 193.56 114.06 192.608 115.798 191.869C116.562 191.544 117.5 192.099 117.5 192.929C117.5 193.3 117.308 193.642 116.977 193.81C115.692 194.465 112.142 196.027 107.5 196.027C103.08 196.027 99.9327 194.611 98.6455 193.91C98.2448 193.692 98.058 193.237 98.1475 192.789Z" fill="black"/>
</svg>
