<svg width="215" height="207" viewBox="0 0 215 207" fill="none" xmlns="http://www.w3.org/2000/svg">
<path d="M107.827 24C141.834 24.0001 166.222 38.5402 179.027 58.1631L179.801 59.3691C195.142 83.7005 193.664 106.954 188.617 126.646C189.494 126.163 190.594 125.595 191.821 125.05C194.81 123.72 198.779 122.412 202.096 123.017L202.522 123.1C206.872 124.013 209.919 126.55 211.728 129.972C213.462 133.253 214.038 137.301 213.638 141.457L213.545 142.29C212.881 147.517 211.611 152.409 209.071 156.641C206.599 160.758 202.956 164.199 197.616 166.725L197.093 166.966C193.127 168.761 187.535 169.377 183.041 169.563C180.774 169.658 178.747 169.644 177.287 169.606C176.74 169.592 176.272 169.574 175.9 169.558C175.83 170.601 175.832 171.586 175.913 172.512L175.918 172.574L175.916 172.636C175.675 179.313 173.106 183.381 168.975 188.042L168.128 188.982C160.273 197.597 146.264 201.809 133.847 203.899C121.368 206 110.214 206 107.827 206C105.422 206 96.3182 205.876 85.1752 203.939C74.395 202.066 61.6202 198.483 51.1556 191.608L50.1508 190.933C46.7182 188.573 44.0897 185.832 42.3334 182.226C40.6926 178.856 39.8455 174.799 39.7455 169.711C39.3738 169.722 38.9125 169.733 38.3773 169.737C36.8914 169.749 34.8299 169.719 32.5277 169.555C28.1109 169.239 22.6464 168.414 18.6927 166.313L18.3148 166.106C7.98965 160.254 2.42614 151.423 2.42615 141.509L2.43982 140.637C2.57936 136.274 3.77375 131.909 6.26306 128.542C8.94628 124.912 13.0895 122.509 18.808 122.509C23.3656 122.509 27.0344 124.525 29.5287 126.487C29.7348 126.649 29.9326 126.813 30.1234 126.974C27.197 118.613 24.7066 110.247 24.7152 100.621C24.7254 89.2831 28.1936 76.2957 38.2406 59.5049L38.8275 58.5527C45.0399 48.7524 55.8418 40.241 68.1078 34.1279C80.7783 27.8134 95.126 24 107.827 24Z" fill="#FFCEB4" stroke="black" stroke-width="2"/>
<path d="M187.426 186C191.834 180.548 191.426 168 191.426 168L174.426 168.5C174.426 168.5 174.46 173.432 173.426 177C171.686 183.005 169.767 186.045 164.926 190C159.854 194.143 150.426 198.5 150.426 198.5C150.426 198.5 153.66 200.934 156.426 202.5C160.844 205.002 169.426 202.5 169.426 202.5C169.426 202.5 167.584 201.378 167.426 199C167.215 195.82 172.426 192.5 172.426 192.5L177.926 188.5L174.926 193.5C174.926 193.5 184.971 189.037 187.426 186Z" fill="black"/>
<path d="M25.4261 185C23.9325 179.2 30.9261 168.5 30.9261 168.5H40.9261C40.9261 168.5 40.436 177.098 42.9261 182C45.4303 186.93 54.4261 192.5 54.4261 192.5C54.4261 192.5 49.1283 194.875 45.9261 194C42.8888 193.171 39.4261 190.5 39.4261 190.5C39.4261 190.5 38.3166 190.024 37.9261 191C37.5356 191.976 38.4261 194 38.4261 194C38.4261 194 26.8033 190.349 25.4261 185Z" fill="black"/>
<path d="M102.426 118.5C102.426 118.5 97.5376 116.109 95.9261 114.5C94.1049 112.682 93.1717 109.205 92.7421 107C92.7421 107 90.9301 109.605 90.9261 111.5C90.9211 113.947 93.9261 117 93.9261 117C93.9261 117 84.977 118.461 79.4261 116.5C67.9432 112.444 60.9369 103.917 58.4261 92.0001C56.7634 84.1083 60.9261 71.5 60.9261 71.5C60.9261 71.5 55.6537 77.6308 55.4261 81.5C54.9261 90 55.4261 98 55.4261 98C55.4261 98 45.2173 108.515 44.9261 115.5C44.7841 118.907 45.9261 120 45.9261 120C46.5966 111.307 56.9261 100 56.9261 100C56.9261 100 66.4653 115.323 76.4261 119.5C84.9261 123.065 102.426 118.5 102.426 118.5Z" fill="#202020"/>
<path d="M175.426 143C174.277 149.204 170.926 159 170.926 159C170.926 159 172.923 155.654 174.926 153C180.694 145.356 180.427 138.552 176.426 129C175.343 126.414 172.76 123.609 169.913 120.516C164.873 115.043 159.002 108.667 159.136 101C159.255 94.1874 162.495 88.5235 165.572 83.1447C169.608 76.0889 173.364 69.5238 169.426 61.5C164.831 52.1371 148.426 45 148.426 45C148.426 45 165.778 54.7776 166.926 65.5C167.823 73.8729 159.136 85.6064 159.136 85.6064C159.136 85.6064 158.151 81.7781 157.426 80C156.702 78.2219 155.426 76.5 155.426 76.5C155.426 76.5 158.426 86 153.926 97.5C153.413 98.8114 152.946 100.12 152.489 101.402C150.218 107.766 148.185 113.464 141.926 115.5C138.949 116.469 133.926 116 133.926 116C133.926 116 135.926 115.5 137.926 105.5C138.521 102.527 139.828 100.492 141.072 98.5536C142.642 96.1092 144.111 93.82 143.926 90C143.675 84.8178 139.426 77.5 139.426 77.5C139.426 77.5 142.284 90.7838 138.426 98.5C130.426 114.5 108.926 117 108.926 117C108.926 117 110.855 113.39 109.926 110C109.46 108.299 107.237 107.527 104.423 106.549C99.7919 104.941 93.5599 102.776 90.9261 95C88.4799 87.7778 95.9261 76.5 95.9261 76.5C95.9261 76.5 86.4536 86.7873 87.4261 94.5C87.9943 99.006 92.4261 105 92.4261 105C92.4261 105 106.667 109.5 106.667 113C106.667 115.447 103.926 117.5 103.926 117.5C103.926 117.5 109.224 120.368 112.926 120.5C117.17 120.652 119.701 119.202 123.145 117.229L123.148 117.228C123.559 116.992 123.984 116.749 124.426 116.5C127.619 114.703 134.426 108 134.426 108C134.426 108 134.818 110.488 134.426 112C133.699 114.81 128.426 117.5 128.426 117.5C128.426 117.5 138.225 120.229 143.426 118.5C151.854 115.698 155.926 102.5 155.926 102.5C155.926 102.5 154.069 110.286 157.926 113.5C158.21 113.737 158.623 114.055 159.136 114.449C164.035 118.215 178.025 128.968 175.426 143Z" fill="#202020"/>
<path d="M51.4261 132.5C51.4261 132.5 48.3583 130.484 46.9261 128.5C45.3121 126.265 45.4799 124.595 45.7571 121.837C45.7841 121.569 45.812 121.29 45.8395 121C45.8395 121 44.0658 122.91 43.4261 125C42.7872 127.087 42.9261 130.5 42.9261 130.5C42.9261 130.5 33.9501 125.185 33.4261 117.5C33.0557 112.066 36.4261 100 36.4261 100C36.4261 100 29.5085 109.587 29.9261 116.5C30.3585 123.656 38.9261 132.5 38.9261 132.5C38.9261 132.5 39.3158 139.804 42.4261 143.5C44.5186 145.986 53.4261 149 53.4261 149C53.4261 149 47.3312 150.814 43.9261 151C36.9261 151.382 23.1248 131 23.1248 131C28.4037 141.417 37.7643 156.921 45.9261 155C54.4261 153 56.9261 147 56.9261 147C56.9261 147 49.8514 145.765 46.9261 143C44.0705 140.301 42.4261 134 42.4261 134C42.4261 134 45.2175 134.911 46.9261 134.5C48.8807 134.03 51.4261 132.5 51.4261 132.5Z" fill="#202020"/>
<path d="M53.9261 54.5C53.9261 54.5 45.163 63.1131 43.9261 71.5C43.0672 77.3241 44.9261 88.5001 44.9261 88.5001C44.9261 88.5001 39.7766 79.5141 40.4261 73C41.3098 64.1386 53.9261 54.5 53.9261 54.5Z" fill="#202020"/>
<path d="M78.4261 32.5001C78.4261 32.5001 89.2478 25.1868 95.9261 27C100.637 28.2791 105.926 34.5 105.926 34.5C105.926 34.5 110.603 30.0661 114.926 29C120.502 27.625 128.926 32.0001 128.926 32.0001C128.926 32.0001 123.1 26.514 117.926 26C112.619 25.4728 105.426 30 105.426 30C105.426 30 101.86 26.6842 98.4261 25.5C90.8849 22.8991 78.4261 32.5001 78.4261 32.5001Z" fill="#202020"/>
<path d="M131.426 34.5C131.426 34.5 133.117 34.829 133.926 35.5C134.803 36.2265 135.426 38 135.426 38C135.426 38 135.973 35.4001 134.926 34.5C133.89 33.609 131.426 34.5 131.426 34.5Z" fill="black"/>
<path d="M131.426 34.5C131.426 34.5 133.117 34.829 133.926 35.5C134.803 36.2265 135.426 38 135.426 38C135.426 38 135.973 35.4001 134.926 34.5C133.89 33.609 131.426 34.5 131.426 34.5Z" fill="#202020"/>
<path d="M184.926 153.5C191.767 147.016 192.926 128.5 192.926 128.5L203.926 125C203.926 125 209.926 113.468 209.926 105.5C209.926 99.5118 207.49 96.9387 205.302 94.6274C204.35 93.6219 203.445 92.666 202.808 91.5C202.808 91.5 205.999 100.581 205.426 106.5C203.926 122 199.426 121 199.426 121C199.426 121 200.883 110.818 198.426 105.5C196.8 101.982 192.926 98.5 192.926 98.5C192.926 98.5 197.238 106.822 196.926 112.5C196.703 116.571 193.926 122.5 193.926 122.5C193.926 122.5 191.508 118.624 188.926 117C186.04 115.184 180.926 113.5 180.926 113.5C180.926 113.5 185.608 116.905 187.426 120C188.995 122.671 189.308 124.635 189.76 127.467L189.76 127.469C189.813 127.8 189.867 128.143 189.926 128.5C191.543 138.324 184.926 153.5 184.926 153.5Z" fill="black"/>
<path d="M184.926 153.5C191.767 147.016 192.926 128.5 192.926 128.5L203.926 125C203.926 125 209.926 113.468 209.926 105.5C209.926 99.5118 207.49 96.9387 205.302 94.6274C204.35 93.6219 203.445 92.666 202.808 91.5C202.808 91.5 205.999 100.581 205.426 106.5C203.926 122 199.426 121 199.426 121C199.426 121 200.883 110.818 198.426 105.5C196.8 101.982 192.926 98.5 192.926 98.5C192.926 98.5 197.238 106.822 196.926 112.5C196.703 116.571 193.926 122.5 193.926 122.5C193.926 122.5 191.508 118.624 188.926 117C186.04 115.184 180.926 113.5 180.926 113.5C180.926 113.5 185.608 116.905 187.426 120C188.995 122.671 189.308 124.635 189.76 127.467L189.76 127.469C189.813 127.8 189.867 128.143 189.926 128.5C191.543 138.324 184.926 153.5 184.926 153.5Z" fill="#202020"/>
<path fill-rule="evenodd" clip-rule="evenodd" d="M184.926 153.5C180.083 158.091 170.926 159 170.926 159C170.926 159 172.923 155.654 174.926 153C180.694 145.356 180.427 138.552 176.426 129C175.343 126.414 172.76 123.609 169.913 120.516C164.873 115.043 159.002 108.667 159.136 101C159.255 94.1874 162.495 88.5235 165.572 83.1447C169.608 76.0889 173.364 69.5238 169.426 61.5C164.831 52.1371 148.426 45 148.426 45C148.426 45 165.778 54.7776 166.926 65.5C167.823 73.8729 159.136 85.6064 159.136 85.6064C159.136 85.6064 158.151 81.7781 157.426 80C156.702 78.2219 155.426 76.5 155.426 76.5C155.426 76.5 158.426 86 153.926 97.5C153.413 98.8114 152.946 100.12 152.489 101.402C150.218 107.766 148.185 113.464 141.926 115.5C138.949 116.469 133.926 116 133.926 116C133.926 116 135.926 115.5 137.926 105.5C138.521 102.527 139.828 100.492 141.072 98.5536C142.642 96.1092 144.111 93.82 143.926 90C143.675 84.8178 139.426 77.5 139.426 77.5C139.426 77.5 142.284 90.7838 138.426 98.5C130.426 114.5 108.926 117 108.926 117C108.926 117 110.855 113.39 109.926 110C109.46 108.299 107.237 107.527 104.423 106.549C99.7919 104.941 93.5599 102.776 90.9261 95C88.4799 87.7778 95.9261 76.5 95.9261 76.5C95.9261 76.5 86.4536 86.7873 87.4261 94.5C87.9943 99.006 92.4261 105 92.4261 105C92.4261 105 92.5117 105.817 92.7421 107C92.7421 107 90.9301 109.605 90.9261 111.5C90.9211 113.947 93.9261 117 93.9261 117C93.9261 117 84.977 118.461 79.4261 116.5C67.9432 112.444 60.9369 103.917 58.4261 92.0001C56.7634 84.1083 60.9261 71.5 60.9261 71.5C60.9261 71.5 55.6537 77.6308 55.4261 81.5C54.9261 90 55.4261 98 55.4261 98C55.4261 98 45.2173 108.515 44.9261 115.5C44.7841 118.907 45.9261 120 45.9261 120C45.8992 120.349 45.8697 120.682 45.8395 121C45.8395 121 44.0658 122.91 43.4261 125C42.7872 127.087 42.9261 130.5 42.9261 130.5C42.9261 130.5 33.9501 125.185 33.4261 117.5C33.0557 112.066 36.4261 100 36.4261 100C36.4261 100 29.5085 109.587 29.9261 116.5C30.3585 123.656 38.9261 132.5 38.9261 132.5C38.9261 132.5 39.3158 139.804 42.4261 143.5C44.5186 145.986 53.4261 149 53.4261 149C53.4261 149 47.3312 150.814 43.9261 151C36.9261 151.382 23.1248 131 23.1248 131C22.3886 129.547 21.7319 128.194 21.1688 127C21.1688 127 22.3928 120.584 21.4261 117.5C19.7286 112.084 20.9261 103.5 20.9261 103.5C20.9261 103.5 19.1716 107.908 18.9261 111.5C18.7127 114.623 19.4261 120.5 19.4261 120.5C19.4261 120.5 15.0875 115.035 13.9261 112C12.3846 107.971 13.9261 102.5 13.9261 102.5C13.9261 102.5 11.7067 106.858 11.4261 110C11.1088 113.554 13.262 118.547 13.8043 119.738C9.88388 117.724 4.76484 114.413 2.42612 110C-0.976499 103.579 -0.117291 95.0001 0.926124 92.0001C2.08096 88.6798 4.15257 87.1042 6.12196 85.6064C8.33228 83.9253 10.4139 82.3421 10.9261 78.5001C11.3449 75.3591 10.2729 72.9197 9.10561 70.2636C7.48574 66.5777 5.68253 62.4745 7.42612 55.5001C10.4261 43.5001 26.4261 39.5001 26.4261 39.5001C26.4261 39.5001 29.3601 34.5918 32.4261 33.0001C36.5854 30.8409 41.9261 32.0001 41.9261 32.0001C41.9261 32.0001 47.1061 18.8566 54.9261 15.0001C60.5547 12.2244 69.9261 12.0001 69.9261 12.0001C69.9261 12.0001 74.4261 6.7583 82.4261 6.50013C87.0576 6.35066 89.7388 7.45072 92.0496 8.39883C94.2293 9.29313 96.0795 10.0522 98.9261 9.50013C102.135 8.87774 103.532 6.83595 104.898 4.84068C106.226 2.90085 107.523 1.00498 110.426 0.500137C117.564 -0.74128 122.348 3.29064 127.129 7.32007C130.05 9.78227 132.97 12.2435 136.426 13.5001C140.469 14.9704 145.611 14.7996 150.913 14.6235C160.035 14.3206 169.633 14.0018 174.926 22.0001C178.82 27.8847 178.926 39.5001 178.926 39.5001C178.926 39.5001 185.484 41.6581 186.926 46.0001C187.788 48.5945 188.926 53.0001 188.926 53.0001C188.926 53.0001 207.081 58.4198 208.426 67.5001C209.551 75.0918 207.136 78.0023 204.93 80.6612C203.214 82.7305 201.623 84.6475 201.926 88.5001C202.019 89.6805 202.342 90.6465 202.808 91.5C202.808 91.5 205.999 100.581 205.426 106.5C203.926 122 199.426 121 199.426 121C199.426 121 200.883 110.818 198.426 105.5C196.8 101.982 192.926 98.5 192.926 98.5C192.926 98.5 197.238 106.822 196.926 112.5C196.703 116.571 193.926 122.5 193.926 122.5C193.926 122.5 191.508 118.624 188.926 117C186.04 115.184 180.926 113.5 180.926 113.5C180.926 113.5 185.608 116.905 187.426 120C188.995 122.671 189.308 124.635 189.76 127.467L189.76 127.469C189.813 127.8 189.867 128.143 189.926 128.5C191.543 138.324 184.926 153.5 184.926 153.5ZM18.9261 122C18.9261 122 19.75 123.992 21.1688 127L18.9261 122ZM53.9261 54.5C53.9261 54.5 45.163 63.1131 43.9261 71.5C43.0672 77.3241 44.9261 88.5001 44.9261 88.5001C44.9261 88.5001 39.7766 79.5141 40.4261 73C41.3098 64.1386 53.9261 54.5 53.9261 54.5ZM78.4261 32.5001C78.4261 32.5001 89.2478 25.1868 95.9261 27C100.637 28.2791 105.926 34.5 105.926 34.5C105.926 34.5 110.603 30.0661 114.926 29C120.502 27.625 128.926 32.0001 128.926 32.0001C128.926 32.0001 123.1 26.514 117.926 26C112.619 25.4728 105.426 30 105.426 30C105.426 30 101.86 26.6842 98.4261 25.5C90.8849 22.8991 78.4261 32.5001 78.4261 32.5001ZM131.426 34.5C131.426 34.5 133.117 34.829 133.926 35.5C134.803 36.2265 135.426 38 135.426 38C135.426 38 135.973 35.4001 134.926 34.5C133.89 33.609 131.426 34.5 131.426 34.5Z" fill="black"/>
<path d="M13.9261 102.5C13.9261 102.5 11.7067 106.858 11.4261 110C11.1088 113.554 13.262 118.547 13.8043 119.738C16.6899 121.22 18.9261 122 18.9261 122L21.1688 127C21.1688 127 22.3928 120.584 21.4261 117.5C19.7286 112.084 20.9261 103.5 20.9261 103.5C20.9261 103.5 19.1716 107.908 18.9261 111.5C18.7127 114.623 19.4261 120.5 19.4261 120.5C19.4261 120.5 15.0875 115.035 13.9261 112C12.3846 107.971 13.9261 102.5 13.9261 102.5Z" fill="#202020"/>
<path d="M71.4261 143C71.4261 139.686 74.1124 137 77.4261 137C80.7399 137 83.4261 139.686 83.4261 143V156C83.4261 159.314 80.7399 162 77.4261 162C74.1124 162 71.4261 159.314 71.4261 156V143Z" fill="black"/>
<path d="M131.426 143C131.426 139.686 134.112 137 137.426 137C140.74 137 143.426 139.686 143.426 143V156C143.426 159.314 140.74 162 137.426 162C134.112 162 131.426 159.314 131.426 156V143Z" fill="black"/>
<path d="M67.4261 181.5C67.4261 184.538 60.4866 187 51.9261 187C43.3657 187 36.4261 184.538 36.4261 181.5C36.4261 178.462 43.3657 176 51.9261 176C60.4866 176 67.4261 178.462 67.4261 181.5Z" fill="#F9A9E7"/>
<path d="M180.426 181.5C180.426 184.538 173.487 187 164.926 187C156.366 187 149.426 184.538 149.426 181.5C149.426 178.462 156.366 176 164.926 176C173.487 176 180.426 178.462 180.426 181.5Z" fill="#F9A9E7"/>
<path d="M71.4261 143C71.4261 139.686 74.1124 137 77.4261 137C80.7399 137 83.4261 139.686 83.4261 143V156C83.4261 159.314 80.7399 162 77.4261 162C74.1124 162 71.4261 159.314 71.4261 156V143Z" fill="black"/>
<path d="M131.426 143C131.426 139.686 134.112 137 137.426 137C140.74 137 143.426 139.686 143.426 143V156C143.426 159.314 140.74 162 137.426 162C134.112 162 131.426 159.314 131.426 156V143Z" fill="black"/>
<path d="M67.4261 181.5C67.4261 184.538 60.4866 187 51.9261 187C43.3657 187 36.4261 184.538 36.4261 181.5C36.4261 178.462 43.3657 176 51.9261 176C60.4866 176 67.4261 178.462 67.4261 181.5Z" fill="#F9A9E7"/>
<path d="M180.426 181.5C180.426 184.538 173.487 187 164.926 187C156.366 187 149.426 184.538 149.426 181.5C149.426 178.462 156.366 176 164.926 176C173.487 176 180.426 178.462 180.426 181.5Z" fill="#F9A9E7"/>
<path d="M98.5736 185.763C98.7377 184.942 99.733 184.525 100.49 184.881C101.995 185.588 104.54 186.469 107.926 186.5C111.536 186.533 114.486 185.581 116.224 184.842C116.988 184.518 117.926 185.072 117.926 185.903C117.926 186.274 117.734 186.616 117.404 186.784C116.118 187.439 112.568 189 107.926 189C103.506 189 100.359 187.584 99.0717 186.884C98.6709 186.666 98.4841 186.21 98.5736 185.763Z" fill="black"/>
</svg>
