<svg width="214" height="228" viewBox="0 0 214 228" fill="none" xmlns="http://www.w3.org/2000/svg">
<path d="M106.827 45C140.835 45.0001 165.222 59.5402 178.027 79.1631L178.801 80.3691C194.142 104.701 192.665 127.954 187.617 147.646C188.494 147.163 189.594 146.595 190.821 146.05C193.81 144.72 197.779 143.412 201.096 144.017L201.522 144.1C205.872 145.013 208.919 147.55 210.728 150.972C212.462 154.253 213.038 158.301 212.638 162.457L212.545 163.29C211.882 168.517 210.611 173.409 208.071 177.641C205.599 181.758 201.956 185.199 196.616 187.725L196.093 187.966C192.127 189.761 186.535 190.377 182.042 190.563C179.774 190.658 177.748 190.644 176.288 190.606C175.74 190.592 175.272 190.574 174.9 190.558C174.83 191.601 174.832 192.586 174.914 193.512L174.918 193.574L174.917 193.636C174.675 200.313 172.106 204.381 167.975 209.042L167.128 209.982C159.274 218.597 145.264 222.809 132.847 224.899C120.368 227 109.214 227 106.827 227C104.422 227 95.3183 226.876 84.1753 224.939C73.3951 223.066 60.6203 219.483 50.1558 212.608L49.1509 211.933C45.7183 209.573 43.0898 206.832 41.3335 203.226C39.6927 199.856 38.8457 195.799 38.7456 190.711C38.3739 190.722 37.9126 190.733 37.3774 190.737C35.8915 190.749 33.83 190.719 31.5278 190.555C27.111 190.239 21.6465 189.414 17.6929 187.313L17.3149 187.106C6.98978 181.254 1.42627 172.423 1.42627 162.509L1.43994 161.637C1.57948 157.274 2.77387 152.909 5.26318 149.542C7.9464 145.912 12.0896 143.509 17.8081 143.509C22.3657 143.509 26.0345 145.525 28.5288 147.487C28.7349 147.649 28.9327 147.813 29.1235 147.974C26.1971 139.613 23.7067 131.247 23.7153 121.621C23.7255 110.283 27.1937 97.2957 37.2407 80.5049L37.8276 79.5527C44.0401 69.7524 54.8419 61.241 67.1079 55.1279C79.7784 48.8134 94.1261 45 106.827 45Z" fill="#FFCEB4" stroke="black" stroke-width="2"/>
<path d="M17.4263 106.5C17.4263 106.5 19.093 119.86 23.9264 126.5C27.6784 131.654 36.4263 137 36.4263 137C36.4263 137 28.1281 129.853 24.4263 124C20.5477 117.867 17.4263 106.5 17.4263 106.5Z" fill="#202020"/>
<path d="M69.9264 17.5C69.9264 17.5 74.4237 23.4127 73.4264 28C71.8022 35.4713 65.324 38.7218 57.6938 42.5503C53.5795 44.6147 49.1302 46.8471 44.9264 50C40.5497 53.2825 36.9264 59.5 36.9264 59.5C36.9264 59.5 33.53 67.789 32.9263 73.5C32.391 78.5636 35.9263 86.5 35.9263 86.5C35.9263 86.5 34.3715 77.8318 35.9263 72.5C36.2078 71.5344 36.4658 70.6125 36.7136 69.7266C38.3176 63.994 39.4991 59.771 43.9263 55C46.6692 52.0441 48.9247 49.7523 51.9263 48.5C54.3434 47.4915 57.0143 46.7279 59.4263 45C67.5108 39.2084 76.4263 33 76.9263 28.5C77.5129 23.2208 69.9264 17.5 69.9264 17.5Z" fill="#202020"/>
<path d="M99.9264 21C99.9264 21 89.985 17.1109 83.4264 16.5C83.4264 16.5 103.999 24.9957 110.926 34C116.236 40.9022 116.426 51.5 116.426 51.5C116.426 51.5 119.07 38.8294 114.426 32C110.711 26.5364 99.9264 21 99.9264 21Z" fill="#202020"/>
<path d="M124.926 12L122.426 15.5C122.426 15.5 120.345 11.2675 119.426 9.00004C118.002 5.4864 117.426 0 117.426 0C117.426 0 116.381 14.1012 120.426 21.5C124.289 28.5639 135.426 34.5 135.426 34.5C135.426 34.5 125.832 28 124.426 21.5C123.641 17.8689 124.926 12 124.926 12Z" fill="#202020"/>
<path d="M71.9264 137.5C71.9264 137.5 61.3904 127.652 62.9263 119.5C64.0615 113.475 65.441 108.33 71.4263 107C73.6578 106.504 76.0086 106.938 78.545 107.406C81.1235 107.882 83.894 108.394 86.9263 108C92.1938 107.316 99.9264 104 99.9264 104C99.9264 104 100.124 104.19 100.473 104.5C100.473 104.5 115.211 91.4083 117.926 80.5C119.815 72.9113 117.426 62 117.426 62C117.426 62 117.725 74.0593 114.926 81C110.947 90.8673 106.117 96.6088 96.4263 101C92.1987 102.916 89.5673 103.949 84.9263 104C72.9263 104.131 63.4263 90.5 60.9263 83C57.2534 71.9816 68.9263 55 68.9263 55C68.9263 55 56.5 70.0677 57.9263 81C59.2156 90.8823 72.4263 102 72.4263 102C72.4263 102 68.2518 102.903 65.4263 106C61.0124 110.838 59.1863 119.5 59.9263 122.5C61.6508 129.491 71.9264 137.5 71.9264 137.5Z" fill="#202020"/>
<path d="M41.9264 169C41.9264 169 36.9217 161.664 37.4264 156.5C37.9379 151.267 43.4032 150.232 43.9263 145C44.4263 140 40.0307 129.594 39.4264 119.5C39.1114 114.237 38.9263 110 40.4263 108.5C42.4264 106.5 49.4263 106 53.9263 107C55.6812 107.39 54.1499 112.649 53.8315 118C53.8315 118 54.8122 107.87 58.9263 103.5C61.0425 101.252 65.4263 99 65.4263 99C65.4263 99 60.9868 99.1728 58.4263 101.5C58.3568 101.563 58.2873 101.627 58.2177 101.692C58.1637 101.742 58.109 101.793 58.0546 101.843C57.245 102.597 56.3707 103.412 54.9263 104C52.5685 104.961 49.3776 104.688 46.9263 104C42.4891 102.755 39.7268 100.156 37.4263 97C35.6742 94.5967 35.9263 91 35.9263 91C35.9263 91 34.9274 95.4553 35.9263 98C36.3651 99.1179 37.3442 99.7097 38.2774 100.274C39.3855 100.943 40.4289 101.574 40.4263 103C40.4232 104.746 38.4263 107 38.4263 107C38.4263 107 32.1629 104.627 29.9263 100.5C27.7365 96.4593 27.4263 87 27.4263 87C27.4263 87 25.8414 96.7288 28.4263 102C29.4331 104.053 30.931 105.159 32.4307 106.266C33.9205 107.366 35.4122 108.467 36.4263 110.5C37.9514 113.557 37.3873 116.335 36.8155 119.152C36.2755 121.812 35.7287 124.505 36.9264 127.5C37.1294 128.008 37.477 128.692 37.8935 129.511C39.5287 132.729 42.2278 138.041 41.4263 143C41.0372 145.407 39.7366 146.938 38.4346 148.471C37.1239 150.014 35.8118 151.558 35.4263 154C34.3777 160.642 41.9264 169 41.9264 169Z" fill="#202020"/>
<path d="M139.926 106C139.926 106 159.554 95.9151 163.426 83.5C166.227 74.5216 162.926 60 162.926 60C162.926 60 164.584 74.5708 161.426 83C155.411 99.0573 125.926 108.838 125.926 108.838C133.386 107.673 139.926 106 139.926 106Z" fill="#202020"/>
<path d="M197.426 104C191.85 70.5 177.426 65.5 177.426 65.5C177.426 65.5 172.814 78.9521 168.926 85.5C165.096 91.9503 157.926 98.5 157.926 98.5C157.926 98.5 166.772 92.9298 170.926 88C175.833 82.1766 177.926 70.5 177.926 70.5C177.926 70.5 180.871 71.7247 181.926 72.5C184.464 74.3636 185.926 79.5 185.926 79.5C185.926 79.5 184.051 89.3026 180.426 95.5C178.512 98.7726 173.426 104.5 173.426 104.5C173.426 104.5 177.875 101.426 180.426 99C185.489 94.1863 188.926 83.5 188.926 83.5C188.926 83.5 191.447 87.6047 192.426 90.5C193.629 94.0581 193.926 100 193.926 100C193.926 100 188.993 108.354 184.926 113C180.921 117.576 173.426 123.5 173.426 123.5C173.426 123.5 181.718 118.824 186.426 115C191.142 111.17 197.426 104 197.426 104Z" fill="#202020"/>
<path fill-rule="evenodd" clip-rule="evenodd" d="M170.426 112C171.428 120.863 169.546 134.432 168.754 139.5C168.754 139.5 175.174 138.628 178.926 137C183.799 134.886 189.926 129 189.926 129C189.926 129 184.739 137.347 179.426 140C177.217 141.103 173.426 142 173.426 142C173.426 142 178.796 147.849 180.426 152.5C182.057 157.151 179.426 163.5 179.426 163.5C179.426 163.5 180.379 162.45 181.855 160.5C187.725 152.747 201.882 130.768 197.426 104C197.426 104 191.142 111.17 186.426 115C181.718 118.824 173.426 123.5 173.426 123.5C173.426 123.5 180.921 117.576 184.926 113C188.993 108.354 193.926 100 193.926 100C193.926 100 193.629 94.0581 192.426 90.5C191.447 87.6047 188.926 83.5 188.926 83.5C188.926 83.5 185.489 94.1863 180.426 99C177.875 101.426 173.426 104.5 173.426 104.5C173.426 104.5 178.512 98.7726 180.426 95.5C184.051 89.3026 185.926 79.5 185.926 79.5C185.926 79.5 184.464 74.3636 181.926 72.5C180.871 71.7247 177.926 70.5 177.926 70.5C177.926 70.5 175.833 82.1766 170.926 88C166.772 92.9298 157.926 98.5 157.926 98.5C157.926 98.5 165.096 91.9503 168.926 85.5C172.814 78.9521 177.426 65.5 177.426 65.5C177.426 65.5 175.426 49 157.926 33.5C157.926 33.5 147.37 27.1982 140.926 23C134.483 18.8019 124.926 12 124.926 12C124.926 12 123.641 17.8689 124.426 21.5C125.832 28 135.426 34.5 135.426 34.5C135.426 34.5 124.289 28.5639 120.426 21.5C116.381 14.1012 117.426 0 117.426 0C117.426 0 111.648 5.30191 108.426 9.50004C105.205 13.6982 99.9264 21 99.9264 21C99.9264 21 110.711 26.5364 114.426 32C119.07 38.8294 116.426 51.5 116.426 51.5C116.426 51.5 116.236 40.9022 110.926 34C103.999 24.9957 83.4264 16.5 83.4264 16.5C78.1771 16.011 69.9264 17.5 69.9264 17.5C69.9264 17.5 77.5129 23.2208 76.9263 28.5C76.4263 33 67.5108 39.2084 59.4263 45C57.0143 46.7279 54.3434 47.4915 51.9263 48.5C48.9247 49.7523 46.6692 52.0441 43.9263 55C39.4991 59.771 38.3176 63.994 36.7136 69.7266C36.4658 70.6125 36.2078 71.5344 35.9263 72.5C34.3715 77.8318 35.9263 86.5 35.9263 86.5C35.9263 86.5 32.391 78.5636 32.9263 73.5C33.53 67.789 36.9264 59.5 36.9264 59.5C36.9264 59.5 26.8431 68.4336 23.9264 75C23.2228 76.5841 23.0874 77.8665 22.9721 78.9593C22.8225 80.3773 22.7065 81.4759 21.4264 82.5C13.9263 88.5 10.4263 99 11.4264 116.5C12.596 136.967 28.9263 150 28.9263 150C28.9263 150 29.5243 156.328 31.9264 160C34.8026 164.397 41.9264 169 41.9264 169C41.9264 169 34.3777 160.642 35.4263 154C35.8118 151.558 37.1239 150.014 38.4346 148.471C39.7366 146.938 41.0372 145.407 41.4263 143C42.2278 138.041 39.5287 132.729 37.8935 129.511C37.477 128.692 37.1294 128.008 36.9264 127.5C35.7287 124.505 36.2755 121.812 36.8155 119.152C37.3873 116.335 37.9514 113.557 36.4263 110.5C35.4122 108.467 33.9205 107.366 32.4307 106.266C30.931 105.159 29.4331 104.053 28.4263 102C25.8414 96.7288 27.4263 87 27.4263 87C27.4263 87 27.7365 96.4593 29.9263 100.5C32.1629 104.627 38.4263 107 38.4263 107C38.4263 107 40.4232 104.746 40.4263 103C40.4289 101.574 39.3855 100.943 38.2774 100.274C37.3442 99.7097 36.3651 99.1179 35.9263 98C34.9274 95.4553 35.9263 91 35.9263 91C35.9263 91 35.6742 94.5967 37.4263 97C39.7268 100.156 42.4891 102.755 46.9263 104C49.3776 104.688 52.5685 104.961 54.9263 104C56.3707 103.412 57.245 102.597 58.0546 101.843C58.109 101.793 58.1637 101.742 58.2177 101.692C58.2873 101.627 58.3568 101.563 58.4263 101.5C60.9868 99.1728 65.4263 99 65.4263 99C65.4263 99 61.0425 101.252 58.9263 103.5C54.8122 107.87 53.8315 118 53.8315 118C53.6963 120.272 53.7798 122.561 54.4263 124.5C56.9263 132 71.9264 137.5 71.9264 137.5C71.9264 137.5 61.6508 129.491 59.9263 122.5C59.1863 119.5 61.0124 110.838 65.4263 106C68.2518 102.903 72.4263 102 72.4263 102C72.4263 102 59.2156 90.8823 57.9263 81C56.5 70.0677 68.9263 55 68.9263 55C68.9263 55 57.2534 71.9816 60.9263 83C63.4263 90.5 72.9263 104.131 84.9263 104C89.5673 103.949 92.1987 102.916 96.4263 101C106.117 96.6088 110.947 90.8673 114.926 81C117.725 74.0593 117.426 62 117.426 62C117.426 62 119.815 72.9113 117.926 80.5C115.211 91.4083 100.473 104.5 100.473 104.5C101.847 105.719 105.572 108.794 108.926 109.5C113.187 110.397 119.861 109.785 125.926 108.838C125.926 108.838 155.411 99.0573 161.426 83C164.584 74.5708 162.926 60 162.926 60C162.926 60 166.227 74.5216 163.426 83.5C159.554 95.9151 139.926 106 139.926 106C139.926 106 141.933 107.502 143.426 108C146.426 109 168.426 104 168.426 104C168.426 104 170.026 108.459 170.426 112ZM17.4263 106.5C17.4263 106.5 19.093 119.86 23.9264 126.5C27.6784 131.654 36.4263 137 36.4263 137C36.4263 137 28.1281 129.853 24.4263 124C20.5477 117.867 17.4263 106.5 17.4263 106.5Z" fill="black"/>
<path d="M168.426 141.5C168.426 141.5 175.216 146.734 177.426 151.5C179.426 155.81 179.426 163.5 179.426 163.5C179.426 163.5 182.057 157.151 180.426 152.5C178.796 147.849 173.426 142 173.426 142C173.426 142 177.217 141.103 179.426 140C184.739 137.347 189.926 129 189.926 129C189.926 129 183.799 134.886 178.926 137C175.174 138.628 168.754 139.5 168.754 139.5C168.556 140.765 168.426 141.5 168.426 141.5Z" fill="#202020"/>
<path d="M70.4263 161C70.4263 157.686 73.1126 155 76.4263 155C79.74 155 82.4263 157.686 82.4263 161V174C82.4263 177.314 79.74 180 76.4263 180C73.1126 180 70.4263 177.314 70.4263 174V161Z" fill="black"/>
<path d="M130.426 161C130.426 157.686 133.112 155 136.426 155C139.74 155 142.426 157.686 142.426 161V174C142.426 177.314 139.74 180 136.426 180C133.112 180 130.426 177.314 130.426 174V161Z" fill="black"/>
<path d="M66.4263 199.5C66.4263 202.538 59.4867 205 50.9263 205C42.3659 205 35.4263 202.538 35.4263 199.5C35.4263 196.462 42.3659 194 50.9263 194C59.4867 194 66.4263 196.462 66.4263 199.5Z" fill="#F9A9E7"/>
<path d="M179.426 199.5C179.426 202.538 172.487 205 163.926 205C155.366 205 148.426 202.538 148.426 199.5C148.426 196.462 155.366 194 163.926 194C172.487 194 179.426 196.462 179.426 199.5Z" fill="#F9A9E7"/>
<path d="M97.5737 203.763C97.7378 202.942 98.7332 202.525 99.4903 202.881C100.995 203.588 103.54 204.469 106.926 204.5C110.536 204.533 113.486 203.581 115.224 202.842C115.988 202.518 116.926 203.072 116.926 203.903C116.926 204.274 116.734 204.616 116.404 204.784C115.118 205.439 111.568 207 106.926 207C102.506 207 99.359 205.584 98.0718 204.884C97.6711 204.666 97.4843 204.21 97.5737 203.763Z" fill="black"/>
</svg>
