<svg width="214" height="203" viewBox="0 0 214 203" fill="none" xmlns="http://www.w3.org/2000/svg">
<path d="M106.827 20C140.835 20.0001 165.222 34.5402 178.027 54.1631L178.801 55.3691C194.142 79.7005 192.665 102.954 187.617 122.646C188.494 122.163 189.594 121.595 190.821 121.05C193.81 119.72 197.779 118.412 201.096 119.017L201.522 119.1C205.872 120.013 208.919 122.55 210.728 125.972C212.462 129.253 213.038 133.301 212.638 137.457L212.545 138.29C211.882 143.517 210.611 148.409 208.071 152.641C205.599 156.758 201.956 160.199 196.616 162.725L196.093 162.966C192.127 164.761 186.535 165.377 182.042 165.563C179.774 165.658 177.748 165.644 176.288 165.606C175.74 165.592 175.272 165.574 174.9 165.558C174.83 166.601 174.832 167.586 174.914 168.512L174.918 168.574L174.917 168.636C174.862 170.141 174.689 171.522 174.402 172.815L174.271 173.364C173.348 177.019 171.498 179.894 168.972 182.89L168.458 183.491C168.246 183.736 168.029 183.983 167.807 184.231L167.128 184.982C159.274 193.597 145.264 197.809 132.847 199.899C120.368 202 109.214 202 106.827 202C104.422 202 95.3183 201.876 84.1753 199.939C73.3951 198.066 60.6203 194.483 50.1558 187.608L49.1509 186.933C47.7617 185.978 46.5019 184.959 45.3774 183.843L44.9038 183.358C42.564 180.892 40.8901 177.987 39.8823 174.354L39.689 173.618C39.1149 171.287 38.8058 168.674 38.7476 165.711C38.3755 165.722 37.9135 165.733 37.3774 165.737C35.8915 165.749 33.83 165.719 31.5278 165.555C27.111 165.239 21.6465 164.414 17.6929 162.313L17.3149 162.106C6.98978 156.254 1.42627 147.423 1.42627 137.509L1.43994 136.637C1.57948 132.274 2.77388 127.909 5.26318 124.542C7.9464 120.912 12.0896 118.509 17.8081 118.509C22.3657 118.509 26.0345 120.525 28.5288 122.487C28.7349 122.649 28.9327 122.813 29.1235 122.974C26.1971 114.613 23.7067 106.247 23.7153 96.6211C23.7255 85.2831 27.1937 72.2957 37.2407 55.5049L37.8276 54.5527C44.0401 44.7524 54.8419 36.241 67.1079 30.1279C79.7784 23.8134 94.1261 20 106.827 20Z" fill="#FFCEB4" stroke="black" stroke-width="2"/>
<path d="M70.4263 139C70.4263 135.686 73.1126 133 76.4263 133C79.74 133 82.4263 135.686 82.4263 139V152C82.4263 155.314 79.74 158 76.4263 158C73.1126 158 70.4263 155.314 70.4263 152V139Z" fill="black"/>
<path d="M130.426 139C130.426 135.686 133.112 133 136.426 133C139.74 133 142.426 135.686 142.426 139V152C142.426 155.314 139.74 158 136.426 158C133.112 158 130.426 155.314 130.426 152V139Z" fill="black"/>
<path d="M66.4263 177.5C66.4263 180.538 59.4867 183 50.9263 183C42.3659 183 35.4263 180.538 35.4263 177.5C35.4263 174.462 42.3659 172 50.9263 172C59.4867 172 66.4263 174.462 66.4263 177.5Z" fill="#F9A9E7"/>
<path d="M179.426 177.5C179.426 180.538 172.487 183 163.926 183C155.366 183 148.426 180.538 148.426 177.5C148.426 174.462 155.366 172 163.926 172C172.487 172 179.426 174.462 179.426 177.5Z" fill="#F9A9E7"/>
<path d="M97.5737 181.763C97.7378 180.942 98.7332 180.525 99.4903 180.881C100.995 181.588 103.54 182.469 106.926 182.5C110.536 182.533 113.486 181.581 115.224 180.842C115.988 180.518 116.926 181.072 116.926 181.903C116.926 182.274 116.734 182.616 116.404 182.784C115.118 183.439 111.568 185 106.926 185C102.506 185 99.359 183.584 98.0718 182.884C97.6711 182.666 97.4843 182.21 97.5737 181.763Z" fill="black"/>
<path d="M109.426 122.5C115.926 126 132.926 124.5 139.926 119.5C143.977 116.606 145.926 112 145.926 112L148.426 99.5C148.426 99.5 144.487 104.469 140.926 106C132.926 109.44 123.457 106.461 119.926 98.5C118.883 96.1482 119.199 93.3983 119.514 90.655C119.844 87.7728 120.174 84.898 118.926 82.5C116.872 78.5498 111.426 78 111.426 78C111.426 78 115.958 79.5899 116.926 86.5C117.041 87.3157 117.006 88.5049 116.965 89.9141C116.859 93.5272 116.711 98.586 118.926 102.5C123.459 110.509 139.926 109.5 139.926 109.5C139.926 109.5 139.279 116.64 129.926 119.5C126.847 120.442 109.426 122.5 109.426 122.5Z" fill="#202020"/>
<path d="M202.927 43.5C202.927 43.5 195.252 43.8424 190.927 42.5C182.502 39.8854 174.674 32.5055 167.482 25.7244C165.057 23.4387 162.705 21.221 160.426 19.2768C157.83 17.0616 155.33 15.2015 152.927 14C138.927 7 115.927 9 115.927 9C115.927 9 115.841 6.1569 116.427 4.5C117.456 1.58913 122.427 0 122.427 0C122.427 0 111.126 0.484563 104.927 4C100.123 6.72441 94.4268 13 94.4268 13C94.4268 13 88.3784 7.435 83.4268 6.5C79.5464 5.76728 73.9268 7 73.9268 7C73.9268 7 80.6078 6.79877 83.9268 9C86.116 10.452 88.4268 14 88.4268 14C88.4268 14 68.1545 14.9229 54.7281 18.9018C57.9087 18.5185 69.8572 17.1368 77.9264 17C84.3691 16.8907 94.4264 18 94.4264 18C94.4264 18 100.101 9.92334 105.426 7C108.512 5.30612 113.926 4 113.926 4L106.926 18.5C106.926 18.5 116.427 13 132.426 12.5C144.641 12.1183 151.872 18.131 160.417 25.2373C163.065 27.4391 165.839 29.7459 168.926 32C171.433 33.8297 173.35 35.87 175.18 37.8172C178.333 41.1728 181.227 44.2519 186.426 45.5C193.139 47.1113 202.927 43.5 202.927 43.5Z" fill="#202020"/>
<path d="M60.4264 31C60.4264 31 69.5064 27.1994 75.4264 28C82.3628 28.9381 90.9264 37 90.9264 37C90.9264 37 94.4449 31.4826 97.9264 29.5C101.888 27.2443 109.426 27.5 109.426 27.5C109.426 27.5 102.438 24.5463 97.9264 26.5C94.6321 27.9265 90.4264 32.5 90.4264 32.5C90.4264 32.5 82.9221 26.1523 76.9264 25.5C70.1102 24.7584 60.4264 31 60.4264 31Z" fill="#202020"/>
<path d="M41.9268 127L42.9268 129C42.9268 129 47.7007 126.635 50.4264 125C52.9264 123.5 55.8026 121.159 56.9264 119.384C60.8268 113.225 63.4264 101.884 63.4264 101.884C63.4264 101.884 65.962 104.158 67.9268 105C74.9264 108 94.4264 104.5 94.4264 104.5C94.4264 104.5 77.0412 105.827 69.4264 101C63.1574 97.0259 61.0231 93.4722 60.4264 87C59.6454 78.5291 71.9264 68.5 71.9264 68.5C71.9264 68.5 57.0492 79.0807 56.9264 89C56.8612 94.2682 60.9264 101.884 60.9264 101.884C60.9264 101.884 57.0548 113.185 52.4264 118C49.4218 121.126 43.9264 124.5 43.9264 124.5C43.9264 124.5 45.7245 113.495 44.9264 106.5C44.4661 102.466 42.9018 99.4957 41.3684 96.5842C39.637 93.2969 37.9451 90.0844 37.9264 85.5C37.8994 78.8697 41.9268 69 41.9268 69C41.9268 69 36.7535 79.6859 35.9264 87C35.3214 92.35 37.1958 96.189 39.086 100.061C40.8213 103.615 42.5701 107.197 42.4264 112C41.9627 127.5 32.9268 132 32.9268 132C32.9268 132 36.169 131.476 37.9264 130.5C39.6838 129.524 41.9268 127 41.9268 127Z" fill="#202020"/>
<path d="M5.92639 107C6.18681 112.465 11.9267 120.5 11.9267 120.5C11.9267 120.5 16.2327 119.478 19.9264 120C21.6442 120.243 23.6958 120.72 24.9264 121.5C22.8645 119.398 21.2081 115.827 20.4264 112.5C19.4439 108.318 20.4264 99.5 20.4264 99.5C20.4264 99.5 16.6175 105.5 17.4264 108.5C18.0633 110.862 19.9264 118 19.9264 118C19.9264 118 10.7607 113.866 9.42639 108.5C8.54255 104.945 10.7394 102.589 13.0685 100.09C14.9611 98.0602 16.9409 95.9363 17.4264 93C18.0094 89.4739 15.9075 86.6401 13.5117 83.41C12.287 81.7587 10.9854 80.0039 9.92639 78C7.78357 73.9453 5.82213 67 5.82213 67C5.56484 68.2258 5.42676 69.3984 5.42676 70.5C5.42669 84.7223 8.91639 87.6398 10.959 89.3474C12.2197 90.4014 12.9291 90.9945 11.9267 93.5C11.1598 95.417 10.0745 97.3339 9.03696 99.1663C7.36835 102.113 5.82355 104.842 5.92639 107Z" fill="#202020"/>
<path fill-rule="evenodd" clip-rule="evenodd" d="M171.392 119.532C168.683 120.21 164.915 120.903 161.926 120.5C155.085 119.578 145.926 112 145.926 112L148.426 99.5C148.426 99.5 144.487 104.469 140.926 106C132.926 109.44 123.457 106.461 119.926 98.5C118.883 96.1482 119.199 93.3983 119.514 90.655C119.844 87.7728 120.174 84.898 118.926 82.5C116.872 78.5498 111.426 78 111.426 78C111.426 78 115.958 79.5899 116.926 86.5C117.041 87.3157 117.006 88.5049 116.965 89.9141C116.859 93.5272 116.711 98.586 118.926 102.5C123.459 110.509 139.926 109.5 139.926 109.5C139.926 109.5 139.279 116.64 129.926 119.5C126.847 120.442 109.426 122.5 109.426 122.5C102.338 118.683 94.4264 104.5 94.4264 104.5C94.4264 104.5 77.0412 105.827 69.4264 101C63.1574 97.0259 61.0231 93.4722 60.4264 87C59.6454 78.5291 71.9264 68.5 71.9264 68.5C71.9264 68.5 57.0492 79.0807 56.9264 89C56.8612 94.2682 60.9264 101.884 60.9264 101.884C60.9264 101.884 57.0548 113.185 52.4264 118C49.4218 121.126 43.9264 124.5 43.9264 124.5C43.9264 124.5 45.7245 113.495 44.9264 106.5C44.4661 102.466 42.9018 99.4957 41.3684 96.5842C39.637 93.2969 37.9451 90.0844 37.9264 85.5C37.8994 78.8697 41.9268 69 41.9268 69C41.9268 69 36.7535 79.6859 35.9264 87C35.3214 92.35 37.1958 96.189 39.086 100.061C40.8213 103.615 42.5701 107.197 42.4264 112C41.9627 127.5 32.9268 132 32.9268 132C32.9268 132 32.1936 128.642 30.4264 126C29.8726 125.172 29.5033 124.689 28.9264 124C28.9264 124 26.7134 122.5 24.9264 121.5C22.8645 119.398 21.2081 115.827 20.4264 112.5C19.4439 108.318 20.4264 99.5 20.4264 99.5C20.4264 99.5 16.6175 105.5 17.4264 108.5C18.0633 110.862 19.9264 118 19.9264 118C19.9264 118 10.7607 113.866 9.42639 108.5C8.54255 104.945 10.7394 102.589 13.0685 100.09C14.9611 98.0602 16.9409 95.9363 17.4264 93C18.0094 89.4739 15.9075 86.6401 13.5117 83.41C12.287 81.7587 10.9854 80.0039 9.92639 78C7.78357 73.9453 5.82213 67 5.82213 67C7.5502 58.7669 14.656 48.1328 21.4268 40.5C30.8431 29.8847 37.3792 25.2732 51.4268 20C52.4648 19.6103 53.571 19.2447 54.7281 18.9018C57.9087 18.5185 69.8572 17.1368 77.9264 17C84.3691 16.8907 94.4264 18 94.4264 18C94.4264 18 100.101 9.92334 105.426 7C108.512 5.30612 113.926 4 113.926 4L106.926 18.5C106.926 18.5 116.427 13 132.426 12.5C144.641 12.1183 151.872 18.131 160.417 25.2373C163.065 27.4391 165.839 29.7459 168.926 32C171.433 33.8297 173.35 35.87 175.18 37.8172C178.333 41.1728 181.227 44.2519 186.426 45.5C193.139 47.1113 202.927 43.5 202.927 43.5C202.927 43.5 200.172 48.5355 197.927 50C195.681 51.4645 191.927 52.5 191.927 52.5C191.927 52.5 202.427 58 203.927 70C204.795 76.9428 202.22 83.7576 200.266 88.9309C199.44 91.1192 198.724 93.0137 198.427 94.5C197.783 97.717 200.696 99.926 203.185 101.814C204.907 103.121 206.427 104.273 206.427 105.5C206.427 108.539 202.06 112.159 197.929 115.583C197.761 115.723 197.594 115.862 197.427 116C195.537 117.569 193.825 118.566 192.135 119.551C190.276 120.634 188.442 121.702 186.427 123.5C181.012 128.33 177.426 142.5 177.426 142.5C177.426 142.5 179.055 132.876 178.426 127C177.973 122.76 176.426 117 176.426 117C176.426 117 177.656 117.128 178.426 117C181.15 116.546 183.426 112 183.426 112C183.426 112 181.411 113.587 179.926 113.5C178.619 113.423 176.926 112 176.926 112C176.926 112 178.725 93.6106 173.926 83.5C168.232 71.5019 148.426 61 148.426 61C148.426 61 165.579 73.5894 170.426 85.5C175.434 97.8037 171.426 119.5 171.426 119.5L171.392 119.532ZM60.4264 31C60.4264 31 69.5064 27.1994 75.4264 28C82.3628 28.9381 90.9264 37 90.9264 37C90.9264 37 94.4449 31.4826 97.9264 29.5C101.888 27.2443 109.426 27.5 109.426 27.5C109.426 27.5 102.438 24.5463 97.9264 26.5C94.6321 27.9265 90.4264 32.5 90.4264 32.5C90.4264 32.5 82.9221 26.1523 76.9264 25.5C70.1102 24.7584 60.4264 31 60.4264 31Z" fill="black"/>
<path d="M174.927 118.5L177.426 142.5C177.426 142.5 179.055 132.876 178.426 127C177.973 122.76 176.426 117 176.426 117C176.426 117 177.656 117.128 178.426 117C181.15 116.546 183.426 112 183.426 112C183.426 112 181.411 113.587 179.926 113.5C178.619 113.423 176.926 112 176.926 112C176.926 112 178.725 93.6106 173.926 83.5C168.232 71.5019 148.426 61 148.426 61C148.426 61 165.579 73.5894 170.426 85.5C175.434 97.8037 171.426 119.5 171.426 119.5L171.392 119.532C173.471 119.011 174.927 118.5 174.927 118.5Z" fill="#292929"/>
</svg>
