<svg width="241" height="208" viewBox="0 0 241 208" fill="none" xmlns="http://www.w3.org/2000/svg">
<path d="M128.827 25.0002C162.835 25.0004 187.222 39.5404 200.027 59.1633L200.801 60.3694C216.142 84.7008 214.665 107.955 209.617 127.647C210.494 127.164 211.594 126.596 212.821 126.05C215.81 124.72 219.779 123.412 223.096 124.017L223.522 124.1C227.872 125.014 230.919 127.55 232.728 130.972C234.462 134.253 235.038 138.301 234.638 142.457L234.545 143.29C233.882 148.518 232.611 153.409 230.071 157.641C227.599 161.758 223.956 165.199 218.616 167.725L218.093 167.966C214.127 169.761 208.535 170.377 204.042 170.564C201.774 170.658 199.748 170.644 198.288 170.607C197.74 170.593 197.272 170.574 196.9 170.558C196.83 171.601 196.832 172.586 196.914 173.512L196.918 173.574L196.917 173.636C196.675 180.314 194.106 184.381 189.975 189.042L189.128 189.983C181.274 198.598 167.264 202.81 154.847 204.9C142.368 207 131.214 207 128.827 207C126.422 207 117.318 206.876 106.175 204.94C95.3951 203.067 82.6203 199.484 72.1558 192.609L71.1509 191.933C67.7183 189.573 65.0898 186.832 63.3335 183.226C61.6927 179.857 60.8457 175.8 60.7456 170.711C60.3739 170.722 59.9126 170.733 59.3774 170.738C57.8915 170.749 55.83 170.72 53.5278 170.555C49.111 170.239 43.6465 169.415 39.6929 167.314L39.3149 167.107C28.9898 161.255 23.4263 152.424 23.4263 142.509L23.4399 141.637C23.5795 137.274 24.7739 132.91 27.2632 129.542C29.9464 125.913 34.0896 123.509 39.8081 123.509C44.3657 123.509 48.0345 125.525 50.5288 127.488C50.7349 127.65 50.9327 127.813 51.1235 127.974C48.1971 119.613 45.7067 111.247 45.7153 101.621C45.7255 90.2833 49.1937 77.296 59.2407 60.5051L59.8276 59.553C66.0401 49.7527 76.8419 41.2412 89.1079 35.1282C101.778 28.8136 116.126 25.0002 128.827 25.0002Z" fill="#FFCEB4" stroke="black" stroke-width="2"/>
<path d="M177.426 83C177.426 83 175.412 96.4613 180.426 102.5C185.16 108.2 197.426 109 197.426 109C197.426 109 186.649 105.744 182.426 100.5C177.969 94.9637 177.426 83 177.426 83Z" fill="#292929"/>
<path d="M54.9263 69C54.9263 69 52.8838 69.2201 51.9263 70C49.2477 72.1815 55.1099 75.0328 58.4263 76C63.8914 77.5939 69.5456 74.0229 70.9263 68.5C71.0117 68.1581 70.8526 67.2634 70.6242 65.9794C69.5164 59.7517 66.7799 44.3674 82.4263 38.5C98.4263 32.5 114.426 44 114.426 44C114.426 44 94.4263 35.5 83.4263 41C72.5366 46.4448 72.4768 55.854 72.4264 63.7727C72.3821 70.746 72.3451 76.5635 64.9263 77.5C64.5749 77.5444 64.2218 77.5912 63.8681 77.6388L63.3851 77.7041C58.1544 78.4129 52.8596 79.1304 50.4263 74.5C49.0607 71.9014 49.7801 70 50.4263 69.5C52.1529 68.164 54.9263 69 54.9263 69Z" fill="#292929"/>
<path fill-rule="evenodd" clip-rule="evenodd" d="M58.7026 114C60.9381 115.711 64.4269 116.5 64.4269 116.5C64.4269 116.5 66.2196 122.592 63.9263 125C62.7218 126.265 59.9263 127 59.9263 127C59.9263 127 40.9819 124.145 39.4263 115C38.0726 107.042 42.3668 97.0477 50.4263 97.5C54.4406 97.7253 58.0875 98.7087 59.4263 102.5C60.1406 104.523 58.1659 106.263 56.3555 107.858C54.4815 109.509 52.7835 111.006 54.4263 112.5C55.7354 113.691 58.7026 114 58.7026 114ZM24.9269 75.5002C24.9269 75.5002 23.9351 77.026 22.4284 79.0942C23.9505 76.8853 24.9269 75.5002 24.9269 75.5002Z" fill="black"/>
<path d="M181.427 130C198.427 134 208.927 125 208.927 125C208.927 125 219.052 113.84 216.426 106.5C214.564 101.293 211.164 95.2262 205.926 97C202.335 98.2161 198.705 101.622 200.426 105C200.895 105.92 201.8 106.187 202.69 106.45C203.621 106.724 204.537 106.994 204.926 108C205.843 110.367 202.426 114 202.426 114C202.426 114 208.36 110.563 207.426 107.5C207.138 106.556 206.185 106.186 205.28 105.836C204.282 105.449 203.344 105.086 203.426 104C203.573 102.053 205.532 100.526 207.426 101C209.426 101.5 211.874 105.024 212.926 108.5C215.541 117.139 206.362 122.198 198.426 126.5C192.468 129.731 181.427 130 181.427 130Z" fill="#292929"/>
<path d="M12.4263 140C11.1026 141.953 6.92627 142 6.92627 142C6.92627 142 10.5392 142.733 13.4263 141.5C17.5618 139.734 19.206 137.457 19.4171 132.227L19.4263 132C19.6741 125.883 15.4116 124.598 11.4263 120.5C8.85102 117.852 6.92627 113 4.92627 109C1.43342 102.014 16.8078 87.2505 22.4284 79.0942C20.0777 82.3207 16.4736 86.8674 13.4266 89.0002C12.8948 89.3725 12.3574 89.7403 11.8191 90.1087C7.29653 93.2036 2.71547 96.3386 0.926529 102.5C-1.93061 112.341 4.03832 118.957 9.06049 124.524C11.9487 127.725 14.5237 130.579 14.9269 133.5C15.2518 135.854 14.0111 137.674 12.6766 139.632C12.5934 139.754 12.5098 139.877 12.4263 140Z" fill="#292929"/>
<path fill-rule="evenodd" clip-rule="evenodd" d="M208.927 125L204.926 132C204.926 132 216.514 123.35 223.926 126C227.458 127.263 230.427 129 230.427 129C230.427 129 240.427 120.831 240.427 114C240.427 104.5 231.427 101 231.427 101C231.427 101 243.427 80.5 235.927 63C227.355 43 202.427 36 202.427 36C202.427 36 203.3 27.6125 200.927 24C194.088 13.5898 166.927 19 166.927 19C166.927 19 163.927 2.49997 146.927 2.49997C142.053 2.49997 140.684 5.57908 139.429 8.40252C138.366 10.7929 137.384 12.9999 134.427 13.0002C133.896 13.0002 132.744 12.2728 131 11.1713C124.069 6.79368 107.783 -3.49228 83.927 2.50006C62.017 8.00364 58.5977 17.0125 54.7399 27.1767C54.636 27.4504 54.5318 27.7249 54.4269 28.0003C53.5704 30.2487 50.0558 30.8821 45.5747 31.6898C38.0975 33.0375 27.9291 34.8702 22.9269 45.5C14.9269 62.5003 24.9269 75.5002 24.9269 75.5002C24.9269 75.5002 23.9351 77.026 22.4284 79.0942C16.8078 87.2505 1.43342 102.014 4.92627 109C6.92627 113 8.85102 117.852 11.4263 120.5C15.4116 124.598 19.6741 125.883 19.4263 132L19.4171 132.227C19.206 137.457 17.5618 139.734 13.4263 141.5C10.5392 142.733 6.92627 142 6.92627 142C6.92627 142 12.0464 147.742 16.4269 148C19.941 148.207 24.4263 145 24.4263 145C24.4263 145 24.1501 137.836 26.4263 133.5C28.7508 129.072 31.1107 126.35 35.9263 125C38.3387 124.324 40.3942 124.469 42.4263 125C42.4263 125 36.0474 116.397 36.4263 110.5C36.9663 102.094 43.0727 93.9171 51.4263 95C56.9306 95.7136 62.8113 98.463 62.4263 104C62.3052 105.741 60.8714 106.717 59.4908 107.657C57.9979 108.673 56.5673 109.647 56.9263 111.5C57.1173 112.486 57.8101 113.317 58.7026 114C60.9381 115.711 64.4269 116.5 64.4269 116.5L64.9263 114L68.4263 115V117.5C68.4263 117.5 72.808 117.81 75.4263 117C79.4185 115.765 83.9263 110.5 83.9263 110.5C83.9263 110.5 83.866 102.817 86.4263 99C88.8414 95.3995 91.1104 92.0881 95.4263 92.5C99.4146 92.8806 103.731 95.5752 102.926 99.5C102.454 101.803 99.0657 101.653 98.9263 104C98.739 107.152 102.592 107.549 105.897 107.89C106.248 107.926 106.593 107.962 106.926 108C113.954 108.805 117.132 102.499 120.335 96.1431L120.336 96.1418C120.697 95.4251 121.059 94.7078 121.426 94C124.461 88.1537 124.926 77.5 124.926 77.5C124.926 77.5 125.416 90.5206 121.926 97.5C118.437 104.479 114.186 112.321 106.426 111.5L106.324 111.489C101.478 110.977 95.6064 110.356 95.4263 105.5C95.3749 104.116 96.355 103.203 97.3036 102.321C98.3292 101.366 99.318 100.446 98.9263 99C98.4554 97.2624 97.4665 96.432 95.9263 95.5C91.07 92.5616 87.4035 100.909 86.4263 106.5C85.2377 113.3 88.9323 118.575 94.9263 122C98.4263 124 111.154 127.899 119.926 124C128.926 120 147.644 101.763 152.926 83C154.896 76.0051 154.927 64.5 154.927 64.5C154.927 64.5 155.545 77.4942 156.426 85.5C157.243 92.92 159.277 104 159.277 104C163.271 114.603 170.288 127.379 181.427 130C181.427 130 192.468 129.731 198.426 126.5C206.362 122.198 215.541 117.139 212.926 108.5C211.874 105.024 209.426 101.5 207.426 101C205.532 100.526 203.573 102.053 203.426 104C203.344 105.086 204.282 105.449 205.28 105.836C206.185 106.186 207.138 106.556 207.426 107.5C208.36 110.563 202.426 114 202.426 114C202.426 114 205.843 110.367 204.926 108C204.537 106.994 203.621 106.724 202.69 106.45C201.8 106.187 200.895 105.92 200.426 105C198.705 101.622 202.335 98.2161 205.926 97C211.164 95.2262 214.564 101.293 216.426 106.5C219.052 113.84 208.927 125 208.927 125ZM180.426 102.5C175.412 96.4613 177.426 83 177.426 83C177.426 83 177.969 94.9637 182.426 100.5C186.649 105.744 197.426 109 197.426 109C197.426 109 185.16 108.2 180.426 102.5ZM193.426 72C191.007 67.911 191.426 60 191.426 60C191.426 60 192.912 67.9579 196.426 71.5C199.684 74.7838 204.849 74.2629 209.761 73.7674C215.416 73.1972 220.735 72.6606 222.426 78C224.371 84.1402 218.426 94 218.426 94C218.426 94 222.896 82.6632 219.426 77C217.918 74.5391 213.55 74.962 208.738 75.4278C202.794 76.0031 196.174 76.644 193.426 72ZM183.426 55.5C184.52 58.3538 186.426 60.5 186.426 60.5C186.426 60.5 183.875 60.1514 181.926 58C179.454 55.2712 180.229 50.9681 180.983 46.7717C182.001 41.113 182.984 35.6484 175.926 34.5C164.926 32.7103 153.926 45 153.926 45C153.926 45 148.583 36.9645 142.426 36.5C134.365 35.8918 125.926 49 125.926 49C125.926 49 132.727 33.0126 141.426 33C147.192 32.9916 154.426 40 154.426 40C154.426 40 173.904 26.5665 181.426 33.5C184.686 36.5042 184.016 41.1402 183.343 45.7978C182.846 49.2359 182.347 52.6858 183.426 55.5ZM51.9263 70C52.8838 69.2201 54.9263 69 54.9263 69C54.9263 69 52.1529 68.164 50.4263 69.5C49.7801 70 49.0607 71.9014 50.4263 74.5C52.8596 79.1304 58.1544 78.4129 63.3851 77.7041L63.8681 77.6388C64.2218 77.5912 64.5749 77.5444 64.9263 77.5C72.3451 76.5635 72.3821 70.746 72.4264 63.7727C72.4768 55.854 72.5366 46.4448 83.4263 41C94.4263 35.5 114.426 44 114.426 44C114.426 44 98.4263 32.5 82.4263 38.5C66.7799 44.3674 69.5164 59.7517 70.6242 65.9794C70.8526 67.2634 71.0117 68.1581 70.9263 68.5C69.5456 74.0229 63.8914 77.5939 58.4263 76C55.1099 75.0328 49.2477 72.1815 51.9263 70Z" fill="black"/>
<path d="M186.426 60.5C186.426 60.5 184.52 58.3538 183.426 55.5C182.347 52.6858 182.846 49.2359 183.343 45.7978C184.016 41.1402 184.686 36.5042 181.426 33.5C173.904 26.5665 154.426 40 154.426 40C154.426 40 147.192 32.9916 141.426 33C132.727 33.0126 125.926 49 125.926 49C125.926 49 134.365 35.8918 142.426 36.5C148.583 36.9645 153.926 45 153.926 45C153.926 45 164.926 32.7103 175.926 34.5C182.984 35.6484 182.001 41.113 180.983 46.7717C180.229 50.9681 179.454 55.2712 181.926 58C183.875 60.1514 186.426 60.5 186.426 60.5Z" fill="#292929"/>
<path d="M191.426 60C191.426 60 191.007 67.911 193.426 72C196.174 76.644 202.794 76.0031 208.738 75.4278C213.55 74.962 217.918 74.5391 219.426 77C222.896 82.6632 218.426 94 218.426 94C218.426 94 224.371 84.1402 222.426 78C220.735 72.6606 215.416 73.1972 209.761 73.7674C204.849 74.2629 199.684 74.7838 196.426 71.5C192.912 67.9579 191.426 60 191.426 60Z" fill="#292929"/>
<path d="M46.9263 126.5C50.2161 128.259 53.9269 132.5 53.9269 132.5L55.4269 131.5C55.4269 131.5 63.2682 132.566 64.4269 131.5C65.5857 130.434 64.9263 128.5 64.9263 128.5C64.9263 128.5 70.713 130.997 74.4263 132C78.5905 133.125 81.2886 133.697 85.4263 133.5L74.9263 129.807C72.7219 129.527 70.8164 128.715 69.4263 126.5C68.5069 125.035 68.2476 122.85 68.2227 121C68.1966 119.067 68.4263 117.5 68.4263 117.5V115L64.9263 114L64.4269 116.5C64.4269 116.5 66.2196 122.592 63.9263 125C62.7218 126.265 59.9263 127 59.9263 127C59.9263 127 40.9819 124.145 39.4263 115C38.0726 107.042 42.3668 97.0477 50.4263 97.5C54.4406 97.7253 58.0875 98.7087 59.4263 102.5C60.1406 104.523 58.1659 106.263 56.3555 107.858C54.4815 109.509 52.7835 111.006 54.4263 112.5C55.7354 113.691 58.7026 114 58.7026 114C57.8101 113.317 57.1173 112.486 56.9263 111.5C56.5673 109.647 57.9979 108.673 59.4908 107.657C60.8714 106.717 62.3052 105.741 62.4263 104C62.8113 98.463 56.9306 95.7136 51.4263 95C43.0727 93.9171 36.9663 102.094 36.4263 110.5C36.0474 116.397 42.4263 125 42.4263 125C44.0505 125.424 45.1602 125.556 46.9263 126.5Z" fill="#292929"/>
<path d="M132.927 117.5C143.63 108.743 154.927 89 154.927 89C154.927 89 156.211 95.8596 159.277 104C159.277 104 157.243 92.92 156.426 85.5C155.545 77.4942 154.927 64.5 154.927 64.5C154.927 64.5 154.896 76.0051 152.926 83C147.644 101.763 128.926 120 119.926 124C111.154 127.899 98.4263 124 94.9263 122C88.9323 118.575 85.2377 113.3 86.4263 106.5C87.4035 100.909 91.07 92.5616 95.9263 95.5C97.4665 96.432 98.4554 97.2624 98.9263 99C99.318 100.446 98.3292 101.366 97.3036 102.321C96.355 103.203 95.3749 104.116 95.4263 105.5C95.6064 110.356 101.478 110.977 106.324 111.489L106.426 111.5C114.186 112.321 118.437 104.479 121.926 97.5C125.416 90.5206 124.926 77.5 124.926 77.5C124.926 77.5 124.461 88.1537 121.426 94C121.059 94.7078 120.697 95.4251 120.336 96.1418L120.335 96.1431C117.132 102.499 113.954 108.805 106.926 108C106.593 107.962 106.248 107.926 105.897 107.89C102.592 107.549 98.739 107.152 98.9263 104C99.0657 101.653 102.454 101.803 102.926 99.5C103.731 95.5752 99.4146 92.8806 95.4263 92.5C91.1104 92.0881 88.8414 95.3995 86.4263 99C83.866 102.817 83.9263 110.5 83.9263 110.5C83.9263 110.5 79.4185 115.765 75.4263 117C72.808 117.81 68.4263 117.5 68.4263 117.5C68.4263 117.5 68.1966 119.067 68.2227 121C68.2227 121 73.7361 121.236 76.9263 120C80.0587 118.786 83.9263 115 83.9263 115C83.9263 115 86.9565 121.171 90.4263 123.5C92.534 124.915 96.4263 126 96.4263 126L102.426 127.5C102.426 127.5 112.103 128.164 117.926 126.5C124.926 124.5 127.426 122 132.927 117.5Z" fill="#292929"/>
<path d="M85.4263 133.5C95.9263 133 102.426 127.5 102.426 127.5L96.4263 126C96.4263 126 92.534 124.915 90.4263 123.5C86.9565 121.171 83.9263 115 83.9263 115C83.9263 115 80.0587 118.786 76.9263 120C73.7361 121.236 68.2227 121 68.2227 121C68.2476 122.85 68.5069 125.035 69.4263 126.5C70.8164 128.715 72.7219 129.527 74.9263 129.807L85.4263 133.5Z" fill="black"/>
<path d="M92.4263 144C92.4263 140.686 95.1126 138 98.4263 138C101.74 138 104.426 140.686 104.426 144V157C104.426 160.314 101.74 163 98.4263 163C95.1126 163 92.4263 160.314 92.4263 157V144Z" fill="black"/>
<path d="M152.426 144C152.426 140.686 155.112 138 158.426 138C161.74 138 164.426 140.686 164.426 144V157C164.426 160.314 161.74 163 158.426 163C155.112 163 152.426 160.314 152.426 157V144Z" fill="black"/>
<path d="M88.4263 182.5C88.4263 185.538 81.4867 188 72.9263 188C64.3659 188 57.4263 185.538 57.4263 182.5C57.4263 179.462 64.3659 177 72.9263 177C81.4867 177 88.4263 179.462 88.4263 182.5Z" fill="#F9A9E7"/>
<path d="M201.426 182.5C201.426 185.538 194.487 188 185.926 188C177.366 188 170.426 185.538 170.426 182.5C170.426 179.462 177.366 177 185.926 177C194.487 177 201.426 179.462 201.426 182.5Z" fill="#F9A9E7"/>
<path d="M119.574 186.763C119.738 185.942 120.733 185.525 121.49 185.881C122.995 186.588 125.54 187.469 128.926 187.5C132.536 187.533 135.486 186.581 137.224 185.842C137.988 185.518 138.926 186.072 138.926 186.903C138.926 187.274 138.734 187.616 138.404 187.784C137.118 188.439 133.568 190 128.926 190C124.506 190 121.359 188.584 120.072 187.884C119.671 187.666 119.484 187.21 119.574 186.763Z" fill="black"/>
</svg>
