<svg width="246" height="186" viewBox="0 0 246 186" fill="none" xmlns="http://www.w3.org/2000/svg">
<path d="M52.5128 8.0037C58.5128 5.0037 68.0128 13.0037 68.0128 13.0037C68.0128 13.0037 101.524 5.60004 123.513 5.50373C146.08 5.40489 179.013 14.5037 179.013 14.5037C179.013 14.5037 189.068 4.5037 197.013 10.0037C210.013 19.0037 237.013 48.0037 240.513 53.0037C242.494 55.8337 237.513 58.5037 235.513 61.0037C232.069 65.3084 230.013 72.837 231.513 72.0037C233.013 71.1703 232.213 73.0037 233.013 73.0037C233.813 73.0037 226.513 86.0037 219.513 90.5037C216.751 92.2792 215.001 90.0849 213.894 86.7771C215.321 97.6626 216.765 112.274 215.013 117.004C210.013 130.504 195.013 144.504 188.513 152.004C182.013 159.504 164.013 169.504 159.513 167.504C158.552 167.077 160.453 165.474 159.513 165.004C157.513 164.004 145.013 180.504 124.013 181.004C109.082 181.359 94.0127 171.504 88.5127 165.504C88.1395 165.097 86.5127 163.504 86.0127 166.504C85.5127 169.504 45.5127 157.504 29.5127 117.504C24.4408 104.824 38.5127 59.0037 38.5127 59.0037C38.5127 59.0037 28.0128 86.5037 25.5128 86.5037C21.0128 86.5037 12.5127 71.5037 12.5127 71.5037C12.5127 71.5037 14.0165 71.7654 16.0127 72.0037C18.0089 72.2419 14.7211 66.086 12.5128 62.0037C10.3739 58.0499 4.51932 56.244 7.01282 52.5037C10.0128 48.0037 42.5128 13.0037 52.5128 8.0037Z" fill="#FAD314"/>
<path d="M190.013 15.5036C186.597 16.6422 183.513 18.5038 183.513 18.5038L191.013 21.5038L207.013 47.0038L224.513 70.0038L236.013 65.0038L233.013 60.0038L234.513 57.5036C234.513 57.5036 233.341 52.3904 231.513 50.5038C224.934 43.7146 219.567 41.7973 212.513 35.5038C203.238 27.2292 194.513 14.0035 190.013 15.5036Z" fill="#E8C23A"/>
<path d="M55.5127 16.5038C58.7859 16.5038 62.5127 17.5038 62.5127 17.5038L59.0127 19.0038L35.0127 48.5038L20.0127 68.5038L16.5127 63.5038L13.0127 55.5038C13.0127 55.5038 13.9 50.8348 16.0127 49.0038C23.5127 42.5038 28.5127 43.0038 35.5127 33.0038C41.3805 24.6212 50.5127 16.5038 55.5127 16.5038Z" fill="#E8C23A"/>
<path d="M172.513 35.5035C170.242 36.2021 166.016 37.3268 166.513 35.0038C166.915 33.1231 169.099 32.81 171.013 33.0038C172.579 33.1624 174.794 33.6369 174.013 35.0038C173.579 35.762 173.347 35.2467 172.513 35.5035Z" fill="#E8C23A"/>
<path d="M74.0127 35.0038C72.8282 34.9166 71.0127 35.5038 71.0127 35.5038C71.0127 35.5038 72.8584 33.2948 74.5127 33.0038C76.3371 32.6828 79.1877 32.7785 78.5127 34.5035C78.1569 35.4127 77.965 35.7887 77.0127 36.0038C75.8081 36.2758 75.2443 35.0944 74.0127 35.0038Z" fill="#E8C23A"/>
<path d="M33.0127 96.0035C33.8936 88.9318 38.5127 76.0035 38.5127 76.0035L34.5127 78.5035L28.5127 104.004V114.504C28.5127 114.504 31.0964 115.019 32.0127 114.504C33.5127 113.659 32.1407 103.003 33.0127 96.0035Z" fill="#E8C23A"/>
<path d="M208.013 84.5035C207.822 81.1896 207.513 76.0035 207.513 76.0035L212.013 86.0035L215.513 105.504L213.513 116.004C213.513 116.004 211.373 115.584 211.013 114.504C210.513 113.004 211.005 107.06 210.513 102.004C209.86 95.2937 208.401 91.2339 208.013 84.5035Z" fill="#E8C23A"/>
<path d="M76.5127 67.5032C80.7186 70.5032 86.0127 79.0032 86.0127 79.0032L66.0127 108.003L55.5127 121.003C55.5127 121.003 42.5249 115.223 38.0127 108.003C35.5127 104.003 39.0127 87.5033 40.5127 87.5033C41.5083 87.5033 42.3554 88.9863 42.5127 88.0032C44.5127 75.5032 51.5127 68.0034 59.0127 64.5033C64.108 62.1254 70.8053 63.4323 76.5127 67.5032Z" fill="#D2AD28"/>
<path d="M204.513 108.003C200.831 116.281 187.013 122.503 187.013 122.503L174.513 100.003L157.513 79.5033C157.513 79.5033 159.897 72.694 163.513 69.5033C172.013 62.0033 179.513 61.1417 187.013 63.5032C197.013 66.6518 201.192 75.889 204.513 87.0032C206.919 95.0568 206.514 103.503 204.513 108.003Z" fill="#D2AD28"/>
<path d="M191.513 16.0032C188.183 16.2106 183.513 18.5033 183.513 18.5033C183.513 18.5033 188.681 22.0744 191.513 25.0033C194.344 27.9322 198.513 34.0033 198.513 34.0033L200.013 47.0032C200.013 47.0032 201.013 56.0034 199.013 57.0033C197.013 58.0032 194.871 50.8296 191.513 47.5032C187.545 43.5731 177.013 37.5033 177.013 37.5033C177.013 37.5033 178.504 39.9849 179.013 41.0033C179.513 42.0034 183.519 45.7542 186.513 49.0032C195.619 58.8847 202.394 73.9146 206.513 77.0033C208.513 78.5033 210.513 86.5033 210.513 86.5033V87.0032L222.013 90.0032L235.013 74.0032C235.013 74.0032 236.139 67.4459 235.013 63.5032C234.013 60.0033 236.013 55.0032 236.013 55.0032C236.013 55.0032 233.9 56.442 232.513 57.5033C229.8 59.5789 228.013 65.0032 228.013 65.0032C228.013 65.0032 219.777 57.14 216.013 51.5032C211.157 44.2321 211.961 38.2117 207.013 31.0032C202.168 23.9454 193.013 15.9098 191.513 16.0032Z" fill="#D2AD28"/>
<path d="M56.5127 52.0033L33.5127 84.5033L24.5127 87.5033L14.0127 75.5033L11.5127 61.5033C11.5127 61.5033 11.6332 59.6687 11.5127 58.5034C11.347 56.9017 10.5127 54.5033 10.5127 54.5033C10.5127 54.5033 12.7739 55.5318 14.0127 56.5033C16.9118 58.7768 19.0127 64.5033 19.0127 64.5033C19.0127 64.5033 27.4307 55.4427 31.5127 48.5034C36.5127 40.0035 37.0127 34.5034 45.0127 25.0034C48.6848 20.6428 53.0127 16.0033 55.0127 16.0033C58.1001 16.0033 65.0814 16.7906 62.5127 18.5033C61.0127 19.5034 57.8947 22.9441 55.0127 27.0033C50.5123 33.3419 46.5127 43.0033 45.5127 46.0033C44.1641 50.049 43.9669 58.3519 48.0127 57.0033C49.5127 56.5033 49.2738 50.4533 52.0127 47.5033C54.4516 44.8764 60.0127 43.0033 60.0127 43.0033L64.5127 39.0033L62.5127 45.5033L56.5127 52.0033Z" fill="#D2AD28"/>
<path d="M54.5127 132.002C54.5127 126.502 58.3233 127.718 60.0127 124.502C76.5636 93.0021 80.5128 73.0019 122.513 71.0021C157.601 69.3315 176.014 99.0017 182.013 120.502C183.513 125.878 191.013 125.502 190.513 130.502C189.963 136.001 186.829 136.485 184.513 141.502C181.513 148.002 177.013 152.627 164.513 152.002C154.513 151.502 145.506 126.652 122.513 125.502C99.5198 124.353 95.5128 152.784 76.5128 152.002C68.9848 151.693 67.0128 148.002 61.5128 140.221C59.1893 136.934 54.5127 136.028 54.5127 132.002Z" fill="#F8E386" stroke="#F8E386"/>
<path fill-rule="evenodd" clip-rule="evenodd" d="M77.5127 155.003C70.2254 154.126 63.5695 149.339 61.0127 145.503C60.0127 144.003 59.1792 155.503 60.5127 156.503C63.0379 158.397 71.3414 161.885 77.7505 164.577C81.4939 166.149 84.591 167.45 85.5128 168.003C86.1611 168.393 86.1999 167.982 86.2405 167.553C86.2818 167.116 86.3249 166.66 87.0127 167.003C87.3904 167.192 88.0721 167.753 88.9559 168.479C90.4117 169.676 92.4159 171.324 94.5127 172.503C102.513 177.003 118.013 181.504 123.013 181.504C130.513 181.504 141.929 177.003 149.013 172.503C150.549 171.527 152.089 170.189 153.458 168.999C155.645 167.099 157.398 165.575 158.013 166.503C158.375 167.051 158.018 167.682 157.782 168.099C157.573 168.467 157.459 168.67 158.013 168.503C168.013 165.503 182.513 159.254 186.013 154.003C187.67 151.518 186.137 143.737 185.013 146.504C184.785 147.065 184.7 147.057 184.585 147.045C184.475 147.033 184.335 147.019 184.013 147.503C182.013 150.503 171.181 156.043 162.513 154.003C156.162 152.509 149.254 145.991 143.872 140.914C142.05 139.195 140.404 137.641 139.013 136.503C138.196 135.835 137.611 136.655 136.815 137.77C135.825 139.159 134.508 141.004 132.013 141.004C129.969 141.004 128.718 140.266 127.455 139.522C126.23 138.8 124.994 138.072 123.013 138.004C120.925 137.932 119.425 138.775 117.96 139.599C116.349 140.506 114.779 141.389 112.513 141.003C110.852 140.721 109.718 139.679 108.619 138.668C107.421 137.567 106.265 136.503 104.513 136.503C103.352 136.503 101.405 138.708 98.8523 141.599C93.7074 147.425 86.1017 156.037 77.5127 155.003Z" fill="#F8E386"/>
<path d="M192.513 106.504C189.58 109.499 182.513 111.504 182.513 111.504L180.013 107.504L192.013 101.003L195.013 81.0035C195.013 81.0035 198.122 89.1766 197.513 94.5035C196.936 99.5474 196.065 102.876 192.513 106.504Z" fill="white"/>
<path d="M177.513 93.5029C177.513 91.7027 178.719 90.1593 180.513 90.0029C182.581 89.8226 183.809 91.9485 183.513 94.0029C183.256 95.7847 182.308 97.141 180.513 97.0029C178.718 96.8648 177.513 95.3031 177.513 93.5029Z" fill="white"/>
<path d="M171.513 74.003C171.513 70.5035 175.513 66.2973 178.513 67.0031C181.013 67.5913 182.674 71.7086 181.513 75.003C180.731 77.2205 179.833 78.1246 177.513 78.5029C174.352 79.0182 171.513 77.2055 171.513 74.003Z" fill="white"/>
<path d="M60.5129 111.004L63.0129 108.003L49.5129 96.5029L47.5128 85.5035C47.5128 85.5035 45.8612 93.0042 46.5128 96.5035C47.2968 100.714 48.1293 102.837 51.0129 106.004C54.0139 109.299 60.5129 111.004 60.5129 111.004Z" fill="white"/>
<path d="M63.5129 95.0035C63.5322 93.8991 63.9084 93.0186 65.0129 93.0035C66.263 92.9864 66.7995 93.7865 66.5129 95.0035C66.2519 96.1118 65.6124 96.799 64.5129 96.5035C63.57 96.2502 63.4957 95.9797 63.5129 95.0035Z" fill="white"/>
<path d="M63.0129 68.5035C59.8111 68.5752 57.8845 70.1096 56.5129 73.0035C55.1412 75.8975 64.0609 88.0651 68.5129 84.5035C71.0129 82.5035 70.8625 79.4633 70.0129 76.0029C69.0229 71.9713 65.7815 68.4415 63.0129 68.5035Z" fill="white"/>
<path d="M64.5127 111.503C64.5127 111.503 66.8628 117.45 66.0127 121.503C65.3836 124.503 59.0127 132.003 59.0127 132.003C59.0127 132.003 65.9814 145.442 74.0127 146.003C82.8213 146.619 86.9734 139.445 93.0127 133.003C100.513 125.003 115.013 114.003 115.013 114.003C115.013 114.003 111.513 104.755 109.013 102.503C107.347 101.003 98.0127 99.4209 97.5127 99.0035C95.7162 97.5035 93.0127 89.5035 93.0127 89.5035C93.0127 89.5035 110.94 81.7234 123.013 82.0035C134.811 82.2772 152.013 90.0034 152.013 90.0034L156.013 94.0034L151.732 90.5034C150.658 92.4082 146.799 99.1461 145.513 100.003C144.013 101.003 136.913 100.503 134.513 102.503C132.013 104.587 128.513 110.503 129.013 113.503C129.715 117.717 141.513 121.503 149.513 129.503C154.013 134.003 160.513 145.503 167.013 145.503C174.013 145.503 175.355 144.42 179.013 141.003C181.951 138.259 184.513 132.503 184.513 132.503L177.013 119.503L173.013 114.503L178.013 119.003C178.013 119.003 179.005 118.221 179.513 118.003C180.479 117.589 182.013 119.003 182.013 119.003L193.513 130.503L182.513 147.003L174.013 152.503L161.513 153.003L144.013 138.503L125.513 126.503L111.513 129.503L98.0127 139.503L86.0127 151.503L75.0127 153.503L64.5127 148.503L57.5127 139.503L51.0127 134.003L52.5127 128.503L64.5127 111.503Z" fill="#C6B460"/>
<path d="M122.513 174.503C102.513 173.503 87.5127 160.003 87.5127 160.003L76.5127 158.503L74.0127 167.003L124.513 184.003L175.513 162.003L157.513 160.503C157.513 160.503 137.831 175.269 122.513 174.503Z" fill="url(#paint0_linear_799_147)"/>
<path fill-rule="evenodd" clip-rule="evenodd" d="M81.0127 159.503C79.0127 159.503 74.0127 164.503 74.0127 164.503L62.0127 160.503L58.0127 151.503L61.0127 144.503L67.5127 150.503L81.0127 154.503L92.5127 145.503L105.013 135.003L139.013 134.003L147.513 143.003L155.513 150.503L168.013 154.503L180.513 148.503L187.013 144.503L186.013 158.003L172.513 163.503C172.513 163.503 169.01 161.96 166.513 161.503C164.4 161.117 161.013 161.003 161.013 161.003C161.013 161.003 155.256 159.318 153.513 158.003C152.065 156.912 150.966 155.527 149.927 154.217C149.131 153.214 148.37 152.254 147.513 151.503C144.288 148.679 141.013 146.503 138.013 146.503C136.573 146.503 135.355 146.972 134.073 147.466C132.99 147.883 131.861 148.318 130.513 148.503C128.389 148.796 127.069 148.278 125.78 147.773C124.789 147.385 123.817 147.003 122.513 147.003C121.001 147.003 119.962 147.459 118.849 147.947C117.902 148.362 116.902 148.801 115.513 149.003C112.575 149.431 109.653 148.195 107.258 147.182C105.763 146.549 104.474 146.003 103.513 146.003C101.513 146.003 86.5127 161.503 86.5127 161.503C86.5127 161.503 82.5432 159.503 81.0127 159.503ZM103.513 144.003C101.513 144.003 97.0127 148.003 97.0127 148.003C97.0127 148.003 101.667 142.503 103.013 142.503C104.513 142.503 108.513 144.503 108.513 144.503C108.513 144.503 105.78 144.003 103.513 144.003ZM139.013 143.503C137.214 143.435 134.513 144.503 134.513 144.503C134.513 144.503 137.002 142.003 139.013 142.003C141.513 142.003 146.513 148.003 146.513 148.003C146.513 148.003 140.812 143.572 139.013 143.503Z" fill="#D9C66D"/>
<path d="M121.013 126.503L106.513 133.503L113.513 140.503L122.513 136.503L130.513 141.003L138.013 133.503L121.013 126.503Z" fill="#C02231"/>
<path d="M122.013 135.296C118.212 135.367 115.013 139.003 113.013 139.003C110.316 139.003 108.513 133.763 108.513 133.763C107.238 134.658 105.992 135.643 104.774 136.682C104.774 136.682 109.085 141.209 113.013 141.503C116.931 141.798 118.083 138.002 122.013 138.002C126.013 138.002 128.226 142.74 132.513 141.503C135.606 140.611 138.513 136.849 138.513 136.849C137.482 136.029 136.443 135.241 135.398 134.503C135.398 134.503 133.9 137.871 132.513 138.503C130.013 139.642 125.769 135.226 122.013 135.296Z" fill="black"/>
<path fill-rule="evenodd" clip-rule="evenodd" d="M10.0127 75.002C14.0127 81.502 19.5127 89.002 24.5127 92.5021C26.0302 93.5644 29.0127 94.0021 29.0127 94.0021C29.0127 94.0021 22.5127 110.602 25.5127 116.002C26.8244 118.363 28.0719 120.711 29.3105 123.041C35.1537 134.037 40.7952 144.653 52.0127 154.502C72.5127 172.502 117.517 185.231 123.013 185.002C132.013 184.627 169.513 172.002 192.013 155.502C202.028 148.157 219.513 126.502 219.513 111.002C219.513 104.082 215.513 93.0034 215.513 93.0034C215.513 93.0034 220.801 94.1094 222.013 93.5034C223.225 92.8975 233.513 80.5034 238.013 72.0034C238.53 71.0272 238.454 69.3652 238.39 67.9352C238.342 66.8684 238.299 65.9307 238.513 65.5034C239.143 64.2436 240.126 62.9384 241.14 61.592C243.181 58.8837 245.347 56.0092 245.013 53.0034C244.619 49.4605 225.01 30.1113 213.312 18.5684C210.152 15.4502 207.569 12.9016 206.098 11.3883C198.39 3.45571 194.45 3.47533 189.39 3.50053C189.102 3.50196 188.809 3.50342 188.513 3.50342C183.013 3.50342 178.513 9.00342 178.513 9.00342C178.513 9.00342 140.013 0.853732 122.013 1.002C104.513 1.14615 68.0127 9.00204 68.0127 9.00204C68.0127 9.00204 63.3228 2.56477 53.0128 3.50204C46.0415 4.13579 11.5128 39.502 1.51274 51.502C-0.64569 54.0921 4.54595 60.3273 7.15228 63.4575C7.48955 63.8625 7.78354 64.2156 8.01269 64.502C9.34399 66.1662 9.25122 67.9934 9.15671 69.8549C9.06937 71.5752 8.98054 73.3248 10.0127 75.002ZM35.0127 83.5021H32.0128C32.0128 83.5021 37.371 69.9944 40.0128 61.5034C41.0685 58.1102 41.4854 55.3925 41.8838 52.7956C42.574 48.2966 43.2085 44.1602 47.0127 37.5021C47.7623 36.1901 48.374 34.5272 49.0122 32.7922C50.5027 28.7405 52.138 24.295 56.0128 23.0034C57.5128 22.5034 55.0128 20.3784 52.5128 21.0034C49.5128 21.7534 43.3807 28.8733 41.0128 35.5034C39.3998 40.0198 38.2031 45.5768 36.8855 51.906C36.7976 52.3279 36.7092 52.7534 36.6202 53.1821C35.9745 56.2899 35.2922 59.5737 34.5128 63.0034C31.8991 74.5034 25.5128 86.5034 25.5128 86.5034C25.5128 86.5034 8.93545 70.683 15.5128 72.0021C18.0128 72.5034 17.0128 71.5034 17.0128 71.5034C17.0128 71.5034 15.0395 65.7773 12.5128 62.0034C11.8832 61.0631 10.9822 60.1147 10.084 59.1694C7.9061 56.877 5.74511 54.6025 7.51276 52.5034C15.5128 43.0034 47.4223 10.4471 51.5128 9.00342C58.071 6.68875 63.6936 11.22 66.4125 13.4111C67.2175 14.0598 67.7679 14.5034 68.0127 14.5034C70.0128 14.5034 71.0128 12.5034 71.0128 12.5034C71.0128 12.5034 103.013 5.48876 124.013 6.00342C145.547 6.53117 179.513 14.5034 179.513 14.5034C179.513 14.5034 190.329 3.97332 197.513 10.5034C208.513 20.5021 232.408 43.1224 239.513 52.0034C241.513 54.5034 238.513 58.5034 235.013 62.0034C231.731 65.285 229.013 73.0021 229.013 73.0021C229.013 73.0021 231.03 72.9961 232.513 72.5034C234.013 72.0048 223.513 86.5034 222.013 86.5034C221.013 86.5034 215.531 74.3616 213.013 65.5021C211.88 61.5186 211.282 58.1128 210.704 54.8251C209.898 50.2373 209.132 45.8796 207.013 40.5034C203.635 31.9346 198.284 21.5048 196.284 21.0034C193.708 20.3577 188.513 21.5034 189.784 22.5034C192.443 24.5948 197.376 32.8842 200.513 40.5021C202.501 45.3325 203.023 49.2486 203.57 53.3508C203.985 56.4668 204.415 59.6902 205.513 63.5034C206.709 67.6593 208.813 72.8667 210.507 77.0563C212.223 81.3032 213.516 84.5041 213.013 84.5034C212.017 84.5021 209.513 84.0021 209.513 84.0021C209.513 84.0021 215.449 104.399 212.513 117.002C208.985 132.145 190.513 149.502 190.513 149.502V139.002C190.513 139.002 194.573 134.854 194.513 131.003C194.453 127.153 191.894 124.399 188.513 121.502C186.952 120.165 185.292 116.715 183.107 112.173C182.406 110.718 181.652 109.15 180.829 107.503C176.848 99.534 171.273 89.721 162.513 81.8678C153.395 73.6943 140.826 67.6435 123.013 68.0034C103.546 68.3967 90.6834 74.04 81.5128 81.9024C72.5691 89.5702 67.1366 99.3485 62.5128 108.426C62.0014 109.43 61.4999 110.425 61.0046 111.408C59.4838 114.427 58.0218 117.328 56.5128 120.003C55.7082 121.43 54.4812 122.76 53.2511 124.093C51.1363 126.386 49.0128 128.688 49.0128 131.503C49.0128 135.402 50.153 136.021 51.3529 136.673C52.1532 137.107 52.98 137.556 53.5127 139.002C55.2795 143.797 55.5128 151.003 55.5128 151.003C55.5128 151.003 36.1973 131.557 30.5128 114.503C28.0128 107.003 35.0127 83.5021 35.0127 83.5021ZM60.9652 155.463C58.3409 153.393 60.4557 143.331 61.5127 146.502C62.5127 149.502 77.0127 158.292 85.0127 154.502C88.4412 152.878 92.1954 149.04 96.3221 144.821L96.3229 144.82C98.9811 142.102 101.794 139.226 104.774 136.682C105.992 135.643 107.238 134.658 108.513 133.763C112.693 130.826 117.183 128.846 122.013 129.002C126.455 129.145 130.98 131.383 135.398 134.503C136.443 135.241 137.482 136.029 138.513 136.849C141.585 139.296 144.582 142.038 147.439 144.651C153.708 150.387 159.299 155.502 163.513 155.502C173.013 155.502 183.013 151.502 184.013 148.502C184.255 147.775 186.061 145.179 185.513 152.502C184.964 159.825 158.62 168.845 158.513 167.679C158.467 167.183 158.658 166.642 158.809 166.214C159.013 165.635 159.144 165.265 158.513 165.502C156.551 166.238 155.071 167.454 153.364 168.857C151.589 170.314 149.57 171.973 146.513 173.502C137.563 177.977 127.013 181.502 123.013 181.502C120.513 181.502 105.035 178.355 95.5127 172.502C93.4819 171.254 91.8651 169.748 90.4606 168.439C88.9889 167.068 87.7503 165.915 86.5127 165.502C85.2544 165.083 85.4915 165.631 85.7481 166.224C86.1033 167.046 86.496 167.953 83.0127 166.502C82.6079 166.333 81.9745 166.127 81.1511 165.859C77.2802 164.597 69.2111 161.967 60.9652 155.463ZM120.513 105.502L120.013 125.003C120.013 125.003 114.513 125.505 104.513 132.003C100.689 134.488 97.6698 137.996 94.7557 141.382C90.0483 146.852 85.6157 152.002 78.5128 152.002C69.239 152.002 66.8455 148.7 63.9817 144.75C62.9855 143.376 61.9323 141.923 60.5128 140.503C59.5085 139.499 58.5008 138.705 57.5753 137.977C55.2755 136.165 53.4834 134.754 53.5128 131.503C53.5411 128.365 55.3682 127.439 57.188 126.517C58.5564 125.823 59.258 124.063 60.0128 122.503C67.5128 107.003 70.434 99.6979 78.5128 90.0034C86.0128 81.0034 110.513 70.5354 123.013 71.0034C142.513 71.7336 155.013 78.1661 165.013 90.0034C175.15 102.003 178.63 107.975 181.513 119.503C182.225 122.353 184.54 124.198 186.715 125.931C187.974 126.935 189.186 127.901 190.013 129.003C192.266 132.008 186.878 138.375 184.513 141.003C183.446 142.189 182.691 143.406 181.959 144.585C179.604 148.379 177.491 151.783 166.013 152.502C161.036 152.814 157.556 149.253 152.178 143.75C148.91 140.407 144.942 136.347 139.513 132.003C134.513 128.003 123.513 125.003 123.513 125.003L122.513 105.502C122.513 105.502 128.666 103.85 131.513 101.003C135.86 96.656 140.742 94.0494 143.013 94.5034C145.083 94.9175 146.013 98.0034 146.013 98.0034C147.513 98.0034 148.513 96.0021 149.013 94.5034C149.513 93.0048 138.013 85.0034 122.513 85.5034C107.013 86.0034 101.513 89.0034 96.5128 94.0034C95.5644 94.9517 97.7855 97.1931 97.7855 97.1931C98.1787 97.1931 98.5114 96.8401 98.8889 96.4397C99.2096 96.0994 99.5628 95.7249 100.013 95.5034C101.029 95.0034 106.909 95.3998 108.013 96.5034C112.013 100.503 120.513 105.502 120.513 105.502Z" fill="black"/>
<path d="M180.829 107.503C180.829 107.503 185.498 108.261 188.013 107.003C195.013 103.503 198.013 90.5034 195.513 81.5034C192.95 72.2769 187.013 64.1284 176.513 65.0034C170.513 65.5034 163.495 74.7645 163.013 77.0034C162.531 79.2423 162.513 81.8678 162.513 81.8678C171.273 89.721 176.848 99.534 180.829 107.503Z" fill="black"/>
<path d="M81.5128 81.9024C81.5128 81.9024 81.7149 78.507 80.5128 76.5034C77.5128 71.5034 71.5215 65.3095 66.0128 65.0034C58.248 64.572 49.0128 76.0034 47.5128 84.0034C46.1065 91.5034 49.5128 106.003 56.5128 107.503C58.8308 108 62.5128 108.426 62.5128 108.426C67.1366 99.3485 72.5691 89.5702 81.5128 81.9024Z" fill="black"/>
<path d="M108.513 133.763C112.693 130.826 117.183 128.846 122.013 129.002C126.455 129.145 130.98 131.383 135.398 134.503M108.513 133.763C108.513 133.763 110.316 139.003 113.013 139.003C115.013 139.003 118.212 135.367 122.013 135.296C125.769 135.226 130.013 139.642 132.513 138.503C133.9 137.871 135.398 134.503 135.398 134.503M108.513 133.763C107.238 134.658 105.992 135.643 104.774 136.682M104.774 136.682C104.774 136.682 109.085 141.209 113.013 141.503C116.931 141.798 118.083 138.002 122.013 138.002C126.013 138.002 128.226 142.74 132.513 141.503C135.606 140.611 138.513 136.849 138.513 136.849M104.774 136.682C101.794 139.226 98.9811 142.102 96.3229 144.82L96.3221 144.821C92.1954 149.04 88.4412 152.878 85.0127 154.502C77.0127 158.292 62.5127 149.502 61.5127 146.502C60.4557 143.331 58.3409 153.393 60.9652 155.463C69.2111 161.967 77.2802 164.597 81.1511 165.859C81.9745 166.127 82.6079 166.333 83.0127 166.502C86.496 167.953 86.1033 167.046 85.7481 166.224C85.4915 165.631 85.2544 165.083 86.5127 165.502C87.7503 165.915 88.9889 167.068 90.4606 168.439C91.8651 169.748 93.4819 171.254 95.5127 172.502C105.035 178.355 120.513 181.502 123.013 181.502C127.013 181.502 137.563 177.977 146.513 173.502C149.57 171.973 151.589 170.314 153.364 168.857C155.071 167.454 156.551 166.238 158.513 165.502C159.144 165.265 159.013 165.635 158.809 166.214C158.658 166.642 158.467 167.183 158.513 167.679C158.62 168.845 184.964 159.825 185.513 152.502C186.061 145.179 184.255 147.775 184.013 148.502C183.013 151.502 173.013 155.502 163.513 155.502C159.299 155.502 153.708 150.387 147.439 144.651C144.582 142.038 141.585 139.296 138.513 136.849M135.398 134.503C136.443 135.241 137.482 136.029 138.513 136.849M180.829 107.503C181.652 109.15 182.406 110.718 183.107 112.173C185.292 116.715 186.952 120.165 188.513 121.502C191.894 124.399 194.453 127.153 194.513 131.003C194.573 134.854 190.513 139.002 190.513 139.002V149.502C190.513 149.502 208.985 132.145 212.513 117.002C215.448 104.399 209.513 84.0021 209.513 84.0021C209.513 84.0021 212.017 84.5021 213.013 84.5034C213.516 84.5041 212.223 81.3032 210.507 77.0563C208.813 72.8667 206.709 67.6593 205.513 63.5034C204.415 59.6902 203.985 56.4668 203.57 53.3508C203.023 49.2486 202.501 45.3325 200.513 40.5021C197.376 32.8842 192.443 24.5948 189.784 22.5034C188.513 21.5034 193.708 20.3577 196.284 21.0034C198.284 21.5048 203.635 31.9346 207.013 40.5034C209.132 45.8796 209.898 50.2373 210.704 54.8251C211.282 58.1128 211.88 61.5186 213.013 65.5021C215.531 74.3616 221.013 86.5034 222.013 86.5034C223.513 86.5034 234.013 72.0048 232.513 72.5034C231.03 72.9961 229.013 73.0021 229.013 73.0021C229.013 73.0021 231.731 65.285 235.013 62.0034C238.513 58.5034 241.513 54.5034 239.513 52.0034C232.408 43.1224 208.513 20.5021 197.513 10.5034C190.329 3.97332 179.513 14.5034 179.513 14.5034C179.513 14.5034 145.547 6.53117 124.013 6.00342C103.013 5.48876 71.0128 12.5034 71.0128 12.5034C71.0128 12.5034 70.0128 14.5034 68.0127 14.5034C67.7679 14.5034 67.2175 14.0598 66.4125 13.4111C63.6936 11.22 58.071 6.68875 51.5128 9.00342C47.4223 10.4471 15.5128 43.0034 7.51276 52.5034C5.74511 54.6025 7.9061 56.877 10.084 59.1694C10.9822 60.1147 11.8832 61.0631 12.5128 62.0034C15.0395 65.7773 17.0128 71.5034 17.0128 71.5034C17.0128 71.5034 18.0128 72.5034 15.5128 72.0021C8.93545 70.683 25.5128 86.5034 25.5128 86.5034C25.5128 86.5034 31.8991 74.5034 34.5128 63.0034C35.2922 59.5737 35.9745 56.2899 36.6202 53.1821C36.7092 52.7534 36.7976 52.3279 36.8855 51.906C38.2031 45.5768 39.3998 40.0198 41.0128 35.5034C43.3807 28.8733 49.5128 21.7534 52.5128 21.0034C55.0128 20.3784 57.5128 22.5034 56.0128 23.0034C52.138 24.295 50.5027 28.7405 49.0122 32.7922C48.374 34.5272 47.7623 36.1901 47.0127 37.5021C43.2085 44.1602 42.574 48.2966 41.8838 52.7956C41.4854 55.3925 41.0685 58.1102 40.0128 61.5034C37.371 69.9944 32.0128 83.5021 32.0128 83.5021H35.0127C35.0127 83.5021 28.0128 107.003 30.5128 114.503C36.1973 131.557 55.5128 151.003 55.5128 151.003C55.5128 151.003 55.2795 143.797 53.5127 139.002C52.98 137.556 52.1532 137.107 51.3529 136.673C50.153 136.021 49.0128 135.402 49.0128 131.503C49.0128 128.688 51.1363 126.386 53.2511 124.093C54.4812 122.76 55.7082 121.43 56.5128 120.003C58.0218 117.328 59.4838 114.427 61.0046 111.408C61.4999 110.425 62.0014 109.43 62.5128 108.426M180.829 107.503C180.829 107.503 185.498 108.261 188.013 107.003C195.013 103.503 198.013 90.5034 195.513 81.5034C192.95 72.277 187.013 64.1284 176.513 65.0034C170.513 65.5034 163.495 74.7645 163.013 77.0034C162.531 79.2423 162.513 81.8678 162.513 81.8678M180.829 107.503C176.848 99.534 171.273 89.721 162.513 81.8678M162.513 81.8678C153.395 73.6943 140.826 67.6435 123.013 68.0034C103.546 68.3967 90.6834 74.04 81.5128 81.9024M81.5128 81.9024C81.5128 81.9024 81.7149 78.507 80.5128 76.5034C77.5128 71.5034 71.5215 65.3095 66.0128 65.0034C58.248 64.572 49.0128 76.0034 47.5128 84.0034C46.1065 91.5034 49.5128 106.003 56.5128 107.503C58.8308 108 62.5128 108.426 62.5128 108.426M81.5128 81.9024C72.5691 89.5702 67.1366 99.3485 62.5128 108.426M60.0128 122.503C67.5128 107.003 70.434 99.6979 78.5128 90.0034C86.0128 81.0034 110.513 70.5354 123.013 71.0034C142.513 71.7336 155.013 78.1661 165.013 90.0034C175.15 102.003 178.63 107.975 181.513 119.503C182.225 122.353 184.54 124.198 186.715 125.931C187.974 126.935 189.186 127.901 190.013 129.003C192.266 132.008 186.878 138.375 184.513 141.003C183.446 142.189 182.691 143.406 181.959 144.585C179.604 148.379 177.491 151.783 166.013 152.502C161.036 152.814 157.556 149.253 152.178 143.75C148.91 140.407 144.942 136.347 139.513 132.003C134.513 128.003 123.513 125.003 123.513 125.003L122.513 105.502C122.513 105.502 128.666 103.85 131.513 101.003C135.86 96.656 140.742 94.0494 143.013 94.5034C145.083 94.9175 146.013 98.0034 146.013 98.0034C147.513 98.0034 148.513 96.0021 149.013 94.5034C149.513 93.0048 138.013 85.0034 122.513 85.5034C107.013 86.0034 101.513 89.0034 96.5128 94.0034C95.5644 94.9517 97.7855 97.1931 97.7855 97.1931C98.1787 97.1931 98.5114 96.8401 98.8889 96.4397C99.2096 96.0994 99.5628 95.7249 100.013 95.5034C101.029 95.0034 106.909 95.3998 108.013 96.5034C112.013 100.503 120.513 105.502 120.513 105.502L120.013 125.003C120.013 125.003 114.513 125.505 104.513 132.003C100.689 134.488 97.6698 137.996 94.7557 141.382C90.0483 146.852 85.6157 152.002 78.5128 152.002C69.239 152.002 66.8455 148.7 63.9817 144.75C62.9855 143.376 61.9323 141.923 60.5128 140.503C59.5085 139.499 58.5008 138.705 57.5753 137.977C55.2755 136.165 53.4834 134.754 53.5128 131.503C53.5411 128.365 55.3682 127.439 57.188 126.517C58.5564 125.823 59.258 124.063 60.0128 122.503ZM1.51274 51.502C11.5128 39.502 46.0415 4.13579 53.0128 3.50204C63.3228 2.56477 68.0127 9.00204 68.0127 9.00204C68.0127 9.00204 104.513 1.14615 122.013 1.002C140.013 0.853732 178.513 9.00342 178.513 9.00342C178.513 9.00342 183.013 3.50342 188.513 3.50342C188.809 3.50342 189.102 3.50196 189.39 3.50053C194.45 3.47533 198.39 3.45571 206.098 11.3883C207.569 12.9016 210.152 15.4502 213.312 18.5684C225.01 30.1113 244.619 49.4605 245.013 53.0034C245.347 56.0092 243.181 58.8837 241.14 61.592C240.126 62.9384 239.143 64.2436 238.513 65.5034C238.299 65.9307 238.342 66.8684 238.39 67.9352C238.454 69.3652 238.53 71.0272 238.013 72.0034C233.513 80.5034 223.225 92.8975 222.013 93.5034C220.801 94.1094 215.513 93.0034 215.513 93.0034C215.513 93.0034 219.513 104.082 219.513 111.002C219.513 126.502 202.028 148.157 192.013 155.502C169.513 172.002 132.013 184.627 123.013 185.002C117.517 185.231 72.5127 172.502 52.0127 154.502C40.7952 144.653 35.1537 134.037 29.3105 123.041C28.0719 120.711 26.8244 118.363 25.5127 116.002C22.5127 110.602 29.0127 94.0021 29.0127 94.0021C29.0127 94.0021 26.0302 93.5644 24.5127 92.5021C19.5127 89.002 14.0127 81.502 10.0127 75.002C8.98054 73.3248 9.06937 71.5752 9.15671 69.8549C9.25122 67.9934 9.34399 66.1662 8.01269 64.502C7.78354 64.2156 7.48955 63.8625 7.15228 63.4575C4.54595 60.3273 -0.64569 54.0921 1.51274 51.502Z" stroke="black" stroke-width="0.3"/>
<path d="M117.013 88.0035C120.533 89.4115 123.013 95.0339 122.513 96.0035C121.739 97.5034 116.381 98.0706 113.013 96.5035C109.998 95.1009 107.513 91.5035 107.513 90.0035C107.513 89.0035 115.013 87.2036 117.013 88.0035Z" fill="#242222"/>
<path d="M130.013 89.0035C127.386 89.8563 124.14 91.3838 125.013 94.0035C125.703 96.0746 127.83 96.5258 130.013 96.5035C133.613 96.4668 136.013 90.5034 136.013 89.5035C136.013 88.5037 132.249 88.2775 130.013 89.0035Z" fill="#242222"/>
<path d="M168.013 127.503C168.135 126.405 168.408 126.018 169.513 126.003C170.763 125.986 171.151 126.761 171.013 128.003C170.891 129.101 170.617 129.488 169.513 129.503C168.263 129.52 167.875 128.746 168.013 127.503Z" fill="#9F8A25"/>
<path d="M169.513 137.003C169.757 136.343 170.309 135.981 171.013 136.003C171.841 136.03 171.494 136.675 171.513 137.503C171.536 138.479 171.446 138.79 170.513 138.503C169.678 138.246 169.21 137.822 169.513 137.003Z" fill="#9F8A25"/>
<path d="M153.513 129.003C153.474 128.3 153.849 127.738 154.513 127.503C155.433 127.178 155.567 127.528 155.513 128.503C155.448 129.673 153.578 130.173 153.513 129.003Z" fill="#9F8A25"/>
<path d="M87.0128 130.003C86.9338 129.766 87.4605 129.003 88.0128 129.003C88.5651 129.003 89.1875 129.479 89.0128 130.003C88.8747 130.418 88.4494 130.503 88.0128 130.503C87.5762 130.503 87.1509 130.418 87.0128 130.003Z" fill="#9F8A25"/>
<path d="M73.0128 127.503C73.169 126.41 72.6106 125.625 71.5128 125.503C70.1405 125.351 68.9689 126.734 69.5128 128.003C69.927 128.97 70.7928 129.114 71.5128 129.003C72.4778 128.855 72.8747 128.47 73.0128 127.503Z" fill="#9F8A25"/>
<path d="M73.5128 137.503C73.5128 136.527 73.4855 135.919 72.5128 136.003C71.8114 136.064 71.0128 136.299 71.0128 137.003C71.0128 137.503 71.8885 138.414 72.5128 138.503C73.1371 138.592 73.5128 138.48 73.5128 137.503Z" fill="#9F8A25"/>
<path d="M177.154 93.5815C177.154 91.7813 178.361 90.2379 180.154 90.0815C182.222 89.9012 183.451 92.0272 183.154 94.0815C182.897 95.8633 181.949 97.2196 180.154 97.0815C178.36 96.9435 177.154 95.3818 177.154 93.5815Z" fill="white"/>
<path d="M171.155 74.0816C171.155 70.5821 175.154 66.3759 178.154 67.0817C180.654 67.6699 182.316 71.7872 181.154 75.0816C180.373 77.2991 179.475 78.2032 177.154 78.5815C173.994 79.0968 171.155 77.2842 171.155 74.0816Z" fill="white"/>
<path d="M63.1545 95.0821C63.1739 93.9777 63.5501 93.0973 64.6545 93.0821C65.9047 93.065 66.4411 93.8651 66.1545 95.0821C65.8935 96.1904 65.2541 96.8776 64.1545 96.5821C63.2117 96.3288 63.1374 96.0583 63.1545 95.0821Z" fill="white"/>
<path d="M62.6545 68.5821C59.4528 68.6539 57.5261 70.1882 56.1545 73.0821C54.7829 75.9761 63.7026 88.1437 68.1545 84.5821C70.6545 82.5821 70.5042 79.5419 69.6545 76.0815C68.6646 72.05 65.4232 68.5201 62.6545 68.5821Z" fill="white"/>
<defs>
<linearGradient id="paint0_linear_799_147" x1="80.0127" y1="169.503" x2="168.513" y2="171.003" gradientUnits="userSpaceOnUse">
<stop stop-color="#F4E59E"/>
<stop offset="0.480769" stop-color="#D9C462"/>
<stop offset="1" stop-color="#F4E59E"/>
</linearGradient>
</defs>
</svg>
