<svg width="214" height="252" viewBox="0 0 214 252" fill="none" xmlns="http://www.w3.org/2000/svg">
<path d="M106.4 65.0242C140.408 65.0243 164.796 79.5643 177.601 99.1873L178.375 100.393C193.716 124.725 192.238 147.979 187.19 167.671C188.068 167.188 189.168 166.62 190.395 166.074C193.384 164.744 197.353 163.436 200.67 164.041L201.096 164.124C205.446 165.038 208.493 167.574 210.302 170.996C212.036 174.277 212.612 178.325 212.212 182.481L212.119 183.314C211.455 188.541 210.185 193.433 207.645 197.665C205.173 201.782 201.529 205.223 196.189 207.749L195.667 207.99C191.701 209.785 186.108 210.401 181.615 210.588C179.348 210.682 177.321 210.668 175.861 210.631C175.314 210.617 174.846 210.598 174.474 210.582C174.404 211.625 174.405 212.61 174.487 213.536L174.492 213.598L174.49 213.66C174.249 220.338 171.679 224.405 167.549 229.066L166.702 230.007C158.847 238.622 144.837 242.834 132.421 244.924C119.941 247.024 108.788 247.024 106.4 247.024C103.996 247.024 94.892 246.9 83.749 244.964C72.9688 243.09 60.1941 239.507 49.7295 232.633L48.7246 231.957C45.292 229.597 42.6635 226.856 40.9072 223.25C39.2664 219.881 38.4194 215.824 38.3193 210.735C37.9476 210.746 37.4863 210.757 36.9512 210.761C35.4653 210.773 33.4038 210.744 31.1016 210.579C26.6847 210.263 21.2202 209.439 17.2666 207.338L16.8887 207.131C6.56351 201.278 0.999996 192.448 1 182.533L1.01367 181.661C1.15322 177.298 2.34761 172.934 4.83691 169.566C7.52013 165.937 11.6633 163.533 17.3818 163.533C21.9394 163.533 25.6082 165.549 28.1025 167.511C28.3087 167.674 28.5064 167.837 28.6973 167.998C25.7708 159.637 23.2805 151.271 23.2891 141.645C23.2993 130.307 26.7675 117.32 36.8145 100.529L37.4014 99.5769C43.6138 89.7766 54.4156 81.2651 66.6816 75.1521C79.3521 68.8375 93.6998 65.0242 106.4 65.0242Z" fill="#FFCEB4" stroke="black" stroke-width="2"/>
<path d="M33 119.024C35.321 123.577 42 128.524 42 128.524C44.3969 126.533 45.1573 126.636 46.7141 126.847C47.3124 126.928 48.0284 127.024 49 127.024C49 127.024 41.2736 122.641 37.5 118.524C34.0594 114.771 30.5 107.524 30.5 107.524C30.5 107.524 30.9128 114.93 33 119.024Z" fill="#292929"/>
<path d="M75.9412 125.524H97.5H113.5C113.5 125.524 120.189 121.658 124.5 118.524C134.324 111.382 146 95.0242 146 95.0242C146 95.0242 132.587 108.244 123 114.524C116.645 118.687 105.5 123.024 105.5 123.024C105.5 123.024 101.771 122.72 99.5 122.024C93.5484 120.201 90.7808 116.835 87.0607 112.31L87.0594 112.308L87.0583 112.307C86.7147 111.889 86.3631 111.461 86 111.024C81.7042 105.85 77.5 95.5242 77.5 95.5242C77.5 95.5242 76.596 104.493 78.7956 109.524C81.7557 116.295 94 123.024 94 123.024C94 123.024 87.1292 122.319 83.5 121.524C76.6624 120.027 72.9745 117.661 68 112.524C61.8495 106.174 57 91.5242 57 91.5242C57 91.5242 58.5189 105.267 63 112.524C66.7635 118.62 75.9412 125.524 75.9412 125.524Z" fill="#292929"/>
<path d="M167.5 127.418L171.5 128.024C171.5 128.024 176.042 124.559 178.5 121.524C182.231 116.916 184 107.524 184 107.524C184 107.524 179.873 115.712 176 120.024C173.06 123.297 167.5 127.418 167.5 127.418Z" fill="#292929"/>
<path d="M153.5 125.328C154.441 125.447 155 125.524 155 125.524L158.5 126.055C158.5 126.055 163.413 124.113 166 122.024C170.046 118.759 173.5 111.024 173.5 111.024C173.5 111.024 167.948 116.207 164 119.024C160.107 121.802 153.5 125.328 153.5 125.328Z" fill="#292929"/>
<path d="M16 244.524C16 244.524 31.3767 233.564 35 230.024C41.1024 224.062 40.8694 217.359 40.5841 209.154C40.5543 208.294 40.5238 207.418 40.5 206.524C40.4282 203.829 39.8369 201.786 39.2475 199.749C38.6227 197.59 38 195.438 38 192.524C38 189.334 38.5808 187.168 39.2078 184.829C39.6937 183.017 40.2073 181.101 40.5 178.524C41.9546 165.719 40.5 144.524 40.5 144.524L39.5 174.524C39.5 174.524 35.2165 190.143 35 192.524C34.7428 195.353 35.5596 197.385 36.4178 199.521C37.0763 201.159 37.7591 202.858 38 205.024C38.1398 206.282 38.3016 207.489 38.4581 208.658C39.3203 215.095 40.0211 220.328 36 226.024C30 234.524 16 244.524 16 244.524Z" fill="#292929"/>
<path d="M113.5 37.5242C118.883 39.1248 126 44.6346 126 44.6346C127.129 44.8308 128.307 45.0419 129.559 45.2663L129.566 45.2676C130.033 45.3513 130.511 45.437 131 45.5243C131.483 45.6106 131.985 45.705 132.5 45.8058C132.5 45.8058 121.579 36.6299 113.5 34.5242C100.713 31.1914 83 44.5243 83 44.5243C83 44.5243 101.786 34.0412 113.5 37.5242Z" fill="#292929"/>
<path d="M78.7956 52.5244C78.7956 52.5244 86.7711 50.313 92 49.5243C98.1906 48.5906 101.74 48.4779 108 48.5243C117.035 48.5913 122.102 49.4574 131 51.0243C137.167 52.1103 146.647 54.5243 146.647 54.5243C147.122 53.1036 147.653 51.407 148.171 49.5243C148.171 49.5243 146.24 49.0061 143.5 48.3194C141.736 47.8773 139.636 47.3652 137.5 46.8768C135.806 46.4894 134.09 46.1169 132.5 45.8058C131.985 45.705 131.483 45.6106 131 45.5243C130.511 45.437 130.033 45.3513 129.566 45.2676L129.559 45.2663C128.307 45.0419 127.129 44.8308 126 44.6346C119.888 43.5723 115.204 42.9462 108 43.0243C101.725 43.0924 98.1946 43.5184 92 44.5243C86.7869 45.3709 78.7956 47.4464 78.7956 47.4464C79.2369 49.0919 79.2346 50.8787 78.7956 52.5244Z" fill="#E8C23A"/>
<path d="M130 35.5242C133.802 39.2363 137.5 46.8768 137.5 46.8768C139.636 47.3652 141.736 47.8773 143.5 48.3194C143.5 48.3194 136.826 37.0687 130.5 32.5242C123.461 27.4675 110.5 26.5242 110.5 26.5242C110.5 26.5242 123.999 29.6648 130 35.5242Z" fill="#292929"/>
<path d="M144.5 115.024C137.446 119.727 125.5 125.524 125.5 125.524L124.803 125.969C127.437 125.972 129.818 125.862 131 125.524C131.496 125.383 131.826 125.183 132.177 124.97C132.42 124.823 132.674 124.669 133 124.524C133.529 124.289 134.401 124.148 135.5 124.078C135.5 124.078 142.497 120.636 146.5 118.024C154.007 113.126 164.5 99.5242 164.5 99.5242C164.5 99.5242 151.554 110.322 144.5 115.024Z" fill="#292929"/>
<path d="M63 51.0243C63.3773 55.4265 66.5978 58.6471 71 59.0244C72.1695 58.5933 73.3014 58.1885 74.4027 57.8087C76.382 57.0279 76.9406 56.4562 78 54.5243C78.3437 53.8976 78.6091 53.2237 78.7956 52.5244C79.2346 50.8787 79.2369 49.0919 78.7956 47.4464C77.9283 44.2126 75.3476 41.5244 71 41.5244C66.1675 41.9386 62.5858 46.1919 63 51.0243Z" fill="#FAD314"/>
<path fill-rule="evenodd" clip-rule="evenodd" d="M19.5 113.524C15.5622 128.843 19.5 154.024 19.5 154.024C19.5 154.024 20.1341 157.317 20.5 159.024C21.4676 163.54 22.019 164.934 22.557 166.295C22.8531 167.044 23.145 167.782 23.5 169.024C24.7685 173.464 24.2897 176.318 23.534 180.822L23.5 181.024C23.1274 183.246 22.3574 184.787 21.5803 186.341C20.7173 188.067 19.8456 189.811 19.5 192.524C18.8893 197.318 21.7615 199.485 24.7784 201.762C27.1166 203.526 29.5418 205.355 30.5 208.524C32.5911 215.44 33.3917 220.404 30.5 227.024C28.7178 231.105 16 244.524 16 244.524C16 244.524 30 234.524 36 226.024C40.0211 220.328 39.3203 215.095 38.4581 208.658C38.3016 207.489 38.1398 206.282 38 205.024C37.7591 202.858 37.0763 201.159 36.4178 199.521C35.5596 197.385 34.7428 195.353 35 192.524C35.2165 190.143 39.5 174.524 39.5 174.524L40.5 144.524C40.5 144.524 40.5 129.77 42 128.524C42 128.524 35.321 123.577 33 119.024C30.9128 114.93 30.5 107.524 30.5 107.524C30.5 107.524 34.0594 114.771 37.5 118.524C41.2736 122.641 49 127.024 49 127.024C49.5755 127.024 50.5986 127.056 51.9217 127.096C58.6453 127.301 73.1145 127.743 75.9412 125.524C75.9412 125.524 66.7635 118.62 63 112.524C58.5189 105.267 57 91.5242 57 91.5242C57 91.5242 61.8495 106.174 68 112.524C72.9745 117.661 76.6624 120.027 83.5 121.524C87.1292 122.319 94 123.024 94 123.024C94 123.024 81.7557 116.295 78.7956 109.524C76.596 104.493 77.5 95.5242 77.5 95.5242C77.5 95.5242 81.7042 105.85 86 111.024C86.3631 111.461 86.7147 111.889 87.0583 112.307L87.0594 112.308L87.0607 112.31C90.7808 116.835 93.5484 120.201 99.5 122.024C101.771 122.72 105.5 123.024 105.5 123.024C105.5 123.024 116.645 118.687 123 114.524C132.587 108.244 146 95.0242 146 95.0242C146 95.0242 134.324 111.382 124.5 118.524C120.189 121.658 113.5 125.524 113.5 125.524C113.5 125.524 119.639 125.963 124.803 125.969L125.5 125.524C125.5 125.524 137.446 119.727 144.5 115.024C151.554 110.322 164.5 99.5242 164.5 99.5242C164.5 99.5242 154.007 113.126 146.5 118.024C142.497 120.636 135.5 124.078 135.5 124.078C140.407 123.764 149.843 124.864 153.5 125.328C153.5 125.328 160.107 121.802 164 119.024C167.948 116.207 173.5 111.024 173.5 111.024C173.5 111.024 170.046 118.759 166 122.024C163.413 124.113 158.5 126.055 158.5 126.055L167.5 127.418C167.5 127.418 173.06 123.297 176 120.024C179.873 115.712 184 107.524 184 107.524C184 107.524 182.231 116.916 178.5 121.524C176.042 124.559 171.5 128.024 171.5 128.024C171.5 128.024 184 129.024 183 137.524C182.638 140.598 182.077 144.294 181.39 148.811C181.39 148.811 181.087 168.313 180.5 180.822C180.314 184.792 179.913 187.971 179.537 190.948C178.906 195.949 178.348 200.379 179 207.024C179.387 210.968 180.648 214.337 181.863 217.583C183.648 222.353 185.334 226.856 184 232.524C181.925 241.344 170 251.024 170 251.024C170 251.024 189 236.524 191.5 231.024C194 225.524 187 206.024 187 206.024C187 206.024 189.5 201.524 188.5 174.524C188.449 173.158 191 165.524 191 165.524C191 165.524 193.429 161.524 194 159.524C195.123 155.594 195.276 152.024 195.276 152.024C195.276 152.024 200.5 134.024 195.276 112.524C195.154 112.02 195.033 111.523 194.914 111.032L194.897 110.963L194.892 110.94C191.377 96.4343 189.216 87.5149 178.5 76.5244C169.314 67.1031 160.99 64.3415 149.389 60.4922C147.977 60.0237 146.517 59.5391 145 59.0244C145 59.0244 145.718 57.3011 146.647 54.5243C146.647 54.5243 137.167 52.1103 131 51.0243C122.102 49.4574 117.035 48.5913 108 48.5243C101.74 48.4779 98.1906 48.5906 92 49.5243C86.7711 50.313 78.7956 52.5244 78.7956 52.5244C78.6091 53.2237 78.3437 53.8976 78 54.5243C76.9406 56.4562 76.382 57.0279 74.4027 57.8087C73.3014 58.1885 72.1695 58.5933 71 59.0244C58.1153 63.7744 50.4368 67.0461 40.5 76.5244C28.4776 87.9919 23.6365 97.4331 19.5 113.524ZM92 44.5243C86.7869 45.3709 78.7956 47.4464 78.7956 47.4464C77.9283 44.2126 75.3476 41.5244 71 41.5244C66.8845 34.4066 67.938 28.1547 71 20.5242C74.062 12.8938 89 0.720037 108 0.0243944C127 -0.671248 144.518 13.6795 148.5 21.5244C152.482 29.3693 150.448 41.2458 148.171 49.5243C148.171 49.5243 146.24 49.0061 143.5 48.3194C143.5 48.3194 136.826 37.0687 130.5 32.5242C123.461 27.4675 110.5 26.5242 110.5 26.5242C110.5 26.5242 123.999 29.6648 130 35.5242C133.802 39.2363 137.5 46.8768 137.5 46.8768C135.806 46.4894 134.09 46.1169 132.5 45.8058C132.5 45.8058 121.579 36.6299 113.5 34.5242C100.713 31.1914 83 44.5243 83 44.5243C83 44.5243 101.786 34.0412 113.5 37.5242C118.883 39.1248 126 44.6346 126 44.6346C119.888 43.5723 115.204 42.9462 108 43.0243C101.725 43.0924 98.1946 43.5184 92 44.5243Z" fill="black"/>
<path d="M180.5 234.024C178.774 241.064 170 251.024 170 251.024C170 251.024 181.925 241.344 184 232.524C185.334 226.856 183.648 222.353 181.863 217.583C180.648 214.337 179.387 210.968 179 207.024C178.348 200.379 178.906 195.949 179.537 190.948C179.913 187.971 180.314 184.792 180.5 180.822C181.087 168.313 181.39 148.811 181.39 148.811C180.179 156.786 178.578 167.323 177 181.524C176.424 186.711 176.512 190.237 176.594 193.537C176.654 195.965 176.712 198.27 176.5 201.024C176.246 204.324 176.363 206.54 176.445 208.08C176.475 208.646 176.5 209.121 176.5 209.524C176.5 209.873 176.843 210.872 177.34 212.318C178.978 217.087 182.29 226.726 180.5 234.024Z" fill="#292929"/>
<path d="M70 184.024C70 180.71 72.6863 178.024 76 178.024C79.3137 178.024 82 180.71 82 184.024V186.024V187.024V197.024C82 200.338 79.3137 203.024 76 203.024C72.6863 203.024 70 200.338 70 197.024V187.024V186.024V184.024Z" fill="black"/>
<path d="M130 184.024C130 180.711 132.686 178.024 136 178.024C139.314 178.024 142 180.711 142 184.024V197.024C142 200.338 139.314 203.024 136 203.024C132.686 203.024 130 200.338 130 197.024V184.024Z" fill="black"/>
<path d="M66 222.524C66 225.562 59.0604 228.024 50.5 228.024C41.9396 228.024 35 225.562 35 222.524C35 219.487 41.9396 217.024 50.5 217.024C59.0604 217.024 66 219.487 66 222.524Z" fill="#F9A9E7"/>
<path d="M179 222.524C179 225.562 172.06 228.024 163.5 228.024C154.94 228.024 148 225.562 148 222.524C148 219.487 154.94 217.024 163.5 217.024C172.06 217.024 179 219.487 179 222.524Z" fill="#F9A9E7"/>
<path d="M97.1475 226.787C97.3115 225.966 98.3069 225.549 99.064 225.905C100.569 226.612 103.114 227.493 106.5 227.524C110.11 227.557 113.06 226.605 114.798 225.867C115.562 225.542 116.5 226.096 116.5 226.927C116.5 227.298 116.308 227.64 115.977 227.808C114.692 228.463 111.142 230.024 106.5 230.024C102.08 230.024 98.9327 228.609 97.6455 227.908C97.2448 227.69 97.058 227.234 97.1475 226.787Z" fill="black"/>
<path d="M70 186.024C70 186.024 68.8027 186.586 68 186.524C67.7414 186.504 67.4353 186.413 67.1673 186.314C66.8554 186.198 66.5 186.419 66.5 186.752C66.5 186.919 66.5932 187.072 66.7457 187.14C67.0523 187.278 67.5867 187.492 68 187.524C68.8027 187.586 70 187.024 70 187.024V186.024Z" fill="black"/>
<path d="M144 186.524C143.197 186.586 142 186.024 142 186.024V187.024C142 187.024 143.197 187.586 144 187.524C144.413 187.492 144.948 187.278 145.254 187.14C145.407 187.072 145.5 186.919 145.5 186.752C145.5 186.419 145.145 186.198 144.833 186.314C144.565 186.413 144.259 186.504 144 186.524Z" fill="black"/>
</svg>
