<svg width="252" height="251" viewBox="0 0 252 251" fill="none" xmlns="http://www.w3.org/2000/svg">
<path d="M124.4 22.1387C158.408 22.1388 182.796 36.6788 195.601 56.3018L196.375 57.5078C211.716 81.8392 210.238 105.093 205.19 124.785C206.068 124.302 207.168 123.734 208.395 123.188C211.384 121.859 215.353 120.551 218.67 121.155L219.096 121.238C223.446 122.152 226.493 124.689 228.302 128.11C230.036 131.391 230.612 135.439 230.212 139.596L230.119 140.429C229.455 145.656 228.185 150.548 225.645 154.779C223.173 158.896 219.529 162.338 214.189 164.863L213.667 165.104C209.701 166.899 204.108 167.515 199.615 167.702C197.348 167.796 195.321 167.783 193.861 167.745C193.314 167.731 192.846 167.713 192.474 167.696C192.404 168.74 192.405 169.724 192.487 170.65L192.492 170.713L192.49 170.774C192.249 177.452 189.679 181.519 185.549 186.181L184.702 187.121C176.847 195.736 162.837 199.948 150.421 202.038C137.941 204.139 126.788 204.139 124.4 204.139C121.996 204.139 112.892 204.014 101.749 202.078C90.9688 200.205 78.1941 196.622 67.7295 189.747L66.7246 189.071C63.292 186.711 60.6635 183.97 58.9072 180.364C57.2664 176.995 56.4194 172.938 56.3193 167.85C55.9476 167.86 55.4863 167.872 54.9512 167.876C53.4653 167.888 51.4038 167.858 49.1016 167.693C44.6847 167.377 39.2202 166.553 35.2666 164.452L34.8887 164.245C24.5635 158.393 19 149.562 19 139.647L19.0137 138.775C19.1532 134.412 20.3476 130.048 22.8369 126.681C25.5201 123.051 29.6633 120.647 35.3818 120.647C39.9394 120.647 43.6082 122.664 46.1025 124.626C46.3087 124.788 46.5064 124.951 46.6973 125.112C43.7708 116.751 41.2805 108.386 41.2891 98.7598C41.2993 87.4218 44.7675 74.4344 54.8145 57.6436L55.4014 56.6914C61.6138 46.8911 72.4156 38.3796 84.6816 32.2666C97.3521 25.952 111.7 22.1387 124.4 22.1387Z" fill="#FFCEB4" stroke="black" stroke-width="2"/>
<path d="M110 110.638C110 110.638 107.957 107.282 108.011 102.479C108.076 96.7326 114.132 92.9852 118.409 90.3382C120.501 89.0434 122.168 88.0119 122.5 87.1385C122.5 87.1385 118.511 86.7695 116 87.1385C113.372 87.5245 109.5 89.1386 109.5 89.1386C109.5 89.1386 99.7496 85.444 97.5 80C94.3565 72.3927 105.5 60.5 105.5 60.5C105.5 60.5 92.5 71 92.5 80C92.5 84.7046 107 93.5 107 93.5C107 93.5 102.634 94.0994 101.5 97.5C100.633 100.102 107.664 108.074 109.545 110.143C109.832 110.445 110 110.638 110 110.638Z" fill="#292929"/>
<path d="M127 65L124.5 74.5C124.5 74.5 116.08 67.4098 113.5 70.5C111.834 72.4958 112.336 74.625 113 77.1386C114.212 81.7241 122.5 84.7046 122.5 84.7046C121.874 83.1556 120.121 81.8979 118.431 80.6856C116.047 78.9759 113.79 77.3567 115 75.1385C116.802 71.8347 119.564 75.3828 122.857 79.6125C125.045 82.4241 127.469 85.537 130 87.1385C133.564 89.3932 136.398 90.1085 139.608 90.9188C141.393 91.3691 143.293 91.8488 145.5 92.6385C149.195 93.9605 156.303 98.3865 158.154 101.687C157.258 99.7316 154.641 94.5744 150.5 91C147.414 88.3358 142.862 87.4192 138.698 86.5808C133.269 85.4877 128.5 84.5275 128.5 80C128.5 78.8013 128.247 77.8231 127.993 76.8404C127.694 75.6875 127.395 74.5285 127.5 73C127.695 70.1687 127 65 127 65Z" fill="#292929"/>
<path d="M183.291 115.638C187.903 119.674 193.791 122.638 197.791 122.638C197.791 122.638 180.956 112.015 177.5 103.138C174.305 94.9323 181 84 181 84C181 84 173.166 89.1398 170.5 93.5C168.624 96.5679 169.219 100.655 169.814 104.749C170.287 107.998 170.76 111.25 170 114C168.802 118.337 164.5 120.116 164.5 120.116C167.843 119.965 170.894 119.468 172 118.638C176 115.638 173.5 102.638 173.5 102.638L183.291 115.638Z" fill="#292929"/>
<path d="M51.5291 245.776C50.2478 248.222 48.5 249.5 48.5 249.5C48.5 249.5 59.937 247.077 61.5 241.276C62.2372 238.54 60.9214 236.624 59.5251 234.59C58.4072 232.962 57.2378 231.259 57.0291 229C56.3978 222.164 61.5 212 61.5 212C61.5 212 53.021 219.118 51.5291 225.5C50.6704 229.174 51.5291 235.161 51.5291 235.161C54.0801 236.701 53.2467 242.497 51.5291 245.776Z" fill="#292929"/>
<path d="M8.5 227.776C8.33012 231.392 19.7366 234.761 23 235C21.3737 234.706 16.8513 228.21 17.5291 226C17.5291 226 17.7667 222.35 19 220.5C19.8973 219.154 21.7562 218.335 23.8243 217.425C26.3661 216.306 29.2236 215.047 31 212.5C35.6964 205.766 32 191.5 32 191.5C32 191.5 32.9791 205.916 27 210.5C24.617 212.327 19.5 213.116 19.5 213.116C20.6344 213.708 21.5219 214.269 22.0291 214.776C22.891 215.638 20.5482 217.091 17.5808 218.931C13.6626 221.36 8.65556 224.465 8.5 227.776Z" fill="#292929"/>
<path d="M154.5 247.5C160.425 244.774 164.248 235.408 164.488 234.806C164.247 235.417 160.526 245.072 164.5 248.276C164.5 248.276 165.45 247.935 166.91 247.353C166.627 244.828 166.252 240.588 166.5 237.5C166.868 232.919 169 226 169 226C169 226 162.522 234.731 157.5 239.5C153.529 243.271 146.561 248.276 146.561 248.276C148.989 248.863 151.388 248.932 154.5 247.5Z" fill="#292929"/>
<path d="M177.5 245.776C181.884 243.881 187.529 238.776 187.529 238.776C189.688 242.015 189.882 242.136 190.49 242.515C190.726 242.663 191.026 242.85 191.529 243.276C191.529 243.276 201.127 230.783 199.5 222.276C198.348 216.249 191.936 215.325 186.566 214.551C182.839 214.014 179.615 213.549 179 211.5C177.981 208.104 181.5 203 181.5 203C181.5 203 176.577 206.282 175.5 211.5C174.535 216.177 179.151 217.181 184.034 218.242C188.441 219.2 193.065 220.205 194 224C195.693 230.87 189.867 234.452 183.751 238.212C182.143 239.2 180.516 240.2 179 241.276C175.504 243.756 170.037 246.107 166.91 247.353C167.057 248.654 167.178 249.5 167.178 249.5C169.501 249.847 171.91 248.593 174.461 247.266C175.451 246.751 176.463 246.224 177.5 245.776Z" fill="#292929"/>
<path d="M226.529 232.776C230.926 232.264 237.698 226.055 238 221.638C238.018 221.37 238.018 221.117 238 220.877C238 220.877 233.61 217.421 228 214C226.972 213.373 225.585 212.937 224.209 212.504C221.684 211.71 219.196 210.927 219.029 209C218.711 205.332 221.749 203.417 224.782 201.505C227.823 199.588 230.858 197.675 230.5 194C230.094 189.834 226.054 188.887 221.942 187.923C217.914 186.979 213.817 186.018 213 182C211.531 174.774 221.5 165.138 221.5 165.138C221.5 165.138 206.629 173.677 208 182C208.651 185.949 212.409 186.988 216.191 188.035C219.938 189.071 223.709 190.114 224.5 194C225.291 197.885 222.407 200.175 219.453 202.52C216.469 204.889 213.413 207.315 214 211.5C214.633 216.019 218.955 216.44 223.145 216.848C227.384 217.26 231.487 217.66 231.5 222.276C231.512 226.813 226.529 232.776 226.529 232.776Z" fill="#292929"/>
<path d="M53.5291 136.276C56.2627 131.98 56.0291 116.776 56.0291 116.776C58.8654 117.421 60.3539 117.214 61.9015 116.999C62.6979 116.889 63.5098 116.776 64.5291 116.776C66.0493 116.776 65.9615 117.943 65.8607 119.284C65.7625 120.589 65.652 122.058 67 122.776C71.319 125.076 75.5004 121.66 77.5 116.776C77.612 116.502 76.8981 115.533 75.9349 114.225C73.862 111.41 70.6345 107.028 72 104.638C74 101.138 95.6302 104.638 95.5 109.138C95.4074 112.342 93 116.776 93 116.776C93 116.776 99.9111 108.362 98 105C95.8549 101.227 93.3596 101.106 89.4194 100.915C87.9879 100.845 86.3655 100.767 84.5 100.5L84.4579 100.494C80.0605 99.8658 75.7801 99.2544 74.5 95C73.242 90.819 79.5 85 79.5 85C79.5 85 72.0136 87.9058 71.5 92.6385C71.2451 94.9875 71.5 99.5 71.5 99.5C71.5 99.5 68.815 100.353 67 102.479C65.7098 103.991 65.8105 105.633 65.9088 107.234C66.0134 108.939 66.1152 110.598 64.5291 112C62.4263 113.859 60.2166 114.206 57.5 113.5C53.8697 112.557 52.5656 109.596 51.5 106C49.6863 99.8788 58 91 58 91C58 91 49.2104 97.161 48.5 103.138C47.8877 108.29 53 115.638 53 115.638C53 115.638 51.0299 121.529 50.8411 125.5C50.6158 130.24 53.5291 136.276 53.5291 136.276Z" fill="#292929"/>
<path d="M49 150.389C48.2454 149.391 47.4245 148.362 46.5291 147.276L50.8411 140.5C50.8411 140.5 45.9826 140.28 43 141C38.1924 142.161 32 147.276 32 147.276C32 147.276 37.8428 145.202 41.5 146C44.8156 146.724 49 150.389 49 150.389Z" fill="#292929"/>
<path fill-rule="evenodd" clip-rule="evenodd" d="M109.545 110.143C109.833 110.46 110 110.638 110 110.638C110 110.638 109.832 110.445 109.545 110.143ZM158.154 101.687C158.383 102.188 158.5 102.479 158.5 102.479C158.424 102.225 158.307 101.96 158.154 101.687Z" fill="black"/>
<path d="M191.5 141.638C194.5 144.638 196 142.138 196 142.138C196 142.138 193.738 160.082 192.029 168.138C192.029 168.138 194.956 155.051 199.5 148C203.093 142.424 211 135.5 211 135.5C211 135.5 206.522 138.269 202.5 139.5C198.864 140.613 191.5 141.638 191.5 141.638Z" fill="#292929"/>
<path d="M15.5 143.139C15.5 143.139 -2.00024 156.276 0.499756 167.276C0.499756 167.276 4.20678 160.136 7.24231 156C13.5809 147.363 27.5 137.5 27.5 137.5C27.5 137.5 20.9377 140.865 16.5 140.5C12.3471 140.159 6.70175 136.276 6.70175 136.276C10.1399 140.453 15.5 143.139 15.5 143.139Z" fill="#292929"/>
<path d="M24.9262 59.8054C23.1594 62.2995 21.319 64.8977 21.5 67.6386C21.5499 68.3941 21.7065 68.9954 21.9399 69.5C21.9399 69.5 27.4538 59.2127 33 54.5C38.9663 49.4303 50.66 45.9769 52.6946 45.4022L37.0945 49.7349L37.0882 49.7369C36.6823 49.8678 36.2373 49.9825 35.7631 50.1047C33.1728 50.7723 29.7122 51.6642 27 56.6386C26.4339 57.677 25.6869 58.7316 24.9262 59.8054Z" fill="#292929"/>
<path d="M228.402 65.2269C226.678 65.0339 224.864 64.8308 223 64.1385C223 64.1385 218.347 61.8352 214.915 58.6837C215.523 59.7267 215.936 61.1668 215.5 63C214.508 67.1697 208.981 69.6981 207.414 70.3383C209.979 69.3602 223.836 64.4094 231.5 68.5C235.194 70.4716 239.5 75.6385 239.5 75.6385C236.955 66.1842 232.999 65.7415 228.402 65.2269Z" fill="#292929"/>
<path fill-rule="evenodd" clip-rule="evenodd" d="M70.5 19.1386C65.3209 22.4877 62.4156 22.5039 55.7457 22.5411C53.969 22.551 51.9251 22.5624 49.5 22.6386C39.011 22.9685 39.3213 38.0107 39.4626 44.8638C39.4767 45.5434 39.489 46.1424 39.489 46.6386C39.489 48.5934 38.5407 49.2677 37.0945 49.7349L52.6946 45.4022C50.66 45.9769 38.9663 49.4303 33 54.5C27.4538 59.2127 21.9399 69.5 21.9399 69.5C22.3945 70.4827 23.1405 71.0988 23.9571 71.7733C25.2551 72.8455 26.7316 74.0651 27.5 77.1386C28.116 79.6027 25.8348 79.8742 22.7714 80.2389C18.3752 80.7623 12.3681 81.4774 11 89.1386C9.69472 96.4483 12.0043 98.8793 13.7611 100.729C15.3691 102.421 16.514 103.626 14 107.639C13.0283 109.189 12.1246 110.577 11.2876 111.862C7.59316 117.533 5.19895 121.209 3.99976 128.139C3.47441 131.175 4.79142 133.955 6.70175 136.276C6.70175 136.276 12.3471 140.159 16.5 140.5C20.9377 140.865 27.5 137.5 27.5 137.5C27.5 137.5 13.5809 147.363 7.24231 156C4.20678 160.136 0.499756 167.276 0.499756 167.276C1.89308 173.407 7.0229 176.943 11.2915 179.885C14.682 182.223 17.5291 184.185 17.5291 186.776C17.5291 189.759 12.012 192.386 7.24231 194.657C4.01738 196.193 1.13418 197.566 0.529134 198.776C-0.2798 200.394 -0.00712597 201.69 0.335692 203.32C0.399928 203.626 0.466627 203.943 0.529134 204.276C0.728511 205.339 5.37324 207.191 10.341 209.171C13.6595 210.494 17.1221 211.875 19.5 213.116C19.5 213.116 24.617 212.327 27 210.5C32.9791 205.916 32 191.5 32 191.5C32 191.5 35.6964 205.766 31 212.5C29.2236 215.047 26.3661 216.306 23.8243 217.425C21.7562 218.335 19.8973 219.154 19 220.5C17.7667 222.35 17.5291 226 17.5291 226C18.5317 222.732 19.9216 222.245 22.7089 221.271C23.7638 220.901 25.019 220.462 26.5291 219.776C28.6806 218.798 30.2193 220.53 31.5291 222.276C33.2865 224.619 31.5291 229.776 31.5291 229.776C31.5291 229.776 37.0291 229.776 39.5291 227.776C40.6443 226.884 40.1909 228.068 39.5136 229.836C38.6724 232.033 37.4858 235.131 38.5291 236.276C40.186 238.094 42.3736 237.191 44.8302 236.178C46.4693 235.502 48.2282 234.776 50.0291 234.776C50.6232 234.776 51.1197 234.914 51.5291 235.161C51.5291 235.161 50.6704 229.174 51.5291 225.5C53.021 219.118 61.5 212 61.5 212C61.5 212 56.3978 222.164 57.0291 229C57.2378 231.259 58.4072 232.962 59.5251 234.59C60.9214 236.624 62.2372 238.54 61.5 241.276C59.937 247.077 48.5 249.5 48.5 249.5C48.5 249.5 53.2181 250.077 57.0291 248.276C61.0549 246.374 63.2289 244.738 66.0291 241.276C66.0291 241.276 70.5477 240.826 72.5 242.5C73.5876 243.433 73.5566 244.713 73.5254 246.001C73.4947 247.268 73.4639 248.543 74.5 249.5C78.3623 253.067 86 242.5 86 242.5C86 242.5 93.4633 252.475 98 249.5C100.332 247.971 101.5 243.276 101.5 243.276C101.5 243.276 123.584 243.55 137.5 245.776C139.805 246.145 141.719 246.773 143.477 247.35C144.545 247.701 145.556 248.033 146.561 248.276C146.561 248.276 153.529 243.271 157.5 239.5C162.522 234.731 169 226 169 226C169 226 166.868 232.919 166.5 237.5C166.252 240.588 166.627 244.828 166.91 247.353C165.45 247.935 164.5 248.276 164.5 248.276C165.382 248.987 166.274 249.365 167.178 249.5C167.178 249.5 167.057 248.654 166.91 247.353C170.037 246.107 175.504 243.756 179 241.276C180.516 240.2 182.143 239.2 183.751 238.212C189.867 234.452 195.693 230.87 194 224C193.065 220.205 188.441 219.2 184.034 218.242C179.151 217.181 174.535 216.177 175.5 211.5C176.577 206.282 181.5 203 181.5 203C181.5 203 177.981 208.104 179 211.5C179.615 213.549 182.839 214.014 186.566 214.551C191.936 215.325 198.348 216.249 199.5 222.276C201.127 230.783 191.529 243.276 191.529 243.276C199.423 249.959 214 249.5 216.5 243.276L217.5 229.776C219.086 229.442 220.598 230.339 222.119 231.241C223.558 232.095 225.005 232.953 226.529 232.776C226.529 232.776 231.512 226.813 231.5 222.276C231.487 217.66 227.384 217.26 223.145 216.848C218.955 216.44 214.633 216.019 214 211.5C213.413 207.315 216.469 204.889 219.453 202.52C222.407 200.175 225.291 197.885 224.5 194C223.709 190.114 219.938 189.071 216.191 188.035C212.409 186.988 208.651 185.949 208 182C206.629 173.677 221.5 165.138 221.5 165.138C221.5 165.138 211.531 174.774 213 182C213.817 186.018 217.914 186.979 221.942 187.923C226.054 188.887 230.094 189.834 230.5 194C230.858 197.675 227.823 199.588 224.782 201.505C221.749 203.417 218.711 205.332 219.029 209C219.196 210.927 221.684 211.71 224.209 212.504C225.585 212.937 226.972 213.373 228 214C233.61 217.421 238 220.877 238 220.877C237.852 218.883 236.515 217.789 234.931 216.494C234.467 216.115 233.982 215.718 233.5 215.276C233.5 215.276 248.5 204.138 248.5 201.138C248.5 200.459 248.52 199.799 248.54 199.163C248.716 193.506 248.834 189.689 234.029 190.138C229.906 190.264 227.567 184.836 228.5 180.638C228.894 178.867 232.93 177.483 237.528 175.906C244.607 173.478 253.016 170.595 251.5 165.138C250.499 161.536 247.976 160.096 245.31 158.575C241.841 156.596 238.129 154.478 237.213 147.276C237.213 147.276 235.9 148.719 234.931 149.5C230.71 152.901 221.5 153 221.5 153C221.5 153 230.139 151.504 232.5 147.276C233.669 145.181 233.253 143.306 232.813 141.326C232.466 139.761 232.104 138.131 232.5 136.276C234.199 128.319 244.558 119.284 244.558 119.284C244.545 119.07 244.525 118.854 244.5 118.638C243.928 113.781 241.138 113.324 239.093 112.989C237.559 112.738 236.445 112.556 237 110.638C237.671 108.319 239.141 107.397 240.532 106.524C241.824 105.713 243.049 104.945 243.5 103.138C244.463 99.2829 241.537 98.2949 238.266 97.1906C235.598 96.2901 232.702 95.3122 231.5 92.6385C229.993 89.2859 232.079 88.119 234.566 86.7282C237.691 84.9801 241.449 82.8782 239.5 75.6385C239.5 75.6385 235.194 70.4716 231.5 68.5C223.836 64.4094 209.979 69.3602 207.414 70.3383C208.981 69.6981 214.508 67.1697 215.5 63C215.936 61.1668 215.523 59.7267 214.915 58.6837C214.208 58.0338 213.552 57.3478 213 56.6385C210.148 52.975 210.491 49.0851 210.823 45.3174C211.176 41.314 211.517 37.4484 208 34.1385C203.981 30.3564 199.069 29.8153 194.319 29.2921C189.022 28.7086 183.927 28.1474 180.5 23.1388C177.77 19.1489 177.069 16.0409 176.432 13.2222C175.554 9.32969 174.8 5.98887 169 1.63878C165 -1.36128 155.389 0.449113 152.5 1.63861C148.178 3.41834 146.7 5.23366 145.436 6.78539C144.215 8.2852 143.195 9.53878 140 10.276C137.034 10.9604 135.422 9.63853 133.595 8.14116C131.418 6.35672 128.937 4.32304 123.5 5.13864C118.883 5.83125 116.184 7.05688 113.829 8.1264C111.084 9.37315 108.806 10.4078 104.5 10.1386C101.44 9.94736 99.5074 8.03663 97.5206 6.07188C94.3139 2.90074 90.9648 -0.411118 82.5 3.13864C73.1079 7.07726 73.1001 10.5602 73.0931 13.6371C73.0886 15.6381 73.0845 17.4674 70.5 19.1386ZM56.0291 176C55.7995 174.852 55.7101 173.651 55.6134 172.351C55.4995 170.819 55.3754 169.152 55 167.276C54.8832 166.692 54.7717 166.126 54.6633 165.576C53.4367 159.349 52.6132 155.168 49 150.389C49 150.389 44.8156 146.724 41.5 146C37.8428 145.202 32 147.276 32 147.276C32 147.276 38.1924 142.161 43 141C45.9826 140.28 50.8411 140.5 50.8411 140.5L53.5291 136.276C53.5291 136.276 50.6158 130.24 50.8411 125.5C51.0299 121.529 53 115.638 53 115.638C53 115.638 47.8877 108.29 48.5 103.138C49.2104 97.161 58 91 58 91C58 91 49.6863 99.8788 51.5 106C52.5656 109.596 53.8697 112.557 57.5 113.5C60.2166 114.206 62.4263 113.859 64.5291 112C66.1152 110.598 66.0134 108.939 65.9088 107.234C65.8105 105.633 65.7098 103.991 67 102.479C68.815 100.353 71.5 99.5 71.5 99.5C71.5 99.5 71.2451 94.9875 71.5 92.6385C72.0136 87.9058 79.5 85 79.5 85C79.5 85 73.242 90.819 74.5 95C75.7801 99.2544 80.0605 99.8658 84.4579 100.494L84.5 100.5C86.3655 100.767 87.9879 100.845 89.4194 100.915C93.3596 101.106 95.8549 101.227 98 105C99.9111 108.362 93 116.776 93 116.776C93 116.776 100.5 114.138 102 108.638C103.259 104.021 108.042 108.565 109.545 110.143C107.664 108.074 100.633 100.102 101.5 97.5C102.634 94.0994 107 93.5 107 93.5C107 93.5 92.5 84.7046 92.5 80C92.5 71 105.5 60.5 105.5 60.5C105.5 60.5 94.3565 72.3927 97.5 80C99.7496 85.444 109.5 89.1386 109.5 89.1386C109.5 89.1386 113.372 87.5245 116 87.1385C118.511 86.7695 122.5 87.1385 122.5 87.1385C122.84 86.2437 122.798 85.4412 122.5 84.7046C122.5 84.7046 114.212 81.7241 113 77.1386C112.336 74.625 111.834 72.4958 113.5 70.5C116.08 67.4098 124.5 74.5 124.5 74.5L127 65C127 65 127.695 70.1687 127.5 73C127.395 74.5285 127.694 75.6875 127.993 76.8404C128.247 77.8231 128.5 78.8013 128.5 80C128.5 84.5275 133.269 85.4877 138.698 86.5808C142.862 87.4192 147.414 88.3358 150.5 91C154.641 94.5744 157.258 99.7316 158.154 101.687C158.307 101.96 158.424 102.225 158.5 102.479C159.037 104.275 157.728 106.034 156.219 108.062C154.216 110.754 151.859 113.92 153 118.276C153.387 119.753 159.297 120.352 164.5 120.116C164.5 120.116 168.802 118.337 170 114C170.76 111.25 170.287 107.998 169.814 104.749C169.219 100.655 168.624 96.5679 170.5 93.5C173.166 89.1398 181 84 181 84C181 84 174.305 94.9323 177.5 103.138C180.956 112.015 197.791 122.638 197.791 122.638C199.712 122.638 197.644 126.331 195.308 130.5C192.781 135.011 189.941 140.08 191.5 141.638C191.5 141.638 198.864 140.613 202.5 139.5C206.522 138.269 211 135.5 211 135.5C211 135.5 203.093 142.424 199.5 148C194.956 155.051 192.029 168.138 192.029 168.138C188.26 185.911 183.431 189.386 180.974 191.154C180.804 191.276 180.646 191.39 180.5 191.5C180.5 191.5 170 204.276 125.5 204.276C62 204.276 56.0291 176 56.0291 176Z" fill="black"/>
<path d="M237 143.638C237 138.993 239.023 134.953 240.979 131.047C242.93 127.149 244.816 123.385 244.558 119.284C244.558 119.284 234.199 128.319 232.5 136.276C232.104 138.131 232.466 139.761 232.813 141.326C233.253 143.306 233.669 145.181 232.5 147.276C230.139 151.504 221.5 153 221.5 153C221.5 153 230.71 152.901 234.931 149.5C235.9 148.719 237.213 147.276 237.213 147.276C237.075 146.186 237 144.979 237 143.638Z" fill="#292929"/>
<path d="M88 141C88 137.686 90.6863 135 94 135C97.3137 135 100 137.686 100 141V143V144V154C100 157.314 97.3137 160 94 160C90.6863 160 88 157.314 88 154V144V143V141Z" fill="black"/>
<path d="M148 141C148 137.686 150.686 135 154 135C157.314 135 160 137.686 160 141V154C160 157.314 157.314 160 154 160C150.686 160 148 157.314 148 154V141Z" fill="black"/>
<path d="M84 179.5C84 182.538 77.0604 185 68.5 185C59.9396 185 53 182.538 53 179.5C53 176.462 59.9396 174 68.5 174C77.0604 174 84 176.462 84 179.5Z" fill="#F9A9E7"/>
<path d="M197 179.5C197 182.538 190.06 185 181.5 185C172.94 185 166 182.538 166 179.5C166 176.462 172.94 174 181.5 174C190.06 174 197 176.462 197 179.5Z" fill="#F9A9E7"/>
<path d="M115.147 183.763C115.312 182.942 116.307 182.525 117.064 182.881C118.569 183.588 121.114 184.469 124.5 184.5C128.11 184.533 131.06 183.581 132.798 182.842C133.562 182.518 134.5 183.072 134.5 183.903C134.5 184.274 134.308 184.616 133.977 184.784C132.692 185.439 129.142 187 124.5 187C120.08 187 116.933 185.584 115.646 184.884C115.245 184.666 115.058 184.21 115.147 183.763Z" fill="black"/>
<path d="M88 143C88 143 86.8027 143.562 86 143.5C85.7414 143.48 85.4353 143.389 85.1673 143.289C84.8554 143.174 84.5 143.395 84.5 143.728C84.5 143.895 84.5932 144.048 84.7457 144.116C85.0523 144.254 85.5867 144.468 86 144.5C86.8027 144.562 88 144 88 144V143Z" fill="black"/>
<path d="M162 143.5C161.197 143.562 160 143 160 143V144C160 144 161.197 144.562 162 144.5C162.413 144.468 162.948 144.254 163.254 144.116C163.407 144.048 163.5 143.895 163.5 143.728C163.5 143.395 163.145 143.174 162.833 143.289C162.565 143.389 162.259 143.48 162 143.5Z" fill="black"/>
</svg>
