<svg width="260" height="225" viewBox="0 0 260 225" fill="none" xmlns="http://www.w3.org/2000/svg">
<path d="M126.47 29.2681C160.478 29.2682 184.866 43.8082 197.671 63.4312L198.445 64.6372C213.786 88.9686 212.308 112.222 207.26 131.915C208.138 131.431 209.238 130.863 210.465 130.318C213.454 128.988 217.423 127.68 220.74 128.285L221.166 128.368C225.516 129.281 228.563 131.818 230.372 135.24C232.106 138.521 232.682 142.569 232.282 146.725L232.189 147.558C231.525 152.785 230.255 157.677 227.715 161.909C225.243 166.026 221.6 169.467 216.26 171.993L215.737 172.234C211.771 174.029 206.178 174.645 201.685 174.832C199.418 174.926 197.391 174.912 195.931 174.875C195.384 174.86 194.916 174.842 194.544 174.826C194.474 175.869 194.476 176.854 194.557 177.78L194.562 177.842L194.56 177.904C194.319 184.582 191.75 188.649 187.619 193.31L186.772 194.25C178.917 202.866 164.907 207.078 152.491 209.167C140.012 211.268 128.858 211.268 126.47 211.268C124.066 211.268 114.962 211.144 103.819 209.208C93.0389 207.334 80.2641 203.751 69.7996 196.876L68.7947 196.201C65.3621 193.841 62.7336 191.1 60.9773 187.494C59.3365 184.125 58.4895 180.067 58.3894 174.979C58.0177 174.99 57.5564 175.001 57.0212 175.005C55.5353 175.017 53.4738 174.988 51.1716 174.823C46.7548 174.507 41.2903 173.682 37.3367 171.582L36.9587 171.375C26.6336 165.522 21.0701 156.691 21.0701 146.777L21.0837 145.905C21.2233 141.542 22.4177 137.177 24.907 133.81C27.5902 130.18 31.7334 127.777 37.4519 127.777C42.0095 127.777 45.6783 129.793 48.1726 131.755C48.3787 131.918 48.5765 132.081 48.7673 132.242C45.8409 123.881 43.3505 115.515 43.3591 105.889C43.3693 94.5512 46.8375 81.5638 56.8845 64.7729L57.4714 63.8208C63.6839 54.0205 74.4857 45.509 86.7517 39.396C99.4222 33.0814 113.77 29.2681 126.47 29.2681Z" fill="#FFCEB4" stroke="black" stroke-width="2"/>
<path d="M31.5701 218.976C33.5697 219.264 35.5827 219.508 37.5703 219.768C38.3818 219.874 39.218 219.964 40.0701 220.039C40.0701 220.039 35.233 216.544 32.5701 213.268C28.7143 208.525 25.0701 198.768 25.0701 198.768C25.0701 198.768 26.0897 207.024 27.5701 211.268C28.93 215.167 31.5701 218.976 31.5701 218.976Z" fill="#292929"/>
<path d="M25.0701 110.268C25.0701 110.268 17.6274 136.211 18.5701 152.768C19.8662 175.533 34.0701 199.268 39.0701 200.768C45.3432 202.65 57.6632 204.268 57.6632 204.268C57.6632 204.268 49.7889 173.344 50.0701 156.268C50.3293 140.523 57.6632 118.268 57.6632 118.268C57.1536 115.838 56.6358 113.067 56.2426 110.268C56.2426 110.268 47.9842 136.423 46.5701 153.768C45.1557 171.116 52.0701 198.768 52.0701 198.768C52.0701 198.768 45.9727 197.5 44.0701 196.768C37.5703 194.267 26.245 176.324 22.5701 158.268C19.0987 141.212 25.0701 110.268 25.0701 110.268Z" fill="#292929"/>
<path d="M63.5701 70.2681C63.5701 70.2681 55.4548 89.3016 55.5701 102.268C55.5923 104.765 55.8578 107.53 56.2426 110.268C56.6358 113.067 57.1536 115.838 57.6632 118.268C58.6313 122.884 59.5701 126.268 59.5701 126.268H63.5701C63.5701 126.268 59.1045 112.136 58.5701 102.768C57.8386 89.9476 63.5701 70.2681 63.5701 70.2681Z" fill="#292929"/>
<path d="M40.5701 65.7681C40.5701 65.7681 34.9615 72.9888 32.5701 78.2681C29.5803 84.8682 28.0701 96.2681 28.0701 96.2681C28.0701 96.2681 26.0867 82.7563 30.0701 75.7681C32.8743 70.8486 40.5701 65.7681 40.5701 65.7681Z" fill="#292929"/>
<path d="M124.57 16.2681C124.57 16.2681 131.009 20.4949 135.57 22.2681C146.151 26.3817 164.57 22.7681 164.57 22.7681C164.57 22.7681 147.227 23.1289 136.57 20.7681C131.669 19.6823 124.57 16.2681 124.57 16.2681Z" fill="#292929"/>
<path d="M205.07 66.7681C205.07 66.7681 212.577 75.8341 215.07 82.7681C218.054 91.0694 217.07 105.268 217.07 105.268C217.07 105.268 221.686 91.3807 219.07 82.7681C216.421 74.0447 205.07 66.7681 205.07 66.7681Z" fill="#292929"/>
<path d="M197.07 100.768C197.432 108.243 195.57 121.768 195.57 121.768L195.07 132.768C195.07 132.768 198.039 123.148 199.337 113.014C199.951 108.227 200.191 103.325 199.57 99.2681C197.838 87.9591 188.57 74.7681 188.57 74.7681C188.57 74.7681 196.511 89.2347 197.07 100.768Z" fill="#292929"/>
<path d="M195.07 132.768L192.57 187.768C192.57 187.768 190.15 202.704 191.07 204.268C192.207 206.201 208.57 210.268 208.57 210.268C208.57 210.268 228.556 185.643 232.07 166.268C234.692 151.812 231.07 129.268 231.07 129.268C231.07 129.268 232.973 157.808 226.57 174.268C221.171 188.149 209.287 206.98 205.07 205.768C200.853 204.556 198.529 203.008 195.57 199.768C192.421 196.319 194.643 188.328 197.074 179.584C198.541 174.309 200.084 168.759 200.57 163.768C202.586 143.042 199.337 113.014 199.337 113.014C198.039 123.148 195.07 132.768 195.07 132.768Z" fill="#292929"/>
<path fill-rule="evenodd" clip-rule="evenodd" d="M224.07 216.441C224.07 216.441 224.478 214.213 224.57 212.768C224.834 208.634 223.07 202.268 223.07 202.268C223.07 202.268 219.925 211.696 218.07 215.268C215.349 220.507 210.57 224.268 210.57 224.268C218.114 224.268 219.73 218.142 220.635 214.711C221.169 212.684 221.456 211.597 222.57 213.268C222.907 213.773 223.471 215.016 224.07 216.441ZM169.57 121.768C169.57 121.768 160.07 122.087 153.57 119.268C150.654 118.003 148.986 116.614 147.57 113.768C145.735 110.08 147.07 102.768 147.07 102.768C147.07 102.768 143.808 107.688 144.07 111.268C144.293 114.316 147.07 118.268 147.07 118.268C147.07 118.268 144.732 119.628 143.07 119.768C141.694 119.884 137.805 118.886 136.57 118.268C132.57 116.268 126.257 105.781 122.57 94.2681C118.985 83.0717 121.07 62.7681 121.07 62.7681C121.07 62.7681 117.817 72.7032 117.07 79.2681C116.361 85.5036 117.07 94.7681 117.07 94.7681C117.07 94.7681 128.57 120.587 133.57 122.087C137.007 123.118 168.57 123.768 169.57 121.768ZM113.799 127.37C113.799 127.37 105.448 127.869 101.07 127.37C100.773 127.336 100.487 127.304 100.211 127.273C96.3017 126.834 94.3551 126.616 91.0701 124.768C81.2032 119.219 82.0701 93.2681 82.5701 88.2681C84.3121 70.8478 87.0701 55.7681 87.0701 55.7681C87.0701 55.7681 80.3028 78.7837 80.0701 94.2681C79.8795 106.947 83.0701 126.268 83.0701 126.268H86.0701L84.5701 121.768L90.0701 128.768C90.0701 128.768 107.98 129.865 113.799 127.37Z" fill="#292929"/>
<path fill-rule="evenodd" clip-rule="evenodd" d="M2.57013 139.268C5.18293 119.022 8.30173 106.344 15.5702 87.2681C17.5351 82.1113 19.0964 77.5326 20.5336 73.3179C25.5067 58.7342 28.9938 48.508 42.5702 33.7679C60.0702 14.7679 78.0702 4.26811 101.57 0.767911C120.664 -2.07602 136.815 3.65276 146.201 6.98167C148.367 7.74986 150.172 8.39025 151.57 8.76801C156.163 10.0088 160.195 10.4097 164.186 10.8064C168.628 11.248 173.018 11.6845 178.07 13.268C211.57 23.768 225.07 48.268 233.57 68.268C238.734 80.4174 240.19 89.6993 241.893 100.555C242.993 107.569 244.197 115.241 246.57 124.768C248.184 131.246 249.745 136.951 251.184 142.213C255.731 158.832 259.07 171.04 259.07 189.268C259.07 213.268 240.57 222.768 240.57 222.768C235.57 224.768 226.57 222.768 226.57 222.768C226.57 222.768 225.251 219.249 224.07 216.441C224.07 216.441 224.478 214.213 224.57 212.768C224.834 208.634 223.07 202.268 223.07 202.268C223.07 202.268 219.925 211.696 218.07 215.268C215.349 220.507 210.57 224.268 210.57 224.268H164.57L150.07 222.768L149.07 208.768C181.623 202.949 192.57 187.768 192.57 187.768C192.57 187.768 190.15 202.704 191.07 204.268C192.207 206.201 208.57 210.268 208.57 210.268C208.57 210.268 228.556 185.643 232.07 166.268C234.692 151.812 231.07 129.268 231.07 129.268C231.07 129.268 232.973 157.808 226.57 174.268C221.171 188.149 209.287 206.98 205.07 205.768C200.853 204.556 198.529 203.008 195.57 199.768C192.421 196.319 194.643 188.328 197.074 179.584C198.541 174.309 200.084 168.759 200.57 163.768C202.586 143.042 199.337 113.014 199.337 113.014C199.951 108.227 200.191 103.325 199.57 99.2681C197.838 87.9591 188.57 74.7681 188.57 74.7681C188.57 74.7681 196.511 89.2347 197.07 100.768C197.432 108.243 195.57 121.768 195.57 121.768C195.57 121.768 185.168 122.21 179.57 119.268C172.686 115.651 170.201 110.886 167.07 103.768C162.431 93.2211 166.57 74.2681 166.57 74.2681C166.57 74.2681 159.396 93.5347 163.07 105.268C164.982 111.372 169.57 119.268 169.57 119.268L169.945 119.959C169.978 120.539 169.878 121.151 169.57 121.768C169.57 121.768 160.07 122.087 153.57 119.268C150.654 118.003 148.986 116.614 147.57 113.768C145.735 110.08 147.07 102.768 147.07 102.768C147.07 102.768 143.808 107.688 144.07 111.268C144.293 114.316 147.07 118.268 147.07 118.268C147.07 118.268 144.732 119.628 143.07 119.768C141.694 119.884 137.805 118.886 136.57 118.268C132.57 116.268 126.257 105.781 122.57 94.2681C118.985 83.0717 121.07 62.7681 121.07 62.7681C121.07 62.7681 117.817 72.7032 117.07 79.2681C116.361 85.5036 117.07 94.7681 117.07 94.7681C117.07 94.7681 115.787 124.792 115.57 125.768C115.425 126.421 114.786 126.947 113.799 127.37C113.799 127.37 105.448 127.869 101.07 127.37C100.773 127.336 100.487 127.304 100.211 127.273C96.3017 126.834 94.3551 126.616 91.0701 124.768C81.2032 119.219 82.0701 93.2681 82.5701 88.2681C84.3121 70.8478 87.0701 55.7681 87.0701 55.7681C87.0701 55.7681 80.3028 78.7837 80.0701 94.2681C79.8795 106.947 83.0701 126.268 83.0701 126.268H63.5701C63.5701 126.268 59.1045 112.136 58.5701 102.768C57.8386 89.9476 63.5701 70.2681 63.5701 70.2681C63.5701 70.2681 55.4548 89.3016 55.5701 102.268C55.5923 104.765 55.8578 107.53 56.2426 110.268C56.2426 110.268 47.9842 136.423 46.5701 153.768C45.1557 171.116 52.0701 198.768 52.0701 198.768C52.0701 198.768 45.9727 197.5 44.0701 196.768C37.5703 194.267 26.245 176.324 22.5701 158.268C19.0987 141.212 25.0701 110.268 25.0701 110.268C25.0701 110.268 17.6274 136.211 18.5701 152.768C19.8662 175.533 34.0701 199.268 39.0701 200.768C45.3432 202.65 57.6632 204.268 57.6632 204.268C57.6632 204.268 49.7889 173.344 50.0701 156.268C50.3293 140.523 57.6632 118.268 57.6632 118.268C58.6313 122.884 59.5701 126.268 59.5701 126.268V181.268C70.8934 197.323 84.2237 205.688 105.07 208.768L105.57 222.768C105.57 222.768 96.0701 224.268 90.0701 223.768C88.6688 223.651 86.7623 222.576 85.0648 221.619C82.8972 220.396 81.0701 219.366 81.0701 220.768C81.0701 221.342 81.0964 221.837 81.1189 222.258C81.1943 223.674 81.2259 224.268 80.0701 224.268H63.57C61.1001 224.268 62.5701 219.768 62.5701 219.768C62.5701 219.768 50.1957 220.931 40.0701 220.039C40.0701 220.039 35.233 216.544 32.5701 213.268C28.7143 208.525 25.0701 198.768 25.0701 198.768C25.0701 198.768 26.0897 207.024 27.5701 211.268C28.93 215.167 31.5701 218.976 31.5701 218.976C26.0243 218.176 20.5817 217.035 16.0703 214.268C6.61233 208.466 2.33027 203.792 1.07028 192.768C-0.929917 175.268 0.0459599 158.827 2.57013 139.268ZM124.57 16.2681C124.57 16.2681 131.009 20.4949 135.57 22.2681C146.151 26.3817 164.57 22.7681 164.57 22.7681C164.57 22.7681 147.227 23.1289 136.57 20.7681C131.669 19.6823 124.57 16.2681 124.57 16.2681ZM40.5701 65.7681C40.5701 65.7681 34.9615 72.9888 32.5701 78.2681C29.5803 84.8682 28.0701 96.2681 28.0701 96.2681C28.0701 96.2681 26.0867 82.7563 30.0701 75.7681C32.8743 70.8486 40.5701 65.7681 40.5701 65.7681ZM205.07 66.7681C205.07 66.7681 212.577 75.8341 215.07 82.7681C218.054 91.0694 217.07 105.268 217.07 105.268C217.07 105.268 221.686 91.3807 219.07 82.7681C216.421 74.0447 205.07 66.7681 205.07 66.7681Z" fill="black"/>
<path d="M177.57 122.768C179.57 123.531 195.57 121.768 195.57 121.768C195.57 121.768 185.168 122.21 179.57 119.268C172.686 115.651 170.201 110.886 167.07 103.768C162.431 93.2211 166.57 74.2681 166.57 74.2681C166.57 74.2681 159.396 93.5347 163.07 105.268C164.982 111.372 169.57 119.268 169.57 119.268L169.945 119.959C169.836 118.023 168.256 116.448 168.085 116.282C168.387 116.57 173.183 121.094 177.57 122.768Z" fill="#292929"/>
<path d="M90.0701 148.268C90.0701 144.954 92.7564 142.268 96.0701 142.268C99.3838 142.268 102.07 144.954 102.07 148.268V150.268V151.268V161.268C102.07 164.582 99.3838 167.268 96.0701 167.268C92.7564 167.268 90.0701 164.582 90.0701 161.268V151.268V150.268V148.268Z" fill="black"/>
<path d="M150.07 148.268C150.07 144.954 152.756 142.268 156.07 142.268C159.384 142.268 162.07 144.954 162.07 148.268V161.268C162.07 164.582 159.384 167.268 156.07 167.268C152.756 167.268 150.07 164.582 150.07 161.268V148.268Z" fill="black"/>
<path d="M86.0701 186.768C86.0701 189.806 79.1305 192.268 70.5701 192.268C62.0097 192.268 55.0701 189.806 55.0701 186.768C55.0701 183.73 62.0097 181.268 70.5701 181.268C79.1305 181.268 86.0701 183.73 86.0701 186.768Z" fill="#F9A9E7"/>
<path d="M199.07 186.768C199.07 189.806 192.13 192.268 183.57 192.268C175.01 192.268 168.07 189.806 168.07 186.768C168.07 183.73 175.01 181.268 183.57 181.268C192.13 181.268 199.07 183.73 199.07 186.768Z" fill="#F9A9E7"/>
<path d="M117.218 191.031C117.382 190.21 118.377 189.793 119.134 190.149C120.639 190.856 123.184 191.737 126.57 191.768C130.18 191.801 133.13 190.849 134.868 190.111C135.632 189.786 136.57 190.34 136.57 191.171C136.57 191.542 136.378 191.884 136.047 192.052C134.762 192.707 131.212 194.268 126.57 194.268C122.15 194.268 119.003 192.853 117.716 192.152C117.315 191.934 117.128 191.478 117.218 191.031Z" fill="black"/>
<path d="M90.0701 150.268C90.0701 150.268 88.8728 150.83 88.0701 150.768C87.8114 150.748 87.5054 150.657 87.2374 150.557C86.9254 150.442 86.5701 150.663 86.5701 150.996C86.5701 151.163 86.6633 151.316 86.8157 151.384C87.1224 151.522 87.6568 151.736 88.0701 151.768C88.8728 151.83 90.0701 151.268 90.0701 151.268V150.268Z" fill="black"/>
<path d="M164.07 150.768C163.267 150.83 162.07 150.268 162.07 150.268V151.268C162.07 151.268 163.267 151.83 164.07 151.768C164.483 151.736 165.018 151.522 165.324 151.384C165.477 151.316 165.57 151.163 165.57 150.996C165.57 150.663 165.215 150.442 164.903 150.557C164.635 150.657 164.329 150.748 164.07 150.768Z" fill="black"/>
</svg>
