<svg width="214" height="311" viewBox="0 0 214 311" fill="none" xmlns="http://www.w3.org/2000/svg">
<path d="M106.4 56.0366C140.408 56.0367 164.796 70.5768 177.601 90.1997L178.375 91.4058C193.716 115.737 192.238 138.991 187.19 158.683C188.068 158.2 189.168 157.632 190.395 157.086C193.384 155.756 197.353 154.449 200.67 155.053L201.096 155.136C205.446 156.05 208.493 158.586 210.302 162.008C212.036 165.289 212.612 169.337 212.212 173.494L212.119 174.327C211.455 179.554 210.185 184.446 207.645 188.677C205.173 192.794 201.529 196.236 196.189 198.761L195.667 199.002C191.701 200.797 186.108 201.413 181.615 201.6C179.348 201.694 177.321 201.68 175.861 201.643C175.314 201.629 174.846 201.61 174.474 201.594C174.404 202.638 174.405 203.622 174.487 204.548L174.492 204.611L174.49 204.672C174.249 211.35 171.679 215.417 167.549 220.079L166.702 221.019C158.847 229.634 144.837 233.846 132.421 235.936C119.941 238.037 108.788 238.037 106.4 238.037C103.996 238.037 94.892 237.912 83.749 235.976C72.9688 234.103 60.1941 230.52 49.7295 223.645L48.7246 222.969C45.292 220.609 42.6635 217.868 40.9072 214.262C39.2664 210.893 38.4194 206.836 38.3193 201.748C37.9476 201.758 37.4863 201.77 36.9512 201.774C35.4653 201.786 33.4038 201.756 31.1016 201.591C26.6847 201.275 21.2202 200.451 17.2666 198.35L16.8887 198.143C6.56351 192.291 0.999996 183.46 1 173.545L1.01367 172.673C1.15322 168.31 2.34761 163.946 4.83691 160.579C7.52013 156.949 11.6633 154.545 17.3818 154.545C21.9394 154.545 25.6082 156.562 28.1025 158.524C28.3087 158.686 28.5064 158.849 28.6973 159.01C25.7708 150.649 23.2805 142.284 23.2891 132.658C23.2993 121.32 26.7675 108.332 36.8145 91.5415L37.4014 90.5894C43.6138 80.7891 54.4156 72.2776 66.6816 66.1646C79.3521 59.85 93.6998 56.0366 106.4 56.0366Z" fill="#FFCEB4" stroke="black" stroke-width="2"/>
<path d="M36.6184 211.733C34.619 195.733 37.0005 182.536 37.0005 182.536C37.0005 182.536 36.2751 170.573 39.7646 160.537C39.7646 160.537 40.0641 158.042 40.5803 154.537C40.5803 154.537 34.4999 164.169 34.4999 171.037C34.4999 180.286 34.1698 183.459 33.8149 186.87C33.4792 190.097 33.1213 193.537 32.9999 202.537C32.7502 221.048 44.6179 254.733 44.6179 254.733C44.6179 254.733 38.6179 227.733 36.6184 211.733Z" fill="#292929"/>
<path d="M39.7646 160.537C40.373 158.787 41.1096 157.095 42.0005 155.536C42.6698 154.365 43.5204 153.687 44.4999 153.313C44.4999 153.313 45.2564 146.113 45.9999 141.537C47.61 131.626 51.9999 116.537 51.9999 116.537C51.9999 116.537 45.8809 129.819 43.4999 139.037C42.283 143.747 41.2496 149.992 40.5803 154.537C40.0641 158.042 39.7646 160.537 39.7646 160.537Z" fill="#292929"/>
<path d="M12.4999 153.037C13.5419 157.204 22.5 156.537 22.5 156.537C22.5 156.537 22.5 152.548 22.8879 168.037C22.8879 168.037 22.8112 151.964 24.4999 141.537C25.8172 133.402 29.4999 120.537 29.4999 120.537C29.4999 120.537 23.1822 131.293 22.4999 139.037C21.9955 144.761 20.9999 153.537 20.9999 153.537C20.9999 153.537 19.844 154.361 17.9999 154.537C15.4065 154.784 12.4999 153.037 12.4999 153.037Z" fill="#292929"/>
<path d="M65.0005 142.537C62.5288 146.884 57.0005 152.536 57.0005 152.536C58.3963 151.955 59.5041 151.064 60.5437 150.227C61.9688 149.08 63.2656 148.036 65.0005 148.036C65.6267 148.036 66.1113 148.17 66.4999 148.407C66.4999 148.407 67.8899 145.024 68.8588 142.537C70.9851 137.078 69.9999 127.537 69.9999 127.537C69.9999 127.537 68.0523 137.169 65.0005 142.537Z" fill="#292929"/>
<path d="M70.5005 155.536C73.501 158.536 83.3606 150.936 90.0005 145.536C100.575 136.937 103.742 124.917 106.636 113.933L106.806 113.287C107.655 110.069 108.493 106.947 109.501 104.036L109 92.5366C109 92.5366 106.105 119.556 96.4999 133.036C89.6781 142.611 79.4999 152.536 73.9999 153.037C72.0004 153.219 68.8588 153.037 68.8588 153.037C69.2345 153.901 69.7319 154.768 70.5005 155.536Z" fill="#292929"/>
<path d="M100.5 153.037C98 155.536 112.498 149.77 116.001 144.536C117.975 141.586 118.259 139.102 118.609 136.046C118.716 135.107 118.83 134.114 119.001 133.036C120.027 126.556 120.02 123.326 120.004 116.787V116.784V116.78V116.777V116.773C120.002 115.922 120 115.014 120 114.036C120 111.498 121.092 107.424 122.5 109.537C123.149 110.51 123.956 112.63 124.99 115.343C127.142 120.994 130.276 129.222 135.001 135.036L135.542 135.703C142.268 143.988 147.003 149.82 157.5 152.536C157.5 152.536 145 148.036 130 122.037C121.297 106.953 119.001 74.0365 119.001 74.0365C119.001 74.0365 118.463 86.2698 119.001 94.5366C120.237 113.558 117.348 139.037 113.5 144.536C109.223 150.649 100.5 153.037 100.5 153.037Z" fill="#292929"/>
<path d="M168.5 140.537C169.888 145.505 170 153.66 170 153.66C172.822 153.827 174.97 154.156 175.418 155.197C175.045 152.168 174.021 144.696 172.5 140.037C169.198 129.922 156 120.537 156 120.537C156 120.537 166.021 131.666 168.5 140.537Z" fill="#292929"/>
<path d="M186.5 147.037C186.5 147.037 191.208 184.169 188.5 202.537C185.978 219.641 171 239.537 171 239.537C171 239.537 176.444 225.05 177.5 216.537C179.52 200.249 176 174.537 176 174.537C175.842 180.257 175.428 185.687 174.961 191.798C174.643 195.959 174.301 200.436 174 205.537C174 205.537 174.741 218.684 173 226.537C170.03 239.931 157.5 258.037 157.5 258.037C157.5 258.037 187.539 232.64 191 204.537C191.189 202.999 191.316 201.321 191.39 199.537C191.892 187.41 189.933 170.376 188.346 159.037C187.35 151.913 186.5 147.037 186.5 147.037Z" fill="#292929"/>
<path d="M198.5 155.824C199.375 155.784 200.222 155.842 201 156.037C201.939 156.271 202.769 156.567 203.5 156.9C203.5 156.9 204.823 124.973 198.5 107.537C190.88 86.5225 163 66.0367 163 66.0367C163 66.0367 187.14 88.4141 194 107.537C200.395 125.363 198.5 155.824 198.5 155.824Z" fill="#292929"/>
<path d="M192 271.537C199.446 259.078 201.612 250.76 204.5 236.537C206.668 225.857 206.409 218.006 206.118 209.226C205.977 204.958 205.828 200.47 205.948 195.33C204.709 211.675 200.192 255.485 186.5 274.037C175.836 288.485 148.5 310.037 148.5 310.037C147 311.644 181.869 288.488 192 271.537Z" fill="#292929"/>
<path d="M143.5 295.037C158.228 288.106 160 276.037 160 276.037C160 276.037 159.57 279.606 158.574 284.537C158.574 284.537 160.518 279.145 161 275.537C161.491 271.859 161 266.037 161 266.037C161 266.037 157.831 279.433 152.5 286.037C148.402 291.113 139.506 296.537 139.506 296.537C139.393 296.943 140.447 296.473 143.5 295.037Z" fill="#292929"/>
<path d="M79.5005 46.5365C60.3945 51.6124 50.1969 59.3171 37.0005 74.0365C37.0005 74.0365 60.4989 56.5331 74.9999 51.5366C92.9413 45.3547 121 50.0366 121 50.0366C121 50.0366 106.227 46.6617 94.4999 45.722C91.7573 45.5023 89.1814 45.4157 86.9999 45.5366C82.8641 45.7659 79.5005 46.5365 79.5005 46.5365Z" fill="#292929"/>
<path d="M79.5005 46.5365C79.5005 46.5365 82.8641 45.7659 86.9999 45.5366C89.1814 45.4157 91.7573 45.5023 94.4999 45.722C94.4999 45.722 105.734 42.3224 113 43.0366C122.826 44.0026 136 53.5366 136 53.5366C136 53.5366 133.941 51.4854 130.825 49.0366C129.379 47.9005 127.706 46.6788 125.906 45.5366C123.731 44.1569 121.37 42.8932 119.001 42.0366C105.026 36.9857 79.161 44.0366 79.161 44.0366C79.3383 45.5666 79.5005 46.5365 79.5005 46.5365Z" fill="#292929"/>
<path fill-rule="evenodd" clip-rule="evenodd" d="M119.001 42.0366C105.026 36.9857 79.161 44.0366 79.161 44.0366C78.7521 40.5078 78.2633 33.9993 79.5005 29.5367C82.7348 17.8703 90.9777 13.4642 101.432 7.87582L101.434 7.87473C101.951 7.5986 102.473 7.31959 103 7.03666C111.437 2.50756 116.93 0.36016 126.5 0.0366626C133.815 -0.210596 138.033 0.793186 145 3.03666C157.391 7.02693 163.321 12.539 172.807 21.3569L173 21.5367C188.039 35.5155 193.835 46.7954 201 66.0367C206.994 82.1296 207.63 93.1569 208.521 108.603L208.521 108.605C208.666 111.119 208.817 113.749 209 116.537C209.932 130.76 209.932 141.313 209 155.536V161.537C209 161.537 207.44 158.691 203.5 156.9C203.5 156.9 204.823 124.973 198.5 107.537C190.88 86.5225 163 66.0367 163 66.0367C163 66.0367 187.14 88.4141 194 107.537C200.395 125.363 198.5 155.824 198.5 155.824C193.827 156.035 188.346 159.037 188.346 159.037C187.35 151.913 186.5 147.037 186.5 147.037C186.5 147.037 191.208 184.169 188.5 202.537C185.978 219.641 171 239.537 171 239.537C171 239.537 176.444 225.05 177.5 216.537C179.52 200.249 176 174.537 176 174.537C176.151 169.082 176.068 163.363 175.575 156.537C175.575 156.537 175.522 156.038 175.418 155.197C175.045 152.168 174.021 144.696 172.5 140.037C169.198 129.922 156 120.537 156 120.537C156 120.537 166.021 131.666 168.5 140.537C169.888 145.505 170 153.66 170 153.66C169.104 153.607 168.14 153.57 167.14 153.532C163.926 153.41 160.349 153.273 157.5 152.536C157.5 152.536 145 148.036 130 122.037C121.297 106.953 119.001 74.0365 119.001 74.0365C119.001 74.0365 118.463 86.2698 119.001 94.5366C120.237 113.558 117.348 139.037 113.5 144.536C109.223 150.649 100.5 153.037 100.5 153.037C101.84 151.697 102.971 150.248 104.086 148.82C104.555 148.219 105.022 147.621 105.5 147.037C109.696 141.908 110.237 134.486 110.862 125.916C110.907 125.295 110.952 124.669 111 124.037C111.619 115.801 112.202 96.2319 109.501 104.036L109 92.5366C109 92.5366 106.105 119.556 96.4999 133.036C89.6781 142.611 79.4999 152.536 73.9999 153.037C72.0004 153.219 68.8588 153.037 68.8588 153.037C68.6122 152.469 68.4181 151.903 68.234 151.367C67.7923 150.079 67.4089 148.961 66.4999 148.407C66.4999 148.407 67.8899 145.024 68.8588 142.537C70.9851 137.078 69.9999 127.537 69.9999 127.537C69.9999 127.537 68.0523 137.169 65.0005 142.537C62.5288 146.884 57.0005 152.536 57.0005 152.536C54.7007 153.494 52.2259 153.273 49.907 153.065C47.9209 152.888 46.0492 152.72 44.4999 153.313C44.4999 153.313 45.2564 146.113 45.9999 141.537C47.61 131.626 51.9999 116.537 51.9999 116.537C51.9999 116.537 45.8809 129.819 43.4999 139.037C42.283 143.747 41.2496 149.992 40.5803 154.537C40.5803 154.537 34.4999 164.169 34.4999 171.037C34.4999 180.286 34.1698 183.459 33.8149 186.87C33.4792 190.097 33.1213 193.537 32.9999 202.537C32.7502 221.048 44.6179 254.733 44.6179 254.733C44.6179 254.733 24.5 240.037 23.5 194.537C23.2293 182.219 23.0319 173.786 22.8879 168.037C22.8879 168.037 22.8112 151.964 24.4999 141.537C25.8172 133.402 29.4999 120.537 29.4999 120.537C29.4999 120.537 23.1822 131.293 22.4999 139.037C21.9955 144.761 20.9999 153.537 20.9999 153.537C20.9999 153.537 19.844 154.361 17.9999 154.537C15.4065 154.784 12.4999 153.037 12.4999 153.037C9.99953 143.037 11.3931 128.564 15.5005 114.036C20.3255 96.9709 25.162 87.2411 37.0005 74.0365C37.0005 74.0365 60.4989 56.5331 74.9999 51.5366C92.9413 45.3547 121 50.0366 121 50.0366C121 50.0366 106.227 46.6617 94.4999 45.722C94.4999 45.722 105.734 42.3224 113 43.0366C122.826 44.0026 136 53.5366 136 53.5366C136 53.5366 133.941 51.4854 130.825 49.0366C130.825 49.0366 137.419 48.5711 141.5 47.5366C149.541 45.4981 160.5 38.0366 160.5 38.0366C160.5 38.0366 148.454 43.5794 141 45.0366C134.805 46.2477 125.906 45.5366 125.906 45.5366C123.731 44.1569 121.37 42.8932 119.001 42.0366ZM174 205.537C173.884 207.506 173.121 209.437 172.393 211.278C171.658 213.14 170.959 214.91 171 216.537L170.378 217.045L169.604 217.677L169.262 217.957C159.254 226.142 156.785 228.161 144.942 232.425C143.147 240.542 144.95 248.947 146.729 257.245C148.911 267.415 151.057 277.422 146.5 286.537C144.515 290.506 142.044 293.406 140.631 295.064C139.991 295.815 139.568 296.311 139.506 296.537C139.506 296.537 148.402 291.113 152.5 286.037C157.831 279.433 161 266.037 161 266.037C161 266.037 161.491 271.859 161 275.537C160.518 279.145 158.574 284.537 158.574 284.537C156.939 292.626 153.781 304.378 148.5 310.037C148.5 310.037 175.836 288.485 186.5 274.037C200.192 255.485 204.709 211.675 205.948 195.33C206.247 191.382 206.355 189.037 206.355 189.037C206.355 189.037 202.564 194.256 198.5 196.537C196.252 197.798 191.39 199.537 191.39 199.537C191.316 201.321 191.189 202.999 191 204.537C187.539 232.64 157.5 258.037 157.5 258.037C157.5 258.037 170.03 239.931 173 226.537C174.741 218.684 174 205.537 174 205.537Z" fill="black"/>
<path d="M141 45.0366C134.805 46.2477 125.906 45.5366 125.906 45.5366C127.706 46.6788 129.379 47.9005 130.825 49.0366C130.825 49.0366 137.419 48.5711 141.5 47.5366C149.541 45.4981 160.5 38.0366 160.5 38.0366C160.5 38.0366 148.454 43.5794 141 45.0366Z" fill="#292929"/>
<path d="M70 175.037C70 171.723 72.6863 169.037 76 169.037C79.3137 169.037 82 171.723 82 175.037V177.037V178.037V188.037C82 191.35 79.3137 194.037 76 194.037C72.6863 194.037 70 191.35 70 188.037V178.037V177.037V175.037Z" fill="black"/>
<path d="M130 175.037C130 171.723 132.686 169.037 136 169.037C139.314 169.037 142 171.723 142 175.037V188.037C142 191.35 139.314 194.037 136 194.037C132.686 194.037 130 191.35 130 188.037V175.037Z" fill="black"/>
<path d="M66 213.537C66 216.574 59.0604 219.037 50.5 219.037C41.9396 219.037 35 216.574 35 213.537C35 210.499 41.9396 208.037 50.5 208.037C59.0604 208.037 66 210.499 66 213.537Z" fill="#F9A9E7"/>
<path d="M179 213.537C179 216.574 172.06 219.037 163.5 219.037C154.94 219.037 148 216.574 148 213.537C148 210.499 154.94 208.037 163.5 208.037C172.06 208.037 179 210.499 179 213.537Z" fill="#F9A9E7"/>
<path d="M97.1475 217.799C97.3115 216.979 98.3069 216.562 99.064 216.917C100.569 217.625 103.114 218.506 106.5 218.537C110.11 218.57 113.06 217.618 114.798 216.879C115.562 216.554 116.5 217.109 116.5 217.939C116.5 218.31 116.308 218.652 115.977 218.82C114.692 219.475 111.142 221.037 106.5 221.037C102.08 221.037 98.9327 219.621 97.6455 218.92C97.2448 218.702 97.058 218.247 97.1475 217.799Z" fill="black"/>
<path d="M70 177.037C70 177.037 68.8027 177.598 68 177.537C67.7414 177.517 67.4353 177.425 67.1673 177.326C66.8554 177.21 66.5 177.432 66.5 177.764C66.5 177.932 66.5932 178.084 66.7457 178.153C67.0523 178.29 67.5867 178.505 68 178.537C68.8027 178.598 70 178.037 70 178.037V177.037Z" fill="black"/>
<path d="M144 177.537C143.197 177.598 142 177.037 142 177.037V178.037C142 178.037 143.197 178.598 144 178.537C144.413 178.505 144.948 178.29 145.254 178.153C145.407 178.084 145.5 177.932 145.5 177.764C145.5 177.432 145.145 177.21 144.833 177.326C144.565 177.425 144.259 177.517 144 177.537Z" fill="black"/>
</svg>
