<svg width="251" height="259" viewBox="0 0 251 259" fill="none" xmlns="http://www.w3.org/2000/svg">
<path d="M126.71 18.5898C160.718 18.59 185.106 33.13 197.911 52.7529L198.685 53.959C214.026 78.2904 212.548 101.544 207.5 121.236C208.378 120.753 209.478 120.185 210.705 119.64C213.694 118.31 217.663 117.002 220.98 117.606L221.406 117.689C225.756 118.603 228.803 121.14 230.612 124.562C232.346 127.842 232.922 131.891 232.522 136.047L232.429 136.88C231.765 142.107 230.495 146.999 227.955 151.23C225.483 155.347 221.84 158.789 216.5 161.314L215.977 161.556C212.011 163.351 206.418 163.966 201.925 164.153C199.658 164.248 197.631 164.234 196.171 164.196C195.624 164.182 195.156 164.164 194.784 164.147C194.714 165.191 194.716 166.176 194.797 167.102L194.802 167.164L194.8 167.226C194.559 173.903 191.99 177.97 187.859 182.632L187.012 183.572C179.157 192.187 165.147 196.399 152.731 198.489C140.252 200.59 129.098 200.59 126.71 200.59C124.306 200.59 115.202 200.465 104.059 198.529C93.2789 196.656 80.5041 193.073 70.0396 186.198L69.0347 185.522C65.6021 183.163 62.9736 180.422 61.2173 176.815C59.5765 173.446 58.7294 169.389 58.6294 164.301C58.2577 164.311 57.7964 164.323 57.2612 164.327C55.7753 164.339 53.7138 164.309 51.4116 164.145C46.9948 163.828 41.5303 163.004 37.5767 160.903L37.1987 160.696C26.8736 154.844 21.3101 146.013 21.3101 136.099L21.3237 135.227C21.4633 130.864 22.6577 126.499 25.147 123.132C27.8302 119.502 31.9734 117.099 37.6919 117.099C42.2495 117.099 45.9183 119.115 48.4126 121.077C48.6187 121.239 48.8165 121.402 49.0073 121.563C46.0809 113.202 43.5905 104.837 43.5991 95.2109C43.6093 83.8729 47.0775 70.8856 57.1245 54.0947L57.7114 53.1426C63.9238 43.3423 74.7257 34.8308 86.9917 28.7178C99.6622 22.4032 114.01 18.5898 126.71 18.5898Z" fill="#FFCEB4" stroke="black" stroke-width="2"/>
<path d="M73.31 82.0897C74.2 92.0895 93.31 100.59 93.31 100.59C93.31 100.59 76.7655 87.8536 74.8101 74.0898C73.4269 64.3544 78.8101 44.5898 78.8101 44.5898C78.8101 44.5898 73.4085 54.8116 72.3101 62.0898C71.4354 67.8853 72.8101 78.5898 72.8101 78.5898C72.8101 78.5898 70.357 80.2765 68.8101 82.0897C65.6015 85.8506 65.3101 93.0898 65.3101 93.0898V94.7315C69.205 86.9561 73.2546 81.4677 73.31 82.0897Z" fill="#292929"/>
<path d="M86.8103 49.5899C86.8103 53.5897 88.6372 68.316 94.8103 78.0899C101.067 87.9956 105.984 91.252 115.484 97.5425L116.31 98.0897C125.119 103.927 132.349 107.061 142.31 110.59C152.995 114.376 162.31 116.09 175.81 116.09C176.604 116.09 176.886 115.707 176.831 115.09C176.831 115.09 161.81 118.09 128.31 100.59C113.253 92.724 101.764 86.838 94.8103 69.0898C91.4016 60.3897 86.8103 40.5898 86.8103 40.5898C86.8103 40.5898 85.1489 44.0024 84.31 47.5897C83.3668 51.623 84.31 56.5898 84.31 56.5898L84.3572 56.7716C85.4828 49.7717 86.8103 44.5381 86.8103 49.5899Z" fill="#292929"/>
<path d="M26.8101 238.09C27.7618 245.825 31.3101 256.774 31.3101 256.774C33.2823 256.765 35.2901 256.763 37.3101 256.766C37.3101 256.766 32.9926 246.803 31.3101 240.09C28.2186 227.755 29.3101 207.59 29.3101 207.59C29.3101 207.59 25.3696 226.383 26.8101 238.09Z" fill="#292929"/>
<path fill-rule="evenodd" clip-rule="evenodd" d="M189.81 118.09C189.81 118.09 189.848 117.801 189.84 117.37C189.821 117.832 189.81 118.09 189.81 118.09ZM171.249 106.09C171.187 105.965 171.163 105.878 171.184 105.835C171.2 105.904 171.215 105.961 171.226 106.003L171.23 106.021C171.242 106.066 171.249 106.09 171.249 106.09Z" fill="black"/>
<path d="M171.81 106.09C171.81 106.09 187.31 121.09 189.81 118.09C189.81 118.09 189.821 117.832 189.84 117.37C189.823 116.441 189.592 114.853 188.31 114.09C186.913 113.259 185.396 112.446 183.872 111.629C179.055 109.048 174.173 106.432 172.81 103.09C171.754 100.501 172.31 98.5898 172.31 98.5898C172.31 98.5898 170.648 101.586 170.81 103.59C170.886 104.525 171.081 105.413 171.184 105.835C171.222 105.755 171.415 105.826 171.81 106.09Z" fill="#292929"/>
<path fill-rule="evenodd" clip-rule="evenodd" d="M71.81 17.5897C71.81 17.5897 84.4009 7.64567 98.8101 3.58984C114.035 -0.695512 148.184 -0.855529 163.81 1.58974C179.436 4.03502 204.31 16.0898 224.81 44.5898C245.31 73.0898 253.31 141.09 248.81 184.09C244.31 227.09 231.81 252.09 231.81 252.09C205.81 255.59 160.31 253.09 160.31 253.09L162.81 247.09C162.81 247.09 173.795 224.702 178.81 209.59C183.374 195.836 187.615 173.59 187.615 173.59C187.615 173.59 188.722 159.796 189.575 145.948L189.81 144.59C189.81 144.59 193.267 116.493 193.81 105.09C195.054 78.974 170.81 54.5898 170.81 54.5898C170.81 54.5898 186.401 75.1238 189.81 96.0898C190.476 100.183 189.972 114.049 189.84 117.37C189.823 116.441 189.592 114.853 188.31 114.09C186.913 113.259 185.396 112.446 183.872 111.629C179.055 109.048 174.173 106.432 172.81 103.09C171.754 100.501 172.31 98.5898 172.31 98.5898C172.31 98.5898 170.648 101.586 170.81 103.59C170.886 104.525 171.081 105.413 171.184 105.835C171.163 105.878 171.187 105.965 171.249 106.09C171.455 106.507 172.078 107.344 172.837 108.365C174.456 110.54 176.694 113.548 176.831 115.09C176.831 115.09 161.81 118.09 128.31 100.59C113.253 92.724 101.764 86.838 94.8103 69.0898C91.4016 60.3897 86.8103 40.5898 86.8103 40.5898C86.8103 40.5898 85.1489 44.0024 84.31 47.5897C83.3668 51.623 84.31 56.5898 84.31 56.5898L84.3572 56.7716C83.5371 61.8716 82.8243 67.9093 82.8103 71.5899C82.7903 76.8709 83.3894 80.3082 84.2078 85.0032L84.31 85.5897C85.5981 92.993 93.31 100.59 93.31 100.59C93.31 100.59 76.7655 87.8536 74.8101 74.0898C73.4269 64.3544 78.8101 44.5898 78.8101 44.5898C78.8101 44.5898 73.4085 54.8116 72.3101 62.0898C71.4354 67.8853 72.8101 78.5898 72.8101 78.5898C72.8101 78.5898 70.357 80.2765 68.8101 82.0897C65.6015 85.8506 65.3101 93.0898 65.3101 93.0898V94.7315C62.9421 99.4587 60.6313 105.031 59.3101 110.59C55.3817 127.117 56.31 145.09 57.2004 159.59C57.8695 170.487 59.6451 177.452 61.8726 186.19C62.6403 189.202 63.4617 192.424 64.31 196.09C67.6194 210.393 76.81 256.59 76.81 256.59C73.2919 256.981 63.2031 256.913 51.5612 256.835H51.5595L51.5496 256.835C46.9424 256.804 42.0923 256.772 37.3101 256.766C37.3101 256.766 32.9926 246.803 31.3101 240.09C28.2186 227.755 29.3101 207.59 29.3101 207.59C29.3101 207.59 25.3696 226.383 26.8101 238.09C27.7618 245.825 31.3101 256.774 31.3101 256.774C19.5691 256.826 9.08812 257.117 4.80975 258.09C-1.82047 259.596 -0.0748705 248.404 1.21549 240.131C1.44446 238.663 1.65909 237.287 1.81005 236.09C2.76126 228.547 4.47355 223.924 6.36777 218.808C7.65845 215.323 9.03358 211.61 10.31 206.59C13.557 193.819 13.5593 184.25 13.5617 173.776C13.5632 167.367 13.5648 160.619 14.31 152.59C14.7251 148.117 15.0814 143.91 15.4246 139.857C16.6662 125.196 17.7374 112.547 20.81 96.5897C20.81 96.5897 29.602 54.2983 50.3101 36.5898C56.0729 31.6617 68.8101 23.5897 68.8101 23.5897C68.8101 23.5897 56.8062 18.2229 57.8101 12.0898C58.2009 9.70194 59.1062 7.44207 60.6632 5.58984C63.3936 2.34168 70.31 1.5897 70.31 1.5897C73.31 3.58952 71.81 17.5897 71.81 17.5897Z" fill="black"/>
<path d="M189.81 144.59C189.81 144.59 193.267 116.493 193.81 105.09C195.054 78.974 170.81 54.5898 170.81 54.5898C170.81 54.5898 186.401 75.1238 189.81 96.0898C190.476 100.183 189.972 114.049 189.84 117.37C189.848 117.801 189.81 118.09 189.81 118.09C191.096 116.546 190.478 131.278 189.575 145.948L189.81 144.59Z" fill="#292929"/>
<path d="M70.31 1.5897C65.31 -1.74333 52.81 5.56933 52.81 9.5897C52.81 14.5897 60.6632 23.5897 60.6632 23.5897C60.6632 23.5897 43.7354 36.5421 36.1632 47.5897C26.9733 60.9975 25.0608 72.1811 22.6149 86.4837C22.0689 89.6771 21.4962 93.0259 20.81 96.5897C20.81 96.5897 29.602 54.2983 50.3101 36.5898C56.0729 31.6617 68.8101 23.5897 68.8101 23.5897C68.8101 23.5897 56.8062 18.2229 57.8101 12.0898C58.2009 9.70194 59.1062 7.44207 60.6632 5.58984C63.3936 2.34168 70.31 1.5897 70.31 1.5897Z" fill="#292929"/>
<path d="M90.3101 137.59C90.3101 134.276 92.9963 131.59 96.3101 131.59C99.6238 131.59 102.31 134.276 102.31 137.59V139.59V140.59V150.59C102.31 153.904 99.6238 156.59 96.3101 156.59C92.9963 156.59 90.3101 153.904 90.3101 150.59V140.59V139.59V137.59Z" fill="black"/>
<path d="M150.31 137.59C150.31 134.276 152.996 131.59 156.31 131.59C159.624 131.59 162.31 134.276 162.31 137.59V150.59C162.31 153.904 159.624 156.59 156.31 156.59C152.996 156.59 150.31 153.904 150.31 150.59V137.59Z" fill="black"/>
<path d="M86.3101 176.09C86.3101 179.127 79.3705 181.59 70.8101 181.59C62.2496 181.59 55.3101 179.127 55.3101 176.09C55.3101 173.052 62.2496 170.59 70.8101 170.59C79.3705 170.59 86.3101 173.052 86.3101 176.09Z" fill="#F9A9E7"/>
<path d="M199.31 176.09C199.31 179.127 192.37 181.59 183.81 181.59C175.25 181.59 168.31 179.127 168.31 176.09C168.31 173.052 175.25 170.59 183.81 170.59C192.37 170.59 199.31 173.052 199.31 176.09Z" fill="#F9A9E7"/>
<path d="M117.458 180.353C117.622 179.532 118.617 179.115 119.374 179.471C120.879 180.178 123.424 181.059 126.81 181.09C130.42 181.123 133.37 180.171 135.108 179.432C135.872 179.107 136.81 179.662 136.81 180.493C136.81 180.863 136.618 181.205 136.287 181.374C135.002 182.029 131.452 183.59 126.81 183.59C122.39 183.59 119.243 182.174 117.956 181.474C117.555 181.255 117.368 180.8 117.458 180.353Z" fill="black"/>
<path d="M90.3101 139.59C90.3101 139.59 89.1128 140.152 88.3101 140.09C88.0514 140.07 87.7454 139.979 87.4774 139.879C87.1654 139.764 86.8101 139.985 86.8101 140.318C86.8101 140.485 86.9033 140.638 87.0557 140.706C87.3624 140.844 87.8968 141.058 88.3101 141.09C89.1128 141.152 90.3101 140.59 90.3101 140.59V139.59Z" fill="black"/>
<path d="M164.31 140.09C163.507 140.152 162.31 139.59 162.31 139.59V140.59C162.31 140.59 163.507 141.152 164.31 141.09C164.723 141.058 165.258 140.844 165.564 140.706C165.717 140.638 165.81 140.485 165.81 140.318C165.81 139.985 165.455 139.764 165.143 139.879C164.875 139.979 164.569 140.07 164.31 140.09Z" fill="black"/>
</svg>
