<svg width="246" height="263" viewBox="0 0 246 263" fill="none" xmlns="http://www.w3.org/2000/svg">
<path d="M121.541 27.7778C155.549 27.7779 179.936 42.318 192.741 61.9409L193.516 63.147C208.857 87.4784 207.379 110.732 202.331 130.424C203.208 129.941 204.309 129.373 205.535 128.828C208.525 127.498 212.493 126.19 215.811 126.794L216.236 126.877C220.587 127.791 223.633 130.328 225.442 133.75C227.177 137.03 227.752 141.079 227.353 145.235L227.26 146.068C226.596 151.295 225.326 156.187 222.785 160.418C220.313 164.535 216.67 167.977 211.33 170.502L210.808 170.744C206.841 172.539 201.249 173.154 196.756 173.341C194.489 173.436 192.462 173.422 191.002 173.384C190.455 173.37 189.986 173.352 189.614 173.335C189.544 174.379 189.546 175.364 189.628 176.29L189.633 176.352L189.631 176.414C189.39 183.091 186.82 187.158 182.689 191.82L181.843 192.76C173.988 201.375 159.978 205.587 147.562 207.677C135.082 209.778 123.928 209.778 121.541 209.778C119.136 209.778 110.033 209.653 98.8896 207.717C88.1095 205.844 75.3347 202.261 64.8701 195.386L63.8652 194.71C60.4327 192.351 57.8042 189.609 56.0479 186.003C54.407 182.634 53.56 178.577 53.46 173.489C53.0883 173.499 52.627 173.511 52.0918 173.515C50.6059 173.527 48.5444 173.497 46.2422 173.333C41.8254 173.016 36.3608 172.192 32.4072 170.091L32.0293 169.884C21.7041 164.032 16.1406 155.201 16.1406 145.287L16.1543 144.415C16.2938 140.052 17.4882 135.687 19.9775 132.32C22.6608 128.69 26.8039 126.287 32.5225 126.287C37.08 126.287 40.7489 128.303 43.2432 130.265C43.4493 130.427 43.6471 130.59 43.8379 130.751C40.9115 122.39 38.4211 114.025 38.4297 104.399C38.4399 93.0609 41.9081 80.0736 51.9551 63.2827L52.542 62.3306C58.7544 52.5303 69.5563 44.0188 81.8223 37.9058C94.4927 31.5912 108.84 27.7778 121.541 27.7778Z" fill="#FFCEB4" stroke="black" stroke-width="2"/>
<path d="M19.1362 261.778C19.1362 261.778 20.2046 257.436 22.1362 255.778C22.4956 255.469 23.4289 255.28 24.6406 255.17C24.6406 255.17 23.6406 250.998 23.6406 248.278C23.6406 243.486 28.1873 239.918 33.2752 235.924C38.8061 231.583 44.9766 226.739 46.6406 219.278C48.955 208.9 44.6406 192.778 44.6406 192.778C44.6406 192.778 46.0918 209.49 42.6406 219.278C40.3486 225.778 35.4414 229.94 30.699 233.963C24.9761 238.817 19.4932 243.468 19.1362 251.778C18.9061 257.134 19.1362 261.778 19.1362 261.778Z" fill="#292929"/>
<path d="M13.6362 166.278C13.6362 166.278 5.63623 182.031 5.63623 192.778C5.63623 200.373 11.6253 204.812 17.1384 208.899C17.1384 208.899 9.65426 200.804 8.64062 194.278C7.80329 188.887 9.30513 185.318 11.1875 180.846C11.6583 179.727 12.1529 178.552 12.6406 177.278C14.658 172.007 17.391 168.609 20.1983 165.119C22.5907 162.144 25.037 159.103 27.1406 154.778C29.9001 149.104 36.6406 142.278 36.6406 142.278C36.6406 142.278 29.3223 146.837 25.6406 150.278C22.8706 152.866 21.1043 154.236 17.6406 155.778C15.9995 156.508 13.2923 157.278 13.2923 157.278C14.0397 161.405 13.6362 166.278 13.6362 166.278Z" fill="#292929"/>
<path d="M13.6362 126.278C13.6362 126.278 -1.6112 136.626 0.140085 139.778C0.140085 139.778 21.5309 128.806 28.6406 120.778C34.5506 114.105 39.6406 101.778 39.6406 101.778C39.6406 101.778 32.4434 112.252 27.6406 116.778C23.6593 120.529 17.6406 123.278 17.6406 123.278V115.778C17.6406 115.778 24.8379 108.339 28.6406 103.778C36.0778 94.8569 42.1406 78.7778 42.1406 78.7778C42.1406 78.7778 35.6363 90.9471 29.6406 97.2778C25.4352 101.718 17.6406 107.34 17.6406 107.34C17.6406 107.34 14.0667 102.06 12.6406 98.2778C10.0336 91.3639 10.8287 79.4438 10.8287 79.4438C9.17657 90.8622 7.9295 99.481 12.6406 110.778C15.0457 116.545 13.6362 126.278 13.6362 126.278Z" fill="#292929"/>
<path d="M94.6406 67.7778C96.8074 67.6058 100.136 67.5325 102.641 68.2778C108.812 70.1144 110.365 73.4885 111.5 75.9562C112.114 77.2904 112.606 78.3597 113.641 78.7778C115.617 79.5768 117.192 79.7539 119.07 79.7839C119.07 79.7839 116.618 78.0586 114.641 75.9562C113.197 74.421 112.177 72.7042 111.181 71.0258C109.238 67.755 107.382 64.6298 102.641 63.2778C92.6248 60.4221 85.435 67.0832 78.6406 74.9768C69.5392 85.5507 68.8655 108.278 68.8655 108.278C71.0242 99.2215 74.2694 87.7476 79.5531 79.2778C82.081 75.2256 85.0754 71.861 88.6406 69.7778C90.7641 68.537 92.0901 67.9804 94.6406 67.7778Z" fill="#292929"/>
<path d="M147.141 68.2778C149.641 68.2778 153.96 69.1889 156.641 70.8163C159.812 72.7417 162.361 75.6697 164.493 79.2778C168.875 86.6927 171.494 96.9799 174.132 107.34C174.132 107.34 173.141 90.0994 166.141 78.7778C160.473 69.6116 150.141 63.2778 141.641 65.7778C138.002 66.848 136.814 68.8927 135.431 71.2739C134.513 72.8557 133.508 74.586 131.641 76.2778C129.446 78.2661 126.641 79.613 126.641 79.613C127.622 79.5346 128.609 79.4252 129.641 79.2778C132.439 78.878 133.48 77.0396 134.647 74.9768C136.399 71.8801 138.438 68.2778 147.141 68.2778Z" fill="#292929"/>
<path d="M144.141 71.7778C145.498 69.696 147.141 68.2778 147.141 68.2778C138.438 68.2778 136.399 71.8801 134.647 74.9768C133.48 77.0396 132.439 78.878 129.641 79.2778C128.609 79.4252 127.622 79.5346 126.641 79.613C125.17 79.7304 123.712 79.7778 122.141 79.7778C121.697 79.7778 121.276 79.7809 120.873 79.7839C120.232 79.7886 119.637 79.7929 119.07 79.7839C117.192 79.7539 115.617 79.5768 113.641 78.7778C112.606 78.3597 112.114 77.2904 111.5 75.9562C110.365 73.4885 108.812 70.1144 102.641 68.2778C100.136 67.5325 96.8074 67.6058 94.6406 67.7778C94.6406 67.7778 99.7665 69.5811 101.641 71.7778C103.738 74.2367 105.141 79.2778 105.141 79.2778C105.141 79.2778 100.269 74.6232 97.1406 72.7778C93.815 70.816 88.6406 69.7778 88.6406 69.7778C85.0754 71.861 82.081 75.2256 79.5531 79.2778C79.5531 79.2778 117.868 80.7931 122.141 80.7778C128.141 80.7563 164.493 79.2778 164.493 79.2778C162.361 75.6697 159.812 72.7417 156.641 70.8163C156.641 70.8163 151.88 69.8481 148.141 72.7778C145.74 74.6591 141.141 79.2778 141.141 79.2778C141.141 79.2778 142.353 74.5197 144.141 71.7778Z" fill="#292929"/>
<path d="M245.641 136.778C242.26 132.561 234.141 128.278 234.141 128.278V126.778C234.141 126.778 227.52 124.927 222.641 120.778C216.223 115.322 205.641 101.778 205.641 101.778C205.641 101.778 212.568 114.149 218.641 120.778C225.975 128.784 240.641 137.778 240.641 137.778L244.497 140.778C245.579 138.817 246.092 137.341 245.641 136.778Z" fill="#292929"/>
<path d="M234.141 112.778C234.141 112.778 226.678 109.63 221.641 104.278C214.885 97.1004 205.641 79.7778 205.641 79.7778C205.641 79.7778 210.314 97.0224 217.141 105.778C222.545 112.709 234.141 120.528 234.141 120.528V112.778Z" fill="#292929"/>
<path d="M122.141 34.7778C122.141 34.7778 118.101 27.0959 113.641 24.2778C108.752 21.189 99.1406 21.2778 99.1406 21.2778C99.1406 21.2778 109.671 18.2567 115.141 21.2778C118.648 23.215 122.141 28.7778 122.141 28.7778C122.141 28.7778 127.499 22.79 132.141 21.2778C136.596 19.8262 144.141 21.2778 144.141 21.2778C144.141 21.2778 136.37 21.9434 132.141 24.2778C127.183 27.0143 122.141 34.7778 122.141 34.7778Z" fill="#292929"/>
<path d="M231.346 165.278C230.6 163.79 229.857 162.288 229.141 160.778C229.466 160.562 230.514 159.436 231.937 157.778C231.937 157.778 227.388 157.673 224.641 155.778C219.819 152.451 215.141 142.278 215.141 142.278C215.141 142.278 217.431 152.741 221.641 157.778C224.712 161.453 231.346 165.278 231.346 165.278Z" fill="#292929"/>
<path d="M224.136 262.278C224.136 262.278 227.766 255.264 227.997 249.278C228.305 241.318 222.402 237.435 216.231 233.375C211.055 229.97 205.689 226.441 203.641 220.278C200.558 211.006 201.641 195.778 201.641 195.778C201.641 195.778 197.889 211.481 200.141 221.278C201.641 227.804 206.694 230.97 211.709 234.112C216.847 237.33 221.944 240.523 223.141 247.278C223.653 250.167 223.607 254.778 223.607 254.778C225.646 256.529 224.136 262.278 224.136 262.278Z" fill="#292929"/>
<path d="M186.636 260.278C194.636 262.778 211.636 261.278 211.636 261.278C211.636 261.278 197.72 260.327 192.641 258.778C188.738 257.587 188.641 254.248 188.641 254.248C188.641 254.248 190.057 248.052 190.641 244.778C192.246 235.778 183.641 224.278 183.641 224.278C183.641 224.278 190.155 238.242 186.309 245.778C185.454 247.455 184.638 248.414 183.596 249.638C183.298 249.989 182.982 250.361 182.641 250.778C179.053 255.16 172.136 260.778 172.136 260.778C175.463 260.778 186.309 250.778 186.309 250.778C186.309 250.778 182.469 258.975 186.636 260.278Z" fill="#292929"/>
<path d="M147.136 261.278C149.921 260.533 152.136 258.278 152.136 258.278C152.136 258.278 145.141 260.778 140.141 260.778C138.218 260.778 135.983 259.507 135.141 257.778C134.026 255.489 139.641 252.278 139.641 252.278L134.636 254.778C134.636 254.778 132.639 258.657 133.636 260.778C134.342 262.278 142.969 262.392 147.136 261.278Z" fill="#292929"/>
<path d="M111.636 261.778C115.636 261.19 113.636 255.278 113.636 255.278L114.641 255.254C114.641 255.254 111.53 254.537 109.641 253.778C108.02 253.126 105.641 251.778 105.641 251.778C105.641 251.778 108.857 254.437 108.641 256.778C108.407 259.313 106.641 259.778 103.641 260.278C98.6621 261.107 91.3722 261.778 91.3722 261.778C91.6861 261.868 92.2361 261.878 93.1362 261.778C95.3312 261.534 98.8347 261.668 102.312 261.801C105.964 261.94 109.587 262.079 111.636 261.778Z" fill="#292929"/>
<path fill-rule="evenodd" clip-rule="evenodd" d="M122.141 3.77799C122.141 3.77799 142.009 -0.180689 157.641 3.27786C172.141 6.48601 227.145 52.778 234.141 77.2779C239.28 95.2779 234.141 112.778 234.141 112.778C234.141 112.778 226.678 109.63 221.641 104.278C214.885 97.1004 205.641 79.7778 205.641 79.7778C205.641 79.7778 210.314 97.0224 217.141 105.778C222.545 112.709 234.141 120.528 234.141 120.528V126.778C234.141 126.778 227.52 124.927 222.641 120.778C216.223 115.322 205.641 101.778 205.641 101.778C205.641 101.778 212.568 114.149 218.641 120.778C225.975 128.784 240.641 137.778 240.641 137.778L244.497 140.778C241.812 145.642 235.619 153.489 231.937 157.778C231.937 157.778 227.388 157.673 224.641 155.778C219.819 152.451 215.141 142.278 215.141 142.278C215.141 142.278 217.431 152.741 221.641 157.778C224.712 161.453 231.346 165.278 231.346 165.278C231.76 166.102 232.175 166.923 232.587 167.738C237.106 176.676 241.303 184.977 240.136 191.278C238.859 198.175 233.147 203.259 227.997 207.842C223.068 212.229 218.654 216.157 219.141 220.778C219.588 225.027 223.137 228.377 227.012 232.034C231.8 236.552 237.086 241.54 237.636 249.278C238.18 256.931 224.136 262.278 224.136 262.278C224.136 262.278 227.766 255.264 227.997 249.278C228.305 241.318 222.402 237.435 216.231 233.375C211.055 229.97 205.689 226.441 203.641 220.278C200.558 211.006 201.641 195.778 201.641 195.778C201.641 195.778 197.889 211.481 200.141 221.278C201.641 227.804 206.694 230.97 211.709 234.112C216.847 237.33 221.944 240.523 223.141 247.278C223.653 250.167 223.607 254.778 223.607 254.778C223.241 254.463 222.761 254.278 222.136 254.278C221.809 254.278 221.36 254.264 220.831 254.248C218.128 254.168 213.309 254.023 211.636 255.278C209.636 256.778 211.636 261.278 211.636 261.278C211.636 261.278 197.72 260.327 192.641 258.778C188.738 257.587 188.641 254.248 188.641 254.248C188.641 254.248 190.057 248.052 190.641 244.778C192.246 235.778 183.641 224.278 183.641 224.278C183.641 224.278 190.155 238.242 186.309 245.778C185.454 247.455 184.638 248.414 183.596 249.638C183.298 249.989 182.982 250.361 182.641 250.778C179.053 255.16 172.136 260.778 172.136 260.778C168.849 260.778 168.636 257.778 168.636 257.778L152.136 258.278C152.136 258.278 145.141 260.778 140.141 260.778C138.218 260.778 135.983 259.507 135.141 257.778C134.026 255.489 139.641 252.278 139.641 252.278L134.636 254.778L114.641 255.254C114.641 255.254 111.53 254.537 109.641 253.778C108.02 253.126 105.641 251.778 105.641 251.778C105.641 251.778 108.857 254.437 108.641 256.778C108.407 259.313 106.641 259.778 103.641 260.278C98.6621 261.107 91.3722 261.778 91.3722 261.778C90.7575 261.602 91.0475 261.119 91.3865 260.554C91.74 259.966 92.1468 259.288 91.6362 258.778C90.6362 257.778 80.6362 258.278 80.6362 258.278C80.6362 258.278 71.2539 257.195 66.6406 253.778C61.8971 250.264 59.4879 247.025 58.1406 241.278C56.4437 234.039 62.6406 222.778 62.6406 222.778C62.6406 222.778 54.6074 233.81 55.6406 241.778C56.2583 246.541 59.1406 252.278 59.1406 252.278C59.1406 252.278 57.7854 256.246 54.1406 257.778C48.6911 260.068 35.6362 259.778 35.6362 259.778C34.1968 257.546 35.1362 255.278 35.1362 255.278C35.1362 255.278 28.4865 254.822 24.6406 255.17C24.6406 255.17 23.6406 250.998 23.6406 248.278C23.6406 243.486 28.1873 239.918 33.2752 235.924C38.8061 231.583 44.9766 226.739 46.6406 219.278C48.955 208.9 44.6406 192.778 44.6406 192.778C44.6406 192.778 46.0918 209.49 42.6406 219.278C40.3486 225.778 35.4414 229.94 30.699 233.963C24.9761 238.817 19.4932 243.468 19.1362 251.778C18.9061 257.134 19.1362 261.778 19.1362 261.778C19.1362 261.778 7.51863 257.835 6.13623 249.778C4.98008 243.039 10.1575 239.068 15.5452 234.935C20.3869 231.221 25.3984 227.378 26.1362 221.278C26.7699 216.039 22.1509 212.615 17.1384 208.899C17.1384 208.899 9.65426 200.804 8.64062 194.278C7.80329 188.887 9.30513 185.318 11.1875 180.846C11.6583 179.727 12.1529 178.552 12.6406 177.278C14.658 172.007 17.391 168.609 20.1983 165.119C22.5907 162.144 25.037 159.103 27.1406 154.778C29.9001 149.104 36.6406 142.278 36.6406 142.278C36.6406 142.278 29.3223 146.837 25.6406 150.278C22.8706 152.866 21.1043 154.236 17.6406 155.778C15.9995 156.508 13.2923 157.278 13.2923 157.278C13.1318 156.392 12.9183 155.54 12.6362 154.778C10.7472 149.674 7.45652 146.894 4.60589 144.486C2.77141 142.936 1.11919 141.54 0.140085 139.778C0.140085 139.778 21.5309 128.806 28.6406 120.778C34.5506 114.105 39.6406 101.778 39.6406 101.778C39.6406 101.778 32.4434 112.252 27.6406 116.778C23.6593 120.529 17.6406 123.278 17.6406 123.278V115.778C17.6406 115.778 24.8379 108.339 28.6406 103.778C36.0778 94.8569 42.1406 78.7778 42.1406 78.7778C42.1406 78.7778 35.6363 90.9471 29.6406 97.2778C25.4352 101.718 17.6406 107.34 17.6406 107.34C17.6406 107.34 14.0667 102.06 12.6406 98.2778C10.0336 91.3639 10.8287 79.4438 10.8287 79.4438C10.9316 78.733 11.036 78.0114 11.1406 77.2776C13.6362 59.7776 74.0975 7.22907 83.6406 3.77747C107.141 -4.72214 122.141 3.77799 122.141 3.77799ZM101.641 71.7778C99.7665 69.5811 94.6406 67.7778 94.6406 67.7778C92.0901 67.9804 90.7641 68.537 88.6406 69.7778C88.6406 69.7778 93.815 70.816 97.1406 72.7778C100.269 74.6232 105.141 79.2778 105.141 79.2778C105.141 79.2778 103.738 74.2367 101.641 71.7778ZM67.419 114.605C67.8418 112.71 68.3188 110.571 68.8655 108.278C68.8655 108.278 69.5392 85.5507 78.6406 74.9768C85.435 67.0832 92.6248 60.4221 102.641 63.2778C107.382 64.6298 109.238 67.755 111.181 71.0258C112.177 72.7042 113.197 74.421 114.641 75.9562C116.618 78.0586 119.07 79.7839 119.07 79.7839C119.637 79.7929 120.232 79.7886 120.873 79.7839C121.276 79.7809 121.697 79.7778 122.141 79.7778C123.712 79.7778 125.17 79.7304 126.641 79.613C126.641 79.613 129.446 78.2661 131.641 76.2778C133.508 74.586 134.513 72.8557 135.431 71.2739C136.814 68.8927 138.002 66.848 141.641 65.7778C150.141 63.2778 160.473 69.6116 166.141 78.7778C173.141 90.0994 174.132 107.34 174.132 107.34C176.178 115.378 178.236 123.459 181.136 130.278C184.888 139.099 187.732 144.128 194.636 150.778C202.26 158.121 219.141 163.778 219.141 163.778C219.141 163.778 211.303 169.618 205.641 171.278C199.978 172.938 189.141 172.778 189.141 172.778C189.141 172.778 188.141 180.278 183.641 188.778C177.676 200.044 151.641 209.611 121.641 208.778C94.4753 208.023 68.6406 201.778 57.6406 187.778C54.1276 183.307 54.1406 172.778 54.1406 172.778C54.1406 172.778 43.8427 173.059 38.1406 171.278C32.8775 169.633 26.1362 164.278 26.1362 164.278C26.1362 164.278 43.6406 156.278 50.1406 148.778C56.6406 141.278 62.6406 130.278 65.6406 121.778C66.1255 120.404 66.6921 117.864 67.419 114.605ZM144.141 71.7778C145.498 69.696 147.141 68.2778 147.141 68.2778C149.641 68.2778 153.96 69.1889 156.641 70.8163C156.641 70.8163 151.88 69.8481 148.141 72.7778C145.74 74.6591 141.141 79.2778 141.141 79.2778C141.141 79.2778 142.353 74.5197 144.141 71.7778ZM113.641 24.2778C118.101 27.0959 122.141 34.7778 122.141 34.7778C122.141 34.7778 127.183 27.0143 132.141 24.2778C136.37 21.9434 144.141 21.2778 144.141 21.2778C144.141 21.2778 136.596 19.8262 132.141 21.2778C127.499 22.79 122.141 28.7778 122.141 28.7778C122.141 28.7778 118.648 23.215 115.141 21.2778C109.671 18.2567 99.1406 21.2778 99.1406 21.2778C99.1406 21.2778 108.752 21.189 113.641 24.2778Z" fill="black"/>
<path d="M65.1362 257.778C69.7179 259.462 80.6362 258.278 80.6362 258.278C80.6362 258.278 71.2539 257.195 66.6406 253.778C61.8971 250.264 59.4879 247.025 58.1406 241.278C56.4437 234.039 62.6406 222.778 62.6406 222.778C62.6406 222.778 54.6074 233.81 55.6406 241.778C56.2583 246.541 59.1406 252.278 59.1406 252.278C59.1406 252.278 57.7854 256.246 54.1406 257.778C48.6911 260.068 35.6362 259.778 35.6362 259.778C36.926 261.778 53.9427 261.778 56.1362 260.278C59.1343 258.228 61.1362 253.778 61.1362 253.778C61.1362 253.778 60.205 255.965 65.1362 257.778Z" fill="#292929"/>
<path d="M85.1406 146.778C85.1406 143.464 87.8269 140.778 91.1406 140.778C94.4543 140.778 97.1406 143.464 97.1406 146.778V148.778V149.778V159.778C97.1406 163.092 94.4543 165.778 91.1406 165.778C87.8269 165.778 85.1406 163.092 85.1406 159.778V149.778V148.778V146.778Z" fill="black"/>
<path d="M145.141 146.778C145.141 143.464 147.827 140.778 151.141 140.778C154.454 140.778 157.141 143.464 157.141 146.778V159.778C157.141 163.092 154.454 165.778 151.141 165.778C147.827 165.778 145.141 163.092 145.141 159.778V146.778Z" fill="black"/>
<path d="M81.1406 185.278C81.1406 188.315 74.201 190.778 65.6406 190.778C57.0802 190.778 50.1406 188.315 50.1406 185.278C50.1406 182.24 57.0802 179.778 65.6406 179.778C74.201 179.778 81.1406 182.24 81.1406 185.278Z" fill="#F9A9E7"/>
<path d="M194.141 185.278C194.141 188.315 187.201 190.778 178.641 190.778C170.08 190.778 163.141 188.315 163.141 185.278C163.141 182.24 170.08 179.778 178.641 179.778C187.201 179.778 194.141 182.24 194.141 185.278Z" fill="#F9A9E7"/>
<path d="M112.288 189.54C112.452 188.72 113.448 188.303 114.205 188.659C115.709 189.366 118.254 190.247 121.641 190.278C125.251 190.311 128.201 189.359 129.938 188.62C130.703 188.295 131.641 188.85 131.641 189.681C131.641 190.051 131.448 190.393 131.118 190.562C129.833 191.217 126.283 192.778 121.641 192.778C117.22 192.778 114.073 191.362 112.786 190.662C112.385 190.443 112.199 189.988 112.288 189.54Z" fill="black"/>
<path d="M85.1406 148.778C85.1406 148.778 83.9433 149.34 83.1406 149.278C82.882 149.258 82.5759 149.167 82.3079 149.067C81.996 148.952 81.6406 149.173 81.6406 149.506C81.6406 149.673 81.7338 149.826 81.8863 149.894C82.1929 150.032 82.7273 150.246 83.1406 150.278C83.9433 150.34 85.1406 149.778 85.1406 149.778V148.778Z" fill="black"/>
<path d="M159.141 149.278C158.338 149.34 157.141 148.778 157.141 148.778V149.778C157.141 149.778 158.338 150.34 159.141 150.278C159.554 150.246 160.088 150.032 160.395 149.894C160.547 149.826 160.641 149.673 160.641 149.506C160.641 149.173 160.285 148.952 159.973 149.067C159.705 149.167 159.399 149.258 159.141 149.278Z" fill="black"/>
</svg>
