<svg width="239" height="309" viewBox="0 0 239 309" fill="none" xmlns="http://www.w3.org/2000/svg">
<path d="M119.363 33.1389C153.371 33.139 177.758 47.6791 190.563 67.302L191.337 68.5081C206.678 92.8395 205.201 116.093 200.153 135.785C201.03 135.302 202.13 134.734 203.357 134.189C206.347 132.859 210.315 131.551 213.632 132.156L214.058 132.239C218.408 133.152 221.455 135.689 223.264 139.111C224.999 142.392 225.574 146.44 225.174 150.596L225.082 151.429C224.418 156.656 223.148 161.548 220.607 165.78C218.135 169.896 214.492 173.338 209.152 175.864L208.629 176.105C204.663 177.9 199.071 178.516 194.578 178.702C192.31 178.797 190.284 178.783 188.824 178.745C188.276 178.731 187.808 178.713 187.436 178.697C187.366 179.74 187.368 180.725 187.45 181.651L187.455 181.713L187.453 181.775C187.211 188.452 184.642 192.52 180.511 197.181L179.665 198.121C171.81 206.736 157.8 210.948 145.383 213.038C132.904 215.139 121.75 215.139 119.363 215.139C116.958 215.139 107.854 215.015 96.7114 213.078C85.9312 211.205 73.1565 207.622 62.6919 200.747L61.687 200.072C58.2544 197.712 55.6259 194.971 53.8696 191.365C52.2288 187.995 51.3818 183.938 51.2817 178.85C50.9101 178.86 50.4487 178.872 49.9136 178.876C48.4277 178.888 46.3662 178.858 44.064 178.694C39.6471 178.378 34.1826 177.553 30.229 175.452L29.8511 175.245C19.5259 169.393 13.9624 160.562 13.9624 150.648L13.9761 149.776C14.1156 145.413 15.31 141.048 17.7993 137.681C20.4825 134.051 24.6257 131.648 30.3442 131.648C34.9018 131.648 38.5706 133.664 41.0649 135.626C41.2711 135.788 41.4688 135.952 41.6597 136.113C38.7332 127.752 36.2429 119.386 36.2515 109.76C36.2617 98.422 39.7299 85.4346 49.7769 68.6438L50.3638 67.6917C56.5762 57.8914 67.378 49.3799 79.644 43.2668C92.3145 36.9523 106.662 33.1389 119.363 33.1389Z" fill="#FFCEB4" stroke="black" stroke-width="2"/>
<path d="M214.462 301C215.462 301 217.462 308.138 217.462 308.138H219.462C219.462 308.138 216.959 304.27 216.962 301.5C216.965 299.03 218.962 295.5 218.962 295.5C218.962 295.5 210.694 296.083 208.962 300C207.914 302.371 208.962 306.638 208.962 306.638H209.962C209.962 306.638 209.273 301 214.462 301Z" fill="#292929"/>
<path d="M178.962 259.138C184.087 266.638 187.462 269.138 194.962 274.138C194.962 274.138 198.84 273.78 201.212 273.069C204.905 271.963 209.962 268.5 209.962 268.5C209.962 268.5 195.553 272.015 188.962 266.5C184.437 262.713 177.78 252 177.78 252C177.166 254.404 177.353 256.782 178.962 259.138Z" fill="#292929"/>
<path d="M225.962 248.5C225.962 248.5 232.344 240.501 232.962 234C233.165 231.874 232.239 229.918 230.767 228C230.767 228 228.874 235.636 226.962 240.278C222.501 251.112 209.962 265 209.962 265C209.962 265 217.105 261.258 220.462 257.5C223.206 254.428 225.962 248.5 225.962 248.5Z" fill="#292929"/>
<path d="M179.99 229.5C180.013 230.442 180.159 231.485 180.462 232.638C181.09 235.021 183.369 235.976 185.647 236.93C185.812 236.999 185.977 237.068 186.141 237.138C185.479 238.406 184.704 239.665 183.895 240.916C183.895 240.916 189.179 247.136 193.462 250C198.707 253.507 208.462 256 208.462 256C208.462 256 204.744 253.77 199.987 250C198.549 248.86 197.016 247.58 195.462 246.178C195.037 245.794 194.61 245.402 194.183 245C190.265 241.315 179.99 229.5 179.99 229.5Z" fill="#292929"/>
<path d="M203.962 240.278C200.98 243.004 195.462 246.178 195.462 246.178C197.016 247.58 198.549 248.86 199.987 250C199.987 250 203.22 246.813 204.962 244.5C208.746 239.478 211.962 230 211.962 230C211.962 230 207.716 236.846 203.962 240.278Z" fill="#292929"/>
<path d="M194.183 227.139C200.999 229.383 212.462 229 212.462 229L198.068 223C198.068 223 196.761 222.572 196.002 222.139C194.874 221.496 192.962 220 192.962 220L182.235 210.5C180.664 212.227 179.084 213.824 177.615 215.191C181.101 217.084 186.141 221.138 186.141 221.138C186.141 221.138 185.111 221.39 183.895 222.139C183.895 222.139 189.94 225.742 194.183 227.139Z" fill="#292929"/>
<path d="M192.962 220C192.962 220 194.874 221.496 196.002 222.139C196.761 222.572 198.068 223 198.068 223C198.068 223 200.031 220.458 200.962 218.638C202.647 215.344 203.462 209.5 203.462 209.5C203.462 209.5 201.327 214.271 198.962 216.5C197.111 218.245 192.962 220 192.962 220Z" fill="#292929"/>
<path d="M196.962 204.5C194.224 202.398 191.565 197.5 191.565 197.5C190.754 199.178 189.687 200.947 188.462 202.726C188.462 202.726 191.201 205.781 193.462 207C197.773 209.324 205.962 208 205.962 208C205.962 208 199.954 206.796 196.962 204.5Z" fill="#292929"/>
<path d="M216.962 192.638C222.462 177.638 221.962 175.638 219.462 165.638C219.462 165.638 216.259 184.302 210.962 195C208.749 199.472 204.462 206 204.462 206C204.462 206 210.401 201.241 213.462 197.5C214.944 195.689 216.962 192.638 216.962 192.638Z" fill="#292929"/>
<path d="M181.962 184.638C181.962 203.638 151.962 223.638 151.962 223.638C151.962 223.638 170.387 215.589 177.462 205.139C183.342 196.454 185.26 190.451 186.141 180C187.184 167.625 181.789 148.5 181.789 148.5C181.962 159.507 181.962 172.642 181.962 184.638Z" fill="#292929"/>
<path d="M198.962 137.638C214.462 126.638 221.962 139.138 221.962 139.138C221.962 139.138 221.051 134.29 218.462 131.639C215.733 128.843 209.462 127.639 209.462 127.639C209.462 127.639 210.096 113.631 209.462 105.5C208.759 96.4733 205.462 83.5 205.462 83.5C205.462 83.5 205.962 103.138 205.962 105.138C205.962 106.726 206.087 108.609 206.22 110.623C206.72 118.18 207.342 127.58 201.962 130.138C200.325 130.916 198.962 131.639 198.962 131.639C198.962 131.639 201.238 121.685 199.962 115.5C198.781 109.769 193.462 102 193.462 102C193.462 102 196.505 113.777 196.962 121.5C197.226 125.943 196.749 129.346 196.263 132.81C195.831 135.898 195.391 139.035 195.462 143C195.608 151.101 197.581 163.639 197.581 163.639C199.434 150.688 198.962 137.638 198.962 137.638Z" fill="#292929"/>
<path d="M130.462 130.138H171.462L170.462 106.139C170.462 106.139 178.207 116.742 180.304 124.05C179.586 121.385 176.582 110.275 174.462 103.139C169.709 87.1404 154.962 66.5 154.962 66.5C154.962 66.5 163.839 83.8798 165.462 96C166.916 106.853 163.962 124 163.962 124C163.962 124 161.397 126.296 153.962 127.639C148.308 128.66 130.462 130.138 130.462 130.138Z" fill="#292929"/>
<path d="M121.962 68.1389C121.962 68.1389 127.631 87.6421 130.462 100.139C131.444 104.47 131.745 109.403 131.719 114C131.719 114 132.377 95.6706 130.462 85.5C128.342 74.2371 120.462 60.5 120.462 60.5L122.447 74C122.374 72.1487 122.22 70.2017 121.962 68.1389Z" fill="#292929"/>
<path d="M78.9624 81.4992C81.652 70.969 89.4624 58.5 89.4624 58.5C89.8356 62.1696 90.1953 66.1836 90.5566 70.2155L90.5567 70.2168C91.1636 76.9887 91.775 83.8113 92.4624 89.1389C93.9082 100.344 97.7928 109.894 101.85 119.867C103.404 123.69 104.985 127.575 106.462 131.639L110.462 130.797L125.462 127.639C125.462 127.639 119.616 127.285 115.962 126.5C114.523 126.191 113.279 126.255 112.088 126.317C110.406 126.404 108.831 126.486 106.962 125.5C103.771 123.816 97.7271 100.354 95.9624 87.5C94.0503 73.5718 94.4624 47.5 94.4624 47.5C94.4624 47.5 86.0967 56.0487 82.9624 63C79.8748 69.8476 78.9624 81.4992 78.9624 81.4992Z" fill="#292929"/>
<path d="M59.9624 131.639C59.9624 131.639 59.41 86.7321 62.4624 103.139C66.4624 124.639 80.9624 131.639 80.9624 131.639C80.9624 131.639 67.4823 113.64 65.9624 99C64.7523 87.3437 69.4624 68.5 69.4624 68.5C69.4624 68.5 57.0017 86.1972 55.4624 100.139C54.0746 112.708 59.9624 131.639 59.9624 131.639Z" fill="#292929"/>
<path d="M28.4624 132.639C37.9624 131.938 43.4624 140.138 43.4624 140.138C43.4624 140.138 39.4999 132.844 35.4624 129.639C33.6566 128.206 30.4624 128.638 30.4624 128.638C30.4624 128.638 28.4688 106.837 30.4624 94.5C32.6396 81.0274 41.9624 61.5 41.9624 61.5C41.9624 61.5 29.5371 80.4234 26.4624 94.5C23.6171 107.526 25.9624 128.638 25.9624 128.638C25.9624 128.638 20.0351 129.442 16.4624 132.639C16.0974 132.966 15.7648 133.316 15.4624 133.689C9.40399 141.146 15.4624 157.138 15.4624 157.138C12.9625 146.137 17.6608 133.436 28.4624 132.639Z" fill="#292929"/>
<path d="M221.962 218.638C225.62 215.518 227.098 209.306 226.962 204.5C226.911 202.67 226.707 201.064 226.316 199.673L225.962 200.5C225.962 200.5 222.388 212.054 218.462 218.638C216.381 222.128 212.462 227.139 212.462 227.139C212.462 227.139 216.962 224.959 219.462 223C220.92 221.858 222.962 219.801 222.962 219.801C222.619 219.418 222.284 219.031 221.962 218.638Z" fill="black"/>
<path d="M16.4624 132.639C20.0351 129.442 25.9624 128.638 25.9624 128.638C25.9624 128.638 17.7342 129.688 14.4624 126.5C11.6758 123.785 11.4624 117 11.4624 117C11.4624 117 10.4638 122.927 11.4624 126.5C12.3271 129.594 15.4624 133.689 15.4624 133.689C15.7648 133.316 16.0974 132.966 16.4624 132.639Z" fill="#292929"/>
<path d="M31.9624 234.5C29.4625 236.836 24.4624 239.027 24.4624 239.027C25.7306 240.568 27.1048 242.111 28.4624 243.568C28.4624 243.568 32.2238 240.514 33.9624 238C37.0901 233.478 37.9624 224.5 37.9624 224.5C37.9624 224.5 35.2902 231.391 31.9624 234.5Z" fill="#292929"/>
<path d="M16.4624 199.639C18.9624 202.639 19.7124 203.39 21.9624 205.139C21.1099 205.423 20.2734 205.931 19.4624 206.607C19.4624 206.607 24.3087 213.759 30.4624 216.5C33.9256 218.043 36.9624 222.139 36.9624 222.139C36.9624 222.139 33.6932 215.824 29.4624 212C23.5915 206.694 15.8375 197 15.8375 197C15.7444 198.066 15.9295 198.999 16.4624 199.639Z" fill="#292929"/>
<path d="M45.9624 250.5C45.9624 250.5 57.4624 238.5 57.4624 234.5C57.4624 234.5 51.1869 242.889 46.6558 247C42.5873 250.691 35.4624 254.5 35.4624 254.5C35.4624 254.5 39.4464 254.389 41.9624 254C43.8144 253.714 46.6558 253 46.6558 253C46.4659 252.022 46.2414 251.157 45.9624 250.5Z" fill="#292929"/>
<path d="M25.9624 265.388C24.4889 266.657 23.1319 267.628 21.8486 268.545C21.8486 268.545 28.3354 268.676 31.9624 267C36.4745 264.915 40.9624 258 40.9624 258C40.9624 258 32.6396 262.318 26.9624 262C20.5183 261.64 11.991 255 11.991 255C16.0325 259.354 21.4249 263.653 25.9624 265.388Z" fill="#292929"/>
<path d="M51.9624 186.394C51.9624 186.394 47.1584 194.735 42.9624 199C38.4018 203.635 29.4624 209 29.4624 209C29.4624 209 39.693 204.596 45.4624 200.5C48.9431 198.029 53.8572 193.5 53.8572 193.5C52.7762 191.483 52.2245 188.894 51.9624 186.394Z" fill="#292929"/>
<path d="M17.1493 178.072C16.6094 179.109 16.2465 180.343 16.4624 181.639C16.737 183.286 19.7256 185.537 22.3646 187.231C22.8736 187.533 23.3938 187.834 23.9158 188.135C24.7737 188.632 25.6365 189.131 26.4624 189.639C31.5286 192.756 40.4624 195.639 40.4624 195.639C40.4624 195.639 30.9624 190.5 24.4624 186C21.1154 183.683 17.1493 178.072 17.1493 178.072Z" fill="#292929"/>
<path fill-rule="evenodd" clip-rule="evenodd" d="M180.462 124.639C180.462 124.639 180.407 124.431 180.304 124.05C180.361 124.249 180.414 124.445 180.462 124.639ZM13.9624 232.136C14.2762 231.815 13.4624 231.639 13.4624 231.639C13.4624 231.639 9.4624 230.807 9.4624 227.139C9.4624 225.86 10.2302 222.879 11.5341 219.5C11.5341 219.5 18.5127 231.3 22.9624 237.138C23.4389 237.763 23.9417 238.395 24.4624 239.027C25.7306 240.568 27.1048 242.111 28.4624 243.568C32.7974 248.222 36.4624 251 36.4624 251C36.4624 251 26.3496 247.684 20.9624 242.416C17.5024 239.033 13.9624 232.136 13.9624 232.136Z" fill="#292929"/>
<path d="M5.9624 298.639L27.4624 305.139L37.4624 295.638L38.4624 304.638C38.4624 304.638 40.5876 299.77 40.4624 296.5C40.3277 292.982 37.4624 288 37.4624 288C37.4624 288 34.7581 293.704 31.9624 296.5C29.1667 299.296 23.4624 302 23.4624 302L5.9624 298.639Z" fill="#292929"/>
<path d="M59.4624 203C59.4624 203 52.9361 215.11 45.4624 218C43.0326 218.94 38.9624 221 38.9624 221C38.9624 221 45.9529 221.042 49.9624 219.5C55.0854 217.53 59.3054 209 59.3054 209C59.882 206.545 60.1713 204.108 60.0658 202L59.4624 203Z" fill="#292929"/>
<path fill-rule="evenodd" clip-rule="evenodd" d="M219.462 223C220.92 221.858 222.962 219.801 222.962 219.801C224.048 221.008 225.225 222.166 226.379 223.3C227.995 224.889 229.564 226.431 230.767 228C230.767 228 228.874 235.636 226.962 240.278C222.501 251.112 209.962 265 209.962 265C209.962 265 217.105 261.258 220.462 257.5C223.206 254.428 225.962 248.5 225.962 248.5C225.962 248.5 225.998 259.087 227.462 265C228.506 269.214 230.583 272.483 232.638 275.718C234.924 279.316 237.183 282.871 237.962 287.638C239.323 295.96 237.962 308.138 237.962 308.138H219.462C219.462 308.138 216.959 304.27 216.962 301.5C216.965 299.03 218.962 295.5 218.962 295.5C218.962 295.5 210.694 296.083 208.962 300C207.914 302.371 208.962 306.638 208.962 306.638H184.462C184.462 306.638 186.933 292.639 191.462 285C194.531 279.824 201.212 273.069 201.212 273.069C204.905 271.963 209.962 268.5 209.962 268.5C209.962 268.5 195.553 272.015 188.962 266.5C184.437 262.713 177.78 252 177.78 252C178.549 248.986 180.577 245.931 182.638 242.825L182.639 242.824C183.06 242.19 183.482 241.554 183.895 240.916C183.895 240.916 189.179 247.136 193.462 250C198.707 253.507 208.462 256 208.462 256C208.462 256 204.744 253.77 199.987 250C199.987 250 203.22 246.813 204.962 244.5C208.746 239.478 211.962 230 211.962 230C211.962 230 207.716 236.846 203.962 240.278C200.98 243.004 195.462 246.178 195.462 246.178C195.037 245.794 194.61 245.402 194.183 245C190.265 241.315 179.99 229.5 179.99 229.5C179.893 225.435 182.098 223.245 183.895 222.139C183.895 222.139 189.94 225.742 194.183 227.139C200.999 229.383 212.462 229 212.462 229L198.068 223C198.068 223 200.031 220.458 200.962 218.638C202.647 215.344 203.462 209.5 203.462 209.5C203.462 209.5 201.327 214.271 198.962 216.5C197.111 218.245 192.962 220 192.962 220L182.235 210.5C184.441 208.073 186.628 205.39 188.462 202.726C188.462 202.726 191.201 205.781 193.462 207C197.773 209.324 205.962 208 205.962 208C205.962 208 199.954 206.796 196.962 204.5C194.224 202.398 191.565 197.5 191.565 197.5C191.705 197.21 191.838 196.922 191.962 196.638C194.039 191.892 195.095 184.893 195.928 177.773C195.953 177.561 195.977 177.35 196.002 177.139C210.095 178.139 219.462 165.638 219.462 165.638C219.462 165.638 216.259 184.302 210.962 195C208.749 199.472 204.462 206 204.462 206C204.462 206 210.401 201.241 213.462 197.5C214.944 195.689 216.962 192.638 216.962 192.638C222.347 193.305 225.156 195.551 226.316 199.673L225.962 200.5C225.962 200.5 222.388 212.054 218.462 218.638C216.381 222.128 212.462 227.139 212.462 227.139C212.462 227.139 216.962 224.959 219.462 223Z" fill="black"/>
<path d="M184.462 291.138C182.988 296.215 184.462 306.638 184.462 306.638C184.462 306.638 186.933 292.639 191.462 285C194.531 279.824 201.212 273.069 201.212 273.069C198.84 273.78 194.962 274.138 194.962 274.138C193.639 276.124 192.339 277.793 191.111 279.371C188.353 282.914 185.957 285.993 184.462 291.138Z" fill="#292929"/>
<path fill-rule="evenodd" clip-rule="evenodd" d="M0.962387 106.639C-0.211142 114.361 -0.596167 122.105 1.4624 129.639C3.52097 137.173 6.96241 135.639 6.96241 135.639C6.96241 135.639 6.6933 147.439 7.46241 153.64C8.23152 159.841 10.4624 167.64 19.4624 175.139C19.4624 175.139 18.0562 176.329 17.1493 178.072C17.1493 178.072 21.1154 183.683 24.4624 186C30.9624 190.5 40.4624 195.639 40.4624 195.639C40.4624 195.639 31.5286 192.756 26.4624 189.639C25.6365 189.131 24.7737 188.632 23.9158 188.135C23.3938 187.834 22.8736 187.533 22.3646 187.231C22.7406 187.473 23.1095 187.703 23.4624 187.918C19.546 188.428 16.1476 193.449 15.8375 197C15.8375 197 23.5915 206.694 29.4624 212C33.6932 215.824 36.9624 222.139 36.9624 222.139C36.9624 222.139 33.9256 218.043 30.4624 216.5C24.3087 213.759 19.4624 206.607 19.4624 206.607C16.1984 209.332 13.3477 214.8 11.5341 219.5C11.5341 219.5 18.5127 231.3 22.9624 237.138C23.4389 237.763 23.9417 238.395 24.4624 239.027C24.4624 239.027 29.4625 236.836 31.9624 234.5C35.2902 231.391 37.9624 224.5 37.9624 224.5C37.9624 224.5 37.0901 233.478 33.9624 238C32.2238 240.514 28.4624 243.568 28.4624 243.568C32.7974 248.222 36.4624 251 36.4624 251C36.4624 251 26.3496 247.684 20.9624 242.416C17.5024 239.033 13.9624 232.136 13.9624 232.136C13.8328 232.268 13.6754 232.426 13.4953 232.606C11.3455 234.757 5.9624 240.143 5.9624 245.139C5.9624 247.354 8.4616 251.198 11.991 255C11.991 255 20.5183 261.64 26.9624 262C32.6396 262.318 40.9624 258 40.9624 258C40.9624 258 36.4745 264.915 31.9624 267C28.3354 268.676 21.8486 268.545 21.8486 268.545C19.4799 270.239 17.362 271.753 15.2256 274.638C10.1319 281.515 5.9624 298.639 5.9624 298.639L23.4624 302C23.4624 302 29.1667 299.296 31.9624 296.5C34.7581 293.704 37.4624 288 37.4624 288C37.4624 288 40.3277 292.982 40.4624 296.5C40.5876 299.77 38.4624 304.638 38.4624 304.638H56.4624C56.4624 304.638 54.8939 291.841 52.4624 284C51.4799 280.832 49.9782 278.438 48.5389 276.143C46.5454 272.965 44.6716 269.977 44.4624 265.388C44.2387 260.48 46.6558 253 46.6558 253C46.6558 253 43.8144 253.714 41.9624 254C39.4464 254.389 35.4624 254.5 35.4624 254.5C35.4624 254.5 42.5873 250.691 46.6558 247C51.1869 242.889 57.4624 234.5 57.4624 234.5C57.4624 230.5 55.6483 226.65 52.4624 222.139C55.3705 219.902 58.0351 214.409 59.3054 209C59.3054 209 55.0854 217.53 49.9624 219.5C45.9529 221.042 38.9624 221 38.9624 221C38.9624 221 43.0326 218.94 45.4624 218C52.9361 215.11 59.4624 203 59.4624 203L60.0658 202C59.8843 198.372 58.5328 195.72 55.4624 195.639C54.8282 195.051 54.2986 194.323 53.8572 193.5C53.8572 193.5 48.9431 198.029 45.4624 200.5C39.693 204.596 29.4624 209 29.4624 209C29.4624 209 38.4018 203.635 42.9624 199C47.1584 194.735 51.9624 186.394 51.9624 186.394C51.4878 181.869 51.9624 177.639 51.9624 177.639H40.4624C31.4624 177.639 17.9624 168.139 15.4624 157.138C15.4624 157.138 9.40399 141.146 15.4624 133.689C15.4624 133.689 12.3271 129.594 11.4624 126.5C10.4638 122.927 11.4624 117 11.4624 117C11.4624 117 11.6758 123.785 14.4624 126.5C17.7342 129.688 25.9624 128.638 25.9624 128.638C25.9624 128.638 23.6171 107.526 26.4624 94.5C29.5371 80.4234 41.9624 61.5 41.9624 61.5C41.9624 61.5 32.6396 81.0274 30.4624 94.5C28.4688 106.837 30.4624 128.638 30.4624 128.638C30.4624 128.638 33.6566 128.206 35.4624 129.639C39.4999 132.844 43.4624 140.138 43.4624 140.138C43.4624 140.138 40.5482 132.543 39.9624 128.638C46.2108 129.81 59.9624 131.639 59.9624 131.639C59.9624 131.639 54.0746 112.708 55.4624 100.139C57.0017 86.1972 69.4624 68.5 69.4624 68.5C69.4624 68.5 64.7523 87.3437 65.9624 99C67.4823 113.64 80.9624 131.639 80.9624 131.639C80.9624 131.639 74.2744 99.8534 78.9624 81.4992C78.9624 81.4992 79.8748 69.8476 82.9624 63C86.0967 56.0487 94.4624 47.5 94.4624 47.5C94.4624 47.5 94.0503 73.5718 95.9624 87.5C97.7271 100.354 103.771 123.816 106.962 125.5C108.831 126.486 110.406 126.404 112.088 126.317C113.279 126.255 114.523 126.191 115.962 126.5C119.616 127.285 125.462 127.639 125.462 127.639C117.891 111.588 119.354 102.321 120.99 91.9555C121.832 86.62 122.721 80.9932 122.447 74L120.462 60.5C120.462 60.5 128.342 74.2371 130.462 85.5C132.377 95.6706 131.719 114 131.719 114C131.671 122.666 130.462 130.138 130.462 130.138C130.462 130.138 148.308 128.66 153.962 127.639C161.397 126.296 163.962 124 163.962 124C163.962 124 166.916 106.853 165.462 96C163.839 83.8798 154.962 66.5 154.962 66.5C154.962 66.5 169.709 87.1404 174.462 103.139C176.582 110.275 179.586 121.385 180.304 124.05C180.361 124.249 180.414 124.445 180.462 124.639C181.231 127.714 181.606 136.932 181.789 148.5C181.789 148.5 187.184 167.625 186.141 180C185.26 190.451 183.342 196.454 177.462 205.139C170.387 215.589 151.962 223.638 151.962 223.638C151.962 223.638 168.441 222.138 173.462 218.638C174.627 217.826 176.059 216.637 177.615 215.191C179.084 213.824 180.664 212.227 182.235 210.5C184.441 208.073 186.628 205.39 188.462 202.726C189.687 200.947 190.754 199.178 191.565 197.5C191.705 197.21 191.838 196.922 191.962 196.638C194.039 191.892 195.095 184.893 195.928 177.773C195.953 177.561 195.977 177.35 196.002 177.139C196.167 175.706 196.323 174.27 196.479 172.85L196.479 172.847C196.83 169.634 197.172 166.498 197.581 163.639C197.581 163.639 195.608 151.101 195.462 143C195.391 139.035 195.831 135.898 196.263 132.81C196.749 129.346 197.226 125.943 196.962 121.5C196.505 113.777 193.462 102 193.462 102C193.462 102 198.781 109.769 199.962 115.5C201.238 121.685 198.962 131.639 198.962 131.639C198.962 131.639 200.325 130.916 201.962 130.138C207.342 127.58 206.72 118.18 206.22 110.623C206.087 108.609 205.962 106.726 205.962 105.138C205.962 103.138 205.462 83.5 205.462 83.5C205.462 83.5 208.759 96.4733 209.462 105.5C210.096 113.631 209.462 127.639 209.462 127.639C209.462 127.639 215.733 128.843 218.462 131.639C221.051 134.29 221.962 139.138 221.962 139.138C221.962 139.138 227.034 133.709 228.462 130.138C236.462 110.139 216.962 49.639 205.962 35.1387C196.961 23.273 181.302 10.9227 166.462 6.13882C157.643 3.2957 152.951 3.34882 147.34 3.41234C143.511 3.4557 139.253 3.5039 132.962 2.63898C92.9624 -2.86091 65.6052 3.63872 39.9624 31.1387C14.3197 58.6387 2.13592 98.9171 0.962387 106.639Z" fill="black"/>
<path d="M56.4624 304.638C56.4624 304.638 56.2889 289.056 54.9624 279.138C54.1984 273.425 52.5181 270.756 50.7086 267.882C49.9635 266.699 49.1964 265.48 48.4624 264C47.949 262.965 47.6658 260.57 47.362 258.002C47.1602 256.295 46.9493 254.512 46.6558 253C46.6558 253 44.2387 260.48 44.4624 265.388C44.6716 269.977 46.5454 272.965 48.5389 276.143C49.9782 278.438 51.4799 280.832 52.4624 284C54.8939 291.841 56.4624 304.638 56.4624 304.638Z" fill="#292929"/>
<path d="M82.9624 152C82.9624 148.686 85.6487 146 88.9624 146C92.2761 146 94.9624 148.686 94.9624 152V154V155V165C94.9624 168.314 92.2761 171 88.9624 171C85.6487 171 82.9624 168.314 82.9624 165V155V154V152Z" fill="black"/>
<path d="M142.962 152C142.962 148.686 145.649 146 148.962 146C152.276 146 154.962 148.686 154.962 152V165C154.962 168.314 152.276 171 148.962 171C145.649 171 142.962 168.314 142.962 165V152Z" fill="black"/>
<path d="M78.9624 190.5C78.9624 193.538 72.0228 196 63.4624 196C54.902 196 47.9624 193.538 47.9624 190.5C47.9624 187.462 54.902 185 63.4624 185C72.0228 185 78.9624 187.462 78.9624 190.5Z" fill="#F9A9E7"/>
<path d="M191.962 190.5C191.962 193.538 185.023 196 176.462 196C167.902 196 160.962 193.538 160.962 190.5C160.962 187.462 167.902 185 176.462 185C185.023 185 191.962 187.462 191.962 190.5Z" fill="#F9A9E7"/>
<path d="M110.11 194.763C110.274 193.942 111.269 193.525 112.026 193.881C113.531 194.588 116.076 195.469 119.462 195.5C123.073 195.533 126.022 194.581 127.76 193.842C128.524 193.518 129.462 194.072 129.462 194.903C129.462 195.274 129.27 195.616 128.94 195.784C127.655 196.439 124.104 198 119.462 198C115.042 198 111.895 196.584 110.608 195.884C110.207 195.666 110.02 195.21 110.11 194.763Z" fill="black"/>
<path d="M82.9624 154C82.9624 154 81.7651 154.562 80.9624 154.5C80.7038 154.48 80.3977 154.389 80.1297 154.289C79.8178 154.174 79.4624 154.395 79.4624 154.728C79.4624 154.895 79.5556 155.048 79.7081 155.116C80.0147 155.254 80.5491 155.468 80.9624 155.5C81.7651 155.562 82.9624 155 82.9624 155V154Z" fill="black"/>
<path d="M156.962 154.5C156.16 154.562 154.962 154 154.962 154V155C154.962 155 156.16 155.562 156.962 155.5C157.376 155.468 157.91 155.254 158.217 155.116C158.369 155.048 158.462 154.895 158.462 154.728C158.462 154.395 158.107 154.174 157.795 154.289C157.527 154.389 157.221 154.48 156.962 154.5Z" fill="black"/>
</svg>
