<svg width="182" height="242" viewBox="0 0 182 242" fill="none" xmlns="http://www.w3.org/2000/svg">
<path d="M89.8721 7.66504C123.88 7.66504 148.268 22.2051 161.073 41.8281L161.847 43.0342C177.299 67.5426 175.691 90.9582 170.555 110.741L170.039 112.675C167.812 120.807 165.041 128.325 162.721 134.988C160.532 141.272 158.76 146.751 158.136 151.366L158.026 152.277C157.881 153.676 157.853 154.976 157.959 156.177L157.965 156.239L157.962 156.301C157.721 162.978 155.152 167.046 151.021 171.707L150.175 172.647C142.32 181.263 128.309 185.475 115.893 187.564C103.412 189.665 92.2585 189.665 89.8721 189.665C87.4673 189.665 78.3644 189.541 67.2217 187.604C56.4415 185.731 43.6668 182.148 33.2021 175.273L32.1963 174.598C28.7639 172.238 26.1361 169.497 24.3799 165.891C22.6289 162.295 21.7812 157.917 21.7812 152.338L21.7695 150.953C21.5576 138.578 18.531 128.619 15.2344 119.242L13.7598 115.107L13.7354 115.04C10.1902 105.171 6.75162 95.5985 6.76172 84.2861C6.77191 72.9481 10.24 59.9608 20.2871 43.1699L20.874 42.2178C27.0864 32.4176 37.8875 23.9059 50.1533 17.793C62.8238 11.4784 77.1714 7.66506 89.8721 7.66504Z" fill="#FFCEB4" stroke="black" stroke-width="2"/>
<path d="M59 204C59 204 51.9141 204.759 47.4722 204.026C39.3831 202.692 36.7115 200.215 31.089 195.003C29.139 193.195 26.834 191.059 23.825 188.526C23.825 188.526 22.339 189.56 21.5 190.823C21.5 190.823 33.3502 205.372 44 206.5C49.9057 207.125 59 204 59 204Z" fill="#1C1E41"/>
<path d="M121.472 217.026C121.472 217.026 89.4722 229.526 54.9722 223.026C53.1604 222.685 51.3168 222.306 49.4722 221.886C49.4722 221.886 53.1554 224.876 59.7774 228.5C59.7774 228.5 79.7823 230.567 92.5 228C104.251 225.628 121.472 217.026 121.472 217.026Z" fill="#1C1E41"/>
<path d="M142.972 215.026C142.972 215.026 141.912 214.398 140.472 213.568C140.472 213.568 140.858 213.426 141.5 213.175C141.5 213.175 138.55 211.338 136.5 210.5C132.102 208.702 124.5 208.5 124.5 208.5C124.5 208.5 132.345 210.355 137 212.5C139.591 213.694 143.411 216 143.411 216C143.136 215.384 142.972 215.026 142.972 215.026Z" fill="#1C1E41"/>
<path d="M151.5 196C154.165 194.893 157.713 192 157.713 192L157.648 191.101C155.643 192.39 153.445 193.67 151.5 194.5C147.75 196.101 141.5 197.5 141.5 197.5C141.5 197.5 147.853 197.515 151.5 196Z" fill="#1C1E41"/>
<path fill-rule="evenodd" clip-rule="evenodd" d="M2.24255 148.649C3.93065 158.685 5.80757 169.844 14.9722 180.026C17.7604 183.125 20.7833 185.967 23.825 188.526C26.834 191.059 29.139 193.195 31.089 195.003C36.7115 200.215 39.3831 202.692 47.4722 204.026C51.9141 204.759 59 204 59 204C59 204 49.9057 207.125 44 206.5C33.3502 205.372 21.5 190.823 21.5 190.823C21.2427 191.21 21.0462 191.619 20.9722 192.026C19.9722 197.526 19.5968 200.437 20.9722 205.526C23.2225 213.854 36.3755 218.904 49.4722 221.886C51.3168 222.306 53.1604 222.685 54.9722 223.026C89.4722 229.526 121.472 217.026 121.472 217.026C121.472 217.026 104.251 225.628 92.5 228C79.7823 230.567 59.7774 228.5 59.7774 228.5C69.1543 233.632 84.4239 240.037 103.472 241.026C121.716 241.974 144.973 239.026 148.972 233.026C150.106 231.326 144.972 219.5 143.411 216C143.411 216 139.591 213.694 137 212.5C132.345 210.355 124.5 208.5 124.5 208.5C124.5 208.5 132.102 208.702 136.5 210.5C138.55 211.338 141.5 213.175 141.5 213.175C143.7 212.315 148.912 210.171 151.972 208.026C154.912 205.966 158.472 202.526 158.472 202.526L157.713 192C157.713 192 154.165 194.893 151.5 196C147.853 197.515 141.5 197.5 141.5 197.5C141.5 197.5 147.75 196.101 151.5 194.5C153.445 193.67 155.643 192.39 157.648 191.101L157.643 191.026C159.754 189.82 161.917 188.367 164 186.622C167.883 183.368 171.49 179.1 173.972 173.526C182.21 155.026 181.972 110.526 181.472 93.0264C181.432 91.6064 181.399 90.2431 181.367 88.9252C181.103 77.9715 180.915 70.1555 176.972 59.0265C163.691 21.5417 135.972 0.918588 93.9727 0.026547C54.7139 -0.807283 23.9721 18.0264 9.47262 53.0265C1.86236 71.3968 -1.27799 132.526 0.472196 139.526C1.19329 142.411 1.70847 145.473 2.24255 148.649ZM36.9727 102.526C30.1873 112.085 21.9727 128.526 21.9727 128.526C21.9727 128.526 21.9722 161.526 35.9726 173.526C47.4722 181.526 67.6956 187.026 91.9727 187.026C169.537 187.026 157.885 142.644 156.579 138.358C157.894 142.585 159.473 151.526 159.473 151.526C159.473 151.526 163.637 144.875 164.973 138.026C167.103 127.102 164.973 106.026 164.973 106.026C164.973 106.026 165.58 124.557 163 136C162.062 140.16 160 146.5 160 146.5C160 146.5 158.766 137.943 156.473 133C154.715 129.21 150.689 124 150.689 124C149.95 122.544 149.181 121.094 148.358 119.544L148.358 119.543L148.357 119.542C147.467 117.864 146.515 116.07 145.473 114.026C131.308 86.2535 106.473 53.0266 93.9727 53.0265C81.4727 53.0264 54.0381 78.4857 36.9727 102.526Z" fill="#35408E"/>
<path d="M159.473 151.526C159.473 151.526 163.637 144.875 164.973 138.026C167.103 127.102 164.973 106.026 164.973 106.026C164.973 106.026 165.58 124.557 163 136C162.062 140.16 160 146.5 160 146.5C160 146.5 158.766 137.943 156.473 133C154.715 129.21 150.689 124 150.689 124C152.692 127.943 154.471 131.923 156.473 138.026C156.473 138.026 156.481 138.05 156.496 138.097C156.498 138.102 156.5 138.108 156.502 138.113L156.51 138.14L156.522 138.176C156.537 138.225 156.557 138.286 156.579 138.358C157.894 142.585 159.473 151.526 159.473 151.526Z" fill="#1C1E41"/>
<path d="M53 126C53 122.686 55.6863 120 59 120C62.3137 120 65 122.686 65 126V128V129V139C65 142.314 62.3137 145 59 145C55.6863 145 53 142.314 53 139V129V128V126Z" fill="black"/>
<path d="M113 126C113 122.686 115.686 120 119 120C122.314 120 125 122.686 125 126V139C125 142.314 122.314 145 119 145C115.686 145 113 142.314 113 139V126Z" fill="black"/>
<path d="M49 164.5C49 167.538 42.0604 170 33.5 170C24.9396 170 18 167.538 18 164.5C18 161.462 24.9396 159 33.5 159C42.0604 159 49 161.462 49 164.5Z" fill="#F9A9E7"/>
<path d="M162 164.5C162 167.538 155.06 170 146.5 170C137.94 170 131 167.538 131 164.5C131 161.462 137.94 159 146.5 159C155.06 159 162 161.462 162 164.5Z" fill="#F9A9E7"/>
<path d="M80.1475 168.763C80.3115 167.942 81.3069 167.525 82.064 167.881C83.5688 168.588 86.1138 169.469 89.5 169.5C93.1101 169.533 96.0601 168.581 97.7976 167.842C98.562 167.518 99.5 168.072 99.5 168.903C99.5 169.274 99.3077 169.616 98.9774 169.784C97.6922 170.439 94.142 172 89.5 172C85.0798 172 81.9327 170.584 80.6455 169.884C80.2448 169.666 80.058 169.21 80.1475 168.763Z" fill="black"/>
<path d="M53 128C53 128 51.8027 128.562 51 128.5C50.7414 128.48 50.4353 128.389 50.1673 128.289C49.8554 128.174 49.5 128.395 49.5 128.728C49.5 128.895 49.5932 129.048 49.7457 129.116C50.0523 129.254 50.5867 129.468 51 129.5C51.8027 129.562 53 129 53 129V128Z" fill="black"/>
<path d="M127 128.5C126.197 128.562 125 128 125 128V129C125 129 126.197 129.562 127 129.5C127.413 129.468 127.948 129.254 128.254 129.116C128.407 129.048 128.5 128.895 128.5 128.728C128.5 128.395 128.145 128.174 127.833 128.289C127.565 128.389 127.259 128.48 127 128.5Z" fill="black"/>
</svg>
