<svg width="255" height="223" viewBox="0 0 255 223" fill="none" xmlns="http://www.w3.org/2000/svg">
<path d="M132.143 28.3828C166.151 28.3829 190.538 42.923 203.343 62.5459L204.117 63.752C219.458 88.0834 217.981 111.337 212.933 131.029C213.81 130.546 214.91 129.978 216.137 129.433C219.127 128.103 223.095 126.795 226.412 127.399L226.838 127.482C231.188 128.396 234.235 130.933 236.044 134.354C237.779 137.635 238.354 141.683 237.954 145.84L237.862 146.673C237.198 151.9 235.928 156.792 233.387 161.023C230.915 165.14 227.272 168.582 221.932 171.107L221.409 171.349C217.443 173.144 211.851 173.759 207.358 173.946C205.09 174.041 203.064 174.027 201.604 173.989C201.056 173.975 200.588 173.957 200.216 173.94C200.146 174.984 200.148 175.969 200.23 176.895L200.235 176.957L200.233 177.019C199.991 183.696 197.422 187.763 193.291 192.425L192.445 193.365C184.59 201.98 170.58 206.192 158.163 208.282C145.684 210.383 134.53 210.383 132.143 210.383C129.738 210.383 120.634 210.258 109.491 208.322C98.7113 206.449 85.9365 202.866 75.4719 195.991L74.467 195.315C71.0345 192.956 68.406 190.214 66.6497 186.608C65.0089 183.239 64.1618 179.182 64.0618 174.094C63.6901 174.104 63.2288 174.116 62.6936 174.12C61.2077 174.132 59.1462 174.102 56.844 173.938C52.4272 173.621 46.9626 172.797 43.009 170.696L42.6311 170.489C32.3059 164.637 26.7424 155.806 26.7424 145.892L26.7561 145.02C26.8956 140.657 28.09 136.292 30.5793 132.925C33.2626 129.295 37.4057 126.892 43.1243 126.892C47.6818 126.892 51.3507 128.908 53.845 130.87C54.0511 131.032 54.2489 131.195 54.4397 131.356C51.5133 122.995 49.0229 114.63 49.0315 105.004C49.0417 93.6659 52.5099 80.6785 62.5569 63.8877L63.1438 62.9355C69.3562 53.1353 80.1581 44.6238 92.4241 38.5107C105.095 32.1962 119.442 28.3828 132.143 28.3828Z" fill="#FFCEB4" stroke="black" stroke-width="2"/>
<path d="M24.2422 206.744C24.2422 213.6 19.7422 219.744 19.7422 219.744L27.7422 213.744C27.7422 213.744 34.2422 221.744 63.7422 221.244C90.6901 220.787 95.6511 216.177 97.5461 214.416C97.8237 214.158 98.0355 213.961 98.241 213.847C95.1514 214.477 78.4571 217.767 67.2424 217.744C65.1655 217.74 63.2905 217.771 61.5545 217.799L61.5527 217.799C53.0867 217.938 47.9234 218.022 38.7424 213.744C32.7424 210.948 14.2424 189.744 10.7424 183.744C4.75316 173.477 8.12849e-05 154.744 8.12849e-05 154.744C0.00916396 165.02 0.780937 174.94 3.2422 180.244C6.14448 186.498 11.7412 191.946 16.4273 196.508C20.7161 200.683 24.2422 204.116 24.2422 206.744Z" fill="#292929"/>
<path d="M173.242 221.744C175.902 220.251 180.242 217.244 180.242 217.244C180.242 217.244 179.742 221.244 183.742 222.244C183.742 222.244 182.071 219.756 181.742 217.744C181.334 215.239 182.242 210.744 182.242 210.744C182.242 210.744 180.801 214.341 179.242 216.244C177.285 218.635 173.242 221.744 173.242 221.744Z" fill="#292929"/>
<path d="M34.7424 130.744C42.3907 124.762 56.7424 134.744 56.7424 134.744C56.7424 134.744 56.3938 130.503 57.2424 128.744C59.4555 124.158 58.7424 117.744 58.7424 117.744C58.7424 117.744 56.8677 122.619 54.2424 124.244C51.0834 126.199 44.7424 124.744 44.7424 124.744C44.7424 124.744 61.6828 113.46 66.7424 104.744C71.8634 95.9223 68.2424 83.7441 68.2424 83.7441C68.2424 83.7441 66.5055 97.3568 62.2424 104.744C58.7456 110.804 53.102 113.018 47.5121 115.212C41.7118 117.488 35.9692 119.741 32.7424 126.244C30.3028 131.161 28.8351 139.744 28.8351 139.744C29.7368 136.365 31.5329 133.255 34.7424 130.744Z" fill="#292929"/>
<path d="M105.242 109.744C131.242 84.2441 129.742 61.2441 129.742 61.2441C129.742 61.2441 137.242 55.2441 143.742 58.2441C143.742 58.2441 142.407 56.2657 140.742 55.2441C137.473 53.2372 130.242 55.2441 130.242 55.2441L128.742 47.2441C128.742 47.2441 122.855 79.9064 107.242 98.7441C92.0629 117.06 53.2424 139.744 53.2424 139.744C53.2424 139.744 88.6024 126.064 105.242 109.744Z" fill="#292929"/>
<path d="M134.242 116.244C135.191 128.027 147.242 132.244 147.242 132.244C147.242 132.244 139.693 123.244 137.742 116.244C135.06 106.621 139.869 96.8789 143.83 88.8546C146.186 84.0806 148.242 79.9148 148.242 76.7441C148.242 70.7116 145.917 63.2441 145.917 63.2441C146.791 69.5038 145.742 79.2441 145.742 79.2441C145.742 79.2441 133.143 102.578 134.242 116.244Z" fill="#292929"/>
<path d="M190.242 136.244C196.558 138.433 207.242 138.744 207.242 138.744C207.242 138.744 206.842 142.454 206.779 146.744C206.779 146.744 210.285 140.332 213.242 136.744C213.464 136.475 213.701 136.175 213.955 135.853C214.932 134.615 216.157 133.062 217.742 131.744C219.48 130.3 222.742 128.744 222.742 128.744L215.242 130.744C215.242 130.744 211.609 128.298 209.742 126.244C206.1 122.238 203.742 113.744 203.742 113.744C203.742 113.744 204.152 122.599 206.242 127.744C207.328 130.415 209.742 134.244 209.742 134.244C209.742 134.244 197.063 133.422 189.742 131.244C164.96 123.873 159.242 74.2441 159.242 74.2441C159.242 74.2441 156.47 78.0281 155.242 80.7439C153.661 84.2427 152.71 90.2441 152.71 90.2441C155.448 84.7841 157.742 80.7439 157.742 80.7439C157.742 80.7439 159.4 100.83 166.242 112.244L166.448 112.587C172.955 123.445 178.104 132.037 190.242 136.244Z" fill="#292929"/>
<path d="M248.242 190.744C252.356 179.774 249.742 160.244 249.742 160.244C249.742 160.244 245.742 151.744 246.242 149.744C246.731 147.789 254.242 148.744 254.242 148.744C254.242 148.744 241.785 134.187 239.242 122.744C238.993 121.621 239.09 118.463 239.229 113.986C239.41 108.129 239.661 100.014 239.296 91.2441C239.296 91.2441 234.654 108.581 235.742 119.744C236.405 126.532 239.742 136.744 239.742 136.744L230.213 133.244C230.213 133.244 236.693 138.795 239.742 143.244C244.823 150.657 245.568 156.798 246.534 164.756L246.534 164.757C246.744 166.489 246.964 168.308 247.242 170.244C248.382 178.178 248.242 190.744 248.242 190.744Z" fill="#292929"/>
<path d="M217.742 171.744L199.742 173.244C199.742 173.244 210.74 173.268 216.742 174.244C222.073 175.111 228.742 177.744 228.742 177.744C228.742 177.744 221.338 172.062 217.242 167.744C212.834 163.097 207.242 154.744 207.242 154.744C208.45 161.748 217.742 171.744 217.742 171.744Z" fill="#292929"/>
<path fill-rule="evenodd" clip-rule="evenodd" d="M173.242 221.744C170.583 223.237 153.242 222.244 153.242 222.244L114.742 217.244C114.742 217.244 105.233 214.596 98.7422 213.744C98.5598 213.72 98.4024 213.758 98.241 213.847C95.1514 214.477 78.4571 217.767 67.2424 217.744C65.1655 217.74 63.2905 217.771 61.5545 217.799L61.5527 217.799C53.0867 217.938 47.9234 218.022 38.7424 213.744C32.7424 210.948 14.2424 189.744 10.7424 183.744C4.75316 173.477 8.12849e-05 154.744 8.12849e-05 154.744C-0.0113482 141.812 1.18497 128.316 1.7422 122.744C2.89792 111.187 18.6233 89.0837 28.2857 75.5022C32.4189 69.6926 35.4427 65.4423 35.7422 64.2439C39.828 47.897 45.6243 35.4478 57.2424 23.2439C68.8605 11.0401 86.7424 3.74414 98.7424 1.2438C121.38 -3.47295 154.242 6.74395 154.242 6.74395C154.242 6.74395 187.742 3.24395 209.242 21.7439C226.101 36.2506 227.396 40.1977 230.213 48.7827C230.989 51.146 231.88 53.8607 233.242 57.244C237.306 67.3342 238.821 79.8423 239.296 91.2441C239.296 91.2441 234.654 108.581 235.742 119.744C236.405 126.532 239.742 136.744 239.742 136.744L230.213 133.244C230.213 133.244 236.693 138.795 239.742 143.244C244.823 150.657 245.568 156.798 246.534 164.756L246.534 164.757C246.744 166.489 246.964 168.308 247.242 170.244C248.382 178.178 248.242 190.744 248.242 190.744C243.394 203.672 231.742 215.244 229.242 215.244C229.242 215.244 226.807 213.007 225.242 210.744C222.781 207.185 220.742 199.744 220.742 199.744C220.742 199.744 221.675 203.735 221.242 206.244C220.803 208.791 218.531 212.28 218.531 212.28C217.645 213.216 216.243 214.321 213.242 215.244L212.734 215.401L212.05 215.612C204.68 217.888 187.52 223.188 183.742 222.244C183.742 222.244 182.071 219.756 181.742 217.744C181.334 215.239 182.242 210.744 182.242 210.744C182.242 210.744 180.801 214.341 179.242 216.244C177.285 218.635 173.242 221.744 173.242 221.744ZM53.2424 139.744L56.7424 134.744C56.7424 134.744 56.3938 130.503 57.2424 128.744C59.4555 124.158 58.7424 117.744 58.7424 117.744C58.7424 117.744 56.8677 122.619 54.2424 124.244C51.0834 126.199 44.7424 124.744 44.7424 124.744C44.7424 124.744 61.6828 113.46 66.7424 104.744C71.8634 95.9223 68.2424 83.7441 68.2424 83.7441C68.2424 83.7441 66.5055 97.3568 62.2424 104.744C58.7456 110.804 53.102 113.018 47.5121 115.212C41.7118 117.488 35.9692 119.741 32.7424 126.244C30.3028 131.161 28.8351 139.744 28.8351 139.744C27.6466 144.198 28.0119 149.117 28.7424 153.744C30.2424 163.244 42.8674 170.208 48.2424 171.744C55.2424 173.744 64.7424 173.244 64.7424 173.244C64.7424 173.244 62.7424 210.744 137.742 209.244C203.729 207.924 199.742 173.244 199.742 173.244C199.742 173.244 210.74 173.268 216.742 174.244C222.073 175.111 228.742 177.744 228.742 177.744C228.742 177.744 221.338 172.062 217.242 167.744C212.834 163.097 207.242 154.744 207.242 154.744C206.832 152.367 206.739 149.441 206.779 146.744C206.779 146.744 210.285 140.332 213.242 136.744C213.464 136.475 213.701 136.175 213.955 135.853C214.932 134.615 216.157 133.062 217.742 131.744C219.48 130.3 222.742 128.744 222.742 128.744L215.242 130.744C215.242 130.744 211.609 128.298 209.742 126.244C206.1 122.238 203.742 113.744 203.742 113.744C203.742 113.744 204.152 122.599 206.242 127.744C207.328 130.415 209.742 134.244 209.742 134.244C209.742 134.244 197.063 133.422 189.742 131.244C164.96 123.873 159.242 74.2441 159.242 74.2441C159.242 74.2441 156.47 78.0281 155.242 80.7439C153.661 84.2427 152.71 90.2441 152.71 90.2441C149 97.6435 144.475 107.651 143.742 113.744C142.661 122.738 147.242 132.244 147.242 132.244C147.242 132.244 139.693 123.244 137.742 116.244C135.06 106.621 139.869 96.8789 143.83 88.8546C146.186 84.0806 148.242 79.9148 148.242 76.7441C148.242 70.7116 145.917 63.2441 145.917 63.2441C145.566 60.7321 144.905 58.7807 143.742 58.2441C143.742 58.2441 142.407 56.2657 140.742 55.2441C137.473 53.2372 130.242 55.2441 130.242 55.2441L128.742 47.2441C128.742 47.2441 122.855 79.9064 107.242 98.7441C92.0629 117.06 53.2424 139.744 53.2424 139.744Z" fill="black"/>
<path d="M219.164 211.557C219.776 210.827 220.212 210.306 221.242 210.244C222.358 210.177 223.262 211.165 224.281 212.28C225.547 213.664 226.992 215.244 229.242 215.244C229.242 215.244 226.807 213.007 225.242 210.744C222.781 207.185 220.742 199.744 220.742 199.744C220.742 199.744 221.675 203.735 221.242 206.244C220.803 208.791 218.531 212.28 218.531 212.28C218.773 212.024 218.977 211.781 219.164 211.557Z" fill="#292929"/>
<path d="M95.7424 147.244C95.7424 143.93 98.4287 141.244 101.742 141.244C105.056 141.244 107.742 143.93 107.742 147.244V149.244V150.244V160.244C107.742 163.558 105.056 166.244 101.742 166.244C98.4287 166.244 95.7424 163.558 95.7424 160.244V150.244V149.244V147.244Z" fill="black"/>
<path d="M155.742 147.244C155.742 143.931 158.429 141.244 161.742 141.244C165.056 141.244 167.742 143.931 167.742 147.244V160.244C167.742 163.558 165.056 166.244 161.742 166.244C158.429 166.244 155.742 163.558 155.742 160.244V147.244Z" fill="black"/>
<path d="M91.7424 185.744C91.7424 188.782 84.8028 191.244 76.2424 191.244C67.682 191.244 60.7424 188.782 60.7424 185.744C60.7424 182.707 67.682 180.244 76.2424 180.244C84.8028 180.244 91.7424 182.707 91.7424 185.744Z" fill="#F9A9E7"/>
<path d="M204.742 185.744C204.742 188.782 197.803 191.244 189.242 191.244C180.682 191.244 173.742 188.782 173.742 185.744C173.742 182.707 180.682 180.244 189.242 180.244C197.803 180.244 204.742 182.707 204.742 185.744Z" fill="#F9A9E7"/>
<path d="M122.89 190.007C123.054 189.186 124.049 188.769 124.806 189.125C126.311 189.832 128.856 190.713 132.242 190.744C135.853 190.777 138.802 189.825 140.54 189.087C141.304 188.762 142.242 189.316 142.242 190.147C142.242 190.518 142.05 190.86 141.72 191.028C140.435 191.683 136.884 193.244 132.242 193.244C127.822 193.244 124.675 191.829 123.388 191.128C122.987 190.91 122.8 190.454 122.89 190.007Z" fill="black"/>
<path d="M95.7424 149.244C95.7424 149.244 94.5451 149.806 93.7424 149.744C93.4838 149.724 93.1777 149.633 92.9097 149.533C92.5978 149.418 92.2424 149.639 92.2424 149.972C92.2424 150.139 92.3357 150.292 92.4881 150.36C92.7947 150.498 93.3291 150.712 93.7424 150.744C94.5451 150.806 95.7424 150.244 95.7424 150.244V149.244Z" fill="black"/>
<path d="M169.742 149.744C168.94 149.806 167.742 149.244 167.742 149.244V150.244C167.742 150.244 168.94 150.806 169.742 150.744C170.156 150.712 170.69 150.498 170.997 150.36C171.149 150.292 171.242 150.139 171.242 149.972C171.242 149.639 170.887 149.418 170.575 149.533C170.307 149.633 170.001 149.724 169.742 149.744Z" fill="black"/>
</svg>
