<svg width="214" height="263" viewBox="0 0 214 263" fill="none" xmlns="http://www.w3.org/2000/svg">
<path d="M106.932 19.1558C140.94 19.1559 165.327 33.6959 178.132 53.3188L178.906 54.5249C194.248 78.8563 192.77 102.11 187.722 121.802C188.599 121.319 189.7 120.751 190.926 120.206C193.916 118.876 197.884 117.568 201.201 118.172L201.627 118.255C205.977 119.169 209.024 121.706 210.833 125.127C212.568 128.408 213.143 132.456 212.743 136.613L212.651 137.446C211.987 142.673 210.717 147.565 208.176 151.796C205.704 155.913 202.061 159.355 196.721 161.88L196.198 162.122C192.232 163.917 186.64 164.532 182.147 164.719C179.879 164.814 177.853 164.8 176.393 164.762C175.846 164.748 175.377 164.73 175.005 164.713C174.935 165.757 174.937 166.742 175.019 167.667L175.024 167.73L175.022 167.792C174.78 174.469 172.211 178.536 168.08 183.198L167.234 184.138C159.379 192.753 145.369 196.965 132.952 199.055C120.473 201.156 109.319 201.156 106.932 201.156C104.527 201.156 95.4235 201.031 84.2805 199.095C73.5003 197.222 60.7256 193.639 50.261 186.764L49.2561 186.088C45.8235 183.728 43.195 180.987 41.4387 177.381C39.7979 174.012 38.9509 169.955 38.8508 164.867C38.4791 164.877 38.0178 164.889 37.4827 164.893C35.9968 164.905 33.9353 164.875 31.6331 164.71C27.2162 164.394 21.7517 163.57 17.7981 161.469L17.4202 161.262C7.095 155.41 1.53149 146.579 1.53149 136.665L1.54517 135.792C1.68471 131.43 2.8791 127.065 5.36841 123.698C8.05163 120.068 12.1948 117.665 17.9133 117.665C22.4709 117.665 26.1397 119.681 28.634 121.643C28.8402 121.805 29.0379 121.968 29.2288 122.129C26.3023 113.768 23.812 105.403 23.8206 95.7769C23.8308 84.4389 27.299 71.4515 37.3459 54.6606L37.9329 53.7085C44.1453 43.9082 54.9471 35.3967 67.2131 29.2837C79.8836 22.9691 94.2313 19.1558 106.932 19.1558Z" fill="#FFCEB4" stroke="black" stroke-width="2"/>
<path d="M8.03149 258.517C12.4136 260.278 16.2449 257.517 21.5314 257.517C22.4541 257.517 25.0793 239.215 25.4799 236.383C25.0894 239.179 22.6489 257.056 24.0314 257.517C24.0314 257.517 29.6011 244.836 28.5315 236.517C27.5401 228.807 20.0315 218.517 20.0315 218.517C20.0315 218.517 23.2416 232.68 21.5314 241.517C21.2764 242.835 21.1079 244.11 20.946 245.334C20.3775 249.635 19.8915 253.311 16.0315 256.017C13.3514 257.896 8.03149 258.517 8.03149 258.517Z" fill="#292929"/>
<path d="M40.0315 260.326C42.4746 260.296 44.3257 259.899 45.0314 259.017C45.4776 258.459 45.7247 254.631 45.8616 250.6C45.8297 245.529 46.0314 240.517 46.0314 240.517C46.0314 240.517 46.0277 245.707 45.8616 250.6C45.867 251.471 45.8794 252.344 45.9008 253.193C45.9008 253.193 48.2043 245.841 48.0315 241.017C47.8586 236.19 43.5315 230.517 43.5315 230.517C43.5315 230.517 44.756 245.551 43.5315 252.517C42.6091 257.765 40.0315 260.326 40.0315 260.326Z" fill="#292929"/>
<path d="M170.031 261.517C170.531 260.017 170.031 252.517 170.031 252.517C170.031 252.517 169.237 247.048 169.031 243.517C168.805 239.618 169.031 233.517 169.031 233.517C169.031 233.517 167.452 242.117 167.531 247.517C167.618 253.391 170.031 261.517 170.031 261.517Z" fill="#292929"/>
<path d="M191.531 258.517C193.032 257.517 191.531 248.517 191.531 248.517L193.031 251.517C193.031 251.517 191.426 244.586 191.031 238.517C190.55 231.11 191.031 217.017 191.031 217.017C191.031 217.017 187.292 230.9 187.531 239.517C187.757 247.614 191.531 258.517 191.531 258.517Z" fill="#292929"/>
<path d="M191.531 137.017C195.925 130.378 199.531 119.017 199.531 119.017C199.531 119.017 200.144 109.539 199.531 103.517C198.549 93.8567 193.031 79.5171 193.031 79.5171C193.031 79.5171 196.216 95.95 195.531 106.517C194.952 115.459 194.108 120.601 191.031 129.017C187.548 138.548 178.031 151.517 178.031 151.517C178.031 151.517 187.138 143.656 191.531 137.017Z" fill="#292929"/>
<path d="M159.531 62.0173C159.531 62.0173 177.932 101.164 179.031 128.017C179.407 137.195 178.031 151.517 178.031 151.517C178.031 151.517 180.855 134.278 180.031 121.517C178.806 102.517 171.031 76.5171 164.531 65.5171C161.63 60.6073 157.031 56.5171 157.031 56.5171L160.751 69.5171C160.085 65.2301 159.531 62.0173 159.531 62.0173Z" fill="#292929"/>
<path d="M141.531 92.0173C144.116 90.8685 141.531 61.0171 141.531 61.0171C141.531 61.0171 142.891 72.2862 144.885 81.0171L145.031 65.5171C143.973 59.8726 139.031 55.5171 139.031 55.5171C139.031 55.5171 139.685 62.4286 140.031 69.5171C140.472 78.5402 138.531 92.6012 138.531 92.6012C140.017 92.424 141.056 92.2287 141.531 92.0173Z" fill="#292929"/>
<path d="M125.047 87.0171C124.597 89.9061 125.047 93.4351 125.047 93.4351C126.656 93.3803 128.195 93.3183 129.642 93.2494C129.642 93.2494 128.115 91.4067 127.531 89.0171C126.79 85.982 126.031 79.5171 126.031 79.5171C126.031 79.5171 125.478 84.2548 125.047 87.0171Z" fill="#292929"/>
<path d="M86.5315 87.0171C86.3471 89.8624 85.0315 93.2494 85.0315 93.2494C86.2938 93.3192 87.6322 93.3811 89.0315 93.4351C89.0315 93.4351 89.2995 89.3209 89.0315 87.0171C88.6374 83.6298 86.0315 79.5171 86.0315 79.5171C86.0315 79.5171 86.6956 84.484 86.5315 87.0171Z" fill="#292929"/>
<path d="M68.5314 90.0173C71.116 88.8685 76.0314 60.0173 76.0314 60.0173C76.0314 60.0173 75.5577 64.991 75.0809 71.0171L78.0315 54.0171C78.0315 54.0171 74.0513 61.4818 72.0315 66.5171C68.5149 75.2837 68.5314 90.0173 68.5314 90.0173Z" fill="#292929"/>
<path d="M38.0314 112.517C40.9999 96.8416 53.0314 74.5173 53.0314 74.5173C53.0314 74.5173 52.6887 77.8713 52.4947 81.5171C52.4947 81.5171 53.4782 73.9938 55.0315 69.0171C56.3388 64.8284 59.5315 58.0171 59.5315 58.0171C59.5315 58.0171 51.6208 68.2018 48.0315 74.5173C40.1447 88.3942 38.0314 112.517 38.0314 112.517Z" fill="#292929"/>
<path fill-rule="evenodd" clip-rule="evenodd" d="M5.03138 73.5174C20.263 26.1736 55.0315 -0.781421 109.031 0.01726C161.054 0.786693 201.092 33.6522 212.031 84.5173C215.726 101.698 211.531 130.017 211.531 130.017C211.531 130.017 208.531 119.017 199.531 119.017C199.531 119.017 200.144 109.539 199.531 103.517C198.549 93.8567 193.031 79.5171 193.031 79.5171C193.031 79.5171 196.216 95.95 195.531 106.517C194.952 115.459 194.108 120.601 191.031 129.017C187.548 138.548 178.031 151.517 178.031 151.517C178.031 151.517 180.855 134.278 180.031 121.517C178.806 102.517 171.031 76.5171 164.531 65.5171C161.63 60.6073 157.031 56.5171 157.031 56.5171L160.751 69.5171C162.084 78.1097 163.866 91.0173 162.531 91.0173C160.467 91.0173 158.857 91.198 157.38 91.3637C154.768 91.6569 152.575 91.9031 149.031 91.0173C147.525 90.6406 146.089 86.2922 144.885 81.0171L145.031 65.5171C143.973 59.8726 139.031 55.5171 139.031 55.5171C139.031 55.5171 139.685 62.4286 140.031 69.5171C140.472 78.5402 138.531 92.6012 138.531 92.6012C136.386 92.857 133.307 93.0751 129.642 93.2494C129.642 93.2494 128.115 91.4067 127.531 89.0171C126.79 85.982 126.031 79.5171 126.031 79.5171C126.031 79.5171 125.478 84.2548 125.047 87.0171C124.597 89.9061 125.047 93.4351 125.047 93.4351C114.038 93.8105 99.7487 93.8494 89.0315 93.4351C89.0315 93.4351 89.2995 89.3209 89.0315 87.0171C88.6374 83.6298 86.0315 79.5171 86.0315 79.5171C86.0315 79.5171 86.6956 84.484 86.5315 87.0171C86.3471 89.8624 85.0315 93.2494 85.0315 93.2494C79.9994 92.9711 76.1773 92.5659 74.5314 92.0173C73.6274 91.7159 74.3577 80.1563 75.0809 71.0171L78.0315 54.0171C78.0315 54.0171 74.0513 61.4818 72.0315 66.5171C68.5149 75.2837 68.5314 90.0173 68.5314 90.0173C64.0314 92.0173 54.5314 91.8354 53.0314 90.5173C52.2483 89.8291 52.2828 85.4991 52.4947 81.5171C52.4947 81.5171 53.4782 73.9938 55.0315 69.0171C56.3388 64.8284 59.5315 58.0171 59.5315 58.0171C59.5315 58.0171 51.6208 68.2018 48.0315 74.5173C40.1447 88.3942 38.0314 112.517 38.0314 112.517C35.0886 128.057 38.0314 153.017 38.0314 153.017C38.0314 153.017 16.7006 124.513 17.0315 103.517C17.1757 94.3659 21.5315 80.5171 21.5315 80.5171C21.5315 80.5171 15.3671 92.1362 14.0315 100.517C12.8724 107.79 14.0315 119.35 14.0315 119.35C12.6411 119.644 10.8144 120.162 9.53138 121.017C7.18824 122.579 3.03138 130.017 3.03138 130.017C3.03138 130.017 -0.359205 112.55 0.0313191 101.517C0.421843 90.4851 1.62951 84.0913 5.03138 73.5174ZM211.531 138.517L212.031 241.517C212.031 241.517 211.031 254.517 208.531 256.517C205.177 259.201 196.531 258.517 196.531 258.517L193.031 251.517C193.031 251.517 191.426 244.586 191.031 238.517C190.55 231.11 191.031 217.017 191.031 217.017C191.031 217.017 187.292 230.9 187.531 239.517C187.757 247.614 191.531 258.517 191.531 258.517C190.031 259.517 174.031 259.517 172.531 258.517C171.271 257.677 170.031 252.517 170.031 252.517C170.031 252.517 169.237 247.048 169.031 243.517C168.805 239.618 169.031 233.517 169.031 233.517C169.031 233.517 167.452 242.117 167.531 247.517C167.618 253.391 170.031 261.517 170.031 261.517C169.461 263.227 49.0315 262.017 47.0315 261.017C46.3024 260.653 46.0015 257.18 45.9008 253.193C45.9008 253.193 48.2043 245.841 48.0315 241.017C47.8586 236.19 43.5315 230.517 43.5315 230.517C43.5315 230.517 44.756 245.551 43.5315 252.517C42.6091 257.765 40.0315 260.326 40.0315 260.326C35.5508 260.38 29.079 259.2 24.0314 257.517C24.0314 257.517 29.6011 244.836 28.5315 236.517C27.5401 228.807 20.0315 218.517 20.0315 218.517C20.0315 218.517 23.2416 232.68 21.5314 241.517C21.2764 242.835 21.1079 244.11 20.946 245.334C20.3775 249.635 19.8915 253.311 16.0315 256.017C13.3514 257.896 8.03149 258.517 8.03149 258.517C1.70333 255.974 2.53138 243.017 2.53138 243.017L5.03138 147.517C5.03138 147.517 15.0315 162.017 24.0315 162.517C30.2824 162.864 40.0315 163.517 40.0315 163.517C40.0315 163.517 41.1715 177.581 47.5314 183.517C55.0314 190.517 82.3756 201.227 109.031 200.517C135.021 199.825 162.031 191.517 167.531 182.017C171.352 175.418 174.031 163.517 174.031 163.517C174.031 163.517 187.081 164.798 195.031 161.517C209.031 155.74 211.531 138.517 211.531 138.517ZM45.8616 250.6C45.8297 245.529 46.0314 240.517 46.0314 240.517C46.0314 240.517 46.0277 245.707 45.8616 250.6Z" fill="black"/>
<path d="M23.5314 138.017C28.0224 145.047 38.0314 153.017 38.0314 153.017C38.0314 153.017 16.7006 124.513 17.0315 103.517C17.1757 94.3659 21.5315 80.5171 21.5315 80.5171C21.5315 80.5171 15.3671 92.1362 14.0315 100.517C12.8724 107.79 14.0315 119.35 14.0315 119.35C15.1804 119.107 16.0314 119.017 16.0314 119.017C16.0314 119.017 19.0404 130.988 23.5314 138.017Z" fill="#292929"/>
<path d="M70.5315 138.017C70.5315 134.703 73.2178 132.017 76.5315 132.017C79.8452 132.017 82.5315 134.703 82.5315 138.017V140.017V141.017V151.017C82.5315 154.331 79.8452 157.017 76.5315 157.017C73.2178 157.017 70.5315 154.331 70.5315 151.017V141.017V140.017V138.017Z" fill="black"/>
<path d="M130.531 138.017C130.531 134.703 133.218 132.017 136.531 132.017C139.845 132.017 142.531 134.703 142.531 138.017V151.017C142.531 154.331 139.845 157.017 136.531 157.017C133.218 157.017 130.531 154.331 130.531 151.017V138.017Z" fill="black"/>
<path d="M66.5315 176.517C66.5315 179.555 59.5919 182.017 51.0315 182.017C42.4711 182.017 35.5315 179.555 35.5315 176.517C35.5315 173.48 42.4711 171.017 51.0315 171.017C59.5919 171.017 66.5315 173.48 66.5315 176.517Z" fill="#F9A9E7"/>
<path d="M179.531 176.517C179.531 179.555 172.592 182.017 164.031 182.017C155.471 182.017 148.531 179.555 148.531 176.517C148.531 173.48 155.471 171.017 164.031 171.017C172.592 171.017 179.531 173.48 179.531 176.517Z" fill="#F9A9E7"/>
<path d="M97.679 180.78C97.843 179.959 98.8384 179.542 99.5955 179.898C101.1 180.605 103.645 181.486 107.031 181.517C110.642 181.55 113.592 180.598 115.329 179.86C116.093 179.535 117.031 180.089 117.031 180.92C117.031 181.291 116.839 181.633 116.509 181.801C115.224 182.456 111.673 184.017 107.031 184.017C102.611 184.017 99.4642 182.602 98.177 181.901C97.7763 181.683 97.5895 181.227 97.679 180.78Z" fill="black"/>
<path d="M70.5315 140.017C70.5315 140.017 69.3342 140.579 68.5315 140.517C68.2729 140.497 67.9668 140.406 67.6988 140.306C67.3868 140.191 67.0315 140.412 67.0315 140.745C67.0315 140.912 67.1247 141.065 67.2772 141.133C67.5838 141.271 68.1182 141.485 68.5315 141.517C69.3342 141.579 70.5315 141.017 70.5315 141.017V140.017Z" fill="black"/>
<path d="M144.531 140.517C143.729 140.579 142.531 140.017 142.531 140.017V141.017C142.531 141.017 143.729 141.579 144.531 141.517C144.945 141.485 145.479 141.271 145.786 141.133C145.938 141.065 146.031 140.912 146.031 140.745C146.031 140.412 145.676 140.191 145.364 140.306C145.096 140.406 144.79 140.497 144.531 140.517Z" fill="black"/>
</svg>
