<svg width="32" height="32" viewBox="0 0 32 32" fill="none" xmlns="http://www.w3.org/2000/svg">
<path fill-rule="evenodd" clip-rule="evenodd" d="M19.0155 3.53445C18.3208 0.682528 14.2622 0.682528 13.5675 3.53445C13.4638 3.963 13.2604 4.361 12.9738 4.69608C12.6872 5.03115 12.3255 5.29383 11.9182 5.46273C11.5109 5.63163 11.0695 5.70198 10.6299 5.66807C10.1903 5.63415 9.76485 5.49692 9.38829 5.26754C6.88002 3.7392 4.00978 6.6094 5.53814 9.11763C6.52535 10.7374 5.64966 12.8507 3.80685 13.2986C0.953056 13.9915 0.953056 18.0518 3.80685 18.7429C4.23552 18.8467 4.6336 19.0503 4.96868 19.3371C5.30376 19.6239 5.56636 19.9858 5.7351 20.3934C5.90385 20.8009 5.97396 21.2425 5.93973 21.6822C5.9055 22.1219 5.7679 22.5474 5.53814 22.9238C4.00978 25.4321 6.88002 28.3023 9.38829 26.7739C9.76478 26.5442 10.1902 26.4066 10.63 26.3723C11.0697 26.3381 11.5113 26.4082 11.9188 26.577C12.3263 26.7457 12.6882 27.0083 12.9751 27.3434C13.2619 27.6785 13.4655 28.0765 13.5693 28.5052C14.2622 31.3589 18.3226 31.3589 19.0137 28.5052C19.1179 28.0768 19.3217 27.679 19.6086 27.3441C19.8954 27.0093 20.2573 26.7468 20.6647 26.5781C21.0721 26.4095 21.5135 26.3393 21.9531 26.3733C22.3927 26.4073 22.8181 26.5446 23.1947 26.7739C25.703 28.3023 28.5732 25.4321 27.0449 22.9238C26.8155 22.5473 26.6782 22.1219 26.6442 21.6823C26.6102 21.2427 26.6804 20.8012 26.8491 20.3938C27.0178 19.9865 27.2802 19.6246 27.6151 19.3377C27.9499 19.0509 28.3477 18.8471 28.7762 18.7429C31.63 18.05 31.63 13.9897 28.7762 13.2986C28.3475 13.1948 27.9494 12.9911 27.6143 12.7043C27.2793 12.4175 27.0166 12.0556 26.8479 11.6481C26.6792 11.2406 26.609 10.799 26.6433 10.3593C26.6775 9.91955 26.8151 9.49412 27.0449 9.11763C28.5732 6.6094 25.703 3.7392 23.1947 5.26754C22.8182 5.4973 22.3928 5.6349 21.953 5.66913C21.5133 5.70335 21.0717 5.63324 20.6642 5.4645C20.2567 5.29576 19.8948 5.03316 19.608 4.69809C19.3211 4.36301 19.1175 3.96494 19.0137 3.53628L19.0155 3.53445Z" stroke="#464255" stroke-width="2"/>
<path d="M19.5415 16.0205C19.5415 17.8154 18.0864 19.2705 16.2915 19.2705C14.4966 19.2705 13.0415 17.8154 13.0415 16.0205C13.0415 14.2256 14.4966 12.7705 16.2915 12.7705C18.0864 12.7705 19.5415 14.2256 19.5415 16.0205Z" stroke="#464255" stroke-width="2"/>
</svg>
