<svg width="241" height="80" viewBox="0 0 241 80" fill="none" xmlns="http://www.w3.org/2000/svg">
<g filter="url(#filter0_d_1265_2602)">
<rect x="9.63184" y="5.47656" width="220.974" height="60" rx="10" fill="#FFC916"/>
</g>
<g filter="url(#filter1_di_1265_2602)">
<path d="M38.8879 40.1016H32.6379L31.6879 42.9766H26.5379L32.9629 25.3516H38.6129L45.0129 42.9766H39.8379L38.8879 40.1016ZM37.6629 36.3516L35.7629 30.6516L33.8879 36.3516H37.6629ZM53.335 25.3516C55.185 25.3516 56.8016 25.7266 58.185 26.4766C59.585 27.2099 60.66 28.2432 61.41 29.5766C62.16 30.9099 62.535 32.4349 62.535 34.1516C62.535 35.8516 62.1516 37.3682 61.385 38.7016C60.635 40.0349 59.56 41.0849 58.16 41.8516C56.7766 42.6016 55.1683 42.9766 53.335 42.9766H46.36V25.3516H53.335ZM52.96 38.6516C54.3933 38.6516 55.5183 38.2599 56.335 37.4766C57.1516 36.6932 57.56 35.5849 57.56 34.1516C57.56 32.7016 57.1516 31.5849 56.335 30.8016C55.5183 30.0016 54.3933 29.6016 52.96 29.6016H51.26V38.6516H52.96ZM71.4688 25.3516C73.3188 25.3516 74.9354 25.7266 76.3188 26.4766C77.7188 27.2099 78.7938 28.2432 79.5438 29.5766C80.2938 30.9099 80.6688 32.4349 80.6688 34.1516C80.6688 35.8516 80.2854 37.3682 79.5188 38.7016C78.7688 40.0349 77.6938 41.0849 76.2937 41.8516C74.9104 42.6016 73.3021 42.9766 71.4688 42.9766H64.4938V25.3516H71.4688ZM71.0938 38.6516C72.5271 38.6516 73.6521 38.2599 74.4688 37.4766C75.2854 36.6932 75.6938 35.5849 75.6938 34.1516C75.6938 32.7016 75.2854 31.5849 74.4688 30.8016C73.6521 30.0016 72.5271 29.6016 71.0938 29.6016H69.3938V38.6516H71.0938ZM99.2377 45.9266L97.2877 43.0016C96.7377 43.1016 96.1794 43.1516 95.6127 43.1516C93.9627 43.1516 92.446 42.7682 91.0627 42.0016C89.6794 41.2182 88.5794 40.1432 87.7627 38.7766C86.9627 37.3932 86.5627 35.8349 86.5627 34.1016C86.5627 32.3682 86.9627 30.8182 87.7627 29.4516C88.5794 28.0682 89.6794 26.9932 91.0627 26.2266C92.446 25.4599 93.9627 25.0766 95.6127 25.0766C97.2794 25.0766 98.796 25.4599 100.163 26.2266C101.546 26.9932 102.638 28.0682 103.438 29.4516C104.238 30.8182 104.638 32.3682 104.638 34.1016C104.638 35.5516 104.346 36.8932 103.763 38.1266C103.179 39.3432 102.379 40.3599 101.363 41.1766L105.088 45.9266H99.2377ZM91.5627 34.1016C91.5627 35.4849 91.921 36.5849 92.6377 37.4016C93.3544 38.2016 94.346 38.6016 95.6127 38.6016C96.8627 38.6016 97.846 38.1932 98.5627 37.3766C99.296 36.5599 99.6627 35.4682 99.6627 34.1016C99.6627 32.7016 99.296 31.6016 98.5627 30.8016C97.846 29.9849 96.8627 29.5766 95.6127 29.5766C94.346 29.5766 93.3544 29.9849 92.6377 30.8016C91.921 31.6016 91.5627 32.7016 91.5627 34.1016ZM111.415 25.3516V35.5766C111.415 36.5266 111.632 37.2599 112.065 37.7766C112.515 38.2932 113.19 38.5516 114.09 38.5516C114.99 38.5516 115.665 38.2932 116.115 37.7766C116.582 37.2432 116.815 36.5099 116.815 35.5766V25.3516H121.715V35.5766C121.715 37.1932 121.373 38.5766 120.69 39.7266C120.007 40.8599 119.073 41.7182 117.89 42.3016C116.723 42.8682 115.423 43.1516 113.99 43.1516C112.557 43.1516 111.273 42.8682 110.14 42.3016C109.023 41.7182 108.14 40.8599 107.49 39.7266C106.857 38.5932 106.54 37.2099 106.54 35.5766V25.3516H111.415ZM129.063 29.2766V32.1516H134.688V35.8766H129.063V39.0516H135.438V42.9766H124.163V25.3516H135.438V29.2766H129.063ZM144.259 43.1516C142.209 43.1516 140.526 42.6682 139.209 41.7016C137.892 40.7182 137.184 39.3182 137.084 37.5016H142.309C142.359 38.1182 142.542 38.5682 142.859 38.8516C143.176 39.1349 143.584 39.2766 144.084 39.2766C144.534 39.2766 144.901 39.1682 145.184 38.9516C145.484 38.7182 145.634 38.4016 145.634 38.0016C145.634 37.4849 145.392 37.0849 144.909 36.8016C144.426 36.5182 143.642 36.2016 142.559 35.8516C141.409 35.4682 140.476 35.1016 139.759 34.7516C139.059 34.3849 138.442 33.8599 137.909 33.1766C137.392 32.4766 137.134 31.5682 137.134 30.4516C137.134 29.3182 137.417 28.3516 137.984 27.5516C138.551 26.7349 139.334 26.1182 140.334 25.7016C141.334 25.2849 142.467 25.0766 143.734 25.0766C145.784 25.0766 147.417 25.5599 148.634 26.5266C149.867 27.4766 150.526 28.8182 150.609 30.5516H145.284C145.267 30.0182 145.101 29.6182 144.784 29.3516C144.484 29.0849 144.092 28.9516 143.609 28.9516C143.242 28.9516 142.942 29.0599 142.709 29.2766C142.476 29.4932 142.359 29.8016 142.359 30.2016C142.359 30.5349 142.484 30.8266 142.734 31.0766C143.001 31.3099 143.326 31.5182 143.709 31.7016C144.092 31.8682 144.659 32.0849 145.409 32.3516C146.526 32.7349 147.442 33.1182 148.159 33.5016C148.892 33.8682 149.517 34.3932 150.034 35.0766C150.567 35.7432 150.834 36.5932 150.834 37.6266C150.834 38.6766 150.567 39.6182 150.034 40.4516C149.517 41.2849 148.759 41.9432 147.759 42.4266C146.776 42.9099 145.609 43.1516 144.259 43.1516ZM166.137 25.3516V29.2516H161.437V42.9766H156.537V29.2516H151.887V25.3516H166.137ZM172.6 25.3516V42.9766H167.7V25.3516H172.6ZM183.59 43.1516C181.94 43.1516 180.424 42.7682 179.04 42.0016C177.657 41.2182 176.557 40.1432 175.74 38.7766C174.94 37.3932 174.54 35.8349 174.54 34.1016C174.54 32.3682 174.94 30.8182 175.74 29.4516C176.557 28.0682 177.657 26.9932 179.04 26.2266C180.424 25.4599 181.94 25.0766 183.59 25.0766C185.257 25.0766 186.774 25.4599 188.14 26.2266C189.524 26.9932 190.615 28.0682 191.415 29.4516C192.215 30.8182 192.615 32.3682 192.615 34.1016C192.615 35.8349 192.215 37.3932 191.415 38.7766C190.615 40.1432 189.524 41.2182 188.14 42.0016C186.757 42.7682 185.24 43.1516 183.59 43.1516ZM183.59 38.6016C184.84 38.6016 185.824 38.1932 186.54 37.3766C187.274 36.5599 187.64 35.4682 187.64 34.1016C187.64 32.7016 187.274 31.6016 186.54 30.8016C185.824 29.9849 184.84 29.5766 183.59 29.5766C182.324 29.5766 181.332 29.9849 180.615 30.8016C179.899 31.6016 179.54 32.7016 179.54 34.1016C179.54 35.4849 179.899 36.5849 180.615 37.4016C181.332 38.2016 182.324 38.6016 183.59 38.6016ZM210.893 42.9766H205.993L199.468 33.1266V42.9766H194.568V25.3516H199.468L205.993 35.3266V25.3516H210.893V42.9766Z" fill="white"/>
</g>
<defs>
<filter id="filter0_d_1265_2602" x="0.131836" y="0.976562" width="239.974" height="79" filterUnits="userSpaceOnUse" color-interpolation-filters="sRGB">
<feFlood flood-opacity="0" result="BackgroundImageFix"/>
<feColorMatrix in="SourceAlpha" type="matrix" values="0 0 0 0 0 0 0 0 0 0 0 0 0 0 0 0 0 0 127 0" result="hardAlpha"/>
<feOffset dy="5"/>
<feGaussianBlur stdDeviation="4.75"/>
<feComposite in2="hardAlpha" operator="out"/>
<feColorMatrix type="matrix" values="0 0 0 0 0 0 0 0 0 0 0 0 0 0 0 0 0 0 0.25 0"/>
<feBlend mode="normal" in2="BackgroundImageFix" result="effect1_dropShadow_1265_2602"/>
<feBlend mode="normal" in="SourceGraphic" in2="effect1_dropShadow_1265_2602" result="shape"/>
</filter>
<filter id="filter1_di_1265_2602" x="21.3897" y="25.0781" width="194.651" height="31.1444" filterUnits="userSpaceOnUse" color-interpolation-filters="sRGB">
<feFlood flood-opacity="0" result="BackgroundImageFix"/>
<feColorMatrix in="SourceAlpha" type="matrix" values="0 0 0 0 0 0 0 0 0 0 0 0 0 0 0 0 0 0 127 0" result="hardAlpha"/>
<feOffset dy="5.14838"/>
<feGaussianBlur stdDeviation="2.57419"/>
<feComposite in2="hardAlpha" operator="out"/>
<feColorMatrix type="matrix" values="0 0 0 0 0 0 0 0 0 0 0 0 0 0 0 0 0 0 0.25 0"/>
<feBlend mode="normal" in2="BackgroundImageFix" result="effect1_dropShadow_1265_2602"/>
<feBlend mode="normal" in="SourceGraphic" in2="effect1_dropShadow_1265_2602" result="shape"/>
<feColorMatrix in="SourceAlpha" type="matrix" values="0 0 0 0 0 0 0 0 0 0 0 0 0 0 0 0 0 0 127 0" result="hardAlpha"/>
<feOffset dy="2.57419"/>
<feGaussianBlur stdDeviation="2.57419"/>
<feComposite in2="hardAlpha" operator="arithmetic" k2="-1" k3="1"/>
<feColorMatrix type="matrix" values="0 0 0 0 0 0 0 0 0 0 0 0 0 0 0 0 0 0 0.25 0"/>
<feBlend mode="normal" in2="shape" result="effect2_innerShadow_1265_2602"/>
</filter>
</defs>
</svg>
