<svg width="184" height="80" viewBox="0 0 184 80" fill="none" xmlns="http://www.w3.org/2000/svg">
<g filter="url(#filter0_d_1265_2705)">
<rect x="9.76367" y="5.06641" width="164.364" height="60" rx="10" fill="#FF3F42"/>
</g>
<g filter="url(#filter1_di_1265_2705)">
<path d="M52.9041 42.5664L49.4041 36.0664H48.8791V42.5664H43.9791V24.9414H51.7041C53.1208 24.9414 54.3208 25.1914 55.3041 25.6914C56.2874 26.1747 57.0291 26.8497 57.5291 27.7164C58.0291 28.5664 58.2791 29.5247 58.2791 30.5914C58.2791 31.7914 57.9458 32.8497 57.2791 33.7664C56.6291 34.6664 55.6708 35.3081 54.4041 35.6914L58.3791 42.5664H52.9041ZM48.8791 32.7164H51.3041C51.9708 32.7164 52.4708 32.5581 52.8041 32.2414C53.1374 31.9247 53.3041 31.4664 53.3041 30.8664C53.3041 30.2997 53.1291 29.8581 52.7791 29.5414C52.4458 29.2081 51.9541 29.0414 51.3041 29.0414H48.8791V32.7164ZM65.1574 28.8664V31.7414H70.7824V35.4664H65.1574V38.6414H71.5324V42.5664H60.2574V24.9414H71.5324V28.8664H65.1574ZM94.2787 24.9414V42.5664H89.3787V32.8414L86.0537 42.5664H81.9537L78.6037 32.7664V42.5664H73.7037V24.9414H79.6287L84.0537 36.3914L88.3787 24.9414H94.2787ZM105.268 42.7414C103.618 42.7414 102.101 42.3581 100.718 41.5914C99.3346 40.8081 98.2346 39.7331 97.418 38.3664C96.618 36.9831 96.218 35.4247 96.218 33.6914C96.218 31.9581 96.618 30.4081 97.418 29.0414C98.2346 27.6581 99.3346 26.5831 100.718 25.8164C102.101 25.0497 103.618 24.6664 105.268 24.6664C106.935 24.6664 108.451 25.0497 109.818 25.8164C111.201 26.5831 112.293 27.6581 113.093 29.0414C113.893 30.4081 114.293 31.9581 114.293 33.6914C114.293 35.4247 113.893 36.9831 113.093 38.3664C112.293 39.7331 111.201 40.8081 109.818 41.5914C108.435 42.3581 106.918 42.7414 105.268 42.7414ZM105.268 38.1914C106.518 38.1914 107.501 37.7831 108.218 36.9664C108.951 36.1497 109.318 35.0581 109.318 33.6914C109.318 32.2914 108.951 31.1914 108.218 30.3914C107.501 29.5747 106.518 29.1664 105.268 29.1664C104.001 29.1664 103.01 29.5747 102.293 30.3914C101.576 31.1914 101.218 32.2914 101.218 33.6914C101.218 35.0747 101.576 36.1747 102.293 36.9914C103.01 37.7914 104.001 38.1914 105.268 38.1914ZM133.396 24.9414L127.321 42.5664H121.046L114.946 24.9414H120.196L124.196 37.6664L128.171 24.9414H133.396ZM139.572 28.8664V31.7414H145.197V35.4664H139.572V38.6414H145.947V42.5664H134.672V24.9414H145.947V28.8664H139.572Z" fill="white"/>
</g>
<defs>
<filter id="filter0_d_1265_2705" x="0.263672" y="0.566406" width="183.364" height="79" filterUnits="userSpaceOnUse" color-interpolation-filters="sRGB">
<feFlood flood-opacity="0" result="BackgroundImageFix"/>
<feColorMatrix in="SourceAlpha" type="matrix" values="0 0 0 0 0 0 0 0 0 0 0 0 0 0 0 0 0 0 127 0" result="hardAlpha"/>
<feOffset dy="5"/>
<feGaussianBlur stdDeviation="4.75"/>
<feComposite in2="hardAlpha" operator="out"/>
<feColorMatrix type="matrix" values="0 0 0 0 0 0 0 0 0 0 0 0 0 0 0 0 0 0 0.25 0"/>
<feBlend mode="normal" in2="BackgroundImageFix" result="effect1_dropShadow_1265_2705"/>
<feBlend mode="normal" in="SourceGraphic" in2="effect1_dropShadow_1265_2705" result="shape"/>
</filter>
<filter id="filter1_di_1265_2705" x="38.8311" y="24.668" width="112.265" height="28.371" filterUnits="userSpaceOnUse" color-interpolation-filters="sRGB">
<feFlood flood-opacity="0" result="BackgroundImageFix"/>
<feColorMatrix in="SourceAlpha" type="matrix" values="0 0 0 0 0 0 0 0 0 0 0 0 0 0 0 0 0 0 127 0" result="hardAlpha"/>
<feOffset dy="5.14838"/>
<feGaussianBlur stdDeviation="2.57419"/>
<feComposite in2="hardAlpha" operator="out"/>
<feColorMatrix type="matrix" values="0 0 0 0 0 0 0 0 0 0 0 0 0 0 0 0 0 0 0.25 0"/>
<feBlend mode="normal" in2="BackgroundImageFix" result="effect1_dropShadow_1265_2705"/>
<feBlend mode="normal" in="SourceGraphic" in2="effect1_dropShadow_1265_2705" result="shape"/>
<feColorMatrix in="SourceAlpha" type="matrix" values="0 0 0 0 0 0 0 0 0 0 0 0 0 0 0 0 0 0 127 0" result="hardAlpha"/>
<feOffset dy="2.57419"/>
<feGaussianBlur stdDeviation="2.57419"/>
<feComposite in2="hardAlpha" operator="arithmetic" k2="-1" k3="1"/>
<feColorMatrix type="matrix" values="0 0 0 0 0 0 0 0 0 0 0 0 0 0 0 0 0 0 0.25 0"/>
<feBlend mode="normal" in2="shape" result="effect2_innerShadow_1265_2705"/>
</filter>
</defs>
</svg>
