<svg width="259" height="80" viewBox="0 0 259 80" fill="none" xmlns="http://www.w3.org/2000/svg">
<g filter="url(#filter0_d_1265_2718)">
<rect x="10.4111" y="5.27344" width="238.335" height="60" rx="10" fill="#FFC916"/>
</g>
<g filter="url(#filter1_di_1265_2718)">
<path d="M35.1672 42.9484C33.1172 42.9484 31.4339 42.4651 30.1172 41.4984C28.8005 40.5151 28.0922 39.1151 27.9922 37.2984H33.2172C33.2672 37.9151 33.4505 38.3651 33.7672 38.6484C34.0839 38.9318 34.4922 39.0734 34.9922 39.0734C35.4422 39.0734 35.8089 38.9651 36.0922 38.7484C36.3922 38.5151 36.5422 38.1984 36.5422 37.7984C36.5422 37.2818 36.3005 36.8818 35.8172 36.5984C35.3339 36.3151 34.5505 35.9984 33.4672 35.6484C32.3172 35.2651 31.3839 34.8984 30.6672 34.5484C29.9672 34.1818 29.3505 33.6568 28.8172 32.9734C28.3005 32.2734 28.0422 31.3651 28.0422 30.2484C28.0422 29.1151 28.3255 28.1484 28.8922 27.3484C29.4589 26.5318 30.2422 25.9151 31.2422 25.4984C32.2422 25.0818 33.3755 24.8734 34.6422 24.8734C36.6922 24.8734 38.3255 25.3568 39.5422 26.3234C40.7755 27.2734 41.4339 28.6151 41.5172 30.3484H36.1922C36.1755 29.8151 36.0089 29.4151 35.6922 29.1484C35.3922 28.8818 35.0005 28.7484 34.5172 28.7484C34.1505 28.7484 33.8505 28.8568 33.6172 29.0734C33.3839 29.2901 33.2672 29.5984 33.2672 29.9984C33.2672 30.3318 33.3922 30.6234 33.6422 30.8734C33.9089 31.1068 34.2339 31.3151 34.6172 31.4984C35.0005 31.6651 35.5672 31.8818 36.3172 32.1484C37.4339 32.5318 38.3505 32.9151 39.0672 33.2984C39.8005 33.6651 40.4255 34.1901 40.9422 34.8734C41.4755 35.5401 41.7422 36.3901 41.7422 37.4234C41.7422 38.4734 41.4755 39.4151 40.9422 40.2484C40.4255 41.0818 39.6672 41.7401 38.6672 42.2234C37.6839 42.7068 36.5172 42.9484 35.1672 42.9484ZM54.9201 39.8984H48.6701L47.7201 42.7734H42.5701L48.9951 25.1484H54.6451L61.0451 42.7734H55.8701L54.9201 39.8984ZM53.6951 36.1484L51.7951 30.4484L49.9201 36.1484H53.6951ZM79.5422 25.1484L73.4672 42.7734H67.1922L61.0922 25.1484H66.3422L70.3422 37.8734L74.3172 25.1484H79.5422ZM85.7189 29.0734V31.9484H91.3439V35.6734H85.7189V38.8484H92.0939V42.7734H80.8189V25.1484H92.0939V29.0734H85.7189ZM110.875 45.7234L108.925 42.7984C108.375 42.8984 107.817 42.9484 107.25 42.9484C105.6 42.9484 104.084 42.5651 102.7 41.7984C101.317 41.0151 100.217 39.9401 99.4004 38.5734C98.6004 37.1901 98.2004 35.6318 98.2004 33.8984C98.2004 32.1651 98.6004 30.6151 99.4004 29.2484C100.217 27.8651 101.317 26.7901 102.7 26.0234C104.084 25.2568 105.6 24.8734 107.25 24.8734C108.917 24.8734 110.434 25.2568 111.8 26.0234C113.184 26.7901 114.275 27.8651 115.075 29.2484C115.875 30.6151 116.275 32.1651 116.275 33.8984C116.275 35.3484 115.984 36.6901 115.4 37.9234C114.817 39.1401 114.017 40.1568 113 40.9734L116.725 45.7234H110.875ZM103.2 33.8984C103.2 35.2818 103.559 36.3818 104.275 37.1984C104.992 37.9984 105.984 38.3984 107.25 38.3984C108.5 38.3984 109.484 37.9901 110.2 37.1734C110.934 36.3568 111.3 35.2651 111.3 33.8984C111.3 32.4984 110.934 31.3984 110.2 30.5984C109.484 29.7818 108.5 29.3734 107.25 29.3734C105.984 29.3734 104.992 29.7818 104.275 30.5984C103.559 31.3984 103.2 32.4984 103.2 33.8984ZM123.053 25.1484V35.3734C123.053 36.3234 123.269 37.0568 123.703 37.5734C124.153 38.0901 124.828 38.3484 125.728 38.3484C126.628 38.3484 127.303 38.0901 127.753 37.5734C128.219 37.0401 128.453 36.3068 128.453 35.3734V25.1484H133.353V35.3734C133.353 36.9901 133.011 38.3734 132.328 39.5234C131.644 40.6568 130.711 41.5151 129.528 42.0984C128.361 42.6651 127.061 42.9484 125.628 42.9484C124.194 42.9484 122.911 42.6651 121.778 42.0984C120.661 41.5151 119.778 40.6568 119.128 39.5234C118.494 38.3901 118.178 37.0068 118.178 35.3734V25.1484H123.053ZM140.7 29.0734V31.9484H146.325V35.6734H140.7V38.8484H147.075V42.7734H135.8V25.1484H147.075V29.0734H140.7ZM155.897 42.9484C153.847 42.9484 152.163 42.4651 150.847 41.4984C149.53 40.5151 148.822 39.1151 148.722 37.2984H153.947C153.997 37.9151 154.18 38.3651 154.497 38.6484C154.813 38.9318 155.222 39.0734 155.722 39.0734C156.172 39.0734 156.538 38.9651 156.822 38.7484C157.122 38.5151 157.272 38.1984 157.272 37.7984C157.272 37.2818 157.03 36.8818 156.547 36.5984C156.063 36.3151 155.28 35.9984 154.197 35.6484C153.047 35.2651 152.113 34.8984 151.397 34.5484C150.697 34.1818 150.08 33.6568 149.547 32.9734C149.03 32.2734 148.772 31.3651 148.772 30.2484C148.772 29.1151 149.055 28.1484 149.622 27.3484C150.188 26.5318 150.972 25.9151 151.972 25.4984C152.972 25.0818 154.105 24.8734 155.372 24.8734C157.422 24.8734 159.055 25.3568 160.272 26.3234C161.505 27.2734 162.163 28.6151 162.247 30.3484H156.922C156.905 29.8151 156.738 29.4151 156.422 29.1484C156.122 28.8818 155.73 28.7484 155.247 28.7484C154.88 28.7484 154.58 28.8568 154.347 29.0734C154.113 29.2901 153.997 29.5984 153.997 29.9984C153.997 30.3318 154.122 30.6234 154.372 30.8734C154.638 31.1068 154.963 31.3151 155.347 31.4984C155.73 31.6651 156.297 31.8818 157.047 32.1484C158.163 32.5318 159.08 32.9151 159.797 33.2984C160.53 33.6651 161.155 34.1901 161.672 34.8734C162.205 35.5401 162.472 36.3901 162.472 37.4234C162.472 38.4734 162.205 39.4151 161.672 40.2484C161.155 41.0818 160.397 41.7401 159.397 42.2234C158.413 42.7068 157.247 42.9484 155.897 42.9484ZM177.775 25.1484V29.0484H173.075V42.7734H168.175V29.0484H163.525V25.1484H177.775ZM184.238 25.1484V42.7734H179.338V25.1484H184.238ZM195.228 42.9484C193.578 42.9484 192.061 42.5651 190.678 41.7984C189.295 41.0151 188.195 39.9401 187.378 38.5734C186.578 37.1901 186.178 35.6318 186.178 33.8984C186.178 32.1651 186.578 30.6151 187.378 29.2484C188.195 27.8651 189.295 26.7901 190.678 26.0234C192.061 25.2568 193.578 24.8734 195.228 24.8734C196.895 24.8734 198.411 25.2568 199.778 26.0234C201.161 26.7901 202.253 27.8651 203.053 29.2484C203.853 30.6151 204.253 32.1651 204.253 33.8984C204.253 35.6318 203.853 37.1901 203.053 38.5734C202.253 39.9401 201.161 41.0151 199.778 41.7984C198.395 42.5651 196.878 42.9484 195.228 42.9484ZM195.228 38.3984C196.478 38.3984 197.461 37.9901 198.178 37.1734C198.911 36.3568 199.278 35.2651 199.278 33.8984C199.278 32.4984 198.911 31.3984 198.178 30.5984C197.461 29.7818 196.478 29.3734 195.228 29.3734C193.961 29.3734 192.97 29.7818 192.253 30.5984C191.536 31.3984 191.178 32.4984 191.178 33.8984C191.178 35.2818 191.536 36.3818 192.253 37.1984C192.97 37.9984 193.961 38.3984 195.228 38.3984ZM222.531 42.7734H217.631L211.106 32.9234V42.7734H206.206V25.1484H211.106L217.631 35.1234V25.1484H222.531V42.7734Z" fill="white"/>
</g>
<defs>
<filter id="filter0_d_1265_2718" x="0.911133" y="0.773438" width="257.335" height="79" filterUnits="userSpaceOnUse" color-interpolation-filters="sRGB">
<feFlood flood-opacity="0" result="BackgroundImageFix"/>
<feColorMatrix in="SourceAlpha" type="matrix" values="0 0 0 0 0 0 0 0 0 0 0 0 0 0 0 0 0 0 127 0" result="hardAlpha"/>
<feOffset dy="5"/>
<feGaussianBlur stdDeviation="4.75"/>
<feComposite in2="hardAlpha" operator="out"/>
<feColorMatrix type="matrix" values="0 0 0 0 0 0 0 0 0 0 0 0 0 0 0 0 0 0 0.25 0"/>
<feBlend mode="normal" in2="BackgroundImageFix" result="effect1_dropShadow_1265_2718"/>
<feBlend mode="normal" in="SourceGraphic" in2="effect1_dropShadow_1265_2718" result="shape"/>
</filter>
<filter id="filter1_di_1265_2718" x="22.8438" y="24.875" width="204.835" height="31.1444" filterUnits="userSpaceOnUse" color-interpolation-filters="sRGB">
<feFlood flood-opacity="0" result="BackgroundImageFix"/>
<feColorMatrix in="SourceAlpha" type="matrix" values="0 0 0 0 0 0 0 0 0 0 0 0 0 0 0 0 0 0 127 0" result="hardAlpha"/>
<feOffset dy="5.14838"/>
<feGaussianBlur stdDeviation="2.57419"/>
<feComposite in2="hardAlpha" operator="out"/>
<feColorMatrix type="matrix" values="0 0 0 0 0 0 0 0 0 0 0 0 0 0 0 0 0 0 0.25 0"/>
<feBlend mode="normal" in2="BackgroundImageFix" result="effect1_dropShadow_1265_2718"/>
<feBlend mode="normal" in="SourceGraphic" in2="effect1_dropShadow_1265_2718" result="shape"/>
<feColorMatrix in="SourceAlpha" type="matrix" values="0 0 0 0 0 0 0 0 0 0 0 0 0 0 0 0 0 0 127 0" result="hardAlpha"/>
<feOffset dy="2.57419"/>
<feGaussianBlur stdDeviation="2.57419"/>
<feComposite in2="hardAlpha" operator="arithmetic" k2="-1" k3="1"/>
<feColorMatrix type="matrix" values="0 0 0 0 0 0 0 0 0 0 0 0 0 0 0 0 0 0 0.25 0"/>
<feBlend mode="normal" in2="shape" result="effect2_innerShadow_1265_2718"/>
</filter>
</defs>
</svg>
