<svg width="323" height="80" viewBox="0 0 323 80" fill="none" xmlns="http://www.w3.org/2000/svg">
<g filter="url(#filter0_d_2216_4158)">
<rect x="10" y="5" width="303" height="60" rx="10" fill="#FFC916"/>
</g>
<g filter="url(#filter1_di_2216_4158)">
<path d="M33.9597 34.15C33.9597 32.4167 34.318 30.875 35.0347 29.525C35.768 28.1583 36.8013 27.1 38.1347 26.35C39.468 25.5833 41.0013 25.2 42.7347 25.2C44.9347 25.2 46.7847 25.7917 48.2847 26.975C49.7847 28.1417 50.7513 29.7333 51.1847 31.75H45.9097C45.593 31.0833 45.1513 30.575 44.5847 30.225C44.0347 29.875 43.393 29.7 42.6597 29.7C41.5263 29.7 40.618 30.1083 39.9347 30.925C39.268 31.725 38.9347 32.8 38.9347 34.15C38.9347 35.5167 39.268 36.6083 39.9347 37.425C40.618 38.225 41.5263 38.625 42.6597 38.625C43.393 38.625 44.0347 38.45 44.5847 38.1C45.1513 37.75 45.593 37.2417 45.9097 36.575H51.1847C50.7513 38.5917 49.7847 40.1917 48.2847 41.375C46.7847 42.5417 44.9347 43.125 42.7347 43.125C41.0013 43.125 39.468 42.75 38.1347 42C36.8013 41.2333 35.768 40.175 35.0347 38.825C34.318 37.4583 33.9597 35.9 33.9597 34.15ZM69.03 25.375V43H64.13V35.925H58.155V43H53.255V25.375H58.155V32H64.13V25.375H69.03ZM82.7341 40.125H76.4841L75.5341 43H70.3841L76.8091 25.375H82.4591L88.8591 43H83.6841L82.7341 40.125ZM81.5091 36.375L79.6091 30.675L77.7341 36.375H81.5091ZM106.531 43H101.631L95.1062 33.15V43H90.2062V25.375H95.1062L101.631 35.35V25.375H106.531V43ZM120.322 31.175C120.039 30.7083 119.647 30.35 119.147 30.1C118.664 29.85 118.089 29.725 117.422 29.725C116.189 29.725 115.214 30.125 114.497 30.925C113.797 31.725 113.447 32.8 113.447 34.15C113.447 35.6667 113.822 36.825 114.572 37.625C115.339 38.4083 116.447 38.8 117.897 38.8C119.614 38.8 120.839 38.025 121.572 36.475H116.647V32.95H125.797V37.7C125.414 38.6333 124.847 39.5083 124.097 40.325C123.364 41.1417 122.431 41.8167 121.297 42.35C120.164 42.8667 118.872 43.125 117.422 43.125C115.656 43.125 114.089 42.75 112.722 42C111.372 41.2333 110.322 40.175 109.572 38.825C108.839 37.4583 108.472 35.9 108.472 34.15C108.472 32.4167 108.839 30.875 109.572 29.525C110.322 28.1583 111.372 27.1 112.722 26.35C114.072 25.5833 115.631 25.2 117.397 25.2C119.614 25.2 121.447 25.7333 122.897 26.8C124.347 27.8667 125.247 29.325 125.597 31.175H120.322ZM132.643 29.3V32.175H138.268V35.9H132.643V39.075H139.018V43H127.743V25.375H139.018V29.3H132.643ZM159.65 31.25C159.65 32.3167 159.4 33.2917 158.9 34.175C158.416 35.0417 157.675 35.7417 156.675 36.275C155.691 36.7917 154.483 37.05 153.05 37.05H150.625V43H145.725V25.375H153.05C154.466 25.375 155.666 25.625 156.65 26.125C157.65 26.625 158.4 27.3167 158.9 28.2C159.4 29.0833 159.65 30.1 159.65 31.25ZM152.575 33.15C153.958 33.15 154.65 32.5167 154.65 31.25C154.65 29.9667 153.958 29.325 152.575 29.325H150.625V33.15H152.575ZM172.518 40.125H166.268L165.318 43H160.168L166.593 25.375H172.243L178.643 43H173.468L172.518 40.125ZM171.293 36.375L169.393 30.675L167.518 36.375H171.293ZM186.64 43.175C184.59 43.175 182.907 42.6917 181.59 41.725C180.274 40.7417 179.565 39.3417 179.465 37.525H184.69C184.74 38.1417 184.924 38.5917 185.24 38.875C185.557 39.1583 185.965 39.3 186.465 39.3C186.915 39.3 187.282 39.1917 187.565 38.975C187.865 38.7417 188.015 38.425 188.015 38.025C188.015 37.5083 187.774 37.1083 187.29 36.825C186.807 36.5417 186.024 36.225 184.94 35.875C183.79 35.4917 182.857 35.125 182.14 34.775C181.44 34.4083 180.824 33.8833 180.29 33.2C179.774 32.5 179.515 31.5917 179.515 30.475C179.515 29.3417 179.799 28.375 180.365 27.575C180.932 26.7583 181.715 26.1417 182.715 25.725C183.715 25.3083 184.849 25.1 186.115 25.1C188.165 25.1 189.799 25.5833 191.015 26.55C192.249 27.5 192.907 28.8417 192.99 30.575H187.665C187.649 30.0417 187.482 29.6417 187.165 29.375C186.865 29.1083 186.474 28.975 185.99 28.975C185.624 28.975 185.324 29.0833 185.09 29.3C184.857 29.5167 184.74 29.825 184.74 30.225C184.74 30.5583 184.865 30.85 185.115 31.1C185.382 31.3333 185.707 31.5417 186.09 31.725C186.474 31.8917 187.04 32.1083 187.79 32.375C188.907 32.7583 189.824 33.1417 190.54 33.525C191.274 33.8917 191.899 34.4167 192.415 35.1C192.949 35.7667 193.215 36.6167 193.215 37.65C193.215 38.7 192.949 39.6417 192.415 40.475C191.899 41.3083 191.14 41.9667 190.14 42.45C189.157 42.9333 187.99 43.175 186.64 43.175ZM201.893 43.175C199.843 43.175 198.16 42.6917 196.843 41.725C195.527 40.7417 194.818 39.3417 194.718 37.525H199.943C199.993 38.1417 200.177 38.5917 200.493 38.875C200.81 39.1583 201.218 39.3 201.718 39.3C202.168 39.3 202.535 39.1917 202.818 38.975C203.118 38.7417 203.268 38.425 203.268 38.025C203.268 37.5083 203.027 37.1083 202.543 36.825C202.06 36.5417 201.277 36.225 200.193 35.875C199.043 35.4917 198.11 35.125 197.393 34.775C196.693 34.4083 196.077 33.8833 195.543 33.2C195.027 32.5 194.768 31.5917 194.768 30.475C194.768 29.3417 195.052 28.375 195.618 27.575C196.185 26.7583 196.968 26.1417 197.968 25.725C198.968 25.3083 200.102 25.1 201.368 25.1C203.418 25.1 205.052 25.5833 206.268 26.55C207.502 27.5 208.16 28.8417 208.243 30.575H202.918C202.902 30.0417 202.735 29.6417 202.418 29.375C202.118 29.1083 201.727 28.975 201.243 28.975C200.877 28.975 200.577 29.0833 200.343 29.3C200.11 29.5167 199.993 29.825 199.993 30.225C199.993 30.5583 200.118 30.85 200.368 31.1C200.635 31.3333 200.96 31.5417 201.343 31.725C201.727 31.8917 202.293 32.1083 203.043 32.375C204.16 32.7583 205.077 33.1417 205.793 33.525C206.527 33.8917 207.152 34.4167 207.668 35.1C208.202 35.7667 208.468 36.6167 208.468 37.65C208.468 38.7 208.202 39.6417 207.668 40.475C207.152 41.3083 206.393 41.9667 205.393 42.45C204.41 42.9333 203.243 43.175 201.893 43.175ZM235.321 25.375L230.996 43H224.971L222.546 32.2L220.071 43H214.046L209.771 25.375H215.071L217.121 37.425L219.896 25.375H225.271L227.971 37.325L230.021 25.375H235.321ZM245.6 43.175C243.95 43.175 242.434 42.7917 241.05 42.025C239.667 41.2417 238.567 40.1667 237.75 38.8C236.95 37.4167 236.55 35.8583 236.55 34.125C236.55 32.3917 236.95 30.8417 237.75 29.475C238.567 28.0917 239.667 27.0167 241.05 26.25C242.434 25.4833 243.95 25.1 245.6 25.1C247.267 25.1 248.784 25.4833 250.15 26.25C251.534 27.0167 252.625 28.0917 253.425 29.475C254.225 30.8417 254.625 32.3917 254.625 34.125C254.625 35.8583 254.225 37.4167 253.425 38.8C252.625 40.1667 251.534 41.2417 250.15 42.025C248.767 42.7917 247.25 43.175 245.6 43.175ZM245.6 38.625C246.85 38.625 247.834 38.2167 248.55 37.4C249.284 36.5833 249.65 35.4917 249.65 34.125C249.65 32.725 249.284 31.625 248.55 30.825C247.834 30.0083 246.85 29.6 245.6 29.6C244.334 29.6 243.342 30.0083 242.625 30.825C241.909 31.625 241.55 32.725 241.55 34.125C241.55 35.5083 241.909 36.6083 242.625 37.425C243.342 38.225 244.334 38.625 245.6 38.625ZM265.503 43L262.003 36.5H261.478V43H256.578V25.375H264.303C265.72 25.375 266.92 25.625 267.903 26.125C268.887 26.6083 269.628 27.2833 270.128 28.15C270.628 29 270.878 29.9583 270.878 31.025C270.878 32.225 270.545 33.2833 269.878 34.2C269.228 35.1 268.27 35.7417 267.003 36.125L270.978 43H265.503ZM261.478 33.15H263.903C264.57 33.15 265.07 32.9917 265.403 32.675C265.737 32.3583 265.903 31.9 265.903 31.3C265.903 30.7333 265.728 30.2917 265.378 29.975C265.045 29.6417 264.553 29.475 263.903 29.475H261.478V33.15ZM279.832 25.375C281.682 25.375 283.298 25.75 284.682 26.5C286.082 27.2333 287.157 28.2667 287.907 29.6C288.657 30.9333 289.032 32.4583 289.032 34.175C289.032 35.875 288.648 37.3917 287.882 38.725C287.132 40.0583 286.057 41.1083 284.657 41.875C283.273 42.625 281.665 43 279.832 43H272.857V25.375H279.832ZM279.457 38.675C280.89 38.675 282.015 38.2833 282.832 37.5C283.648 36.7167 284.057 35.6083 284.057 34.175C284.057 32.725 283.648 31.6083 282.832 30.825C282.015 30.025 280.89 29.625 279.457 29.625H277.757V38.675H279.457Z" fill="white"/>
</g>
<defs>
<filter id="filter0_d_2216_4158" x="0.5" y="0.5" width="322" height="79" filterUnits="userSpaceOnUse" color-interpolation-filters="sRGB">
<feFlood flood-opacity="0" result="BackgroundImageFix"/>
<feColorMatrix in="SourceAlpha" type="matrix" values="0 0 0 0 0 0 0 0 0 0 0 0 0 0 0 0 0 0 127 0" result="hardAlpha"/>
<feOffset dy="5"/>
<feGaussianBlur stdDeviation="4.75"/>
<feComposite in2="hardAlpha" operator="out"/>
<feColorMatrix type="matrix" values="0 0 0 0 0 0 0 0 0 0 0 0 0 0 0 0 0 0 0.25 0"/>
<feBlend mode="normal" in2="BackgroundImageFix" result="effect1_dropShadow_2216_4158"/>
<feBlend mode="normal" in="SourceGraphic" in2="effect1_dropShadow_2216_4158" result="shape"/>
</filter>
<filter id="filter1_di_2216_4158" x="28.8106" y="25.1016" width="265.369" height="28.371" filterUnits="userSpaceOnUse" color-interpolation-filters="sRGB">
<feFlood flood-opacity="0" result="BackgroundImageFix"/>
<feColorMatrix in="SourceAlpha" type="matrix" values="0 0 0 0 0 0 0 0 0 0 0 0 0 0 0 0 0 0 127 0" result="hardAlpha"/>
<feOffset dy="5.14838"/>
<feGaussianBlur stdDeviation="2.57419"/>
<feComposite in2="hardAlpha" operator="out"/>
<feColorMatrix type="matrix" values="0 0 0 0 0 0 0 0 0 0 0 0 0 0 0 0 0 0 0.25 0"/>
<feBlend mode="normal" in2="BackgroundImageFix" result="effect1_dropShadow_2216_4158"/>
<feBlend mode="normal" in="SourceGraphic" in2="effect1_dropShadow_2216_4158" result="shape"/>
<feColorMatrix in="SourceAlpha" type="matrix" values="0 0 0 0 0 0 0 0 0 0 0 0 0 0 0 0 0 0 127 0" result="hardAlpha"/>
<feOffset dy="2.57419"/>
<feGaussianBlur stdDeviation="2.57419"/>
<feComposite in2="hardAlpha" operator="arithmetic" k2="-1" k3="1"/>
<feColorMatrix type="matrix" values="0 0 0 0 0 0 0 0 0 0 0 0 0 0 0 0 0 0 0.25 0"/>
<feBlend mode="normal" in2="shape" result="effect2_innerShadow_2216_4158"/>
</filter>
</defs>
</svg>
