<svg width="323" height="80" viewBox="0 0 323 80" fill="none" xmlns="http://www.w3.org/2000/svg">
<g filter="url(#filter0_d_2216_4162)">
<rect x="10" y="5" width="303" height="60" rx="10" fill="#FFC916"/>
</g>
<g filter="url(#filter1_di_2216_4162)">
<path d="M89.4631 29.3V32.175H95.0881V35.9H89.4631V39.075H95.8381V43H84.5631V25.375H95.8381V29.3H89.4631ZM104.984 25.375C106.834 25.375 108.451 25.75 109.834 26.5C111.234 27.2333 112.309 28.2667 113.059 29.6C113.809 30.9333 114.184 32.4583 114.184 34.175C114.184 35.875 113.801 37.3917 113.034 38.725C112.284 40.0583 111.209 41.1083 109.809 41.875C108.426 42.625 106.818 43 104.984 43H98.0094V25.375H104.984ZM104.609 38.675C106.043 38.675 107.168 38.2833 107.984 37.5C108.801 36.7167 109.209 35.6083 109.209 34.175C109.209 32.725 108.801 31.6083 107.984 30.825C107.168 30.025 106.043 29.625 104.609 29.625H102.909V38.675H104.609ZM121.043 25.375V43H116.143V25.375H121.043ZM136.859 25.375V29.275H132.159V43H127.259V29.275H122.609V25.375H136.859ZM156.882 31.25C156.882 32.3167 156.632 33.2917 156.132 34.175C155.648 35.0417 154.907 35.7417 153.907 36.275C152.923 36.7917 151.715 37.05 150.282 37.05H147.857V43H142.957V25.375H150.282C151.698 25.375 152.898 25.625 153.882 26.125C154.882 26.625 155.632 27.3167 156.132 28.2C156.632 29.0833 156.882 30.1 156.882 31.25ZM149.807 33.15C151.19 33.15 151.882 32.5167 151.882 31.25C151.882 29.9667 151.19 29.325 149.807 29.325H147.857V33.15H149.807ZM167.525 43L164.025 36.5H163.5V43H158.6V25.375H166.325C167.742 25.375 168.942 25.625 169.925 26.125C170.909 26.6083 171.65 27.2833 172.15 28.15C172.65 29 172.9 29.9583 172.9 31.025C172.9 32.225 172.567 33.2833 171.9 34.2C171.25 35.1 170.292 35.7417 169.025 36.125L173 43H167.525ZM163.5 33.15H165.925C166.592 33.15 167.092 32.9917 167.425 32.675C167.759 32.3583 167.925 31.9 167.925 31.3C167.925 30.7333 167.75 30.2917 167.4 29.975C167.067 29.6417 166.575 29.475 165.925 29.475H163.5V33.15ZM183.329 43.175C181.679 43.175 180.162 42.7917 178.779 42.025C177.395 41.2417 176.295 40.1667 175.479 38.8C174.679 37.4167 174.279 35.8583 174.279 34.125C174.279 32.3917 174.679 30.8417 175.479 29.475C176.295 28.0917 177.395 27.0167 178.779 26.25C180.162 25.4833 181.679 25.1 183.329 25.1C184.995 25.1 186.512 25.4833 187.879 26.25C189.262 27.0167 190.354 28.0917 191.154 29.475C191.954 30.8417 192.354 32.3917 192.354 34.125C192.354 35.8583 191.954 37.4167 191.154 38.8C190.354 40.1667 189.262 41.2417 187.879 42.025C186.495 42.7917 184.979 43.175 183.329 43.175ZM183.329 38.625C184.579 38.625 185.562 38.2167 186.279 37.4C187.012 36.5833 187.379 35.4917 187.379 34.125C187.379 32.725 187.012 31.625 186.279 30.825C185.562 30.0083 184.579 29.6 183.329 29.6C182.062 29.6 181.07 30.0083 180.354 30.825C179.637 31.625 179.279 32.725 179.279 34.125C179.279 35.5083 179.637 36.6083 180.354 37.425C181.07 38.225 182.062 38.625 183.329 38.625ZM206.256 25.375V29.275H199.206V32.375H204.406V36.1H199.206V43H194.306V25.375H206.256ZM212.97 25.375V43H208.07V25.375H212.97ZM220.41 39.25H225.885V43H215.51V25.375H220.41V39.25ZM232.441 29.3V32.175H238.066V35.9H232.441V39.075H238.816V43H227.541V25.375H238.816V29.3H232.441Z" fill="white"/>
</g>
<defs>
<filter id="filter0_d_2216_4162" x="0.5" y="0.5" width="322" height="79" filterUnits="userSpaceOnUse" color-interpolation-filters="sRGB">
<feFlood flood-opacity="0" result="BackgroundImageFix"/>
<feColorMatrix in="SourceAlpha" type="matrix" values="0 0 0 0 0 0 0 0 0 0 0 0 0 0 0 0 0 0 127 0" result="hardAlpha"/>
<feOffset dy="5"/>
<feGaussianBlur stdDeviation="4.75"/>
<feComposite in2="hardAlpha" operator="out"/>
<feColorMatrix type="matrix" values="0 0 0 0 0 0 0 0 0 0 0 0 0 0 0 0 0 0 0.25 0"/>
<feBlend mode="normal" in2="BackgroundImageFix" result="effect1_dropShadow_2216_4162"/>
<feBlend mode="normal" in="SourceGraphic" in2="effect1_dropShadow_2216_4162" result="shape"/>
</filter>
<filter id="filter1_di_2216_4162" x="79.4141" y="25.1016" width="164.551" height="28.371" filterUnits="userSpaceOnUse" color-interpolation-filters="sRGB">
<feFlood flood-opacity="0" result="BackgroundImageFix"/>
<feColorMatrix in="SourceAlpha" type="matrix" values="0 0 0 0 0 0 0 0 0 0 0 0 0 0 0 0 0 0 127 0" result="hardAlpha"/>
<feOffset dy="5.14838"/>
<feGaussianBlur stdDeviation="2.57419"/>
<feComposite in2="hardAlpha" operator="out"/>
<feColorMatrix type="matrix" values="0 0 0 0 0 0 0 0 0 0 0 0 0 0 0 0 0 0 0.25 0"/>
<feBlend mode="normal" in2="BackgroundImageFix" result="effect1_dropShadow_2216_4162"/>
<feBlend mode="normal" in="SourceGraphic" in2="effect1_dropShadow_2216_4162" result="shape"/>
<feColorMatrix in="SourceAlpha" type="matrix" values="0 0 0 0 0 0 0 0 0 0 0 0 0 0 0 0 0 0 127 0" result="hardAlpha"/>
<feOffset dy="2.57419"/>
<feGaussianBlur stdDeviation="2.57419"/>
<feComposite in2="hardAlpha" operator="arithmetic" k2="-1" k3="1"/>
<feColorMatrix type="matrix" values="0 0 0 0 0 0 0 0 0 0 0 0 0 0 0 0 0 0 0.25 0"/>
<feBlend mode="normal" in2="shape" result="effect2_innerShadow_2216_4162"/>
</filter>
</defs>
</svg>
