<svg width="323" height="80" viewBox="0 0 323 80" fill="none" xmlns="http://www.w3.org/2000/svg">
<g filter="url(#filter0_d_2218_4166)">
<rect x="10" y="5" width="303" height="60" rx="10" fill="#FFC916"/>
</g>
<g filter="url(#filter1_di_2218_4166)">
<path d="M85.2683 43.175C83.2183 43.175 81.5349 42.6917 80.2183 41.725C78.9016 40.7417 78.1933 39.3417 78.0933 37.525H83.3183C83.3683 38.1417 83.5516 38.5917 83.8683 38.875C84.1849 39.1583 84.5933 39.3 85.0933 39.3C85.5433 39.3 85.9099 39.1917 86.1933 38.975C86.4933 38.7417 86.6433 38.425 86.6433 38.025C86.6433 37.5083 86.4016 37.1083 85.9183 36.825C85.4349 36.5417 84.6516 36.225 83.5683 35.875C82.4183 35.4917 81.4849 35.125 80.7683 34.775C80.0683 34.4083 79.4516 33.8833 78.9183 33.2C78.4016 32.5 78.1433 31.5917 78.1433 30.475C78.1433 29.3417 78.4266 28.375 78.9933 27.575C79.5599 26.7583 80.3433 26.1417 81.3433 25.725C82.3433 25.3083 83.4766 25.1 84.7433 25.1C86.7933 25.1 88.4266 25.5833 89.6433 26.55C90.8766 27.5 91.5349 28.8417 91.6183 30.575H86.2933C86.2766 30.0417 86.1099 29.6417 85.7933 29.375C85.4933 29.1083 85.1016 28.975 84.6183 28.975C84.2516 28.975 83.9516 29.0833 83.7183 29.3C83.4849 29.5167 83.3683 29.825 83.3683 30.225C83.3683 30.5583 83.4933 30.85 83.7433 31.1C84.0099 31.3333 84.3349 31.5417 84.7183 31.725C85.1016 31.8917 85.6683 32.1083 86.4183 32.375C87.5349 32.7583 88.4516 33.1417 89.1683 33.525C89.9016 33.8917 90.5266 34.4167 91.0433 35.1C91.5766 35.7667 91.8433 36.6167 91.8433 37.65C91.8433 38.7 91.5766 39.6417 91.0433 40.475C90.5266 41.3083 89.7683 41.9667 88.7683 42.45C87.7849 42.9333 86.6183 43.175 85.2683 43.175ZM105.021 40.125H98.7712L97.8212 43H92.6712L99.0962 25.375H104.746L111.146 43H105.971L105.021 40.125ZM103.796 36.375L101.896 30.675L100.021 36.375H103.796ZM129.643 25.375L123.568 43H117.293L111.193 25.375H116.443L120.443 38.1L124.418 25.375H129.643ZM135.82 29.3V32.175H141.445V35.9H135.82V39.075H142.195V43H130.92V25.375H142.195V29.3H135.82ZM162.826 31.25C162.826 32.3167 162.576 33.2917 162.076 34.175C161.593 35.0417 160.851 35.7417 159.851 36.275C158.868 36.7917 157.66 37.05 156.226 37.05H153.801V43H148.901V25.375H156.226C157.643 25.375 158.843 25.625 159.826 26.125C160.826 26.625 161.576 27.3167 162.076 28.2C162.576 29.0833 162.826 30.1 162.826 31.25ZM155.751 33.15C157.135 33.15 157.826 32.5167 157.826 31.25C157.826 29.9667 157.135 29.325 155.751 29.325H153.801V33.15H155.751ZM173.47 43L169.97 36.5H169.445V43H164.545V25.375H172.27C173.687 25.375 174.887 25.625 175.87 26.125C176.853 26.6083 177.595 27.2833 178.095 28.15C178.595 29 178.845 29.9583 178.845 31.025C178.845 32.225 178.512 33.2833 177.845 34.2C177.195 35.1 176.237 35.7417 174.97 36.125L178.945 43H173.47ZM169.445 33.15H171.87C172.537 33.15 173.037 32.9917 173.37 32.675C173.703 32.3583 173.87 31.9 173.87 31.3C173.87 30.7333 173.695 30.2917 173.345 29.975C173.012 29.6417 172.52 29.475 171.87 29.475H169.445V33.15ZM189.273 43.175C187.623 43.175 186.107 42.7917 184.723 42.025C183.34 41.2417 182.24 40.1667 181.423 38.8C180.623 37.4167 180.223 35.8583 180.223 34.125C180.223 32.3917 180.623 30.8417 181.423 29.475C182.24 28.0917 183.34 27.0167 184.723 26.25C186.107 25.4833 187.623 25.1 189.273 25.1C190.94 25.1 192.457 25.4833 193.823 26.25C195.207 27.0167 196.298 28.0917 197.098 29.475C197.898 30.8417 198.298 32.3917 198.298 34.125C198.298 35.8583 197.898 37.4167 197.098 38.8C196.298 40.1667 195.207 41.2417 193.823 42.025C192.44 42.7917 190.923 43.175 189.273 43.175ZM189.273 38.625C190.523 38.625 191.507 38.2167 192.223 37.4C192.957 36.5833 193.323 35.4917 193.323 34.125C193.323 32.725 192.957 31.625 192.223 30.825C191.507 30.0083 190.523 29.6 189.273 29.6C188.007 29.6 187.015 30.0083 186.298 30.825C185.582 31.625 185.223 32.725 185.223 34.125C185.223 35.5083 185.582 36.6083 186.298 37.425C187.015 38.225 188.007 38.625 189.273 38.625ZM212.201 25.375V29.275H205.151V32.375H210.351V36.1H205.151V43H200.251V25.375H212.201ZM218.915 25.375V43H214.015V25.375H218.915ZM226.355 39.25H231.83V43H221.455V25.375H226.355V39.25ZM238.385 29.3V32.175H244.01V35.9H238.385V39.075H244.76V43H233.485V25.375H244.76V29.3H238.385Z" fill="white"/>
</g>
<defs>
<filter id="filter0_d_2218_4166" x="0.5" y="0.5" width="322" height="79" filterUnits="userSpaceOnUse" color-interpolation-filters="sRGB">
<feFlood flood-opacity="0" result="BackgroundImageFix"/>
<feColorMatrix in="SourceAlpha" type="matrix" values="0 0 0 0 0 0 0 0 0 0 0 0 0 0 0 0 0 0 127 0" result="hardAlpha"/>
<feOffset dy="5"/>
<feGaussianBlur stdDeviation="4.75"/>
<feComposite in2="hardAlpha" operator="out"/>
<feColorMatrix type="matrix" values="0 0 0 0 0 0 0 0 0 0 0 0 0 0 0 0 0 0 0.25 0"/>
<feBlend mode="normal" in2="BackgroundImageFix" result="effect1_dropShadow_2218_4166"/>
<feBlend mode="normal" in="SourceGraphic" in2="effect1_dropShadow_2218_4166" result="shape"/>
</filter>
<filter id="filter1_di_2218_4166" x="72.9454" y="25.1016" width="176.963" height="28.371" filterUnits="userSpaceOnUse" color-interpolation-filters="sRGB">
<feFlood flood-opacity="0" result="BackgroundImageFix"/>
<feColorMatrix in="SourceAlpha" type="matrix" values="0 0 0 0 0 0 0 0 0 0 0 0 0 0 0 0 0 0 127 0" result="hardAlpha"/>
<feOffset dy="5.14838"/>
<feGaussianBlur stdDeviation="2.57419"/>
<feComposite in2="hardAlpha" operator="out"/>
<feColorMatrix type="matrix" values="0 0 0 0 0 0 0 0 0 0 0 0 0 0 0 0 0 0 0.25 0"/>
<feBlend mode="normal" in2="BackgroundImageFix" result="effect1_dropShadow_2218_4166"/>
<feBlend mode="normal" in="SourceGraphic" in2="effect1_dropShadow_2218_4166" result="shape"/>
<feColorMatrix in="SourceAlpha" type="matrix" values="0 0 0 0 0 0 0 0 0 0 0 0 0 0 0 0 0 0 127 0" result="hardAlpha"/>
<feOffset dy="2.57419"/>
<feGaussianBlur stdDeviation="2.57419"/>
<feComposite in2="hardAlpha" operator="arithmetic" k2="-1" k3="1"/>
<feColorMatrix type="matrix" values="0 0 0 0 0 0 0 0 0 0 0 0 0 0 0 0 0 0 0.25 0"/>
<feBlend mode="normal" in2="shape" result="effect2_innerShadow_2218_4166"/>
</filter>
</defs>
</svg>
